G04 #@! TF.GenerationSoftware,KiCad,Pcbnew,(6.0.1)*
G04 #@! TF.CreationDate,2022-02-06T22:38:44+01:00*
G04 #@! TF.ProjectId,CarteSecondaire,43617274-6553-4656-936f-6e6461697265,rev?*
G04 #@! TF.SameCoordinates,Original*
G04 #@! TF.FileFunction,Soldermask,Top*
G04 #@! TF.FilePolarity,Negative*
%FSLAX46Y46*%
G04 Gerber Fmt 4.6, Leading zero omitted, Abs format (unit mm)*
G04 Created by KiCad (PCBNEW (6.0.1)) date 2022-02-06 22:38:44*
%MOMM*%
%LPD*%
G01*
G04 APERTURE LIST*
G04 Aperture macros list*
%AMRoundRect*
0 Rectangle with rounded corners*
0 $1 Rounding radius*
0 $2 $3 $4 $5 $6 $7 $8 $9 X,Y pos of 4 corners*
0 Add a 4 corners polygon primitive as box body*
4,1,4,$2,$3,$4,$5,$6,$7,$8,$9,$2,$3,0*
0 Add four circle primitives for the rounded corners*
1,1,$1+$1,$2,$3*
1,1,$1+$1,$4,$5*
1,1,$1+$1,$6,$7*
1,1,$1+$1,$8,$9*
0 Add four rect primitives between the rounded corners*
20,1,$1+$1,$2,$3,$4,$5,0*
20,1,$1+$1,$4,$5,$6,$7,0*
20,1,$1+$1,$6,$7,$8,$9,0*
20,1,$1+$1,$8,$9,$2,$3,0*%
G04 Aperture macros list end*
%ADD10C,1.700000*%
%ADD11RoundRect,0.250000X0.600000X0.600000X-0.600000X0.600000X-0.600000X-0.600000X0.600000X-0.600000X0*%
%ADD12R,1.500000X2.500000*%
%ADD13O,1.500000X2.500000*%
%ADD14R,3.000000X3.000000*%
%ADD15C,3.000000*%
%ADD16RoundRect,0.250000X-0.475000X0.250000X-0.475000X-0.250000X0.475000X-0.250000X0.475000X0.250000X0*%
%ADD17R,1.100000X1.100000*%
%ADD18RoundRect,0.250000X-0.450000X0.262500X-0.450000X-0.262500X0.450000X-0.262500X0.450000X0.262500X0*%
%ADD19C,3.200000*%
%ADD20C,1.524000*%
%ADD21RoundRect,0.150000X0.150000X-0.587500X0.150000X0.587500X-0.150000X0.587500X-0.150000X-0.587500X0*%
%ADD22RoundRect,0.250000X0.262500X0.450000X-0.262500X0.450000X-0.262500X-0.450000X0.262500X-0.450000X0*%
%ADD23RoundRect,0.250000X-0.262500X-0.450000X0.262500X-0.450000X0.262500X0.450000X-0.262500X0.450000X0*%
%ADD24R,1.700000X1.700000*%
%ADD25O,1.700000X1.700000*%
%ADD26RoundRect,0.150000X-0.150000X0.587500X-0.150000X-0.587500X0.150000X-0.587500X0.150000X0.587500X0*%
%ADD27RoundRect,0.250000X0.600000X0.675000X-0.600000X0.675000X-0.600000X-0.675000X0.600000X-0.675000X0*%
%ADD28O,1.700000X1.850000*%
%ADD29RoundRect,0.250000X-0.600000X-0.675000X0.600000X-0.675000X0.600000X0.675000X-0.600000X0.675000X0*%
G04 APERTURE END LIST*
D10*
X109261511Y-161290000D03*
X111801511Y-161290000D03*
X109261511Y-163830000D03*
X111801511Y-163830000D03*
X109261511Y-166370000D03*
X111801511Y-166370000D03*
X109261511Y-168910000D03*
X111801511Y-168910000D03*
X109261511Y-171450000D03*
X111801511Y-171450000D03*
X109261511Y-173990000D03*
X111801511Y-173990000D03*
X109261511Y-176530000D03*
X111801511Y-176530000D03*
X109261511Y-179070000D03*
D11*
X111801511Y-179070000D03*
D12*
X132639011Y-172111511D03*
D13*
X135179011Y-172111511D03*
X137719011Y-172111511D03*
D14*
X136449011Y-161951511D03*
D15*
X136449011Y-156871511D03*
D16*
X130099011Y-158461511D03*
X130099011Y-160361511D03*
D17*
X133909011Y-134011511D03*
X133909011Y-136811511D03*
D18*
X107239011Y-148339011D03*
X107239011Y-150164011D03*
D19*
X94500000Y-126000000D03*
D20*
X94539011Y-156871511D03*
X97079011Y-156871511D03*
X99619011Y-156871511D03*
X98349011Y-141631511D03*
X100889011Y-141631511D03*
D21*
X121529011Y-134616511D03*
X123429011Y-134616511D03*
X122479011Y-132741511D03*
X121529011Y-142569011D03*
X123429011Y-142569011D03*
X122479011Y-140694011D03*
D22*
X107239011Y-137821511D03*
X105414011Y-137821511D03*
D23*
X121566511Y-145441511D03*
X123391511Y-145441511D03*
D20*
X125019011Y-181763511D03*
X125019011Y-184303511D03*
D24*
X128829011Y-123851511D03*
D25*
X128829011Y-126391511D03*
X128829011Y-128931511D03*
D20*
X126210000Y-166500000D03*
X123670000Y-166500000D03*
X121130000Y-166500000D03*
X118590000Y-166500000D03*
D17*
X135179011Y-142641511D03*
X135179011Y-145441511D03*
D20*
X130099011Y-135281511D03*
X127559011Y-135281511D03*
X98349011Y-134011511D03*
X100889011Y-134011511D03*
D19*
X94500000Y-182000000D03*
D20*
X130099011Y-142901511D03*
X127559011Y-142901511D03*
D26*
X106919011Y-141964011D03*
X105019011Y-141964011D03*
X105969011Y-143839011D03*
D20*
X94539011Y-174651511D03*
X97079011Y-174651511D03*
X99619011Y-174651511D03*
X102159011Y-174651511D03*
D17*
X94539011Y-139091511D03*
X94539011Y-141891511D03*
D24*
X138989011Y-134026511D03*
D25*
X138989011Y-136566511D03*
X138989011Y-139106511D03*
D19*
X137000000Y-126000000D03*
D11*
X114859011Y-145441511D03*
D10*
X112319011Y-145441511D03*
X114859011Y-142901511D03*
X112319011Y-142901511D03*
X114859011Y-140361511D03*
X112319011Y-140361511D03*
X114859011Y-137821511D03*
X112319011Y-137821511D03*
X114859011Y-135281511D03*
X112319011Y-135281511D03*
X114859011Y-132741511D03*
X112319011Y-132741511D03*
X114859011Y-130201511D03*
X112319011Y-130201511D03*
X114859011Y-127661511D03*
X112319011Y-127661511D03*
D17*
X94539011Y-135411511D03*
X94539011Y-132611511D03*
D20*
X126289011Y-175921511D03*
X123749011Y-175921511D03*
X121209011Y-175921511D03*
X118669011Y-175921511D03*
D19*
X137000000Y-182000000D03*
D24*
X122479011Y-123866511D03*
D25*
X122479011Y-126406511D03*
X122479011Y-128946511D03*
D20*
X125019011Y-158141511D03*
X122479011Y-158141511D03*
X119939011Y-158141511D03*
D27*
X127559011Y-149871511D03*
D28*
X125059011Y-149871511D03*
X122559011Y-149871511D03*
D23*
X121566511Y-137821511D03*
X123391511Y-137821511D03*
D29*
X97119011Y-149901511D03*
D28*
X99619011Y-149901511D03*
X102119011Y-149901511D03*
D26*
X106919011Y-133074011D03*
X105019011Y-133074011D03*
X105969011Y-134949011D03*
D20*
X100889011Y-181763511D03*
X100889011Y-184303511D03*
D16*
X131900000Y-176850000D03*
X131900000Y-178750000D03*
D20*
X94539011Y-165761511D03*
X97079011Y-165761511D03*
X99619011Y-165761511D03*
X102159011Y-165761511D03*
D22*
X106881511Y-130201511D03*
X105056511Y-130201511D03*
M02*
