G04 #@! TF.GenerationSoftware,KiCad,Pcbnew,(6.0.1)*
G04 #@! TF.CreationDate,2022-02-06T22:38:44+01:00*
G04 #@! TF.ProjectId,CarteSecondaire,43617274-6553-4656-936f-6e6461697265,rev?*
G04 #@! TF.SameCoordinates,Original*
G04 #@! TF.FileFunction,Copper,L2,Bot*
G04 #@! TF.FilePolarity,Positive*
%FSLAX46Y46*%
G04 Gerber Fmt 4.6, Leading zero omitted, Abs format (unit mm)*
G04 Created by KiCad (PCBNEW (6.0.1)) date 2022-02-06 22:38:44*
%MOMM*%
%LPD*%
G01*
G04 APERTURE LIST*
G04 Aperture macros list*
%AMRoundRect*
0 Rectangle with rounded corners*
0 $1 Rounding radius*
0 $2 $3 $4 $5 $6 $7 $8 $9 X,Y pos of 4 corners*
0 Add a 4 corners polygon primitive as box body*
4,1,4,$2,$3,$4,$5,$6,$7,$8,$9,$2,$3,0*
0 Add four circle primitives for the rounded corners*
1,1,$1+$1,$2,$3*
1,1,$1+$1,$4,$5*
1,1,$1+$1,$6,$7*
1,1,$1+$1,$8,$9*
0 Add four rect primitives between the rounded corners*
20,1,$1+$1,$2,$3,$4,$5,0*
20,1,$1+$1,$4,$5,$6,$7,0*
20,1,$1+$1,$6,$7,$8,$9,0*
20,1,$1+$1,$8,$9,$2,$3,0*%
G04 Aperture macros list end*
G04 #@! TA.AperFunction,ComponentPad*
%ADD10C,1.700000*%
G04 #@! TD*
G04 #@! TA.AperFunction,ComponentPad*
%ADD11RoundRect,0.250000X0.600000X0.600000X-0.600000X0.600000X-0.600000X-0.600000X0.600000X-0.600000X0*%
G04 #@! TD*
G04 #@! TA.AperFunction,ComponentPad*
%ADD12R,1.500000X2.500000*%
G04 #@! TD*
G04 #@! TA.AperFunction,ComponentPad*
%ADD13O,1.500000X2.500000*%
G04 #@! TD*
G04 #@! TA.AperFunction,ComponentPad*
%ADD14R,3.000000X3.000000*%
G04 #@! TD*
G04 #@! TA.AperFunction,ComponentPad*
%ADD15C,3.000000*%
G04 #@! TD*
G04 #@! TA.AperFunction,ComponentPad*
%ADD16C,1.524000*%
G04 #@! TD*
G04 #@! TA.AperFunction,ComponentPad*
%ADD17R,1.700000X1.700000*%
G04 #@! TD*
G04 #@! TA.AperFunction,ComponentPad*
%ADD18O,1.700000X1.700000*%
G04 #@! TD*
G04 #@! TA.AperFunction,ComponentPad*
%ADD19RoundRect,0.250000X0.600000X0.675000X-0.600000X0.675000X-0.600000X-0.675000X0.600000X-0.675000X0*%
G04 #@! TD*
G04 #@! TA.AperFunction,ComponentPad*
%ADD20O,1.700000X1.850000*%
G04 #@! TD*
G04 #@! TA.AperFunction,ComponentPad*
%ADD21RoundRect,0.250000X-0.600000X-0.675000X0.600000X-0.675000X0.600000X0.675000X-0.600000X0.675000X0*%
G04 #@! TD*
G04 #@! TA.AperFunction,ViaPad*
%ADD22C,0.800000*%
G04 #@! TD*
G04 #@! TA.AperFunction,Conductor*
%ADD23C,1.200000*%
G04 #@! TD*
G04 #@! TA.AperFunction,Conductor*
%ADD24C,0.400000*%
G04 #@! TD*
G04 #@! TA.AperFunction,Conductor*
%ADD25C,0.600000*%
G04 #@! TD*
G04 APERTURE END LIST*
D10*
X109261511Y-161290000D03*
X111801511Y-161290000D03*
X109261511Y-163830000D03*
X111801511Y-163830000D03*
X109261511Y-166370000D03*
X111801511Y-166370000D03*
X109261511Y-168910000D03*
X111801511Y-168910000D03*
X109261511Y-171450000D03*
X111801511Y-171450000D03*
X109261511Y-173990000D03*
X111801511Y-173990000D03*
X109261511Y-176530000D03*
X111801511Y-176530000D03*
X109261511Y-179070000D03*
D11*
X111801511Y-179070000D03*
D12*
X132639011Y-172111511D03*
D13*
X135179011Y-172111511D03*
X137719011Y-172111511D03*
D14*
X136449011Y-161951511D03*
D15*
X136449011Y-156871511D03*
D16*
X94539011Y-156871511D03*
X97079011Y-156871511D03*
X99619011Y-156871511D03*
X98349011Y-141631511D03*
X100889011Y-141631511D03*
X125019011Y-181763511D03*
X125019011Y-184303511D03*
D17*
X128829011Y-123851511D03*
D18*
X128829011Y-126391511D03*
X128829011Y-128931511D03*
D16*
X126210000Y-166500000D03*
X123670000Y-166500000D03*
X121130000Y-166500000D03*
X118590000Y-166500000D03*
X130099011Y-135281511D03*
X127559011Y-135281511D03*
X98349011Y-134011511D03*
X100889011Y-134011511D03*
X130099011Y-142901511D03*
X127559011Y-142901511D03*
X94539011Y-174651511D03*
X97079011Y-174651511D03*
X99619011Y-174651511D03*
X102159011Y-174651511D03*
D17*
X138989011Y-134026511D03*
D18*
X138989011Y-136566511D03*
X138989011Y-139106511D03*
D11*
X114859011Y-145441511D03*
D10*
X112319011Y-145441511D03*
X114859011Y-142901511D03*
X112319011Y-142901511D03*
X114859011Y-140361511D03*
X112319011Y-140361511D03*
X114859011Y-137821511D03*
X112319011Y-137821511D03*
X114859011Y-135281511D03*
X112319011Y-135281511D03*
X114859011Y-132741511D03*
X112319011Y-132741511D03*
X114859011Y-130201511D03*
X112319011Y-130201511D03*
X114859011Y-127661511D03*
X112319011Y-127661511D03*
D16*
X126289011Y-175921511D03*
X123749011Y-175921511D03*
X121209011Y-175921511D03*
X118669011Y-175921511D03*
D17*
X122479011Y-123866511D03*
D18*
X122479011Y-126406511D03*
X122479011Y-128946511D03*
D16*
X125019011Y-158141511D03*
X122479011Y-158141511D03*
X119939011Y-158141511D03*
D19*
X127559011Y-149871511D03*
D20*
X125059011Y-149871511D03*
X122559011Y-149871511D03*
D21*
X97119011Y-149901511D03*
D20*
X99619011Y-149901511D03*
X102119011Y-149901511D03*
D16*
X100889011Y-181763511D03*
X100889011Y-184303511D03*
X94539011Y-165761511D03*
X97079011Y-165761511D03*
X99619011Y-165761511D03*
X102159011Y-165761511D03*
D22*
X123749011Y-132741511D03*
X105969011Y-127661511D03*
X130099011Y-175921511D03*
X122628522Y-146576245D03*
X98219491Y-143481211D03*
X105053621Y-134926901D03*
X123619491Y-140361511D03*
X131498531Y-136551511D03*
X107239011Y-151661991D03*
X111049011Y-147981511D03*
X109779011Y-137821511D03*
D23*
X130099011Y-142901511D02*
X125059011Y-147941511D01*
X125059011Y-147941511D02*
X125059011Y-149871511D01*
X126580522Y-178753022D02*
X126580522Y-182742000D01*
X122479011Y-123866511D02*
X128814011Y-123866511D01*
X122628522Y-146576245D02*
X115993745Y-146576245D01*
X109261511Y-179070000D02*
X103520000Y-184811511D01*
X126580522Y-182742000D02*
X125019011Y-184303511D01*
X97079011Y-165761511D02*
X97079011Y-163221511D01*
X99327500Y-176900000D02*
X97079011Y-174651511D01*
X123749011Y-159411511D02*
X123749011Y-166420989D01*
X138989011Y-134026511D02*
X140638522Y-135676022D01*
X125019011Y-152319284D02*
X125019011Y-158141511D01*
X127466784Y-149871511D02*
X125019011Y-152319284D01*
X140638522Y-142522000D02*
X135179011Y-147981511D01*
X123749011Y-166420989D02*
X123670000Y-166500000D01*
X94539011Y-152481511D02*
X97119011Y-149901511D01*
X140638522Y-135676022D02*
X140638522Y-142522000D01*
X99327500Y-182410311D02*
X99327500Y-176900000D01*
X113638489Y-179070000D02*
X111801511Y-179070000D01*
X127559011Y-149871511D02*
X127466784Y-149871511D01*
X120829500Y-125516022D02*
X120829500Y-129822000D01*
X123749011Y-175921511D02*
X126580522Y-178753022D01*
X97079011Y-163221511D02*
X94539011Y-160681511D01*
X128829011Y-123851511D02*
X131369011Y-126391511D01*
X103520000Y-184811511D02*
X101397011Y-184811511D01*
X111801511Y-179070000D02*
X109261511Y-179070000D01*
X100889011Y-184303511D02*
X99403855Y-182818355D01*
X125019011Y-184303511D02*
X118872000Y-184303511D01*
X137734011Y-134026511D02*
X138989011Y-134026511D01*
X128814011Y-123866511D02*
X128829011Y-123851511D01*
X125019011Y-158141511D02*
X123749011Y-159411511D01*
X118872000Y-184303511D02*
X113638489Y-179070000D01*
X122479011Y-123866511D02*
X109764011Y-123866511D01*
X94539011Y-160681511D02*
X94539011Y-156871511D01*
X122479011Y-123866511D02*
X120829500Y-125516022D01*
X130099011Y-175921511D02*
X128537500Y-174360000D01*
X94539011Y-156871511D02*
X94539011Y-152481511D01*
X97079011Y-174651511D02*
X97079011Y-165761511D01*
X109764011Y-123866511D02*
X105969011Y-127661511D01*
X129449011Y-147981511D02*
X127559011Y-149871511D01*
X120829500Y-129822000D02*
X123749011Y-132741511D01*
X112319011Y-145441511D02*
X114859011Y-145441511D01*
X101397011Y-184811511D02*
X100889011Y-184303511D01*
X131369011Y-126391511D02*
X131369011Y-127661511D01*
X131369011Y-127661511D02*
X137734011Y-134026511D01*
X128537500Y-174360000D02*
X125310522Y-174360000D01*
X125310522Y-174360000D02*
X123749011Y-175921511D01*
X115993745Y-146576245D02*
X114859011Y-145441511D01*
X123670000Y-166500000D02*
X123670000Y-169492500D01*
X123670000Y-169492500D02*
X128537500Y-174360000D01*
X99403855Y-182486666D02*
X99327500Y-182410311D01*
X99403855Y-182818355D02*
X99403855Y-182486666D01*
X135179011Y-147981511D02*
X129449011Y-147981511D01*
X98219491Y-143481211D02*
X99039311Y-143481211D01*
X99039311Y-143481211D02*
X100889011Y-141631511D01*
X101804401Y-134926901D02*
X100889011Y-134011511D01*
X105053621Y-134926901D02*
X101804401Y-134926901D01*
D24*
X105410000Y-172761511D02*
X105410000Y-177242522D01*
X105410000Y-177242522D02*
X100889011Y-181763511D01*
X109261511Y-168910000D02*
X105410000Y-172761511D01*
D23*
X123619491Y-140361511D02*
X125019011Y-140361511D01*
X125019011Y-140361511D02*
X127559011Y-142901511D01*
X131498531Y-136551511D02*
X131207020Y-136843022D01*
X131207020Y-136843022D02*
X129120522Y-136843022D01*
X129120522Y-136843022D02*
X127559011Y-135281511D01*
D24*
X120803511Y-181763511D02*
X125019011Y-181763511D01*
X114300000Y-175260000D02*
X120803511Y-181763511D01*
X114300000Y-171408489D02*
X114300000Y-175260000D01*
X111801511Y-168910000D02*
X114300000Y-171408489D01*
D25*
X107239011Y-151661991D02*
X107239011Y-164347500D01*
X107239011Y-164347500D02*
X109261511Y-166370000D01*
D24*
X111049011Y-152691511D02*
X119039011Y-160681511D01*
X121039011Y-160681511D02*
X122479011Y-159241511D01*
X111049011Y-147981511D02*
X111049011Y-152691511D01*
X119039011Y-160681511D02*
X121039011Y-160681511D01*
X122479011Y-159241511D02*
X122479011Y-158141511D01*
X123808531Y-154271991D02*
X123808531Y-144158302D01*
X119939011Y-158141511D02*
X123808531Y-154271991D01*
X120011740Y-140361511D02*
X114859011Y-140361511D01*
X123808531Y-144158302D02*
X120011740Y-140361511D01*
X104389011Y-152831511D02*
X104389011Y-145751511D01*
X98419011Y-155531511D02*
X101689011Y-155531511D01*
X97079011Y-156871511D02*
X98419011Y-155531511D01*
X104389011Y-145751511D02*
X112319011Y-137821511D01*
X101689011Y-155531511D02*
X104389011Y-152831511D01*
X111049011Y-141631511D02*
X105562826Y-147117696D01*
X112816087Y-141631511D02*
X111049011Y-141631511D01*
X113568522Y-139112000D02*
X113568522Y-140879076D01*
X105562826Y-147117696D02*
X105562826Y-153007696D01*
X101699011Y-156871511D02*
X99619011Y-156871511D01*
X105562826Y-153007696D02*
X101699011Y-156871511D01*
X113568522Y-140879076D02*
X112816087Y-141631511D01*
X114859011Y-137821511D02*
X113568522Y-139112000D01*
D23*
X109779011Y-130201511D02*
X112319011Y-127661511D01*
X109779011Y-137821511D02*
X109779011Y-130201511D01*
G04 #@! TA.AperFunction,Conductor*
G36*
X140942121Y-122020002D02*
G01*
X140988614Y-122073658D01*
X141000000Y-122126000D01*
X141000000Y-185874000D01*
X140979998Y-185942121D01*
X140926342Y-185988614D01*
X140874000Y-186000000D01*
X92126000Y-186000000D01*
X92057879Y-185979998D01*
X92011386Y-185926342D01*
X92000000Y-185874000D01*
X92000000Y-185362288D01*
X100194788Y-185362288D01*
X100204085Y-185374304D01*
X100247080Y-185404409D01*
X100256566Y-185409887D01*
X100448004Y-185499156D01*
X100458296Y-185502902D01*
X100662320Y-185557570D01*
X100673115Y-185559473D01*
X100883536Y-185577883D01*
X100894486Y-185577883D01*
X101104907Y-185559473D01*
X101115702Y-185557570D01*
X101319726Y-185502902D01*
X101330018Y-185499156D01*
X101521456Y-185409887D01*
X101530942Y-185404409D01*
X101574775Y-185373718D01*
X101583150Y-185363240D01*
X101582650Y-185362288D01*
X124324788Y-185362288D01*
X124334085Y-185374304D01*
X124377080Y-185404409D01*
X124386566Y-185409887D01*
X124578004Y-185499156D01*
X124588296Y-185502902D01*
X124792320Y-185557570D01*
X124803115Y-185559473D01*
X125013536Y-185577883D01*
X125024486Y-185577883D01*
X125234907Y-185559473D01*
X125245702Y-185557570D01*
X125449726Y-185502902D01*
X125460018Y-185499156D01*
X125651456Y-185409887D01*
X125660942Y-185404409D01*
X125704775Y-185373718D01*
X125713150Y-185363240D01*
X125706082Y-185349792D01*
X125031823Y-184675533D01*
X125017879Y-184667919D01*
X125016046Y-184668050D01*
X125009431Y-184672301D01*
X124331218Y-185350514D01*
X124324788Y-185362288D01*
X101582650Y-185362288D01*
X101576082Y-185349792D01*
X100901823Y-184675533D01*
X100887879Y-184667919D01*
X100886046Y-184668050D01*
X100879431Y-184672301D01*
X100201218Y-185350514D01*
X100194788Y-185362288D01*
X92000000Y-185362288D01*
X92000000Y-184308986D01*
X99614639Y-184308986D01*
X99633049Y-184519407D01*
X99634952Y-184530202D01*
X99689620Y-184734226D01*
X99693366Y-184744518D01*
X99782634Y-184935952D01*
X99788114Y-184945443D01*
X99818805Y-184989276D01*
X99829282Y-184997651D01*
X99842729Y-184990583D01*
X100516989Y-184316323D01*
X100523367Y-184304643D01*
X101253419Y-184304643D01*
X101253550Y-184306476D01*
X101257801Y-184313091D01*
X101936014Y-184991304D01*
X101947788Y-184997734D01*
X101959804Y-184988437D01*
X101989908Y-184945443D01*
X101995388Y-184935952D01*
X102084656Y-184744518D01*
X102088402Y-184734226D01*
X102143070Y-184530202D01*
X102144973Y-184519407D01*
X102163383Y-184308986D01*
X123744639Y-184308986D01*
X123763049Y-184519407D01*
X123764952Y-184530202D01*
X123819620Y-184734226D01*
X123823366Y-184744518D01*
X123912634Y-184935952D01*
X123918114Y-184945443D01*
X123948805Y-184989276D01*
X123959282Y-184997651D01*
X123972729Y-184990583D01*
X124646989Y-184316323D01*
X124653367Y-184304643D01*
X125383419Y-184304643D01*
X125383550Y-184306476D01*
X125387801Y-184313091D01*
X126066014Y-184991304D01*
X126077788Y-184997734D01*
X126089804Y-184988437D01*
X126119908Y-184945443D01*
X126125388Y-184935952D01*
X126214656Y-184744518D01*
X126218402Y-184734226D01*
X126273070Y-184530202D01*
X126274973Y-184519407D01*
X126293383Y-184308986D01*
X126293383Y-184298036D01*
X126274973Y-184087615D01*
X126273070Y-184076820D01*
X126218402Y-183872796D01*
X126214656Y-183862504D01*
X126125388Y-183671070D01*
X126119908Y-183661579D01*
X126089217Y-183617746D01*
X126078740Y-183609371D01*
X126065293Y-183616439D01*
X125391033Y-184290699D01*
X125383419Y-184304643D01*
X124653367Y-184304643D01*
X124654603Y-184302379D01*
X124654472Y-184300546D01*
X124650221Y-184293931D01*
X123972008Y-183615718D01*
X123960234Y-183609288D01*
X123948218Y-183618585D01*
X123918114Y-183661579D01*
X123912634Y-183671070D01*
X123823366Y-183862504D01*
X123819620Y-183872796D01*
X123764952Y-184076820D01*
X123763049Y-184087615D01*
X123744639Y-184298036D01*
X123744639Y-184308986D01*
X102163383Y-184308986D01*
X102163383Y-184298036D01*
X102144973Y-184087615D01*
X102143070Y-184076820D01*
X102088402Y-183872796D01*
X102084656Y-183862504D01*
X101995388Y-183671070D01*
X101989908Y-183661579D01*
X101959217Y-183617746D01*
X101948740Y-183609371D01*
X101935293Y-183616439D01*
X101261033Y-184290699D01*
X101253419Y-184304643D01*
X100523367Y-184304643D01*
X100524603Y-184302379D01*
X100524472Y-184300546D01*
X100520221Y-184293931D01*
X99842008Y-183615718D01*
X99830234Y-183609288D01*
X99818218Y-183618585D01*
X99788114Y-183661579D01*
X99782634Y-183671070D01*
X99693366Y-183862504D01*
X99689620Y-183872796D01*
X99634952Y-184076820D01*
X99633049Y-184087615D01*
X99614639Y-184298036D01*
X99614639Y-184308986D01*
X92000000Y-184308986D01*
X92000000Y-182132703D01*
X92390743Y-182132703D01*
X92391302Y-182136947D01*
X92391302Y-182136951D01*
X92406225Y-182250304D01*
X92428268Y-182417734D01*
X92429401Y-182421874D01*
X92429401Y-182421876D01*
X92440688Y-182463133D01*
X92504129Y-182695036D01*
X92505813Y-182698984D01*
X92578897Y-182870325D01*
X92616923Y-182959476D01*
X92661995Y-183034786D01*
X92729742Y-183147982D01*
X92764561Y-183206161D01*
X92944313Y-183430528D01*
X92961397Y-183446740D01*
X93141600Y-183617746D01*
X93152851Y-183628423D01*
X93386317Y-183796186D01*
X93390112Y-183798195D01*
X93390113Y-183798196D01*
X93411869Y-183809715D01*
X93640392Y-183930712D01*
X93910373Y-184029511D01*
X94191264Y-184090755D01*
X94219841Y-184093004D01*
X94414282Y-184108307D01*
X94414291Y-184108307D01*
X94416739Y-184108500D01*
X94572271Y-184108500D01*
X94574407Y-184108354D01*
X94574418Y-184108354D01*
X94782548Y-184094165D01*
X94782554Y-184094164D01*
X94786825Y-184093873D01*
X94791020Y-184093004D01*
X94791022Y-184093004D01*
X94927583Y-184064724D01*
X95068342Y-184035574D01*
X95339343Y-183939607D01*
X95594812Y-183807750D01*
X95598313Y-183805289D01*
X95598317Y-183805287D01*
X95802792Y-183661579D01*
X95830023Y-183642441D01*
X96040622Y-183446740D01*
X96222713Y-183224268D01*
X96372927Y-182979142D01*
X96378473Y-182966509D01*
X96486757Y-182719830D01*
X96488483Y-182715898D01*
X96567244Y-182439406D01*
X96607751Y-182154784D01*
X96607845Y-182136951D01*
X96609235Y-181871583D01*
X96609235Y-181871576D01*
X96609257Y-181867297D01*
X96571732Y-181582266D01*
X96495871Y-181304964D01*
X96421593Y-181130822D01*
X96384763Y-181044476D01*
X96384761Y-181044472D01*
X96383077Y-181040524D01*
X96235439Y-180793839D01*
X96055687Y-180569472D01*
X95909341Y-180430595D01*
X95850258Y-180374527D01*
X95850255Y-180374525D01*
X95847149Y-180371577D01*
X95613683Y-180203814D01*
X95593303Y-180193023D01*
X95508592Y-180148171D01*
X95359608Y-180069288D01*
X95089627Y-179970489D01*
X94808736Y-179909245D01*
X94777685Y-179906801D01*
X94585718Y-179891693D01*
X94585709Y-179891693D01*
X94583261Y-179891500D01*
X94427729Y-179891500D01*
X94425593Y-179891646D01*
X94425582Y-179891646D01*
X94217452Y-179905835D01*
X94217446Y-179905836D01*
X94213175Y-179906127D01*
X94208980Y-179906996D01*
X94208978Y-179906996D01*
X94072416Y-179935277D01*
X93931658Y-179964426D01*
X93660657Y-180060393D01*
X93405188Y-180192250D01*
X93401687Y-180194711D01*
X93401683Y-180194713D01*
X93333351Y-180242738D01*
X93169977Y-180357559D01*
X93100589Y-180422038D01*
X93007054Y-180508957D01*
X92959378Y-180553260D01*
X92777287Y-180775732D01*
X92627073Y-181020858D01*
X92511517Y-181284102D01*
X92432756Y-181560594D01*
X92392249Y-181845216D01*
X92392227Y-181849505D01*
X92392226Y-181849512D01*
X92391489Y-181990287D01*
X92390743Y-182132703D01*
X92000000Y-182132703D01*
X92000000Y-174651511D01*
X93263658Y-174651511D01*
X93283033Y-174872974D01*
X93340571Y-175087707D01*
X93342893Y-175092688D01*
X93342894Y-175092689D01*
X93432197Y-175284200D01*
X93432200Y-175284205D01*
X93434523Y-175289187D01*
X93437679Y-175293694D01*
X93437680Y-175293696D01*
X93558770Y-175466630D01*
X93562034Y-175471292D01*
X93719230Y-175628488D01*
X93723738Y-175631645D01*
X93723741Y-175631647D01*
X93799506Y-175684698D01*
X93901334Y-175755999D01*
X93906316Y-175758322D01*
X93906321Y-175758325D01*
X94096821Y-175847156D01*
X94102815Y-175849951D01*
X94108123Y-175851373D01*
X94108125Y-175851374D01*
X94173960Y-175869014D01*
X94317548Y-175907489D01*
X94539011Y-175926864D01*
X94760474Y-175907489D01*
X94904062Y-175869014D01*
X94969897Y-175851374D01*
X94969899Y-175851373D01*
X94975207Y-175849951D01*
X94981201Y-175847156D01*
X95171701Y-175758325D01*
X95171706Y-175758322D01*
X95176688Y-175755999D01*
X95241970Y-175710288D01*
X96384788Y-175710288D01*
X96394085Y-175722304D01*
X96437080Y-175752409D01*
X96446566Y-175757887D01*
X96638004Y-175847156D01*
X96648296Y-175850902D01*
X96852320Y-175905570D01*
X96863115Y-175907473D01*
X97073536Y-175925883D01*
X97084486Y-175925883D01*
X97294907Y-175907473D01*
X97305702Y-175905570D01*
X97509726Y-175850902D01*
X97520018Y-175847156D01*
X97711456Y-175757887D01*
X97720942Y-175752409D01*
X97764775Y-175721718D01*
X97773150Y-175711240D01*
X97766082Y-175697792D01*
X97091823Y-175023533D01*
X97077879Y-175015919D01*
X97076046Y-175016050D01*
X97069431Y-175020301D01*
X96391218Y-175698514D01*
X96384788Y-175710288D01*
X95241970Y-175710288D01*
X95278516Y-175684698D01*
X95354281Y-175631647D01*
X95354284Y-175631645D01*
X95358792Y-175628488D01*
X95515988Y-175471292D01*
X95519253Y-175466630D01*
X95640342Y-175293696D01*
X95640343Y-175293694D01*
X95643499Y-175289187D01*
X95645822Y-175284205D01*
X95645825Y-175284200D01*
X95695092Y-175178546D01*
X95742010Y-175125261D01*
X95810287Y-175105800D01*
X95878247Y-175126342D01*
X95923482Y-175178546D01*
X95972634Y-175283952D01*
X95978114Y-175293443D01*
X96008805Y-175337276D01*
X96019282Y-175345651D01*
X96032729Y-175338583D01*
X96706989Y-174664323D01*
X96713367Y-174652643D01*
X97443419Y-174652643D01*
X97443550Y-174654476D01*
X97447801Y-174661091D01*
X98126014Y-175339304D01*
X98137788Y-175345734D01*
X98149804Y-175336437D01*
X98179908Y-175293443D01*
X98185388Y-175283952D01*
X98234540Y-175178546D01*
X98281458Y-175125261D01*
X98349735Y-175105800D01*
X98417695Y-175126342D01*
X98462930Y-175178546D01*
X98512197Y-175284200D01*
X98512200Y-175284205D01*
X98514523Y-175289187D01*
X98517679Y-175293694D01*
X98517680Y-175293696D01*
X98638770Y-175466630D01*
X98642034Y-175471292D01*
X98799230Y-175628488D01*
X98803738Y-175631645D01*
X98803741Y-175631647D01*
X98879506Y-175684698D01*
X98981334Y-175755999D01*
X98986316Y-175758322D01*
X98986321Y-175758325D01*
X99176821Y-175847156D01*
X99182815Y-175849951D01*
X99188123Y-175851373D01*
X99188125Y-175851374D01*
X99253960Y-175869014D01*
X99397548Y-175907489D01*
X99619011Y-175926864D01*
X99840474Y-175907489D01*
X99984062Y-175869014D01*
X100049897Y-175851374D01*
X100049899Y-175851373D01*
X100055207Y-175849951D01*
X100061201Y-175847156D01*
X100251701Y-175758325D01*
X100251706Y-175758322D01*
X100256688Y-175755999D01*
X100358516Y-175684698D01*
X100434281Y-175631647D01*
X100434284Y-175631645D01*
X100438792Y-175628488D01*
X100595988Y-175471292D01*
X100599253Y-175466630D01*
X100720342Y-175293696D01*
X100720343Y-175293694D01*
X100723499Y-175289187D01*
X100725822Y-175284205D01*
X100725825Y-175284200D01*
X100774816Y-175179138D01*
X100821734Y-175125853D01*
X100890011Y-175106392D01*
X100957971Y-175126934D01*
X101003206Y-175179138D01*
X101052197Y-175284200D01*
X101052200Y-175284205D01*
X101054523Y-175289187D01*
X101057679Y-175293694D01*
X101057680Y-175293696D01*
X101178770Y-175466630D01*
X101182034Y-175471292D01*
X101339230Y-175628488D01*
X101343738Y-175631645D01*
X101343741Y-175631647D01*
X101419506Y-175684698D01*
X101521334Y-175755999D01*
X101526316Y-175758322D01*
X101526321Y-175758325D01*
X101716821Y-175847156D01*
X101722815Y-175849951D01*
X101728123Y-175851373D01*
X101728125Y-175851374D01*
X101793960Y-175869014D01*
X101937548Y-175907489D01*
X102159011Y-175926864D01*
X102380474Y-175907489D01*
X102524062Y-175869014D01*
X102589897Y-175851374D01*
X102589899Y-175851373D01*
X102595207Y-175849951D01*
X102601201Y-175847156D01*
X102791701Y-175758325D01*
X102791706Y-175758322D01*
X102796688Y-175755999D01*
X102898516Y-175684698D01*
X102974281Y-175631647D01*
X102974284Y-175631645D01*
X102978792Y-175628488D01*
X103135988Y-175471292D01*
X103139253Y-175466630D01*
X103260342Y-175293696D01*
X103260343Y-175293694D01*
X103263499Y-175289187D01*
X103265822Y-175284205D01*
X103265825Y-175284200D01*
X103355128Y-175092689D01*
X103355129Y-175092688D01*
X103357451Y-175087707D01*
X103414989Y-174872974D01*
X103434364Y-174651511D01*
X103414989Y-174430048D01*
X103357451Y-174215315D01*
X103343206Y-174184767D01*
X103265825Y-174018822D01*
X103265822Y-174018817D01*
X103263499Y-174013835D01*
X103244461Y-173986646D01*
X103139147Y-173836241D01*
X103139145Y-173836238D01*
X103135988Y-173831730D01*
X102978792Y-173674534D01*
X102974284Y-173671377D01*
X102974281Y-173671375D01*
X102884080Y-173608216D01*
X102796688Y-173547023D01*
X102791706Y-173544700D01*
X102791701Y-173544697D01*
X102600189Y-173455394D01*
X102600188Y-173455393D01*
X102595207Y-173453071D01*
X102589899Y-173451649D01*
X102589897Y-173451648D01*
X102517607Y-173432278D01*
X102380474Y-173395533D01*
X102159011Y-173376158D01*
X101937548Y-173395533D01*
X101800415Y-173432278D01*
X101728125Y-173451648D01*
X101728123Y-173451649D01*
X101722815Y-173453071D01*
X101717834Y-173455393D01*
X101717833Y-173455394D01*
X101526322Y-173544697D01*
X101526317Y-173544700D01*
X101521335Y-173547023D01*
X101516828Y-173550179D01*
X101516826Y-173550180D01*
X101343741Y-173671375D01*
X101343738Y-173671377D01*
X101339230Y-173674534D01*
X101182034Y-173831730D01*
X101178877Y-173836238D01*
X101178875Y-173836241D01*
X101073561Y-173986646D01*
X101054523Y-174013835D01*
X101052200Y-174018817D01*
X101052197Y-174018822D01*
X101003206Y-174123884D01*
X100956288Y-174177169D01*
X100888011Y-174196630D01*
X100820051Y-174176088D01*
X100774816Y-174123884D01*
X100725825Y-174018822D01*
X100725822Y-174018817D01*
X100723499Y-174013835D01*
X100704461Y-173986646D01*
X100599147Y-173836241D01*
X100599145Y-173836238D01*
X100595988Y-173831730D01*
X100438792Y-173674534D01*
X100434284Y-173671377D01*
X100434281Y-173671375D01*
X100344080Y-173608216D01*
X100256688Y-173547023D01*
X100251706Y-173544700D01*
X100251701Y-173544697D01*
X100060189Y-173455394D01*
X100060188Y-173455393D01*
X100055207Y-173453071D01*
X100049899Y-173451649D01*
X100049897Y-173451648D01*
X99977607Y-173432278D01*
X99840474Y-173395533D01*
X99619011Y-173376158D01*
X99397548Y-173395533D01*
X99260415Y-173432278D01*
X99188125Y-173451648D01*
X99188123Y-173451649D01*
X99182815Y-173453071D01*
X99177834Y-173455393D01*
X99177833Y-173455394D01*
X98986322Y-173544697D01*
X98986317Y-173544700D01*
X98981335Y-173547023D01*
X98976828Y-173550179D01*
X98976826Y-173550180D01*
X98803741Y-173671375D01*
X98803738Y-173671377D01*
X98799230Y-173674534D01*
X98642034Y-173831730D01*
X98638877Y-173836238D01*
X98638875Y-173836241D01*
X98533561Y-173986646D01*
X98514523Y-174013835D01*
X98512200Y-174018817D01*
X98512197Y-174018822D01*
X98462930Y-174124476D01*
X98416012Y-174177761D01*
X98347735Y-174197222D01*
X98279775Y-174176680D01*
X98234540Y-174124476D01*
X98185388Y-174019070D01*
X98179908Y-174009579D01*
X98149217Y-173965746D01*
X98138740Y-173957371D01*
X98125293Y-173964439D01*
X97451033Y-174638699D01*
X97443419Y-174652643D01*
X96713367Y-174652643D01*
X96714603Y-174650379D01*
X96714472Y-174648546D01*
X96710221Y-174641931D01*
X96032008Y-173963718D01*
X96020234Y-173957288D01*
X96008218Y-173966585D01*
X95978114Y-174009579D01*
X95972634Y-174019070D01*
X95923482Y-174124476D01*
X95876564Y-174177761D01*
X95808287Y-174197222D01*
X95740327Y-174176680D01*
X95695092Y-174124476D01*
X95645825Y-174018822D01*
X95645822Y-174018817D01*
X95643499Y-174013835D01*
X95624461Y-173986646D01*
X95519147Y-173836241D01*
X95519145Y-173836238D01*
X95515988Y-173831730D01*
X95358792Y-173674534D01*
X95354284Y-173671377D01*
X95354281Y-173671375D01*
X95264080Y-173608216D01*
X95240610Y-173591782D01*
X96384871Y-173591782D01*
X96391939Y-173605229D01*
X97066199Y-174279489D01*
X97080143Y-174287103D01*
X97081976Y-174286972D01*
X97088591Y-174282721D01*
X97766804Y-173604508D01*
X97773234Y-173592734D01*
X97763937Y-173580718D01*
X97720942Y-173550613D01*
X97711456Y-173545135D01*
X97520018Y-173455866D01*
X97509726Y-173452120D01*
X97305702Y-173397452D01*
X97294907Y-173395549D01*
X97084486Y-173377139D01*
X97073536Y-173377139D01*
X96863115Y-173395549D01*
X96852320Y-173397452D01*
X96648296Y-173452120D01*
X96638004Y-173455866D01*
X96446570Y-173545134D01*
X96437079Y-173550614D01*
X96393246Y-173581305D01*
X96384871Y-173591782D01*
X95240610Y-173591782D01*
X95176688Y-173547023D01*
X95171706Y-173544700D01*
X95171701Y-173544697D01*
X94980189Y-173455394D01*
X94980188Y-173455393D01*
X94975207Y-173453071D01*
X94969899Y-173451649D01*
X94969897Y-173451648D01*
X94897607Y-173432278D01*
X94760474Y-173395533D01*
X94539011Y-173376158D01*
X94317548Y-173395533D01*
X94180415Y-173432278D01*
X94108125Y-173451648D01*
X94108123Y-173451649D01*
X94102815Y-173453071D01*
X94097834Y-173455393D01*
X94097833Y-173455394D01*
X93906322Y-173544697D01*
X93906317Y-173544700D01*
X93901335Y-173547023D01*
X93896828Y-173550179D01*
X93896826Y-173550180D01*
X93723741Y-173671375D01*
X93723738Y-173671377D01*
X93719230Y-173674534D01*
X93562034Y-173831730D01*
X93558877Y-173836238D01*
X93558875Y-173836241D01*
X93453561Y-173986646D01*
X93434523Y-174013835D01*
X93432200Y-174018817D01*
X93432197Y-174018822D01*
X93354816Y-174184767D01*
X93340571Y-174215315D01*
X93283033Y-174430048D01*
X93263658Y-174651511D01*
X92000000Y-174651511D01*
X92000000Y-165761511D01*
X93263658Y-165761511D01*
X93283033Y-165982974D01*
X93340571Y-166197707D01*
X93342893Y-166202688D01*
X93342894Y-166202689D01*
X93432197Y-166394200D01*
X93432200Y-166394205D01*
X93434523Y-166399187D01*
X93437679Y-166403694D01*
X93437680Y-166403696D01*
X93546926Y-166559715D01*
X93562034Y-166581292D01*
X93719230Y-166738488D01*
X93723738Y-166741645D01*
X93723741Y-166741647D01*
X93767941Y-166772596D01*
X93901334Y-166865999D01*
X93906316Y-166868322D01*
X93906321Y-166868325D01*
X94091942Y-166954881D01*
X94102815Y-166959951D01*
X94108123Y-166961373D01*
X94108125Y-166961374D01*
X94158347Y-166974831D01*
X94317548Y-167017489D01*
X94539011Y-167036864D01*
X94760474Y-167017489D01*
X94919675Y-166974831D01*
X94969897Y-166961374D01*
X94969899Y-166961373D01*
X94975207Y-166959951D01*
X94986080Y-166954881D01*
X95171701Y-166868325D01*
X95171706Y-166868322D01*
X95176688Y-166865999D01*
X95241970Y-166820288D01*
X96384788Y-166820288D01*
X96394085Y-166832304D01*
X96437080Y-166862409D01*
X96446566Y-166867887D01*
X96638004Y-166957156D01*
X96648296Y-166960902D01*
X96852320Y-167015570D01*
X96863115Y-167017473D01*
X97073536Y-167035883D01*
X97084486Y-167035883D01*
X97294907Y-167017473D01*
X97305702Y-167015570D01*
X97509726Y-166960902D01*
X97520018Y-166957156D01*
X97711456Y-166867887D01*
X97720942Y-166862409D01*
X97764775Y-166831718D01*
X97773150Y-166821240D01*
X97766082Y-166807792D01*
X97091823Y-166133533D01*
X97077879Y-166125919D01*
X97076046Y-166126050D01*
X97069431Y-166130301D01*
X96391218Y-166808514D01*
X96384788Y-166820288D01*
X95241970Y-166820288D01*
X95310081Y-166772596D01*
X95354281Y-166741647D01*
X95354284Y-166741645D01*
X95358792Y-166738488D01*
X95515988Y-166581292D01*
X95531097Y-166559715D01*
X95640342Y-166403696D01*
X95640343Y-166403694D01*
X95643499Y-166399187D01*
X95645822Y-166394205D01*
X95645825Y-166394200D01*
X95695092Y-166288546D01*
X95742010Y-166235261D01*
X95810287Y-166215800D01*
X95878247Y-166236342D01*
X95923482Y-166288546D01*
X95972634Y-166393952D01*
X95978114Y-166403443D01*
X96008805Y-166447276D01*
X96019282Y-166455651D01*
X96032729Y-166448583D01*
X96706989Y-165774323D01*
X96713367Y-165762643D01*
X97443419Y-165762643D01*
X97443550Y-165764476D01*
X97447801Y-165771091D01*
X98126014Y-166449304D01*
X98137788Y-166455734D01*
X98149804Y-166446437D01*
X98179908Y-166403443D01*
X98185388Y-166393952D01*
X98234540Y-166288546D01*
X98281458Y-166235261D01*
X98349735Y-166215800D01*
X98417695Y-166236342D01*
X98462930Y-166288546D01*
X98512197Y-166394200D01*
X98512200Y-166394205D01*
X98514523Y-166399187D01*
X98517679Y-166403694D01*
X98517680Y-166403696D01*
X98626926Y-166559715D01*
X98642034Y-166581292D01*
X98799230Y-166738488D01*
X98803738Y-166741645D01*
X98803741Y-166741647D01*
X98847941Y-166772596D01*
X98981334Y-166865999D01*
X98986316Y-166868322D01*
X98986321Y-166868325D01*
X99171942Y-166954881D01*
X99182815Y-166959951D01*
X99188123Y-166961373D01*
X99188125Y-166961374D01*
X99238347Y-166974831D01*
X99397548Y-167017489D01*
X99619011Y-167036864D01*
X99840474Y-167017489D01*
X99999675Y-166974831D01*
X100049897Y-166961374D01*
X100049899Y-166961373D01*
X100055207Y-166959951D01*
X100066080Y-166954881D01*
X100251701Y-166868325D01*
X100251706Y-166868322D01*
X100256688Y-166865999D01*
X100390081Y-166772596D01*
X100434281Y-166741647D01*
X100434284Y-166741645D01*
X100438792Y-166738488D01*
X100595988Y-166581292D01*
X100611097Y-166559715D01*
X100720342Y-166403696D01*
X100720343Y-166403694D01*
X100723499Y-166399187D01*
X100725822Y-166394205D01*
X100725825Y-166394200D01*
X100774816Y-166289138D01*
X100821734Y-166235853D01*
X100890011Y-166216392D01*
X100957971Y-166236934D01*
X101003206Y-166289138D01*
X101052197Y-166394200D01*
X101052200Y-166394205D01*
X101054523Y-166399187D01*
X101057679Y-166403694D01*
X101057680Y-166403696D01*
X101166926Y-166559715D01*
X101182034Y-166581292D01*
X101339230Y-166738488D01*
X101343738Y-166741645D01*
X101343741Y-166741647D01*
X101387941Y-166772596D01*
X101521334Y-166865999D01*
X101526316Y-166868322D01*
X101526321Y-166868325D01*
X101711942Y-166954881D01*
X101722815Y-166959951D01*
X101728123Y-166961373D01*
X101728125Y-166961374D01*
X101778347Y-166974831D01*
X101937548Y-167017489D01*
X102159011Y-167036864D01*
X102380474Y-167017489D01*
X102539675Y-166974831D01*
X102589897Y-166961374D01*
X102589899Y-166961373D01*
X102595207Y-166959951D01*
X102606080Y-166954881D01*
X102791701Y-166868325D01*
X102791706Y-166868322D01*
X102796688Y-166865999D01*
X102930081Y-166772596D01*
X102974281Y-166741647D01*
X102974284Y-166741645D01*
X102978792Y-166738488D01*
X103135988Y-166581292D01*
X103151097Y-166559715D01*
X103260342Y-166403696D01*
X103260343Y-166403694D01*
X103263499Y-166399187D01*
X103265822Y-166394205D01*
X103265825Y-166394200D01*
X103355128Y-166202689D01*
X103355129Y-166202688D01*
X103357451Y-166197707D01*
X103414989Y-165982974D01*
X103434364Y-165761511D01*
X103414989Y-165540048D01*
X103357451Y-165325315D01*
X103346374Y-165301560D01*
X103265825Y-165128822D01*
X103265822Y-165128817D01*
X103263499Y-165123835D01*
X103241153Y-165091921D01*
X103139147Y-164946241D01*
X103139145Y-164946238D01*
X103135988Y-164941730D01*
X102978792Y-164784534D01*
X102974284Y-164781377D01*
X102974281Y-164781375D01*
X102882539Y-164717137D01*
X102796688Y-164657023D01*
X102791706Y-164654700D01*
X102791701Y-164654697D01*
X102600189Y-164565394D01*
X102600188Y-164565393D01*
X102595207Y-164563071D01*
X102589899Y-164561649D01*
X102589897Y-164561648D01*
X102495211Y-164536277D01*
X102380474Y-164505533D01*
X102159011Y-164486158D01*
X101937548Y-164505533D01*
X101822811Y-164536277D01*
X101728125Y-164561648D01*
X101728123Y-164561649D01*
X101722815Y-164563071D01*
X101717834Y-164565393D01*
X101717833Y-164565394D01*
X101526322Y-164654697D01*
X101526317Y-164654700D01*
X101521335Y-164657023D01*
X101516828Y-164660179D01*
X101516826Y-164660180D01*
X101343741Y-164781375D01*
X101343738Y-164781377D01*
X101339230Y-164784534D01*
X101182034Y-164941730D01*
X101178877Y-164946238D01*
X101178875Y-164946241D01*
X101076869Y-165091921D01*
X101054523Y-165123835D01*
X101052200Y-165128817D01*
X101052197Y-165128822D01*
X101003206Y-165233884D01*
X100956288Y-165287169D01*
X100888011Y-165306630D01*
X100820051Y-165286088D01*
X100774816Y-165233884D01*
X100725825Y-165128822D01*
X100725822Y-165128817D01*
X100723499Y-165123835D01*
X100701153Y-165091921D01*
X100599147Y-164946241D01*
X100599145Y-164946238D01*
X100595988Y-164941730D01*
X100438792Y-164784534D01*
X100434284Y-164781377D01*
X100434281Y-164781375D01*
X100342539Y-164717137D01*
X100256688Y-164657023D01*
X100251706Y-164654700D01*
X100251701Y-164654697D01*
X100060189Y-164565394D01*
X100060188Y-164565393D01*
X100055207Y-164563071D01*
X100049899Y-164561649D01*
X100049897Y-164561648D01*
X99955211Y-164536277D01*
X99840474Y-164505533D01*
X99619011Y-164486158D01*
X99397548Y-164505533D01*
X99282811Y-164536277D01*
X99188125Y-164561648D01*
X99188123Y-164561649D01*
X99182815Y-164563071D01*
X99177834Y-164565393D01*
X99177833Y-164565394D01*
X98986322Y-164654697D01*
X98986317Y-164654700D01*
X98981335Y-164657023D01*
X98976828Y-164660179D01*
X98976826Y-164660180D01*
X98803741Y-164781375D01*
X98803738Y-164781377D01*
X98799230Y-164784534D01*
X98642034Y-164941730D01*
X98638877Y-164946238D01*
X98638875Y-164946241D01*
X98536869Y-165091921D01*
X98514523Y-165123835D01*
X98512200Y-165128817D01*
X98512197Y-165128822D01*
X98462930Y-165234476D01*
X98416012Y-165287761D01*
X98347735Y-165307222D01*
X98279775Y-165286680D01*
X98234540Y-165234476D01*
X98185388Y-165129070D01*
X98179908Y-165119579D01*
X98149217Y-165075746D01*
X98138740Y-165067371D01*
X98125293Y-165074439D01*
X97451033Y-165748699D01*
X97443419Y-165762643D01*
X96713367Y-165762643D01*
X96714603Y-165760379D01*
X96714472Y-165758546D01*
X96710221Y-165751931D01*
X96032008Y-165073718D01*
X96020234Y-165067288D01*
X96008218Y-165076585D01*
X95978114Y-165119579D01*
X95972634Y-165129070D01*
X95923482Y-165234476D01*
X95876564Y-165287761D01*
X95808287Y-165307222D01*
X95740327Y-165286680D01*
X95695092Y-165234476D01*
X95645825Y-165128822D01*
X95645822Y-165128817D01*
X95643499Y-165123835D01*
X95621153Y-165091921D01*
X95519147Y-164946241D01*
X95519145Y-164946238D01*
X95515988Y-164941730D01*
X95358792Y-164784534D01*
X95354284Y-164781377D01*
X95354281Y-164781375D01*
X95262539Y-164717137D01*
X95240610Y-164701782D01*
X96384871Y-164701782D01*
X96391939Y-164715229D01*
X97066199Y-165389489D01*
X97080143Y-165397103D01*
X97081976Y-165396972D01*
X97088591Y-165392721D01*
X97766804Y-164714508D01*
X97773234Y-164702734D01*
X97763937Y-164690718D01*
X97720942Y-164660613D01*
X97711456Y-164655135D01*
X97520018Y-164565866D01*
X97509726Y-164562120D01*
X97305702Y-164507452D01*
X97294907Y-164505549D01*
X97084486Y-164487139D01*
X97073536Y-164487139D01*
X96863115Y-164505549D01*
X96852320Y-164507452D01*
X96648296Y-164562120D01*
X96638004Y-164565866D01*
X96446570Y-164655134D01*
X96437079Y-164660614D01*
X96393246Y-164691305D01*
X96384871Y-164701782D01*
X95240610Y-164701782D01*
X95176688Y-164657023D01*
X95171706Y-164654700D01*
X95171701Y-164654697D01*
X94980189Y-164565394D01*
X94980188Y-164565393D01*
X94975207Y-164563071D01*
X94969899Y-164561649D01*
X94969897Y-164561648D01*
X94875211Y-164536277D01*
X94760474Y-164505533D01*
X94539011Y-164486158D01*
X94317548Y-164505533D01*
X94202811Y-164536277D01*
X94108125Y-164561648D01*
X94108123Y-164561649D01*
X94102815Y-164563071D01*
X94097834Y-164565393D01*
X94097833Y-164565394D01*
X93906322Y-164654697D01*
X93906317Y-164654700D01*
X93901335Y-164657023D01*
X93896828Y-164660179D01*
X93896826Y-164660180D01*
X93723741Y-164781375D01*
X93723738Y-164781377D01*
X93719230Y-164784534D01*
X93562034Y-164941730D01*
X93558877Y-164946238D01*
X93558875Y-164946241D01*
X93456869Y-165091921D01*
X93434523Y-165123835D01*
X93432200Y-165128817D01*
X93432197Y-165128822D01*
X93351648Y-165301560D01*
X93340571Y-165325315D01*
X93283033Y-165540048D01*
X93263658Y-165761511D01*
X92000000Y-165761511D01*
X92000000Y-157930288D01*
X93844788Y-157930288D01*
X93854085Y-157942304D01*
X93897080Y-157972409D01*
X93906566Y-157977887D01*
X94098004Y-158067156D01*
X94108296Y-158070902D01*
X94312320Y-158125570D01*
X94323115Y-158127473D01*
X94533536Y-158145883D01*
X94544486Y-158145883D01*
X94754907Y-158127473D01*
X94765702Y-158125570D01*
X94969726Y-158070902D01*
X94980018Y-158067156D01*
X95171456Y-157977887D01*
X95180942Y-157972409D01*
X95224775Y-157941718D01*
X95233150Y-157931240D01*
X95226082Y-157917792D01*
X94551823Y-157243533D01*
X94537879Y-157235919D01*
X94536046Y-157236050D01*
X94529431Y-157240301D01*
X93851218Y-157918514D01*
X93844788Y-157930288D01*
X92000000Y-157930288D01*
X92000000Y-156876986D01*
X93264639Y-156876986D01*
X93283049Y-157087407D01*
X93284952Y-157098202D01*
X93339620Y-157302226D01*
X93343366Y-157312518D01*
X93432634Y-157503952D01*
X93438114Y-157513443D01*
X93468805Y-157557276D01*
X93479282Y-157565651D01*
X93492729Y-157558583D01*
X94166989Y-156884323D01*
X94173367Y-156872643D01*
X94903419Y-156872643D01*
X94903550Y-156874476D01*
X94907801Y-156881091D01*
X95586014Y-157559304D01*
X95597788Y-157565734D01*
X95609804Y-157556437D01*
X95639908Y-157513443D01*
X95645388Y-157503952D01*
X95694540Y-157398546D01*
X95741458Y-157345261D01*
X95809735Y-157325800D01*
X95877695Y-157346342D01*
X95922930Y-157398546D01*
X95972197Y-157504200D01*
X95972200Y-157504205D01*
X95974523Y-157509187D01*
X95977679Y-157513694D01*
X95977680Y-157513696D01*
X96098872Y-157686776D01*
X96102034Y-157691292D01*
X96259230Y-157848488D01*
X96263738Y-157851645D01*
X96263741Y-157851647D01*
X96322055Y-157892479D01*
X96441334Y-157975999D01*
X96446316Y-157978322D01*
X96446321Y-157978325D01*
X96636821Y-158067156D01*
X96642815Y-158069951D01*
X96648123Y-158071373D01*
X96648125Y-158071374D01*
X96681527Y-158080324D01*
X96857548Y-158127489D01*
X97079011Y-158146864D01*
X97300474Y-158127489D01*
X97476495Y-158080324D01*
X97509897Y-158071374D01*
X97509899Y-158071373D01*
X97515207Y-158069951D01*
X97521201Y-158067156D01*
X97711701Y-157978325D01*
X97711706Y-157978322D01*
X97716688Y-157975999D01*
X97835967Y-157892479D01*
X97894281Y-157851647D01*
X97894284Y-157851645D01*
X97898792Y-157848488D01*
X98055988Y-157691292D01*
X98059151Y-157686776D01*
X98180342Y-157513696D01*
X98180343Y-157513694D01*
X98183499Y-157509187D01*
X98185822Y-157504205D01*
X98185825Y-157504200D01*
X98234816Y-157399138D01*
X98281734Y-157345853D01*
X98350011Y-157326392D01*
X98417971Y-157346934D01*
X98463206Y-157399138D01*
X98512197Y-157504200D01*
X98512200Y-157504205D01*
X98514523Y-157509187D01*
X98517679Y-157513694D01*
X98517680Y-157513696D01*
X98638872Y-157686776D01*
X98642034Y-157691292D01*
X98799230Y-157848488D01*
X98803738Y-157851645D01*
X98803741Y-157851647D01*
X98862055Y-157892479D01*
X98981334Y-157975999D01*
X98986316Y-157978322D01*
X98986321Y-157978325D01*
X99176821Y-158067156D01*
X99182815Y-158069951D01*
X99188123Y-158071373D01*
X99188125Y-158071374D01*
X99221527Y-158080324D01*
X99397548Y-158127489D01*
X99619011Y-158146864D01*
X99840474Y-158127489D01*
X100016495Y-158080324D01*
X100049897Y-158071374D01*
X100049899Y-158071373D01*
X100055207Y-158069951D01*
X100061201Y-158067156D01*
X100251701Y-157978325D01*
X100251706Y-157978322D01*
X100256688Y-157975999D01*
X100375967Y-157892479D01*
X100434281Y-157851647D01*
X100434284Y-157851645D01*
X100438792Y-157848488D01*
X100595988Y-157691292D01*
X100599147Y-157686781D01*
X100599151Y-157686776D01*
X100636286Y-157633741D01*
X100691743Y-157589412D01*
X100739499Y-157580011D01*
X101670099Y-157580011D01*
X101678669Y-157580303D01*
X101728787Y-157583720D01*
X101728791Y-157583720D01*
X101736363Y-157584236D01*
X101743840Y-157582931D01*
X101743841Y-157582931D01*
X101770319Y-157578310D01*
X101799314Y-157573249D01*
X101805832Y-157572288D01*
X101869253Y-157564613D01*
X101876354Y-157561930D01*
X101878963Y-157561289D01*
X101895273Y-157556826D01*
X101897809Y-157556061D01*
X101905295Y-157554754D01*
X101963811Y-157529067D01*
X101969915Y-157526576D01*
X102022559Y-157506684D01*
X102022560Y-157506683D01*
X102029667Y-157503998D01*
X102035930Y-157499694D01*
X102038296Y-157498457D01*
X102053108Y-157490212D01*
X102055362Y-157488879D01*
X102062316Y-157485826D01*
X102113013Y-157446924D01*
X102118343Y-157443052D01*
X102164731Y-157411172D01*
X102164736Y-157411167D01*
X102170992Y-157406868D01*
X102183737Y-157392564D01*
X102212446Y-157360341D01*
X102217427Y-157355065D01*
X106043346Y-153529146D01*
X106049611Y-153523292D01*
X106087486Y-153490251D01*
X106093211Y-153485257D01*
X106129940Y-153432996D01*
X106133872Y-153427701D01*
X106168617Y-153383390D01*
X106173303Y-153377414D01*
X106176428Y-153370492D01*
X106177790Y-153368244D01*
X106186211Y-153353481D01*
X106187452Y-153351167D01*
X106191816Y-153344957D01*
X106193967Y-153339441D01*
X106243285Y-153289365D01*
X106312542Y-153273745D01*
X106379250Y-153298049D01*
X106422228Y-153354559D01*
X106430511Y-153399489D01*
X106430511Y-164338286D01*
X106430504Y-164339606D01*
X106429560Y-164429721D01*
X106438722Y-164472097D01*
X106440780Y-164484663D01*
X106445614Y-164527755D01*
X106447930Y-164534406D01*
X106447931Y-164534410D01*
X106456644Y-164559430D01*
X106460807Y-164574242D01*
X106467892Y-164607010D01*
X106486219Y-164646313D01*
X106491001Y-164658089D01*
X106505266Y-164699052D01*
X106509000Y-164705027D01*
X106509001Y-164705030D01*
X106523038Y-164727495D01*
X106530377Y-164741012D01*
X106541570Y-164765014D01*
X106544549Y-164771402D01*
X106548866Y-164776967D01*
X106548867Y-164776969D01*
X106571117Y-164805653D01*
X106578413Y-164816112D01*
X106601385Y-164852876D01*
X106606345Y-164857871D01*
X106606346Y-164857872D01*
X106629987Y-164881679D01*
X106630572Y-164882304D01*
X106631089Y-164882970D01*
X106657079Y-164908960D01*
X106729196Y-164981582D01*
X106730233Y-164982240D01*
X106731462Y-164983343D01*
X107874133Y-166126014D01*
X107908159Y-166188326D01*
X107910325Y-166228495D01*
X107898762Y-166336695D01*
X107899059Y-166341848D01*
X107899059Y-166341851D01*
X107907862Y-166494525D01*
X107911621Y-166559715D01*
X107912758Y-166564761D01*
X107912759Y-166564767D01*
X107932630Y-166652939D01*
X107960733Y-166777639D01*
X107998972Y-166871811D01*
X108032463Y-166954289D01*
X108044777Y-166984616D01*
X108095530Y-167067438D01*
X108158802Y-167170688D01*
X108161498Y-167175088D01*
X108307761Y-167343938D01*
X108384357Y-167407529D01*
X108471813Y-167480136D01*
X108479637Y-167486632D01*
X108550106Y-167527811D01*
X108552956Y-167529476D01*
X108601680Y-167581114D01*
X108614751Y-167650897D01*
X108588020Y-167716669D01*
X108547566Y-167750027D01*
X108539821Y-167754059D01*
X108535118Y-167756507D01*
X108530985Y-167759610D01*
X108530982Y-167759612D01*
X108510655Y-167774874D01*
X108356476Y-167890635D01*
X108202140Y-168052138D01*
X108076254Y-168236680D01*
X107982199Y-168439305D01*
X107922500Y-168654570D01*
X107898762Y-168876695D01*
X107899059Y-168881848D01*
X107899059Y-168881851D01*
X107904522Y-168976590D01*
X107911621Y-169099715D01*
X107912758Y-169104761D01*
X107912759Y-169104767D01*
X107925457Y-169161110D01*
X107920921Y-169231962D01*
X107891635Y-169277906D01*
X104929480Y-172240061D01*
X104923215Y-172245915D01*
X104879615Y-172283950D01*
X104875248Y-172290164D01*
X104842872Y-172336230D01*
X104838939Y-172341525D01*
X104799524Y-172391793D01*
X104796401Y-172398709D01*
X104795017Y-172400995D01*
X104786643Y-172415676D01*
X104785378Y-172418036D01*
X104781010Y-172424250D01*
X104778250Y-172431329D01*
X104778249Y-172431331D01*
X104757798Y-172483786D01*
X104755247Y-172489855D01*
X104728955Y-172548084D01*
X104727571Y-172555551D01*
X104726770Y-172558106D01*
X104722141Y-172574359D01*
X104721478Y-172576939D01*
X104718718Y-172584020D01*
X104717727Y-172591551D01*
X104717726Y-172591553D01*
X104710379Y-172647363D01*
X104709348Y-172653870D01*
X104697704Y-172716697D01*
X104698141Y-172724277D01*
X104698141Y-172724278D01*
X104701291Y-172778903D01*
X104701500Y-172786157D01*
X104701500Y-176896862D01*
X104681498Y-176964983D01*
X104664595Y-176985957D01*
X101181947Y-180468605D01*
X101119635Y-180502631D01*
X101081873Y-180505031D01*
X100889011Y-180488158D01*
X100667548Y-180507533D01*
X100523960Y-180546008D01*
X100458125Y-180563648D01*
X100458123Y-180563649D01*
X100452815Y-180565071D01*
X100447834Y-180567393D01*
X100447833Y-180567394D01*
X100256322Y-180656697D01*
X100256317Y-180656700D01*
X100251335Y-180659023D01*
X100246828Y-180662179D01*
X100246826Y-180662180D01*
X100073741Y-180783375D01*
X100073738Y-180783377D01*
X100069230Y-180786534D01*
X99912034Y-180943730D01*
X99908877Y-180948238D01*
X99908875Y-180948241D01*
X99855274Y-181024792D01*
X99784523Y-181125835D01*
X99782200Y-181130817D01*
X99782197Y-181130822D01*
X99702834Y-181301016D01*
X99690571Y-181327315D01*
X99633033Y-181542048D01*
X99613658Y-181763511D01*
X99633033Y-181984974D01*
X99690571Y-182199707D01*
X99692893Y-182204688D01*
X99692894Y-182204689D01*
X99782197Y-182396200D01*
X99782200Y-182396205D01*
X99784523Y-182401187D01*
X99787679Y-182405694D01*
X99787680Y-182405696D01*
X99908872Y-182578776D01*
X99912034Y-182583292D01*
X100069230Y-182740488D01*
X100073738Y-182743645D01*
X100073741Y-182743647D01*
X100149506Y-182796698D01*
X100251334Y-182867999D01*
X100256316Y-182870322D01*
X100256321Y-182870325D01*
X100361976Y-182919592D01*
X100415261Y-182966509D01*
X100434722Y-183034786D01*
X100414180Y-183102746D01*
X100361976Y-183147982D01*
X100256570Y-183197134D01*
X100247079Y-183202614D01*
X100203246Y-183233305D01*
X100194871Y-183243782D01*
X100201939Y-183257229D01*
X100876199Y-183931489D01*
X100890143Y-183939103D01*
X100891976Y-183938972D01*
X100898591Y-183934721D01*
X101576804Y-183256508D01*
X101583234Y-183244734D01*
X101573937Y-183232718D01*
X101530942Y-183202613D01*
X101521456Y-183197135D01*
X101416046Y-183147982D01*
X101362761Y-183101065D01*
X101343300Y-183032788D01*
X101363842Y-182964828D01*
X101416046Y-182919592D01*
X101521701Y-182870325D01*
X101521706Y-182870322D01*
X101526688Y-182867999D01*
X101628516Y-182796698D01*
X101704281Y-182743647D01*
X101704284Y-182743645D01*
X101708792Y-182740488D01*
X101865988Y-182583292D01*
X101869151Y-182578776D01*
X101990342Y-182405696D01*
X101990343Y-182405694D01*
X101993499Y-182401187D01*
X101995822Y-182396205D01*
X101995825Y-182396200D01*
X102085128Y-182204689D01*
X102085129Y-182204688D01*
X102087451Y-182199707D01*
X102144989Y-181984974D01*
X102164364Y-181763511D01*
X102147491Y-181570650D01*
X102161480Y-181501047D01*
X102183917Y-181470575D01*
X103459639Y-180194853D01*
X108501488Y-180194853D01*
X108506769Y-180201907D01*
X108668267Y-180296279D01*
X108677553Y-180300729D01*
X108876512Y-180376703D01*
X108886410Y-180379579D01*
X109095106Y-180422038D01*
X109105334Y-180423257D01*
X109318161Y-180431062D01*
X109328447Y-180430595D01*
X109539696Y-180403534D01*
X109549773Y-180401392D01*
X109753766Y-180340191D01*
X109763353Y-180336433D01*
X109954609Y-180242738D01*
X109963455Y-180237465D01*
X110010758Y-180203723D01*
X110019159Y-180193023D01*
X110012171Y-180179870D01*
X109274323Y-179442022D01*
X109260379Y-179434408D01*
X109258546Y-179434539D01*
X109251931Y-179438790D01*
X108508248Y-180182473D01*
X108501488Y-180194853D01*
X103459639Y-180194853D01*
X104612629Y-179041863D01*
X107899561Y-179041863D01*
X107911820Y-179254477D01*
X107913256Y-179264697D01*
X107960076Y-179472446D01*
X107963156Y-179482275D01*
X108043281Y-179679603D01*
X108047924Y-179688794D01*
X108127971Y-179819420D01*
X108138427Y-179828880D01*
X108147205Y-179825096D01*
X108889489Y-179082812D01*
X108897103Y-179068868D01*
X108896972Y-179067035D01*
X108892721Y-179060420D01*
X108151360Y-178319059D01*
X108139824Y-178312759D01*
X108127542Y-178322382D01*
X108079600Y-178392662D01*
X108074515Y-178401613D01*
X107984849Y-178594783D01*
X107981286Y-178604470D01*
X107924375Y-178809681D01*
X107922444Y-178819800D01*
X107899813Y-179031574D01*
X107899561Y-179041863D01*
X104612629Y-179041863D01*
X105890520Y-177763972D01*
X105896785Y-177758118D01*
X105915935Y-177741412D01*
X105940385Y-177720083D01*
X105977129Y-177667802D01*
X105981061Y-177662508D01*
X106015791Y-177618215D01*
X106020476Y-177612240D01*
X106023599Y-177605324D01*
X106024983Y-177603038D01*
X106033357Y-177588357D01*
X106034622Y-177585997D01*
X106038990Y-177579783D01*
X106042107Y-177571790D01*
X106062202Y-177520247D01*
X106064759Y-177514164D01*
X106067886Y-177507240D01*
X106091045Y-177455949D01*
X106092429Y-177448482D01*
X106093230Y-177445927D01*
X106097859Y-177429674D01*
X106098522Y-177427094D01*
X106101282Y-177420013D01*
X106102694Y-177409292D01*
X106109621Y-177356670D01*
X106110653Y-177350154D01*
X106113446Y-177335088D01*
X106122296Y-177287336D01*
X106118709Y-177225130D01*
X106118500Y-177217876D01*
X106118500Y-173107171D01*
X106138502Y-173039050D01*
X106155405Y-173018076D01*
X107692312Y-171481169D01*
X107754624Y-171447143D01*
X107825439Y-171452208D01*
X107882275Y-171494755D01*
X107907198Y-171563010D01*
X107911621Y-171639715D01*
X107912758Y-171644761D01*
X107912759Y-171644767D01*
X107917331Y-171665054D01*
X107960733Y-171857639D01*
X108044777Y-172064616D01*
X108095530Y-172147438D01*
X108158802Y-172250688D01*
X108161498Y-172255088D01*
X108307761Y-172423938D01*
X108479637Y-172566632D01*
X108550106Y-172607811D01*
X108552956Y-172609476D01*
X108601680Y-172661114D01*
X108614751Y-172730897D01*
X108588020Y-172796669D01*
X108547566Y-172830027D01*
X108535118Y-172836507D01*
X108530985Y-172839610D01*
X108530982Y-172839612D01*
X108506758Y-172857800D01*
X108356476Y-172970635D01*
X108202140Y-173132138D01*
X108199231Y-173136403D01*
X108199225Y-173136411D01*
X108121964Y-173249671D01*
X108076254Y-173316680D01*
X107982199Y-173519305D01*
X107922500Y-173734570D01*
X107898762Y-173956695D01*
X107899059Y-173961848D01*
X107899059Y-173961851D01*
X107904522Y-174056590D01*
X107911621Y-174179715D01*
X107912758Y-174184761D01*
X107912759Y-174184767D01*
X107932630Y-174272939D01*
X107960733Y-174397639D01*
X107998972Y-174491811D01*
X108038974Y-174590324D01*
X108044777Y-174604616D01*
X108083283Y-174667452D01*
X108158802Y-174790688D01*
X108161498Y-174795088D01*
X108307761Y-174963938D01*
X108375651Y-175020301D01*
X108473733Y-175101730D01*
X108479637Y-175106632D01*
X108511517Y-175125261D01*
X108552956Y-175149476D01*
X108601680Y-175201114D01*
X108614751Y-175270897D01*
X108588020Y-175336669D01*
X108547566Y-175370027D01*
X108535118Y-175376507D01*
X108530985Y-175379610D01*
X108530982Y-175379612D01*
X108360611Y-175507530D01*
X108356476Y-175510635D01*
X108202140Y-175672138D01*
X108199231Y-175676403D01*
X108199225Y-175676411D01*
X108176116Y-175710288D01*
X108076254Y-175856680D01*
X107982199Y-176059305D01*
X107922500Y-176274570D01*
X107898762Y-176496695D01*
X107899059Y-176501848D01*
X107899059Y-176501851D01*
X107911323Y-176714547D01*
X107911621Y-176719715D01*
X107912758Y-176724761D01*
X107912759Y-176724767D01*
X107932630Y-176812939D01*
X107960733Y-176937639D01*
X108044777Y-177144616D01*
X108089671Y-177217876D01*
X108158802Y-177330688D01*
X108161498Y-177335088D01*
X108307761Y-177503938D01*
X108479637Y-177646632D01*
X108506806Y-177662508D01*
X108553466Y-177689774D01*
X108602190Y-177741412D01*
X108615261Y-177811195D01*
X108588530Y-177876967D01*
X108548073Y-177910327D01*
X108539971Y-177914544D01*
X108531245Y-177920039D01*
X108511188Y-177935099D01*
X108502734Y-177946427D01*
X108509479Y-177958758D01*
X109248699Y-178697978D01*
X109262643Y-178705592D01*
X109264476Y-178705461D01*
X109271091Y-178701210D01*
X110014900Y-177957401D01*
X110021921Y-177944544D01*
X110015122Y-177935213D01*
X110011070Y-177932521D01*
X109974113Y-177912120D01*
X109924142Y-177861687D01*
X109909370Y-177792245D01*
X109934486Y-177725839D01*
X109961838Y-177699232D01*
X110016377Y-177660330D01*
X110141371Y-177571173D01*
X110150089Y-177562486D01*
X110295946Y-177417137D01*
X110299607Y-177413489D01*
X110359105Y-177330689D01*
X110429964Y-177232077D01*
X110431287Y-177233028D01*
X110478156Y-177189857D01*
X110548091Y-177177625D01*
X110613537Y-177205144D01*
X110641386Y-177236994D01*
X110701498Y-177335088D01*
X110847761Y-177503938D01*
X110918283Y-177562486D01*
X110957919Y-177621389D01*
X110959417Y-177692370D01*
X110922303Y-177752893D01*
X110891250Y-177773532D01*
X110871551Y-177782760D01*
X110733704Y-177868063D01*
X110722303Y-177877099D01*
X110607772Y-177991829D01*
X110598760Y-178003240D01*
X110513695Y-178141243D01*
X110507547Y-178154426D01*
X110485369Y-178221291D01*
X110444938Y-178279651D01*
X110418462Y-178296080D01*
X110374323Y-178316398D01*
X109633533Y-179057188D01*
X109625919Y-179071132D01*
X109626050Y-179072965D01*
X109630301Y-179079580D01*
X110371985Y-179821264D01*
X110412052Y-179843143D01*
X110425613Y-179846093D01*
X110475815Y-179896295D01*
X110484752Y-179916805D01*
X110508099Y-179986784D01*
X110514272Y-179999962D01*
X110599574Y-180137807D01*
X110608610Y-180149208D01*
X110723340Y-180263739D01*
X110734751Y-180272751D01*
X110872754Y-180357816D01*
X110885935Y-180363963D01*
X111040221Y-180415138D01*
X111053597Y-180418005D01*
X111147949Y-180427672D01*
X111154365Y-180428000D01*
X111529396Y-180428000D01*
X111544635Y-180423525D01*
X111545840Y-180422135D01*
X111547511Y-180414452D01*
X111547511Y-180409884D01*
X112055511Y-180409884D01*
X112059986Y-180425123D01*
X112061376Y-180426328D01*
X112069059Y-180427999D01*
X112448606Y-180427999D01*
X112455125Y-180427662D01*
X112550717Y-180417743D01*
X112564111Y-180414851D01*
X112718295Y-180363412D01*
X112731473Y-180357239D01*
X112869318Y-180271937D01*
X112880719Y-180262901D01*
X112995250Y-180148171D01*
X113004262Y-180136760D01*
X113089327Y-179998757D01*
X113095474Y-179985576D01*
X113146649Y-179831290D01*
X113149516Y-179817914D01*
X113159183Y-179723562D01*
X113159511Y-179717146D01*
X113159511Y-179342115D01*
X113155036Y-179326876D01*
X113153646Y-179325671D01*
X113145963Y-179324000D01*
X112073626Y-179324000D01*
X112058387Y-179328475D01*
X112057182Y-179329865D01*
X112055511Y-179337548D01*
X112055511Y-180409884D01*
X111547511Y-180409884D01*
X111547511Y-178942000D01*
X111567513Y-178873879D01*
X111621169Y-178827386D01*
X111673511Y-178816000D01*
X113141395Y-178816000D01*
X113156634Y-178811525D01*
X113157839Y-178810135D01*
X113159510Y-178802452D01*
X113159510Y-178422905D01*
X113159173Y-178416386D01*
X113149254Y-178320794D01*
X113146362Y-178307400D01*
X113094923Y-178153216D01*
X113088750Y-178140038D01*
X113003448Y-178002193D01*
X112994412Y-177990792D01*
X112879682Y-177876261D01*
X112868271Y-177867249D01*
X112730268Y-177782184D01*
X112715989Y-177775525D01*
X112662704Y-177728607D01*
X112643243Y-177660330D01*
X112663785Y-177592370D01*
X112681986Y-177571790D01*
X112681371Y-177571173D01*
X112735556Y-177517177D01*
X112839607Y-177413489D01*
X112899105Y-177330689D01*
X112966946Y-177236277D01*
X112969964Y-177232077D01*
X112973398Y-177225130D01*
X113066647Y-177036453D01*
X113066648Y-177036451D01*
X113068941Y-177031811D01*
X113133881Y-176818069D01*
X113163040Y-176596590D01*
X113164667Y-176530000D01*
X113146363Y-176307361D01*
X113091942Y-176090702D01*
X113002865Y-175885840D01*
X112920372Y-175758325D01*
X112884333Y-175702617D01*
X112884331Y-175702614D01*
X112881525Y-175698277D01*
X112731181Y-175533051D01*
X112727130Y-175529852D01*
X112727126Y-175529848D01*
X112559925Y-175397800D01*
X112559921Y-175397798D01*
X112555870Y-175394598D01*
X112514564Y-175371796D01*
X112464595Y-175321364D01*
X112449823Y-175251921D01*
X112474939Y-175185516D01*
X112502291Y-175158909D01*
X112549464Y-175125261D01*
X112681371Y-175031173D01*
X112696679Y-175015919D01*
X112835946Y-174877137D01*
X112839607Y-174873489D01*
X112899105Y-174790689D01*
X112966946Y-174696277D01*
X112969964Y-174692077D01*
X112982135Y-174667452D01*
X113066647Y-174496453D01*
X113066648Y-174496451D01*
X113068941Y-174491811D01*
X113133881Y-174278069D01*
X113163040Y-174056590D01*
X113164667Y-173990000D01*
X113146363Y-173767361D01*
X113091942Y-173550702D01*
X113002865Y-173345840D01*
X112941262Y-173250616D01*
X112884333Y-173162617D01*
X112884331Y-173162614D01*
X112881525Y-173158277D01*
X112731181Y-172993051D01*
X112727130Y-172989852D01*
X112727126Y-172989848D01*
X112559925Y-172857800D01*
X112559921Y-172857798D01*
X112555870Y-172854598D01*
X112514564Y-172831796D01*
X112464595Y-172781364D01*
X112449823Y-172711921D01*
X112474939Y-172645516D01*
X112502291Y-172618909D01*
X112564748Y-172574359D01*
X112681371Y-172491173D01*
X112741423Y-172431331D01*
X112835946Y-172337137D01*
X112839607Y-172333489D01*
X112899105Y-172250689D01*
X112966946Y-172156277D01*
X112969964Y-172152077D01*
X112990831Y-172109857D01*
X113066647Y-171956453D01*
X113066648Y-171956451D01*
X113068941Y-171951811D01*
X113133881Y-171738069D01*
X113156929Y-171563010D01*
X113157971Y-171555095D01*
X113186694Y-171490168D01*
X113245959Y-171451077D01*
X113316951Y-171450232D01*
X113371988Y-171482447D01*
X113554595Y-171665054D01*
X113588621Y-171727366D01*
X113591500Y-171754149D01*
X113591500Y-175231088D01*
X113591208Y-175239658D01*
X113587832Y-175289187D01*
X113587275Y-175297352D01*
X113588580Y-175304829D01*
X113588580Y-175304830D01*
X113598261Y-175360299D01*
X113599223Y-175366821D01*
X113606898Y-175430242D01*
X113609581Y-175437343D01*
X113610222Y-175439952D01*
X113614685Y-175456262D01*
X113615450Y-175458798D01*
X113616757Y-175466284D01*
X113619811Y-175473241D01*
X113642442Y-175524795D01*
X113644933Y-175530899D01*
X113667513Y-175590656D01*
X113671817Y-175596919D01*
X113673054Y-175599285D01*
X113681299Y-175614097D01*
X113682632Y-175616351D01*
X113685685Y-175623305D01*
X113720290Y-175668401D01*
X113724579Y-175673991D01*
X113728459Y-175679332D01*
X113760339Y-175725720D01*
X113760344Y-175725725D01*
X113764643Y-175731981D01*
X113770313Y-175737032D01*
X113770314Y-175737034D01*
X113811170Y-175773435D01*
X113816446Y-175778416D01*
X120282068Y-182244039D01*
X120287922Y-182250304D01*
X120325950Y-182293896D01*
X120378240Y-182330647D01*
X120383482Y-182334539D01*
X120433793Y-182373987D01*
X120440712Y-182377111D01*
X120443004Y-182378499D01*
X120457676Y-182386868D01*
X120460036Y-182388133D01*
X120466250Y-182392501D01*
X120473329Y-182395261D01*
X120473331Y-182395262D01*
X120525786Y-182415713D01*
X120531855Y-182418264D01*
X120590084Y-182444556D01*
X120597557Y-182445941D01*
X120600123Y-182446745D01*
X120616346Y-182451366D01*
X120618938Y-182452031D01*
X120626020Y-182454793D01*
X120633555Y-182455785D01*
X120689372Y-182463133D01*
X120695888Y-182464165D01*
X120734281Y-182471281D01*
X120758697Y-182475806D01*
X120766277Y-182475369D01*
X120766278Y-182475369D01*
X120820891Y-182472220D01*
X120828144Y-182472011D01*
X123898523Y-182472011D01*
X123966644Y-182492013D01*
X124001736Y-182525741D01*
X124038871Y-182578776D01*
X124038875Y-182578781D01*
X124042034Y-182583292D01*
X124199230Y-182740488D01*
X124203738Y-182743645D01*
X124203741Y-182743647D01*
X124279506Y-182796698D01*
X124381334Y-182867999D01*
X124386316Y-182870322D01*
X124386321Y-182870325D01*
X124491976Y-182919592D01*
X124545261Y-182966509D01*
X124564722Y-183034786D01*
X124544180Y-183102746D01*
X124491976Y-183147982D01*
X124386570Y-183197134D01*
X124377079Y-183202614D01*
X124333246Y-183233305D01*
X124324871Y-183243782D01*
X124331939Y-183257229D01*
X125006199Y-183931489D01*
X125020143Y-183939103D01*
X125021976Y-183938972D01*
X125028591Y-183934721D01*
X125706804Y-183256508D01*
X125713234Y-183244734D01*
X125703937Y-183232718D01*
X125660942Y-183202613D01*
X125651456Y-183197135D01*
X125546046Y-183147982D01*
X125492761Y-183101065D01*
X125473300Y-183032788D01*
X125493842Y-182964828D01*
X125546046Y-182919592D01*
X125651701Y-182870325D01*
X125651706Y-182870322D01*
X125656688Y-182867999D01*
X125758516Y-182796698D01*
X125834281Y-182743647D01*
X125834284Y-182743645D01*
X125838792Y-182740488D01*
X125995988Y-182583292D01*
X125999151Y-182578776D01*
X126120342Y-182405696D01*
X126120343Y-182405694D01*
X126123499Y-182401187D01*
X126125822Y-182396205D01*
X126125825Y-182396200D01*
X126215128Y-182204689D01*
X126215129Y-182204688D01*
X126217451Y-182199707D01*
X126235405Y-182132703D01*
X134890743Y-182132703D01*
X134891302Y-182136947D01*
X134891302Y-182136951D01*
X134906225Y-182250304D01*
X134928268Y-182417734D01*
X134929401Y-182421874D01*
X134929401Y-182421876D01*
X134940688Y-182463133D01*
X135004129Y-182695036D01*
X135005813Y-182698984D01*
X135078897Y-182870325D01*
X135116923Y-182959476D01*
X135161995Y-183034786D01*
X135229742Y-183147982D01*
X135264561Y-183206161D01*
X135444313Y-183430528D01*
X135461397Y-183446740D01*
X135641600Y-183617746D01*
X135652851Y-183628423D01*
X135886317Y-183796186D01*
X135890112Y-183798195D01*
X135890113Y-183798196D01*
X135911869Y-183809715D01*
X136140392Y-183930712D01*
X136410373Y-184029511D01*
X136691264Y-184090755D01*
X136719841Y-184093004D01*
X136914282Y-184108307D01*
X136914291Y-184108307D01*
X136916739Y-184108500D01*
X137072271Y-184108500D01*
X137074407Y-184108354D01*
X137074418Y-184108354D01*
X137282548Y-184094165D01*
X137282554Y-184094164D01*
X137286825Y-184093873D01*
X137291020Y-184093004D01*
X137291022Y-184093004D01*
X137427583Y-184064724D01*
X137568342Y-184035574D01*
X137839343Y-183939607D01*
X138094812Y-183807750D01*
X138098313Y-183805289D01*
X138098317Y-183805287D01*
X138302792Y-183661579D01*
X138330023Y-183642441D01*
X138540622Y-183446740D01*
X138722713Y-183224268D01*
X138872927Y-182979142D01*
X138878473Y-182966509D01*
X138986757Y-182719830D01*
X138988483Y-182715898D01*
X139067244Y-182439406D01*
X139107751Y-182154784D01*
X139107845Y-182136951D01*
X139109235Y-181871583D01*
X139109235Y-181871576D01*
X139109257Y-181867297D01*
X139071732Y-181582266D01*
X138995871Y-181304964D01*
X138921593Y-181130822D01*
X138884763Y-181044476D01*
X138884761Y-181044472D01*
X138883077Y-181040524D01*
X138735439Y-180793839D01*
X138555687Y-180569472D01*
X138409341Y-180430595D01*
X138350258Y-180374527D01*
X138350255Y-180374525D01*
X138347149Y-180371577D01*
X138113683Y-180203814D01*
X138093303Y-180193023D01*
X138008592Y-180148171D01*
X137859608Y-180069288D01*
X137589627Y-179970489D01*
X137308736Y-179909245D01*
X137277685Y-179906801D01*
X137085718Y-179891693D01*
X137085709Y-179891693D01*
X137083261Y-179891500D01*
X136927729Y-179891500D01*
X136925593Y-179891646D01*
X136925582Y-179891646D01*
X136717452Y-179905835D01*
X136717446Y-179905836D01*
X136713175Y-179906127D01*
X136708980Y-179906996D01*
X136708978Y-179906996D01*
X136572416Y-179935277D01*
X136431658Y-179964426D01*
X136160657Y-180060393D01*
X135905188Y-180192250D01*
X135901687Y-180194711D01*
X135901683Y-180194713D01*
X135833351Y-180242738D01*
X135669977Y-180357559D01*
X135600589Y-180422038D01*
X135507054Y-180508957D01*
X135459378Y-180553260D01*
X135277287Y-180775732D01*
X135127073Y-181020858D01*
X135011517Y-181284102D01*
X134932756Y-181560594D01*
X134892249Y-181845216D01*
X134892227Y-181849505D01*
X134892226Y-181849512D01*
X134891489Y-181990287D01*
X134890743Y-182132703D01*
X126235405Y-182132703D01*
X126274989Y-181984974D01*
X126294364Y-181763511D01*
X126274989Y-181542048D01*
X126217451Y-181327315D01*
X126205188Y-181301016D01*
X126125825Y-181130822D01*
X126125822Y-181130817D01*
X126123499Y-181125835D01*
X126052748Y-181024792D01*
X125999147Y-180948241D01*
X125999145Y-180948238D01*
X125995988Y-180943730D01*
X125838792Y-180786534D01*
X125834284Y-180783377D01*
X125834281Y-180783375D01*
X125758516Y-180730324D01*
X125656688Y-180659023D01*
X125651706Y-180656700D01*
X125651701Y-180656697D01*
X125460189Y-180567394D01*
X125460188Y-180567393D01*
X125455207Y-180565071D01*
X125449899Y-180563649D01*
X125449897Y-180563648D01*
X125384062Y-180546008D01*
X125240474Y-180507533D01*
X125019011Y-180488158D01*
X124797548Y-180507533D01*
X124653960Y-180546008D01*
X124588125Y-180563648D01*
X124588123Y-180563649D01*
X124582815Y-180565071D01*
X124577834Y-180567393D01*
X124577833Y-180567394D01*
X124386322Y-180656697D01*
X124386317Y-180656700D01*
X124381335Y-180659023D01*
X124376828Y-180662179D01*
X124376826Y-180662180D01*
X124203741Y-180783375D01*
X124203738Y-180783377D01*
X124199230Y-180786534D01*
X124042034Y-180943730D01*
X124038876Y-180948240D01*
X124038871Y-180948246D01*
X124001736Y-181001281D01*
X123946279Y-181045610D01*
X123898523Y-181055011D01*
X121149171Y-181055011D01*
X121081050Y-181035009D01*
X121060076Y-181018106D01*
X115963481Y-175921511D01*
X117393658Y-175921511D01*
X117413033Y-176142974D01*
X117470571Y-176357707D01*
X117472893Y-176362688D01*
X117472894Y-176362689D01*
X117562197Y-176554200D01*
X117562200Y-176554205D01*
X117564523Y-176559187D01*
X117567679Y-176563694D01*
X117567680Y-176563696D01*
X117676926Y-176719715D01*
X117692034Y-176741292D01*
X117849230Y-176898488D01*
X117853738Y-176901645D01*
X117853741Y-176901647D01*
X117897941Y-176932596D01*
X118031334Y-177025999D01*
X118036316Y-177028322D01*
X118036321Y-177028325D01*
X118226821Y-177117156D01*
X118232815Y-177119951D01*
X118238123Y-177121373D01*
X118238125Y-177121374D01*
X118303960Y-177139014D01*
X118447548Y-177177489D01*
X118669011Y-177196864D01*
X118890474Y-177177489D01*
X119034062Y-177139014D01*
X119099897Y-177121374D01*
X119099899Y-177121373D01*
X119105207Y-177119951D01*
X119111201Y-177117156D01*
X119301701Y-177028325D01*
X119301706Y-177028322D01*
X119306688Y-177025999D01*
X119440081Y-176932596D01*
X119484281Y-176901647D01*
X119484284Y-176901645D01*
X119488792Y-176898488D01*
X119645988Y-176741292D01*
X119661097Y-176719715D01*
X119770342Y-176563696D01*
X119770343Y-176563694D01*
X119773499Y-176559187D01*
X119775822Y-176554205D01*
X119775825Y-176554200D01*
X119824816Y-176449138D01*
X119871734Y-176395853D01*
X119940011Y-176376392D01*
X120007971Y-176396934D01*
X120053206Y-176449138D01*
X120102197Y-176554200D01*
X120102200Y-176554205D01*
X120104523Y-176559187D01*
X120107679Y-176563694D01*
X120107680Y-176563696D01*
X120216926Y-176719715D01*
X120232034Y-176741292D01*
X120389230Y-176898488D01*
X120393738Y-176901645D01*
X120393741Y-176901647D01*
X120437941Y-176932596D01*
X120571334Y-177025999D01*
X120576316Y-177028322D01*
X120576321Y-177028325D01*
X120766821Y-177117156D01*
X120772815Y-177119951D01*
X120778123Y-177121373D01*
X120778125Y-177121374D01*
X120843960Y-177139014D01*
X120987548Y-177177489D01*
X121209011Y-177196864D01*
X121430474Y-177177489D01*
X121574062Y-177139014D01*
X121639897Y-177121374D01*
X121639899Y-177121373D01*
X121645207Y-177119951D01*
X121651201Y-177117156D01*
X121841701Y-177028325D01*
X121841706Y-177028322D01*
X121846688Y-177025999D01*
X121911970Y-176980288D01*
X123054788Y-176980288D01*
X123064085Y-176992304D01*
X123107080Y-177022409D01*
X123116566Y-177027887D01*
X123308004Y-177117156D01*
X123318296Y-177120902D01*
X123522320Y-177175570D01*
X123533115Y-177177473D01*
X123743536Y-177195883D01*
X123754486Y-177195883D01*
X123964907Y-177177473D01*
X123975702Y-177175570D01*
X124179726Y-177120902D01*
X124190018Y-177117156D01*
X124381456Y-177027887D01*
X124390942Y-177022409D01*
X124434775Y-176991718D01*
X124443150Y-176981240D01*
X124436082Y-176967792D01*
X123761823Y-176293533D01*
X123747879Y-176285919D01*
X123746046Y-176286050D01*
X123739431Y-176290301D01*
X123061218Y-176968514D01*
X123054788Y-176980288D01*
X121911970Y-176980288D01*
X121980081Y-176932596D01*
X122024281Y-176901647D01*
X122024284Y-176901645D01*
X122028792Y-176898488D01*
X122185988Y-176741292D01*
X122201097Y-176719715D01*
X122310342Y-176563696D01*
X122310343Y-176563694D01*
X122313499Y-176559187D01*
X122315822Y-176554205D01*
X122315825Y-176554200D01*
X122365092Y-176448546D01*
X122412010Y-176395261D01*
X122480287Y-176375800D01*
X122548247Y-176396342D01*
X122593482Y-176448546D01*
X122642634Y-176553952D01*
X122648114Y-176563443D01*
X122678805Y-176607276D01*
X122689282Y-176615651D01*
X122702729Y-176608583D01*
X123376989Y-175934323D01*
X123383367Y-175922643D01*
X124113419Y-175922643D01*
X124113550Y-175924476D01*
X124117801Y-175931091D01*
X124796014Y-176609304D01*
X124807788Y-176615734D01*
X124819804Y-176606437D01*
X124849908Y-176563443D01*
X124855388Y-176553952D01*
X124904540Y-176448546D01*
X124951458Y-176395261D01*
X125019735Y-176375800D01*
X125087695Y-176396342D01*
X125132930Y-176448546D01*
X125182197Y-176554200D01*
X125182200Y-176554205D01*
X125184523Y-176559187D01*
X125187679Y-176563694D01*
X125187680Y-176563696D01*
X125296926Y-176719715D01*
X125312034Y-176741292D01*
X125469230Y-176898488D01*
X125473738Y-176901645D01*
X125473741Y-176901647D01*
X125517941Y-176932596D01*
X125651334Y-177025999D01*
X125656316Y-177028322D01*
X125656321Y-177028325D01*
X125846821Y-177117156D01*
X125852815Y-177119951D01*
X125858123Y-177121373D01*
X125858125Y-177121374D01*
X125923960Y-177139014D01*
X126067548Y-177177489D01*
X126289011Y-177196864D01*
X126510474Y-177177489D01*
X126654062Y-177139014D01*
X126719897Y-177121374D01*
X126719899Y-177121373D01*
X126725207Y-177119951D01*
X126731201Y-177117156D01*
X126921701Y-177028325D01*
X126921706Y-177028322D01*
X126926688Y-177025999D01*
X127060081Y-176932596D01*
X127104281Y-176901647D01*
X127104284Y-176901645D01*
X127108792Y-176898488D01*
X127265988Y-176741292D01*
X127281097Y-176719715D01*
X127390342Y-176563696D01*
X127390343Y-176563694D01*
X127393499Y-176559187D01*
X127395822Y-176554205D01*
X127395825Y-176554200D01*
X127485128Y-176362689D01*
X127485129Y-176362688D01*
X127487451Y-176357707D01*
X127544989Y-176142974D01*
X127564364Y-175921511D01*
X127544989Y-175700048D01*
X127487451Y-175485315D01*
X127479014Y-175467222D01*
X127395825Y-175288822D01*
X127395822Y-175288817D01*
X127393499Y-175283835D01*
X127362566Y-175239658D01*
X127269147Y-175106241D01*
X127269145Y-175106238D01*
X127265988Y-175101730D01*
X127108792Y-174944534D01*
X127104284Y-174941377D01*
X127104281Y-174941375D01*
X127012539Y-174877137D01*
X126926688Y-174817023D01*
X126921706Y-174814700D01*
X126921701Y-174814697D01*
X126730189Y-174725394D01*
X126730188Y-174725393D01*
X126725207Y-174723071D01*
X126719899Y-174721649D01*
X126719897Y-174721648D01*
X126625211Y-174696277D01*
X126510474Y-174665533D01*
X126289011Y-174646158D01*
X126067548Y-174665533D01*
X125952811Y-174696277D01*
X125858125Y-174721648D01*
X125858123Y-174721649D01*
X125852815Y-174723071D01*
X125847834Y-174725393D01*
X125847833Y-174725394D01*
X125656322Y-174814697D01*
X125656317Y-174814700D01*
X125651335Y-174817023D01*
X125646828Y-174820179D01*
X125646826Y-174820180D01*
X125473741Y-174941375D01*
X125473738Y-174941377D01*
X125469230Y-174944534D01*
X125312034Y-175101730D01*
X125308877Y-175106238D01*
X125308875Y-175106241D01*
X125215456Y-175239658D01*
X125184523Y-175283835D01*
X125182200Y-175288817D01*
X125182197Y-175288822D01*
X125132930Y-175394476D01*
X125086012Y-175447761D01*
X125017735Y-175467222D01*
X124949775Y-175446680D01*
X124904540Y-175394476D01*
X124855388Y-175289070D01*
X124849908Y-175279579D01*
X124819217Y-175235746D01*
X124808740Y-175227371D01*
X124795293Y-175234439D01*
X124121033Y-175908699D01*
X124113419Y-175922643D01*
X123383367Y-175922643D01*
X123384603Y-175920379D01*
X123384472Y-175918546D01*
X123380221Y-175911931D01*
X122702008Y-175233718D01*
X122690234Y-175227288D01*
X122678218Y-175236585D01*
X122648114Y-175279579D01*
X122642634Y-175289070D01*
X122593482Y-175394476D01*
X122546564Y-175447761D01*
X122478287Y-175467222D01*
X122410327Y-175446680D01*
X122365092Y-175394476D01*
X122315825Y-175288822D01*
X122315822Y-175288817D01*
X122313499Y-175283835D01*
X122282566Y-175239658D01*
X122189147Y-175106241D01*
X122189145Y-175106238D01*
X122185988Y-175101730D01*
X122028792Y-174944534D01*
X122024284Y-174941377D01*
X122024281Y-174941375D01*
X121932539Y-174877137D01*
X121910610Y-174861782D01*
X123054871Y-174861782D01*
X123061939Y-174875229D01*
X123736199Y-175549489D01*
X123750143Y-175557103D01*
X123751976Y-175556972D01*
X123758591Y-175552721D01*
X124436804Y-174874508D01*
X124443234Y-174862734D01*
X124433937Y-174850718D01*
X124390942Y-174820613D01*
X124381456Y-174815135D01*
X124190018Y-174725866D01*
X124179726Y-174722120D01*
X123975702Y-174667452D01*
X123964907Y-174665549D01*
X123754486Y-174647139D01*
X123743536Y-174647139D01*
X123533115Y-174665549D01*
X123522320Y-174667452D01*
X123318296Y-174722120D01*
X123308004Y-174725866D01*
X123116570Y-174815134D01*
X123107079Y-174820614D01*
X123063246Y-174851305D01*
X123054871Y-174861782D01*
X121910610Y-174861782D01*
X121846688Y-174817023D01*
X121841706Y-174814700D01*
X121841701Y-174814697D01*
X121650189Y-174725394D01*
X121650188Y-174725393D01*
X121645207Y-174723071D01*
X121639899Y-174721649D01*
X121639897Y-174721648D01*
X121545211Y-174696277D01*
X121430474Y-174665533D01*
X121209011Y-174646158D01*
X120987548Y-174665533D01*
X120872811Y-174696277D01*
X120778125Y-174721648D01*
X120778123Y-174721649D01*
X120772815Y-174723071D01*
X120767834Y-174725393D01*
X120767833Y-174725394D01*
X120576322Y-174814697D01*
X120576317Y-174814700D01*
X120571335Y-174817023D01*
X120566828Y-174820179D01*
X120566826Y-174820180D01*
X120393741Y-174941375D01*
X120393738Y-174941377D01*
X120389230Y-174944534D01*
X120232034Y-175101730D01*
X120228877Y-175106238D01*
X120228875Y-175106241D01*
X120135456Y-175239658D01*
X120104523Y-175283835D01*
X120102200Y-175288817D01*
X120102197Y-175288822D01*
X120053206Y-175393884D01*
X120006288Y-175447169D01*
X119938011Y-175466630D01*
X119870051Y-175446088D01*
X119824816Y-175393884D01*
X119775825Y-175288822D01*
X119775822Y-175288817D01*
X119773499Y-175283835D01*
X119742566Y-175239658D01*
X119649147Y-175106241D01*
X119649145Y-175106238D01*
X119645988Y-175101730D01*
X119488792Y-174944534D01*
X119484284Y-174941377D01*
X119484281Y-174941375D01*
X119392539Y-174877137D01*
X119306688Y-174817023D01*
X119301706Y-174814700D01*
X119301701Y-174814697D01*
X119110189Y-174725394D01*
X119110188Y-174725393D01*
X119105207Y-174723071D01*
X119099899Y-174721649D01*
X119099897Y-174721648D01*
X119005211Y-174696277D01*
X118890474Y-174665533D01*
X118669011Y-174646158D01*
X118447548Y-174665533D01*
X118332811Y-174696277D01*
X118238125Y-174721648D01*
X118238123Y-174721649D01*
X118232815Y-174723071D01*
X118227834Y-174725393D01*
X118227833Y-174725394D01*
X118036322Y-174814697D01*
X118036317Y-174814700D01*
X118031335Y-174817023D01*
X118026828Y-174820179D01*
X118026826Y-174820180D01*
X117853741Y-174941375D01*
X117853738Y-174941377D01*
X117849230Y-174944534D01*
X117692034Y-175101730D01*
X117688877Y-175106238D01*
X117688875Y-175106241D01*
X117595456Y-175239658D01*
X117564523Y-175283835D01*
X117562200Y-175288817D01*
X117562197Y-175288822D01*
X117479008Y-175467222D01*
X117470571Y-175485315D01*
X117413033Y-175700048D01*
X117393658Y-175921511D01*
X115963481Y-175921511D01*
X115045405Y-175003435D01*
X115011379Y-174941123D01*
X115008500Y-174914340D01*
X115008500Y-173409645D01*
X131380511Y-173409645D01*
X131387266Y-173471827D01*
X131438396Y-173608216D01*
X131525750Y-173724772D01*
X131642306Y-173812126D01*
X131778695Y-173863256D01*
X131840877Y-173870011D01*
X133437145Y-173870011D01*
X133499327Y-173863256D01*
X133635716Y-173812126D01*
X133752272Y-173724772D01*
X133839626Y-173608216D01*
X133890756Y-173471827D01*
X133897511Y-173409645D01*
X133897511Y-173375334D01*
X133917513Y-173307213D01*
X133971169Y-173260720D01*
X134041443Y-173250616D01*
X134106023Y-173280110D01*
X134125834Y-173301808D01*
X134219586Y-173432278D01*
X134226894Y-173440744D01*
X134380093Y-173589203D01*
X134388790Y-173596246D01*
X134565855Y-173715230D01*
X134575653Y-173720616D01*
X134771001Y-173806368D01*
X134781593Y-173809933D01*
X134907395Y-173840135D01*
X134921481Y-173839430D01*
X134925011Y-173830551D01*
X134925011Y-173829922D01*
X135433011Y-173829922D01*
X135437116Y-173843904D01*
X135446739Y-173845397D01*
X135446984Y-173845345D01*
X135650894Y-173782613D01*
X135661240Y-173778392D01*
X135850825Y-173680540D01*
X135860256Y-173674554D01*
X136029512Y-173544679D01*
X136037735Y-173537118D01*
X136181323Y-173379317D01*
X136188078Y-173370417D01*
X136301445Y-173189696D01*
X136306522Y-173179730D01*
X136331678Y-173117153D01*
X136375644Y-173061408D01*
X136442769Y-173038283D01*
X136511740Y-173055120D01*
X136562311Y-173109904D01*
X136631389Y-173254729D01*
X136762482Y-173437165D01*
X136778896Y-173453071D01*
X136919373Y-173589203D01*
X136923810Y-173593503D01*
X137110273Y-173718801D01*
X137315978Y-173809099D01*
X137321429Y-173810408D01*
X137321433Y-173810409D01*
X137528965Y-173860233D01*
X137534422Y-173861543D01*
X137618486Y-173866390D01*
X137753094Y-173874151D01*
X137753097Y-173874151D01*
X137758701Y-173874474D01*
X137981726Y-173847486D01*
X138196446Y-173781429D01*
X138201426Y-173778859D01*
X138201430Y-173778857D01*
X138391092Y-173680965D01*
X138391093Y-173680965D01*
X138396075Y-173678393D01*
X138574303Y-173541634D01*
X138725496Y-173375475D01*
X138741107Y-173350590D01*
X138841896Y-173189916D01*
X138844875Y-173185167D01*
X138928667Y-172976728D01*
X138974224Y-172756744D01*
X138974807Y-172746638D01*
X138977406Y-172701559D01*
X138977406Y-172701555D01*
X138977511Y-172699736D01*
X138977511Y-171554512D01*
X138962628Y-171387749D01*
X138958084Y-171371137D01*
X138904828Y-171176471D01*
X138903348Y-171171060D01*
X138887382Y-171137585D01*
X138854765Y-171069204D01*
X138806633Y-170968293D01*
X138675540Y-170785857D01*
X138567737Y-170681388D01*
X138518240Y-170633422D01*
X138518237Y-170633420D01*
X138514212Y-170629519D01*
X138327749Y-170504221D01*
X138122044Y-170413923D01*
X138116593Y-170412614D01*
X138116589Y-170412613D01*
X137909057Y-170362789D01*
X137909056Y-170362789D01*
X137903600Y-170361479D01*
X137819536Y-170356632D01*
X137684928Y-170348871D01*
X137684925Y-170348871D01*
X137679321Y-170348548D01*
X137456296Y-170375536D01*
X137241576Y-170441593D01*
X137236596Y-170444163D01*
X137236592Y-170444165D01*
X137046930Y-170542057D01*
X137041947Y-170544629D01*
X136863719Y-170681388D01*
X136712526Y-170847547D01*
X136709548Y-170852294D01*
X136709546Y-170852297D01*
X136596126Y-171033106D01*
X136593147Y-171037855D01*
X136565797Y-171105889D01*
X136521833Y-171161631D01*
X136454708Y-171184756D01*
X136385737Y-171167919D01*
X136335166Y-171113135D01*
X136268614Y-170973608D01*
X136262929Y-170963995D01*
X136138436Y-170790744D01*
X136131128Y-170782278D01*
X135977929Y-170633819D01*
X135969232Y-170626776D01*
X135792167Y-170507792D01*
X135782369Y-170502406D01*
X135587021Y-170416654D01*
X135576429Y-170413089D01*
X135450627Y-170382887D01*
X135436541Y-170383592D01*
X135433011Y-170392471D01*
X135433011Y-173829922D01*
X134925011Y-173829922D01*
X134925011Y-170393100D01*
X134920906Y-170379118D01*
X134911283Y-170377625D01*
X134911038Y-170377677D01*
X134707128Y-170440409D01*
X134696782Y-170444630D01*
X134507197Y-170542482D01*
X134497766Y-170548468D01*
X134328510Y-170678343D01*
X134320287Y-170685904D01*
X134176699Y-170843705D01*
X134169947Y-170852600D01*
X134130248Y-170915886D01*
X134077104Y-170962963D01*
X134006945Y-170973835D01*
X133942046Y-170945051D01*
X133903011Y-170885748D01*
X133897511Y-170848929D01*
X133897511Y-170813377D01*
X133890756Y-170751195D01*
X133839626Y-170614806D01*
X133752272Y-170498250D01*
X133635716Y-170410896D01*
X133499327Y-170359766D01*
X133437145Y-170353011D01*
X131840877Y-170353011D01*
X131778695Y-170359766D01*
X131642306Y-170410896D01*
X131525750Y-170498250D01*
X131438396Y-170614806D01*
X131387266Y-170751195D01*
X131380511Y-170813377D01*
X131380511Y-173409645D01*
X115008500Y-173409645D01*
X115008500Y-171437401D01*
X115008792Y-171428831D01*
X115012209Y-171378713D01*
X115012209Y-171378709D01*
X115012725Y-171371137D01*
X115001738Y-171308186D01*
X115000776Y-171301664D01*
X114995669Y-171259461D01*
X114993102Y-171238247D01*
X114990419Y-171231146D01*
X114989778Y-171228537D01*
X114985315Y-171212227D01*
X114984550Y-171209691D01*
X114983243Y-171202205D01*
X114957556Y-171143689D01*
X114955065Y-171137585D01*
X114935173Y-171084941D01*
X114935172Y-171084940D01*
X114932487Y-171077833D01*
X114928183Y-171071570D01*
X114926946Y-171069204D01*
X114918701Y-171054392D01*
X114917368Y-171052138D01*
X114914315Y-171045184D01*
X114875413Y-170994487D01*
X114871541Y-170989157D01*
X114839661Y-170942769D01*
X114839656Y-170942764D01*
X114835357Y-170936508D01*
X114812212Y-170915886D01*
X114788830Y-170895054D01*
X114783554Y-170890073D01*
X113172894Y-169279413D01*
X113138868Y-169217101D01*
X113137067Y-169173871D01*
X113162603Y-168979908D01*
X113163040Y-168976590D01*
X113164667Y-168910000D01*
X113146363Y-168687361D01*
X113091942Y-168470702D01*
X113002865Y-168265840D01*
X112881525Y-168078277D01*
X112731181Y-167913051D01*
X112727130Y-167909852D01*
X112727126Y-167909848D01*
X112559925Y-167777800D01*
X112559921Y-167777798D01*
X112555870Y-167774598D01*
X112514564Y-167751796D01*
X112464595Y-167701364D01*
X112449823Y-167631921D01*
X112474939Y-167565516D01*
X112502291Y-167538909D01*
X112546114Y-167507650D01*
X112681371Y-167411173D01*
X112839607Y-167253489D01*
X112899105Y-167170689D01*
X112966946Y-167076277D01*
X112969964Y-167072077D01*
X112987368Y-167036864D01*
X113066647Y-166876453D01*
X113066648Y-166876451D01*
X113068941Y-166871811D01*
X113133881Y-166658069D01*
X113154692Y-166500000D01*
X117314647Y-166500000D01*
X117334022Y-166721463D01*
X117391560Y-166936196D01*
X117393882Y-166941177D01*
X117393883Y-166941178D01*
X117483186Y-167132689D01*
X117483189Y-167132694D01*
X117485512Y-167137676D01*
X117488668Y-167142183D01*
X117488669Y-167142185D01*
X117525107Y-167194223D01*
X117613023Y-167319781D01*
X117770219Y-167476977D01*
X117774727Y-167480134D01*
X117774730Y-167480136D01*
X117787735Y-167489242D01*
X117952323Y-167604488D01*
X117957305Y-167606811D01*
X117957310Y-167606814D01*
X118085604Y-167666638D01*
X118153804Y-167698440D01*
X118159112Y-167699862D01*
X118159114Y-167699863D01*
X118164716Y-167701364D01*
X118368537Y-167755978D01*
X118590000Y-167775353D01*
X118811463Y-167755978D01*
X119015284Y-167701364D01*
X119020886Y-167699863D01*
X119020888Y-167699862D01*
X119026196Y-167698440D01*
X119094396Y-167666638D01*
X119222690Y-167606814D01*
X119222695Y-167606811D01*
X119227677Y-167604488D01*
X119392265Y-167489242D01*
X119405270Y-167480136D01*
X119405273Y-167480134D01*
X119409781Y-167476977D01*
X119566977Y-167319781D01*
X119654894Y-167194223D01*
X119691331Y-167142185D01*
X119691332Y-167142183D01*
X119694488Y-167137676D01*
X119696811Y-167132694D01*
X119696814Y-167132689D01*
X119745805Y-167027627D01*
X119792723Y-166974342D01*
X119861000Y-166954881D01*
X119928960Y-166975423D01*
X119974195Y-167027627D01*
X120023186Y-167132689D01*
X120023189Y-167132694D01*
X120025512Y-167137676D01*
X120028668Y-167142183D01*
X120028669Y-167142185D01*
X120065107Y-167194223D01*
X120153023Y-167319781D01*
X120310219Y-167476977D01*
X120314727Y-167480134D01*
X120314730Y-167480136D01*
X120327735Y-167489242D01*
X120492323Y-167604488D01*
X120497305Y-167606811D01*
X120497310Y-167606814D01*
X120625604Y-167666638D01*
X120693804Y-167698440D01*
X120699112Y-167699862D01*
X120699114Y-167699863D01*
X120704716Y-167701364D01*
X120908537Y-167755978D01*
X121130000Y-167775353D01*
X121351463Y-167755978D01*
X121555284Y-167701364D01*
X121560886Y-167699863D01*
X121560888Y-167699862D01*
X121566196Y-167698440D01*
X121634396Y-167666638D01*
X121762690Y-167606814D01*
X121762695Y-167606811D01*
X121767677Y-167604488D01*
X121832959Y-167558777D01*
X122975777Y-167558777D01*
X122985074Y-167570793D01*
X123028069Y-167600898D01*
X123037555Y-167606376D01*
X123228993Y-167695645D01*
X123239285Y-167699391D01*
X123443309Y-167754059D01*
X123454104Y-167755962D01*
X123664525Y-167774372D01*
X123675475Y-167774372D01*
X123885896Y-167755962D01*
X123896691Y-167754059D01*
X124100715Y-167699391D01*
X124111007Y-167695645D01*
X124302445Y-167606376D01*
X124311931Y-167600898D01*
X124355764Y-167570207D01*
X124364139Y-167559729D01*
X124357071Y-167546281D01*
X123682812Y-166872022D01*
X123668868Y-166864408D01*
X123667035Y-166864539D01*
X123660420Y-166868790D01*
X122982207Y-167547003D01*
X122975777Y-167558777D01*
X121832959Y-167558777D01*
X121932265Y-167489242D01*
X121945270Y-167480136D01*
X121945273Y-167480134D01*
X121949781Y-167476977D01*
X122106977Y-167319781D01*
X122194894Y-167194223D01*
X122231331Y-167142185D01*
X122231332Y-167142183D01*
X122234488Y-167137676D01*
X122236811Y-167132694D01*
X122236814Y-167132689D01*
X122286081Y-167027035D01*
X122332999Y-166973750D01*
X122401276Y-166954289D01*
X122469236Y-166974831D01*
X122514471Y-167027035D01*
X122563623Y-167132441D01*
X122569103Y-167141932D01*
X122599794Y-167185765D01*
X122610271Y-167194140D01*
X122623718Y-167187072D01*
X123297978Y-166512812D01*
X123304356Y-166501132D01*
X124034408Y-166501132D01*
X124034539Y-166502965D01*
X124038790Y-166509580D01*
X124717003Y-167187793D01*
X124728777Y-167194223D01*
X124740793Y-167184926D01*
X124770897Y-167141932D01*
X124776377Y-167132441D01*
X124825529Y-167027035D01*
X124872447Y-166973750D01*
X124940724Y-166954289D01*
X125008684Y-166974831D01*
X125053919Y-167027035D01*
X125103186Y-167132689D01*
X125103189Y-167132694D01*
X125105512Y-167137676D01*
X125108668Y-167142183D01*
X125108669Y-167142185D01*
X125145107Y-167194223D01*
X125233023Y-167319781D01*
X125390219Y-167476977D01*
X125394727Y-167480134D01*
X125394730Y-167480136D01*
X125407735Y-167489242D01*
X125572323Y-167604488D01*
X125577305Y-167606811D01*
X125577310Y-167606814D01*
X125705604Y-167666638D01*
X125773804Y-167698440D01*
X125779112Y-167699862D01*
X125779114Y-167699863D01*
X125784716Y-167701364D01*
X125988537Y-167755978D01*
X126210000Y-167775353D01*
X126431463Y-167755978D01*
X126635284Y-167701364D01*
X126640886Y-167699863D01*
X126640888Y-167699862D01*
X126646196Y-167698440D01*
X126714396Y-167666638D01*
X126842690Y-167606814D01*
X126842695Y-167606811D01*
X126847677Y-167604488D01*
X127012265Y-167489242D01*
X127025270Y-167480136D01*
X127025273Y-167480134D01*
X127029781Y-167476977D01*
X127186977Y-167319781D01*
X127274894Y-167194223D01*
X127311331Y-167142185D01*
X127311332Y-167142183D01*
X127314488Y-167137676D01*
X127316811Y-167132694D01*
X127316814Y-167132689D01*
X127406117Y-166941178D01*
X127406118Y-166941177D01*
X127408440Y-166936196D01*
X127465978Y-166721463D01*
X127485353Y-166500000D01*
X127465978Y-166278537D01*
X127408440Y-166063804D01*
X127373226Y-165988287D01*
X127316814Y-165867311D01*
X127316811Y-165867306D01*
X127314488Y-165862324D01*
X127286742Y-165822698D01*
X127190136Y-165684730D01*
X127190134Y-165684727D01*
X127186977Y-165680219D01*
X127029781Y-165523023D01*
X127025273Y-165519866D01*
X127025270Y-165519864D01*
X126949505Y-165466813D01*
X126847677Y-165395512D01*
X126842695Y-165393189D01*
X126842690Y-165393186D01*
X126651178Y-165303883D01*
X126651177Y-165303882D01*
X126646196Y-165301560D01*
X126640888Y-165300138D01*
X126640886Y-165300137D01*
X126575051Y-165282497D01*
X126431463Y-165244022D01*
X126210000Y-165224647D01*
X125988537Y-165244022D01*
X125844949Y-165282497D01*
X125779114Y-165300137D01*
X125779112Y-165300138D01*
X125773804Y-165301560D01*
X125768823Y-165303882D01*
X125768822Y-165303883D01*
X125577311Y-165393186D01*
X125577306Y-165393189D01*
X125572324Y-165395512D01*
X125567817Y-165398668D01*
X125567815Y-165398669D01*
X125394730Y-165519864D01*
X125394727Y-165519866D01*
X125390219Y-165523023D01*
X125233023Y-165680219D01*
X125229866Y-165684727D01*
X125229864Y-165684730D01*
X125133258Y-165822698D01*
X125105512Y-165862324D01*
X125103189Y-165867306D01*
X125103186Y-165867311D01*
X125053919Y-165972965D01*
X125007001Y-166026250D01*
X124938724Y-166045711D01*
X124870764Y-166025169D01*
X124825529Y-165972965D01*
X124776377Y-165867559D01*
X124770897Y-165858068D01*
X124740206Y-165814235D01*
X124729729Y-165805860D01*
X124716282Y-165812928D01*
X124042022Y-166487188D01*
X124034408Y-166501132D01*
X123304356Y-166501132D01*
X123305592Y-166498868D01*
X123305461Y-166497035D01*
X123301210Y-166490420D01*
X122622997Y-165812207D01*
X122611223Y-165805777D01*
X122599207Y-165815074D01*
X122569103Y-165858068D01*
X122563623Y-165867559D01*
X122514471Y-165972965D01*
X122467553Y-166026250D01*
X122399276Y-166045711D01*
X122331316Y-166025169D01*
X122286081Y-165972965D01*
X122236814Y-165867311D01*
X122236811Y-165867306D01*
X122234488Y-165862324D01*
X122206742Y-165822698D01*
X122110136Y-165684730D01*
X122110134Y-165684727D01*
X122106977Y-165680219D01*
X121949781Y-165523023D01*
X121945273Y-165519866D01*
X121945270Y-165519864D01*
X121869505Y-165466813D01*
X121831599Y-165440271D01*
X122975860Y-165440271D01*
X122982928Y-165453718D01*
X123657188Y-166127978D01*
X123671132Y-166135592D01*
X123672965Y-166135461D01*
X123679580Y-166131210D01*
X124357793Y-165452997D01*
X124364223Y-165441223D01*
X124354926Y-165429207D01*
X124311931Y-165399102D01*
X124302445Y-165393624D01*
X124111007Y-165304355D01*
X124100715Y-165300609D01*
X123896691Y-165245941D01*
X123885896Y-165244038D01*
X123675475Y-165225628D01*
X123664525Y-165225628D01*
X123454104Y-165244038D01*
X123443309Y-165245941D01*
X123239285Y-165300609D01*
X123228993Y-165304355D01*
X123037559Y-165393623D01*
X123028068Y-165399103D01*
X122984235Y-165429794D01*
X122975860Y-165440271D01*
X121831599Y-165440271D01*
X121767677Y-165395512D01*
X121762695Y-165393189D01*
X121762690Y-165393186D01*
X121571178Y-165303883D01*
X121571177Y-165303882D01*
X121566196Y-165301560D01*
X121560888Y-165300138D01*
X121560886Y-165300137D01*
X121495051Y-165282497D01*
X121351463Y-165244022D01*
X121130000Y-165224647D01*
X120908537Y-165244022D01*
X120764949Y-165282497D01*
X120699114Y-165300137D01*
X120699112Y-165300138D01*
X120693804Y-165301560D01*
X120688823Y-165303882D01*
X120688822Y-165303883D01*
X120497311Y-165393186D01*
X120497306Y-165393189D01*
X120492324Y-165395512D01*
X120487817Y-165398668D01*
X120487815Y-165398669D01*
X120314730Y-165519864D01*
X120314727Y-165519866D01*
X120310219Y-165523023D01*
X120153023Y-165680219D01*
X120149866Y-165684727D01*
X120149864Y-165684730D01*
X120053258Y-165822698D01*
X120025512Y-165862324D01*
X120023189Y-165867306D01*
X120023186Y-165867311D01*
X119974195Y-165972373D01*
X119927277Y-166025658D01*
X119859000Y-166045119D01*
X119791040Y-166024577D01*
X119745805Y-165972373D01*
X119696814Y-165867311D01*
X119696811Y-165867306D01*
X119694488Y-165862324D01*
X119666742Y-165822698D01*
X119570136Y-165684730D01*
X119570134Y-165684727D01*
X119566977Y-165680219D01*
X119409781Y-165523023D01*
X119405273Y-165519866D01*
X119405270Y-165519864D01*
X119329505Y-165466813D01*
X119227677Y-165395512D01*
X119222695Y-165393189D01*
X119222690Y-165393186D01*
X119031178Y-165303883D01*
X119031177Y-165303882D01*
X119026196Y-165301560D01*
X119020888Y-165300138D01*
X119020886Y-165300137D01*
X118955051Y-165282497D01*
X118811463Y-165244022D01*
X118590000Y-165224647D01*
X118368537Y-165244022D01*
X118224949Y-165282497D01*
X118159114Y-165300137D01*
X118159112Y-165300138D01*
X118153804Y-165301560D01*
X118148823Y-165303882D01*
X118148822Y-165303883D01*
X117957311Y-165393186D01*
X117957306Y-165393189D01*
X117952324Y-165395512D01*
X117947817Y-165398668D01*
X117947815Y-165398669D01*
X117774730Y-165519864D01*
X117774727Y-165519866D01*
X117770219Y-165523023D01*
X117613023Y-165680219D01*
X117609866Y-165684727D01*
X117609864Y-165684730D01*
X117513258Y-165822698D01*
X117485512Y-165862324D01*
X117483189Y-165867306D01*
X117483186Y-165867311D01*
X117426774Y-165988287D01*
X117391560Y-166063804D01*
X117334022Y-166278537D01*
X117314647Y-166500000D01*
X113154692Y-166500000D01*
X113163040Y-166436590D01*
X113164667Y-166370000D01*
X113146363Y-166147361D01*
X113091942Y-165930702D01*
X113002865Y-165725840D01*
X112963417Y-165664862D01*
X112884333Y-165542617D01*
X112884331Y-165542614D01*
X112881525Y-165538277D01*
X112731181Y-165373051D01*
X112727130Y-165369852D01*
X112727126Y-165369848D01*
X112559925Y-165237800D01*
X112559921Y-165237798D01*
X112555870Y-165234598D01*
X112514564Y-165211796D01*
X112464595Y-165161364D01*
X112449823Y-165091921D01*
X112474939Y-165025516D01*
X112502291Y-164998909D01*
X112546114Y-164967650D01*
X112681371Y-164871173D01*
X112839607Y-164713489D01*
X112845686Y-164705030D01*
X112966946Y-164536277D01*
X112969964Y-164532077D01*
X112982135Y-164507452D01*
X113066647Y-164336453D01*
X113066648Y-164336451D01*
X113068941Y-164331811D01*
X113133881Y-164118069D01*
X113163040Y-163896590D01*
X113164667Y-163830000D01*
X113146363Y-163607361D01*
X113118436Y-163496180D01*
X134441012Y-163496180D01*
X134441382Y-163503001D01*
X134446906Y-163553863D01*
X134450532Y-163569115D01*
X134495687Y-163689565D01*
X134504225Y-163705160D01*
X134580726Y-163807235D01*
X134593287Y-163819796D01*
X134695362Y-163896297D01*
X134710957Y-163904835D01*
X134831405Y-163949989D01*
X134846660Y-163953616D01*
X134897525Y-163959142D01*
X134904339Y-163959511D01*
X136176896Y-163959511D01*
X136192135Y-163955036D01*
X136193340Y-163953646D01*
X136195011Y-163945963D01*
X136195011Y-163941395D01*
X136703011Y-163941395D01*
X136707486Y-163956634D01*
X136708876Y-163957839D01*
X136716559Y-163959510D01*
X137993680Y-163959510D01*
X138000501Y-163959140D01*
X138051363Y-163953616D01*
X138066615Y-163949990D01*
X138187065Y-163904835D01*
X138202660Y-163896297D01*
X138304735Y-163819796D01*
X138317296Y-163807235D01*
X138393797Y-163705160D01*
X138402335Y-163689565D01*
X138447489Y-163569117D01*
X138451116Y-163553862D01*
X138456642Y-163502997D01*
X138457011Y-163496183D01*
X138457011Y-162223626D01*
X138452536Y-162208387D01*
X138451146Y-162207182D01*
X138443463Y-162205511D01*
X136721126Y-162205511D01*
X136705887Y-162209986D01*
X136704682Y-162211376D01*
X136703011Y-162219059D01*
X136703011Y-163941395D01*
X136195011Y-163941395D01*
X136195011Y-162223626D01*
X136190536Y-162208387D01*
X136189146Y-162207182D01*
X136181463Y-162205511D01*
X134459127Y-162205511D01*
X134443888Y-162209986D01*
X134442683Y-162211376D01*
X134441012Y-162219059D01*
X134441012Y-163496180D01*
X113118436Y-163496180D01*
X113091942Y-163390702D01*
X113002865Y-163185840D01*
X112881525Y-162998277D01*
X112731181Y-162833051D01*
X112727130Y-162829852D01*
X112727126Y-162829848D01*
X112559925Y-162697800D01*
X112559921Y-162697798D01*
X112555870Y-162694598D01*
X112514564Y-162671796D01*
X112464595Y-162621364D01*
X112449823Y-162551921D01*
X112474939Y-162485516D01*
X112502291Y-162458909D01*
X112546114Y-162427650D01*
X112681371Y-162331173D01*
X112839607Y-162173489D01*
X112969964Y-161992077D01*
X112990831Y-161949857D01*
X113066647Y-161796453D01*
X113066648Y-161796451D01*
X113068941Y-161791811D01*
X113103095Y-161679396D01*
X134441011Y-161679396D01*
X134445486Y-161694635D01*
X134446876Y-161695840D01*
X134454559Y-161697511D01*
X136176896Y-161697511D01*
X136192135Y-161693036D01*
X136193340Y-161691646D01*
X136195011Y-161683963D01*
X136195011Y-161679396D01*
X136703011Y-161679396D01*
X136707486Y-161694635D01*
X136708876Y-161695840D01*
X136716559Y-161697511D01*
X138438895Y-161697511D01*
X138454134Y-161693036D01*
X138455339Y-161691646D01*
X138457010Y-161683963D01*
X138457010Y-160406842D01*
X138456640Y-160400021D01*
X138451116Y-160349159D01*
X138447490Y-160333907D01*
X138402335Y-160213457D01*
X138393797Y-160197862D01*
X138317296Y-160095787D01*
X138304735Y-160083226D01*
X138202660Y-160006725D01*
X138187065Y-159998187D01*
X138066617Y-159953033D01*
X138051362Y-159949406D01*
X138000497Y-159943880D01*
X137993683Y-159943511D01*
X136721126Y-159943511D01*
X136705887Y-159947986D01*
X136704682Y-159949376D01*
X136703011Y-159957059D01*
X136703011Y-161679396D01*
X136195011Y-161679396D01*
X136195011Y-159961627D01*
X136190536Y-159946388D01*
X136189146Y-159945183D01*
X136181463Y-159943512D01*
X134904342Y-159943512D01*
X134897521Y-159943882D01*
X134846659Y-159949406D01*
X134831407Y-159953032D01*
X134710957Y-159998187D01*
X134695362Y-160006725D01*
X134593287Y-160083226D01*
X134580726Y-160095787D01*
X134504225Y-160197862D01*
X134495687Y-160213457D01*
X134450533Y-160333905D01*
X134446906Y-160349160D01*
X134441380Y-160400025D01*
X134441011Y-160406839D01*
X134441011Y-161679396D01*
X113103095Y-161679396D01*
X113133881Y-161578069D01*
X113163040Y-161356590D01*
X113163468Y-161339069D01*
X113164585Y-161293365D01*
X113164585Y-161293361D01*
X113164667Y-161290000D01*
X113146363Y-161067361D01*
X113091942Y-160850702D01*
X113002865Y-160645840D01*
X112881525Y-160458277D01*
X112731181Y-160293051D01*
X112727130Y-160289852D01*
X112727126Y-160289848D01*
X112559925Y-160157800D01*
X112559921Y-160157798D01*
X112555870Y-160154598D01*
X112360300Y-160046638D01*
X112355431Y-160044914D01*
X112355427Y-160044912D01*
X112154598Y-159973795D01*
X112154594Y-159973794D01*
X112149723Y-159972069D01*
X112144630Y-159971162D01*
X112144627Y-159971161D01*
X111934884Y-159933800D01*
X111934878Y-159933799D01*
X111929795Y-159932894D01*
X111855963Y-159931992D01*
X111711592Y-159930228D01*
X111711590Y-159930228D01*
X111706422Y-159930165D01*
X111485602Y-159963955D01*
X111273267Y-160033357D01*
X111075118Y-160136507D01*
X111070985Y-160139610D01*
X111070982Y-160139612D01*
X110972630Y-160213457D01*
X110896476Y-160270635D01*
X110875055Y-160293051D01*
X110770748Y-160402202D01*
X110742140Y-160432138D01*
X110634712Y-160589621D01*
X110579804Y-160634621D01*
X110509279Y-160642792D01*
X110445532Y-160611538D01*
X110424835Y-160587054D01*
X110344333Y-160462617D01*
X110344331Y-160462614D01*
X110341525Y-160458277D01*
X110191181Y-160293051D01*
X110187130Y-160289852D01*
X110187126Y-160289848D01*
X110019925Y-160157800D01*
X110019921Y-160157798D01*
X110015870Y-160154598D01*
X109820300Y-160046638D01*
X109815431Y-160044914D01*
X109815427Y-160044912D01*
X109614598Y-159973795D01*
X109614594Y-159973794D01*
X109609723Y-159972069D01*
X109604630Y-159971162D01*
X109604627Y-159971161D01*
X109394884Y-159933800D01*
X109394878Y-159933799D01*
X109389795Y-159932894D01*
X109315963Y-159931992D01*
X109171592Y-159930228D01*
X109171590Y-159930228D01*
X109166422Y-159930165D01*
X108945602Y-159963955D01*
X108733267Y-160033357D01*
X108535118Y-160136507D01*
X108530985Y-160139610D01*
X108530982Y-160139612D01*
X108432630Y-160213457D01*
X108356476Y-160270635D01*
X108335055Y-160293051D01*
X108264605Y-160366772D01*
X108203080Y-160402202D01*
X108132168Y-160398745D01*
X108074382Y-160357499D01*
X108048068Y-160291558D01*
X108047511Y-160279721D01*
X108047511Y-152112388D01*
X108064391Y-152049389D01*
X108073538Y-152033547D01*
X108132553Y-151851919D01*
X108152515Y-151661991D01*
X108132553Y-151472063D01*
X108073538Y-151290435D01*
X108068910Y-151282418D01*
X108021150Y-151199696D01*
X107978051Y-151125047D01*
X107962417Y-151107683D01*
X107854686Y-150988036D01*
X107854685Y-150988035D01*
X107850264Y-150983125D01*
X107695763Y-150870873D01*
X107689735Y-150868189D01*
X107689733Y-150868188D01*
X107527330Y-150795882D01*
X107527329Y-150795882D01*
X107521299Y-150793197D01*
X107427898Y-150773344D01*
X107340955Y-150754863D01*
X107340950Y-150754863D01*
X107334498Y-150753491D01*
X107143524Y-150753491D01*
X107137072Y-150754863D01*
X107137067Y-150754863D01*
X107050124Y-150773344D01*
X106956723Y-150793197D01*
X106950693Y-150795882D01*
X106950692Y-150795882D01*
X106788289Y-150868188D01*
X106788287Y-150868189D01*
X106782259Y-150870873D01*
X106627758Y-150983125D01*
X106499971Y-151125047D01*
X106498302Y-151127938D01*
X106443041Y-151170552D01*
X106372304Y-151176628D01*
X106309512Y-151143496D01*
X106274601Y-151081676D01*
X106271326Y-151053137D01*
X106271326Y-147463356D01*
X106291328Y-147395235D01*
X106308231Y-147374261D01*
X107116128Y-146566364D01*
X111558988Y-146566364D01*
X111564269Y-146573418D01*
X111725767Y-146667790D01*
X111735053Y-146672240D01*
X111934012Y-146748214D01*
X111943910Y-146751090D01*
X112152606Y-146793549D01*
X112162834Y-146794768D01*
X112375661Y-146802573D01*
X112385947Y-146802106D01*
X112597196Y-146775045D01*
X112607273Y-146772903D01*
X112811266Y-146711702D01*
X112820853Y-146707944D01*
X113012109Y-146614249D01*
X113020955Y-146608976D01*
X113068258Y-146575234D01*
X113076659Y-146564534D01*
X113069671Y-146551381D01*
X112331823Y-145813533D01*
X112317879Y-145805919D01*
X112316046Y-145806050D01*
X112309431Y-145810301D01*
X111565748Y-146553984D01*
X111558988Y-146566364D01*
X107116128Y-146566364D01*
X108269118Y-145413374D01*
X110957061Y-145413374D01*
X110969320Y-145625988D01*
X110970756Y-145636208D01*
X111017576Y-145843957D01*
X111020656Y-145853786D01*
X111100781Y-146051114D01*
X111105424Y-146060305D01*
X111185471Y-146190931D01*
X111195927Y-146200391D01*
X111204705Y-146196607D01*
X111946989Y-145454323D01*
X111954603Y-145440379D01*
X111954472Y-145438546D01*
X111950221Y-145431931D01*
X111208860Y-144690570D01*
X111197324Y-144684270D01*
X111185042Y-144693893D01*
X111137100Y-144764173D01*
X111132015Y-144773124D01*
X111042349Y-144966294D01*
X111038786Y-144975981D01*
X110981875Y-145181192D01*
X110979944Y-145191311D01*
X110957313Y-145403085D01*
X110957061Y-145413374D01*
X108269118Y-145413374D01*
X110749812Y-142932681D01*
X110812124Y-142898655D01*
X110882939Y-142903720D01*
X110939775Y-142946267D01*
X110964698Y-143014522D01*
X110965206Y-143023333D01*
X110969121Y-143091226D01*
X110970258Y-143096272D01*
X110970259Y-143096278D01*
X110977473Y-143128287D01*
X111018233Y-143309150D01*
X111102277Y-143516127D01*
X111153030Y-143598949D01*
X111216302Y-143702199D01*
X111218998Y-143706599D01*
X111365261Y-143875449D01*
X111537137Y-144018143D01*
X111610966Y-144061285D01*
X111659690Y-144112923D01*
X111672761Y-144182706D01*
X111646030Y-144248478D01*
X111605573Y-144281838D01*
X111597471Y-144286055D01*
X111588745Y-144291550D01*
X111568688Y-144306610D01*
X111560234Y-144317938D01*
X111566979Y-144330269D01*
X112306199Y-145069489D01*
X112320143Y-145077103D01*
X112321976Y-145076972D01*
X112328591Y-145072721D01*
X113072400Y-144328912D01*
X113079421Y-144316055D01*
X113072622Y-144306724D01*
X113068570Y-144304032D01*
X113031613Y-144283631D01*
X112981642Y-144233198D01*
X112966870Y-144163756D01*
X112991986Y-144097350D01*
X113019338Y-144070743D01*
X113075276Y-144030843D01*
X113198871Y-143942684D01*
X113207589Y-143933997D01*
X113329831Y-143812181D01*
X113357107Y-143785000D01*
X113388228Y-143741691D01*
X113487464Y-143603588D01*
X113488787Y-143604539D01*
X113535656Y-143561368D01*
X113605591Y-143549136D01*
X113671037Y-143576655D01*
X113698886Y-143608505D01*
X113758998Y-143706599D01*
X113905261Y-143875449D01*
X113975783Y-143933997D01*
X114015419Y-143992900D01*
X114016917Y-144063881D01*
X113979803Y-144124404D01*
X113948750Y-144145043D01*
X113929051Y-144154271D01*
X113791204Y-144239574D01*
X113779803Y-144248610D01*
X113665272Y-144363340D01*
X113656260Y-144374751D01*
X113571195Y-144512754D01*
X113565047Y-144525937D01*
X113542869Y-144592802D01*
X113502438Y-144651162D01*
X113475962Y-144667591D01*
X113431823Y-144687909D01*
X112691033Y-145428699D01*
X112683419Y-145442643D01*
X112683550Y-145444476D01*
X112687801Y-145451091D01*
X113429485Y-146192775D01*
X113469552Y-146214654D01*
X113483113Y-146217604D01*
X113533315Y-146267806D01*
X113542252Y-146288316D01*
X113565599Y-146358295D01*
X113571772Y-146371473D01*
X113657074Y-146509318D01*
X113666110Y-146520719D01*
X113780840Y-146635250D01*
X113792251Y-146644262D01*
X113930254Y-146729327D01*
X113943435Y-146735474D01*
X114097721Y-146786649D01*
X114111097Y-146789516D01*
X114205449Y-146799183D01*
X114211865Y-146799511D01*
X114586896Y-146799511D01*
X114602135Y-146795036D01*
X114603340Y-146793646D01*
X114605011Y-146785963D01*
X114605011Y-146781395D01*
X115113011Y-146781395D01*
X115117486Y-146796634D01*
X115118876Y-146797839D01*
X115126559Y-146799510D01*
X115506106Y-146799510D01*
X115512625Y-146799173D01*
X115608217Y-146789254D01*
X115621611Y-146786362D01*
X115775795Y-146734923D01*
X115788973Y-146728750D01*
X115926818Y-146643448D01*
X115938219Y-146634412D01*
X116052750Y-146519682D01*
X116061762Y-146508271D01*
X116146827Y-146370268D01*
X116152974Y-146357087D01*
X116204149Y-146202801D01*
X116207016Y-146189425D01*
X116216683Y-146095073D01*
X116217011Y-146088657D01*
X116217011Y-145713626D01*
X116212536Y-145698387D01*
X116211146Y-145697182D01*
X116203463Y-145695511D01*
X115131126Y-145695511D01*
X115115887Y-145699986D01*
X115114682Y-145701376D01*
X115113011Y-145709059D01*
X115113011Y-146781395D01*
X114605011Y-146781395D01*
X114605011Y-145313511D01*
X114625013Y-145245390D01*
X114678669Y-145198897D01*
X114731011Y-145187511D01*
X116198895Y-145187511D01*
X116214134Y-145183036D01*
X116215339Y-145181646D01*
X116217010Y-145173963D01*
X116217010Y-144794416D01*
X116216673Y-144787897D01*
X116206754Y-144692305D01*
X116203862Y-144678911D01*
X116152423Y-144524727D01*
X116146250Y-144511549D01*
X116060948Y-144373704D01*
X116051912Y-144362303D01*
X115937182Y-144247772D01*
X115925771Y-144238760D01*
X115787768Y-144153695D01*
X115773489Y-144147036D01*
X115720204Y-144100118D01*
X115700743Y-144031841D01*
X115721285Y-143963881D01*
X115739486Y-143943301D01*
X115738871Y-143942684D01*
X115791242Y-143890496D01*
X115897107Y-143785000D01*
X115928228Y-143741691D01*
X116024446Y-143607788D01*
X116027464Y-143603588D01*
X116048331Y-143561368D01*
X116124147Y-143407964D01*
X116124148Y-143407962D01*
X116126441Y-143403322D01*
X116191381Y-143189580D01*
X116220540Y-142968101D01*
X116220622Y-142964751D01*
X116222085Y-142904876D01*
X116222085Y-142904872D01*
X116222167Y-142901511D01*
X116203863Y-142678872D01*
X116149442Y-142462213D01*
X116060365Y-142257351D01*
X115939025Y-142069788D01*
X115788681Y-141904562D01*
X115784630Y-141901363D01*
X115784626Y-141901359D01*
X115617425Y-141769311D01*
X115617421Y-141769309D01*
X115613370Y-141766109D01*
X115572064Y-141743307D01*
X115522095Y-141692875D01*
X115507323Y-141623432D01*
X115532439Y-141557027D01*
X115559791Y-141530420D01*
X115603614Y-141499161D01*
X115738871Y-141402684D01*
X115897107Y-141245000D01*
X115960997Y-141156088D01*
X115985143Y-141122485D01*
X116041138Y-141078837D01*
X116087466Y-141070011D01*
X119666080Y-141070011D01*
X119734201Y-141090013D01*
X119755175Y-141106916D01*
X123063126Y-144414868D01*
X123097152Y-144477180D01*
X123100031Y-144503963D01*
X123100031Y-148370929D01*
X123080029Y-148439050D01*
X123026373Y-148485543D01*
X122956099Y-148495647D01*
X122936669Y-148491262D01*
X122851784Y-148464904D01*
X122846495Y-148464203D01*
X122628522Y-148435313D01*
X122628517Y-148435313D01*
X122623237Y-148434613D01*
X122617908Y-148434813D01*
X122617906Y-148434813D01*
X122519379Y-148438512D01*
X122392853Y-148443262D01*
X122387634Y-148444357D01*
X122367860Y-148448506D01*
X122167220Y-148490604D01*
X122162261Y-148492562D01*
X122162259Y-148492563D01*
X121957755Y-148573326D01*
X121957753Y-148573327D01*
X121952790Y-148575287D01*
X121948231Y-148578054D01*
X121948228Y-148578055D01*
X121858058Y-148632772D01*
X121755694Y-148694888D01*
X121751664Y-148698385D01*
X121623923Y-148809233D01*
X121581566Y-148845988D01*
X121578179Y-148850119D01*
X121438771Y-149020138D01*
X121438767Y-149020144D01*
X121435387Y-149024266D01*
X121432748Y-149028902D01*
X121432746Y-149028905D01*
X121373244Y-149133436D01*
X121321336Y-149224625D01*
X121242674Y-149441336D01*
X121241725Y-149446585D01*
X121241724Y-149446588D01*
X121202388Y-149664119D01*
X121202387Y-149664126D01*
X121201650Y-149668203D01*
X121200511Y-149692355D01*
X121200511Y-150004401D01*
X121200736Y-150007050D01*
X121213831Y-150161376D01*
X121215091Y-150176231D01*
X121216429Y-150181386D01*
X121216430Y-150181392D01*
X121255439Y-150331686D01*
X121273010Y-150399383D01*
X121367699Y-150609586D01*
X121496452Y-150800830D01*
X121500131Y-150804687D01*
X121500133Y-150804689D01*
X121563270Y-150870873D01*
X121655587Y-150967646D01*
X121659865Y-150970829D01*
X121676391Y-150983125D01*
X121840553Y-151105265D01*
X121845304Y-151107681D01*
X121845308Y-151107683D01*
X121907715Y-151139412D01*
X122046062Y-151209751D01*
X122051156Y-151211333D01*
X122051159Y-151211334D01*
X122219966Y-151263750D01*
X122266238Y-151278118D01*
X122271527Y-151278819D01*
X122489500Y-151307709D01*
X122489505Y-151307709D01*
X122494785Y-151308409D01*
X122500114Y-151308209D01*
X122500116Y-151308209D01*
X122609977Y-151304085D01*
X122725169Y-151299760D01*
X122730479Y-151298646D01*
X122948157Y-151252973D01*
X123018934Y-151258561D01*
X123075454Y-151301526D01*
X123099773Y-151368227D01*
X123100031Y-151376288D01*
X123100031Y-153926330D01*
X123080029Y-153994451D01*
X123063126Y-154015425D01*
X120231947Y-156846605D01*
X120169635Y-156880631D01*
X120131873Y-156883031D01*
X119939011Y-156866158D01*
X119717548Y-156885533D01*
X119612533Y-156913672D01*
X119508125Y-156941648D01*
X119508123Y-156941649D01*
X119502815Y-156943071D01*
X119497834Y-156945393D01*
X119497833Y-156945394D01*
X119306322Y-157034697D01*
X119306317Y-157034700D01*
X119301335Y-157037023D01*
X119296828Y-157040179D01*
X119296826Y-157040180D01*
X119123741Y-157161375D01*
X119123738Y-157161377D01*
X119119230Y-157164534D01*
X118962034Y-157321730D01*
X118958877Y-157326238D01*
X118958875Y-157326241D01*
X118837680Y-157499326D01*
X118834523Y-157503835D01*
X118832200Y-157508817D01*
X118832197Y-157508822D01*
X118749008Y-157687222D01*
X118740571Y-157705315D01*
X118683033Y-157920048D01*
X118663658Y-158141511D01*
X118683033Y-158362974D01*
X118740571Y-158577707D01*
X118742893Y-158582688D01*
X118742894Y-158582689D01*
X118832197Y-158774200D01*
X118832200Y-158774205D01*
X118834523Y-158779187D01*
X118837679Y-158783694D01*
X118837680Y-158783696D01*
X118906475Y-158881945D01*
X118962034Y-158961292D01*
X119119230Y-159118488D01*
X119123738Y-159121645D01*
X119123741Y-159121647D01*
X119199506Y-159174698D01*
X119301334Y-159245999D01*
X119306316Y-159248322D01*
X119306321Y-159248325D01*
X119387811Y-159286324D01*
X119502815Y-159339951D01*
X119508123Y-159341373D01*
X119508125Y-159341374D01*
X119537123Y-159349144D01*
X119717548Y-159397489D01*
X119939011Y-159416864D01*
X120160474Y-159397489D01*
X120340899Y-159349144D01*
X120369897Y-159341374D01*
X120369899Y-159341373D01*
X120375207Y-159339951D01*
X120490211Y-159286324D01*
X120571701Y-159248325D01*
X120571706Y-159248322D01*
X120576688Y-159245999D01*
X120678516Y-159174698D01*
X120754281Y-159121647D01*
X120754284Y-159121645D01*
X120758792Y-159118488D01*
X120915988Y-158961292D01*
X120971548Y-158881945D01*
X121040342Y-158783696D01*
X121040343Y-158783694D01*
X121043499Y-158779187D01*
X121045822Y-158774205D01*
X121045825Y-158774200D01*
X121094816Y-158669138D01*
X121141734Y-158615853D01*
X121210011Y-158596392D01*
X121277971Y-158616934D01*
X121323206Y-158669138D01*
X121372197Y-158774200D01*
X121372200Y-158774205D01*
X121374523Y-158779187D01*
X121377679Y-158783694D01*
X121377680Y-158783696D01*
X121446475Y-158881945D01*
X121502034Y-158961292D01*
X121540552Y-158999810D01*
X121574578Y-159062122D01*
X121569513Y-159132937D01*
X121540552Y-159178000D01*
X120782446Y-159936106D01*
X120720134Y-159970132D01*
X120693351Y-159973011D01*
X119384671Y-159973011D01*
X119316550Y-159953009D01*
X119295576Y-159936106D01*
X111794416Y-152434946D01*
X111760390Y-152372634D01*
X111757511Y-152345851D01*
X111757511Y-148600255D01*
X111777513Y-148532134D01*
X111781575Y-148526194D01*
X111783632Y-148523363D01*
X111788051Y-148518455D01*
X111803000Y-148492563D01*
X111880234Y-148358790D01*
X111880235Y-148358789D01*
X111883538Y-148353067D01*
X111942553Y-148171439D01*
X111962515Y-147981511D01*
X111942553Y-147791583D01*
X111883538Y-147609955D01*
X111788051Y-147444567D01*
X111660264Y-147302645D01*
X111505763Y-147190393D01*
X111499735Y-147187709D01*
X111499733Y-147187708D01*
X111337330Y-147115402D01*
X111337329Y-147115402D01*
X111331299Y-147112717D01*
X111237898Y-147092864D01*
X111150955Y-147074383D01*
X111150950Y-147074383D01*
X111144498Y-147073011D01*
X110953524Y-147073011D01*
X110947072Y-147074383D01*
X110947067Y-147074383D01*
X110860124Y-147092864D01*
X110766723Y-147112717D01*
X110760693Y-147115402D01*
X110760692Y-147115402D01*
X110598289Y-147187708D01*
X110598287Y-147187709D01*
X110592259Y-147190393D01*
X110437758Y-147302645D01*
X110309971Y-147444567D01*
X110214484Y-147609955D01*
X110155469Y-147791583D01*
X110135507Y-147981511D01*
X110155469Y-148171439D01*
X110214484Y-148353067D01*
X110217787Y-148358789D01*
X110217788Y-148358790D01*
X110295022Y-148492563D01*
X110309971Y-148518455D01*
X110314390Y-148523363D01*
X110316447Y-148526194D01*
X110340306Y-148593062D01*
X110340511Y-148600255D01*
X110340511Y-152662599D01*
X110340219Y-152671169D01*
X110336286Y-152728863D01*
X110337591Y-152736340D01*
X110337591Y-152736341D01*
X110347272Y-152791810D01*
X110348234Y-152798332D01*
X110355909Y-152861753D01*
X110358592Y-152868854D01*
X110359233Y-152871463D01*
X110363696Y-152887773D01*
X110364461Y-152890309D01*
X110365768Y-152897795D01*
X110368822Y-152904752D01*
X110391453Y-152956306D01*
X110393944Y-152962410D01*
X110416524Y-153022167D01*
X110420828Y-153028430D01*
X110422065Y-153030796D01*
X110430310Y-153045608D01*
X110431643Y-153047862D01*
X110434696Y-153054816D01*
X110439318Y-153060839D01*
X110473590Y-153105502D01*
X110477470Y-153110843D01*
X110509350Y-153157231D01*
X110509355Y-153157236D01*
X110513654Y-153163492D01*
X110519324Y-153168543D01*
X110519325Y-153168545D01*
X110560181Y-153204946D01*
X110565457Y-153209927D01*
X118517568Y-161162039D01*
X118523422Y-161168304D01*
X118561450Y-161211896D01*
X118613740Y-161248647D01*
X118618982Y-161252539D01*
X118669293Y-161291987D01*
X118676212Y-161295111D01*
X118678504Y-161296499D01*
X118693176Y-161304868D01*
X118695536Y-161306133D01*
X118701750Y-161310501D01*
X118708829Y-161313261D01*
X118708831Y-161313262D01*
X118761286Y-161333713D01*
X118767355Y-161336264D01*
X118825584Y-161362556D01*
X118833057Y-161363941D01*
X118835623Y-161364745D01*
X118851846Y-161369366D01*
X118854438Y-161370031D01*
X118861520Y-161372793D01*
X118869055Y-161373785D01*
X118924872Y-161381133D01*
X118931388Y-161382165D01*
X118969781Y-161389281D01*
X118994197Y-161393806D01*
X119001777Y-161393369D01*
X119001778Y-161393369D01*
X119056391Y-161390220D01*
X119063644Y-161390011D01*
X121010099Y-161390011D01*
X121018669Y-161390303D01*
X121068787Y-161393720D01*
X121068791Y-161393720D01*
X121076363Y-161394236D01*
X121083840Y-161392931D01*
X121083841Y-161392931D01*
X121110319Y-161388310D01*
X121139314Y-161383249D01*
X121145832Y-161382288D01*
X121209253Y-161374613D01*
X121216354Y-161371930D01*
X121218963Y-161371289D01*
X121235273Y-161366826D01*
X121237809Y-161366061D01*
X121245295Y-161364754D01*
X121303811Y-161339067D01*
X121309915Y-161336576D01*
X121362559Y-161316684D01*
X121362560Y-161316683D01*
X121369667Y-161313998D01*
X121375930Y-161309694D01*
X121378296Y-161308457D01*
X121393108Y-161300212D01*
X121395362Y-161298879D01*
X121402316Y-161295826D01*
X121453013Y-161256924D01*
X121458343Y-161253052D01*
X121504731Y-161221172D01*
X121504736Y-161221167D01*
X121510992Y-161216868D01*
X121552447Y-161170340D01*
X121557427Y-161165065D01*
X122959531Y-159762961D01*
X122965796Y-159757107D01*
X123003671Y-159724066D01*
X123009396Y-159719072D01*
X123046125Y-159666811D01*
X123050057Y-159661516D01*
X123084802Y-159617205D01*
X123089488Y-159611229D01*
X123092613Y-159604307D01*
X123093975Y-159602059D01*
X123102379Y-159587326D01*
X123103633Y-159584987D01*
X123108001Y-159578772D01*
X123110760Y-159571696D01*
X123110762Y-159571692D01*
X123131213Y-159519237D01*
X123133769Y-159513157D01*
X123156929Y-159461862D01*
X123160056Y-159454937D01*
X123161440Y-159447466D01*
X123162241Y-159444912D01*
X123166878Y-159428633D01*
X123167534Y-159426078D01*
X123170293Y-159419002D01*
X123178632Y-159355660D01*
X123179664Y-159349144D01*
X123189923Y-159293791D01*
X123191307Y-159286324D01*
X123190222Y-159267499D01*
X123205819Y-159200288D01*
X124324788Y-159200288D01*
X124334085Y-159212304D01*
X124377080Y-159242409D01*
X124386566Y-159247887D01*
X124578004Y-159337156D01*
X124588296Y-159340902D01*
X124792320Y-159395570D01*
X124803115Y-159397473D01*
X125013536Y-159415883D01*
X125024486Y-159415883D01*
X125234907Y-159397473D01*
X125245702Y-159395570D01*
X125449726Y-159340902D01*
X125460018Y-159337156D01*
X125651456Y-159247887D01*
X125660942Y-159242409D01*
X125704775Y-159211718D01*
X125713150Y-159201240D01*
X125706082Y-159187792D01*
X125031823Y-158513533D01*
X125017879Y-158505919D01*
X125016046Y-158506050D01*
X125009431Y-158510301D01*
X124331218Y-159188514D01*
X124324788Y-159200288D01*
X123205819Y-159200288D01*
X123206271Y-159198340D01*
X123243742Y-159157035D01*
X123294281Y-159121647D01*
X123294284Y-159121645D01*
X123298792Y-159118488D01*
X123455988Y-158961292D01*
X123511548Y-158881945D01*
X123580342Y-158783696D01*
X123580343Y-158783694D01*
X123583499Y-158779187D01*
X123585822Y-158774205D01*
X123585825Y-158774200D01*
X123635092Y-158668546D01*
X123682010Y-158615261D01*
X123750287Y-158595800D01*
X123818247Y-158616342D01*
X123863482Y-158668546D01*
X123912634Y-158773952D01*
X123918114Y-158783443D01*
X123948805Y-158827276D01*
X123959282Y-158835651D01*
X123972729Y-158828583D01*
X124646989Y-158154323D01*
X124653367Y-158142643D01*
X125383419Y-158142643D01*
X125383550Y-158144476D01*
X125387801Y-158151091D01*
X126066014Y-158829304D01*
X126077788Y-158835734D01*
X126089804Y-158826437D01*
X126119908Y-158783443D01*
X126125388Y-158773952D01*
X126214656Y-158582518D01*
X126218402Y-158572226D01*
X126273070Y-158368202D01*
X126274973Y-158357407D01*
X126293383Y-158146986D01*
X126293383Y-158136036D01*
X126274973Y-157925615D01*
X126273070Y-157914820D01*
X126218402Y-157710796D01*
X126214656Y-157700504D01*
X126125388Y-157509070D01*
X126119908Y-157499579D01*
X126089217Y-157455746D01*
X126078740Y-157447371D01*
X126065293Y-157454439D01*
X125391033Y-158128699D01*
X125383419Y-158142643D01*
X124653367Y-158142643D01*
X124654603Y-158140379D01*
X124654472Y-158138546D01*
X124650221Y-158131931D01*
X123972008Y-157453718D01*
X123960234Y-157447288D01*
X123948218Y-157456585D01*
X123918114Y-157499579D01*
X123912634Y-157509070D01*
X123863482Y-157614476D01*
X123816564Y-157667761D01*
X123748287Y-157687222D01*
X123680327Y-157666680D01*
X123635092Y-157614476D01*
X123585825Y-157508822D01*
X123585822Y-157508817D01*
X123583499Y-157503835D01*
X123580342Y-157499326D01*
X123459147Y-157326241D01*
X123459145Y-157326238D01*
X123455988Y-157321730D01*
X123298792Y-157164534D01*
X123294284Y-157161377D01*
X123294281Y-157161375D01*
X123204060Y-157098202D01*
X123180610Y-157081782D01*
X124324871Y-157081782D01*
X124331939Y-157095229D01*
X125006199Y-157769489D01*
X125020143Y-157777103D01*
X125021976Y-157776972D01*
X125028591Y-157772721D01*
X125706804Y-157094508D01*
X125713234Y-157082734D01*
X125703937Y-157070718D01*
X125660942Y-157040613D01*
X125651456Y-157035135D01*
X125460018Y-156945866D01*
X125449726Y-156942120D01*
X125245702Y-156887452D01*
X125234907Y-156885549D01*
X125024486Y-156867139D01*
X125013536Y-156867139D01*
X124803115Y-156885549D01*
X124792320Y-156887452D01*
X124588296Y-156942120D01*
X124578004Y-156945866D01*
X124386570Y-157035134D01*
X124377079Y-157040614D01*
X124333246Y-157071305D01*
X124324871Y-157081782D01*
X123180610Y-157081782D01*
X123116688Y-157037023D01*
X123111706Y-157034700D01*
X123111701Y-157034697D01*
X122920189Y-156945394D01*
X122920188Y-156945393D01*
X122915207Y-156943071D01*
X122909899Y-156941649D01*
X122909897Y-156941648D01*
X122805489Y-156913672D01*
X122700474Y-156885533D01*
X122506645Y-156868576D01*
X122460253Y-156850429D01*
X134435928Y-156850429D01*
X134451693Y-157123831D01*
X134452518Y-157128036D01*
X134452519Y-157128044D01*
X134473709Y-157236050D01*
X134504416Y-157392564D01*
X134505803Y-157396614D01*
X134505804Y-157396619D01*
X134591734Y-157647599D01*
X134593123Y-157651655D01*
X134716171Y-157896310D01*
X134718597Y-157899839D01*
X134718600Y-157899845D01*
X134833591Y-158067156D01*
X134871285Y-158122001D01*
X134874172Y-158125174D01*
X134874173Y-158125175D01*
X134912676Y-158167489D01*
X135055593Y-158324554D01*
X135265686Y-158500218D01*
X135269327Y-158502502D01*
X135494035Y-158643462D01*
X135494039Y-158643464D01*
X135497675Y-158645745D01*
X135565555Y-158676394D01*
X135743356Y-158756675D01*
X135743360Y-158756677D01*
X135747268Y-158758441D01*
X135751388Y-158759661D01*
X135751387Y-158759661D01*
X136005734Y-158835002D01*
X136005738Y-158835003D01*
X136009847Y-158836220D01*
X136014081Y-158836868D01*
X136014086Y-158836869D01*
X136276309Y-158876994D01*
X136276311Y-158876994D01*
X136280551Y-158877643D01*
X136419923Y-158879833D01*
X136550082Y-158881878D01*
X136550088Y-158881878D01*
X136554373Y-158881945D01*
X136826246Y-158849045D01*
X137091138Y-158779552D01*
X137095098Y-158777912D01*
X137095103Y-158777910D01*
X137217643Y-158727152D01*
X137344147Y-158674752D01*
X137501694Y-158582689D01*
X137576890Y-158538748D01*
X137576891Y-158538747D01*
X137580593Y-158536584D01*
X137796100Y-158367605D01*
X137805898Y-158357495D01*
X137983697Y-158174020D01*
X137986680Y-158170942D01*
X137989213Y-158167494D01*
X137989217Y-158167489D01*
X138146268Y-157953689D01*
X138148806Y-157950234D01*
X138168034Y-157914820D01*
X138277429Y-157713341D01*
X138277430Y-157713339D01*
X138279479Y-157709565D01*
X138353587Y-157513443D01*
X138374762Y-157457406D01*
X138374763Y-157457402D01*
X138376280Y-157453388D01*
X138437418Y-157186444D01*
X138439374Y-157164534D01*
X138461542Y-156916138D01*
X138461542Y-156916136D01*
X138461762Y-156913672D01*
X138462204Y-156871511D01*
X138447486Y-156655615D01*
X138443870Y-156602566D01*
X138443869Y-156602560D01*
X138443578Y-156598289D01*
X138388043Y-156330123D01*
X138296628Y-156071976D01*
X138171024Y-155828623D01*
X138161051Y-155814432D01*
X138063333Y-155675394D01*
X138013556Y-155604568D01*
X137827136Y-155403956D01*
X137823821Y-155401242D01*
X137823817Y-155401239D01*
X137618534Y-155233217D01*
X137615216Y-155230501D01*
X137381715Y-155087412D01*
X137377779Y-155085684D01*
X137134884Y-154979060D01*
X137134880Y-154979059D01*
X137130956Y-154977336D01*
X136867577Y-154902311D01*
X136863335Y-154901707D01*
X136863329Y-154901706D01*
X136662845Y-154873173D01*
X136596454Y-154863724D01*
X136452600Y-154862971D01*
X136326888Y-154862313D01*
X136326882Y-154862313D01*
X136322602Y-154862291D01*
X136318358Y-154862850D01*
X136318354Y-154862850D01*
X136234019Y-154873953D01*
X136051089Y-154898036D01*
X136046949Y-154899169D01*
X136046947Y-154899169D01*
X136027223Y-154904565D01*
X135786939Y-154970299D01*
X135782991Y-154971983D01*
X135538993Y-155076057D01*
X135538989Y-155076059D01*
X135535041Y-155077743D01*
X135515136Y-155089656D01*
X135303736Y-155216175D01*
X135303732Y-155216178D01*
X135300054Y-155218379D01*
X135086329Y-155389605D01*
X135069728Y-155407099D01*
X134908873Y-155576605D01*
X134897819Y-155588253D01*
X134738013Y-155810647D01*
X134609868Y-156052672D01*
X134608396Y-156056695D01*
X134608394Y-156056699D01*
X134543571Y-156233835D01*
X134515754Y-156309848D01*
X134457415Y-156577418D01*
X134435928Y-156850429D01*
X122460253Y-156850429D01*
X122440528Y-156842713D01*
X122398888Y-156785209D01*
X122394947Y-156714322D01*
X122428532Y-156653960D01*
X124289051Y-154793441D01*
X124295316Y-154787587D01*
X124333191Y-154754546D01*
X124338916Y-154749552D01*
X124375645Y-154697291D01*
X124379577Y-154691996D01*
X124414322Y-154647685D01*
X124419008Y-154641709D01*
X124422133Y-154634787D01*
X124423495Y-154632539D01*
X124431899Y-154617806D01*
X124433153Y-154615467D01*
X124437521Y-154609252D01*
X124440280Y-154602176D01*
X124440282Y-154602172D01*
X124460731Y-154549722D01*
X124463280Y-154543657D01*
X124489576Y-154485418D01*
X124490960Y-154477953D01*
X124491757Y-154475409D01*
X124496390Y-154459143D01*
X124497052Y-154456563D01*
X124499813Y-154449482D01*
X124508153Y-154386134D01*
X124509184Y-154379620D01*
X124519443Y-154324269D01*
X124520827Y-154316804D01*
X124517240Y-154254593D01*
X124517031Y-154247340D01*
X124517031Y-151371795D01*
X124537033Y-151303674D01*
X124590689Y-151257181D01*
X124660963Y-151247077D01*
X124680394Y-151251463D01*
X124766238Y-151278118D01*
X124771527Y-151278819D01*
X124989500Y-151307709D01*
X124989505Y-151307709D01*
X124994785Y-151308409D01*
X125000114Y-151308209D01*
X125000116Y-151308209D01*
X125109977Y-151304085D01*
X125225169Y-151299760D01*
X125230479Y-151298646D01*
X125445583Y-151253513D01*
X125450802Y-151252418D01*
X125455761Y-151250460D01*
X125455763Y-151250459D01*
X125660267Y-151169696D01*
X125660269Y-151169695D01*
X125665232Y-151167735D01*
X125732037Y-151127197D01*
X125857768Y-151050901D01*
X125857767Y-151050901D01*
X125862328Y-151048134D01*
X125902504Y-151013271D01*
X126032423Y-150900534D01*
X126032425Y-150900532D01*
X126036456Y-150897034D01*
X126066017Y-150860982D01*
X126124677Y-150820987D01*
X126195647Y-150819056D01*
X126256395Y-150855801D01*
X126270595Y-150874570D01*
X126357074Y-151014318D01*
X126366110Y-151025719D01*
X126480840Y-151140250D01*
X126492251Y-151149262D01*
X126630254Y-151234327D01*
X126643435Y-151240474D01*
X126797721Y-151291649D01*
X126811097Y-151294516D01*
X126905449Y-151304183D01*
X126911865Y-151304511D01*
X127286896Y-151304511D01*
X127302135Y-151300036D01*
X127303340Y-151298646D01*
X127305011Y-151290963D01*
X127305011Y-151286395D01*
X127813011Y-151286395D01*
X127817486Y-151301634D01*
X127818876Y-151302839D01*
X127826559Y-151304510D01*
X128206106Y-151304510D01*
X128212625Y-151304173D01*
X128308217Y-151294254D01*
X128321611Y-151291362D01*
X128475795Y-151239923D01*
X128488973Y-151233750D01*
X128626818Y-151148448D01*
X128638219Y-151139412D01*
X128752750Y-151024682D01*
X128761762Y-151013271D01*
X128846827Y-150875268D01*
X128852974Y-150862087D01*
X128904149Y-150707801D01*
X128907016Y-150694425D01*
X128916683Y-150600073D01*
X128917011Y-150593657D01*
X128917011Y-150143626D01*
X128912536Y-150128387D01*
X128911146Y-150127182D01*
X128903463Y-150125511D01*
X127831126Y-150125511D01*
X127815887Y-150129986D01*
X127814682Y-150131376D01*
X127813011Y-150139059D01*
X127813011Y-151286395D01*
X127305011Y-151286395D01*
X127305011Y-149599396D01*
X127813011Y-149599396D01*
X127817486Y-149614635D01*
X127818876Y-149615840D01*
X127826559Y-149617511D01*
X128898895Y-149617511D01*
X128914134Y-149613036D01*
X128915339Y-149611646D01*
X128917010Y-149603963D01*
X128917010Y-149149416D01*
X128916673Y-149142897D01*
X128906754Y-149047305D01*
X128903862Y-149033911D01*
X128852423Y-148879727D01*
X128846250Y-148866549D01*
X128760948Y-148728704D01*
X128751912Y-148717303D01*
X128637182Y-148602772D01*
X128625771Y-148593760D01*
X128487768Y-148508695D01*
X128474587Y-148502548D01*
X128320301Y-148451373D01*
X128306925Y-148448506D01*
X128212573Y-148438839D01*
X128206156Y-148438511D01*
X127831126Y-148438511D01*
X127815887Y-148442986D01*
X127814682Y-148444376D01*
X127813011Y-148452059D01*
X127813011Y-149599396D01*
X127305011Y-149599396D01*
X127305011Y-148456627D01*
X127300536Y-148441388D01*
X127299146Y-148440183D01*
X127291463Y-148438512D01*
X126911916Y-148438512D01*
X126905397Y-148438849D01*
X126809805Y-148448768D01*
X126796411Y-148451660D01*
X126642227Y-148503099D01*
X126629049Y-148509272D01*
X126491204Y-148594574D01*
X126479803Y-148603610D01*
X126382684Y-148700898D01*
X126320401Y-148734977D01*
X126249581Y-148729974D01*
X126192708Y-148687477D01*
X126167840Y-148620978D01*
X126167511Y-148611880D01*
X126167511Y-148452856D01*
X126187513Y-148384735D01*
X126204416Y-148363761D01*
X130419835Y-144148342D01*
X130476319Y-144115730D01*
X130529897Y-144101374D01*
X130529899Y-144101373D01*
X130535207Y-144099951D01*
X130540785Y-144097350D01*
X130731701Y-144008325D01*
X130731706Y-144008322D01*
X130736688Y-144005999D01*
X130901643Y-143890496D01*
X130914281Y-143881647D01*
X130914284Y-143881645D01*
X130918792Y-143878488D01*
X131075988Y-143721292D01*
X131089357Y-143702200D01*
X131200342Y-143543696D01*
X131200343Y-143543694D01*
X131203499Y-143539187D01*
X131205822Y-143534205D01*
X131205825Y-143534200D01*
X131295128Y-143342689D01*
X131295129Y-143342688D01*
X131297451Y-143337707D01*
X131303821Y-143313936D01*
X131353565Y-143128287D01*
X131354989Y-143122974D01*
X131374364Y-142901511D01*
X131354989Y-142680048D01*
X131297451Y-142465315D01*
X131295128Y-142460333D01*
X131205825Y-142268822D01*
X131205822Y-142268817D01*
X131203499Y-142263835D01*
X131196825Y-142254303D01*
X131079147Y-142086241D01*
X131079145Y-142086238D01*
X131075988Y-142081730D01*
X130918792Y-141924534D01*
X130914284Y-141921377D01*
X130914281Y-141921375D01*
X130808769Y-141847495D01*
X130736688Y-141797023D01*
X130731706Y-141794700D01*
X130731701Y-141794697D01*
X130540189Y-141705394D01*
X130540188Y-141705393D01*
X130535207Y-141703071D01*
X130529899Y-141701649D01*
X130529897Y-141701648D01*
X130443709Y-141678554D01*
X130320474Y-141645533D01*
X130099011Y-141626158D01*
X129877548Y-141645533D01*
X129754313Y-141678554D01*
X129668125Y-141701648D01*
X129668123Y-141701649D01*
X129662815Y-141703071D01*
X129657834Y-141705393D01*
X129657833Y-141705394D01*
X129466322Y-141794697D01*
X129466317Y-141794700D01*
X129461335Y-141797023D01*
X129456828Y-141800179D01*
X129456826Y-141800180D01*
X129283741Y-141921375D01*
X129283738Y-141921377D01*
X129279230Y-141924534D01*
X129122034Y-142081730D01*
X129118877Y-142086238D01*
X129118875Y-142086241D01*
X129001197Y-142254303D01*
X128994523Y-142263835D01*
X128992200Y-142268817D01*
X128992197Y-142268822D01*
X128943206Y-142373884D01*
X128896288Y-142427169D01*
X128828011Y-142446630D01*
X128760051Y-142426088D01*
X128714816Y-142373884D01*
X128665825Y-142268822D01*
X128665822Y-142268817D01*
X128663499Y-142263835D01*
X128656825Y-142254303D01*
X128539147Y-142086241D01*
X128539145Y-142086238D01*
X128535988Y-142081730D01*
X128378792Y-141924534D01*
X128374284Y-141921377D01*
X128374281Y-141921375D01*
X128268769Y-141847495D01*
X128196688Y-141797023D01*
X128191706Y-141794700D01*
X128191701Y-141794697D01*
X128006165Y-141708181D01*
X127995207Y-141703071D01*
X127936320Y-141687292D01*
X127879836Y-141654680D01*
X125876562Y-139651406D01*
X125869576Y-139643132D01*
X125869346Y-139643331D01*
X125865423Y-139638786D01*
X125861957Y-139633900D01*
X125794995Y-139569798D01*
X125793031Y-139567875D01*
X125765471Y-139540315D01*
X125763156Y-139538403D01*
X125759750Y-139535590D01*
X125752866Y-139529468D01*
X125709161Y-139487630D01*
X125704125Y-139484378D01*
X125704121Y-139484375D01*
X125681019Y-139469458D01*
X125669137Y-139460762D01*
X125647930Y-139443249D01*
X125647927Y-139443247D01*
X125643306Y-139439431D01*
X125590214Y-139410424D01*
X125582294Y-139405713D01*
X125531463Y-139372891D01*
X125525895Y-139370647D01*
X125525893Y-139370646D01*
X125500392Y-139360369D01*
X125487079Y-139354076D01*
X125485424Y-139353172D01*
X125457682Y-139338015D01*
X125451970Y-139336187D01*
X125451964Y-139336184D01*
X125400060Y-139319570D01*
X125391386Y-139316439D01*
X125335274Y-139293825D01*
X125302403Y-139287406D01*
X125288136Y-139283743D01*
X125261938Y-139275357D01*
X125261936Y-139275357D01*
X125256230Y-139273530D01*
X125250283Y-139272816D01*
X125250276Y-139272814D01*
X125196165Y-139266313D01*
X125187044Y-139264877D01*
X125160484Y-139259690D01*
X125127674Y-139253283D01*
X125122112Y-139253011D01*
X125092971Y-139253011D01*
X125077943Y-139252112D01*
X125052166Y-139249015D01*
X125052160Y-139249015D01*
X125046218Y-139248301D01*
X125040243Y-139248724D01*
X125040240Y-139248724D01*
X124984148Y-139252696D01*
X124975249Y-139253011D01*
X123566645Y-139253011D01*
X123408925Y-139268059D01*
X123205957Y-139327603D01*
X123200630Y-139330347D01*
X123200629Y-139330347D01*
X123023242Y-139421707D01*
X123023239Y-139421709D01*
X123017911Y-139424453D01*
X122851571Y-139555115D01*
X122847639Y-139559646D01*
X122847636Y-139559649D01*
X122744693Y-139678281D01*
X122712939Y-139714874D01*
X122709939Y-139720060D01*
X122709936Y-139720064D01*
X122620462Y-139874726D01*
X122607018Y-139897965D01*
X122537630Y-140097782D01*
X122536769Y-140103717D01*
X122536769Y-140103719D01*
X122519933Y-140219838D01*
X122507278Y-140307115D01*
X122517058Y-140518410D01*
X122518462Y-140524235D01*
X122518462Y-140524236D01*
X122549103Y-140651375D01*
X122566616Y-140724045D01*
X122654165Y-140916598D01*
X122705755Y-140989326D01*
X122754540Y-141058100D01*
X122776545Y-141089122D01*
X122929341Y-141235392D01*
X123107039Y-141350131D01*
X123167137Y-141374351D01*
X123297659Y-141426953D01*
X123297662Y-141426954D01*
X123303228Y-141429197D01*
X123510828Y-141469739D01*
X123516390Y-141470011D01*
X124507666Y-141470011D01*
X124575787Y-141490013D01*
X124596761Y-141506916D01*
X126312180Y-143222335D01*
X126344792Y-143278819D01*
X126354202Y-143313936D01*
X126360571Y-143337707D01*
X126362893Y-143342688D01*
X126362894Y-143342689D01*
X126452197Y-143534200D01*
X126452200Y-143534205D01*
X126454523Y-143539187D01*
X126457679Y-143543694D01*
X126457680Y-143543696D01*
X126568666Y-143702200D01*
X126582034Y-143721292D01*
X126739230Y-143878488D01*
X126743738Y-143881645D01*
X126743741Y-143881647D01*
X126756379Y-143890496D01*
X126921334Y-144005999D01*
X127103016Y-144090718D01*
X127156299Y-144137634D01*
X127175760Y-144205911D01*
X127155218Y-144273871D01*
X127138859Y-144294007D01*
X124732126Y-146700740D01*
X124669814Y-146734766D01*
X124598999Y-146729701D01*
X124542163Y-146687154D01*
X124517352Y-146620634D01*
X124517031Y-146611645D01*
X124517031Y-144187214D01*
X124517323Y-144178644D01*
X124520740Y-144128526D01*
X124520740Y-144128522D01*
X124521256Y-144120950D01*
X124510270Y-144058005D01*
X124509308Y-144051484D01*
X124502546Y-143995606D01*
X124501633Y-143988060D01*
X124498947Y-143980952D01*
X124498310Y-143978358D01*
X124493849Y-143962052D01*
X124493079Y-143959501D01*
X124491773Y-143952018D01*
X124486076Y-143939040D01*
X124466092Y-143893514D01*
X124463600Y-143887407D01*
X124443704Y-143834754D01*
X124443704Y-143834753D01*
X124441018Y-143827646D01*
X124436715Y-143821385D01*
X124435478Y-143819019D01*
X124427251Y-143804239D01*
X124425900Y-143801954D01*
X124422846Y-143794997D01*
X124418226Y-143788977D01*
X124418223Y-143788971D01*
X124383952Y-143744311D01*
X124380072Y-143738970D01*
X124348192Y-143692582D01*
X124348187Y-143692577D01*
X124343888Y-143686321D01*
X124297360Y-143644866D01*
X124292085Y-143639886D01*
X120533190Y-139880991D01*
X120527336Y-139874726D01*
X120526941Y-139874273D01*
X120489301Y-139831126D01*
X120437020Y-139794382D01*
X120431726Y-139790450D01*
X120387433Y-139755720D01*
X120381458Y-139751035D01*
X120374542Y-139747912D01*
X120372256Y-139746528D01*
X120357575Y-139738154D01*
X120355215Y-139736889D01*
X120349001Y-139732521D01*
X120341922Y-139729761D01*
X120341920Y-139729760D01*
X120289465Y-139709309D01*
X120283396Y-139706758D01*
X120225167Y-139680466D01*
X120217700Y-139679082D01*
X120215145Y-139678281D01*
X120198892Y-139673652D01*
X120196312Y-139672989D01*
X120189231Y-139670229D01*
X120181700Y-139669238D01*
X120181698Y-139669237D01*
X120152079Y-139665338D01*
X120125879Y-139661889D01*
X120119381Y-139660859D01*
X120056554Y-139649215D01*
X120048974Y-139649652D01*
X120048973Y-139649652D01*
X119994348Y-139652802D01*
X119987094Y-139653011D01*
X116087297Y-139653011D01*
X116019176Y-139633009D01*
X115981505Y-139595452D01*
X115939025Y-139529788D01*
X115788681Y-139364562D01*
X115784630Y-139361363D01*
X115784626Y-139361359D01*
X115617425Y-139229311D01*
X115617421Y-139229309D01*
X115613370Y-139226109D01*
X115572064Y-139203307D01*
X115522095Y-139152875D01*
X115507323Y-139083432D01*
X115511191Y-139073206D01*
X137626262Y-139073206D01*
X137626559Y-139078359D01*
X137626559Y-139078362D01*
X137632022Y-139173101D01*
X137639121Y-139296226D01*
X137640258Y-139301272D01*
X137640259Y-139301278D01*
X137656398Y-139372891D01*
X137688233Y-139514150D01*
X137748049Y-139661459D01*
X137767899Y-139710344D01*
X137772277Y-139721127D01*
X137888998Y-139911599D01*
X138035261Y-140080449D01*
X138207137Y-140223143D01*
X138400011Y-140335849D01*
X138608703Y-140415541D01*
X138613771Y-140416572D01*
X138613774Y-140416573D01*
X138687871Y-140431648D01*
X138827608Y-140460078D01*
X138832783Y-140460268D01*
X138832785Y-140460268D01*
X139045684Y-140468075D01*
X139045688Y-140468075D01*
X139050848Y-140468264D01*
X139055968Y-140467608D01*
X139055970Y-140467608D01*
X139267299Y-140440536D01*
X139267300Y-140440536D01*
X139272427Y-140439879D01*
X139295119Y-140433071D01*
X139481440Y-140377172D01*
X139481445Y-140377170D01*
X139486395Y-140375685D01*
X139687005Y-140277407D01*
X139868871Y-140147684D01*
X140027107Y-139990000D01*
X140086605Y-139907200D01*
X140154446Y-139812788D01*
X140157464Y-139808588D01*
X140166429Y-139790450D01*
X140254147Y-139612964D01*
X140254148Y-139612962D01*
X140256441Y-139608322D01*
X140308627Y-139436557D01*
X140319876Y-139399534D01*
X140319876Y-139399532D01*
X140321381Y-139394580D01*
X140350540Y-139173101D01*
X140352167Y-139106511D01*
X140333863Y-138883872D01*
X140279442Y-138667213D01*
X140190365Y-138462351D01*
X140069025Y-138274788D01*
X139918681Y-138109562D01*
X139914630Y-138106363D01*
X139914626Y-138106359D01*
X139747425Y-137974311D01*
X139747421Y-137974309D01*
X139743370Y-137971109D01*
X139702064Y-137948307D01*
X139652095Y-137897875D01*
X139637323Y-137828432D01*
X139662439Y-137762027D01*
X139689791Y-137735420D01*
X139741325Y-137698661D01*
X139868871Y-137607684D01*
X139874159Y-137602415D01*
X140023446Y-137453648D01*
X140027107Y-137450000D01*
X140086605Y-137367200D01*
X140154446Y-137272788D01*
X140157464Y-137268588D01*
X140184669Y-137213544D01*
X140254147Y-137072964D01*
X140254148Y-137072962D01*
X140256441Y-137068322D01*
X140321381Y-136854580D01*
X140350540Y-136633101D01*
X140351034Y-136612875D01*
X140352085Y-136569876D01*
X140352085Y-136569872D01*
X140352167Y-136566511D01*
X140333863Y-136343872D01*
X140279442Y-136127213D01*
X140190365Y-135922351D01*
X140126062Y-135822953D01*
X140071833Y-135739128D01*
X140071831Y-135739125D01*
X140069025Y-135734788D01*
X140065551Y-135730970D01*
X140065544Y-135730961D01*
X139921446Y-135572599D01*
X139890394Y-135508753D01*
X139898790Y-135438255D01*
X139943967Y-135383487D01*
X139970411Y-135369818D01*
X140077063Y-135329836D01*
X140092660Y-135321297D01*
X140194735Y-135244796D01*
X140207296Y-135232235D01*
X140283797Y-135130160D01*
X140292335Y-135114565D01*
X140337489Y-134994117D01*
X140341116Y-134978862D01*
X140346642Y-134927997D01*
X140347011Y-134921183D01*
X140347011Y-134298626D01*
X140342536Y-134283387D01*
X140341146Y-134282182D01*
X140333463Y-134280511D01*
X137649127Y-134280511D01*
X137633888Y-134284986D01*
X137632683Y-134286376D01*
X137631012Y-134294059D01*
X137631012Y-134921180D01*
X137631382Y-134928001D01*
X137636906Y-134978863D01*
X137640532Y-134994115D01*
X137685687Y-135114565D01*
X137694225Y-135130160D01*
X137770726Y-135232235D01*
X137783287Y-135244796D01*
X137885362Y-135321297D01*
X137900957Y-135329835D01*
X138009838Y-135370653D01*
X138066602Y-135413295D01*
X138091302Y-135479856D01*
X138076094Y-135549205D01*
X138056702Y-135575686D01*
X137933211Y-135704912D01*
X137929640Y-135708649D01*
X137926726Y-135712921D01*
X137926725Y-135712922D01*
X137875535Y-135787964D01*
X137803754Y-135893191D01*
X137766706Y-135973004D01*
X137716020Y-136082199D01*
X137709699Y-136095816D01*
X137650000Y-136311081D01*
X137626262Y-136533206D01*
X137626559Y-136538359D01*
X137626559Y-136538362D01*
X137632022Y-136633101D01*
X137639121Y-136756226D01*
X137640258Y-136761272D01*
X137640259Y-136761278D01*
X137654521Y-136824562D01*
X137688233Y-136974150D01*
X137726472Y-137068322D01*
X137767979Y-137170541D01*
X137772277Y-137181127D01*
X137888998Y-137371599D01*
X138035261Y-137540449D01*
X138207137Y-137683143D01*
X138257822Y-137712761D01*
X138280456Y-137725987D01*
X138329180Y-137777625D01*
X138342251Y-137847408D01*
X138315520Y-137913180D01*
X138275066Y-137946538D01*
X138267686Y-137950380D01*
X138262618Y-137953018D01*
X138258485Y-137956121D01*
X138258482Y-137956123D01*
X138088111Y-138084041D01*
X138083976Y-138087146D01*
X137929640Y-138248649D01*
X137926726Y-138252921D01*
X137926725Y-138252922D01*
X137875535Y-138327964D01*
X137803754Y-138433191D01*
X137788014Y-138467101D01*
X137729404Y-138593366D01*
X137709699Y-138635816D01*
X137650000Y-138851081D01*
X137626262Y-139073206D01*
X115511191Y-139073206D01*
X115532439Y-139017027D01*
X115559791Y-138990420D01*
X115603614Y-138959161D01*
X115738871Y-138862684D01*
X115767672Y-138833984D01*
X115893446Y-138708648D01*
X115897107Y-138705000D01*
X115946821Y-138635816D01*
X116024446Y-138527788D01*
X116027464Y-138523588D01*
X116055382Y-138467101D01*
X116124147Y-138327964D01*
X116124148Y-138327962D01*
X116126441Y-138323322D01*
X116191381Y-138109580D01*
X116220540Y-137888101D01*
X116221023Y-137868349D01*
X116222085Y-137824876D01*
X116222085Y-137824872D01*
X116222167Y-137821511D01*
X116203863Y-137598872D01*
X116149442Y-137382213D01*
X116060365Y-137177351D01*
X115986626Y-137063368D01*
X115941833Y-136994128D01*
X115941831Y-136994125D01*
X115939025Y-136989788D01*
X115788681Y-136824562D01*
X115784630Y-136821363D01*
X115784626Y-136821359D01*
X115617425Y-136689311D01*
X115617421Y-136689309D01*
X115613370Y-136686109D01*
X115572064Y-136663307D01*
X115522095Y-136612875D01*
X115507323Y-136543432D01*
X115532439Y-136477027D01*
X115559791Y-136450420D01*
X115603614Y-136419161D01*
X115738871Y-136322684D01*
X115897107Y-136165000D01*
X115946821Y-136095816D01*
X116024446Y-135987788D01*
X116027464Y-135983588D01*
X116045291Y-135947519D01*
X116124147Y-135787964D01*
X116124148Y-135787962D01*
X116126441Y-135783322D01*
X116191381Y-135569580D01*
X116220540Y-135348101D01*
X116222167Y-135281511D01*
X126283658Y-135281511D01*
X126303033Y-135502974D01*
X126320880Y-135569580D01*
X126357143Y-135704912D01*
X126360571Y-135717707D01*
X126362893Y-135722688D01*
X126362894Y-135722689D01*
X126452197Y-135914200D01*
X126452200Y-135914205D01*
X126454523Y-135919187D01*
X126457679Y-135923694D01*
X126457680Y-135923696D01*
X126578200Y-136095816D01*
X126582034Y-136101292D01*
X126739230Y-136258488D01*
X126743738Y-136261645D01*
X126743741Y-136261647D01*
X126807225Y-136306099D01*
X126921334Y-136385999D01*
X126926316Y-136388322D01*
X126926321Y-136388325D01*
X127116544Y-136477027D01*
X127122815Y-136479951D01*
X127128123Y-136481373D01*
X127128125Y-136481374D01*
X127181703Y-136495730D01*
X127238187Y-136528342D01*
X128262971Y-137553127D01*
X128269957Y-137561401D01*
X128270187Y-137561202D01*
X128274110Y-137565747D01*
X128277576Y-137570633D01*
X128316280Y-137607684D01*
X128344539Y-137634736D01*
X128346503Y-137636659D01*
X128374062Y-137664218D01*
X128376374Y-137666128D01*
X128376377Y-137666130D01*
X128379783Y-137668943D01*
X128386667Y-137675065D01*
X128430372Y-137716903D01*
X128435408Y-137720155D01*
X128435412Y-137720158D01*
X128458514Y-137735075D01*
X128470396Y-137743771D01*
X128491603Y-137761284D01*
X128491606Y-137761286D01*
X128496227Y-137765102D01*
X128519148Y-137777625D01*
X128549319Y-137794109D01*
X128557239Y-137798820D01*
X128608070Y-137831642D01*
X128613638Y-137833886D01*
X128613640Y-137833887D01*
X128639141Y-137844164D01*
X128652454Y-137850457D01*
X128681851Y-137866518D01*
X128687563Y-137868346D01*
X128687569Y-137868349D01*
X128739473Y-137884963D01*
X128748147Y-137888094D01*
X128804259Y-137910708D01*
X128837130Y-137917127D01*
X128851397Y-137920790D01*
X128877586Y-137929174D01*
X128877597Y-137929176D01*
X128883303Y-137931003D01*
X128889255Y-137931718D01*
X128943363Y-137938218D01*
X128952484Y-137939655D01*
X128987731Y-137946538D01*
X129011859Y-137951250D01*
X129017421Y-137951522D01*
X129046571Y-137951522D01*
X129061599Y-137952421D01*
X129087368Y-137955517D01*
X129087372Y-137955517D01*
X129093315Y-137956231D01*
X129099291Y-137955808D01*
X129099294Y-137955808D01*
X129155375Y-137951837D01*
X129164274Y-137951522D01*
X131102763Y-137951522D01*
X131113552Y-137952433D01*
X131113574Y-137952129D01*
X131119548Y-137952568D01*
X131125466Y-137953574D01*
X131218120Y-137951552D01*
X131220868Y-137951522D01*
X131259866Y-137951522D01*
X131262845Y-137951238D01*
X131262863Y-137951237D01*
X131267242Y-137950819D01*
X131276456Y-137950279D01*
X131308108Y-137949588D01*
X131330940Y-137949090D01*
X131330941Y-137949090D01*
X131336937Y-137948959D01*
X131342795Y-137947698D01*
X131342802Y-137947697D01*
X131369694Y-137941907D01*
X131384246Y-137939655D01*
X131399306Y-137938218D01*
X131417586Y-137936474D01*
X131423347Y-137934784D01*
X131475633Y-137919446D01*
X131484581Y-137917174D01*
X131537856Y-137905704D01*
X131537867Y-137905701D01*
X131543722Y-137904440D01*
X131549238Y-137902093D01*
X131549241Y-137902092D01*
X131574552Y-137891322D01*
X131588401Y-137886363D01*
X131620554Y-137876930D01*
X131674346Y-137849225D01*
X131682680Y-137845312D01*
X131738356Y-137821622D01*
X131766150Y-137802910D01*
X131778817Y-137795419D01*
X131803266Y-137782828D01*
X131803273Y-137782824D01*
X131808600Y-137780080D01*
X131834720Y-137759563D01*
X131856163Y-137742719D01*
X131863629Y-137737285D01*
X131910053Y-137706031D01*
X131910068Y-137706020D01*
X131913819Y-137703494D01*
X131917944Y-137699753D01*
X131938549Y-137679148D01*
X131949811Y-137669157D01*
X131950084Y-137668943D01*
X131956099Y-137664218D01*
X131970223Y-137653124D01*
X131970228Y-137653120D01*
X131974940Y-137649418D01*
X131987681Y-137634736D01*
X132015727Y-137602415D01*
X132021798Y-137595899D01*
X132317607Y-137300091D01*
X132319727Y-137297971D01*
X132420611Y-137175806D01*
X132522027Y-136990182D01*
X132575042Y-136824562D01*
X132584686Y-136794435D01*
X132584686Y-136794433D01*
X132586512Y-136788730D01*
X132601792Y-136661538D01*
X132611027Y-136584665D01*
X132611027Y-136584661D01*
X132611741Y-136578718D01*
X132610877Y-136566511D01*
X132597226Y-136373706D01*
X132597225Y-136373702D01*
X132596802Y-136367723D01*
X132591812Y-136349033D01*
X132543781Y-136169155D01*
X132542234Y-136163361D01*
X132524721Y-136127213D01*
X132452624Y-135978405D01*
X132452623Y-135978403D01*
X132450007Y-135973004D01*
X132430977Y-135947519D01*
X132387213Y-135888912D01*
X132323448Y-135803521D01*
X132167125Y-135661029D01*
X132031480Y-135578068D01*
X131991790Y-135553793D01*
X131991784Y-135553790D01*
X131986676Y-135550666D01*
X131788614Y-135476417D01*
X131693491Y-135460242D01*
X131586002Y-135441965D01*
X131586001Y-135441965D01*
X131580085Y-135440959D01*
X131500513Y-135442696D01*
X131431974Y-135424185D01*
X131384321Y-135371557D01*
X131372244Y-135305745D01*
X131373885Y-135286987D01*
X131373885Y-135286986D01*
X131374364Y-135281511D01*
X131354989Y-135060048D01*
X131297451Y-134845315D01*
X131295128Y-134840333D01*
X131205825Y-134648822D01*
X131205822Y-134648817D01*
X131203499Y-134643835D01*
X131196825Y-134634303D01*
X131079147Y-134466241D01*
X131079145Y-134466238D01*
X131075988Y-134461730D01*
X130918792Y-134304534D01*
X130914284Y-134301377D01*
X130914281Y-134301375D01*
X130762573Y-134195148D01*
X130736688Y-134177023D01*
X130731706Y-134174700D01*
X130731701Y-134174697D01*
X130540189Y-134085394D01*
X130540188Y-134085393D01*
X130535207Y-134083071D01*
X130529899Y-134081649D01*
X130529897Y-134081648D01*
X130410923Y-134049769D01*
X130320474Y-134025533D01*
X130099011Y-134006158D01*
X129877548Y-134025533D01*
X129787099Y-134049769D01*
X129668125Y-134081648D01*
X129668123Y-134081649D01*
X129662815Y-134083071D01*
X129657834Y-134085393D01*
X129657833Y-134085394D01*
X129466322Y-134174697D01*
X129466317Y-134174700D01*
X129461335Y-134177023D01*
X129456828Y-134180179D01*
X129456826Y-134180180D01*
X129283741Y-134301375D01*
X129283738Y-134301377D01*
X129279230Y-134304534D01*
X129122034Y-134461730D01*
X129118877Y-134466238D01*
X129118875Y-134466241D01*
X129001197Y-134634303D01*
X128994523Y-134643835D01*
X128992200Y-134648817D01*
X128992197Y-134648822D01*
X128943206Y-134753884D01*
X128896288Y-134807169D01*
X128828011Y-134826630D01*
X128760051Y-134806088D01*
X128714816Y-134753884D01*
X128665825Y-134648822D01*
X128665822Y-134648817D01*
X128663499Y-134643835D01*
X128656825Y-134634303D01*
X128539147Y-134466241D01*
X128539145Y-134466238D01*
X128535988Y-134461730D01*
X128378792Y-134304534D01*
X128374284Y-134301377D01*
X128374281Y-134301375D01*
X128222573Y-134195148D01*
X128196688Y-134177023D01*
X128191706Y-134174700D01*
X128191701Y-134174697D01*
X128000189Y-134085394D01*
X128000188Y-134085393D01*
X127995207Y-134083071D01*
X127989899Y-134081649D01*
X127989897Y-134081648D01*
X127870923Y-134049769D01*
X127780474Y-134025533D01*
X127559011Y-134006158D01*
X127337548Y-134025533D01*
X127247099Y-134049769D01*
X127128125Y-134081648D01*
X127128123Y-134081649D01*
X127122815Y-134083071D01*
X127117834Y-134085393D01*
X127117833Y-134085394D01*
X126926322Y-134174697D01*
X126926317Y-134174700D01*
X126921335Y-134177023D01*
X126916828Y-134180179D01*
X126916826Y-134180180D01*
X126743741Y-134301375D01*
X126743738Y-134301377D01*
X126739230Y-134304534D01*
X126582034Y-134461730D01*
X126578877Y-134466238D01*
X126578875Y-134466241D01*
X126461197Y-134634303D01*
X126454523Y-134643835D01*
X126452200Y-134648817D01*
X126452197Y-134648822D01*
X126362894Y-134840333D01*
X126360571Y-134845315D01*
X126303033Y-135060048D01*
X126283658Y-135281511D01*
X116222167Y-135281511D01*
X116203863Y-135058872D01*
X116149442Y-134842213D01*
X116060365Y-134637351D01*
X115939025Y-134449788D01*
X115788681Y-134284562D01*
X115784630Y-134281363D01*
X115784626Y-134281359D01*
X115617425Y-134149311D01*
X115617421Y-134149309D01*
X115613370Y-134146109D01*
X115572064Y-134123307D01*
X115522095Y-134072875D01*
X115507323Y-134003432D01*
X115532439Y-133937027D01*
X115559791Y-133910420D01*
X115628432Y-133861459D01*
X115738871Y-133782684D01*
X115750757Y-133770840D01*
X115767258Y-133754396D01*
X137631011Y-133754396D01*
X137635486Y-133769635D01*
X137636876Y-133770840D01*
X137644559Y-133772511D01*
X138716896Y-133772511D01*
X138732135Y-133768036D01*
X138733340Y-133766646D01*
X138735011Y-133758963D01*
X138735011Y-133754396D01*
X139243011Y-133754396D01*
X139247486Y-133769635D01*
X139248876Y-133770840D01*
X139256559Y-133772511D01*
X140328895Y-133772511D01*
X140344134Y-133768036D01*
X140345339Y-133766646D01*
X140347010Y-133758963D01*
X140347010Y-133131842D01*
X140346640Y-133125021D01*
X140341116Y-133074159D01*
X140337490Y-133058907D01*
X140292335Y-132938457D01*
X140283797Y-132922862D01*
X140207296Y-132820787D01*
X140194735Y-132808226D01*
X140092660Y-132731725D01*
X140077065Y-132723187D01*
X139956617Y-132678033D01*
X139941362Y-132674406D01*
X139890497Y-132668880D01*
X139883683Y-132668511D01*
X139261126Y-132668511D01*
X139245887Y-132672986D01*
X139244682Y-132674376D01*
X139243011Y-132682059D01*
X139243011Y-133754396D01*
X138735011Y-133754396D01*
X138735011Y-132686627D01*
X138730536Y-132671388D01*
X138729146Y-132670183D01*
X138721463Y-132668512D01*
X138094342Y-132668512D01*
X138087521Y-132668882D01*
X138036659Y-132674406D01*
X138021407Y-132678032D01*
X137900957Y-132723187D01*
X137885362Y-132731725D01*
X137783287Y-132808226D01*
X137770726Y-132820787D01*
X137694225Y-132922862D01*
X137685687Y-132938457D01*
X137640533Y-133058905D01*
X137636906Y-133074160D01*
X137631380Y-133125025D01*
X137631011Y-133131839D01*
X137631011Y-133754396D01*
X115767258Y-133754396D01*
X115893446Y-133628648D01*
X115897107Y-133625000D01*
X115928994Y-133580625D01*
X116024446Y-133447788D01*
X116027464Y-133443588D01*
X116048331Y-133401368D01*
X116124147Y-133247964D01*
X116124148Y-133247962D01*
X116126441Y-133243322D01*
X116160312Y-133131839D01*
X116189876Y-133034534D01*
X116189876Y-133034532D01*
X116191381Y-133029580D01*
X116220540Y-132808101D01*
X116221790Y-132756957D01*
X116222085Y-132744876D01*
X116222085Y-132744872D01*
X116222167Y-132741511D01*
X116203863Y-132518872D01*
X116149442Y-132302213D01*
X116060365Y-132097351D01*
X115939025Y-131909788D01*
X115788681Y-131744562D01*
X115784630Y-131741363D01*
X115784626Y-131741359D01*
X115617425Y-131609311D01*
X115617421Y-131609309D01*
X115613370Y-131606109D01*
X115572064Y-131583307D01*
X115522095Y-131532875D01*
X115507323Y-131463432D01*
X115532439Y-131397027D01*
X115559791Y-131370420D01*
X115603614Y-131339161D01*
X115738871Y-131242684D01*
X115897107Y-131085000D01*
X116027464Y-130903588D01*
X116048331Y-130861368D01*
X116124147Y-130707964D01*
X116124148Y-130707962D01*
X116126441Y-130703322D01*
X116191381Y-130489580D01*
X116220540Y-130268101D01*
X116221188Y-130241573D01*
X116222085Y-130204876D01*
X116222085Y-130204872D01*
X116222167Y-130201511D01*
X116203863Y-129978872D01*
X116149442Y-129762213D01*
X116060365Y-129557351D01*
X115939025Y-129369788D01*
X115788681Y-129204562D01*
X115784630Y-129201363D01*
X115784626Y-129201359D01*
X115617425Y-129069311D01*
X115617421Y-129069309D01*
X115613370Y-129066109D01*
X115572064Y-129043307D01*
X115522095Y-128992875D01*
X115507323Y-128923432D01*
X115511191Y-128913206D01*
X121116262Y-128913206D01*
X121116559Y-128918359D01*
X121116559Y-128918362D01*
X121122022Y-129013101D01*
X121129121Y-129136226D01*
X121130258Y-129141272D01*
X121130259Y-129141278D01*
X121144521Y-129204562D01*
X121178233Y-129354150D01*
X121222972Y-129464329D01*
X121256012Y-129545697D01*
X121262277Y-129561127D01*
X121275360Y-129582477D01*
X121340674Y-129689059D01*
X121378998Y-129751599D01*
X121525261Y-129920449D01*
X121697137Y-130063143D01*
X121890011Y-130175849D01*
X122098703Y-130255541D01*
X122103771Y-130256572D01*
X122103774Y-130256573D01*
X122176745Y-130271419D01*
X122317608Y-130300078D01*
X122322783Y-130300268D01*
X122322785Y-130300268D01*
X122535684Y-130308075D01*
X122535688Y-130308075D01*
X122540848Y-130308264D01*
X122545968Y-130307608D01*
X122545970Y-130307608D01*
X122757299Y-130280536D01*
X122757300Y-130280536D01*
X122762427Y-130279879D01*
X122767377Y-130278394D01*
X122971440Y-130217172D01*
X122971445Y-130217170D01*
X122976395Y-130215685D01*
X123177005Y-130117407D01*
X123358871Y-129987684D01*
X123372751Y-129973853D01*
X123513446Y-129833648D01*
X123517107Y-129830000D01*
X123530902Y-129810803D01*
X123644446Y-129652788D01*
X123647464Y-129648588D01*
X123652577Y-129638244D01*
X123744147Y-129452964D01*
X123744148Y-129452962D01*
X123746441Y-129448322D01*
X123811381Y-129234580D01*
X123840540Y-129013101D01*
X123840660Y-129008180D01*
X123842085Y-128949876D01*
X123842085Y-128949872D01*
X123842167Y-128946511D01*
X123838196Y-128898206D01*
X127466262Y-128898206D01*
X127466559Y-128903359D01*
X127466559Y-128903362D01*
X127472887Y-129013101D01*
X127479121Y-129121226D01*
X127480258Y-129126272D01*
X127480259Y-129126278D01*
X127500130Y-129214450D01*
X127528233Y-129339150D01*
X127612277Y-129546127D01*
X127614976Y-129550531D01*
X127714486Y-129712917D01*
X127728998Y-129736599D01*
X127875261Y-129905449D01*
X128047137Y-130048143D01*
X128240011Y-130160849D01*
X128448703Y-130240541D01*
X128453771Y-130241572D01*
X128453774Y-130241573D01*
X128527502Y-130256573D01*
X128667608Y-130285078D01*
X128672783Y-130285268D01*
X128672785Y-130285268D01*
X128885684Y-130293075D01*
X128885688Y-130293075D01*
X128890848Y-130293264D01*
X128895968Y-130292608D01*
X128895970Y-130292608D01*
X129107299Y-130265536D01*
X129107300Y-130265536D01*
X129112427Y-130264879D01*
X129117377Y-130263394D01*
X129321440Y-130202172D01*
X129321445Y-130202170D01*
X129326395Y-130200685D01*
X129527005Y-130102407D01*
X129708871Y-129972684D01*
X129717293Y-129964292D01*
X129856266Y-129825803D01*
X129867107Y-129815000D01*
X129926605Y-129732200D01*
X129994446Y-129637788D01*
X129997464Y-129633588D01*
X130022725Y-129582477D01*
X130094147Y-129437964D01*
X130094148Y-129437962D01*
X130096441Y-129433322D01*
X130128911Y-129326451D01*
X130159876Y-129224534D01*
X130159876Y-129224532D01*
X130161381Y-129219580D01*
X130190540Y-128998101D01*
X130191841Y-128944868D01*
X130192085Y-128934876D01*
X130192085Y-128934872D01*
X130192167Y-128931511D01*
X130173863Y-128708872D01*
X130119442Y-128492213D01*
X130030365Y-128287351D01*
X129914567Y-128108354D01*
X129911833Y-128104128D01*
X129911831Y-128104125D01*
X129909025Y-128099788D01*
X129758681Y-127934562D01*
X129754630Y-127931363D01*
X129754626Y-127931359D01*
X129587425Y-127799311D01*
X129587421Y-127799309D01*
X129583370Y-127796109D01*
X129542064Y-127773307D01*
X129492095Y-127722875D01*
X129477323Y-127653432D01*
X129502439Y-127587027D01*
X129529791Y-127560420D01*
X129586685Y-127519838D01*
X129708871Y-127432684D01*
X129735915Y-127405735D01*
X129863446Y-127278648D01*
X129867107Y-127275000D01*
X129903562Y-127224268D01*
X129994446Y-127097788D01*
X129997464Y-127093588D01*
X130035143Y-127017351D01*
X130094147Y-126897964D01*
X130094148Y-126897962D01*
X130096441Y-126893322D01*
X130151601Y-126711770D01*
X130159876Y-126684534D01*
X130159876Y-126684532D01*
X130161381Y-126679580D01*
X130190540Y-126458101D01*
X130191526Y-126417734D01*
X130192085Y-126394876D01*
X130192085Y-126394872D01*
X130192167Y-126391511D01*
X130173863Y-126168872D01*
X130164778Y-126132703D01*
X134890743Y-126132703D01*
X134891302Y-126136947D01*
X134891302Y-126136951D01*
X134898159Y-126189033D01*
X134928268Y-126417734D01*
X135004129Y-126695036D01*
X135005813Y-126698984D01*
X135092991Y-126903368D01*
X135116923Y-126959476D01*
X135154403Y-127022101D01*
X135261174Y-127200501D01*
X135264561Y-127206161D01*
X135444313Y-127430528D01*
X135526102Y-127508143D01*
X135644870Y-127620849D01*
X135652851Y-127628423D01*
X135886317Y-127796186D01*
X135890112Y-127798195D01*
X135890113Y-127798196D01*
X135909791Y-127808615D01*
X136140392Y-127930712D01*
X136410373Y-128029511D01*
X136691264Y-128090755D01*
X136718799Y-128092922D01*
X136914282Y-128108307D01*
X136914291Y-128108307D01*
X136916739Y-128108500D01*
X137072271Y-128108500D01*
X137074407Y-128108354D01*
X137074418Y-128108354D01*
X137282548Y-128094165D01*
X137282554Y-128094164D01*
X137286825Y-128093873D01*
X137291020Y-128093004D01*
X137291022Y-128093004D01*
X137427584Y-128064723D01*
X137568342Y-128035574D01*
X137839343Y-127939607D01*
X138094812Y-127807750D01*
X138098313Y-127805289D01*
X138098317Y-127805287D01*
X138278989Y-127678308D01*
X138330023Y-127642441D01*
X138478101Y-127504838D01*
X138537479Y-127449661D01*
X138537481Y-127449658D01*
X138540622Y-127446740D01*
X138722713Y-127224268D01*
X138872927Y-126979142D01*
X138906190Y-126903368D01*
X138986757Y-126719830D01*
X138988483Y-126715898D01*
X138993145Y-126699534D01*
X139048380Y-126505629D01*
X139067244Y-126439406D01*
X139107751Y-126154784D01*
X139107797Y-126146099D01*
X139109235Y-125871583D01*
X139109235Y-125871576D01*
X139109257Y-125867297D01*
X139071732Y-125582266D01*
X139062536Y-125548649D01*
X139026161Y-125415686D01*
X138995871Y-125304964D01*
X138981431Y-125271109D01*
X138884763Y-125044476D01*
X138884761Y-125044472D01*
X138883077Y-125040524D01*
X138750568Y-124819117D01*
X138737643Y-124797521D01*
X138737640Y-124797517D01*
X138735439Y-124793839D01*
X138555687Y-124569472D01*
X138347149Y-124371577D01*
X138113683Y-124203814D01*
X138091843Y-124192250D01*
X137990564Y-124138626D01*
X137859608Y-124069288D01*
X137589627Y-123970489D01*
X137308736Y-123909245D01*
X137277685Y-123906801D01*
X137085718Y-123891693D01*
X137085709Y-123891693D01*
X137083261Y-123891500D01*
X136927729Y-123891500D01*
X136925593Y-123891646D01*
X136925582Y-123891646D01*
X136717452Y-123905835D01*
X136717446Y-123905836D01*
X136713175Y-123906127D01*
X136708980Y-123906996D01*
X136708978Y-123906996D01*
X136572417Y-123935276D01*
X136431658Y-123964426D01*
X136160657Y-124060393D01*
X135905188Y-124192250D01*
X135901687Y-124194711D01*
X135901683Y-124194713D01*
X135891594Y-124201804D01*
X135669977Y-124357559D01*
X135459378Y-124553260D01*
X135277287Y-124775732D01*
X135127073Y-125020858D01*
X135125347Y-125024791D01*
X135125346Y-125024792D01*
X135014084Y-125278255D01*
X135011517Y-125284102D01*
X135010342Y-125288229D01*
X135010341Y-125288230D01*
X134993101Y-125348753D01*
X134932756Y-125560594D01*
X134892249Y-125845216D01*
X134892227Y-125849505D01*
X134892226Y-125849512D01*
X134890765Y-126128417D01*
X134890743Y-126132703D01*
X130164778Y-126132703D01*
X130119442Y-125952213D01*
X130030365Y-125747351D01*
X129909025Y-125559788D01*
X129905551Y-125555970D01*
X129905544Y-125555961D01*
X129761446Y-125397599D01*
X129730394Y-125333753D01*
X129738790Y-125263255D01*
X129783967Y-125208487D01*
X129810411Y-125194818D01*
X129917063Y-125154836D01*
X129932660Y-125146297D01*
X130034735Y-125069796D01*
X130047296Y-125057235D01*
X130123797Y-124955160D01*
X130132335Y-124939565D01*
X130177489Y-124819117D01*
X130181116Y-124803862D01*
X130186642Y-124752997D01*
X130187011Y-124746183D01*
X130187011Y-124123626D01*
X130182536Y-124108387D01*
X130181146Y-124107182D01*
X130173463Y-124105511D01*
X127489127Y-124105511D01*
X127473888Y-124109986D01*
X127472683Y-124111376D01*
X127471012Y-124119059D01*
X127471012Y-124746180D01*
X127471382Y-124753001D01*
X127476906Y-124803863D01*
X127480532Y-124819115D01*
X127525687Y-124939565D01*
X127534225Y-124955160D01*
X127610726Y-125057235D01*
X127623287Y-125069796D01*
X127725362Y-125146297D01*
X127740957Y-125154835D01*
X127849838Y-125195653D01*
X127906602Y-125238295D01*
X127931302Y-125304856D01*
X127916094Y-125374205D01*
X127896702Y-125400686D01*
X127888220Y-125409562D01*
X127769640Y-125533649D01*
X127643754Y-125718191D01*
X127628014Y-125752101D01*
X127574542Y-125867297D01*
X127549699Y-125920816D01*
X127490000Y-126136081D01*
X127466262Y-126358206D01*
X127466559Y-126363359D01*
X127466559Y-126363362D01*
X127472887Y-126473101D01*
X127479121Y-126581226D01*
X127480258Y-126586272D01*
X127480259Y-126586278D01*
X127500130Y-126674450D01*
X127528233Y-126799150D01*
X127566472Y-126893322D01*
X127602805Y-126982799D01*
X127612277Y-127006127D01*
X127614976Y-127010531D01*
X127714486Y-127172917D01*
X127728998Y-127196599D01*
X127875261Y-127365449D01*
X128047137Y-127508143D01*
X128067151Y-127519838D01*
X128120456Y-127550987D01*
X128169180Y-127602625D01*
X128182251Y-127672408D01*
X128155520Y-127738180D01*
X128115066Y-127771538D01*
X128102618Y-127778018D01*
X128098485Y-127781121D01*
X128098482Y-127781123D01*
X128054280Y-127814311D01*
X127923976Y-127912146D01*
X127769640Y-128073649D01*
X127643754Y-128258191D01*
X127549699Y-128460816D01*
X127490000Y-128676081D01*
X127466262Y-128898206D01*
X123838196Y-128898206D01*
X123823863Y-128723872D01*
X123769442Y-128507213D01*
X123680365Y-128302351D01*
X123587218Y-128158368D01*
X123561833Y-128119128D01*
X123561831Y-128119125D01*
X123559025Y-128114788D01*
X123408681Y-127949562D01*
X123404630Y-127946363D01*
X123404626Y-127946359D01*
X123237425Y-127814311D01*
X123237421Y-127814309D01*
X123233370Y-127811109D01*
X123192064Y-127788307D01*
X123142095Y-127737875D01*
X123127323Y-127668432D01*
X123152439Y-127602027D01*
X123179791Y-127575420D01*
X123223614Y-127544161D01*
X123358871Y-127447684D01*
X123372751Y-127433853D01*
X123513446Y-127293648D01*
X123517107Y-127290000D01*
X123530902Y-127270803D01*
X123644446Y-127112788D01*
X123647464Y-127108588D01*
X123654878Y-127093588D01*
X123744147Y-126912964D01*
X123744148Y-126912962D01*
X123746441Y-126908322D01*
X123781142Y-126794107D01*
X123809876Y-126699534D01*
X123809876Y-126699532D01*
X123811381Y-126694580D01*
X123840540Y-126473101D01*
X123840622Y-126469751D01*
X123842085Y-126409876D01*
X123842085Y-126409872D01*
X123842167Y-126406511D01*
X123823863Y-126183872D01*
X123769442Y-125967213D01*
X123680365Y-125762351D01*
X123559025Y-125574788D01*
X123555551Y-125570970D01*
X123555544Y-125570961D01*
X123411446Y-125412599D01*
X123380394Y-125348753D01*
X123388790Y-125278255D01*
X123433967Y-125223487D01*
X123460411Y-125209818D01*
X123567063Y-125169836D01*
X123582660Y-125161297D01*
X123684735Y-125084796D01*
X123697296Y-125072235D01*
X123773797Y-124970160D01*
X123782335Y-124954565D01*
X123827489Y-124834117D01*
X123831116Y-124818862D01*
X123836642Y-124767997D01*
X123837011Y-124761183D01*
X123837011Y-124138626D01*
X123832536Y-124123387D01*
X123831146Y-124122182D01*
X123823463Y-124120511D01*
X121139127Y-124120511D01*
X121123888Y-124124986D01*
X121122683Y-124126376D01*
X121121012Y-124134059D01*
X121121012Y-124761180D01*
X121121382Y-124768001D01*
X121126906Y-124818863D01*
X121130532Y-124834115D01*
X121175687Y-124954565D01*
X121184225Y-124970160D01*
X121260726Y-125072235D01*
X121273287Y-125084796D01*
X121375362Y-125161297D01*
X121390957Y-125169835D01*
X121499838Y-125210653D01*
X121556602Y-125253295D01*
X121581302Y-125319856D01*
X121566094Y-125389205D01*
X121546702Y-125415686D01*
X121433974Y-125533649D01*
X121419640Y-125548649D01*
X121416726Y-125552921D01*
X121416725Y-125552922D01*
X121398849Y-125579128D01*
X121293754Y-125733191D01*
X121278014Y-125767101D01*
X121204345Y-125925808D01*
X121199699Y-125935816D01*
X121140000Y-126151081D01*
X121116262Y-126373206D01*
X121116559Y-126378359D01*
X121116559Y-126378362D01*
X121122022Y-126473101D01*
X121129121Y-126596226D01*
X121130258Y-126601272D01*
X121130259Y-126601278D01*
X121144521Y-126664562D01*
X121178233Y-126814150D01*
X121216472Y-126908322D01*
X121250810Y-126992886D01*
X121262277Y-127021127D01*
X121264976Y-127025531D01*
X121375666Y-127206161D01*
X121378998Y-127211599D01*
X121525261Y-127380449D01*
X121697137Y-127523143D01*
X121760929Y-127560420D01*
X121770456Y-127565987D01*
X121819180Y-127617625D01*
X121832251Y-127687408D01*
X121805520Y-127753180D01*
X121765066Y-127786538D01*
X121752618Y-127793018D01*
X121748485Y-127796121D01*
X121748482Y-127796123D01*
X121578111Y-127924041D01*
X121573976Y-127927146D01*
X121557440Y-127944450D01*
X121437546Y-128069912D01*
X121419640Y-128088649D01*
X121416726Y-128092921D01*
X121416725Y-128092922D01*
X121365535Y-128167964D01*
X121293754Y-128273191D01*
X121278014Y-128307101D01*
X121204345Y-128465808D01*
X121199699Y-128475816D01*
X121140000Y-128691081D01*
X121116262Y-128913206D01*
X115511191Y-128913206D01*
X115532439Y-128857027D01*
X115559791Y-128830420D01*
X115603614Y-128799161D01*
X115738871Y-128702684D01*
X115897107Y-128545000D01*
X115946821Y-128475816D01*
X116024446Y-128367788D01*
X116027464Y-128363588D01*
X116048331Y-128321368D01*
X116124147Y-128167964D01*
X116124148Y-128167962D01*
X116126441Y-128163322D01*
X116191381Y-127949580D01*
X116220540Y-127728101D01*
X116221821Y-127675685D01*
X116222085Y-127664876D01*
X116222085Y-127664872D01*
X116222167Y-127661511D01*
X116203863Y-127438872D01*
X116149442Y-127222213D01*
X116060365Y-127017351D01*
X115939025Y-126829788D01*
X115788681Y-126664562D01*
X115784630Y-126661363D01*
X115784626Y-126661359D01*
X115617425Y-126529311D01*
X115617421Y-126529309D01*
X115613370Y-126526109D01*
X115417800Y-126418149D01*
X115412931Y-126416425D01*
X115412927Y-126416423D01*
X115212098Y-126345306D01*
X115212094Y-126345305D01*
X115207223Y-126343580D01*
X115202130Y-126342673D01*
X115202127Y-126342672D01*
X114992384Y-126305311D01*
X114992378Y-126305310D01*
X114987295Y-126304405D01*
X114913463Y-126303503D01*
X114769092Y-126301739D01*
X114769090Y-126301739D01*
X114763922Y-126301676D01*
X114543102Y-126335466D01*
X114330767Y-126404868D01*
X114300454Y-126420648D01*
X114228508Y-126458101D01*
X114132618Y-126508018D01*
X114128485Y-126511121D01*
X114128482Y-126511123D01*
X114008407Y-126601278D01*
X113953976Y-126642146D01*
X113950404Y-126645884D01*
X113808759Y-126794107D01*
X113799640Y-126803649D01*
X113692212Y-126961132D01*
X113637304Y-127006132D01*
X113566779Y-127014303D01*
X113503032Y-126983049D01*
X113482335Y-126958565D01*
X113401833Y-126834128D01*
X113401831Y-126834125D01*
X113399025Y-126829788D01*
X113248681Y-126664562D01*
X113244630Y-126661363D01*
X113244626Y-126661359D01*
X113077425Y-126529311D01*
X113077421Y-126529309D01*
X113073370Y-126526109D01*
X112877800Y-126418149D01*
X112872931Y-126416425D01*
X112872927Y-126416423D01*
X112672098Y-126345306D01*
X112672094Y-126345305D01*
X112667223Y-126343580D01*
X112662130Y-126342673D01*
X112662127Y-126342672D01*
X112452384Y-126305311D01*
X112452378Y-126305310D01*
X112447295Y-126304405D01*
X112373463Y-126303503D01*
X112229092Y-126301739D01*
X112229090Y-126301739D01*
X112223922Y-126301676D01*
X112003102Y-126335466D01*
X111790767Y-126404868D01*
X111760454Y-126420648D01*
X111688508Y-126458101D01*
X111592618Y-126508018D01*
X111588485Y-126511121D01*
X111588482Y-126511123D01*
X111468407Y-126601278D01*
X111413976Y-126642146D01*
X111410404Y-126645884D01*
X111268759Y-126794107D01*
X111259640Y-126803649D01*
X111133754Y-126988191D01*
X111039699Y-127190816D01*
X110980000Y-127406081D01*
X110978752Y-127405735D01*
X110946809Y-127466057D01*
X109068906Y-129343960D01*
X109060632Y-129350946D01*
X109060831Y-129351176D01*
X109056286Y-129355099D01*
X109051400Y-129358565D01*
X109036502Y-129374128D01*
X108987298Y-129425527D01*
X108985375Y-129427491D01*
X108957815Y-129455051D01*
X108955905Y-129457363D01*
X108955903Y-129457366D01*
X108953090Y-129460772D01*
X108946968Y-129467656D01*
X108905130Y-129511361D01*
X108901878Y-129516397D01*
X108901875Y-129516401D01*
X108886958Y-129539503D01*
X108878263Y-129551384D01*
X108856931Y-129577216D01*
X108854057Y-129582477D01*
X108827924Y-129630308D01*
X108823213Y-129638228D01*
X108790391Y-129689059D01*
X108788147Y-129694627D01*
X108788146Y-129694629D01*
X108777869Y-129720130D01*
X108771576Y-129733443D01*
X108755515Y-129762840D01*
X108753687Y-129768552D01*
X108753684Y-129768558D01*
X108737070Y-129820462D01*
X108733939Y-129829136D01*
X108711325Y-129885248D01*
X108710175Y-129891138D01*
X108704906Y-129918119D01*
X108701243Y-129932386D01*
X108691030Y-129964292D01*
X108690316Y-129970239D01*
X108690314Y-129970246D01*
X108683813Y-130024357D01*
X108682377Y-130033478D01*
X108670783Y-130092848D01*
X108670511Y-130098410D01*
X108670511Y-130127551D01*
X108669612Y-130142579D01*
X108666515Y-130168356D01*
X108666515Y-130168362D01*
X108665801Y-130174304D01*
X108666224Y-130180279D01*
X108666224Y-130180282D01*
X108670196Y-130236374D01*
X108670511Y-130245273D01*
X108670511Y-137874357D01*
X108685559Y-138032077D01*
X108745103Y-138235045D01*
X108747847Y-138240372D01*
X108747847Y-138240373D01*
X108790569Y-138323322D01*
X108841953Y-138423091D01*
X108972615Y-138589431D01*
X108977146Y-138593363D01*
X108977149Y-138593366D01*
X109068033Y-138672231D01*
X109132374Y-138728063D01*
X109137560Y-138731063D01*
X109137564Y-138731066D01*
X109233968Y-138786837D01*
X109315465Y-138833984D01*
X109515282Y-138903372D01*
X109521217Y-138904233D01*
X109521219Y-138904233D01*
X109718675Y-138932863D01*
X109718678Y-138932863D01*
X109724615Y-138933724D01*
X109903214Y-138925457D01*
X109972186Y-138942288D01*
X110021110Y-138993736D01*
X110034452Y-139063468D01*
X110007977Y-139129343D01*
X109998134Y-139140417D01*
X103908491Y-145230061D01*
X103902226Y-145235915D01*
X103858626Y-145273950D01*
X103854259Y-145280164D01*
X103821883Y-145326230D01*
X103817950Y-145331525D01*
X103778535Y-145381793D01*
X103775412Y-145388709D01*
X103774028Y-145390995D01*
X103765654Y-145405676D01*
X103764389Y-145408036D01*
X103760021Y-145414250D01*
X103757261Y-145421329D01*
X103757260Y-145421331D01*
X103736809Y-145473786D01*
X103734258Y-145479855D01*
X103707966Y-145538084D01*
X103706582Y-145545551D01*
X103705781Y-145548106D01*
X103701152Y-145564359D01*
X103700489Y-145566939D01*
X103697729Y-145574020D01*
X103696738Y-145581551D01*
X103696737Y-145581553D01*
X103689390Y-145637363D01*
X103688359Y-145643870D01*
X103676715Y-145706697D01*
X103677152Y-145714277D01*
X103677152Y-145714278D01*
X103680302Y-145768903D01*
X103680511Y-145776157D01*
X103680511Y-149448092D01*
X103660509Y-149516213D01*
X103606853Y-149562706D01*
X103536579Y-149572810D01*
X103471999Y-149543316D01*
X103432552Y-149479746D01*
X103406354Y-149378808D01*
X103406353Y-149378804D01*
X103405012Y-149373639D01*
X103310323Y-149163436D01*
X103181570Y-148972192D01*
X103022435Y-148805376D01*
X102837469Y-148667757D01*
X102832718Y-148665341D01*
X102832714Y-148665339D01*
X102704702Y-148600255D01*
X102631960Y-148563271D01*
X102626866Y-148561689D01*
X102626863Y-148561688D01*
X102416882Y-148496487D01*
X102411784Y-148494904D01*
X102394121Y-148492563D01*
X102188522Y-148465313D01*
X102188517Y-148465313D01*
X102183237Y-148464613D01*
X102177908Y-148464813D01*
X102177906Y-148464813D01*
X102079379Y-148468512D01*
X101952853Y-148473262D01*
X101947634Y-148474357D01*
X101927860Y-148478506D01*
X101727220Y-148520604D01*
X101722261Y-148522562D01*
X101722259Y-148522563D01*
X101517755Y-148603326D01*
X101517753Y-148603327D01*
X101512790Y-148605287D01*
X101508231Y-148608054D01*
X101508228Y-148608055D01*
X101409843Y-148667757D01*
X101315694Y-148724888D01*
X101311664Y-148728385D01*
X101152444Y-148866549D01*
X101141566Y-148875988D01*
X101138179Y-148880119D01*
X100998771Y-149050138D01*
X100998767Y-149050144D01*
X100995387Y-149054266D01*
X100977459Y-149085761D01*
X100926379Y-149135066D01*
X100856749Y-149148928D01*
X100790678Y-149122945D01*
X100763438Y-149093795D01*
X100732139Y-149047305D01*
X100681570Y-148972192D01*
X100522435Y-148805376D01*
X100337469Y-148667757D01*
X100332718Y-148665341D01*
X100332714Y-148665339D01*
X100204702Y-148600255D01*
X100131960Y-148563271D01*
X100126866Y-148561689D01*
X100126863Y-148561688D01*
X99916882Y-148496487D01*
X99911784Y-148494904D01*
X99894121Y-148492563D01*
X99688522Y-148465313D01*
X99688517Y-148465313D01*
X99683237Y-148464613D01*
X99677908Y-148464813D01*
X99677906Y-148464813D01*
X99579379Y-148468512D01*
X99452853Y-148473262D01*
X99447634Y-148474357D01*
X99427860Y-148478506D01*
X99227220Y-148520604D01*
X99222261Y-148522562D01*
X99222259Y-148522563D01*
X99017755Y-148603326D01*
X99017753Y-148603327D01*
X99012790Y-148605287D01*
X99008231Y-148608054D01*
X99008228Y-148608055D01*
X98909843Y-148667757D01*
X98815694Y-148724888D01*
X98811664Y-148728385D01*
X98652444Y-148866549D01*
X98641566Y-148875988D01*
X98638179Y-148880119D01*
X98612005Y-148912040D01*
X98553345Y-148952035D01*
X98482375Y-148953966D01*
X98421627Y-148917221D01*
X98407427Y-148898452D01*
X98320948Y-148758704D01*
X98311912Y-148747303D01*
X98197182Y-148632772D01*
X98185771Y-148623760D01*
X98047768Y-148538695D01*
X98034587Y-148532548D01*
X97880301Y-148481373D01*
X97866925Y-148478506D01*
X97772573Y-148468839D01*
X97766156Y-148468511D01*
X97391126Y-148468511D01*
X97375887Y-148472986D01*
X97374682Y-148474376D01*
X97373011Y-148482059D01*
X97373011Y-151316395D01*
X97377486Y-151331634D01*
X97378876Y-151332839D01*
X97386559Y-151334510D01*
X97766106Y-151334510D01*
X97772625Y-151334173D01*
X97868217Y-151324254D01*
X97881611Y-151321362D01*
X98035795Y-151269923D01*
X98048973Y-151263750D01*
X98186818Y-151178448D01*
X98198219Y-151169412D01*
X98312750Y-151054682D01*
X98321764Y-151043268D01*
X98407734Y-150903798D01*
X98460506Y-150856304D01*
X98530577Y-150844880D01*
X98595701Y-150873154D01*
X98606160Y-150882937D01*
X98715587Y-150997646D01*
X98900553Y-151135265D01*
X98905304Y-151137681D01*
X98905308Y-151137683D01*
X98967715Y-151169412D01*
X99106062Y-151239751D01*
X99111156Y-151241333D01*
X99111159Y-151241334D01*
X99281589Y-151294254D01*
X99326238Y-151308118D01*
X99331527Y-151308819D01*
X99549500Y-151337709D01*
X99549505Y-151337709D01*
X99554785Y-151338409D01*
X99560114Y-151338209D01*
X99560116Y-151338209D01*
X99669977Y-151334085D01*
X99785169Y-151329760D01*
X99790479Y-151328646D01*
X99972593Y-151290435D01*
X100010802Y-151282418D01*
X100015761Y-151280460D01*
X100015763Y-151280459D01*
X100220267Y-151199696D01*
X100220269Y-151199695D01*
X100225232Y-151197735D01*
X100232238Y-151193484D01*
X100417768Y-151080901D01*
X100417767Y-151080901D01*
X100422328Y-151078134D01*
X100497076Y-151013271D01*
X100592423Y-150930534D01*
X100592425Y-150930532D01*
X100596456Y-150927034D01*
X100654451Y-150856304D01*
X100739251Y-150752884D01*
X100739255Y-150752878D01*
X100742635Y-150748756D01*
X100760563Y-150717261D01*
X100811643Y-150667956D01*
X100881273Y-150654094D01*
X100947344Y-150680077D01*
X100974584Y-150709227D01*
X101056452Y-150830830D01*
X101060131Y-150834687D01*
X101060133Y-150834689D01*
X101115667Y-150892903D01*
X101215587Y-150997646D01*
X101400553Y-151135265D01*
X101405304Y-151137681D01*
X101405308Y-151137683D01*
X101467715Y-151169412D01*
X101606062Y-151239751D01*
X101611156Y-151241333D01*
X101611159Y-151241334D01*
X101781589Y-151294254D01*
X101826238Y-151308118D01*
X101831527Y-151308819D01*
X102049500Y-151337709D01*
X102049505Y-151337709D01*
X102054785Y-151338409D01*
X102060114Y-151338209D01*
X102060116Y-151338209D01*
X102169977Y-151334085D01*
X102285169Y-151329760D01*
X102290479Y-151328646D01*
X102472593Y-151290435D01*
X102510802Y-151282418D01*
X102515761Y-151280460D01*
X102515763Y-151280459D01*
X102720267Y-151199696D01*
X102720269Y-151199695D01*
X102725232Y-151197735D01*
X102732238Y-151193484D01*
X102917768Y-151080901D01*
X102917767Y-151080901D01*
X102922328Y-151078134D01*
X102997076Y-151013271D01*
X103092423Y-150930534D01*
X103092425Y-150930532D01*
X103096456Y-150927034D01*
X103154451Y-150856304D01*
X103239251Y-150752884D01*
X103239255Y-150752878D01*
X103242635Y-150748756D01*
X103248126Y-150739111D01*
X103354043Y-150553040D01*
X103356686Y-150548397D01*
X103435348Y-150331686D01*
X103437060Y-150332307D01*
X103469921Y-150278610D01*
X103533836Y-150247702D01*
X103604316Y-150256255D01*
X103658983Y-150301555D01*
X103680511Y-150371994D01*
X103680511Y-152485850D01*
X103660509Y-152553971D01*
X103643606Y-152574945D01*
X101432446Y-154786106D01*
X101370134Y-154820131D01*
X101343351Y-154823011D01*
X98447923Y-154823011D01*
X98439353Y-154822719D01*
X98389235Y-154819302D01*
X98389231Y-154819302D01*
X98381659Y-154818786D01*
X98374182Y-154820091D01*
X98374181Y-154820091D01*
X98347703Y-154824712D01*
X98318708Y-154829773D01*
X98312190Y-154830734D01*
X98248769Y-154838409D01*
X98241668Y-154841092D01*
X98239059Y-154841733D01*
X98222749Y-154846196D01*
X98220213Y-154846961D01*
X98212727Y-154848268D01*
X98176140Y-154864329D01*
X98154216Y-154873953D01*
X98148112Y-154876444D01*
X98088355Y-154899024D01*
X98082092Y-154903328D01*
X98079726Y-154904565D01*
X98064914Y-154912810D01*
X98062660Y-154914143D01*
X98055706Y-154917196D01*
X98005009Y-154956098D01*
X97999679Y-154959970D01*
X97953291Y-154991850D01*
X97953286Y-154991855D01*
X97947030Y-154996154D01*
X97941979Y-155001824D01*
X97941977Y-155001825D01*
X97905576Y-155042681D01*
X97900595Y-155047957D01*
X97371947Y-155576605D01*
X97309635Y-155610631D01*
X97271873Y-155613031D01*
X97079011Y-155596158D01*
X96857548Y-155615533D01*
X96713960Y-155654008D01*
X96648125Y-155671648D01*
X96648123Y-155671649D01*
X96642815Y-155673071D01*
X96637834Y-155675393D01*
X96637833Y-155675394D01*
X96446322Y-155764697D01*
X96446317Y-155764700D01*
X96441335Y-155767023D01*
X96436828Y-155770179D01*
X96436826Y-155770180D01*
X96263741Y-155891375D01*
X96263738Y-155891377D01*
X96259230Y-155894534D01*
X96102034Y-156051730D01*
X96098877Y-156056238D01*
X96098875Y-156056241D01*
X95977680Y-156229326D01*
X95974523Y-156233835D01*
X95972200Y-156238817D01*
X95972197Y-156238822D01*
X95922930Y-156344476D01*
X95876012Y-156397761D01*
X95807735Y-156417222D01*
X95739775Y-156396680D01*
X95694540Y-156344476D01*
X95645388Y-156239070D01*
X95639908Y-156229579D01*
X95609217Y-156185746D01*
X95598740Y-156177371D01*
X95585293Y-156184439D01*
X94911033Y-156858699D01*
X94903419Y-156872643D01*
X94173367Y-156872643D01*
X94174603Y-156870379D01*
X94174472Y-156868546D01*
X94170221Y-156861931D01*
X93492008Y-156183718D01*
X93480234Y-156177288D01*
X93468218Y-156186585D01*
X93438114Y-156229579D01*
X93432634Y-156239070D01*
X93343366Y-156430504D01*
X93339620Y-156440796D01*
X93284952Y-156644820D01*
X93283049Y-156655615D01*
X93264639Y-156866036D01*
X93264639Y-156876986D01*
X92000000Y-156876986D01*
X92000000Y-155811782D01*
X93844871Y-155811782D01*
X93851939Y-155825229D01*
X94526199Y-156499489D01*
X94540143Y-156507103D01*
X94541976Y-156506972D01*
X94548591Y-156502721D01*
X95226804Y-155824508D01*
X95233234Y-155812734D01*
X95223937Y-155800718D01*
X95180942Y-155770613D01*
X95171456Y-155765135D01*
X94980018Y-155675866D01*
X94969726Y-155672120D01*
X94765702Y-155617452D01*
X94754907Y-155615549D01*
X94544486Y-155597139D01*
X94533536Y-155597139D01*
X94323115Y-155615549D01*
X94312320Y-155617452D01*
X94108296Y-155672120D01*
X94098004Y-155675866D01*
X93906570Y-155765134D01*
X93897079Y-155770614D01*
X93853246Y-155801305D01*
X93844871Y-155811782D01*
X92000000Y-155811782D01*
X92000000Y-150623606D01*
X95761012Y-150623606D01*
X95761349Y-150630125D01*
X95771268Y-150725717D01*
X95774160Y-150739111D01*
X95825599Y-150893295D01*
X95831772Y-150906473D01*
X95917074Y-151044318D01*
X95926110Y-151055719D01*
X96040840Y-151170250D01*
X96052251Y-151179262D01*
X96190254Y-151264327D01*
X96203435Y-151270474D01*
X96357721Y-151321649D01*
X96371097Y-151324516D01*
X96465449Y-151334183D01*
X96471865Y-151334511D01*
X96846896Y-151334511D01*
X96862135Y-151330036D01*
X96863340Y-151328646D01*
X96865011Y-151320963D01*
X96865011Y-150173626D01*
X96860536Y-150158387D01*
X96859146Y-150157182D01*
X96851463Y-150155511D01*
X95779127Y-150155511D01*
X95763888Y-150159986D01*
X95762683Y-150161376D01*
X95761012Y-150169059D01*
X95761012Y-150623606D01*
X92000000Y-150623606D01*
X92000000Y-149629396D01*
X95761011Y-149629396D01*
X95765486Y-149644635D01*
X95766876Y-149645840D01*
X95774559Y-149647511D01*
X96846896Y-149647511D01*
X96862135Y-149643036D01*
X96863340Y-149641646D01*
X96865011Y-149633963D01*
X96865011Y-148486627D01*
X96860536Y-148471388D01*
X96859146Y-148470183D01*
X96851463Y-148468512D01*
X96471916Y-148468512D01*
X96465397Y-148468849D01*
X96369805Y-148478768D01*
X96356411Y-148481660D01*
X96202227Y-148533099D01*
X96189049Y-148539272D01*
X96051204Y-148624574D01*
X96039803Y-148633610D01*
X95925272Y-148748340D01*
X95916260Y-148759751D01*
X95831195Y-148897754D01*
X95825048Y-148910935D01*
X95773873Y-149065221D01*
X95771006Y-149078597D01*
X95761339Y-149172949D01*
X95761011Y-149179366D01*
X95761011Y-149629396D01*
X92000000Y-149629396D01*
X92000000Y-141631511D01*
X97073658Y-141631511D01*
X97093033Y-141852974D01*
X97111361Y-141921375D01*
X97144125Y-142043649D01*
X97150571Y-142067707D01*
X97152893Y-142072688D01*
X97152894Y-142072689D01*
X97242197Y-142264200D01*
X97242200Y-142264205D01*
X97244523Y-142269187D01*
X97247679Y-142273694D01*
X97247680Y-142273696D01*
X97368770Y-142446630D01*
X97372034Y-142451292D01*
X97435457Y-142514715D01*
X97469483Y-142577027D01*
X97464418Y-142647842D01*
X97441530Y-142686387D01*
X97312939Y-142834574D01*
X97309939Y-142839760D01*
X97309936Y-142839764D01*
X97233772Y-142971419D01*
X97207018Y-143017665D01*
X97137630Y-143217482D01*
X97136769Y-143223417D01*
X97136769Y-143223419D01*
X97111403Y-143398368D01*
X97107278Y-143426815D01*
X97117058Y-143638110D01*
X97118462Y-143643935D01*
X97118462Y-143643936D01*
X97153338Y-143788648D01*
X97166616Y-143843745D01*
X97169098Y-143849203D01*
X97169099Y-143849207D01*
X97207651Y-143933997D01*
X97254165Y-144036298D01*
X97376545Y-144208822D01*
X97529341Y-144355092D01*
X97707039Y-144469831D01*
X97745435Y-144485305D01*
X97897659Y-144546653D01*
X97897662Y-144546654D01*
X97903228Y-144548897D01*
X98110828Y-144589439D01*
X98116390Y-144589711D01*
X98935054Y-144589711D01*
X98945843Y-144590622D01*
X98945865Y-144590318D01*
X98951839Y-144590757D01*
X98957757Y-144591763D01*
X99050411Y-144589741D01*
X99053159Y-144589711D01*
X99092157Y-144589711D01*
X99095136Y-144589427D01*
X99095154Y-144589426D01*
X99099533Y-144589008D01*
X99108747Y-144588468D01*
X99140399Y-144587777D01*
X99163231Y-144587279D01*
X99163232Y-144587279D01*
X99169228Y-144587148D01*
X99175086Y-144585887D01*
X99175093Y-144585886D01*
X99201985Y-144580096D01*
X99216537Y-144577844D01*
X99229918Y-144576567D01*
X99249877Y-144574663D01*
X99255638Y-144572973D01*
X99307924Y-144557635D01*
X99316872Y-144555363D01*
X99370147Y-144543893D01*
X99370158Y-144543890D01*
X99376013Y-144542629D01*
X99381529Y-144540282D01*
X99381532Y-144540281D01*
X99406843Y-144529511D01*
X99420692Y-144524552D01*
X99452845Y-144515119D01*
X99506637Y-144487414D01*
X99514971Y-144483501D01*
X99570647Y-144459811D01*
X99598441Y-144441099D01*
X99611108Y-144433608D01*
X99635557Y-144421017D01*
X99635564Y-144421013D01*
X99640891Y-144418269D01*
X99667011Y-144397752D01*
X99688454Y-144380908D01*
X99695920Y-144375474D01*
X99742344Y-144344220D01*
X99742359Y-144344209D01*
X99746110Y-144341683D01*
X99750235Y-144337942D01*
X99770840Y-144317337D01*
X99782102Y-144307346D01*
X99802514Y-144291313D01*
X99802519Y-144291309D01*
X99807231Y-144287607D01*
X99811163Y-144283076D01*
X99811168Y-144283071D01*
X99848027Y-144240595D01*
X99854097Y-144234080D01*
X101209836Y-142878342D01*
X101266320Y-142845730D01*
X101319893Y-142831375D01*
X101319894Y-142831375D01*
X101325207Y-142829951D01*
X101419407Y-142786025D01*
X101521701Y-142738325D01*
X101521706Y-142738322D01*
X101526688Y-142735999D01*
X101652589Y-142647842D01*
X101704281Y-142611647D01*
X101704284Y-142611645D01*
X101708792Y-142608488D01*
X101865988Y-142451292D01*
X101869253Y-142446630D01*
X101990342Y-142273696D01*
X101990343Y-142273694D01*
X101993499Y-142269187D01*
X101995822Y-142264205D01*
X101995825Y-142264200D01*
X102085128Y-142072689D01*
X102085129Y-142072688D01*
X102087451Y-142067707D01*
X102093898Y-142043649D01*
X102126661Y-141921375D01*
X102144989Y-141852974D01*
X102164364Y-141631511D01*
X102144989Y-141410048D01*
X102087451Y-141195315D01*
X102064169Y-141145387D01*
X101995825Y-140998822D01*
X101995822Y-140998817D01*
X101993499Y-140993835D01*
X101990342Y-140989326D01*
X101869147Y-140816241D01*
X101869145Y-140816238D01*
X101865988Y-140811730D01*
X101708792Y-140654534D01*
X101704284Y-140651377D01*
X101704281Y-140651375D01*
X101531195Y-140530179D01*
X101526688Y-140527023D01*
X101521706Y-140524700D01*
X101521701Y-140524697D01*
X101330189Y-140435394D01*
X101330188Y-140435393D01*
X101325207Y-140433071D01*
X101319899Y-140431649D01*
X101319897Y-140431648D01*
X101225170Y-140406266D01*
X101110474Y-140375533D01*
X100889011Y-140356158D01*
X100667548Y-140375533D01*
X100552852Y-140406266D01*
X100458125Y-140431648D01*
X100458123Y-140431649D01*
X100452815Y-140433071D01*
X100447834Y-140435393D01*
X100447833Y-140435394D01*
X100256322Y-140524697D01*
X100256317Y-140524700D01*
X100251335Y-140527023D01*
X100192031Y-140568548D01*
X100073741Y-140651375D01*
X100073738Y-140651377D01*
X100069230Y-140654534D01*
X99912034Y-140811730D01*
X99908877Y-140816238D01*
X99908875Y-140816241D01*
X99787680Y-140989326D01*
X99784523Y-140993835D01*
X99782200Y-140998817D01*
X99782197Y-140998822D01*
X99733206Y-141103884D01*
X99686288Y-141157169D01*
X99618011Y-141176630D01*
X99550051Y-141156088D01*
X99504816Y-141103884D01*
X99455825Y-140998822D01*
X99455822Y-140998817D01*
X99453499Y-140993835D01*
X99450342Y-140989326D01*
X99329147Y-140816241D01*
X99329145Y-140816238D01*
X99325988Y-140811730D01*
X99168792Y-140654534D01*
X99164284Y-140651377D01*
X99164281Y-140651375D01*
X98991195Y-140530179D01*
X98986688Y-140527023D01*
X98981706Y-140524700D01*
X98981701Y-140524697D01*
X98790189Y-140435394D01*
X98790188Y-140435393D01*
X98785207Y-140433071D01*
X98779899Y-140431649D01*
X98779897Y-140431648D01*
X98685170Y-140406266D01*
X98570474Y-140375533D01*
X98349011Y-140356158D01*
X98127548Y-140375533D01*
X98012852Y-140406266D01*
X97918125Y-140431648D01*
X97918123Y-140431649D01*
X97912815Y-140433071D01*
X97907834Y-140435393D01*
X97907833Y-140435394D01*
X97716322Y-140524697D01*
X97716317Y-140524700D01*
X97711335Y-140527023D01*
X97652031Y-140568548D01*
X97533741Y-140651375D01*
X97533738Y-140651377D01*
X97529230Y-140654534D01*
X97372034Y-140811730D01*
X97368877Y-140816238D01*
X97368875Y-140816241D01*
X97247680Y-140989326D01*
X97244523Y-140993835D01*
X97242200Y-140998817D01*
X97242197Y-140998822D01*
X97173853Y-141145387D01*
X97150571Y-141195315D01*
X97093033Y-141410048D01*
X97073658Y-141631511D01*
X92000000Y-141631511D01*
X92000000Y-134011511D01*
X97073658Y-134011511D01*
X97093033Y-134232974D01*
X97109401Y-134294059D01*
X97145270Y-134427922D01*
X97150571Y-134447707D01*
X97152893Y-134452688D01*
X97152894Y-134452689D01*
X97242197Y-134644200D01*
X97242200Y-134644205D01*
X97244523Y-134649187D01*
X97247679Y-134653694D01*
X97247680Y-134653696D01*
X97368770Y-134826630D01*
X97372034Y-134831292D01*
X97529230Y-134988488D01*
X97533738Y-134991645D01*
X97533741Y-134991647D01*
X97537266Y-134994115D01*
X97711334Y-135115999D01*
X97716316Y-135118322D01*
X97716321Y-135118325D01*
X97907829Y-135207626D01*
X97912815Y-135209951D01*
X97918123Y-135211373D01*
X97918125Y-135211374D01*
X97983960Y-135229014D01*
X98127548Y-135267489D01*
X98349011Y-135286864D01*
X98570474Y-135267489D01*
X98714062Y-135229014D01*
X98779897Y-135211374D01*
X98779899Y-135211373D01*
X98785207Y-135209951D01*
X98790193Y-135207626D01*
X98981701Y-135118325D01*
X98981706Y-135118322D01*
X98986688Y-135115999D01*
X99160756Y-134994115D01*
X99164281Y-134991647D01*
X99164284Y-134991645D01*
X99168792Y-134988488D01*
X99325988Y-134831292D01*
X99329253Y-134826630D01*
X99450342Y-134653696D01*
X99450343Y-134653694D01*
X99453499Y-134649187D01*
X99455822Y-134644205D01*
X99455825Y-134644200D01*
X99504816Y-134539138D01*
X99551734Y-134485853D01*
X99620011Y-134466392D01*
X99687971Y-134486934D01*
X99733206Y-134539138D01*
X99782197Y-134644200D01*
X99782200Y-134644205D01*
X99784523Y-134649187D01*
X99787679Y-134653694D01*
X99787680Y-134653696D01*
X99908770Y-134826630D01*
X99912034Y-134831292D01*
X100069230Y-134988488D01*
X100073738Y-134991645D01*
X100073741Y-134991647D01*
X100077266Y-134994115D01*
X100251334Y-135115999D01*
X100256316Y-135118322D01*
X100256321Y-135118325D01*
X100281702Y-135130160D01*
X100452815Y-135209951D01*
X100458126Y-135211374D01*
X100458129Y-135211375D01*
X100511702Y-135225730D01*
X100568186Y-135258342D01*
X100946850Y-135637006D01*
X100953836Y-135645280D01*
X100954066Y-135645081D01*
X100957989Y-135649626D01*
X100961455Y-135654512D01*
X100965782Y-135658654D01*
X101028418Y-135718615D01*
X101030382Y-135720538D01*
X101057941Y-135748097D01*
X101060253Y-135750007D01*
X101060256Y-135750009D01*
X101063662Y-135752822D01*
X101070546Y-135758944D01*
X101114251Y-135800782D01*
X101119287Y-135804034D01*
X101119291Y-135804037D01*
X101142393Y-135818954D01*
X101154275Y-135827650D01*
X101175482Y-135845163D01*
X101175485Y-135845165D01*
X101180106Y-135848981D01*
X101200741Y-135860255D01*
X101233198Y-135877988D01*
X101241118Y-135882699D01*
X101291949Y-135915521D01*
X101297517Y-135917765D01*
X101297519Y-135917766D01*
X101323020Y-135928043D01*
X101336333Y-135934336D01*
X101365730Y-135950397D01*
X101371442Y-135952225D01*
X101371448Y-135952228D01*
X101423352Y-135968842D01*
X101432026Y-135971973D01*
X101488138Y-135994587D01*
X101521009Y-136001006D01*
X101535276Y-136004669D01*
X101561474Y-136013055D01*
X101561476Y-136013055D01*
X101567182Y-136014882D01*
X101573129Y-136015596D01*
X101573136Y-136015598D01*
X101627247Y-136022099D01*
X101636368Y-136023535D01*
X101662928Y-136028722D01*
X101695738Y-136035129D01*
X101701300Y-136035401D01*
X101730441Y-136035401D01*
X101745469Y-136036300D01*
X101771246Y-136039397D01*
X101771252Y-136039397D01*
X101777194Y-136040111D01*
X101783170Y-136039688D01*
X101783173Y-136039688D01*
X101839268Y-136035716D01*
X101848167Y-136035401D01*
X105106467Y-136035401D01*
X105264187Y-136020353D01*
X105467155Y-135960809D01*
X105472483Y-135958065D01*
X105649870Y-135866705D01*
X105649873Y-135866703D01*
X105655201Y-135863959D01*
X105821541Y-135733297D01*
X105825473Y-135728766D01*
X105825476Y-135728763D01*
X105956242Y-135578068D01*
X105960173Y-135573538D01*
X105963173Y-135568352D01*
X105963176Y-135568348D01*
X106063088Y-135395643D01*
X106066094Y-135390447D01*
X106135482Y-135190630D01*
X106163975Y-134994117D01*
X106164973Y-134987237D01*
X106164973Y-134987234D01*
X106165834Y-134981297D01*
X106156054Y-134770002D01*
X106106496Y-134564367D01*
X106018947Y-134371814D01*
X105896567Y-134199290D01*
X105743771Y-134053020D01*
X105566073Y-133938281D01*
X105473534Y-133900987D01*
X105375453Y-133861459D01*
X105375450Y-133861458D01*
X105369884Y-133859215D01*
X105162284Y-133818673D01*
X105156722Y-133818401D01*
X102315747Y-133818401D01*
X102247626Y-133798399D01*
X102226651Y-133781496D01*
X102135841Y-133690685D01*
X102103230Y-133634202D01*
X102088874Y-133580626D01*
X102088874Y-133580625D01*
X102087451Y-133575315D01*
X102026469Y-133444539D01*
X101995825Y-133378822D01*
X101995822Y-133378817D01*
X101993499Y-133373835D01*
X101961199Y-133327706D01*
X101869147Y-133196241D01*
X101869145Y-133196238D01*
X101865988Y-133191730D01*
X101708792Y-133034534D01*
X101704284Y-133031377D01*
X101704281Y-133031375D01*
X101549308Y-132922862D01*
X101526688Y-132907023D01*
X101521706Y-132904700D01*
X101521701Y-132904697D01*
X101330189Y-132815394D01*
X101330188Y-132815393D01*
X101325207Y-132813071D01*
X101319899Y-132811649D01*
X101319897Y-132811648D01*
X101254062Y-132794008D01*
X101110474Y-132755533D01*
X100889011Y-132736158D01*
X100667548Y-132755533D01*
X100523960Y-132794008D01*
X100458125Y-132811648D01*
X100458123Y-132811649D01*
X100452815Y-132813071D01*
X100447834Y-132815393D01*
X100447833Y-132815394D01*
X100256322Y-132904697D01*
X100256317Y-132904700D01*
X100251335Y-132907023D01*
X100246828Y-132910179D01*
X100246826Y-132910180D01*
X100073741Y-133031375D01*
X100073738Y-133031377D01*
X100069230Y-133034534D01*
X99912034Y-133191730D01*
X99908877Y-133196238D01*
X99908875Y-133196241D01*
X99816823Y-133327706D01*
X99784523Y-133373835D01*
X99782200Y-133378817D01*
X99782197Y-133378822D01*
X99733206Y-133483884D01*
X99686288Y-133537169D01*
X99618011Y-133556630D01*
X99550051Y-133536088D01*
X99504816Y-133483884D01*
X99455825Y-133378822D01*
X99455822Y-133378817D01*
X99453499Y-133373835D01*
X99421199Y-133327706D01*
X99329147Y-133196241D01*
X99329145Y-133196238D01*
X99325988Y-133191730D01*
X99168792Y-133034534D01*
X99164284Y-133031377D01*
X99164281Y-133031375D01*
X99009308Y-132922862D01*
X98986688Y-132907023D01*
X98981706Y-132904700D01*
X98981701Y-132904697D01*
X98790189Y-132815394D01*
X98790188Y-132815393D01*
X98785207Y-132813071D01*
X98779899Y-132811649D01*
X98779897Y-132811648D01*
X98714062Y-132794008D01*
X98570474Y-132755533D01*
X98349011Y-132736158D01*
X98127548Y-132755533D01*
X97983960Y-132794008D01*
X97918125Y-132811648D01*
X97918123Y-132811649D01*
X97912815Y-132813071D01*
X97907834Y-132815393D01*
X97907833Y-132815394D01*
X97716322Y-132904697D01*
X97716317Y-132904700D01*
X97711335Y-132907023D01*
X97706828Y-132910179D01*
X97706826Y-132910180D01*
X97533741Y-133031375D01*
X97533738Y-133031377D01*
X97529230Y-133034534D01*
X97372034Y-133191730D01*
X97368877Y-133196238D01*
X97368875Y-133196241D01*
X97276823Y-133327706D01*
X97244523Y-133373835D01*
X97242200Y-133378817D01*
X97242197Y-133378822D01*
X97152894Y-133570333D01*
X97150571Y-133575315D01*
X97093033Y-133790048D01*
X97073658Y-134011511D01*
X92000000Y-134011511D01*
X92000000Y-126132703D01*
X92390743Y-126132703D01*
X92391302Y-126136947D01*
X92391302Y-126136951D01*
X92398159Y-126189033D01*
X92428268Y-126417734D01*
X92504129Y-126695036D01*
X92505813Y-126698984D01*
X92592991Y-126903368D01*
X92616923Y-126959476D01*
X92654403Y-127022101D01*
X92761174Y-127200501D01*
X92764561Y-127206161D01*
X92944313Y-127430528D01*
X93026102Y-127508143D01*
X93144870Y-127620849D01*
X93152851Y-127628423D01*
X93386317Y-127796186D01*
X93390112Y-127798195D01*
X93390113Y-127798196D01*
X93409791Y-127808615D01*
X93640392Y-127930712D01*
X93910373Y-128029511D01*
X94191264Y-128090755D01*
X94218799Y-128092922D01*
X94414282Y-128108307D01*
X94414291Y-128108307D01*
X94416739Y-128108500D01*
X94572271Y-128108500D01*
X94574407Y-128108354D01*
X94574418Y-128108354D01*
X94782548Y-128094165D01*
X94782554Y-128094164D01*
X94786825Y-128093873D01*
X94791020Y-128093004D01*
X94791022Y-128093004D01*
X94927584Y-128064723D01*
X95068342Y-128035574D01*
X95339343Y-127939607D01*
X95594812Y-127807750D01*
X95598313Y-127805289D01*
X95598317Y-127805287D01*
X95778989Y-127678308D01*
X95830023Y-127642441D01*
X95978101Y-127504838D01*
X96037479Y-127449661D01*
X96037481Y-127449658D01*
X96040622Y-127446740D01*
X96222713Y-127224268D01*
X96372927Y-126979142D01*
X96406190Y-126903368D01*
X96486757Y-126719830D01*
X96488483Y-126715898D01*
X96493145Y-126699534D01*
X96548380Y-126505629D01*
X96567244Y-126439406D01*
X96607751Y-126154784D01*
X96607797Y-126146099D01*
X96609235Y-125871583D01*
X96609235Y-125871576D01*
X96609257Y-125867297D01*
X96571732Y-125582266D01*
X96562536Y-125548649D01*
X96526161Y-125415686D01*
X96495871Y-125304964D01*
X96481431Y-125271109D01*
X96384763Y-125044476D01*
X96384761Y-125044472D01*
X96383077Y-125040524D01*
X96250568Y-124819117D01*
X96237643Y-124797521D01*
X96237640Y-124797517D01*
X96235439Y-124793839D01*
X96055687Y-124569472D01*
X95847149Y-124371577D01*
X95613683Y-124203814D01*
X95591843Y-124192250D01*
X95490564Y-124138626D01*
X95359608Y-124069288D01*
X95089627Y-123970489D01*
X94808736Y-123909245D01*
X94777685Y-123906801D01*
X94585718Y-123891693D01*
X94585709Y-123891693D01*
X94583261Y-123891500D01*
X94427729Y-123891500D01*
X94425593Y-123891646D01*
X94425582Y-123891646D01*
X94217452Y-123905835D01*
X94217446Y-123905836D01*
X94213175Y-123906127D01*
X94208980Y-123906996D01*
X94208978Y-123906996D01*
X94072417Y-123935276D01*
X93931658Y-123964426D01*
X93660657Y-124060393D01*
X93405188Y-124192250D01*
X93401687Y-124194711D01*
X93401683Y-124194713D01*
X93391594Y-124201804D01*
X93169977Y-124357559D01*
X92959378Y-124553260D01*
X92777287Y-124775732D01*
X92627073Y-125020858D01*
X92625347Y-125024791D01*
X92625346Y-125024792D01*
X92514084Y-125278255D01*
X92511517Y-125284102D01*
X92510342Y-125288229D01*
X92510341Y-125288230D01*
X92493101Y-125348753D01*
X92432756Y-125560594D01*
X92392249Y-125845216D01*
X92392227Y-125849505D01*
X92392226Y-125849512D01*
X92390765Y-126128417D01*
X92390743Y-126132703D01*
X92000000Y-126132703D01*
X92000000Y-123594396D01*
X121121011Y-123594396D01*
X121125486Y-123609635D01*
X121126876Y-123610840D01*
X121134559Y-123612511D01*
X122206896Y-123612511D01*
X122222135Y-123608036D01*
X122223340Y-123606646D01*
X122225011Y-123598963D01*
X122225011Y-123594396D01*
X122733011Y-123594396D01*
X122737486Y-123609635D01*
X122738876Y-123610840D01*
X122746559Y-123612511D01*
X123818895Y-123612511D01*
X123834134Y-123608036D01*
X123835339Y-123606646D01*
X123837010Y-123598963D01*
X123837010Y-123579396D01*
X127471011Y-123579396D01*
X127475486Y-123594635D01*
X127476876Y-123595840D01*
X127484559Y-123597511D01*
X128556896Y-123597511D01*
X128572135Y-123593036D01*
X128573340Y-123591646D01*
X128575011Y-123583963D01*
X128575011Y-123579396D01*
X129083011Y-123579396D01*
X129087486Y-123594635D01*
X129088876Y-123595840D01*
X129096559Y-123597511D01*
X130168895Y-123597511D01*
X130184134Y-123593036D01*
X130185339Y-123591646D01*
X130187010Y-123583963D01*
X130187010Y-122956842D01*
X130186640Y-122950021D01*
X130181116Y-122899159D01*
X130177490Y-122883907D01*
X130132335Y-122763457D01*
X130123797Y-122747862D01*
X130047296Y-122645787D01*
X130034735Y-122633226D01*
X129932660Y-122556725D01*
X129917065Y-122548187D01*
X129796617Y-122503033D01*
X129781362Y-122499406D01*
X129730497Y-122493880D01*
X129723683Y-122493511D01*
X129101126Y-122493511D01*
X129085887Y-122497986D01*
X129084682Y-122499376D01*
X129083011Y-122507059D01*
X129083011Y-123579396D01*
X128575011Y-123579396D01*
X128575011Y-122511627D01*
X128570536Y-122496388D01*
X128569146Y-122495183D01*
X128561463Y-122493512D01*
X127934342Y-122493512D01*
X127927521Y-122493882D01*
X127876659Y-122499406D01*
X127861407Y-122503032D01*
X127740957Y-122548187D01*
X127725362Y-122556725D01*
X127623287Y-122633226D01*
X127610726Y-122645787D01*
X127534225Y-122747862D01*
X127525687Y-122763457D01*
X127480533Y-122883905D01*
X127476906Y-122899160D01*
X127471380Y-122950025D01*
X127471011Y-122956839D01*
X127471011Y-123579396D01*
X123837010Y-123579396D01*
X123837010Y-122971842D01*
X123836640Y-122965021D01*
X123831116Y-122914159D01*
X123827490Y-122898907D01*
X123782335Y-122778457D01*
X123773797Y-122762862D01*
X123697296Y-122660787D01*
X123684735Y-122648226D01*
X123582660Y-122571725D01*
X123567065Y-122563187D01*
X123446617Y-122518033D01*
X123431362Y-122514406D01*
X123380497Y-122508880D01*
X123373683Y-122508511D01*
X122751126Y-122508511D01*
X122735887Y-122512986D01*
X122734682Y-122514376D01*
X122733011Y-122522059D01*
X122733011Y-123594396D01*
X122225011Y-123594396D01*
X122225011Y-122526627D01*
X122220536Y-122511388D01*
X122219146Y-122510183D01*
X122211463Y-122508512D01*
X121584342Y-122508512D01*
X121577521Y-122508882D01*
X121526659Y-122514406D01*
X121511407Y-122518032D01*
X121390957Y-122563187D01*
X121375362Y-122571725D01*
X121273287Y-122648226D01*
X121260726Y-122660787D01*
X121184225Y-122762862D01*
X121175687Y-122778457D01*
X121130533Y-122898905D01*
X121126906Y-122914160D01*
X121121380Y-122965025D01*
X121121011Y-122971839D01*
X121121011Y-123594396D01*
X92000000Y-123594396D01*
X92000000Y-122126000D01*
X92020002Y-122057879D01*
X92073658Y-122011386D01*
X92126000Y-122000000D01*
X140874000Y-122000000D01*
X140942121Y-122020002D01*
G37*
G04 #@! TD.AperFunction*
M02*
