M48
; DRILL file {KiCad (6.0.1)} date Sun Feb  6 22:39:06 2022
; FORMAT={-:-/ absolute / inch / decimal}
; #@! TF.CreationDate,2022-02-06T22:39:06+01:00
; #@! TF.GenerationSoftware,Kicad,Pcbnew,(6.0.1)
; #@! TF.FileFunction,Plated,1,2,PTH
FMAT,2
INCH
; #@! TA.AperFunction,Plated,PTH,ViaDrill
T1C0.0157
; #@! TA.AperFunction,Plated,PTH,ComponentDrill
T2C0.0300
; #@! TA.AperFunction,Plated,PTH,ComponentDrill
T3C0.0335
; #@! TA.AperFunction,Plated,PTH,ComponentDrill
T4C0.0394
; #@! TA.AperFunction,Plated,PTH,ComponentDrill
T5C0.0598
%
G90
G05
T1
X3.8669Y-5.6489
X4.136Y-5.3121
X4.172Y-5.026
X4.222Y-5.9709
X4.322Y-5.426
X4.372Y-5.826
X4.8279Y-5.7707
X4.8669Y-5.526
X4.872Y-5.226
X5.122Y-6.926
X5.1771Y-5.376
T2
X3.722Y-6.176
X3.722Y-6.526
X3.722Y-6.876
X3.822Y-6.176
X3.822Y-6.526
X3.822Y-6.876
X3.872Y-5.276
X3.872Y-5.576
X3.922Y-6.176
X3.922Y-6.526
X3.922Y-6.876
X3.972Y-5.276
X3.972Y-5.576
X3.972Y-7.156
X3.972Y-7.256
X4.022Y-6.526
X4.022Y-6.876
X4.6689Y-6.5551
X4.672Y-6.926
X4.722Y-6.226
X4.7689Y-6.5551
X4.772Y-6.926
X4.822Y-6.226
X4.8689Y-6.5551
X4.872Y-6.926
X4.922Y-6.226
X4.922Y-7.156
X4.922Y-7.256
X4.9689Y-6.5551
X4.972Y-6.926
X5.022Y-5.326
X5.022Y-5.626
X5.122Y-5.326
X5.122Y-5.626
T3
X3.8236Y-5.9016
X3.922Y-5.9016
X4.0204Y-5.9016
X4.8252Y-5.9005
X4.9236Y-5.9005
X5.022Y-5.9005
T4
X4.3016Y-6.35
X4.3016Y-6.45
X4.3016Y-6.55
X4.3016Y-6.65
X4.3016Y-6.75
X4.3016Y-6.85
X4.3016Y-6.95
X4.3016Y-7.05
X4.4016Y-6.35
X4.4016Y-6.45
X4.4016Y-6.55
X4.4016Y-6.65
X4.4016Y-6.75
X4.4016Y-6.85
X4.4016Y-6.95
X4.4016Y-7.05
X4.422Y-5.026
X4.422Y-5.126
X4.422Y-5.226
X4.422Y-5.326
X4.422Y-5.426
X4.422Y-5.526
X4.422Y-5.626
X4.422Y-5.726
X4.522Y-5.026
X4.522Y-5.126
X4.522Y-5.226
X4.522Y-5.326
X4.522Y-5.426
X4.522Y-5.526
X4.522Y-5.626
X4.522Y-5.726
X4.822Y-4.8766
X4.822Y-4.9766
X4.822Y-5.0766
X5.072Y-4.876
X5.072Y-4.976
X5.072Y-5.076
X5.222Y-6.776
X5.322Y-6.776
X5.422Y-6.776
X5.472Y-5.2766
X5.472Y-5.3766
X5.472Y-5.4766
T5
X5.372Y-6.176
X5.372Y-6.376
T0
M30
