G04 #@! TF.GenerationSoftware,KiCad,Pcbnew,(6.0.1)*
G04 #@! TF.CreationDate,2022-02-06T22:38:44+01:00*
G04 #@! TF.ProjectId,CarteSecondaire,43617274-6553-4656-936f-6e6461697265,rev?*
G04 #@! TF.SameCoordinates,Original*
G04 #@! TF.FileFunction,Legend,Top*
G04 #@! TF.FilePolarity,Positive*
%FSLAX46Y46*%
G04 Gerber Fmt 4.6, Leading zero omitted, Abs format (unit mm)*
G04 Created by KiCad (PCBNEW (6.0.1)) date 2022-02-06 22:38:44*
%MOMM*%
%LPD*%
G01*
G04 APERTURE LIST*
G04 Aperture macros list*
%AMRoundRect*
0 Rectangle with rounded corners*
0 $1 Rounding radius*
0 $2 $3 $4 $5 $6 $7 $8 $9 X,Y pos of 4 corners*
0 Add a 4 corners polygon primitive as box body*
4,1,4,$2,$3,$4,$5,$6,$7,$8,$9,$2,$3,0*
0 Add four circle primitives for the rounded corners*
1,1,$1+$1,$2,$3*
1,1,$1+$1,$4,$5*
1,1,$1+$1,$6,$7*
1,1,$1+$1,$8,$9*
0 Add four rect primitives between the rounded corners*
20,1,$1+$1,$2,$3,$4,$5,0*
20,1,$1+$1,$4,$5,$6,$7,0*
20,1,$1+$1,$6,$7,$8,$9,0*
20,1,$1+$1,$8,$9,$2,$3,0*%
G04 Aperture macros list end*
%ADD10C,0.150000*%
%ADD11C,0.120000*%
%ADD12C,1.700000*%
%ADD13RoundRect,0.250000X0.600000X0.600000X-0.600000X0.600000X-0.600000X-0.600000X0.600000X-0.600000X0*%
%ADD14R,1.500000X2.500000*%
%ADD15O,1.500000X2.500000*%
%ADD16R,3.000000X3.000000*%
%ADD17C,3.000000*%
%ADD18RoundRect,0.250000X-0.475000X0.250000X-0.475000X-0.250000X0.475000X-0.250000X0.475000X0.250000X0*%
%ADD19R,1.100000X1.100000*%
%ADD20RoundRect,0.250000X-0.450000X0.262500X-0.450000X-0.262500X0.450000X-0.262500X0.450000X0.262500X0*%
%ADD21C,3.200000*%
%ADD22C,1.524000*%
%ADD23RoundRect,0.150000X0.150000X-0.587500X0.150000X0.587500X-0.150000X0.587500X-0.150000X-0.587500X0*%
%ADD24RoundRect,0.250000X0.262500X0.450000X-0.262500X0.450000X-0.262500X-0.450000X0.262500X-0.450000X0*%
%ADD25RoundRect,0.250000X-0.262500X-0.450000X0.262500X-0.450000X0.262500X0.450000X-0.262500X0.450000X0*%
%ADD26R,1.700000X1.700000*%
%ADD27O,1.700000X1.700000*%
%ADD28RoundRect,0.150000X-0.150000X0.587500X-0.150000X-0.587500X0.150000X-0.587500X0.150000X0.587500X0*%
%ADD29RoundRect,0.250000X0.600000X0.675000X-0.600000X0.675000X-0.600000X-0.675000X0.600000X-0.675000X0*%
%ADD30O,1.700000X1.850000*%
%ADD31RoundRect,0.250000X-0.600000X-0.675000X0.600000X-0.675000X0.600000X0.675000X-0.600000X0.675000X0*%
G04 APERTURE END LIST*
D10*
X97166666Y-125147380D02*
X97166666Y-125861666D01*
X97119047Y-126004523D01*
X97023809Y-126099761D01*
X96880952Y-126147380D01*
X96785714Y-126147380D01*
X97833333Y-125147380D02*
X98023809Y-125147380D01*
X98119047Y-125195000D01*
X98214285Y-125290238D01*
X98261904Y-125480714D01*
X98261904Y-125814047D01*
X98214285Y-126004523D01*
X98119047Y-126099761D01*
X98023809Y-126147380D01*
X97833333Y-126147380D01*
X97738095Y-126099761D01*
X97642857Y-126004523D01*
X97595238Y-125814047D01*
X97595238Y-125480714D01*
X97642857Y-125290238D01*
X97738095Y-125195000D01*
X97833333Y-125147380D01*
X98976190Y-125147380D02*
X98976190Y-125861666D01*
X98928571Y-126004523D01*
X98833333Y-126099761D01*
X98690476Y-126147380D01*
X98595238Y-126147380D01*
X99642857Y-125147380D02*
X99833333Y-125147380D01*
X99928571Y-125195000D01*
X100023809Y-125290238D01*
X100071428Y-125480714D01*
X100071428Y-125814047D01*
X100023809Y-126004523D01*
X99928571Y-126099761D01*
X99833333Y-126147380D01*
X99642857Y-126147380D01*
X99547619Y-126099761D01*
X99452380Y-126004523D01*
X99404761Y-125814047D01*
X99404761Y-125480714D01*
X99452380Y-125290238D01*
X99547619Y-125195000D01*
X99642857Y-125147380D01*
X101119047Y-125671190D02*
X101071428Y-125623571D01*
X100976190Y-125575952D01*
X100880952Y-125575952D01*
X100785714Y-125623571D01*
X100738095Y-125671190D01*
X100690476Y-125766428D01*
X100690476Y-125861666D01*
X100738095Y-125956904D01*
X100785714Y-126004523D01*
X100880952Y-126052142D01*
X100976190Y-126052142D01*
X101071428Y-126004523D01*
X101119047Y-125956904D01*
X101119047Y-125575952D02*
X101119047Y-125956904D01*
X101166666Y-126004523D01*
X101214285Y-126004523D01*
X101309523Y-125956904D01*
X101357142Y-125861666D01*
X101357142Y-125623571D01*
X101261904Y-125480714D01*
X101119047Y-125385476D01*
X100928571Y-125337857D01*
X100738095Y-125385476D01*
X100595238Y-125480714D01*
X100500000Y-125623571D01*
X100452380Y-125814047D01*
X100500000Y-126004523D01*
X100595238Y-126147380D01*
X100738095Y-126242619D01*
X100928571Y-126290238D01*
X101119047Y-126242619D01*
X101261904Y-126147380D01*
X101785714Y-125623571D02*
X102119047Y-125623571D01*
X102261904Y-126147380D02*
X101785714Y-126147380D01*
X101785714Y-125147380D01*
X102261904Y-125147380D01*
X102690476Y-126147380D02*
X102690476Y-125147380D01*
X103261904Y-126147380D01*
X103261904Y-125147380D01*
X103690476Y-125861666D02*
X104166666Y-125861666D01*
X103595238Y-126147380D02*
X103928571Y-125147380D01*
X104261904Y-126147380D01*
X105166666Y-126052142D02*
X105119047Y-126099761D01*
X104976190Y-126147380D01*
X104880952Y-126147380D01*
X104738095Y-126099761D01*
X104642857Y-126004523D01*
X104595238Y-125909285D01*
X104547619Y-125718809D01*
X104547619Y-125575952D01*
X104595238Y-125385476D01*
X104642857Y-125290238D01*
X104738095Y-125195000D01*
X104880952Y-125147380D01*
X104976190Y-125147380D01*
X105119047Y-125195000D01*
X105166666Y-125242619D01*
X98047619Y-127233571D02*
X97714285Y-127233571D01*
X97714285Y-127757380D02*
X97714285Y-126757380D01*
X98190476Y-126757380D01*
X98952380Y-127709761D02*
X98857142Y-127757380D01*
X98666666Y-127757380D01*
X98571428Y-127709761D01*
X98523809Y-127614523D01*
X98523809Y-127233571D01*
X98571428Y-127138333D01*
X98666666Y-127090714D01*
X98857142Y-127090714D01*
X98952380Y-127138333D01*
X99000000Y-127233571D01*
X99000000Y-127328809D01*
X98523809Y-127424047D01*
X99333333Y-127090714D02*
X99571428Y-127757380D01*
X99809523Y-127090714D01*
X100904761Y-126852619D02*
X100952380Y-126805000D01*
X101047619Y-126757380D01*
X101285714Y-126757380D01*
X101380952Y-126805000D01*
X101428571Y-126852619D01*
X101476190Y-126947857D01*
X101476190Y-127043095D01*
X101428571Y-127185952D01*
X100857142Y-127757380D01*
X101476190Y-127757380D01*
X102095238Y-126757380D02*
X102190476Y-126757380D01*
X102285714Y-126805000D01*
X102333333Y-126852619D01*
X102380952Y-126947857D01*
X102428571Y-127138333D01*
X102428571Y-127376428D01*
X102380952Y-127566904D01*
X102333333Y-127662142D01*
X102285714Y-127709761D01*
X102190476Y-127757380D01*
X102095238Y-127757380D01*
X102000000Y-127709761D01*
X101952380Y-127662142D01*
X101904761Y-127566904D01*
X101857142Y-127376428D01*
X101857142Y-127138333D01*
X101904761Y-126947857D01*
X101952380Y-126852619D01*
X102000000Y-126805000D01*
X102095238Y-126757380D01*
X102809523Y-126852619D02*
X102857142Y-126805000D01*
X102952380Y-126757380D01*
X103190476Y-126757380D01*
X103285714Y-126805000D01*
X103333333Y-126852619D01*
X103380952Y-126947857D01*
X103380952Y-127043095D01*
X103333333Y-127185952D01*
X102761904Y-127757380D01*
X103380952Y-127757380D01*
X103761904Y-126852619D02*
X103809523Y-126805000D01*
X103904761Y-126757380D01*
X104142857Y-126757380D01*
X104238095Y-126805000D01*
X104285714Y-126852619D01*
X104333333Y-126947857D01*
X104333333Y-127043095D01*
X104285714Y-127185952D01*
X103714285Y-127757380D01*
X104333333Y-127757380D01*
D11*
X92600000Y-121700000D02*
X92600000Y-124500000D01*
X92600000Y-121700000D02*
X107600000Y-121700000D01*
X107600000Y-124460000D02*
X92600000Y-124500000D01*
X107600000Y-121700000D02*
X107600000Y-124460000D01*
D10*
X93700000Y-123357142D02*
X93657142Y-123404761D01*
X93528571Y-123452380D01*
X93442857Y-123452380D01*
X93314285Y-123404761D01*
X93228571Y-123309523D01*
X93185714Y-123214285D01*
X93142857Y-123023809D01*
X93142857Y-122880952D01*
X93185714Y-122690476D01*
X93228571Y-122595238D01*
X93314285Y-122500000D01*
X93442857Y-122452380D01*
X93528571Y-122452380D01*
X93657142Y-122500000D01*
X93700000Y-122547619D01*
X94471428Y-123452380D02*
X94471428Y-122928571D01*
X94428571Y-122833333D01*
X94342857Y-122785714D01*
X94171428Y-122785714D01*
X94085714Y-122833333D01*
X94471428Y-123404761D02*
X94385714Y-123452380D01*
X94171428Y-123452380D01*
X94085714Y-123404761D01*
X94042857Y-123309523D01*
X94042857Y-123214285D01*
X94085714Y-123119047D01*
X94171428Y-123071428D01*
X94385714Y-123071428D01*
X94471428Y-123023809D01*
X94900000Y-123452380D02*
X94900000Y-122785714D01*
X94900000Y-122976190D02*
X94942857Y-122880952D01*
X94985714Y-122833333D01*
X95071428Y-122785714D01*
X95157142Y-122785714D01*
X95328571Y-122785714D02*
X95671428Y-122785714D01*
X95457142Y-122452380D02*
X95457142Y-123309523D01*
X95500000Y-123404761D01*
X95585714Y-123452380D01*
X95671428Y-123452380D01*
X96314285Y-123404761D02*
X96228571Y-123452380D01*
X96057142Y-123452380D01*
X95971428Y-123404761D01*
X95928571Y-123309523D01*
X95928571Y-122928571D01*
X95971428Y-122833333D01*
X96057142Y-122785714D01*
X96228571Y-122785714D01*
X96314285Y-122833333D01*
X96357142Y-122928571D01*
X96357142Y-123023809D01*
X95928571Y-123119047D01*
X97728571Y-122928571D02*
X97857142Y-122976190D01*
X97900000Y-123023809D01*
X97942857Y-123119047D01*
X97942857Y-123261904D01*
X97900000Y-123357142D01*
X97857142Y-123404761D01*
X97771428Y-123452380D01*
X97428571Y-123452380D01*
X97428571Y-122452380D01*
X97728571Y-122452380D01*
X97814285Y-122500000D01*
X97857142Y-122547619D01*
X97900000Y-122642857D01*
X97900000Y-122738095D01*
X97857142Y-122833333D01*
X97814285Y-122880952D01*
X97728571Y-122928571D01*
X97428571Y-122928571D01*
X98714285Y-123452380D02*
X98714285Y-122928571D01*
X98671428Y-122833333D01*
X98585714Y-122785714D01*
X98414285Y-122785714D01*
X98328571Y-122833333D01*
X98714285Y-123404761D02*
X98628571Y-123452380D01*
X98414285Y-123452380D01*
X98328571Y-123404761D01*
X98285714Y-123309523D01*
X98285714Y-123214285D01*
X98328571Y-123119047D01*
X98414285Y-123071428D01*
X98628571Y-123071428D01*
X98714285Y-123023809D01*
X99100000Y-123404761D02*
X99185714Y-123452380D01*
X99357142Y-123452380D01*
X99442857Y-123404761D01*
X99485714Y-123309523D01*
X99485714Y-123261904D01*
X99442857Y-123166666D01*
X99357142Y-123119047D01*
X99228571Y-123119047D01*
X99142857Y-123071428D01*
X99100000Y-122976190D01*
X99100000Y-122928571D01*
X99142857Y-122833333D01*
X99228571Y-122785714D01*
X99357142Y-122785714D01*
X99442857Y-122833333D01*
X100214285Y-123404761D02*
X100128571Y-123452380D01*
X99957142Y-123452380D01*
X99871428Y-123404761D01*
X99828571Y-123309523D01*
X99828571Y-122928571D01*
X99871428Y-122833333D01*
X99957142Y-122785714D01*
X100128571Y-122785714D01*
X100214285Y-122833333D01*
X100257142Y-122928571D01*
X100257142Y-123023809D01*
X99828571Y-123119047D01*
X101842857Y-123452380D02*
X101542857Y-122976190D01*
X101328571Y-123452380D02*
X101328571Y-122452380D01*
X101671428Y-122452380D01*
X101757142Y-122500000D01*
X101800000Y-122547619D01*
X101842857Y-122642857D01*
X101842857Y-122785714D01*
X101800000Y-122880952D01*
X101757142Y-122928571D01*
X101671428Y-122976190D01*
X101328571Y-122976190D01*
X102357142Y-123452380D02*
X102271428Y-123404761D01*
X102228571Y-123357142D01*
X102185714Y-123261904D01*
X102185714Y-122976190D01*
X102228571Y-122880952D01*
X102271428Y-122833333D01*
X102357142Y-122785714D01*
X102485714Y-122785714D01*
X102571428Y-122833333D01*
X102614285Y-122880952D01*
X102657142Y-122976190D01*
X102657142Y-123261904D01*
X102614285Y-123357142D01*
X102571428Y-123404761D01*
X102485714Y-123452380D01*
X102357142Y-123452380D01*
X103428571Y-122785714D02*
X103428571Y-123452380D01*
X103042857Y-122785714D02*
X103042857Y-123309523D01*
X103085714Y-123404761D01*
X103171428Y-123452380D01*
X103300000Y-123452380D01*
X103385714Y-123404761D01*
X103428571Y-123357142D01*
X103985714Y-123452380D02*
X103900000Y-123404761D01*
X103857142Y-123309523D01*
X103857142Y-122452380D01*
X104714285Y-123452380D02*
X104714285Y-122928571D01*
X104671428Y-122833333D01*
X104585714Y-122785714D01*
X104414285Y-122785714D01*
X104328571Y-122833333D01*
X104714285Y-123404761D02*
X104628571Y-123452380D01*
X104414285Y-123452380D01*
X104328571Y-123404761D01*
X104285714Y-123309523D01*
X104285714Y-123214285D01*
X104328571Y-123119047D01*
X104414285Y-123071428D01*
X104628571Y-123071428D01*
X104714285Y-123023809D01*
X105142857Y-122785714D02*
X105142857Y-123452380D01*
X105142857Y-122880952D02*
X105185714Y-122833333D01*
X105271428Y-122785714D01*
X105400000Y-122785714D01*
X105485714Y-122833333D01*
X105528571Y-122928571D01*
X105528571Y-123452380D01*
X105828571Y-122785714D02*
X106171428Y-122785714D01*
X105957142Y-122452380D02*
X105957142Y-123309523D01*
X106000000Y-123404761D01*
X106085714Y-123452380D01*
X106171428Y-123452380D01*
X106814285Y-123404761D02*
X106728571Y-123452380D01*
X106557142Y-123452380D01*
X106471428Y-123404761D01*
X106428571Y-123309523D01*
X106428571Y-122928571D01*
X106471428Y-122833333D01*
X106557142Y-122785714D01*
X106728571Y-122785714D01*
X106814285Y-122833333D01*
X106857142Y-122928571D01*
X106857142Y-123023809D01*
X106428571Y-123119047D01*
X104642857Y-178695238D02*
X104642857Y-179304761D01*
X104742857Y-176195238D02*
X104742857Y-176804761D01*
X104438095Y-176500000D02*
X105047619Y-176500000D01*
X104338095Y-171933333D02*
X105138095Y-171933333D01*
X104566666Y-172200000D01*
X105138095Y-172466666D01*
X104338095Y-172466666D01*
X104414285Y-173304761D02*
X104376190Y-173266666D01*
X104338095Y-173152380D01*
X104338095Y-173076190D01*
X104376190Y-172961904D01*
X104452380Y-172885714D01*
X104528571Y-172847619D01*
X104680952Y-172809523D01*
X104795238Y-172809523D01*
X104947619Y-172847619D01*
X105023809Y-172885714D01*
X105100000Y-172961904D01*
X105138095Y-173076190D01*
X105138095Y-173152380D01*
X105100000Y-173266666D01*
X105061904Y-173304761D01*
X105300000Y-168200000D02*
X105338095Y-168123809D01*
X105338095Y-168009523D01*
X105300000Y-167895238D01*
X105223809Y-167819047D01*
X105147619Y-167780952D01*
X104995238Y-167742857D01*
X104880952Y-167742857D01*
X104728571Y-167780952D01*
X104652380Y-167819047D01*
X104576190Y-167895238D01*
X104538095Y-168009523D01*
X104538095Y-168085714D01*
X104576190Y-168200000D01*
X104614285Y-168238095D01*
X104880952Y-168238095D01*
X104880952Y-168085714D01*
X104538095Y-168580952D02*
X105338095Y-168580952D01*
X105338095Y-168885714D01*
X105300000Y-168961904D01*
X105261904Y-169000000D01*
X105185714Y-169038095D01*
X105071428Y-169038095D01*
X104995238Y-169000000D01*
X104957142Y-168961904D01*
X104919047Y-168885714D01*
X104919047Y-168580952D01*
X104538095Y-169380952D02*
X105338095Y-169380952D01*
X105338095Y-169914285D02*
X105338095Y-170066666D01*
X105300000Y-170142857D01*
X105223809Y-170219047D01*
X105071428Y-170257142D01*
X104804761Y-170257142D01*
X104652380Y-170219047D01*
X104576190Y-170142857D01*
X104538095Y-170066666D01*
X104538095Y-169914285D01*
X104576190Y-169838095D01*
X104652380Y-169761904D01*
X104804761Y-169723809D01*
X105071428Y-169723809D01*
X105223809Y-169761904D01*
X105300000Y-169838095D01*
X105338095Y-169914285D01*
X105338095Y-165790476D02*
X105338095Y-166247619D01*
X104538095Y-166019047D02*
X105338095Y-166019047D01*
X105338095Y-166438095D02*
X104538095Y-166971428D01*
X105338095Y-166971428D02*
X104538095Y-166438095D01*
X104538095Y-162547619D02*
X104919047Y-162280952D01*
X104538095Y-162090476D02*
X105338095Y-162090476D01*
X105338095Y-162395238D01*
X105300000Y-162471428D01*
X105261904Y-162509523D01*
X105185714Y-162547619D01*
X105071428Y-162547619D01*
X104995238Y-162509523D01*
X104957142Y-162471428D01*
X104919047Y-162395238D01*
X104919047Y-162090476D01*
X104614285Y-163347619D02*
X104576190Y-163309523D01*
X104538095Y-163195238D01*
X104538095Y-163119047D01*
X104576190Y-163004761D01*
X104652380Y-162928571D01*
X104728571Y-162890476D01*
X104880952Y-162852380D01*
X104995238Y-162852380D01*
X105147619Y-162890476D01*
X105223809Y-162928571D01*
X105300000Y-163004761D01*
X105338095Y-163119047D01*
X105338095Y-163195238D01*
X105300000Y-163309523D01*
X105261904Y-163347619D01*
X107876190Y-129590476D02*
X107838095Y-129704761D01*
X107838095Y-129895238D01*
X107876190Y-129971428D01*
X107914285Y-130009523D01*
X107990476Y-130047619D01*
X108066666Y-130047619D01*
X108142857Y-130009523D01*
X108180952Y-129971428D01*
X108219047Y-129895238D01*
X108257142Y-129742857D01*
X108295238Y-129666666D01*
X108333333Y-129628571D01*
X108409523Y-129590476D01*
X108485714Y-129590476D01*
X108561904Y-129628571D01*
X108600000Y-129666666D01*
X108638095Y-129742857D01*
X108638095Y-129933333D01*
X108600000Y-130047619D01*
X108561904Y-130352380D02*
X108600000Y-130390476D01*
X108638095Y-130466666D01*
X108638095Y-130657142D01*
X108600000Y-130733333D01*
X108561904Y-130771428D01*
X108485714Y-130809523D01*
X108409523Y-130809523D01*
X108295238Y-130771428D01*
X107838095Y-130314285D01*
X107838095Y-130809523D01*
X108338095Y-126661904D02*
X108338095Y-127157142D01*
X108033333Y-126890476D01*
X108033333Y-127004761D01*
X107995238Y-127080952D01*
X107957142Y-127119047D01*
X107880952Y-127157142D01*
X107690476Y-127157142D01*
X107614285Y-127119047D01*
X107576190Y-127080952D01*
X107538095Y-127004761D01*
X107538095Y-126776190D01*
X107576190Y-126700000D01*
X107614285Y-126661904D01*
X107614285Y-127500000D02*
X107576190Y-127538095D01*
X107538095Y-127500000D01*
X107576190Y-127461904D01*
X107614285Y-127500000D01*
X107538095Y-127500000D01*
X108338095Y-127804761D02*
X108338095Y-128300000D01*
X108033333Y-128033333D01*
X108033333Y-128147619D01*
X107995238Y-128223809D01*
X107957142Y-128261904D01*
X107880952Y-128300000D01*
X107690476Y-128300000D01*
X107614285Y-128261904D01*
X107576190Y-128223809D01*
X107538095Y-128147619D01*
X107538095Y-127919047D01*
X107576190Y-127842857D01*
X107614285Y-127804761D01*
X119623809Y-130071428D02*
X119661904Y-129957142D01*
X119661904Y-129766666D01*
X119623809Y-129690476D01*
X119585714Y-129652380D01*
X119509523Y-129614285D01*
X119433333Y-129614285D01*
X119357142Y-129652380D01*
X119319047Y-129690476D01*
X119280952Y-129766666D01*
X119242857Y-129919047D01*
X119204761Y-129995238D01*
X119166666Y-130033333D01*
X119090476Y-130071428D01*
X119014285Y-130071428D01*
X118938095Y-130033333D01*
X118900000Y-129995238D01*
X118861904Y-129919047D01*
X118861904Y-129728571D01*
X118900000Y-129614285D01*
X119661904Y-128852380D02*
X119661904Y-129309523D01*
X119661904Y-129080952D02*
X118861904Y-129080952D01*
X118976190Y-129157142D01*
X119052380Y-129233333D01*
X119090476Y-129309523D01*
X119928571Y-128319047D02*
X118785714Y-128319047D01*
X118861904Y-127823809D02*
X118861904Y-127328571D01*
X119166666Y-127595238D01*
X119166666Y-127480952D01*
X119204761Y-127404761D01*
X119242857Y-127366666D01*
X119319047Y-127328571D01*
X119509523Y-127328571D01*
X119585714Y-127366666D01*
X119623809Y-127404761D01*
X119661904Y-127480952D01*
X119661904Y-127709523D01*
X119623809Y-127785714D01*
X119585714Y-127823809D01*
X108371428Y-132157142D02*
X108371428Y-132490476D01*
X107847619Y-132633333D02*
X107847619Y-132157142D01*
X108847619Y-132157142D01*
X108847619Y-132633333D01*
X108847619Y-132919047D02*
X107847619Y-133252380D01*
X108847619Y-133585714D01*
X107747619Y-134414285D02*
X108747619Y-134414285D01*
X108747619Y-134795238D01*
X108700000Y-134890476D01*
X108652380Y-134938095D01*
X108557142Y-134985714D01*
X108414285Y-134985714D01*
X108319047Y-134938095D01*
X108271428Y-134890476D01*
X108223809Y-134795238D01*
X108223809Y-134414285D01*
X108747619Y-135604761D02*
X108747619Y-135795238D01*
X108700000Y-135890476D01*
X108604761Y-135985714D01*
X108414285Y-136033333D01*
X108080952Y-136033333D01*
X107890476Y-135985714D01*
X107795238Y-135890476D01*
X107747619Y-135795238D01*
X107747619Y-135604761D01*
X107795238Y-135509523D01*
X107890476Y-135414285D01*
X108080952Y-135366666D01*
X108414285Y-135366666D01*
X108604761Y-135414285D01*
X108700000Y-135509523D01*
X108747619Y-135604761D01*
X107638095Y-138176190D02*
X108438095Y-138176190D01*
X108438095Y-138480952D01*
X108400000Y-138557142D01*
X108361904Y-138595238D01*
X108285714Y-138633333D01*
X108171428Y-138633333D01*
X108095238Y-138595238D01*
X108057142Y-138557142D01*
X108019047Y-138480952D01*
X108019047Y-138176190D01*
X108438095Y-138900000D02*
X107638095Y-139090476D01*
X108209523Y-139242857D01*
X107638095Y-139395238D01*
X108438095Y-139585714D01*
X107638095Y-139890476D02*
X108438095Y-139890476D01*
X107866666Y-140157142D01*
X108438095Y-140423809D01*
X107638095Y-140423809D01*
X108471428Y-145980952D02*
X108471428Y-145219047D01*
X108019047Y-143071428D02*
X108780952Y-143071428D01*
X108400000Y-143452380D02*
X108400000Y-142690476D01*
D11*
X124800000Y-155450000D02*
X124800000Y-154900000D01*
X122100000Y-184200000D02*
X116900000Y-184300000D01*
X116900000Y-184300000D02*
X115700000Y-182800000D01*
X133100000Y-176700000D02*
X133800000Y-176700000D01*
X127800000Y-147600000D02*
X127800000Y-147100000D01*
X96200000Y-162700000D02*
X95600000Y-161500000D01*
X97100000Y-146125000D02*
X97100000Y-145475000D01*
X105100000Y-184600000D02*
X104000000Y-184600000D01*
X123900000Y-135900000D02*
X123900000Y-136700000D01*
X131000000Y-184300000D02*
X127900000Y-184300000D01*
X105000000Y-131200000D02*
X105000000Y-131900000D01*
X123500000Y-143700000D02*
X123500000Y-144300000D01*
X105200000Y-136100000D02*
X105200000Y-136700000D01*
X135200000Y-178100000D02*
X135200000Y-176300000D01*
X105300000Y-139300000D02*
X105300000Y-140600000D01*
X97100000Y-171900000D02*
X97100000Y-170500000D01*
X133800000Y-176700000D02*
X134200000Y-176700000D01*
X123700000Y-171100000D02*
X123700000Y-173000000D01*
X126700000Y-123100000D02*
X124500000Y-123100000D01*
X141900000Y-134100000D02*
X141000000Y-134100000D01*
D10*
X114226749Y-182547619D02*
X114226749Y-181833333D01*
X114264844Y-181690476D01*
X114341034Y-181595238D01*
X114455320Y-181547619D01*
X114531511Y-181547619D01*
X113464844Y-181547619D02*
X113845796Y-181547619D01*
X113845796Y-182547619D01*
X112741034Y-181642857D02*
X112779130Y-181595238D01*
X112893415Y-181547619D01*
X112969606Y-181547619D01*
X113083891Y-181595238D01*
X113160082Y-181690476D01*
X113198177Y-181785714D01*
X113236272Y-181976190D01*
X113236272Y-182119047D01*
X113198177Y-182309523D01*
X113160082Y-182404761D01*
X113083891Y-182500000D01*
X112969606Y-182547619D01*
X112893415Y-182547619D01*
X112779130Y-182500000D01*
X112741034Y-182452380D01*
X112169606Y-182547619D02*
X112169606Y-181833333D01*
X112207701Y-181690476D01*
X112283891Y-181595238D01*
X112398177Y-181547619D01*
X112474368Y-181547619D01*
X111407701Y-181547619D02*
X111788653Y-181547619D01*
X111788653Y-182547619D01*
X110683891Y-181642857D02*
X110721987Y-181595238D01*
X110836272Y-181547619D01*
X110912463Y-181547619D01*
X111026749Y-181595238D01*
X111102939Y-181690476D01*
X111141034Y-181785714D01*
X111179130Y-181976190D01*
X111179130Y-182119047D01*
X111141034Y-182309523D01*
X111102939Y-182404761D01*
X111026749Y-182500000D01*
X110912463Y-182547619D01*
X110836272Y-182547619D01*
X110721987Y-182500000D01*
X110683891Y-182452380D01*
X110112463Y-182547619D02*
X110112463Y-181833333D01*
X110150558Y-181690476D01*
X110226749Y-181595238D01*
X110341034Y-181547619D01*
X110417225Y-181547619D01*
X109350558Y-181547619D02*
X109731511Y-181547619D01*
X109731511Y-182547619D01*
X108626749Y-181642857D02*
X108664844Y-181595238D01*
X108779130Y-181547619D01*
X108855320Y-181547619D01*
X108969606Y-181595238D01*
X109045796Y-181690476D01*
X109083891Y-181785714D01*
X109121987Y-181976190D01*
X109121987Y-182119047D01*
X109083891Y-182309523D01*
X109045796Y-182404761D01*
X108969606Y-182500000D01*
X108855320Y-182547619D01*
X108779130Y-182547619D01*
X108664844Y-182500000D01*
X108626749Y-182452380D01*
X108055320Y-182547619D02*
X108055320Y-181833333D01*
X108093415Y-181690476D01*
X108169606Y-181595238D01*
X108283891Y-181547619D01*
X108360082Y-181547619D01*
X107293415Y-181547619D02*
X107674368Y-181547619D01*
X107674368Y-182547619D01*
X106569606Y-181642857D02*
X106607701Y-181595238D01*
X106721987Y-181547619D01*
X106798177Y-181547619D01*
X106912463Y-181595238D01*
X106988653Y-181690476D01*
X107026749Y-181785714D01*
X107064844Y-181976190D01*
X107064844Y-182119047D01*
X107026749Y-182309523D01*
X106988653Y-182404761D01*
X106912463Y-182500000D01*
X106798177Y-182547619D01*
X106721987Y-182547619D01*
X106607701Y-182500000D01*
X106569606Y-182452380D01*
X136919047Y-152447619D02*
X137490476Y-152447619D01*
X137204761Y-152447619D02*
X137204761Y-153447619D01*
X137300000Y-153304761D01*
X137395238Y-153209523D01*
X137490476Y-153161904D01*
X136538095Y-153352380D02*
X136490476Y-153400000D01*
X136395238Y-153447619D01*
X136157142Y-153447619D01*
X136061904Y-153400000D01*
X136014285Y-153352380D01*
X135966666Y-153257142D01*
X135966666Y-153161904D01*
X136014285Y-153019047D01*
X136585714Y-152447619D01*
X135966666Y-152447619D01*
X135680952Y-153447619D02*
X135347619Y-152447619D01*
X135014285Y-153447619D01*
X135538095Y-164900000D02*
X135442857Y-164852380D01*
X135300000Y-164852380D01*
X135157142Y-164900000D01*
X135061904Y-164995238D01*
X135014285Y-165090476D01*
X134966666Y-165280952D01*
X134966666Y-165423809D01*
X135014285Y-165614285D01*
X135061904Y-165709523D01*
X135157142Y-165804761D01*
X135300000Y-165852380D01*
X135395238Y-165852380D01*
X135538095Y-165804761D01*
X135585714Y-165757142D01*
X135585714Y-165423809D01*
X135395238Y-165423809D01*
X136014285Y-165852380D02*
X136014285Y-164852380D01*
X136585714Y-165852380D01*
X136585714Y-164852380D01*
X137061904Y-165852380D02*
X137061904Y-164852380D01*
X137300000Y-164852380D01*
X137442857Y-164900000D01*
X137538095Y-164995238D01*
X137585714Y-165090476D01*
X137633333Y-165280952D01*
X137633333Y-165423809D01*
X137585714Y-165614285D01*
X137538095Y-165709523D01*
X137442857Y-165804761D01*
X137300000Y-165852380D01*
X137061904Y-165852380D01*
X116752380Y-177135155D02*
X115752380Y-177135155D01*
X116752380Y-176563727D01*
X115752380Y-176563727D01*
X116752380Y-175658965D02*
X116228571Y-175658965D01*
X116133333Y-175706584D01*
X116085714Y-175801822D01*
X116085714Y-175992298D01*
X116133333Y-176087536D01*
X116704761Y-175658965D02*
X116752380Y-175754203D01*
X116752380Y-175992298D01*
X116704761Y-176087536D01*
X116609523Y-176135155D01*
X116514285Y-176135155D01*
X116419047Y-176087536D01*
X116371428Y-175992298D01*
X116371428Y-175754203D01*
X116323809Y-175658965D01*
X116085714Y-175182774D02*
X117085714Y-175182774D01*
X116133333Y-175182774D02*
X116085714Y-175087536D01*
X116085714Y-174897060D01*
X116133333Y-174801822D01*
X116180952Y-174754203D01*
X116276190Y-174706584D01*
X116561904Y-174706584D01*
X116657142Y-174754203D01*
X116704761Y-174801822D01*
X116752380Y-174897060D01*
X116752380Y-175087536D01*
X116704761Y-175182774D01*
X116085714Y-174278012D02*
X117085714Y-174278012D01*
X116133333Y-174278012D02*
X116085714Y-174182774D01*
X116085714Y-173992298D01*
X116133333Y-173897060D01*
X116180952Y-173849441D01*
X116276190Y-173801822D01*
X116561904Y-173801822D01*
X116657142Y-173849441D01*
X116704761Y-173897060D01*
X116752380Y-173992298D01*
X116752380Y-174182774D01*
X116704761Y-174278012D01*
X116704761Y-172992298D02*
X116752380Y-173087536D01*
X116752380Y-173278012D01*
X116704761Y-173373250D01*
X116609523Y-173420869D01*
X116228571Y-173420869D01*
X116133333Y-173373250D01*
X116085714Y-173278012D01*
X116085714Y-173087536D01*
X116133333Y-172992298D01*
X116228571Y-172944679D01*
X116323809Y-172944679D01*
X116419047Y-173420869D01*
X116752380Y-171754203D02*
X115752380Y-171754203D01*
X116133333Y-171754203D02*
X116085714Y-171658965D01*
X116085714Y-171468489D01*
X116133333Y-171373250D01*
X116180952Y-171325631D01*
X116276190Y-171278012D01*
X116561904Y-171278012D01*
X116657142Y-171325631D01*
X116704761Y-171373250D01*
X116752380Y-171468489D01*
X116752380Y-171658965D01*
X116704761Y-171754203D01*
X116752380Y-170420869D02*
X116228571Y-170420869D01*
X116133333Y-170468489D01*
X116085714Y-170563727D01*
X116085714Y-170754203D01*
X116133333Y-170849441D01*
X116704761Y-170420869D02*
X116752380Y-170516108D01*
X116752380Y-170754203D01*
X116704761Y-170849441D01*
X116609523Y-170897060D01*
X116514285Y-170897060D01*
X116419047Y-170849441D01*
X116371428Y-170754203D01*
X116371428Y-170516108D01*
X116323809Y-170420869D01*
X116704761Y-169992298D02*
X116752380Y-169897060D01*
X116752380Y-169706584D01*
X116704761Y-169611346D01*
X116609523Y-169563727D01*
X116561904Y-169563727D01*
X116466666Y-169611346D01*
X116419047Y-169706584D01*
X116419047Y-169849441D01*
X116371428Y-169944679D01*
X116276190Y-169992298D01*
X116228571Y-169992298D01*
X116133333Y-169944679D01*
X116085714Y-169849441D01*
X116085714Y-169706584D01*
X116133333Y-169611346D01*
X116704761Y-168754203D02*
X116752380Y-168849441D01*
X116752380Y-169039917D01*
X116704761Y-169135155D01*
X116609523Y-169182774D01*
X116228571Y-169182774D01*
X116133333Y-169135155D01*
X116085714Y-169039917D01*
X116085714Y-168849441D01*
X116133333Y-168754203D01*
X116228571Y-168706584D01*
X116323809Y-168706584D01*
X116419047Y-169182774D01*
X116752380Y-167516108D02*
X116085714Y-167516108D01*
X116276190Y-167516108D02*
X116180952Y-167468489D01*
X116133333Y-167420869D01*
X116085714Y-167325631D01*
X116085714Y-167230393D01*
X116752380Y-166754203D02*
X116704761Y-166849441D01*
X116657142Y-166897060D01*
X116561904Y-166944679D01*
X116276190Y-166944679D01*
X116180952Y-166897060D01*
X116133333Y-166849441D01*
X116085714Y-166754203D01*
X116085714Y-166611346D01*
X116133333Y-166516108D01*
X116180952Y-166468489D01*
X116276190Y-166420869D01*
X116561904Y-166420869D01*
X116657142Y-166468489D01*
X116704761Y-166516108D01*
X116752380Y-166611346D01*
X116752380Y-166754203D01*
X116085714Y-165563727D02*
X116752380Y-165563727D01*
X116085714Y-165992298D02*
X116609523Y-165992298D01*
X116704761Y-165944679D01*
X116752380Y-165849441D01*
X116752380Y-165706584D01*
X116704761Y-165611346D01*
X116657142Y-165563727D01*
X116752380Y-164944679D02*
X116704761Y-165039917D01*
X116609523Y-165087536D01*
X115752380Y-165087536D01*
X116752380Y-164135155D02*
X116228571Y-164135155D01*
X116133333Y-164182774D01*
X116085714Y-164278012D01*
X116085714Y-164468489D01*
X116133333Y-164563727D01*
X116704761Y-164135155D02*
X116752380Y-164230393D01*
X116752380Y-164468489D01*
X116704761Y-164563727D01*
X116609523Y-164611346D01*
X116514285Y-164611346D01*
X116419047Y-164563727D01*
X116371428Y-164468489D01*
X116371428Y-164230393D01*
X116323809Y-164135155D01*
X116085714Y-163658965D02*
X116752380Y-163658965D01*
X116180952Y-163658965D02*
X116133333Y-163611346D01*
X116085714Y-163516108D01*
X116085714Y-163373250D01*
X116133333Y-163278012D01*
X116228571Y-163230393D01*
X116752380Y-163230393D01*
X116085714Y-162897060D02*
X116085714Y-162516108D01*
X115752380Y-162754203D02*
X116609523Y-162754203D01*
X116704761Y-162706584D01*
X116752380Y-162611346D01*
X116752380Y-162516108D01*
X116704761Y-161801822D02*
X116752380Y-161897060D01*
X116752380Y-162087536D01*
X116704761Y-162182774D01*
X116609523Y-162230393D01*
X116228571Y-162230393D01*
X116133333Y-162182774D01*
X116085714Y-162087536D01*
X116085714Y-161897060D01*
X116133333Y-161801822D01*
X116228571Y-161754203D01*
X116323809Y-161754203D01*
X116419047Y-162230393D01*
X131457142Y-174552380D02*
X132028571Y-174552380D01*
X131742857Y-175552380D02*
X131742857Y-174552380D01*
X132314285Y-175504761D02*
X132457142Y-175552380D01*
X132695238Y-175552380D01*
X132790476Y-175504761D01*
X132838095Y-175457142D01*
X132885714Y-175361904D01*
X132885714Y-175266666D01*
X132838095Y-175171428D01*
X132790476Y-175123809D01*
X132695238Y-175076190D01*
X132504761Y-175028571D01*
X132409523Y-174980952D01*
X132361904Y-174933333D01*
X132314285Y-174838095D01*
X132314285Y-174742857D01*
X132361904Y-174647619D01*
X132409523Y-174600000D01*
X132504761Y-174552380D01*
X132742857Y-174552380D01*
X132885714Y-174600000D01*
X133885714Y-175552380D02*
X133552380Y-175076190D01*
X133314285Y-175552380D02*
X133314285Y-174552380D01*
X133695238Y-174552380D01*
X133790476Y-174600000D01*
X133838095Y-174647619D01*
X133885714Y-174742857D01*
X133885714Y-174885714D01*
X133838095Y-174980952D01*
X133790476Y-175028571D01*
X133695238Y-175076190D01*
X133314285Y-175076190D01*
X134076190Y-175647619D02*
X134838095Y-175647619D01*
X135600000Y-175552380D02*
X135028571Y-175552380D01*
X135314285Y-175552380D02*
X135314285Y-174552380D01*
X135219047Y-174695238D01*
X135123809Y-174790476D01*
X135028571Y-174838095D01*
X136028571Y-175171428D02*
X136790476Y-175171428D01*
X137219047Y-174647619D02*
X137266666Y-174600000D01*
X137361904Y-174552380D01*
X137600000Y-174552380D01*
X137695238Y-174600000D01*
X137742857Y-174647619D01*
X137790476Y-174742857D01*
X137790476Y-174838095D01*
X137742857Y-174980952D01*
X137171428Y-175552380D01*
X137790476Y-175552380D01*
X138647619Y-174885714D02*
X138647619Y-175552380D01*
X138409523Y-174504761D02*
X138171428Y-175219047D01*
X138790476Y-175219047D01*
X139647619Y-174552380D02*
X139171428Y-174552380D01*
X139123809Y-175028571D01*
X139171428Y-174980952D01*
X139266666Y-174933333D01*
X139504761Y-174933333D01*
X139600000Y-174980952D01*
X139647619Y-175028571D01*
X139695238Y-175123809D01*
X139695238Y-175361904D01*
X139647619Y-175457142D01*
X139600000Y-175504761D01*
X139504761Y-175552380D01*
X139266666Y-175552380D01*
X139171428Y-175504761D01*
X139123809Y-175457142D01*
X140314285Y-174552380D02*
X140409523Y-174552380D01*
X140504761Y-174600000D01*
X140552380Y-174647619D01*
X140600000Y-174742857D01*
X140647619Y-174933333D01*
X140647619Y-175171428D01*
X140600000Y-175361904D01*
X140552380Y-175457142D01*
X140504761Y-175504761D01*
X140409523Y-175552380D01*
X140314285Y-175552380D01*
X140219047Y-175504761D01*
X140171428Y-175457142D01*
X140123809Y-175361904D01*
X140076190Y-175171428D01*
X140076190Y-174933333D01*
X140123809Y-174742857D01*
X140171428Y-174647619D01*
X140219047Y-174600000D01*
X140314285Y-174552380D01*
X134104761Y-164195238D02*
X134152380Y-164052380D01*
X134152380Y-163814285D01*
X134104761Y-163719047D01*
X134057142Y-163671428D01*
X133961904Y-163623809D01*
X133866666Y-163623809D01*
X133771428Y-163671428D01*
X133723809Y-163719047D01*
X133676190Y-163814285D01*
X133628571Y-164004761D01*
X133580952Y-164100000D01*
X133533333Y-164147619D01*
X133438095Y-164195238D01*
X133342857Y-164195238D01*
X133247619Y-164147619D01*
X133200000Y-164100000D01*
X133152380Y-164004761D01*
X133152380Y-163766666D01*
X133200000Y-163623809D01*
X134057142Y-162623809D02*
X134104761Y-162671428D01*
X134152380Y-162814285D01*
X134152380Y-162909523D01*
X134104761Y-163052380D01*
X134009523Y-163147619D01*
X133914285Y-163195238D01*
X133723809Y-163242857D01*
X133580952Y-163242857D01*
X133390476Y-163195238D01*
X133295238Y-163147619D01*
X133200000Y-163052380D01*
X133152380Y-162909523D01*
X133152380Y-162814285D01*
X133200000Y-162671428D01*
X133247619Y-162623809D01*
X134152380Y-161623809D02*
X133676190Y-161957142D01*
X134152380Y-162195238D02*
X133152380Y-162195238D01*
X133152380Y-161814285D01*
X133200000Y-161719047D01*
X133247619Y-161671428D01*
X133342857Y-161623809D01*
X133485714Y-161623809D01*
X133580952Y-161671428D01*
X133628571Y-161719047D01*
X133676190Y-161814285D01*
X133676190Y-162195238D01*
X133628571Y-161195238D02*
X133628571Y-160861904D01*
X134152380Y-160719047D02*
X134152380Y-161195238D01*
X133152380Y-161195238D01*
X133152380Y-160719047D01*
X133152380Y-160385714D02*
X134152380Y-160147619D01*
X133438095Y-159957142D01*
X134152380Y-159766666D01*
X133152380Y-159528571D01*
X134247619Y-159385714D02*
X134247619Y-158623809D01*
X133152380Y-158528571D02*
X133152380Y-157957142D01*
X134152380Y-158242857D02*
X133152380Y-158242857D01*
X133628571Y-157623809D02*
X133628571Y-157290476D01*
X134152380Y-157147619D02*
X134152380Y-157623809D01*
X133152380Y-157623809D01*
X133152380Y-157147619D01*
X134152380Y-156147619D02*
X133676190Y-156480952D01*
X134152380Y-156719047D02*
X133152380Y-156719047D01*
X133152380Y-156338095D01*
X133200000Y-156242857D01*
X133247619Y-156195238D01*
X133342857Y-156147619D01*
X133485714Y-156147619D01*
X133580952Y-156195238D01*
X133628571Y-156242857D01*
X133676190Y-156338095D01*
X133676190Y-156719047D01*
X134152380Y-155719047D02*
X133152380Y-155719047D01*
X133866666Y-155385714D01*
X133152380Y-155052380D01*
X134152380Y-155052380D01*
X132157142Y-159666666D02*
X132204761Y-159714285D01*
X132252380Y-159857142D01*
X132252380Y-159952380D01*
X132204761Y-160095238D01*
X132109523Y-160190476D01*
X132014285Y-160238095D01*
X131823809Y-160285714D01*
X131680952Y-160285714D01*
X131490476Y-160238095D01*
X131395238Y-160190476D01*
X131300000Y-160095238D01*
X131252380Y-159952380D01*
X131252380Y-159857142D01*
X131300000Y-159714285D01*
X131347619Y-159666666D01*
X131252380Y-159333333D02*
X131252380Y-158714285D01*
X131633333Y-159047619D01*
X131633333Y-158904761D01*
X131680952Y-158809523D01*
X131728571Y-158761904D01*
X131823809Y-158714285D01*
X132061904Y-158714285D01*
X132157142Y-158761904D01*
X132204761Y-158809523D01*
X132252380Y-158904761D01*
X132252380Y-159190476D01*
X132204761Y-159285714D01*
X132157142Y-159333333D01*
X136266391Y-136022606D02*
X135266391Y-136022606D01*
X135266391Y-135784511D01*
X135314011Y-135641653D01*
X135409249Y-135546415D01*
X135504487Y-135498796D01*
X135694963Y-135451177D01*
X135837820Y-135451177D01*
X136028296Y-135498796D01*
X136123534Y-135546415D01*
X136218772Y-135641653D01*
X136266391Y-135784511D01*
X136266391Y-136022606D01*
X135599725Y-134594034D02*
X136266391Y-134594034D01*
X135218772Y-134832130D02*
X135933058Y-135070225D01*
X135933058Y-134451177D01*
X106152380Y-148742857D02*
X105676190Y-149076190D01*
X106152380Y-149314285D02*
X105152380Y-149314285D01*
X105152380Y-148933333D01*
X105200000Y-148838095D01*
X105247619Y-148790476D01*
X105342857Y-148742857D01*
X105485714Y-148742857D01*
X105580952Y-148790476D01*
X105628571Y-148838095D01*
X105676190Y-148933333D01*
X105676190Y-149314285D01*
X106152380Y-147790476D02*
X106152380Y-148361904D01*
X106152380Y-148076190D02*
X105152380Y-148076190D01*
X105295238Y-148171428D01*
X105390476Y-148266666D01*
X105438095Y-148361904D01*
X105152380Y-147171428D02*
X105152380Y-147076190D01*
X105200000Y-146980952D01*
X105247619Y-146933333D01*
X105342857Y-146885714D01*
X105533333Y-146838095D01*
X105771428Y-146838095D01*
X105961904Y-146885714D01*
X106057142Y-146933333D01*
X106104761Y-146980952D01*
X106152380Y-147076190D01*
X106152380Y-147171428D01*
X106104761Y-147266666D01*
X106057142Y-147314285D01*
X105961904Y-147361904D01*
X105771428Y-147409523D01*
X105533333Y-147409523D01*
X105342857Y-147361904D01*
X105247619Y-147314285D01*
X105200000Y-147266666D01*
X105152380Y-147171428D01*
X94770512Y-126660869D02*
X94437179Y-126184679D01*
X94199084Y-126660869D02*
X94199084Y-125660869D01*
X94580036Y-125660869D01*
X94675274Y-125708489D01*
X94722893Y-125756108D01*
X94770512Y-125851346D01*
X94770512Y-125994203D01*
X94722893Y-126089441D01*
X94675274Y-126137060D01*
X94580036Y-126184679D01*
X94199084Y-126184679D01*
X93213915Y-160952380D02*
X93213915Y-159952380D01*
X93594868Y-159952380D01*
X93690106Y-160000000D01*
X93737725Y-160047619D01*
X93785344Y-160142857D01*
X93785344Y-160285714D01*
X93737725Y-160380952D01*
X93690106Y-160428571D01*
X93594868Y-160476190D01*
X93213915Y-160476190D01*
X94118677Y-159952380D02*
X94356772Y-160952380D01*
X94547249Y-160238095D01*
X94737725Y-160952380D01*
X94975820Y-159952380D01*
X95356772Y-160952380D02*
X95356772Y-159952380D01*
X95690106Y-160666666D01*
X96023439Y-159952380D01*
X96023439Y-160952380D01*
X96261534Y-161047619D02*
X97023439Y-161047619D01*
X97261534Y-160952380D02*
X97261534Y-159952380D01*
X97594868Y-160666666D01*
X97928201Y-159952380D01*
X97928201Y-160952380D01*
X98594868Y-159952380D02*
X98785344Y-159952380D01*
X98880582Y-160000000D01*
X98975820Y-160095238D01*
X99023439Y-160285714D01*
X99023439Y-160619047D01*
X98975820Y-160809523D01*
X98880582Y-160904761D01*
X98785344Y-160952380D01*
X98594868Y-160952380D01*
X98499630Y-160904761D01*
X98404391Y-160809523D01*
X98356772Y-160619047D01*
X98356772Y-160285714D01*
X98404391Y-160095238D01*
X98499630Y-160000000D01*
X98594868Y-159952380D01*
X99309153Y-159952380D02*
X99880582Y-159952380D01*
X99594868Y-160952380D02*
X99594868Y-159952380D01*
X100737725Y-160952380D02*
X100166296Y-160952380D01*
X100452011Y-160952380D02*
X100452011Y-159952380D01*
X100356772Y-160095238D01*
X100261534Y-160190476D01*
X100166296Y-160238095D01*
X96706296Y-145552380D02*
X96706296Y-144552380D01*
X97087249Y-144552380D01*
X97182487Y-144600000D01*
X97230106Y-144647619D01*
X97277725Y-144742857D01*
X97277725Y-144885714D01*
X97230106Y-144980952D01*
X97182487Y-145028571D01*
X97087249Y-145076190D01*
X96706296Y-145076190D01*
X97896772Y-144552380D02*
X98087249Y-144552380D01*
X98182487Y-144600000D01*
X98277725Y-144695238D01*
X98325344Y-144885714D01*
X98325344Y-145219047D01*
X98277725Y-145409523D01*
X98182487Y-145504761D01*
X98087249Y-145552380D01*
X97896772Y-145552380D01*
X97801534Y-145504761D01*
X97706296Y-145409523D01*
X97658677Y-145219047D01*
X97658677Y-144885714D01*
X97706296Y-144695238D01*
X97801534Y-144600000D01*
X97896772Y-144552380D01*
X98753915Y-145552380D02*
X98753915Y-144552380D01*
X99087249Y-145266666D01*
X99420582Y-144552380D01*
X99420582Y-145552380D01*
X99896772Y-145552380D02*
X99896772Y-144552380D01*
X100277725Y-144552380D01*
X100372963Y-144600000D01*
X100420582Y-144647619D01*
X100468201Y-144742857D01*
X100468201Y-144885714D01*
X100420582Y-144980952D01*
X100372963Y-145028571D01*
X100277725Y-145076190D01*
X99896772Y-145076190D01*
X100896772Y-145028571D02*
X101230106Y-145028571D01*
X101372963Y-145552380D02*
X100896772Y-145552380D01*
X100896772Y-144552380D01*
X101372963Y-144552380D01*
X102325344Y-145552380D02*
X101753915Y-145552380D01*
X102039630Y-145552380D02*
X102039630Y-144552380D01*
X101944391Y-144695238D01*
X101849153Y-144790476D01*
X101753915Y-144838095D01*
X119852380Y-142652380D02*
X118852380Y-142652380D01*
X119852380Y-142080952D01*
X118852380Y-142080952D01*
X119852380Y-141176190D02*
X119328571Y-141176190D01*
X119233333Y-141223809D01*
X119185714Y-141319047D01*
X119185714Y-141509523D01*
X119233333Y-141604761D01*
X119804761Y-141176190D02*
X119852380Y-141271428D01*
X119852380Y-141509523D01*
X119804761Y-141604761D01*
X119709523Y-141652380D01*
X119614285Y-141652380D01*
X119519047Y-141604761D01*
X119471428Y-141509523D01*
X119471428Y-141271428D01*
X119423809Y-141176190D01*
X119185714Y-140700000D02*
X120185714Y-140700000D01*
X119233333Y-140700000D02*
X119185714Y-140604761D01*
X119185714Y-140414285D01*
X119233333Y-140319047D01*
X119280952Y-140271428D01*
X119376190Y-140223809D01*
X119661904Y-140223809D01*
X119757142Y-140271428D01*
X119804761Y-140319047D01*
X119852380Y-140414285D01*
X119852380Y-140604761D01*
X119804761Y-140700000D01*
X119185714Y-139795238D02*
X120185714Y-139795238D01*
X119233333Y-139795238D02*
X119185714Y-139700000D01*
X119185714Y-139509523D01*
X119233333Y-139414285D01*
X119280952Y-139366666D01*
X119376190Y-139319047D01*
X119661904Y-139319047D01*
X119757142Y-139366666D01*
X119804761Y-139414285D01*
X119852380Y-139509523D01*
X119852380Y-139700000D01*
X119804761Y-139795238D01*
X119804761Y-138509523D02*
X119852380Y-138604761D01*
X119852380Y-138795238D01*
X119804761Y-138890476D01*
X119709523Y-138938095D01*
X119328571Y-138938095D01*
X119233333Y-138890476D01*
X119185714Y-138795238D01*
X119185714Y-138604761D01*
X119233333Y-138509523D01*
X119328571Y-138461904D01*
X119423809Y-138461904D01*
X119519047Y-138938095D01*
X119852380Y-137271428D02*
X118852380Y-137271428D01*
X118852380Y-136890476D01*
X118900000Y-136795238D01*
X118947619Y-136747619D01*
X119042857Y-136700000D01*
X119185714Y-136700000D01*
X119280952Y-136747619D01*
X119328571Y-136795238D01*
X119376190Y-136890476D01*
X119376190Y-137271428D01*
X119852380Y-136128571D02*
X119804761Y-136223809D01*
X119757142Y-136271428D01*
X119661904Y-136319047D01*
X119376190Y-136319047D01*
X119280952Y-136271428D01*
X119233333Y-136223809D01*
X119185714Y-136128571D01*
X119185714Y-135985714D01*
X119233333Y-135890476D01*
X119280952Y-135842857D01*
X119376190Y-135795238D01*
X119661904Y-135795238D01*
X119757142Y-135842857D01*
X119804761Y-135890476D01*
X119852380Y-135985714D01*
X119852380Y-136128571D01*
X119852380Y-135366666D02*
X119185714Y-135366666D01*
X119280952Y-135366666D02*
X119233333Y-135319047D01*
X119185714Y-135223809D01*
X119185714Y-135080952D01*
X119233333Y-134985714D01*
X119328571Y-134938095D01*
X119852380Y-134938095D01*
X119328571Y-134938095D02*
X119233333Y-134890476D01*
X119185714Y-134795238D01*
X119185714Y-134652380D01*
X119233333Y-134557142D01*
X119328571Y-134509523D01*
X119852380Y-134509523D01*
X119185714Y-134033333D02*
X120185714Y-134033333D01*
X119233333Y-134033333D02*
X119185714Y-133938095D01*
X119185714Y-133747619D01*
X119233333Y-133652380D01*
X119280952Y-133604761D01*
X119376190Y-133557142D01*
X119661904Y-133557142D01*
X119757142Y-133604761D01*
X119804761Y-133652380D01*
X119852380Y-133747619D01*
X119852380Y-133938095D01*
X119804761Y-134033333D01*
X119804761Y-132747619D02*
X119852380Y-132842857D01*
X119852380Y-133033333D01*
X119804761Y-133128571D01*
X119709523Y-133176190D01*
X119328571Y-133176190D01*
X119233333Y-133128571D01*
X119185714Y-133033333D01*
X119185714Y-132842857D01*
X119233333Y-132747619D01*
X119328571Y-132700000D01*
X119423809Y-132700000D01*
X119519047Y-133176190D01*
X125447619Y-141495238D02*
X125400000Y-141590476D01*
X125304761Y-141685714D01*
X125161904Y-141828571D01*
X125114285Y-141923809D01*
X125114285Y-142019047D01*
X125352380Y-141971428D02*
X125304761Y-142066666D01*
X125209523Y-142161904D01*
X125019047Y-142209523D01*
X124685714Y-142209523D01*
X124495238Y-142161904D01*
X124400000Y-142066666D01*
X124352380Y-141971428D01*
X124352380Y-141780952D01*
X124400000Y-141685714D01*
X124495238Y-141590476D01*
X124685714Y-141542857D01*
X125019047Y-141542857D01*
X125209523Y-141590476D01*
X125304761Y-141685714D01*
X125352380Y-141780952D01*
X125352380Y-141971428D01*
X124352380Y-141209523D02*
X124352380Y-140590476D01*
X124733333Y-140923809D01*
X124733333Y-140780952D01*
X124780952Y-140685714D01*
X124828571Y-140638095D01*
X124923809Y-140590476D01*
X125161904Y-140590476D01*
X125257142Y-140638095D01*
X125304761Y-140685714D01*
X125352380Y-140780952D01*
X125352380Y-141066666D01*
X125304761Y-141161904D01*
X125257142Y-141209523D01*
X104252380Y-137966666D02*
X103776190Y-138300000D01*
X104252380Y-138538095D02*
X103252380Y-138538095D01*
X103252380Y-138157142D01*
X103300000Y-138061904D01*
X103347619Y-138014285D01*
X103442857Y-137966666D01*
X103585714Y-137966666D01*
X103680952Y-138014285D01*
X103728571Y-138061904D01*
X103776190Y-138157142D01*
X103776190Y-138538095D01*
X103252380Y-137633333D02*
X103252380Y-137014285D01*
X103633333Y-137347619D01*
X103633333Y-137204761D01*
X103680952Y-137109523D01*
X103728571Y-137061904D01*
X103823809Y-137014285D01*
X104061904Y-137014285D01*
X104157142Y-137061904D01*
X104204761Y-137109523D01*
X104252380Y-137204761D01*
X104252380Y-137490476D01*
X104204761Y-137585714D01*
X104157142Y-137633333D01*
X125352380Y-145566666D02*
X124876190Y-145900000D01*
X125352380Y-146138095D02*
X124352380Y-146138095D01*
X124352380Y-145757142D01*
X124400000Y-145661904D01*
X124447619Y-145614285D01*
X124542857Y-145566666D01*
X124685714Y-145566666D01*
X124780952Y-145614285D01*
X124828571Y-145661904D01*
X124876190Y-145757142D01*
X124876190Y-146138095D01*
X124780952Y-144995238D02*
X124733333Y-145090476D01*
X124685714Y-145138095D01*
X124590476Y-145185714D01*
X124542857Y-145185714D01*
X124447619Y-145138095D01*
X124400000Y-145090476D01*
X124352380Y-144995238D01*
X124352380Y-144804761D01*
X124400000Y-144709523D01*
X124447619Y-144661904D01*
X124542857Y-144614285D01*
X124590476Y-144614285D01*
X124685714Y-144661904D01*
X124733333Y-144709523D01*
X124780952Y-144804761D01*
X124780952Y-144995238D01*
X124828571Y-145090476D01*
X124876190Y-145138095D01*
X124971428Y-145185714D01*
X125161904Y-145185714D01*
X125257142Y-145138095D01*
X125304761Y-145090476D01*
X125352380Y-144995238D01*
X125352380Y-144804761D01*
X125304761Y-144709523D01*
X125257142Y-144661904D01*
X125161904Y-144614285D01*
X124971428Y-144614285D01*
X124876190Y-144661904D01*
X124828571Y-144709523D01*
X124780952Y-144804761D01*
X122241249Y-186657142D02*
X122193630Y-186704761D01*
X122050772Y-186752380D01*
X121955534Y-186752380D01*
X121812677Y-186704761D01*
X121717439Y-186609523D01*
X121669820Y-186514285D01*
X121622201Y-186323809D01*
X121622201Y-186180952D01*
X121669820Y-185990476D01*
X121717439Y-185895238D01*
X121812677Y-185800000D01*
X121955534Y-185752380D01*
X122050772Y-185752380D01*
X122193630Y-185800000D01*
X122241249Y-185847619D01*
X122860296Y-185752380D02*
X123050772Y-185752380D01*
X123146011Y-185800000D01*
X123241249Y-185895238D01*
X123288868Y-186085714D01*
X123288868Y-186419047D01*
X123241249Y-186609523D01*
X123146011Y-186704761D01*
X123050772Y-186752380D01*
X122860296Y-186752380D01*
X122765058Y-186704761D01*
X122669820Y-186609523D01*
X122622201Y-186419047D01*
X122622201Y-186085714D01*
X122669820Y-185895238D01*
X122765058Y-185800000D01*
X122860296Y-185752380D01*
X123717439Y-186752380D02*
X123717439Y-185752380D01*
X124288868Y-186752380D01*
X124288868Y-185752380D01*
X124622201Y-185752380D02*
X125193630Y-185752380D01*
X124907915Y-186752380D02*
X124907915Y-185752380D01*
X125479344Y-186466666D02*
X125955534Y-186466666D01*
X125384106Y-186752380D02*
X125717439Y-185752380D01*
X126050772Y-186752380D01*
X126955534Y-186657142D02*
X126907915Y-186704761D01*
X126765058Y-186752380D01*
X126669820Y-186752380D01*
X126526963Y-186704761D01*
X126431725Y-186609523D01*
X126384106Y-186514285D01*
X126336487Y-186323809D01*
X126336487Y-186180952D01*
X126384106Y-185990476D01*
X126431725Y-185895238D01*
X126526963Y-185800000D01*
X126669820Y-185752380D01*
X126765058Y-185752380D01*
X126907915Y-185800000D01*
X126955534Y-185847619D01*
X127241249Y-185752380D02*
X127812677Y-185752380D01*
X127526963Y-186752380D02*
X127526963Y-185752380D01*
X128098391Y-185847619D02*
X128146011Y-185800000D01*
X128241249Y-185752380D01*
X128479344Y-185752380D01*
X128574582Y-185800000D01*
X128622201Y-185847619D01*
X128669820Y-185942857D01*
X128669820Y-186038095D01*
X128622201Y-186180952D01*
X128050772Y-186752380D01*
X128669820Y-186752380D01*
X132004761Y-128866666D02*
X132052380Y-128723809D01*
X132052380Y-128485714D01*
X132004761Y-128390476D01*
X131957142Y-128342857D01*
X131861904Y-128295238D01*
X131766666Y-128295238D01*
X131671428Y-128342857D01*
X131623809Y-128390476D01*
X131576190Y-128485714D01*
X131528571Y-128676190D01*
X131480952Y-128771428D01*
X131433333Y-128819047D01*
X131338095Y-128866666D01*
X131242857Y-128866666D01*
X131147619Y-128819047D01*
X131100000Y-128771428D01*
X131052380Y-128676190D01*
X131052380Y-128438095D01*
X131100000Y-128295238D01*
X131528571Y-127866666D02*
X131528571Y-127533333D01*
X132052380Y-127390476D02*
X132052380Y-127866666D01*
X131052380Y-127866666D01*
X131052380Y-127390476D01*
X132052380Y-126390476D02*
X131576190Y-126723809D01*
X132052380Y-126961904D02*
X131052380Y-126961904D01*
X131052380Y-126580952D01*
X131100000Y-126485714D01*
X131147619Y-126438095D01*
X131242857Y-126390476D01*
X131385714Y-126390476D01*
X131480952Y-126438095D01*
X131528571Y-126485714D01*
X131576190Y-126580952D01*
X131576190Y-126961904D01*
X131052380Y-126104761D02*
X132052380Y-125771428D01*
X131052380Y-125438095D01*
X131052380Y-124914285D02*
X131052380Y-124723809D01*
X131100000Y-124628571D01*
X131195238Y-124533333D01*
X131385714Y-124485714D01*
X131719047Y-124485714D01*
X131909523Y-124533333D01*
X132004761Y-124628571D01*
X132052380Y-124723809D01*
X132052380Y-124914285D01*
X132004761Y-125009523D01*
X131909523Y-125104761D01*
X131719047Y-125152380D01*
X131385714Y-125152380D01*
X131195238Y-125104761D01*
X131100000Y-125009523D01*
X131052380Y-124914285D01*
X132052380Y-123533333D02*
X132052380Y-124104761D01*
X132052380Y-123819047D02*
X131052380Y-123819047D01*
X131195238Y-123914285D01*
X131290476Y-124009523D01*
X131338095Y-124104761D01*
X119125750Y-169967060D02*
X119459084Y-169967060D01*
X119601941Y-170490869D02*
X119125750Y-170490869D01*
X119125750Y-169490869D01*
X119601941Y-169490869D01*
X120030512Y-170490869D02*
X120030512Y-169490869D01*
X120601941Y-170490869D01*
X120601941Y-169490869D01*
X121649560Y-170395631D02*
X121601941Y-170443250D01*
X121459084Y-170490869D01*
X121363846Y-170490869D01*
X121220989Y-170443250D01*
X121125750Y-170348012D01*
X121078131Y-170252774D01*
X121030512Y-170062298D01*
X121030512Y-169919441D01*
X121078131Y-169728965D01*
X121125750Y-169633727D01*
X121220989Y-169538489D01*
X121363846Y-169490869D01*
X121459084Y-169490869D01*
X121601941Y-169538489D01*
X121649560Y-169586108D01*
X121840036Y-170586108D02*
X122601941Y-170586108D01*
X123411465Y-170490869D02*
X123078131Y-170014679D01*
X122840036Y-170490869D02*
X122840036Y-169490869D01*
X123220989Y-169490869D01*
X123316227Y-169538489D01*
X123363846Y-169586108D01*
X123411465Y-169681346D01*
X123411465Y-169824203D01*
X123363846Y-169919441D01*
X123316227Y-169967060D01*
X123220989Y-170014679D01*
X122840036Y-170014679D01*
X124411465Y-170395631D02*
X124363846Y-170443250D01*
X124220989Y-170490869D01*
X124125750Y-170490869D01*
X123982893Y-170443250D01*
X123887655Y-170348012D01*
X123840036Y-170252774D01*
X123792417Y-170062298D01*
X123792417Y-169919441D01*
X123840036Y-169728965D01*
X123887655Y-169633727D01*
X123982893Y-169538489D01*
X124125750Y-169490869D01*
X124220989Y-169490869D01*
X124363846Y-169538489D01*
X124411465Y-169586108D01*
X124792417Y-169586108D02*
X124840036Y-169538489D01*
X124935274Y-169490869D01*
X125173369Y-169490869D01*
X125268608Y-169538489D01*
X125316227Y-169586108D01*
X125363846Y-169681346D01*
X125363846Y-169776584D01*
X125316227Y-169919441D01*
X124744798Y-170490869D01*
X125363846Y-170490869D01*
X137536391Y-144652606D02*
X136536391Y-144652606D01*
X136536391Y-144414511D01*
X136584011Y-144271653D01*
X136679249Y-144176415D01*
X136774487Y-144128796D01*
X136964963Y-144081177D01*
X137107820Y-144081177D01*
X137298296Y-144128796D01*
X137393534Y-144176415D01*
X137488772Y-144271653D01*
X137536391Y-144414511D01*
X137536391Y-144652606D01*
X136536391Y-143747844D02*
X136536391Y-143128796D01*
X136917344Y-143462130D01*
X136917344Y-143319272D01*
X136964963Y-143224034D01*
X137012582Y-143176415D01*
X137107820Y-143128796D01*
X137345915Y-143128796D01*
X137441153Y-143176415D01*
X137488772Y-143224034D01*
X137536391Y-143319272D01*
X137536391Y-143604987D01*
X137488772Y-143700225D01*
X137441153Y-143747844D01*
X127380952Y-138628571D02*
X127714285Y-138628571D01*
X127857142Y-139152380D02*
X127380952Y-139152380D01*
X127380952Y-138152380D01*
X127857142Y-138152380D01*
X128142857Y-138152380D02*
X128476190Y-139152380D01*
X128809523Y-138152380D01*
X129095238Y-138247619D02*
X129142857Y-138200000D01*
X129238095Y-138152380D01*
X129476190Y-138152380D01*
X129571428Y-138200000D01*
X129619047Y-138247619D01*
X129666666Y-138342857D01*
X129666666Y-138438095D01*
X129619047Y-138580952D01*
X129047619Y-139152380D01*
X129666666Y-139152380D01*
X98180952Y-137528571D02*
X98514285Y-137528571D01*
X98657142Y-138052380D02*
X98180952Y-138052380D01*
X98180952Y-137052380D01*
X98657142Y-137052380D01*
X98942857Y-137052380D02*
X99276190Y-138052380D01*
X99609523Y-137052380D01*
X100466666Y-138052380D02*
X99895238Y-138052380D01*
X100180952Y-138052380D02*
X100180952Y-137052380D01*
X100085714Y-137195238D01*
X99990476Y-137290476D01*
X99895238Y-137338095D01*
X94770512Y-182680869D02*
X94437179Y-182204679D01*
X94199084Y-182680869D02*
X94199084Y-181680869D01*
X94580036Y-181680869D01*
X94675274Y-181728489D01*
X94722893Y-181776108D01*
X94770512Y-181871346D01*
X94770512Y-182014203D01*
X94722893Y-182109441D01*
X94675274Y-182157060D01*
X94580036Y-182204679D01*
X94199084Y-182204679D01*
X126014285Y-146852380D02*
X126014285Y-145852380D01*
X126395238Y-145852380D01*
X126490476Y-145900000D01*
X126538095Y-145947619D01*
X126585714Y-146042857D01*
X126585714Y-146185714D01*
X126538095Y-146280952D01*
X126490476Y-146328571D01*
X126395238Y-146376190D01*
X126014285Y-146376190D01*
X127204761Y-145852380D02*
X127395238Y-145852380D01*
X127490476Y-145900000D01*
X127585714Y-145995238D01*
X127633333Y-146185714D01*
X127633333Y-146519047D01*
X127585714Y-146709523D01*
X127490476Y-146804761D01*
X127395238Y-146852380D01*
X127204761Y-146852380D01*
X127109523Y-146804761D01*
X127014285Y-146709523D01*
X126966666Y-146519047D01*
X126966666Y-146185714D01*
X127014285Y-145995238D01*
X127109523Y-145900000D01*
X127204761Y-145852380D01*
X128061904Y-146852380D02*
X128061904Y-145852380D01*
X128395238Y-146566666D01*
X128728571Y-145852380D01*
X128728571Y-146852380D01*
X129204761Y-146852380D02*
X129204761Y-145852380D01*
X129585714Y-145852380D01*
X129680952Y-145900000D01*
X129728571Y-145947619D01*
X129776190Y-146042857D01*
X129776190Y-146185714D01*
X129728571Y-146280952D01*
X129680952Y-146328571D01*
X129585714Y-146376190D01*
X129204761Y-146376190D01*
X130204761Y-146328571D02*
X130538095Y-146328571D01*
X130680952Y-146852380D02*
X130204761Y-146852380D01*
X130204761Y-145852380D01*
X130680952Y-145852380D01*
X131061904Y-145947619D02*
X131109523Y-145900000D01*
X131204761Y-145852380D01*
X131442857Y-145852380D01*
X131538095Y-145900000D01*
X131585714Y-145947619D01*
X131633333Y-146042857D01*
X131633333Y-146138095D01*
X131585714Y-146280952D01*
X131014285Y-146852380D01*
X131633333Y-146852380D01*
X103847619Y-142795238D02*
X103800000Y-142890476D01*
X103704761Y-142985714D01*
X103561904Y-143128571D01*
X103514285Y-143223809D01*
X103514285Y-143319047D01*
X103752380Y-143271428D02*
X103704761Y-143366666D01*
X103609523Y-143461904D01*
X103419047Y-143509523D01*
X103085714Y-143509523D01*
X102895238Y-143461904D01*
X102800000Y-143366666D01*
X102752380Y-143271428D01*
X102752380Y-143080952D01*
X102800000Y-142985714D01*
X102895238Y-142890476D01*
X103085714Y-142842857D01*
X103419047Y-142842857D01*
X103609523Y-142890476D01*
X103704761Y-142985714D01*
X103752380Y-143080952D01*
X103752380Y-143271428D01*
X103752380Y-141890476D02*
X103752380Y-142461904D01*
X103752380Y-142176190D02*
X102752380Y-142176190D01*
X102895238Y-142271428D01*
X102990476Y-142366666D01*
X103038095Y-142461904D01*
X94528571Y-178028571D02*
X94861904Y-178028571D01*
X95004761Y-178552380D02*
X94528571Y-178552380D01*
X94528571Y-177552380D01*
X95004761Y-177552380D01*
X95433333Y-178552380D02*
X95433333Y-177552380D01*
X96004761Y-178552380D01*
X96004761Y-177552380D01*
X97052380Y-178457142D02*
X97004761Y-178504761D01*
X96861904Y-178552380D01*
X96766666Y-178552380D01*
X96623809Y-178504761D01*
X96528571Y-178409523D01*
X96480952Y-178314285D01*
X96433333Y-178123809D01*
X96433333Y-177980952D01*
X96480952Y-177790476D01*
X96528571Y-177695238D01*
X96623809Y-177600000D01*
X96766666Y-177552380D01*
X96861904Y-177552380D01*
X97004761Y-177600000D01*
X97052380Y-177647619D01*
X97242857Y-178647619D02*
X98004761Y-178647619D01*
X98242857Y-178552380D02*
X98242857Y-177552380D01*
X98576190Y-178266666D01*
X98909523Y-177552380D01*
X98909523Y-178552380D01*
X99576190Y-177552380D02*
X99766666Y-177552380D01*
X99861904Y-177600000D01*
X99957142Y-177695238D01*
X100004761Y-177885714D01*
X100004761Y-178219047D01*
X99957142Y-178409523D01*
X99861904Y-178504761D01*
X99766666Y-178552380D01*
X99576190Y-178552380D01*
X99480952Y-178504761D01*
X99385714Y-178409523D01*
X99338095Y-178219047D01*
X99338095Y-177885714D01*
X99385714Y-177695238D01*
X99480952Y-177600000D01*
X99576190Y-177552380D01*
X100290476Y-177552380D02*
X100861904Y-177552380D01*
X100576190Y-178552380D02*
X100576190Y-177552380D01*
X101719047Y-178552380D02*
X101147619Y-178552380D01*
X101433333Y-178552380D02*
X101433333Y-177552380D01*
X101338095Y-177695238D01*
X101242857Y-177790476D01*
X101147619Y-177838095D01*
X93052380Y-142576190D02*
X92052380Y-142576190D01*
X92052380Y-142338095D01*
X92100000Y-142195238D01*
X92195238Y-142100000D01*
X92290476Y-142052380D01*
X92480952Y-142004761D01*
X92623809Y-142004761D01*
X92814285Y-142052380D01*
X92909523Y-142100000D01*
X93004761Y-142195238D01*
X93052380Y-142338095D01*
X93052380Y-142576190D01*
X93052380Y-141576190D02*
X92052380Y-141576190D01*
X92052380Y-140909523D02*
X92052380Y-140719047D01*
X92100000Y-140623809D01*
X92195238Y-140528571D01*
X92385714Y-140480952D01*
X92719047Y-140480952D01*
X92909523Y-140528571D01*
X93004761Y-140623809D01*
X93052380Y-140719047D01*
X93052380Y-140909523D01*
X93004761Y-141004761D01*
X92909523Y-141100000D01*
X92719047Y-141147619D01*
X92385714Y-141147619D01*
X92195238Y-141100000D01*
X92100000Y-141004761D01*
X92052380Y-140909523D01*
X93052380Y-140052380D02*
X92052380Y-140052380D01*
X92052380Y-139814285D01*
X92100000Y-139671428D01*
X92195238Y-139576190D01*
X92290476Y-139528571D01*
X92480952Y-139480952D01*
X92623809Y-139480952D01*
X92814285Y-139528571D01*
X92909523Y-139576190D01*
X93004761Y-139671428D01*
X93052380Y-139814285D01*
X93052380Y-140052380D01*
X92528571Y-139052380D02*
X92528571Y-138719047D01*
X93052380Y-138576190D02*
X93052380Y-139052380D01*
X92052380Y-139052380D01*
X92052380Y-138576190D01*
X136433333Y-142004761D02*
X136576190Y-142052380D01*
X136814285Y-142052380D01*
X136909523Y-142004761D01*
X136957142Y-141957142D01*
X137004761Y-141861904D01*
X137004761Y-141766666D01*
X136957142Y-141671428D01*
X136909523Y-141623809D01*
X136814285Y-141576190D01*
X136623809Y-141528571D01*
X136528571Y-141480952D01*
X136480952Y-141433333D01*
X136433333Y-141338095D01*
X136433333Y-141242857D01*
X136480952Y-141147619D01*
X136528571Y-141100000D01*
X136623809Y-141052380D01*
X136861904Y-141052380D01*
X137004761Y-141100000D01*
X137433333Y-141528571D02*
X137766666Y-141528571D01*
X137909523Y-142052380D02*
X137433333Y-142052380D01*
X137433333Y-141052380D01*
X137909523Y-141052380D01*
X138909523Y-142052380D02*
X138576190Y-141576190D01*
X138338095Y-142052380D02*
X138338095Y-141052380D01*
X138719047Y-141052380D01*
X138814285Y-141100000D01*
X138861904Y-141147619D01*
X138909523Y-141242857D01*
X138909523Y-141385714D01*
X138861904Y-141480952D01*
X138814285Y-141528571D01*
X138719047Y-141576190D01*
X138338095Y-141576190D01*
X139195238Y-141052380D02*
X139528571Y-142052380D01*
X139861904Y-141052380D01*
X140385714Y-141052380D02*
X140576190Y-141052380D01*
X140671428Y-141100000D01*
X140766666Y-141195238D01*
X140814285Y-141385714D01*
X140814285Y-141719047D01*
X140766666Y-141909523D01*
X140671428Y-142004761D01*
X140576190Y-142052380D01*
X140385714Y-142052380D01*
X140290476Y-142004761D01*
X140195238Y-141909523D01*
X140147619Y-141719047D01*
X140147619Y-141385714D01*
X140195238Y-141195238D01*
X140290476Y-141100000D01*
X140385714Y-141052380D01*
X141147619Y-141052380D02*
X141766666Y-141052380D01*
X141433333Y-141433333D01*
X141576190Y-141433333D01*
X141671428Y-141480952D01*
X141719047Y-141528571D01*
X141766666Y-141623809D01*
X141766666Y-141861904D01*
X141719047Y-141957142D01*
X141671428Y-142004761D01*
X141576190Y-142052380D01*
X141290476Y-142052380D01*
X141195238Y-142004761D01*
X141147619Y-141957142D01*
X137660512Y-126360869D02*
X137327179Y-125884679D01*
X137089084Y-126360869D02*
X137089084Y-125360869D01*
X137470036Y-125360869D01*
X137565274Y-125408489D01*
X137612893Y-125456108D01*
X137660512Y-125551346D01*
X137660512Y-125694203D01*
X137612893Y-125789441D01*
X137565274Y-125837060D01*
X137470036Y-125884679D01*
X137089084Y-125884679D01*
X111422344Y-151993891D02*
X111422344Y-150993891D01*
X111993772Y-151993891D01*
X111993772Y-150993891D01*
X112422344Y-151708177D02*
X112898534Y-151708177D01*
X112327106Y-151993891D02*
X112660439Y-150993891D01*
X112993772Y-151993891D01*
X113327106Y-151993891D02*
X113327106Y-150993891D01*
X113708058Y-150993891D01*
X113803296Y-151041511D01*
X113850915Y-151089130D01*
X113898534Y-151184368D01*
X113898534Y-151327225D01*
X113850915Y-151422463D01*
X113803296Y-151470082D01*
X113708058Y-151517701D01*
X113327106Y-151517701D01*
X114327106Y-151993891D02*
X114327106Y-150993891D01*
X114708058Y-150993891D01*
X114803296Y-151041511D01*
X114850915Y-151089130D01*
X114898534Y-151184368D01*
X114898534Y-151327225D01*
X114850915Y-151422463D01*
X114803296Y-151470082D01*
X114708058Y-151517701D01*
X114327106Y-151517701D01*
X115327106Y-151470082D02*
X115660439Y-151470082D01*
X115803296Y-151993891D02*
X115327106Y-151993891D01*
X115327106Y-150993891D01*
X115803296Y-150993891D01*
X92952380Y-135876190D02*
X91952380Y-135876190D01*
X91952380Y-135638095D01*
X92000000Y-135495238D01*
X92095238Y-135400000D01*
X92190476Y-135352380D01*
X92380952Y-135304761D01*
X92523809Y-135304761D01*
X92714285Y-135352380D01*
X92809523Y-135400000D01*
X92904761Y-135495238D01*
X92952380Y-135638095D01*
X92952380Y-135876190D01*
X92952380Y-134876190D02*
X91952380Y-134876190D01*
X91952380Y-134209523D02*
X91952380Y-134019047D01*
X92000000Y-133923809D01*
X92095238Y-133828571D01*
X92285714Y-133780952D01*
X92619047Y-133780952D01*
X92809523Y-133828571D01*
X92904761Y-133923809D01*
X92952380Y-134019047D01*
X92952380Y-134209523D01*
X92904761Y-134304761D01*
X92809523Y-134400000D01*
X92619047Y-134447619D01*
X92285714Y-134447619D01*
X92095238Y-134400000D01*
X92000000Y-134304761D01*
X91952380Y-134209523D01*
X92952380Y-133352380D02*
X91952380Y-133352380D01*
X91952380Y-133114285D01*
X92000000Y-132971428D01*
X92095238Y-132876190D01*
X92190476Y-132828571D01*
X92380952Y-132780952D01*
X92523809Y-132780952D01*
X92714285Y-132828571D01*
X92809523Y-132876190D01*
X92904761Y-132971428D01*
X92952380Y-133114285D01*
X92952380Y-133352380D01*
X92428571Y-132352380D02*
X92428571Y-132019047D01*
X92952380Y-131876190D02*
X92952380Y-132352380D01*
X91952380Y-132352380D01*
X91952380Y-131876190D01*
X118528571Y-179728571D02*
X118861904Y-179728571D01*
X119004761Y-180252380D02*
X118528571Y-180252380D01*
X118528571Y-179252380D01*
X119004761Y-179252380D01*
X119433333Y-180252380D02*
X119433333Y-179252380D01*
X120004761Y-180252380D01*
X120004761Y-179252380D01*
X121052380Y-180157142D02*
X121004761Y-180204761D01*
X120861904Y-180252380D01*
X120766666Y-180252380D01*
X120623809Y-180204761D01*
X120528571Y-180109523D01*
X120480952Y-180014285D01*
X120433333Y-179823809D01*
X120433333Y-179680952D01*
X120480952Y-179490476D01*
X120528571Y-179395238D01*
X120623809Y-179300000D01*
X120766666Y-179252380D01*
X120861904Y-179252380D01*
X121004761Y-179300000D01*
X121052380Y-179347619D01*
X121242857Y-180347619D02*
X122004761Y-180347619D01*
X122242857Y-180252380D02*
X122242857Y-179252380D01*
X122576190Y-179966666D01*
X122909523Y-179252380D01*
X122909523Y-180252380D01*
X123576190Y-179252380D02*
X123766666Y-179252380D01*
X123861904Y-179300000D01*
X123957142Y-179395238D01*
X124004761Y-179585714D01*
X124004761Y-179919047D01*
X123957142Y-180109523D01*
X123861904Y-180204761D01*
X123766666Y-180252380D01*
X123576190Y-180252380D01*
X123480952Y-180204761D01*
X123385714Y-180109523D01*
X123338095Y-179919047D01*
X123338095Y-179585714D01*
X123385714Y-179395238D01*
X123480952Y-179300000D01*
X123576190Y-179252380D01*
X124290476Y-179252380D02*
X124861904Y-179252380D01*
X124576190Y-180252380D02*
X124576190Y-179252380D01*
X125147619Y-179347619D02*
X125195238Y-179300000D01*
X125290476Y-179252380D01*
X125528571Y-179252380D01*
X125623809Y-179300000D01*
X125671428Y-179347619D01*
X125719047Y-179442857D01*
X125719047Y-179538095D01*
X125671428Y-179680952D01*
X125100000Y-180252380D01*
X125719047Y-180252380D01*
X137560512Y-182480869D02*
X137227179Y-182004679D01*
X136989084Y-182480869D02*
X136989084Y-181480869D01*
X137370036Y-181480869D01*
X137465274Y-181528489D01*
X137512893Y-181576108D01*
X137560512Y-181671346D01*
X137560512Y-181814203D01*
X137512893Y-181909441D01*
X137465274Y-181957060D01*
X137370036Y-182004679D01*
X136989084Y-182004679D01*
X125704761Y-129066666D02*
X125752380Y-128923809D01*
X125752380Y-128685714D01*
X125704761Y-128590476D01*
X125657142Y-128542857D01*
X125561904Y-128495238D01*
X125466666Y-128495238D01*
X125371428Y-128542857D01*
X125323809Y-128590476D01*
X125276190Y-128685714D01*
X125228571Y-128876190D01*
X125180952Y-128971428D01*
X125133333Y-129019047D01*
X125038095Y-129066666D01*
X124942857Y-129066666D01*
X124847619Y-129019047D01*
X124800000Y-128971428D01*
X124752380Y-128876190D01*
X124752380Y-128638095D01*
X124800000Y-128495238D01*
X125228571Y-128066666D02*
X125228571Y-127733333D01*
X125752380Y-127590476D02*
X125752380Y-128066666D01*
X124752380Y-128066666D01*
X124752380Y-127590476D01*
X125752380Y-126590476D02*
X125276190Y-126923809D01*
X125752380Y-127161904D02*
X124752380Y-127161904D01*
X124752380Y-126780952D01*
X124800000Y-126685714D01*
X124847619Y-126638095D01*
X124942857Y-126590476D01*
X125085714Y-126590476D01*
X125180952Y-126638095D01*
X125228571Y-126685714D01*
X125276190Y-126780952D01*
X125276190Y-127161904D01*
X124752380Y-126304761D02*
X125752380Y-125971428D01*
X124752380Y-125638095D01*
X124752380Y-125114285D02*
X124752380Y-124923809D01*
X124800000Y-124828571D01*
X124895238Y-124733333D01*
X125085714Y-124685714D01*
X125419047Y-124685714D01*
X125609523Y-124733333D01*
X125704761Y-124828571D01*
X125752380Y-124923809D01*
X125752380Y-125114285D01*
X125704761Y-125209523D01*
X125609523Y-125304761D01*
X125419047Y-125352380D01*
X125085714Y-125352380D01*
X124895238Y-125304761D01*
X124800000Y-125209523D01*
X124752380Y-125114285D01*
X124847619Y-124304761D02*
X124800000Y-124257142D01*
X124752380Y-124161904D01*
X124752380Y-123923809D01*
X124800000Y-123828571D01*
X124847619Y-123780952D01*
X124942857Y-123733333D01*
X125038095Y-123733333D01*
X125180952Y-123780952D01*
X125752380Y-124352380D01*
X125752380Y-123733333D01*
X118761904Y-162052380D02*
X118761904Y-161052380D01*
X119095238Y-161766666D01*
X119428571Y-161052380D01*
X119428571Y-162052380D01*
X120095238Y-161052380D02*
X120285714Y-161052380D01*
X120380952Y-161100000D01*
X120476190Y-161195238D01*
X120523809Y-161385714D01*
X120523809Y-161719047D01*
X120476190Y-161909523D01*
X120380952Y-162004761D01*
X120285714Y-162052380D01*
X120095238Y-162052380D01*
X120000000Y-162004761D01*
X119904761Y-161909523D01*
X119857142Y-161719047D01*
X119857142Y-161385714D01*
X119904761Y-161195238D01*
X120000000Y-161100000D01*
X120095238Y-161052380D01*
X120809523Y-161052380D02*
X121380952Y-161052380D01*
X121095238Y-162052380D02*
X121095238Y-161052380D01*
X121476190Y-162147619D02*
X122238095Y-162147619D01*
X122476190Y-162052380D02*
X122476190Y-161052380D01*
X122857142Y-161052380D01*
X122952380Y-161100000D01*
X123000000Y-161147619D01*
X123047619Y-161242857D01*
X123047619Y-161385714D01*
X123000000Y-161480952D01*
X122952380Y-161528571D01*
X122857142Y-161576190D01*
X122476190Y-161576190D01*
X123380952Y-161052380D02*
X123619047Y-162052380D01*
X123809523Y-161338095D01*
X124000000Y-162052380D01*
X124238095Y-161052380D01*
X124619047Y-162052380D02*
X124619047Y-161052380D01*
X124952380Y-161766666D01*
X125285714Y-161052380D01*
X125285714Y-162052380D01*
X125714285Y-161147619D02*
X125761904Y-161100000D01*
X125857142Y-161052380D01*
X126095238Y-161052380D01*
X126190476Y-161100000D01*
X126238095Y-161147619D01*
X126285714Y-161242857D01*
X126285714Y-161338095D01*
X126238095Y-161480952D01*
X125666666Y-162052380D01*
X126285714Y-162052380D01*
X120338095Y-154552380D02*
X120338095Y-153552380D01*
X120576190Y-153552380D01*
X120719047Y-153600000D01*
X120814285Y-153695238D01*
X120861904Y-153790476D01*
X120909523Y-153980952D01*
X120909523Y-154123809D01*
X120861904Y-154314285D01*
X120814285Y-154409523D01*
X120719047Y-154504761D01*
X120576190Y-154552380D01*
X120338095Y-154552380D01*
X121528571Y-154076190D02*
X121528571Y-154552380D01*
X121195238Y-153552380D02*
X121528571Y-154076190D01*
X121861904Y-153552380D01*
X122195238Y-154552380D02*
X122195238Y-153552380D01*
X122766666Y-154552380D01*
X122766666Y-153552380D01*
X123195238Y-154266666D02*
X123671428Y-154266666D01*
X123100000Y-154552380D02*
X123433333Y-153552380D01*
X123766666Y-154552380D01*
X124100000Y-154552380D02*
X124100000Y-153552380D01*
X124433333Y-154266666D01*
X124766666Y-153552380D01*
X124766666Y-154552380D01*
X125242857Y-154552380D02*
X125242857Y-153552380D01*
X125623809Y-153552380D02*
X126290476Y-154552380D01*
X126290476Y-153552380D02*
X125623809Y-154552380D01*
X126671428Y-154028571D02*
X127004761Y-154028571D01*
X127147619Y-154552380D02*
X126671428Y-154552380D01*
X126671428Y-153552380D01*
X127147619Y-153552380D01*
X128052380Y-154552380D02*
X127576190Y-154552380D01*
X127576190Y-153552380D01*
X128338095Y-153647619D02*
X128385714Y-153600000D01*
X128480952Y-153552380D01*
X128719047Y-153552380D01*
X128814285Y-153600000D01*
X128861904Y-153647619D01*
X128909523Y-153742857D01*
X128909523Y-153838095D01*
X128861904Y-153980952D01*
X128290476Y-154552380D01*
X128909523Y-154552380D01*
X122312344Y-136623891D02*
X121979011Y-136147701D01*
X121740915Y-136623891D02*
X121740915Y-135623891D01*
X122121868Y-135623891D01*
X122217106Y-135671511D01*
X122264725Y-135719130D01*
X122312344Y-135814368D01*
X122312344Y-135957225D01*
X122264725Y-136052463D01*
X122217106Y-136100082D01*
X122121868Y-136147701D01*
X121740915Y-136147701D01*
X122788534Y-136623891D02*
X122979011Y-136623891D01*
X123074249Y-136576272D01*
X123121868Y-136528653D01*
X123217106Y-136385796D01*
X123264725Y-136195320D01*
X123264725Y-135814368D01*
X123217106Y-135719130D01*
X123169487Y-135671511D01*
X123074249Y-135623891D01*
X122883772Y-135623891D01*
X122788534Y-135671511D01*
X122740915Y-135719130D01*
X122693296Y-135814368D01*
X122693296Y-136052463D01*
X122740915Y-136147701D01*
X122788534Y-136195320D01*
X122883772Y-136242939D01*
X123074249Y-136242939D01*
X123169487Y-136195320D01*
X123217106Y-136147701D01*
X123264725Y-136052463D01*
X94138095Y-153552380D02*
X94138095Y-152552380D01*
X94376190Y-152552380D01*
X94519047Y-152600000D01*
X94614285Y-152695238D01*
X94661904Y-152790476D01*
X94709523Y-152980952D01*
X94709523Y-153123809D01*
X94661904Y-153314285D01*
X94614285Y-153409523D01*
X94519047Y-153504761D01*
X94376190Y-153552380D01*
X94138095Y-153552380D01*
X95328571Y-153076190D02*
X95328571Y-153552380D01*
X94995238Y-152552380D02*
X95328571Y-153076190D01*
X95661904Y-152552380D01*
X95995238Y-153552380D02*
X95995238Y-152552380D01*
X96566666Y-153552380D01*
X96566666Y-152552380D01*
X96995238Y-153266666D02*
X97471428Y-153266666D01*
X96900000Y-153552380D02*
X97233333Y-152552380D01*
X97566666Y-153552380D01*
X97900000Y-153552380D02*
X97900000Y-152552380D01*
X98233333Y-153266666D01*
X98566666Y-152552380D01*
X98566666Y-153552380D01*
X99042857Y-153552380D02*
X99042857Y-152552380D01*
X99423809Y-152552380D02*
X100090476Y-153552380D01*
X100090476Y-152552380D02*
X99423809Y-153552380D01*
X100471428Y-153028571D02*
X100804761Y-153028571D01*
X100947619Y-153552380D02*
X100471428Y-153552380D01*
X100471428Y-152552380D01*
X100947619Y-152552380D01*
X101852380Y-153552380D02*
X101376190Y-153552380D01*
X101376190Y-152552380D01*
X102709523Y-153552380D02*
X102138095Y-153552380D01*
X102423809Y-153552380D02*
X102423809Y-152552380D01*
X102328571Y-152695238D01*
X102233333Y-152790476D01*
X102138095Y-152838095D01*
X104047619Y-134195238D02*
X104000000Y-134290476D01*
X103904761Y-134385714D01*
X103761904Y-134528571D01*
X103714285Y-134623809D01*
X103714285Y-134719047D01*
X103952380Y-134671428D02*
X103904761Y-134766666D01*
X103809523Y-134861904D01*
X103619047Y-134909523D01*
X103285714Y-134909523D01*
X103095238Y-134861904D01*
X103000000Y-134766666D01*
X102952380Y-134671428D01*
X102952380Y-134480952D01*
X103000000Y-134385714D01*
X103095238Y-134290476D01*
X103285714Y-134242857D01*
X103619047Y-134242857D01*
X103809523Y-134290476D01*
X103904761Y-134385714D01*
X103952380Y-134480952D01*
X103952380Y-134671428D01*
X103047619Y-133861904D02*
X103000000Y-133814285D01*
X102952380Y-133719047D01*
X102952380Y-133480952D01*
X103000000Y-133385714D01*
X103047619Y-133338095D01*
X103142857Y-133290476D01*
X103238095Y-133290476D01*
X103380952Y-133338095D01*
X103952380Y-133909523D01*
X103952380Y-133290476D01*
X97895238Y-186657142D02*
X97847619Y-186704761D01*
X97704761Y-186752380D01*
X97609523Y-186752380D01*
X97466666Y-186704761D01*
X97371428Y-186609523D01*
X97323809Y-186514285D01*
X97276190Y-186323809D01*
X97276190Y-186180952D01*
X97323809Y-185990476D01*
X97371428Y-185895238D01*
X97466666Y-185800000D01*
X97609523Y-185752380D01*
X97704761Y-185752380D01*
X97847619Y-185800000D01*
X97895238Y-185847619D01*
X98514285Y-185752380D02*
X98704761Y-185752380D01*
X98800000Y-185800000D01*
X98895238Y-185895238D01*
X98942857Y-186085714D01*
X98942857Y-186419047D01*
X98895238Y-186609523D01*
X98800000Y-186704761D01*
X98704761Y-186752380D01*
X98514285Y-186752380D01*
X98419047Y-186704761D01*
X98323809Y-186609523D01*
X98276190Y-186419047D01*
X98276190Y-186085714D01*
X98323809Y-185895238D01*
X98419047Y-185800000D01*
X98514285Y-185752380D01*
X99371428Y-186752380D02*
X99371428Y-185752380D01*
X99942857Y-186752380D01*
X99942857Y-185752380D01*
X100276190Y-185752380D02*
X100847619Y-185752380D01*
X100561904Y-186752380D02*
X100561904Y-185752380D01*
X101133333Y-186466666D02*
X101609523Y-186466666D01*
X101038095Y-186752380D02*
X101371428Y-185752380D01*
X101704761Y-186752380D01*
X102609523Y-186657142D02*
X102561904Y-186704761D01*
X102419047Y-186752380D01*
X102323809Y-186752380D01*
X102180952Y-186704761D01*
X102085714Y-186609523D01*
X102038095Y-186514285D01*
X101990476Y-186323809D01*
X101990476Y-186180952D01*
X102038095Y-185990476D01*
X102085714Y-185895238D01*
X102180952Y-185800000D01*
X102323809Y-185752380D01*
X102419047Y-185752380D01*
X102561904Y-185800000D01*
X102609523Y-185847619D01*
X102895238Y-185752380D02*
X103466666Y-185752380D01*
X103180952Y-186752380D02*
X103180952Y-185752380D01*
X104323809Y-186752380D02*
X103752380Y-186752380D01*
X104038095Y-186752380D02*
X104038095Y-185752380D01*
X103942857Y-185895238D01*
X103847619Y-185990476D01*
X103752380Y-186038095D01*
X134118131Y-177975155D02*
X134165750Y-178022774D01*
X134213369Y-178165631D01*
X134213369Y-178260869D01*
X134165750Y-178403727D01*
X134070512Y-178498965D01*
X133975274Y-178546584D01*
X133784798Y-178594203D01*
X133641941Y-178594203D01*
X133451465Y-178546584D01*
X133356227Y-178498965D01*
X133260989Y-178403727D01*
X133213369Y-178260869D01*
X133213369Y-178165631D01*
X133260989Y-178022774D01*
X133308608Y-177975155D01*
X133546703Y-177118012D02*
X134213369Y-177118012D01*
X133165750Y-177356108D02*
X133880036Y-177594203D01*
X133880036Y-176975155D01*
X94404761Y-169228571D02*
X94738095Y-169228571D01*
X94880952Y-169752380D02*
X94404761Y-169752380D01*
X94404761Y-168752380D01*
X94880952Y-168752380D01*
X95309523Y-169752380D02*
X95309523Y-168752380D01*
X95880952Y-169752380D01*
X95880952Y-168752380D01*
X96928571Y-169657142D02*
X96880952Y-169704761D01*
X96738095Y-169752380D01*
X96642857Y-169752380D01*
X96500000Y-169704761D01*
X96404761Y-169609523D01*
X96357142Y-169514285D01*
X96309523Y-169323809D01*
X96309523Y-169180952D01*
X96357142Y-168990476D01*
X96404761Y-168895238D01*
X96500000Y-168800000D01*
X96642857Y-168752380D01*
X96738095Y-168752380D01*
X96880952Y-168800000D01*
X96928571Y-168847619D01*
X97119047Y-169847619D02*
X97880952Y-169847619D01*
X98690476Y-169752380D02*
X98357142Y-169276190D01*
X98119047Y-169752380D02*
X98119047Y-168752380D01*
X98500000Y-168752380D01*
X98595238Y-168800000D01*
X98642857Y-168847619D01*
X98690476Y-168942857D01*
X98690476Y-169085714D01*
X98642857Y-169180952D01*
X98595238Y-169228571D01*
X98500000Y-169276190D01*
X98119047Y-169276190D01*
X99690476Y-169657142D02*
X99642857Y-169704761D01*
X99500000Y-169752380D01*
X99404761Y-169752380D01*
X99261904Y-169704761D01*
X99166666Y-169609523D01*
X99119047Y-169514285D01*
X99071428Y-169323809D01*
X99071428Y-169180952D01*
X99119047Y-168990476D01*
X99166666Y-168895238D01*
X99261904Y-168800000D01*
X99404761Y-168752380D01*
X99500000Y-168752380D01*
X99642857Y-168800000D01*
X99690476Y-168847619D01*
X100642857Y-169752380D02*
X100071428Y-169752380D01*
X100357142Y-169752380D02*
X100357142Y-168752380D01*
X100261904Y-168895238D01*
X100166666Y-168990476D01*
X100071428Y-169038095D01*
X103952380Y-130266666D02*
X103476190Y-130600000D01*
X103952380Y-130838095D02*
X102952380Y-130838095D01*
X102952380Y-130457142D01*
X103000000Y-130361904D01*
X103047619Y-130314285D01*
X103142857Y-130266666D01*
X103285714Y-130266666D01*
X103380952Y-130314285D01*
X103428571Y-130361904D01*
X103476190Y-130457142D01*
X103476190Y-130838095D01*
X102952380Y-129933333D02*
X102952380Y-129266666D01*
X103952380Y-129695238D01*
D11*
X115481511Y-179070000D02*
X116481511Y-179570000D01*
X105971511Y-184280000D02*
X105971511Y-156080000D01*
X105971511Y-156080000D02*
X115091511Y-156080000D01*
X113781511Y-172230000D02*
X113781511Y-182980000D01*
X113781511Y-182980000D02*
X107281511Y-182980000D01*
X115091511Y-156080000D02*
X115091511Y-184280000D01*
X116481511Y-179570000D02*
X116481511Y-178570000D01*
X113781511Y-157380000D02*
X113781511Y-168130000D01*
X115091511Y-184280000D02*
X105971511Y-184280000D01*
X107281511Y-157380000D02*
X113781511Y-157380000D01*
X115091511Y-172230000D02*
X113781511Y-172230000D01*
X113781511Y-168130000D02*
X113781511Y-168130000D01*
X113781511Y-168130000D02*
X115091511Y-168130000D01*
X107281511Y-182980000D02*
X107281511Y-157380000D01*
X116481511Y-178570000D02*
X115481511Y-179070000D01*
X141159011Y-174231511D02*
X129219011Y-174231511D01*
X128889011Y-174561511D02*
X131219011Y-174561511D01*
X129219011Y-166381511D02*
X141159011Y-166381511D01*
X141159011Y-166381511D02*
X141159011Y-174231511D01*
X129219011Y-174231511D02*
X129219011Y-166381511D01*
X128889011Y-172111511D02*
X128889011Y-174561511D01*
X140259011Y-164491511D02*
X140259011Y-154331511D01*
X140259011Y-154331511D02*
X132639011Y-154331511D01*
X132639011Y-154331511D02*
X132639011Y-164491511D01*
X132639011Y-164491511D02*
X140259011Y-164491511D01*
X138989011Y-154331511D02*
X138989011Y-164491511D01*
X129364011Y-159150259D02*
X129364011Y-159672763D01*
X130834011Y-159150259D02*
X130834011Y-159672763D01*
X134909011Y-133211511D02*
X134909011Y-137061511D01*
X132909011Y-133211511D02*
X132909011Y-137061511D01*
X134909011Y-133211511D02*
X132909011Y-133211511D01*
X107974011Y-149024447D02*
X107974011Y-149478575D01*
X106504011Y-149024447D02*
X106504011Y-149478575D01*
X100254011Y-154966511D02*
X100889011Y-154966511D01*
X100889011Y-158649511D02*
X100889011Y-154966511D01*
X98349011Y-154331511D02*
X100254011Y-154331511D01*
X93269011Y-155601511D02*
X93269011Y-158649511D01*
X99619011Y-158649511D02*
X99619011Y-159411511D01*
X100889011Y-158649511D02*
X99619011Y-158649511D01*
X100254011Y-154966511D02*
X100254011Y-154331511D01*
X98349011Y-154331511D02*
X93904011Y-154331511D01*
X93523011Y-158649511D02*
X94285011Y-159411511D01*
X94285011Y-159411511D02*
X99619011Y-159411511D01*
X93269011Y-154966511D02*
X93269011Y-155601511D01*
X93269011Y-154966511D02*
X93904011Y-154966511D01*
X93904011Y-154331511D02*
X93904011Y-154966511D01*
X93269011Y-158649511D02*
X93523011Y-158649511D01*
X101687011Y-139091511D02*
X97587011Y-139091511D01*
X97587011Y-139931511D02*
X97587011Y-139091511D01*
X97787011Y-143231511D02*
X98387011Y-144171511D01*
X97587011Y-139931511D02*
X97079011Y-139931511D01*
X101587011Y-143031511D02*
X101587011Y-143831511D01*
X101687011Y-139931511D02*
X102159011Y-139931511D01*
X101587011Y-143831511D02*
X100987011Y-143831511D01*
X98387011Y-144171511D02*
X100987011Y-144171511D01*
X101687011Y-139091511D02*
X101687011Y-139931511D01*
X97079011Y-143231511D02*
X97787011Y-143231511D01*
X102159011Y-143031511D02*
X101587011Y-143031511D01*
X97079011Y-139931511D02*
X97079011Y-143231511D01*
X102159011Y-143031511D02*
X102159011Y-139931511D01*
X100987011Y-143831511D02*
X100987011Y-144171511D01*
X120919011Y-133679011D02*
X120919011Y-135354011D01*
X120919011Y-133679011D02*
X120919011Y-133029011D01*
X124039011Y-133679011D02*
X124039011Y-133029011D01*
X124039011Y-133679011D02*
X124039011Y-134329011D01*
X120919011Y-141631511D02*
X120919011Y-140981511D01*
X120919011Y-141631511D02*
X120919011Y-143306511D01*
X124039011Y-141631511D02*
X124039011Y-142281511D01*
X124039011Y-141631511D02*
X124039011Y-140981511D01*
X106553575Y-137086511D02*
X106099447Y-137086511D01*
X106553575Y-138556511D02*
X106099447Y-138556511D01*
X122251947Y-146176511D02*
X122706075Y-146176511D01*
X122251947Y-144706511D02*
X122706075Y-144706511D01*
X127559011Y-185101511D02*
X127559011Y-181001511D01*
X122479011Y-181801511D02*
X122479011Y-184401511D01*
X126719011Y-181001511D02*
X126719011Y-180493511D01*
X123419011Y-180493511D02*
X123419011Y-181201511D01*
X123419011Y-181201511D02*
X122479011Y-181801511D01*
X123619011Y-185573511D02*
X123619011Y-185001511D01*
X127559011Y-185101511D02*
X126719011Y-185101511D01*
X122819011Y-185001511D02*
X122819011Y-184401511D01*
X122819011Y-184401511D02*
X122479011Y-184401511D01*
X123619011Y-185001511D02*
X122819011Y-185001511D01*
X126719011Y-180493511D02*
X123419011Y-180493511D01*
X123619011Y-185573511D02*
X126719011Y-185573511D01*
X126719011Y-181001511D02*
X127559011Y-181001511D01*
X126719011Y-185101511D02*
X126719011Y-185573511D01*
X130159011Y-125121511D02*
X130159011Y-130261511D01*
X127499011Y-123851511D02*
X127499011Y-122521511D01*
X127499011Y-125121511D02*
X127499011Y-130261511D01*
X127499011Y-122521511D02*
X128829011Y-122521511D01*
X127499011Y-125121511D02*
X130159011Y-125121511D01*
X127499011Y-130261511D02*
X130159011Y-130261511D01*
X127610000Y-168200000D02*
X127610000Y-165300000D01*
X118590000Y-164722000D02*
X118590000Y-163960000D01*
X117320000Y-165200000D02*
X117320000Y-168405000D01*
X127610000Y-165300000D02*
X127145000Y-165300000D01*
X117810000Y-165200000D02*
X117810000Y-164722000D01*
X117910000Y-168405000D02*
X117910000Y-169100000D01*
X127010000Y-169040000D02*
X127010000Y-168200000D01*
X127145000Y-165300000D02*
X126310000Y-163960000D01*
X117910000Y-168405000D02*
X117320000Y-168405000D01*
X117910000Y-169100000D02*
X127010000Y-169040000D01*
X126310000Y-163960000D02*
X118590000Y-163960000D01*
X117320000Y-165200000D02*
X117810000Y-165200000D01*
X127610000Y-168200000D02*
X127010000Y-168200000D01*
X117810000Y-164722000D02*
X118590000Y-164722000D01*
X136179011Y-141841511D02*
X134179011Y-141841511D01*
X134179011Y-141841511D02*
X134179011Y-145691511D01*
X136179011Y-141841511D02*
X136179011Y-145691511D01*
X126289011Y-133881511D02*
X126289011Y-136981511D01*
X130061011Y-132741511D02*
X127461011Y-132741511D01*
X126761011Y-137821511D02*
X130861011Y-137821511D01*
X126861011Y-133081511D02*
X127461011Y-133081511D01*
X126861011Y-133881511D02*
X126861011Y-133081511D01*
X126289011Y-133881511D02*
X126861011Y-133881511D01*
X131369011Y-133681511D02*
X130661011Y-133681511D01*
X126761011Y-137821511D02*
X126761011Y-136981511D01*
X126761011Y-136981511D02*
X126289011Y-136981511D01*
X130661011Y-133681511D02*
X130061011Y-132741511D01*
X130861011Y-136981511D02*
X131369011Y-136981511D01*
X131369011Y-136981511D02*
X131369011Y-133681511D01*
X127461011Y-133081511D02*
X127461011Y-132741511D01*
X130861011Y-136981511D02*
X130861011Y-137821511D01*
X97587011Y-132311511D02*
X97587011Y-131471511D01*
X102159011Y-135411511D02*
X101587011Y-135411511D01*
X101587011Y-135411511D02*
X101587011Y-136211511D01*
X101587011Y-136211511D02*
X100987011Y-136211511D01*
X97587011Y-132311511D02*
X97079011Y-132311511D01*
X97079011Y-132311511D02*
X97079011Y-135611511D01*
X101687011Y-131471511D02*
X101687011Y-132311511D01*
X97787011Y-135611511D02*
X98387011Y-136551511D01*
X101687011Y-131471511D02*
X97587011Y-131471511D01*
X102159011Y-135411511D02*
X102159011Y-132311511D01*
X100987011Y-136211511D02*
X100987011Y-136551511D01*
X98387011Y-136551511D02*
X100987011Y-136551511D01*
X101687011Y-132311511D02*
X102159011Y-132311511D01*
X97079011Y-135611511D02*
X97787011Y-135611511D01*
X130861011Y-144601511D02*
X130861011Y-145441511D01*
X127461011Y-140701511D02*
X127461011Y-140361511D01*
X130061011Y-140361511D02*
X127461011Y-140361511D01*
X126761011Y-145441511D02*
X130861011Y-145441511D01*
X126289011Y-141501511D02*
X126289011Y-144601511D01*
X131369011Y-141301511D02*
X130661011Y-141301511D01*
X126761011Y-145441511D02*
X126761011Y-144601511D01*
X130661011Y-141301511D02*
X130061011Y-140361511D01*
X126289011Y-141501511D02*
X126861011Y-141501511D01*
X131369011Y-144601511D02*
X131369011Y-141301511D01*
X126761011Y-144601511D02*
X126289011Y-144601511D01*
X126861011Y-141501511D02*
X126861011Y-140701511D01*
X126861011Y-140701511D02*
X127461011Y-140701511D01*
X130861011Y-144601511D02*
X131369011Y-144601511D01*
X104409011Y-142901511D02*
X104409011Y-142251511D01*
X107529011Y-142901511D02*
X107529011Y-141226511D01*
X107529011Y-142901511D02*
X107529011Y-143551511D01*
X104409011Y-142901511D02*
X104409011Y-143551511D01*
X93139011Y-175851511D02*
X93604011Y-175851511D01*
X102839011Y-172746511D02*
X103429011Y-172746511D01*
X102839011Y-172746511D02*
X102839011Y-172051511D01*
X93139011Y-172951511D02*
X93139011Y-175851511D01*
X94439011Y-177191511D02*
X102159011Y-177191511D01*
X102839011Y-172051511D02*
X93739011Y-172111511D01*
X102939011Y-176429511D02*
X102159011Y-176429511D01*
X102159011Y-176429511D02*
X102159011Y-177191511D01*
X102939011Y-175951511D02*
X102939011Y-176429511D01*
X93139011Y-172951511D02*
X93739011Y-172951511D01*
X93739011Y-172111511D02*
X93739011Y-172951511D01*
X93604011Y-175851511D02*
X94439011Y-177191511D01*
X103429011Y-175951511D02*
X102939011Y-175951511D01*
X103429011Y-175951511D02*
X103429011Y-172746511D01*
X95539011Y-138291511D02*
X93539011Y-138291511D01*
X93539011Y-138291511D02*
X93539011Y-142141511D01*
X95539011Y-138291511D02*
X95539011Y-142141511D01*
X137659011Y-132696511D02*
X138989011Y-132696511D01*
X137659011Y-134026511D02*
X137659011Y-132696511D01*
X137659011Y-135296511D02*
X137659011Y-140436511D01*
X140319011Y-135296511D02*
X140319011Y-140436511D01*
X137659011Y-135296511D02*
X140319011Y-135296511D01*
X137659011Y-140436511D02*
X140319011Y-140436511D01*
X116839011Y-138601511D02*
X116839011Y-149351511D01*
X116839011Y-134501511D02*
X116839011Y-134501511D01*
X110339011Y-123751511D02*
X116839011Y-123751511D01*
X110339011Y-149351511D02*
X110339011Y-123751511D01*
X118149011Y-138601511D02*
X116839011Y-138601511D01*
X119539011Y-145941511D02*
X119539011Y-144941511D01*
X119539011Y-144941511D02*
X118539011Y-145441511D01*
X116839011Y-134501511D02*
X118149011Y-134501511D01*
X118149011Y-150651511D02*
X109029011Y-150651511D01*
X116839011Y-149351511D02*
X110339011Y-149351511D01*
X109029011Y-150651511D02*
X109029011Y-122451511D01*
X118539011Y-145441511D02*
X119539011Y-145941511D01*
X116839011Y-123751511D02*
X116839011Y-134501511D01*
X118149011Y-122451511D02*
X118149011Y-150651511D01*
X109029011Y-122451511D02*
X118149011Y-122451511D01*
X95539011Y-136211511D02*
X95539011Y-132361511D01*
X93539011Y-136211511D02*
X93539011Y-132361511D01*
X93539011Y-136211511D02*
X95539011Y-136211511D01*
X117889011Y-174621511D02*
X117889011Y-174143511D01*
X117989011Y-177826511D02*
X117399011Y-177826511D01*
X117399011Y-174621511D02*
X117889011Y-174621511D01*
X127689011Y-174721511D02*
X127224011Y-174721511D01*
X127689011Y-177621511D02*
X127689011Y-174721511D01*
X117889011Y-174143511D02*
X118669011Y-174143511D01*
X117989011Y-178521511D02*
X127089011Y-178461511D01*
X126389011Y-173381511D02*
X118669011Y-173381511D01*
X118669011Y-174143511D02*
X118669011Y-173381511D01*
X117989011Y-177826511D02*
X117989011Y-178521511D01*
X127224011Y-174721511D02*
X126389011Y-173381511D01*
X127089011Y-178461511D02*
X127089011Y-177621511D01*
X117399011Y-174621511D02*
X117399011Y-177826511D01*
X127689011Y-177621511D02*
X127089011Y-177621511D01*
X121149011Y-123866511D02*
X121149011Y-122536511D01*
X121149011Y-125136511D02*
X123809011Y-125136511D01*
X123809011Y-125136511D02*
X123809011Y-130276511D01*
X121149011Y-130276511D02*
X123809011Y-130276511D01*
X121149011Y-125136511D02*
X121149011Y-130276511D01*
X121149011Y-122536511D02*
X122479011Y-122536511D01*
X125654011Y-160681511D02*
X125654011Y-160046511D01*
X126035011Y-156363511D02*
X125273011Y-155601511D01*
X121209011Y-160681511D02*
X119304011Y-160681511D01*
X119304011Y-160046511D02*
X119304011Y-160681511D01*
X119304011Y-160046511D02*
X118669011Y-160046511D01*
X126289011Y-160046511D02*
X125654011Y-160046511D01*
X126289011Y-160046511D02*
X126289011Y-159411511D01*
X126289011Y-156363511D02*
X126035011Y-156363511D01*
X118669011Y-156363511D02*
X118669011Y-160046511D01*
X119939011Y-156363511D02*
X119939011Y-155601511D01*
X118669011Y-156363511D02*
X119939011Y-156363511D01*
X126289011Y-159411511D02*
X126289011Y-156363511D01*
X125273011Y-155601511D02*
X119939011Y-155601511D01*
X121209011Y-160681511D02*
X125654011Y-160681511D01*
X120999011Y-147961511D02*
X119999011Y-148961511D01*
X119999011Y-153081511D02*
X130119011Y-153081511D01*
X130119011Y-153081511D02*
X130119011Y-147961511D01*
X119999011Y-148961511D02*
X119999011Y-153081511D01*
X130419011Y-147661511D02*
X128009011Y-147661511D01*
X130419011Y-150071511D02*
X130419011Y-147661511D01*
X130119011Y-147961511D02*
X120999011Y-147961511D01*
X122251947Y-138556511D02*
X122706075Y-138556511D01*
X122251947Y-137086511D02*
X122706075Y-137086511D01*
X104679011Y-146691511D02*
X94559011Y-146691511D01*
X94259011Y-152111511D02*
X96669011Y-152111511D01*
X94559011Y-151811511D02*
X103679011Y-151811511D01*
X104679011Y-150811511D02*
X104679011Y-146691511D01*
X103679011Y-151811511D02*
X104679011Y-150811511D01*
X94559011Y-146691511D02*
X94559011Y-151811511D01*
X94259011Y-149701511D02*
X94259011Y-152111511D01*
X107529011Y-134011511D02*
X107529011Y-134661511D01*
X104409011Y-134011511D02*
X104409011Y-134661511D01*
X104409011Y-134011511D02*
X104409011Y-133361511D01*
X107529011Y-134011511D02*
X107529011Y-132336511D01*
X99289011Y-181201511D02*
X98349011Y-181801511D01*
X98689011Y-185001511D02*
X98689011Y-184401511D01*
X99489011Y-185573511D02*
X102589011Y-185573511D01*
X102589011Y-181001511D02*
X103429011Y-181001511D01*
X103429011Y-185101511D02*
X102589011Y-185101511D01*
X98689011Y-184401511D02*
X98349011Y-184401511D01*
X102589011Y-180493511D02*
X99289011Y-180493511D01*
X99289011Y-180493511D02*
X99289011Y-181201511D01*
X98349011Y-181801511D02*
X98349011Y-184401511D01*
X103429011Y-185101511D02*
X103429011Y-181001511D01*
X99489011Y-185001511D02*
X98689011Y-185001511D01*
X102589011Y-181001511D02*
X102589011Y-180493511D01*
X102589011Y-185101511D02*
X102589011Y-185573511D01*
X99489011Y-185573511D02*
X99489011Y-185001511D01*
X132635000Y-177538748D02*
X132635000Y-178061252D01*
X131165000Y-177538748D02*
X131165000Y-178061252D01*
X93139011Y-166961511D02*
X93604011Y-166961511D01*
X102839011Y-163856511D02*
X103429011Y-163856511D01*
X102939011Y-167539511D02*
X102159011Y-167539511D01*
X93604011Y-166961511D02*
X94439011Y-168301511D01*
X103429011Y-167061511D02*
X102939011Y-167061511D01*
X103429011Y-167061511D02*
X103429011Y-163856511D01*
X102939011Y-167061511D02*
X102939011Y-167539511D01*
X102839011Y-163161511D02*
X93739011Y-163221511D01*
X102159011Y-167539511D02*
X102159011Y-168301511D01*
X102839011Y-163856511D02*
X102839011Y-163161511D01*
X93739011Y-163221511D02*
X93739011Y-164061511D01*
X93139011Y-164061511D02*
X93739011Y-164061511D01*
X94439011Y-168301511D02*
X102159011Y-168301511D01*
X93139011Y-164061511D02*
X93139011Y-166961511D01*
X106196075Y-130936511D02*
X105741947Y-130936511D01*
X106196075Y-129466511D02*
X105741947Y-129466511D01*
%LPC*%
D12*
X109261511Y-161290000D03*
X111801511Y-161290000D03*
X109261511Y-163830000D03*
X111801511Y-163830000D03*
X109261511Y-166370000D03*
X111801511Y-166370000D03*
X109261511Y-168910000D03*
X111801511Y-168910000D03*
X109261511Y-171450000D03*
X111801511Y-171450000D03*
X109261511Y-173990000D03*
X111801511Y-173990000D03*
X109261511Y-176530000D03*
X111801511Y-176530000D03*
X109261511Y-179070000D03*
D13*
X111801511Y-179070000D03*
D14*
X132639011Y-172111511D03*
D15*
X135179011Y-172111511D03*
X137719011Y-172111511D03*
D16*
X136449011Y-161951511D03*
D17*
X136449011Y-156871511D03*
D18*
X130099011Y-158461511D03*
X130099011Y-160361511D03*
D19*
X133909011Y-134011511D03*
X133909011Y-136811511D03*
D20*
X107239011Y-148339011D03*
X107239011Y-150164011D03*
D21*
X94500000Y-126000000D03*
D22*
X94539011Y-156871511D03*
X97079011Y-156871511D03*
X99619011Y-156871511D03*
X98349011Y-141631511D03*
X100889011Y-141631511D03*
D23*
X121529011Y-134616511D03*
X123429011Y-134616511D03*
X122479011Y-132741511D03*
X121529011Y-142569011D03*
X123429011Y-142569011D03*
X122479011Y-140694011D03*
D24*
X107239011Y-137821511D03*
X105414011Y-137821511D03*
D25*
X121566511Y-145441511D03*
X123391511Y-145441511D03*
D22*
X125019011Y-181763511D03*
X125019011Y-184303511D03*
D26*
X128829011Y-123851511D03*
D27*
X128829011Y-126391511D03*
X128829011Y-128931511D03*
D22*
X126210000Y-166500000D03*
X123670000Y-166500000D03*
X121130000Y-166500000D03*
X118590000Y-166500000D03*
D19*
X135179011Y-142641511D03*
X135179011Y-145441511D03*
D22*
X130099011Y-135281511D03*
X127559011Y-135281511D03*
X98349011Y-134011511D03*
X100889011Y-134011511D03*
D21*
X94500000Y-182000000D03*
D22*
X130099011Y-142901511D03*
X127559011Y-142901511D03*
D28*
X106919011Y-141964011D03*
X105019011Y-141964011D03*
X105969011Y-143839011D03*
D22*
X94539011Y-174651511D03*
X97079011Y-174651511D03*
X99619011Y-174651511D03*
X102159011Y-174651511D03*
D19*
X94539011Y-139091511D03*
X94539011Y-141891511D03*
D26*
X138989011Y-134026511D03*
D27*
X138989011Y-136566511D03*
X138989011Y-139106511D03*
D21*
X137000000Y-126000000D03*
D13*
X114859011Y-145441511D03*
D12*
X112319011Y-145441511D03*
X114859011Y-142901511D03*
X112319011Y-142901511D03*
X114859011Y-140361511D03*
X112319011Y-140361511D03*
X114859011Y-137821511D03*
X112319011Y-137821511D03*
X114859011Y-135281511D03*
X112319011Y-135281511D03*
X114859011Y-132741511D03*
X112319011Y-132741511D03*
X114859011Y-130201511D03*
X112319011Y-130201511D03*
X114859011Y-127661511D03*
X112319011Y-127661511D03*
D19*
X94539011Y-135411511D03*
X94539011Y-132611511D03*
D22*
X126289011Y-175921511D03*
X123749011Y-175921511D03*
X121209011Y-175921511D03*
X118669011Y-175921511D03*
D21*
X137000000Y-182000000D03*
D26*
X122479011Y-123866511D03*
D27*
X122479011Y-126406511D03*
X122479011Y-128946511D03*
D22*
X125019011Y-158141511D03*
X122479011Y-158141511D03*
X119939011Y-158141511D03*
D29*
X127559011Y-149871511D03*
D30*
X125059011Y-149871511D03*
X122559011Y-149871511D03*
D25*
X121566511Y-137821511D03*
X123391511Y-137821511D03*
D31*
X97119011Y-149901511D03*
D30*
X99619011Y-149901511D03*
X102119011Y-149901511D03*
D28*
X106919011Y-133074011D03*
X105019011Y-133074011D03*
X105969011Y-134949011D03*
D22*
X100889011Y-181763511D03*
X100889011Y-184303511D03*
D18*
X131900000Y-176850000D03*
X131900000Y-178750000D03*
D22*
X94539011Y-165761511D03*
X97079011Y-165761511D03*
X99619011Y-165761511D03*
X102159011Y-165761511D03*
D24*
X106881511Y-130201511D03*
X105056511Y-130201511D03*
M02*
