%TF.GenerationSoftware,KiCad,Pcbnew,(6.0.1)*%
%TF.CreationDate,2022-02-03T23:41:23+01:00*%
%TF.ProjectId,CarteSecondaire,43617274-6553-4656-936f-6e6461697265,rev?*%
%TF.SameCoordinates,Original*%
%TF.FileFunction,Legend,Top*%
%TF.FilePolarity,Positive*%
%FSLAX46Y46*%
G04 Gerber Fmt 4.6, Leading zero omitted, Abs format (unit mm)*
G04 Created by KiCad (PCBNEW (6.0.1)) date 2022-02-03 23:41:23*
%MOMM*%
%LPD*%
G01*
G04 APERTURE LIST*
%ADD10C,0.150000*%
%ADD11C,0.120000*%
G04 APERTURE END LIST*
D10*
%TO.C,NAPPE2*%
X117152380Y-174042857D02*
X116152380Y-174042857D01*
X117152380Y-173471428D01*
X116152380Y-173471428D01*
X116866666Y-173042857D02*
X116866666Y-172566666D01*
X117152380Y-173138095D02*
X116152380Y-172804761D01*
X117152380Y-172471428D01*
X117152380Y-172138095D02*
X116152380Y-172138095D01*
X116152380Y-171757142D01*
X116200000Y-171661904D01*
X116247619Y-171614285D01*
X116342857Y-171566666D01*
X116485714Y-171566666D01*
X116580952Y-171614285D01*
X116628571Y-171661904D01*
X116676190Y-171757142D01*
X116676190Y-172138095D01*
X117152380Y-171138095D02*
X116152380Y-171138095D01*
X116152380Y-170757142D01*
X116200000Y-170661904D01*
X116247619Y-170614285D01*
X116342857Y-170566666D01*
X116485714Y-170566666D01*
X116580952Y-170614285D01*
X116628571Y-170661904D01*
X116676190Y-170757142D01*
X116676190Y-171138095D01*
X116628571Y-170138095D02*
X116628571Y-169804761D01*
X117152380Y-169661904D02*
X117152380Y-170138095D01*
X116152380Y-170138095D01*
X116152380Y-169661904D01*
X116247619Y-169280952D02*
X116200000Y-169233333D01*
X116152380Y-169138095D01*
X116152380Y-168900000D01*
X116200000Y-168804761D01*
X116247619Y-168757142D01*
X116342857Y-168709523D01*
X116438095Y-168709523D01*
X116580952Y-168757142D01*
X117152380Y-169328571D01*
X117152380Y-168709523D01*
%TO.C,TSR_1-2450*%
X131457142Y-174552380D02*
X132028571Y-174552380D01*
X131742857Y-175552380D02*
X131742857Y-174552380D01*
X132314285Y-175504761D02*
X132457142Y-175552380D01*
X132695238Y-175552380D01*
X132790476Y-175504761D01*
X132838095Y-175457142D01*
X132885714Y-175361904D01*
X132885714Y-175266666D01*
X132838095Y-175171428D01*
X132790476Y-175123809D01*
X132695238Y-175076190D01*
X132504761Y-175028571D01*
X132409523Y-174980952D01*
X132361904Y-174933333D01*
X132314285Y-174838095D01*
X132314285Y-174742857D01*
X132361904Y-174647619D01*
X132409523Y-174600000D01*
X132504761Y-174552380D01*
X132742857Y-174552380D01*
X132885714Y-174600000D01*
X133885714Y-175552380D02*
X133552380Y-175076190D01*
X133314285Y-175552380D02*
X133314285Y-174552380D01*
X133695238Y-174552380D01*
X133790476Y-174600000D01*
X133838095Y-174647619D01*
X133885714Y-174742857D01*
X133885714Y-174885714D01*
X133838095Y-174980952D01*
X133790476Y-175028571D01*
X133695238Y-175076190D01*
X133314285Y-175076190D01*
X134076190Y-175647619D02*
X134838095Y-175647619D01*
X135600000Y-175552380D02*
X135028571Y-175552380D01*
X135314285Y-175552380D02*
X135314285Y-174552380D01*
X135219047Y-174695238D01*
X135123809Y-174790476D01*
X135028571Y-174838095D01*
X136028571Y-175171428D02*
X136790476Y-175171428D01*
X137219047Y-174647619D02*
X137266666Y-174600000D01*
X137361904Y-174552380D01*
X137600000Y-174552380D01*
X137695238Y-174600000D01*
X137742857Y-174647619D01*
X137790476Y-174742857D01*
X137790476Y-174838095D01*
X137742857Y-174980952D01*
X137171428Y-175552380D01*
X137790476Y-175552380D01*
X138647619Y-174885714D02*
X138647619Y-175552380D01*
X138409523Y-174504761D02*
X138171428Y-175219047D01*
X138790476Y-175219047D01*
X139647619Y-174552380D02*
X139171428Y-174552380D01*
X139123809Y-175028571D01*
X139171428Y-174980952D01*
X139266666Y-174933333D01*
X139504761Y-174933333D01*
X139600000Y-174980952D01*
X139647619Y-175028571D01*
X139695238Y-175123809D01*
X139695238Y-175361904D01*
X139647619Y-175457142D01*
X139600000Y-175504761D01*
X139504761Y-175552380D01*
X139266666Y-175552380D01*
X139171428Y-175504761D01*
X139123809Y-175457142D01*
X140314285Y-174552380D02*
X140409523Y-174552380D01*
X140504761Y-174600000D01*
X140552380Y-174647619D01*
X140600000Y-174742857D01*
X140647619Y-174933333D01*
X140647619Y-175171428D01*
X140600000Y-175361904D01*
X140552380Y-175457142D01*
X140504761Y-175504761D01*
X140409523Y-175552380D01*
X140314285Y-175552380D01*
X140219047Y-175504761D01*
X140171428Y-175457142D01*
X140123809Y-175361904D01*
X140076190Y-175171428D01*
X140076190Y-174933333D01*
X140123809Y-174742857D01*
X140171428Y-174647619D01*
X140219047Y-174600000D01*
X140314285Y-174552380D01*
%TO.C,SCREW_TERM*%
X134104761Y-164195238D02*
X134152380Y-164052380D01*
X134152380Y-163814285D01*
X134104761Y-163719047D01*
X134057142Y-163671428D01*
X133961904Y-163623809D01*
X133866666Y-163623809D01*
X133771428Y-163671428D01*
X133723809Y-163719047D01*
X133676190Y-163814285D01*
X133628571Y-164004761D01*
X133580952Y-164100000D01*
X133533333Y-164147619D01*
X133438095Y-164195238D01*
X133342857Y-164195238D01*
X133247619Y-164147619D01*
X133200000Y-164100000D01*
X133152380Y-164004761D01*
X133152380Y-163766666D01*
X133200000Y-163623809D01*
X134057142Y-162623809D02*
X134104761Y-162671428D01*
X134152380Y-162814285D01*
X134152380Y-162909523D01*
X134104761Y-163052380D01*
X134009523Y-163147619D01*
X133914285Y-163195238D01*
X133723809Y-163242857D01*
X133580952Y-163242857D01*
X133390476Y-163195238D01*
X133295238Y-163147619D01*
X133200000Y-163052380D01*
X133152380Y-162909523D01*
X133152380Y-162814285D01*
X133200000Y-162671428D01*
X133247619Y-162623809D01*
X134152380Y-161623809D02*
X133676190Y-161957142D01*
X134152380Y-162195238D02*
X133152380Y-162195238D01*
X133152380Y-161814285D01*
X133200000Y-161719047D01*
X133247619Y-161671428D01*
X133342857Y-161623809D01*
X133485714Y-161623809D01*
X133580952Y-161671428D01*
X133628571Y-161719047D01*
X133676190Y-161814285D01*
X133676190Y-162195238D01*
X133628571Y-161195238D02*
X133628571Y-160861904D01*
X134152380Y-160719047D02*
X134152380Y-161195238D01*
X133152380Y-161195238D01*
X133152380Y-160719047D01*
X133152380Y-160385714D02*
X134152380Y-160147619D01*
X133438095Y-159957142D01*
X134152380Y-159766666D01*
X133152380Y-159528571D01*
X134247619Y-159385714D02*
X134247619Y-158623809D01*
X133152380Y-158528571D02*
X133152380Y-157957142D01*
X134152380Y-158242857D02*
X133152380Y-158242857D01*
X133628571Y-157623809D02*
X133628571Y-157290476D01*
X134152380Y-157147619D02*
X134152380Y-157623809D01*
X133152380Y-157623809D01*
X133152380Y-157147619D01*
X134152380Y-156147619D02*
X133676190Y-156480952D01*
X134152380Y-156719047D02*
X133152380Y-156719047D01*
X133152380Y-156338095D01*
X133200000Y-156242857D01*
X133247619Y-156195238D01*
X133342857Y-156147619D01*
X133485714Y-156147619D01*
X133580952Y-156195238D01*
X133628571Y-156242857D01*
X133676190Y-156338095D01*
X133676190Y-156719047D01*
X134152380Y-155719047D02*
X133152380Y-155719047D01*
X133866666Y-155385714D01*
X133152380Y-155052380D01*
X134152380Y-155052380D01*
%TO.C,C3*%
X132157142Y-159666666D02*
X132204761Y-159714285D01*
X132252380Y-159857142D01*
X132252380Y-159952380D01*
X132204761Y-160095238D01*
X132109523Y-160190476D01*
X132014285Y-160238095D01*
X131823809Y-160285714D01*
X131680952Y-160285714D01*
X131490476Y-160238095D01*
X131395238Y-160190476D01*
X131300000Y-160095238D01*
X131252380Y-159952380D01*
X131252380Y-159857142D01*
X131300000Y-159714285D01*
X131347619Y-159666666D01*
X131252380Y-159333333D02*
X131252380Y-158714285D01*
X131633333Y-159047619D01*
X131633333Y-158904761D01*
X131680952Y-158809523D01*
X131728571Y-158761904D01*
X131823809Y-158714285D01*
X132061904Y-158714285D01*
X132157142Y-158761904D01*
X132204761Y-158809523D01*
X132252380Y-158904761D01*
X132252380Y-159190476D01*
X132204761Y-159285714D01*
X132157142Y-159333333D01*
%TO.C,D4*%
X136266391Y-136022606D02*
X135266391Y-136022606D01*
X135266391Y-135784511D01*
X135314011Y-135641653D01*
X135409249Y-135546415D01*
X135504487Y-135498796D01*
X135694963Y-135451177D01*
X135837820Y-135451177D01*
X136028296Y-135498796D01*
X136123534Y-135546415D01*
X136218772Y-135641653D01*
X136266391Y-135784511D01*
X136266391Y-136022606D01*
X135599725Y-134594034D02*
X136266391Y-134594034D01*
X135218772Y-134832130D02*
X135933058Y-135070225D01*
X135933058Y-134451177D01*
%TO.C,R10*%
X106152380Y-148742857D02*
X105676190Y-149076190D01*
X106152380Y-149314285D02*
X105152380Y-149314285D01*
X105152380Y-148933333D01*
X105200000Y-148838095D01*
X105247619Y-148790476D01*
X105342857Y-148742857D01*
X105485714Y-148742857D01*
X105580952Y-148790476D01*
X105628571Y-148838095D01*
X105676190Y-148933333D01*
X105676190Y-149314285D01*
X106152380Y-147790476D02*
X106152380Y-148361904D01*
X106152380Y-148076190D02*
X105152380Y-148076190D01*
X105295238Y-148171428D01*
X105390476Y-148266666D01*
X105438095Y-148361904D01*
X105152380Y-147171428D02*
X105152380Y-147076190D01*
X105200000Y-146980952D01*
X105247619Y-146933333D01*
X105342857Y-146885714D01*
X105533333Y-146838095D01*
X105771428Y-146838095D01*
X105961904Y-146885714D01*
X106057142Y-146933333D01*
X106104761Y-146980952D01*
X106152380Y-147076190D01*
X106152380Y-147171428D01*
X106104761Y-147266666D01*
X106057142Y-147314285D01*
X105961904Y-147361904D01*
X105771428Y-147409523D01*
X105533333Y-147409523D01*
X105342857Y-147361904D01*
X105247619Y-147314285D01*
X105200000Y-147266666D01*
X105152380Y-147171428D01*
%TO.C,R*%
X94809523Y-127052380D02*
X94476190Y-126576190D01*
X94238095Y-127052380D02*
X94238095Y-126052380D01*
X94619047Y-126052380D01*
X94714285Y-126100000D01*
X94761904Y-126147619D01*
X94809523Y-126242857D01*
X94809523Y-126385714D01*
X94761904Y-126480952D01*
X94714285Y-126528571D01*
X94619047Y-126576190D01*
X94238095Y-126576190D01*
%TO.C,PWM_MOT1*%
X93213915Y-160952380D02*
X93213915Y-159952380D01*
X93594868Y-159952380D01*
X93690106Y-160000000D01*
X93737725Y-160047619D01*
X93785344Y-160142857D01*
X93785344Y-160285714D01*
X93737725Y-160380952D01*
X93690106Y-160428571D01*
X93594868Y-160476190D01*
X93213915Y-160476190D01*
X94118677Y-159952380D02*
X94356772Y-160952380D01*
X94547249Y-160238095D01*
X94737725Y-160952380D01*
X94975820Y-159952380D01*
X95356772Y-160952380D02*
X95356772Y-159952380D01*
X95690106Y-160666666D01*
X96023439Y-159952380D01*
X96023439Y-160952380D01*
X96261534Y-161047619D02*
X97023439Y-161047619D01*
X97261534Y-160952380D02*
X97261534Y-159952380D01*
X97594868Y-160666666D01*
X97928201Y-159952380D01*
X97928201Y-160952380D01*
X98594868Y-159952380D02*
X98785344Y-159952380D01*
X98880582Y-160000000D01*
X98975820Y-160095238D01*
X99023439Y-160285714D01*
X99023439Y-160619047D01*
X98975820Y-160809523D01*
X98880582Y-160904761D01*
X98785344Y-160952380D01*
X98594868Y-160952380D01*
X98499630Y-160904761D01*
X98404391Y-160809523D01*
X98356772Y-160619047D01*
X98356772Y-160285714D01*
X98404391Y-160095238D01*
X98499630Y-160000000D01*
X98594868Y-159952380D01*
X99309153Y-159952380D02*
X99880582Y-159952380D01*
X99594868Y-160952380D02*
X99594868Y-159952380D01*
X100737725Y-160952380D02*
X100166296Y-160952380D01*
X100452011Y-160952380D02*
X100452011Y-159952380D01*
X100356772Y-160095238D01*
X100261534Y-160190476D01*
X100166296Y-160238095D01*
%TO.C,POMPE1*%
X96706296Y-145552380D02*
X96706296Y-144552380D01*
X97087249Y-144552380D01*
X97182487Y-144600000D01*
X97230106Y-144647619D01*
X97277725Y-144742857D01*
X97277725Y-144885714D01*
X97230106Y-144980952D01*
X97182487Y-145028571D01*
X97087249Y-145076190D01*
X96706296Y-145076190D01*
X97896772Y-144552380D02*
X98087249Y-144552380D01*
X98182487Y-144600000D01*
X98277725Y-144695238D01*
X98325344Y-144885714D01*
X98325344Y-145219047D01*
X98277725Y-145409523D01*
X98182487Y-145504761D01*
X98087249Y-145552380D01*
X97896772Y-145552380D01*
X97801534Y-145504761D01*
X97706296Y-145409523D01*
X97658677Y-145219047D01*
X97658677Y-144885714D01*
X97706296Y-144695238D01*
X97801534Y-144600000D01*
X97896772Y-144552380D01*
X98753915Y-145552380D02*
X98753915Y-144552380D01*
X99087249Y-145266666D01*
X99420582Y-144552380D01*
X99420582Y-145552380D01*
X99896772Y-145552380D02*
X99896772Y-144552380D01*
X100277725Y-144552380D01*
X100372963Y-144600000D01*
X100420582Y-144647619D01*
X100468201Y-144742857D01*
X100468201Y-144885714D01*
X100420582Y-144980952D01*
X100372963Y-145028571D01*
X100277725Y-145076190D01*
X99896772Y-145076190D01*
X100896772Y-145028571D02*
X101230106Y-145028571D01*
X101372963Y-145552380D02*
X100896772Y-145552380D01*
X100896772Y-144552380D01*
X101372963Y-144552380D01*
X102325344Y-145552380D02*
X101753915Y-145552380D01*
X102039630Y-145552380D02*
X102039630Y-144552380D01*
X101944391Y-144695238D01*
X101849153Y-144790476D01*
X101753915Y-144838095D01*
%TO.C,Q4*%
X120626630Y-133774249D02*
X120579011Y-133869487D01*
X120483772Y-133964725D01*
X120340915Y-134107582D01*
X120293296Y-134202820D01*
X120293296Y-134298058D01*
X120531391Y-134250439D02*
X120483772Y-134345677D01*
X120388534Y-134440915D01*
X120198058Y-134488534D01*
X119864725Y-134488534D01*
X119674249Y-134440915D01*
X119579011Y-134345677D01*
X119531391Y-134250439D01*
X119531391Y-134059963D01*
X119579011Y-133964725D01*
X119674249Y-133869487D01*
X119864725Y-133821868D01*
X120198058Y-133821868D01*
X120388534Y-133869487D01*
X120483772Y-133964725D01*
X120531391Y-134059963D01*
X120531391Y-134250439D01*
X119864725Y-132964725D02*
X120531391Y-132964725D01*
X119483772Y-133202820D02*
X120198058Y-133440915D01*
X120198058Y-132821868D01*
%TO.C,Q3*%
X120626630Y-141726749D02*
X120579011Y-141821987D01*
X120483772Y-141917225D01*
X120340915Y-142060082D01*
X120293296Y-142155320D01*
X120293296Y-142250558D01*
X120531391Y-142202939D02*
X120483772Y-142298177D01*
X120388534Y-142393415D01*
X120198058Y-142441034D01*
X119864725Y-142441034D01*
X119674249Y-142393415D01*
X119579011Y-142298177D01*
X119531391Y-142202939D01*
X119531391Y-142012463D01*
X119579011Y-141917225D01*
X119674249Y-141821987D01*
X119864725Y-141774368D01*
X120198058Y-141774368D01*
X120388534Y-141821987D01*
X120483772Y-141917225D01*
X120531391Y-142012463D01*
X120531391Y-142202939D01*
X119531391Y-141441034D02*
X119531391Y-140821987D01*
X119912344Y-141155320D01*
X119912344Y-141012463D01*
X119959963Y-140917225D01*
X120007582Y-140869606D01*
X120102820Y-140821987D01*
X120340915Y-140821987D01*
X120436153Y-140869606D01*
X120483772Y-140917225D01*
X120531391Y-141012463D01*
X120531391Y-141298177D01*
X120483772Y-141393415D01*
X120436153Y-141441034D01*
%TO.C,R3*%
X104252380Y-137966666D02*
X103776190Y-138300000D01*
X104252380Y-138538095D02*
X103252380Y-138538095D01*
X103252380Y-138157142D01*
X103300000Y-138061904D01*
X103347619Y-138014285D01*
X103442857Y-137966666D01*
X103585714Y-137966666D01*
X103680952Y-138014285D01*
X103728571Y-138061904D01*
X103776190Y-138157142D01*
X103776190Y-138538095D01*
X103252380Y-137633333D02*
X103252380Y-137014285D01*
X103633333Y-137347619D01*
X103633333Y-137204761D01*
X103680952Y-137109523D01*
X103728571Y-137061904D01*
X103823809Y-137014285D01*
X104061904Y-137014285D01*
X104157142Y-137061904D01*
X104204761Y-137109523D01*
X104252380Y-137204761D01*
X104252380Y-137490476D01*
X104204761Y-137585714D01*
X104157142Y-137633333D01*
%TO.C,R8*%
X125352380Y-145566666D02*
X124876190Y-145900000D01*
X125352380Y-146138095D02*
X124352380Y-146138095D01*
X124352380Y-145757142D01*
X124400000Y-145661904D01*
X124447619Y-145614285D01*
X124542857Y-145566666D01*
X124685714Y-145566666D01*
X124780952Y-145614285D01*
X124828571Y-145661904D01*
X124876190Y-145757142D01*
X124876190Y-146138095D01*
X124780952Y-144995238D02*
X124733333Y-145090476D01*
X124685714Y-145138095D01*
X124590476Y-145185714D01*
X124542857Y-145185714D01*
X124447619Y-145138095D01*
X124400000Y-145090476D01*
X124352380Y-144995238D01*
X124352380Y-144804761D01*
X124400000Y-144709523D01*
X124447619Y-144661904D01*
X124542857Y-144614285D01*
X124590476Y-144614285D01*
X124685714Y-144661904D01*
X124733333Y-144709523D01*
X124780952Y-144804761D01*
X124780952Y-144995238D01*
X124828571Y-145090476D01*
X124876190Y-145138095D01*
X124971428Y-145185714D01*
X125161904Y-145185714D01*
X125257142Y-145138095D01*
X125304761Y-145090476D01*
X125352380Y-144995238D01*
X125352380Y-144804761D01*
X125304761Y-144709523D01*
X125257142Y-144661904D01*
X125161904Y-144614285D01*
X124971428Y-144614285D01*
X124876190Y-144661904D01*
X124828571Y-144709523D01*
X124780952Y-144804761D01*
%TO.C,CONTACT2*%
X122241249Y-186657142D02*
X122193630Y-186704761D01*
X122050772Y-186752380D01*
X121955534Y-186752380D01*
X121812677Y-186704761D01*
X121717439Y-186609523D01*
X121669820Y-186514285D01*
X121622201Y-186323809D01*
X121622201Y-186180952D01*
X121669820Y-185990476D01*
X121717439Y-185895238D01*
X121812677Y-185800000D01*
X121955534Y-185752380D01*
X122050772Y-185752380D01*
X122193630Y-185800000D01*
X122241249Y-185847619D01*
X122860296Y-185752380D02*
X123050772Y-185752380D01*
X123146011Y-185800000D01*
X123241249Y-185895238D01*
X123288868Y-186085714D01*
X123288868Y-186419047D01*
X123241249Y-186609523D01*
X123146011Y-186704761D01*
X123050772Y-186752380D01*
X122860296Y-186752380D01*
X122765058Y-186704761D01*
X122669820Y-186609523D01*
X122622201Y-186419047D01*
X122622201Y-186085714D01*
X122669820Y-185895238D01*
X122765058Y-185800000D01*
X122860296Y-185752380D01*
X123717439Y-186752380D02*
X123717439Y-185752380D01*
X124288868Y-186752380D01*
X124288868Y-185752380D01*
X124622201Y-185752380D02*
X125193630Y-185752380D01*
X124907915Y-186752380D02*
X124907915Y-185752380D01*
X125479344Y-186466666D02*
X125955534Y-186466666D01*
X125384106Y-186752380D02*
X125717439Y-185752380D01*
X126050772Y-186752380D01*
X126955534Y-186657142D02*
X126907915Y-186704761D01*
X126765058Y-186752380D01*
X126669820Y-186752380D01*
X126526963Y-186704761D01*
X126431725Y-186609523D01*
X126384106Y-186514285D01*
X126336487Y-186323809D01*
X126336487Y-186180952D01*
X126384106Y-185990476D01*
X126431725Y-185895238D01*
X126526963Y-185800000D01*
X126669820Y-185752380D01*
X126765058Y-185752380D01*
X126907915Y-185800000D01*
X126955534Y-185847619D01*
X127241249Y-185752380D02*
X127812677Y-185752380D01*
X127526963Y-186752380D02*
X127526963Y-185752380D01*
X128098391Y-185847619D02*
X128146011Y-185800000D01*
X128241249Y-185752380D01*
X128479344Y-185752380D01*
X128574582Y-185800000D01*
X128622201Y-185847619D01*
X128669820Y-185942857D01*
X128669820Y-186038095D01*
X128622201Y-186180952D01*
X128050772Y-186752380D01*
X128669820Y-186752380D01*
%TO.C,SERVO1*%
X132004761Y-128866666D02*
X132052380Y-128723809D01*
X132052380Y-128485714D01*
X132004761Y-128390476D01*
X131957142Y-128342857D01*
X131861904Y-128295238D01*
X131766666Y-128295238D01*
X131671428Y-128342857D01*
X131623809Y-128390476D01*
X131576190Y-128485714D01*
X131528571Y-128676190D01*
X131480952Y-128771428D01*
X131433333Y-128819047D01*
X131338095Y-128866666D01*
X131242857Y-128866666D01*
X131147619Y-128819047D01*
X131100000Y-128771428D01*
X131052380Y-128676190D01*
X131052380Y-128438095D01*
X131100000Y-128295238D01*
X131528571Y-127866666D02*
X131528571Y-127533333D01*
X132052380Y-127390476D02*
X132052380Y-127866666D01*
X131052380Y-127866666D01*
X131052380Y-127390476D01*
X132052380Y-126390476D02*
X131576190Y-126723809D01*
X132052380Y-126961904D02*
X131052380Y-126961904D01*
X131052380Y-126580952D01*
X131100000Y-126485714D01*
X131147619Y-126438095D01*
X131242857Y-126390476D01*
X131385714Y-126390476D01*
X131480952Y-126438095D01*
X131528571Y-126485714D01*
X131576190Y-126580952D01*
X131576190Y-126961904D01*
X131052380Y-126104761D02*
X132052380Y-125771428D01*
X131052380Y-125438095D01*
X131052380Y-124914285D02*
X131052380Y-124723809D01*
X131100000Y-124628571D01*
X131195238Y-124533333D01*
X131385714Y-124485714D01*
X131719047Y-124485714D01*
X131909523Y-124533333D01*
X132004761Y-124628571D01*
X132052380Y-124723809D01*
X132052380Y-124914285D01*
X132004761Y-125009523D01*
X131909523Y-125104761D01*
X131719047Y-125152380D01*
X131385714Y-125152380D01*
X131195238Y-125104761D01*
X131100000Y-125009523D01*
X131052380Y-124914285D01*
X132052380Y-123533333D02*
X132052380Y-124104761D01*
X132052380Y-123819047D02*
X131052380Y-123819047D01*
X131195238Y-123914285D01*
X131290476Y-124009523D01*
X131338095Y-124104761D01*
%TO.C,ENC_FOL2*%
X118768608Y-169967060D02*
X119101941Y-169967060D01*
X119244798Y-170490869D02*
X118768608Y-170490869D01*
X118768608Y-169490869D01*
X119244798Y-169490869D01*
X119673369Y-170490869D02*
X119673369Y-169490869D01*
X120244798Y-170490869D01*
X120244798Y-169490869D01*
X121292417Y-170395631D02*
X121244798Y-170443250D01*
X121101941Y-170490869D01*
X121006703Y-170490869D01*
X120863846Y-170443250D01*
X120768608Y-170348012D01*
X120720989Y-170252774D01*
X120673369Y-170062298D01*
X120673369Y-169919441D01*
X120720989Y-169728965D01*
X120768608Y-169633727D01*
X120863846Y-169538489D01*
X121006703Y-169490869D01*
X121101941Y-169490869D01*
X121244798Y-169538489D01*
X121292417Y-169586108D01*
X121482893Y-170586108D02*
X122244798Y-170586108D01*
X122816227Y-169967060D02*
X122482893Y-169967060D01*
X122482893Y-170490869D02*
X122482893Y-169490869D01*
X122959084Y-169490869D01*
X123530512Y-169490869D02*
X123720989Y-169490869D01*
X123816227Y-169538489D01*
X123911465Y-169633727D01*
X123959084Y-169824203D01*
X123959084Y-170157536D01*
X123911465Y-170348012D01*
X123816227Y-170443250D01*
X123720989Y-170490869D01*
X123530512Y-170490869D01*
X123435274Y-170443250D01*
X123340036Y-170348012D01*
X123292417Y-170157536D01*
X123292417Y-169824203D01*
X123340036Y-169633727D01*
X123435274Y-169538489D01*
X123530512Y-169490869D01*
X124863846Y-170490869D02*
X124387655Y-170490869D01*
X124387655Y-169490869D01*
X125149560Y-169586108D02*
X125197179Y-169538489D01*
X125292417Y-169490869D01*
X125530512Y-169490869D01*
X125625750Y-169538489D01*
X125673369Y-169586108D01*
X125720989Y-169681346D01*
X125720989Y-169776584D01*
X125673369Y-169919441D01*
X125101941Y-170490869D01*
X125720989Y-170490869D01*
%TO.C,D3*%
X137536391Y-144652606D02*
X136536391Y-144652606D01*
X136536391Y-144414511D01*
X136584011Y-144271653D01*
X136679249Y-144176415D01*
X136774487Y-144128796D01*
X136964963Y-144081177D01*
X137107820Y-144081177D01*
X137298296Y-144128796D01*
X137393534Y-144176415D01*
X137488772Y-144271653D01*
X137536391Y-144414511D01*
X137536391Y-144652606D01*
X136536391Y-143747844D02*
X136536391Y-143128796D01*
X136917344Y-143462130D01*
X136917344Y-143319272D01*
X136964963Y-143224034D01*
X137012582Y-143176415D01*
X137107820Y-143128796D01*
X137345915Y-143128796D01*
X137441153Y-143176415D01*
X137488772Y-143224034D01*
X137536391Y-143319272D01*
X137536391Y-143604987D01*
X137488772Y-143700225D01*
X137441153Y-143747844D01*
%TO.C,EV2*%
X127380952Y-138628571D02*
X127714285Y-138628571D01*
X127857142Y-139152380D02*
X127380952Y-139152380D01*
X127380952Y-138152380D01*
X127857142Y-138152380D01*
X128142857Y-138152380D02*
X128476190Y-139152380D01*
X128809523Y-138152380D01*
X129095238Y-138247619D02*
X129142857Y-138200000D01*
X129238095Y-138152380D01*
X129476190Y-138152380D01*
X129571428Y-138200000D01*
X129619047Y-138247619D01*
X129666666Y-138342857D01*
X129666666Y-138438095D01*
X129619047Y-138580952D01*
X129047619Y-139152380D01*
X129666666Y-139152380D01*
%TO.C,EV1*%
X98180952Y-137528571D02*
X98514285Y-137528571D01*
X98657142Y-138052380D02*
X98180952Y-138052380D01*
X98180952Y-137052380D01*
X98657142Y-137052380D01*
X98942857Y-137052380D02*
X99276190Y-138052380D01*
X99609523Y-137052380D01*
X100466666Y-138052380D02*
X99895238Y-138052380D01*
X100180952Y-138052380D02*
X100180952Y-137052380D01*
X100085714Y-137195238D01*
X99990476Y-137290476D01*
X99895238Y-137338095D01*
%TO.C,R*%
X94809523Y-182952380D02*
X94476190Y-182476190D01*
X94238095Y-182952380D02*
X94238095Y-181952380D01*
X94619047Y-181952380D01*
X94714285Y-182000000D01*
X94761904Y-182047619D01*
X94809523Y-182142857D01*
X94809523Y-182285714D01*
X94761904Y-182380952D01*
X94714285Y-182428571D01*
X94619047Y-182476190D01*
X94238095Y-182476190D01*
%TO.C,POMPE2*%
X126014285Y-146852380D02*
X126014285Y-145852380D01*
X126395238Y-145852380D01*
X126490476Y-145900000D01*
X126538095Y-145947619D01*
X126585714Y-146042857D01*
X126585714Y-146185714D01*
X126538095Y-146280952D01*
X126490476Y-146328571D01*
X126395238Y-146376190D01*
X126014285Y-146376190D01*
X127204761Y-145852380D02*
X127395238Y-145852380D01*
X127490476Y-145900000D01*
X127585714Y-145995238D01*
X127633333Y-146185714D01*
X127633333Y-146519047D01*
X127585714Y-146709523D01*
X127490476Y-146804761D01*
X127395238Y-146852380D01*
X127204761Y-146852380D01*
X127109523Y-146804761D01*
X127014285Y-146709523D01*
X126966666Y-146519047D01*
X126966666Y-146185714D01*
X127014285Y-145995238D01*
X127109523Y-145900000D01*
X127204761Y-145852380D01*
X128061904Y-146852380D02*
X128061904Y-145852380D01*
X128395238Y-146566666D01*
X128728571Y-145852380D01*
X128728571Y-146852380D01*
X129204761Y-146852380D02*
X129204761Y-145852380D01*
X129585714Y-145852380D01*
X129680952Y-145900000D01*
X129728571Y-145947619D01*
X129776190Y-146042857D01*
X129776190Y-146185714D01*
X129728571Y-146280952D01*
X129680952Y-146328571D01*
X129585714Y-146376190D01*
X129204761Y-146376190D01*
X130204761Y-146328571D02*
X130538095Y-146328571D01*
X130680952Y-146852380D02*
X130204761Y-146852380D01*
X130204761Y-145852380D01*
X130680952Y-145852380D01*
X131061904Y-145947619D02*
X131109523Y-145900000D01*
X131204761Y-145852380D01*
X131442857Y-145852380D01*
X131538095Y-145900000D01*
X131585714Y-145947619D01*
X131633333Y-146042857D01*
X131633333Y-146138095D01*
X131585714Y-146280952D01*
X131014285Y-146852380D01*
X131633333Y-146852380D01*
%TO.C,Q1*%
X103847619Y-142795238D02*
X103800000Y-142890476D01*
X103704761Y-142985714D01*
X103561904Y-143128571D01*
X103514285Y-143223809D01*
X103514285Y-143319047D01*
X103752380Y-143271428D02*
X103704761Y-143366666D01*
X103609523Y-143461904D01*
X103419047Y-143509523D01*
X103085714Y-143509523D01*
X102895238Y-143461904D01*
X102800000Y-143366666D01*
X102752380Y-143271428D01*
X102752380Y-143080952D01*
X102800000Y-142985714D01*
X102895238Y-142890476D01*
X103085714Y-142842857D01*
X103419047Y-142842857D01*
X103609523Y-142890476D01*
X103704761Y-142985714D01*
X103752380Y-143080952D01*
X103752380Y-143271428D01*
X103752380Y-141890476D02*
X103752380Y-142461904D01*
X103752380Y-142176190D02*
X102752380Y-142176190D01*
X102895238Y-142271428D01*
X102990476Y-142366666D01*
X103038095Y-142461904D01*
%TO.C,ENC_MOT1*%
X94528571Y-178028571D02*
X94861904Y-178028571D01*
X95004761Y-178552380D02*
X94528571Y-178552380D01*
X94528571Y-177552380D01*
X95004761Y-177552380D01*
X95433333Y-178552380D02*
X95433333Y-177552380D01*
X96004761Y-178552380D01*
X96004761Y-177552380D01*
X97052380Y-178457142D02*
X97004761Y-178504761D01*
X96861904Y-178552380D01*
X96766666Y-178552380D01*
X96623809Y-178504761D01*
X96528571Y-178409523D01*
X96480952Y-178314285D01*
X96433333Y-178123809D01*
X96433333Y-177980952D01*
X96480952Y-177790476D01*
X96528571Y-177695238D01*
X96623809Y-177600000D01*
X96766666Y-177552380D01*
X96861904Y-177552380D01*
X97004761Y-177600000D01*
X97052380Y-177647619D01*
X97242857Y-178647619D02*
X98004761Y-178647619D01*
X98242857Y-178552380D02*
X98242857Y-177552380D01*
X98576190Y-178266666D01*
X98909523Y-177552380D01*
X98909523Y-178552380D01*
X99576190Y-177552380D02*
X99766666Y-177552380D01*
X99861904Y-177600000D01*
X99957142Y-177695238D01*
X100004761Y-177885714D01*
X100004761Y-178219047D01*
X99957142Y-178409523D01*
X99861904Y-178504761D01*
X99766666Y-178552380D01*
X99576190Y-178552380D01*
X99480952Y-178504761D01*
X99385714Y-178409523D01*
X99338095Y-178219047D01*
X99338095Y-177885714D01*
X99385714Y-177695238D01*
X99480952Y-177600000D01*
X99576190Y-177552380D01*
X100290476Y-177552380D02*
X100861904Y-177552380D01*
X100576190Y-178552380D02*
X100576190Y-177552380D01*
X101719047Y-178552380D02*
X101147619Y-178552380D01*
X101433333Y-178552380D02*
X101433333Y-177552380D01*
X101338095Y-177695238D01*
X101242857Y-177790476D01*
X101147619Y-177838095D01*
%TO.C,DIODE*%
X93052380Y-142576190D02*
X92052380Y-142576190D01*
X92052380Y-142338095D01*
X92100000Y-142195238D01*
X92195238Y-142100000D01*
X92290476Y-142052380D01*
X92480952Y-142004761D01*
X92623809Y-142004761D01*
X92814285Y-142052380D01*
X92909523Y-142100000D01*
X93004761Y-142195238D01*
X93052380Y-142338095D01*
X93052380Y-142576190D01*
X93052380Y-141576190D02*
X92052380Y-141576190D01*
X92052380Y-140909523D02*
X92052380Y-140719047D01*
X92100000Y-140623809D01*
X92195238Y-140528571D01*
X92385714Y-140480952D01*
X92719047Y-140480952D01*
X92909523Y-140528571D01*
X93004761Y-140623809D01*
X93052380Y-140719047D01*
X93052380Y-140909523D01*
X93004761Y-141004761D01*
X92909523Y-141100000D01*
X92719047Y-141147619D01*
X92385714Y-141147619D01*
X92195238Y-141100000D01*
X92100000Y-141004761D01*
X92052380Y-140909523D01*
X93052380Y-140052380D02*
X92052380Y-140052380D01*
X92052380Y-139814285D01*
X92100000Y-139671428D01*
X92195238Y-139576190D01*
X92290476Y-139528571D01*
X92480952Y-139480952D01*
X92623809Y-139480952D01*
X92814285Y-139528571D01*
X92909523Y-139576190D01*
X93004761Y-139671428D01*
X93052380Y-139814285D01*
X93052380Y-140052380D01*
X92528571Y-139052380D02*
X92528571Y-138719047D01*
X93052380Y-138576190D02*
X93052380Y-139052380D01*
X92052380Y-139052380D01*
X92052380Y-138576190D01*
%TO.C,SERVO3*%
X136433333Y-142004761D02*
X136576190Y-142052380D01*
X136814285Y-142052380D01*
X136909523Y-142004761D01*
X136957142Y-141957142D01*
X137004761Y-141861904D01*
X137004761Y-141766666D01*
X136957142Y-141671428D01*
X136909523Y-141623809D01*
X136814285Y-141576190D01*
X136623809Y-141528571D01*
X136528571Y-141480952D01*
X136480952Y-141433333D01*
X136433333Y-141338095D01*
X136433333Y-141242857D01*
X136480952Y-141147619D01*
X136528571Y-141100000D01*
X136623809Y-141052380D01*
X136861904Y-141052380D01*
X137004761Y-141100000D01*
X137433333Y-141528571D02*
X137766666Y-141528571D01*
X137909523Y-142052380D02*
X137433333Y-142052380D01*
X137433333Y-141052380D01*
X137909523Y-141052380D01*
X138909523Y-142052380D02*
X138576190Y-141576190D01*
X138338095Y-142052380D02*
X138338095Y-141052380D01*
X138719047Y-141052380D01*
X138814285Y-141100000D01*
X138861904Y-141147619D01*
X138909523Y-141242857D01*
X138909523Y-141385714D01*
X138861904Y-141480952D01*
X138814285Y-141528571D01*
X138719047Y-141576190D01*
X138338095Y-141576190D01*
X139195238Y-141052380D02*
X139528571Y-142052380D01*
X139861904Y-141052380D01*
X140385714Y-141052380D02*
X140576190Y-141052380D01*
X140671428Y-141100000D01*
X140766666Y-141195238D01*
X140814285Y-141385714D01*
X140814285Y-141719047D01*
X140766666Y-141909523D01*
X140671428Y-142004761D01*
X140576190Y-142052380D01*
X140385714Y-142052380D01*
X140290476Y-142004761D01*
X140195238Y-141909523D01*
X140147619Y-141719047D01*
X140147619Y-141385714D01*
X140195238Y-141195238D01*
X140290476Y-141100000D01*
X140385714Y-141052380D01*
X141147619Y-141052380D02*
X141766666Y-141052380D01*
X141433333Y-141433333D01*
X141576190Y-141433333D01*
X141671428Y-141480952D01*
X141719047Y-141528571D01*
X141766666Y-141623809D01*
X141766666Y-141861904D01*
X141719047Y-141957142D01*
X141671428Y-142004761D01*
X141576190Y-142052380D01*
X141290476Y-142052380D01*
X141195238Y-142004761D01*
X141147619Y-141957142D01*
%TO.C,R*%
X137109523Y-126752380D02*
X136776190Y-126276190D01*
X136538095Y-126752380D02*
X136538095Y-125752380D01*
X136919047Y-125752380D01*
X137014285Y-125800000D01*
X137061904Y-125847619D01*
X137109523Y-125942857D01*
X137109523Y-126085714D01*
X137061904Y-126180952D01*
X137014285Y-126228571D01*
X136919047Y-126276190D01*
X136538095Y-126276190D01*
%TO.C,J18*%
X112779487Y-150993891D02*
X112779487Y-151708177D01*
X112731868Y-151851034D01*
X112636630Y-151946272D01*
X112493772Y-151993891D01*
X112398534Y-151993891D01*
X113779487Y-151993891D02*
X113208058Y-151993891D01*
X113493772Y-151993891D02*
X113493772Y-150993891D01*
X113398534Y-151136749D01*
X113303296Y-151231987D01*
X113208058Y-151279606D01*
X114350915Y-151422463D02*
X114255677Y-151374844D01*
X114208058Y-151327225D01*
X114160439Y-151231987D01*
X114160439Y-151184368D01*
X114208058Y-151089130D01*
X114255677Y-151041511D01*
X114350915Y-150993891D01*
X114541391Y-150993891D01*
X114636630Y-151041511D01*
X114684249Y-151089130D01*
X114731868Y-151184368D01*
X114731868Y-151231987D01*
X114684249Y-151327225D01*
X114636630Y-151374844D01*
X114541391Y-151422463D01*
X114350915Y-151422463D01*
X114255677Y-151470082D01*
X114208058Y-151517701D01*
X114160439Y-151612939D01*
X114160439Y-151803415D01*
X114208058Y-151898653D01*
X114255677Y-151946272D01*
X114350915Y-151993891D01*
X114541391Y-151993891D01*
X114636630Y-151946272D01*
X114684249Y-151898653D01*
X114731868Y-151803415D01*
X114731868Y-151612939D01*
X114684249Y-151517701D01*
X114636630Y-151470082D01*
X114541391Y-151422463D01*
%TO.C,DIODE*%
X92952380Y-136176190D02*
X91952380Y-136176190D01*
X91952380Y-135938095D01*
X92000000Y-135795238D01*
X92095238Y-135700000D01*
X92190476Y-135652380D01*
X92380952Y-135604761D01*
X92523809Y-135604761D01*
X92714285Y-135652380D01*
X92809523Y-135700000D01*
X92904761Y-135795238D01*
X92952380Y-135938095D01*
X92952380Y-136176190D01*
X92952380Y-135176190D02*
X91952380Y-135176190D01*
X91952380Y-134509523D02*
X91952380Y-134319047D01*
X92000000Y-134223809D01*
X92095238Y-134128571D01*
X92285714Y-134080952D01*
X92619047Y-134080952D01*
X92809523Y-134128571D01*
X92904761Y-134223809D01*
X92952380Y-134319047D01*
X92952380Y-134509523D01*
X92904761Y-134604761D01*
X92809523Y-134700000D01*
X92619047Y-134747619D01*
X92285714Y-134747619D01*
X92095238Y-134700000D01*
X92000000Y-134604761D01*
X91952380Y-134509523D01*
X92952380Y-133652380D02*
X91952380Y-133652380D01*
X91952380Y-133414285D01*
X92000000Y-133271428D01*
X92095238Y-133176190D01*
X92190476Y-133128571D01*
X92380952Y-133080952D01*
X92523809Y-133080952D01*
X92714285Y-133128571D01*
X92809523Y-133176190D01*
X92904761Y-133271428D01*
X92952380Y-133414285D01*
X92952380Y-133652380D01*
X92428571Y-132652380D02*
X92428571Y-132319047D01*
X92952380Y-132176190D02*
X92952380Y-132652380D01*
X91952380Y-132652380D01*
X91952380Y-132176190D01*
%TO.C,ENC_MOT2*%
X118528571Y-179728571D02*
X118861904Y-179728571D01*
X119004761Y-180252380D02*
X118528571Y-180252380D01*
X118528571Y-179252380D01*
X119004761Y-179252380D01*
X119433333Y-180252380D02*
X119433333Y-179252380D01*
X120004761Y-180252380D01*
X120004761Y-179252380D01*
X121052380Y-180157142D02*
X121004761Y-180204761D01*
X120861904Y-180252380D01*
X120766666Y-180252380D01*
X120623809Y-180204761D01*
X120528571Y-180109523D01*
X120480952Y-180014285D01*
X120433333Y-179823809D01*
X120433333Y-179680952D01*
X120480952Y-179490476D01*
X120528571Y-179395238D01*
X120623809Y-179300000D01*
X120766666Y-179252380D01*
X120861904Y-179252380D01*
X121004761Y-179300000D01*
X121052380Y-179347619D01*
X121242857Y-180347619D02*
X122004761Y-180347619D01*
X122242857Y-180252380D02*
X122242857Y-179252380D01*
X122576190Y-179966666D01*
X122909523Y-179252380D01*
X122909523Y-180252380D01*
X123576190Y-179252380D02*
X123766666Y-179252380D01*
X123861904Y-179300000D01*
X123957142Y-179395238D01*
X124004761Y-179585714D01*
X124004761Y-179919047D01*
X123957142Y-180109523D01*
X123861904Y-180204761D01*
X123766666Y-180252380D01*
X123576190Y-180252380D01*
X123480952Y-180204761D01*
X123385714Y-180109523D01*
X123338095Y-179919047D01*
X123338095Y-179585714D01*
X123385714Y-179395238D01*
X123480952Y-179300000D01*
X123576190Y-179252380D01*
X124290476Y-179252380D02*
X124861904Y-179252380D01*
X124576190Y-180252380D02*
X124576190Y-179252380D01*
X125147619Y-179347619D02*
X125195238Y-179300000D01*
X125290476Y-179252380D01*
X125528571Y-179252380D01*
X125623809Y-179300000D01*
X125671428Y-179347619D01*
X125719047Y-179442857D01*
X125719047Y-179538095D01*
X125671428Y-179680952D01*
X125100000Y-180252380D01*
X125719047Y-180252380D01*
%TO.C,R*%
X137009523Y-182752380D02*
X136676190Y-182276190D01*
X136438095Y-182752380D02*
X136438095Y-181752380D01*
X136819047Y-181752380D01*
X136914285Y-181800000D01*
X136961904Y-181847619D01*
X137009523Y-181942857D01*
X137009523Y-182085714D01*
X136961904Y-182180952D01*
X136914285Y-182228571D01*
X136819047Y-182276190D01*
X136438095Y-182276190D01*
%TO.C,SERVO2*%
X125704761Y-129066666D02*
X125752380Y-128923809D01*
X125752380Y-128685714D01*
X125704761Y-128590476D01*
X125657142Y-128542857D01*
X125561904Y-128495238D01*
X125466666Y-128495238D01*
X125371428Y-128542857D01*
X125323809Y-128590476D01*
X125276190Y-128685714D01*
X125228571Y-128876190D01*
X125180952Y-128971428D01*
X125133333Y-129019047D01*
X125038095Y-129066666D01*
X124942857Y-129066666D01*
X124847619Y-129019047D01*
X124800000Y-128971428D01*
X124752380Y-128876190D01*
X124752380Y-128638095D01*
X124800000Y-128495238D01*
X125228571Y-128066666D02*
X125228571Y-127733333D01*
X125752380Y-127590476D02*
X125752380Y-128066666D01*
X124752380Y-128066666D01*
X124752380Y-127590476D01*
X125752380Y-126590476D02*
X125276190Y-126923809D01*
X125752380Y-127161904D02*
X124752380Y-127161904D01*
X124752380Y-126780952D01*
X124800000Y-126685714D01*
X124847619Y-126638095D01*
X124942857Y-126590476D01*
X125085714Y-126590476D01*
X125180952Y-126638095D01*
X125228571Y-126685714D01*
X125276190Y-126780952D01*
X125276190Y-127161904D01*
X124752380Y-126304761D02*
X125752380Y-125971428D01*
X124752380Y-125638095D01*
X124752380Y-125114285D02*
X124752380Y-124923809D01*
X124800000Y-124828571D01*
X124895238Y-124733333D01*
X125085714Y-124685714D01*
X125419047Y-124685714D01*
X125609523Y-124733333D01*
X125704761Y-124828571D01*
X125752380Y-124923809D01*
X125752380Y-125114285D01*
X125704761Y-125209523D01*
X125609523Y-125304761D01*
X125419047Y-125352380D01*
X125085714Y-125352380D01*
X124895238Y-125304761D01*
X124800000Y-125209523D01*
X124752380Y-125114285D01*
X124847619Y-124304761D02*
X124800000Y-124257142D01*
X124752380Y-124161904D01*
X124752380Y-123923809D01*
X124800000Y-123828571D01*
X124847619Y-123780952D01*
X124942857Y-123733333D01*
X125038095Y-123733333D01*
X125180952Y-123780952D01*
X125752380Y-124352380D01*
X125752380Y-123733333D01*
%TO.C,MOT_PWM2*%
X118761904Y-162052380D02*
X118761904Y-161052380D01*
X119095238Y-161766666D01*
X119428571Y-161052380D01*
X119428571Y-162052380D01*
X120095238Y-161052380D02*
X120285714Y-161052380D01*
X120380952Y-161100000D01*
X120476190Y-161195238D01*
X120523809Y-161385714D01*
X120523809Y-161719047D01*
X120476190Y-161909523D01*
X120380952Y-162004761D01*
X120285714Y-162052380D01*
X120095238Y-162052380D01*
X120000000Y-162004761D01*
X119904761Y-161909523D01*
X119857142Y-161719047D01*
X119857142Y-161385714D01*
X119904761Y-161195238D01*
X120000000Y-161100000D01*
X120095238Y-161052380D01*
X120809523Y-161052380D02*
X121380952Y-161052380D01*
X121095238Y-162052380D02*
X121095238Y-161052380D01*
X121476190Y-162147619D02*
X122238095Y-162147619D01*
X122476190Y-162052380D02*
X122476190Y-161052380D01*
X122857142Y-161052380D01*
X122952380Y-161100000D01*
X123000000Y-161147619D01*
X123047619Y-161242857D01*
X123047619Y-161385714D01*
X123000000Y-161480952D01*
X122952380Y-161528571D01*
X122857142Y-161576190D01*
X122476190Y-161576190D01*
X123380952Y-161052380D02*
X123619047Y-162052380D01*
X123809523Y-161338095D01*
X124000000Y-162052380D01*
X124238095Y-161052380D01*
X124619047Y-162052380D02*
X124619047Y-161052380D01*
X124952380Y-161766666D01*
X125285714Y-161052380D01*
X125285714Y-162052380D01*
X125714285Y-161147619D02*
X125761904Y-161100000D01*
X125857142Y-161052380D01*
X126095238Y-161052380D01*
X126190476Y-161100000D01*
X126238095Y-161147619D01*
X126285714Y-161242857D01*
X126285714Y-161338095D01*
X126238095Y-161480952D01*
X125666666Y-162052380D01*
X126285714Y-162052380D01*
%TO.C,DYNAMIXEL2*%
X120338095Y-154852380D02*
X120338095Y-153852380D01*
X120576190Y-153852380D01*
X120719047Y-153900000D01*
X120814285Y-153995238D01*
X120861904Y-154090476D01*
X120909523Y-154280952D01*
X120909523Y-154423809D01*
X120861904Y-154614285D01*
X120814285Y-154709523D01*
X120719047Y-154804761D01*
X120576190Y-154852380D01*
X120338095Y-154852380D01*
X121528571Y-154376190D02*
X121528571Y-154852380D01*
X121195238Y-153852380D02*
X121528571Y-154376190D01*
X121861904Y-153852380D01*
X122195238Y-154852380D02*
X122195238Y-153852380D01*
X122766666Y-154852380D01*
X122766666Y-153852380D01*
X123195238Y-154566666D02*
X123671428Y-154566666D01*
X123100000Y-154852380D02*
X123433333Y-153852380D01*
X123766666Y-154852380D01*
X124100000Y-154852380D02*
X124100000Y-153852380D01*
X124433333Y-154566666D01*
X124766666Y-153852380D01*
X124766666Y-154852380D01*
X125242857Y-154852380D02*
X125242857Y-153852380D01*
X125623809Y-153852380D02*
X126290476Y-154852380D01*
X126290476Y-153852380D02*
X125623809Y-154852380D01*
X126671428Y-154328571D02*
X127004761Y-154328571D01*
X127147619Y-154852380D02*
X126671428Y-154852380D01*
X126671428Y-153852380D01*
X127147619Y-153852380D01*
X128052380Y-154852380D02*
X127576190Y-154852380D01*
X127576190Y-153852380D01*
X128338095Y-153947619D02*
X128385714Y-153900000D01*
X128480952Y-153852380D01*
X128719047Y-153852380D01*
X128814285Y-153900000D01*
X128861904Y-153947619D01*
X128909523Y-154042857D01*
X128909523Y-154138095D01*
X128861904Y-154280952D01*
X128290476Y-154852380D01*
X128909523Y-154852380D01*
%TO.C,R9*%
X122312344Y-136623891D02*
X121979011Y-136147701D01*
X121740915Y-136623891D02*
X121740915Y-135623891D01*
X122121868Y-135623891D01*
X122217106Y-135671511D01*
X122264725Y-135719130D01*
X122312344Y-135814368D01*
X122312344Y-135957225D01*
X122264725Y-136052463D01*
X122217106Y-136100082D01*
X122121868Y-136147701D01*
X121740915Y-136147701D01*
X122788534Y-136623891D02*
X122979011Y-136623891D01*
X123074249Y-136576272D01*
X123121868Y-136528653D01*
X123217106Y-136385796D01*
X123264725Y-136195320D01*
X123264725Y-135814368D01*
X123217106Y-135719130D01*
X123169487Y-135671511D01*
X123074249Y-135623891D01*
X122883772Y-135623891D01*
X122788534Y-135671511D01*
X122740915Y-135719130D01*
X122693296Y-135814368D01*
X122693296Y-136052463D01*
X122740915Y-136147701D01*
X122788534Y-136195320D01*
X122883772Y-136242939D01*
X123074249Y-136242939D01*
X123169487Y-136195320D01*
X123217106Y-136147701D01*
X123264725Y-136052463D01*
%TO.C,DYNAMIXEL1*%
X94538095Y-153552380D02*
X94538095Y-152552380D01*
X94776190Y-152552380D01*
X94919047Y-152600000D01*
X95014285Y-152695238D01*
X95061904Y-152790476D01*
X95109523Y-152980952D01*
X95109523Y-153123809D01*
X95061904Y-153314285D01*
X95014285Y-153409523D01*
X94919047Y-153504761D01*
X94776190Y-153552380D01*
X94538095Y-153552380D01*
X95728571Y-153076190D02*
X95728571Y-153552380D01*
X95395238Y-152552380D02*
X95728571Y-153076190D01*
X96061904Y-152552380D01*
X96395238Y-153552380D02*
X96395238Y-152552380D01*
X96966666Y-153552380D01*
X96966666Y-152552380D01*
X97395238Y-153266666D02*
X97871428Y-153266666D01*
X97300000Y-153552380D02*
X97633333Y-152552380D01*
X97966666Y-153552380D01*
X98300000Y-153552380D02*
X98300000Y-152552380D01*
X98633333Y-153266666D01*
X98966666Y-152552380D01*
X98966666Y-153552380D01*
X99442857Y-153552380D02*
X99442857Y-152552380D01*
X99823809Y-152552380D02*
X100490476Y-153552380D01*
X100490476Y-152552380D02*
X99823809Y-153552380D01*
X100871428Y-153028571D02*
X101204761Y-153028571D01*
X101347619Y-153552380D02*
X100871428Y-153552380D01*
X100871428Y-152552380D01*
X101347619Y-152552380D01*
X102252380Y-153552380D02*
X101776190Y-153552380D01*
X101776190Y-152552380D01*
X103109523Y-153552380D02*
X102538095Y-153552380D01*
X102823809Y-153552380D02*
X102823809Y-152552380D01*
X102728571Y-152695238D01*
X102633333Y-152790476D01*
X102538095Y-152838095D01*
%TO.C,Q2*%
X104047619Y-134195238D02*
X104000000Y-134290476D01*
X103904761Y-134385714D01*
X103761904Y-134528571D01*
X103714285Y-134623809D01*
X103714285Y-134719047D01*
X103952380Y-134671428D02*
X103904761Y-134766666D01*
X103809523Y-134861904D01*
X103619047Y-134909523D01*
X103285714Y-134909523D01*
X103095238Y-134861904D01*
X103000000Y-134766666D01*
X102952380Y-134671428D01*
X102952380Y-134480952D01*
X103000000Y-134385714D01*
X103095238Y-134290476D01*
X103285714Y-134242857D01*
X103619047Y-134242857D01*
X103809523Y-134290476D01*
X103904761Y-134385714D01*
X103952380Y-134480952D01*
X103952380Y-134671428D01*
X103047619Y-133861904D02*
X103000000Y-133814285D01*
X102952380Y-133719047D01*
X102952380Y-133480952D01*
X103000000Y-133385714D01*
X103047619Y-133338095D01*
X103142857Y-133290476D01*
X103238095Y-133290476D01*
X103380952Y-133338095D01*
X103952380Y-133909523D01*
X103952380Y-133290476D01*
%TO.C,CONTACT1*%
X97895238Y-186657142D02*
X97847619Y-186704761D01*
X97704761Y-186752380D01*
X97609523Y-186752380D01*
X97466666Y-186704761D01*
X97371428Y-186609523D01*
X97323809Y-186514285D01*
X97276190Y-186323809D01*
X97276190Y-186180952D01*
X97323809Y-185990476D01*
X97371428Y-185895238D01*
X97466666Y-185800000D01*
X97609523Y-185752380D01*
X97704761Y-185752380D01*
X97847619Y-185800000D01*
X97895238Y-185847619D01*
X98514285Y-185752380D02*
X98704761Y-185752380D01*
X98800000Y-185800000D01*
X98895238Y-185895238D01*
X98942857Y-186085714D01*
X98942857Y-186419047D01*
X98895238Y-186609523D01*
X98800000Y-186704761D01*
X98704761Y-186752380D01*
X98514285Y-186752380D01*
X98419047Y-186704761D01*
X98323809Y-186609523D01*
X98276190Y-186419047D01*
X98276190Y-186085714D01*
X98323809Y-185895238D01*
X98419047Y-185800000D01*
X98514285Y-185752380D01*
X99371428Y-186752380D02*
X99371428Y-185752380D01*
X99942857Y-186752380D01*
X99942857Y-185752380D01*
X100276190Y-185752380D02*
X100847619Y-185752380D01*
X100561904Y-186752380D02*
X100561904Y-185752380D01*
X101133333Y-186466666D02*
X101609523Y-186466666D01*
X101038095Y-186752380D02*
X101371428Y-185752380D01*
X101704761Y-186752380D01*
X102609523Y-186657142D02*
X102561904Y-186704761D01*
X102419047Y-186752380D01*
X102323809Y-186752380D01*
X102180952Y-186704761D01*
X102085714Y-186609523D01*
X102038095Y-186514285D01*
X101990476Y-186323809D01*
X101990476Y-186180952D01*
X102038095Y-185990476D01*
X102085714Y-185895238D01*
X102180952Y-185800000D01*
X102323809Y-185752380D01*
X102419047Y-185752380D01*
X102561904Y-185800000D01*
X102609523Y-185847619D01*
X102895238Y-185752380D02*
X103466666Y-185752380D01*
X103180952Y-186752380D02*
X103180952Y-185752380D01*
X104323809Y-186752380D02*
X103752380Y-186752380D01*
X104038095Y-186752380D02*
X104038095Y-185752380D01*
X103942857Y-185895238D01*
X103847619Y-185990476D01*
X103752380Y-186038095D01*
%TO.C,C4*%
X134118131Y-177975155D02*
X134165750Y-178022774D01*
X134213369Y-178165631D01*
X134213369Y-178260869D01*
X134165750Y-178403727D01*
X134070512Y-178498965D01*
X133975274Y-178546584D01*
X133784798Y-178594203D01*
X133641941Y-178594203D01*
X133451465Y-178546584D01*
X133356227Y-178498965D01*
X133260989Y-178403727D01*
X133213369Y-178260869D01*
X133213369Y-178165631D01*
X133260989Y-178022774D01*
X133308608Y-177975155D01*
X133546703Y-177118012D02*
X134213369Y-177118012D01*
X133165750Y-177356108D02*
X133880036Y-177594203D01*
X133880036Y-176975155D01*
%TO.C,ENC_FOL1*%
X94047619Y-169228571D02*
X94380952Y-169228571D01*
X94523809Y-169752380D02*
X94047619Y-169752380D01*
X94047619Y-168752380D01*
X94523809Y-168752380D01*
X94952380Y-169752380D02*
X94952380Y-168752380D01*
X95523809Y-169752380D01*
X95523809Y-168752380D01*
X96571428Y-169657142D02*
X96523809Y-169704761D01*
X96380952Y-169752380D01*
X96285714Y-169752380D01*
X96142857Y-169704761D01*
X96047619Y-169609523D01*
X96000000Y-169514285D01*
X95952380Y-169323809D01*
X95952380Y-169180952D01*
X96000000Y-168990476D01*
X96047619Y-168895238D01*
X96142857Y-168800000D01*
X96285714Y-168752380D01*
X96380952Y-168752380D01*
X96523809Y-168800000D01*
X96571428Y-168847619D01*
X96761904Y-169847619D02*
X97523809Y-169847619D01*
X98095238Y-169228571D02*
X97761904Y-169228571D01*
X97761904Y-169752380D02*
X97761904Y-168752380D01*
X98238095Y-168752380D01*
X98809523Y-168752380D02*
X99000000Y-168752380D01*
X99095238Y-168800000D01*
X99190476Y-168895238D01*
X99238095Y-169085714D01*
X99238095Y-169419047D01*
X99190476Y-169609523D01*
X99095238Y-169704761D01*
X99000000Y-169752380D01*
X98809523Y-169752380D01*
X98714285Y-169704761D01*
X98619047Y-169609523D01*
X98571428Y-169419047D01*
X98571428Y-169085714D01*
X98619047Y-168895238D01*
X98714285Y-168800000D01*
X98809523Y-168752380D01*
X100142857Y-169752380D02*
X99666666Y-169752380D01*
X99666666Y-168752380D01*
X101000000Y-169752380D02*
X100428571Y-169752380D01*
X100714285Y-169752380D02*
X100714285Y-168752380D01*
X100619047Y-168895238D01*
X100523809Y-168990476D01*
X100428571Y-169038095D01*
%TO.C,R7*%
X103952380Y-130266666D02*
X103476190Y-130600000D01*
X103952380Y-130838095D02*
X102952380Y-130838095D01*
X102952380Y-130457142D01*
X103000000Y-130361904D01*
X103047619Y-130314285D01*
X103142857Y-130266666D01*
X103285714Y-130266666D01*
X103380952Y-130314285D01*
X103428571Y-130361904D01*
X103476190Y-130457142D01*
X103476190Y-130838095D01*
X102952380Y-129933333D02*
X102952380Y-129266666D01*
X103952380Y-129695238D01*
D11*
%TO.C,NAPPE2*%
X116481511Y-180501511D02*
X115481511Y-181001511D01*
X107281511Y-184911511D02*
X107281511Y-159311511D01*
X113781511Y-170061511D02*
X115091511Y-170061511D01*
X113781511Y-170061511D02*
X113781511Y-170061511D01*
X115091511Y-174161511D02*
X113781511Y-174161511D01*
X107281511Y-159311511D02*
X113781511Y-159311511D01*
X115091511Y-186211511D02*
X105971511Y-186211511D01*
X113781511Y-159311511D02*
X113781511Y-170061511D01*
X116481511Y-181501511D02*
X116481511Y-180501511D01*
X115091511Y-158011511D02*
X115091511Y-186211511D01*
X113781511Y-184911511D02*
X107281511Y-184911511D01*
X113781511Y-174161511D02*
X113781511Y-184911511D01*
X105971511Y-158011511D02*
X115091511Y-158011511D01*
X105971511Y-186211511D02*
X105971511Y-158011511D01*
X115481511Y-181001511D02*
X116481511Y-181501511D01*
%TO.C,TSR_1-2450*%
X141159011Y-174231511D02*
X129219011Y-174231511D01*
X128889011Y-174561511D02*
X131219011Y-174561511D01*
X129219011Y-166381511D02*
X141159011Y-166381511D01*
X141159011Y-166381511D02*
X141159011Y-174231511D01*
X129219011Y-174231511D02*
X129219011Y-166381511D01*
X128889011Y-172111511D02*
X128889011Y-174561511D01*
%TO.C,SCREW_TERM*%
X140259011Y-164491511D02*
X140259011Y-154331511D01*
X140259011Y-154331511D02*
X132639011Y-154331511D01*
X132639011Y-154331511D02*
X132639011Y-164491511D01*
X132639011Y-164491511D02*
X140259011Y-164491511D01*
X138989011Y-154331511D02*
X138989011Y-164491511D01*
%TO.C,C3*%
X129364011Y-159150259D02*
X129364011Y-159672763D01*
X130834011Y-159150259D02*
X130834011Y-159672763D01*
%TO.C,D4*%
X134909011Y-133211511D02*
X134909011Y-137061511D01*
X132909011Y-133211511D02*
X132909011Y-137061511D01*
X134909011Y-133211511D02*
X132909011Y-133211511D01*
%TO.C,R10*%
X107974011Y-149024447D02*
X107974011Y-149478575D01*
X106504011Y-149024447D02*
X106504011Y-149478575D01*
%TO.C,PWM_MOT1*%
X100254011Y-154966511D02*
X100889011Y-154966511D01*
X100889011Y-158649511D02*
X100889011Y-154966511D01*
X98349011Y-154331511D02*
X100254011Y-154331511D01*
X93269011Y-155601511D02*
X93269011Y-158649511D01*
X99619011Y-158649511D02*
X99619011Y-159411511D01*
X100889011Y-158649511D02*
X99619011Y-158649511D01*
X100254011Y-154966511D02*
X100254011Y-154331511D01*
X98349011Y-154331511D02*
X93904011Y-154331511D01*
X93523011Y-158649511D02*
X94285011Y-159411511D01*
X94285011Y-159411511D02*
X99619011Y-159411511D01*
X93269011Y-154966511D02*
X93269011Y-155601511D01*
X93269011Y-154966511D02*
X93904011Y-154966511D01*
X93904011Y-154331511D02*
X93904011Y-154966511D01*
X93269011Y-158649511D02*
X93523011Y-158649511D01*
%TO.C,POMPE1*%
X101687011Y-139091511D02*
X97587011Y-139091511D01*
X97587011Y-139931511D02*
X97587011Y-139091511D01*
X97787011Y-143231511D02*
X98387011Y-144171511D01*
X97587011Y-139931511D02*
X97079011Y-139931511D01*
X101587011Y-143031511D02*
X101587011Y-143831511D01*
X101687011Y-139931511D02*
X102159011Y-139931511D01*
X101587011Y-143831511D02*
X100987011Y-143831511D01*
X98387011Y-144171511D02*
X100987011Y-144171511D01*
X101687011Y-139091511D02*
X101687011Y-139931511D01*
X97079011Y-143231511D02*
X97787011Y-143231511D01*
X102159011Y-143031511D02*
X101587011Y-143031511D01*
X97079011Y-139931511D02*
X97079011Y-143231511D01*
X102159011Y-143031511D02*
X102159011Y-139931511D01*
X100987011Y-143831511D02*
X100987011Y-144171511D01*
%TO.C,Q4*%
X120919011Y-133679011D02*
X120919011Y-135354011D01*
X120919011Y-133679011D02*
X120919011Y-133029011D01*
X124039011Y-133679011D02*
X124039011Y-133029011D01*
X124039011Y-133679011D02*
X124039011Y-134329011D01*
%TO.C,Q3*%
X120919011Y-141631511D02*
X120919011Y-140981511D01*
X120919011Y-141631511D02*
X120919011Y-143306511D01*
X124039011Y-141631511D02*
X124039011Y-142281511D01*
X124039011Y-141631511D02*
X124039011Y-140981511D01*
%TO.C,R3*%
X106553575Y-137086511D02*
X106099447Y-137086511D01*
X106553575Y-138556511D02*
X106099447Y-138556511D01*
%TO.C,R8*%
X122251947Y-146176511D02*
X122706075Y-146176511D01*
X122251947Y-144706511D02*
X122706075Y-144706511D01*
%TO.C,CONTACT2*%
X127559011Y-185101511D02*
X127559011Y-181001511D01*
X122479011Y-181801511D02*
X122479011Y-184401511D01*
X126719011Y-181001511D02*
X126719011Y-180493511D01*
X123419011Y-180493511D02*
X123419011Y-181201511D01*
X123419011Y-181201511D02*
X122479011Y-181801511D01*
X123619011Y-185573511D02*
X123619011Y-185001511D01*
X127559011Y-185101511D02*
X126719011Y-185101511D01*
X122819011Y-185001511D02*
X122819011Y-184401511D01*
X122819011Y-184401511D02*
X122479011Y-184401511D01*
X123619011Y-185001511D02*
X122819011Y-185001511D01*
X126719011Y-180493511D02*
X123419011Y-180493511D01*
X123619011Y-185573511D02*
X126719011Y-185573511D01*
X126719011Y-181001511D02*
X127559011Y-181001511D01*
X126719011Y-185101511D02*
X126719011Y-185573511D01*
%TO.C,SERVO1*%
X130159011Y-125121511D02*
X130159011Y-130261511D01*
X127499011Y-123851511D02*
X127499011Y-122521511D01*
X127499011Y-125121511D02*
X127499011Y-130261511D01*
X127499011Y-122521511D02*
X128829011Y-122521511D01*
X127499011Y-125121511D02*
X130159011Y-125121511D01*
X127499011Y-130261511D02*
X130159011Y-130261511D01*
%TO.C,ENC_FOL2*%
X127610000Y-168200000D02*
X127610000Y-165300000D01*
X118590000Y-164722000D02*
X118590000Y-163960000D01*
X117320000Y-165200000D02*
X117320000Y-168405000D01*
X127610000Y-165300000D02*
X127145000Y-165300000D01*
X117810000Y-165200000D02*
X117810000Y-164722000D01*
X117910000Y-168405000D02*
X117910000Y-169100000D01*
X127010000Y-169040000D02*
X127010000Y-168200000D01*
X127145000Y-165300000D02*
X126310000Y-163960000D01*
X117910000Y-168405000D02*
X117320000Y-168405000D01*
X117910000Y-169100000D02*
X127010000Y-169040000D01*
X126310000Y-163960000D02*
X118590000Y-163960000D01*
X117320000Y-165200000D02*
X117810000Y-165200000D01*
X127610000Y-168200000D02*
X127010000Y-168200000D01*
X117810000Y-164722000D02*
X118590000Y-164722000D01*
%TO.C,D3*%
X136179011Y-141841511D02*
X134179011Y-141841511D01*
X134179011Y-141841511D02*
X134179011Y-145691511D01*
X136179011Y-141841511D02*
X136179011Y-145691511D01*
%TO.C,EV2*%
X126289011Y-133881511D02*
X126289011Y-136981511D01*
X130061011Y-132741511D02*
X127461011Y-132741511D01*
X126761011Y-137821511D02*
X130861011Y-137821511D01*
X126861011Y-133081511D02*
X127461011Y-133081511D01*
X126861011Y-133881511D02*
X126861011Y-133081511D01*
X126289011Y-133881511D02*
X126861011Y-133881511D01*
X131369011Y-133681511D02*
X130661011Y-133681511D01*
X126761011Y-137821511D02*
X126761011Y-136981511D01*
X126761011Y-136981511D02*
X126289011Y-136981511D01*
X130661011Y-133681511D02*
X130061011Y-132741511D01*
X130861011Y-136981511D02*
X131369011Y-136981511D01*
X131369011Y-136981511D02*
X131369011Y-133681511D01*
X127461011Y-133081511D02*
X127461011Y-132741511D01*
X130861011Y-136981511D02*
X130861011Y-137821511D01*
%TO.C,EV1*%
X97587011Y-132311511D02*
X97587011Y-131471511D01*
X102159011Y-135411511D02*
X101587011Y-135411511D01*
X101587011Y-135411511D02*
X101587011Y-136211511D01*
X101587011Y-136211511D02*
X100987011Y-136211511D01*
X97587011Y-132311511D02*
X97079011Y-132311511D01*
X97079011Y-132311511D02*
X97079011Y-135611511D01*
X101687011Y-131471511D02*
X101687011Y-132311511D01*
X97787011Y-135611511D02*
X98387011Y-136551511D01*
X101687011Y-131471511D02*
X97587011Y-131471511D01*
X102159011Y-135411511D02*
X102159011Y-132311511D01*
X100987011Y-136211511D02*
X100987011Y-136551511D01*
X98387011Y-136551511D02*
X100987011Y-136551511D01*
X101687011Y-132311511D02*
X102159011Y-132311511D01*
X97079011Y-135611511D02*
X97787011Y-135611511D01*
%TO.C,POMPE2*%
X130861011Y-144601511D02*
X130861011Y-145441511D01*
X127461011Y-140701511D02*
X127461011Y-140361511D01*
X130061011Y-140361511D02*
X127461011Y-140361511D01*
X126761011Y-145441511D02*
X130861011Y-145441511D01*
X126289011Y-141501511D02*
X126289011Y-144601511D01*
X131369011Y-141301511D02*
X130661011Y-141301511D01*
X126761011Y-145441511D02*
X126761011Y-144601511D01*
X130661011Y-141301511D02*
X130061011Y-140361511D01*
X126289011Y-141501511D02*
X126861011Y-141501511D01*
X131369011Y-144601511D02*
X131369011Y-141301511D01*
X126761011Y-144601511D02*
X126289011Y-144601511D01*
X126861011Y-141501511D02*
X126861011Y-140701511D01*
X126861011Y-140701511D02*
X127461011Y-140701511D01*
X130861011Y-144601511D02*
X131369011Y-144601511D01*
%TO.C,Q1*%
X104409011Y-142901511D02*
X104409011Y-142251511D01*
X107529011Y-142901511D02*
X107529011Y-141226511D01*
X107529011Y-142901511D02*
X107529011Y-143551511D01*
X104409011Y-142901511D02*
X104409011Y-143551511D01*
%TO.C,ENC_MOT1*%
X93139011Y-175851511D02*
X93604011Y-175851511D01*
X102839011Y-172746511D02*
X103429011Y-172746511D01*
X102839011Y-172746511D02*
X102839011Y-172051511D01*
X93139011Y-172951511D02*
X93139011Y-175851511D01*
X94439011Y-177191511D02*
X102159011Y-177191511D01*
X102839011Y-172051511D02*
X93739011Y-172111511D01*
X102939011Y-176429511D02*
X102159011Y-176429511D01*
X102159011Y-176429511D02*
X102159011Y-177191511D01*
X102939011Y-175951511D02*
X102939011Y-176429511D01*
X93139011Y-172951511D02*
X93739011Y-172951511D01*
X93739011Y-172111511D02*
X93739011Y-172951511D01*
X93604011Y-175851511D02*
X94439011Y-177191511D01*
X103429011Y-175951511D02*
X102939011Y-175951511D01*
X103429011Y-175951511D02*
X103429011Y-172746511D01*
%TO.C,DIODE*%
X95539011Y-138291511D02*
X93539011Y-138291511D01*
X93539011Y-138291511D02*
X93539011Y-142141511D01*
X95539011Y-138291511D02*
X95539011Y-142141511D01*
%TO.C,SERVO3*%
X137659011Y-132696511D02*
X138989011Y-132696511D01*
X137659011Y-134026511D02*
X137659011Y-132696511D01*
X137659011Y-135296511D02*
X137659011Y-140436511D01*
X140319011Y-135296511D02*
X140319011Y-140436511D01*
X137659011Y-135296511D02*
X140319011Y-135296511D01*
X137659011Y-140436511D02*
X140319011Y-140436511D01*
%TO.C,J18*%
X116839011Y-138601511D02*
X116839011Y-149351511D01*
X116839011Y-134501511D02*
X116839011Y-134501511D01*
X110339011Y-123751511D02*
X116839011Y-123751511D01*
X110339011Y-149351511D02*
X110339011Y-123751511D01*
X118149011Y-138601511D02*
X116839011Y-138601511D01*
X119539011Y-145941511D02*
X119539011Y-144941511D01*
X119539011Y-144941511D02*
X118539011Y-145441511D01*
X116839011Y-134501511D02*
X118149011Y-134501511D01*
X118149011Y-150651511D02*
X109029011Y-150651511D01*
X116839011Y-149351511D02*
X110339011Y-149351511D01*
X109029011Y-150651511D02*
X109029011Y-122451511D01*
X118539011Y-145441511D02*
X119539011Y-145941511D01*
X116839011Y-123751511D02*
X116839011Y-134501511D01*
X118149011Y-122451511D02*
X118149011Y-150651511D01*
X109029011Y-122451511D02*
X118149011Y-122451511D01*
%TO.C,DIODE*%
X95539011Y-136211511D02*
X95539011Y-132361511D01*
X93539011Y-136211511D02*
X93539011Y-132361511D01*
X93539011Y-136211511D02*
X95539011Y-136211511D01*
%TO.C,ENC_MOT2*%
X117889011Y-174621511D02*
X117889011Y-174143511D01*
X117989011Y-177826511D02*
X117399011Y-177826511D01*
X117399011Y-174621511D02*
X117889011Y-174621511D01*
X127689011Y-174721511D02*
X127224011Y-174721511D01*
X127689011Y-177621511D02*
X127689011Y-174721511D01*
X117889011Y-174143511D02*
X118669011Y-174143511D01*
X117989011Y-178521511D02*
X127089011Y-178461511D01*
X126389011Y-173381511D02*
X118669011Y-173381511D01*
X118669011Y-174143511D02*
X118669011Y-173381511D01*
X117989011Y-177826511D02*
X117989011Y-178521511D01*
X127224011Y-174721511D02*
X126389011Y-173381511D01*
X127089011Y-178461511D02*
X127089011Y-177621511D01*
X117399011Y-174621511D02*
X117399011Y-177826511D01*
X127689011Y-177621511D02*
X127089011Y-177621511D01*
%TO.C,SERVO2*%
X121149011Y-123866511D02*
X121149011Y-122536511D01*
X121149011Y-125136511D02*
X123809011Y-125136511D01*
X123809011Y-125136511D02*
X123809011Y-130276511D01*
X121149011Y-130276511D02*
X123809011Y-130276511D01*
X121149011Y-125136511D02*
X121149011Y-130276511D01*
X121149011Y-122536511D02*
X122479011Y-122536511D01*
%TO.C,MOT_PWM2*%
X125654011Y-160681511D02*
X125654011Y-160046511D01*
X126035011Y-156363511D02*
X125273011Y-155601511D01*
X121209011Y-160681511D02*
X119304011Y-160681511D01*
X119304011Y-160046511D02*
X119304011Y-160681511D01*
X119304011Y-160046511D02*
X118669011Y-160046511D01*
X126289011Y-160046511D02*
X125654011Y-160046511D01*
X126289011Y-160046511D02*
X126289011Y-159411511D01*
X126289011Y-156363511D02*
X126035011Y-156363511D01*
X118669011Y-156363511D02*
X118669011Y-160046511D01*
X119939011Y-156363511D02*
X119939011Y-155601511D01*
X118669011Y-156363511D02*
X119939011Y-156363511D01*
X126289011Y-159411511D02*
X126289011Y-156363511D01*
X125273011Y-155601511D02*
X119939011Y-155601511D01*
X121209011Y-160681511D02*
X125654011Y-160681511D01*
%TO.C,DYNAMIXEL2*%
X120999011Y-147961511D02*
X119999011Y-148961511D01*
X119999011Y-153081511D02*
X130119011Y-153081511D01*
X130119011Y-153081511D02*
X130119011Y-147961511D01*
X119999011Y-148961511D02*
X119999011Y-153081511D01*
X130419011Y-147661511D02*
X128009011Y-147661511D01*
X130419011Y-150071511D02*
X130419011Y-147661511D01*
X130119011Y-147961511D02*
X120999011Y-147961511D01*
%TO.C,R9*%
X122251947Y-138556511D02*
X122706075Y-138556511D01*
X122251947Y-137086511D02*
X122706075Y-137086511D01*
%TO.C,DYNAMIXEL1*%
X104679011Y-146691511D02*
X94559011Y-146691511D01*
X94259011Y-152111511D02*
X96669011Y-152111511D01*
X94559011Y-151811511D02*
X103679011Y-151811511D01*
X104679011Y-150811511D02*
X104679011Y-146691511D01*
X103679011Y-151811511D02*
X104679011Y-150811511D01*
X94559011Y-146691511D02*
X94559011Y-151811511D01*
X94259011Y-149701511D02*
X94259011Y-152111511D01*
%TO.C,Q2*%
X107529011Y-134011511D02*
X107529011Y-134661511D01*
X104409011Y-134011511D02*
X104409011Y-134661511D01*
X104409011Y-134011511D02*
X104409011Y-133361511D01*
X107529011Y-134011511D02*
X107529011Y-132336511D01*
%TO.C,CONTACT1*%
X99111011Y-180747511D02*
X98349011Y-181509511D01*
X102921011Y-180493511D02*
X99111011Y-180493511D01*
X102921011Y-185065511D02*
X102921011Y-185573511D01*
X99111011Y-185573511D02*
X99111011Y-184811511D01*
X103429011Y-185065511D02*
X103429011Y-181001511D01*
X103429011Y-181001511D02*
X102921011Y-181001511D01*
X98349011Y-181509511D02*
X98349011Y-184811511D01*
X103429011Y-185065511D02*
X102921011Y-185065511D01*
X99111011Y-185573511D02*
X102921011Y-185573511D01*
X99111011Y-180493511D02*
X99111011Y-180747511D01*
X102921011Y-181001511D02*
X102921011Y-180493511D01*
X99111011Y-184811511D02*
X98349011Y-184811511D01*
%TO.C,C4*%
X132635000Y-177538748D02*
X132635000Y-178061252D01*
X131165000Y-177538748D02*
X131165000Y-178061252D01*
%TO.C,ENC_FOL1*%
X93139011Y-166961511D02*
X93604011Y-166961511D01*
X102839011Y-163856511D02*
X103429011Y-163856511D01*
X102939011Y-167539511D02*
X102159011Y-167539511D01*
X93604011Y-166961511D02*
X94439011Y-168301511D01*
X103429011Y-167061511D02*
X102939011Y-167061511D01*
X103429011Y-167061511D02*
X103429011Y-163856511D01*
X102939011Y-167061511D02*
X102939011Y-167539511D01*
X102839011Y-163161511D02*
X93739011Y-163221511D01*
X102159011Y-167539511D02*
X102159011Y-168301511D01*
X102839011Y-163856511D02*
X102839011Y-163161511D01*
X93739011Y-163221511D02*
X93739011Y-164061511D01*
X93139011Y-164061511D02*
X93739011Y-164061511D01*
X94439011Y-168301511D02*
X102159011Y-168301511D01*
X93139011Y-164061511D02*
X93139011Y-166961511D01*
%TO.C,R7*%
X106196075Y-130936511D02*
X105741947Y-130936511D01*
X106196075Y-129466511D02*
X105741947Y-129466511D01*
%TD*%
M02*
