%TF.GenerationSoftware,KiCad,Pcbnew,(6.0.1)*%
%TF.CreationDate,2022-02-03T23:41:23+01:00*%
%TF.ProjectId,CarteSecondaire,43617274-6553-4656-936f-6e6461697265,rev?*%
%TF.SameCoordinates,Original*%
%TF.FileFunction,Copper,L2,Bot*%
%TF.FilePolarity,Positive*%
%FSLAX46Y46*%
G04 Gerber Fmt 4.6, Leading zero omitted, Abs format (unit mm)*
G04 Created by KiCad (PCBNEW (6.0.1)) date 2022-02-03 23:41:23*
%MOMM*%
%LPD*%
G01*
G04 APERTURE LIST*
G04 Aperture macros list*
%AMRoundRect*
0 Rectangle with rounded corners*
0 $1 Rounding radius*
0 $2 $3 $4 $5 $6 $7 $8 $9 X,Y pos of 4 corners*
0 Add a 4 corners polygon primitive as box body*
4,1,4,$2,$3,$4,$5,$6,$7,$8,$9,$2,$3,0*
0 Add four circle primitives for the rounded corners*
1,1,$1+$1,$2,$3*
1,1,$1+$1,$4,$5*
1,1,$1+$1,$6,$7*
1,1,$1+$1,$8,$9*
0 Add four rect primitives between the rounded corners*
20,1,$1+$1,$2,$3,$4,$5,0*
20,1,$1+$1,$4,$5,$6,$7,0*
20,1,$1+$1,$6,$7,$8,$9,0*
20,1,$1+$1,$8,$9,$2,$3,0*%
G04 Aperture macros list end*
%TA.AperFunction,ComponentPad*%
%ADD10RoundRect,0.250000X0.600000X0.600000X-0.600000X0.600000X-0.600000X-0.600000X0.600000X-0.600000X0*%
%TD*%
%TA.AperFunction,ComponentPad*%
%ADD11C,1.700000*%
%TD*%
%TA.AperFunction,ComponentPad*%
%ADD12R,1.500000X2.500000*%
%TD*%
%TA.AperFunction,ComponentPad*%
%ADD13O,1.500000X2.500000*%
%TD*%
%TA.AperFunction,ComponentPad*%
%ADD14R,3.000000X3.000000*%
%TD*%
%TA.AperFunction,ComponentPad*%
%ADD15C,3.000000*%
%TD*%
%TA.AperFunction,ComponentPad*%
%ADD16C,1.524000*%
%TD*%
%TA.AperFunction,ComponentPad*%
%ADD17R,1.700000X1.700000*%
%TD*%
%TA.AperFunction,ComponentPad*%
%ADD18O,1.700000X1.700000*%
%TD*%
%TA.AperFunction,ComponentPad*%
%ADD19RoundRect,0.250000X0.600000X0.675000X-0.600000X0.675000X-0.600000X-0.675000X0.600000X-0.675000X0*%
%TD*%
%TA.AperFunction,ComponentPad*%
%ADD20O,1.700000X1.850000*%
%TD*%
%TA.AperFunction,ComponentPad*%
%ADD21RoundRect,0.250000X-0.600000X-0.675000X0.600000X-0.675000X0.600000X0.675000X-0.600000X0.675000X0*%
%TD*%
%TA.AperFunction,ViaPad*%
%ADD22C,0.800000*%
%TD*%
%TA.AperFunction,Conductor*%
%ADD23C,1.200000*%
%TD*%
%TA.AperFunction,Conductor*%
%ADD24C,0.400000*%
%TD*%
%TA.AperFunction,Conductor*%
%ADD25C,0.600000*%
%TD*%
G04 APERTURE END LIST*
D10*
%TO.P,NAPPE2,1,Pin_1*%
%TO.N,GND*%
X111801511Y-181001511D03*
D11*
%TO.P,NAPPE2,2,Pin_2*%
X109261511Y-181001511D03*
%TO.P,NAPPE2,3,Pin_3*%
%TO.N,+5V*%
X111801511Y-178461511D03*
%TO.P,NAPPE2,4,Pin_4*%
X109261511Y-178461511D03*
%TO.P,NAPPE2,5,Pin_5*%
%TO.N,MC1B*%
X111801511Y-175921511D03*
%TO.P,NAPPE2,6,Pin_6*%
%TO.N,MC1A*%
X109261511Y-175921511D03*
%TO.P,NAPPE2,7,Pin_7*%
%TO.N,MC2B*%
X111801511Y-173381511D03*
%TO.P,NAPPE2,8,Pin_8*%
%TO.N,MC2A*%
X109261511Y-173381511D03*
%TO.P,NAPPE2,9,Pin_9*%
%TO.N,CONTACTEUR2_GPIO*%
X111801511Y-170841511D03*
%TO.P,NAPPE2,10,Pin_10*%
%TO.N,CONTACTEUR1_GPIO*%
X109261511Y-170841511D03*
%TO.P,NAPPE2,11,Pin_11*%
%TO.N,unconnected-(J7-Pad11)*%
X111801511Y-168301511D03*
%TO.P,NAPPE2,12,Pin_12*%
%TO.N,DataAX12_TX*%
X109261511Y-168301511D03*
%TO.P,NAPPE2,13,Pin_13*%
%TO.N,RC_1B*%
X111801511Y-165761511D03*
%TO.P,NAPPE2,14,Pin_14*%
%TO.N,RC_1A*%
X109261511Y-165761511D03*
%TO.P,NAPPE2,15,Pin_15*%
%TO.N,RC_2A*%
X111801511Y-163221511D03*
%TO.P,NAPPE2,16,Pin_16*%
%TO.N,RC_2B*%
X109261511Y-163221511D03*
%TD*%
D12*
%TO.P,TSR_1-2450,1,Vin*%
%TO.N,+12V*%
X132639011Y-172111511D03*
D13*
%TO.P,TSR_1-2450,2,GND*%
%TO.N,GND*%
X135179011Y-172111511D03*
%TO.P,TSR_1-2450,3,Vout*%
%TO.N,+5V*%
X137719011Y-172111511D03*
%TD*%
D14*
%TO.P,SCREW_TERM,1,Pin_1*%
%TO.N,GND*%
X136449011Y-161951511D03*
D15*
%TO.P,SCREW_TERM,2,Pin_2*%
%TO.N,+12V*%
X136449011Y-156871511D03*
%TD*%
D16*
%TO.P,PWM_MOT1,1,Pin_1*%
%TO.N,GND*%
X94539011Y-156871511D03*
%TO.P,PWM_MOT1,2,Pin_2*%
%TO.N,Mot1PWM*%
X97079011Y-156871511D03*
%TO.P,PWM_MOT1,3,Pin_3*%
%TO.N,Mot1DIR*%
X99619011Y-156871511D03*
%TD*%
%TO.P,POMPE1,1,Pin_1*%
%TO.N,+12V*%
X98349011Y-141631511D03*
%TO.P,POMPE1,2,Pin_2*%
%TO.N,Net-(CONN_COL2-Pad2)*%
X100889011Y-141631511D03*
%TD*%
%TO.P,CONTACT2,1,Pin_1*%
%TO.N,CONTACTEUR2_GPIO*%
X125019011Y-181763511D03*
%TO.P,CONTACT2,2,Pin_2*%
%TO.N,GND*%
X125019011Y-184303511D03*
%TD*%
D17*
%TO.P,SERVO1,1,Pin_1*%
%TO.N,GND*%
X128829011Y-123851511D03*
D18*
%TO.P,SERVO1,2,Pin_2*%
%TO.N,+5V*%
X128829011Y-126391511D03*
%TO.P,SERVO1,3,Pin_3*%
%TO.N,S1*%
X128829011Y-128931511D03*
%TD*%
D16*
%TO.P,ENC_FOL2,1,Pin_1*%
%TO.N,+5V*%
X126210000Y-166500000D03*
%TO.P,ENC_FOL2,2,Pin_2*%
%TO.N,GND*%
X123670000Y-166500000D03*
%TO.P,ENC_FOL2,3,Pin_3*%
%TO.N,RC_2A*%
X121130000Y-166500000D03*
%TO.P,ENC_FOL2,4,Pin_4*%
%TO.N,RC_2B*%
X118590000Y-166500000D03*
%TD*%
%TO.P,EV2,1,Pin_1*%
%TO.N,+12V*%
X130099011Y-135281511D03*
%TO.P,EV2,2,Pin_2*%
%TO.N,Net-(CONN_COL6-Pad2)*%
X127559011Y-135281511D03*
%TD*%
%TO.P,EV1,1,Pin_1*%
%TO.N,+12V*%
X98349011Y-134011511D03*
%TO.P,EV1,2,Pin_2*%
%TO.N,Net-(CONN_COL3-Pad2)*%
X100889011Y-134011511D03*
%TD*%
%TO.P,POMPE2,1,Pin_1*%
%TO.N,+12V*%
X130099011Y-142901511D03*
%TO.P,POMPE2,2,Pin_2*%
%TO.N,Net-(CONN_COL5-Pad2)*%
X127559011Y-142901511D03*
%TD*%
%TO.P,ENC_MOT1,1,Pin_1*%
%TO.N,+5V*%
X94539011Y-174651511D03*
%TO.P,ENC_MOT1,2,Pin_2*%
%TO.N,GND*%
X97079011Y-174651511D03*
%TO.P,ENC_MOT1,3,Pin_3*%
%TO.N,MC1A*%
X99619011Y-174651511D03*
%TO.P,ENC_MOT1,4,Pin_4*%
%TO.N,MC1B*%
X102159011Y-174651511D03*
%TD*%
D17*
%TO.P,SERVO3,1,Pin_1*%
%TO.N,GND*%
X138989011Y-134026511D03*
D18*
%TO.P,SERVO3,2,Pin_2*%
%TO.N,+5V*%
X138989011Y-136566511D03*
%TO.P,SERVO3,3,Pin_3*%
%TO.N,S3*%
X138989011Y-139106511D03*
%TD*%
D10*
%TO.P,J18,1,Pin_1*%
%TO.N,GND*%
X114859011Y-145441511D03*
D11*
%TO.P,J18,2,Pin_2*%
X112319011Y-145441511D03*
%TO.P,J18,3,Pin_3*%
%TO.N,+5V*%
X114859011Y-142901511D03*
%TO.P,J18,4,Pin_4*%
X112319011Y-142901511D03*
%TO.P,J18,5,Pin_5*%
%TO.N,Mot2DIR*%
X114859011Y-140361511D03*
%TO.P,J18,6,Pin_6*%
%TO.N,Mot2PWM*%
X112319011Y-140361511D03*
%TO.P,J18,7,Pin_7*%
%TO.N,Mot1DIR*%
X114859011Y-137821511D03*
%TO.P,J18,8,Pin_8*%
%TO.N,Mot1PWM*%
X112319011Y-137821511D03*
%TO.P,J18,9,Pin_9*%
%TO.N,POMPE2*%
X114859011Y-135281511D03*
%TO.P,J18,10,Pin_10*%
%TO.N,POMPE1*%
X112319011Y-135281511D03*
%TO.P,J18,11,Pin_11*%
%TO.N,EV2*%
X114859011Y-132741511D03*
%TO.P,J18,12,Pin_12*%
%TO.N,EV1*%
X112319011Y-132741511D03*
%TO.P,J18,13,Pin_13*%
%TO.N,S1*%
X114859011Y-130201511D03*
%TO.P,J18,14,Pin_14*%
%TO.N,S2*%
X112319011Y-130201511D03*
%TO.P,J18,15,Pin_15*%
%TO.N,S3*%
X114859011Y-127661511D03*
%TO.P,J18,16,Pin_16*%
%TO.N,+3V3*%
X112319011Y-127661511D03*
%TD*%
D16*
%TO.P,ENC_MOT2,1,Pin_1*%
%TO.N,+5V*%
X126289011Y-175921511D03*
%TO.P,ENC_MOT2,2,Pin_2*%
%TO.N,GND*%
X123749011Y-175921511D03*
%TO.P,ENC_MOT2,3,Pin_3*%
%TO.N,MC2A*%
X121209011Y-175921511D03*
%TO.P,ENC_MOT2,4,Pin_4*%
%TO.N,MC2B*%
X118669011Y-175921511D03*
%TD*%
D17*
%TO.P,SERVO2,1,Pin_1*%
%TO.N,GND*%
X122479011Y-123866511D03*
D18*
%TO.P,SERVO2,2,Pin_2*%
%TO.N,+5V*%
X122479011Y-126406511D03*
%TO.P,SERVO2,3,Pin_3*%
%TO.N,S2*%
X122479011Y-128946511D03*
%TD*%
D16*
%TO.P,MOT_PWM2,1,Pin_1*%
%TO.N,GND*%
X125019011Y-158141511D03*
%TO.P,MOT_PWM2,2,Pin_2*%
%TO.N,Mot2PWM*%
X122479011Y-158141511D03*
%TO.P,MOT_PWM2,3,Pin_3*%
%TO.N,Mot2DIR*%
X119939011Y-158141511D03*
%TD*%
D19*
%TO.P,DYNAMIXEL2,1,Pin_1*%
%TO.N,GND*%
X127559011Y-149871511D03*
D20*
%TO.P,DYNAMIXEL2,2,Pin_2*%
%TO.N,+12V*%
X125059011Y-149871511D03*
%TO.P,DYNAMIXEL2,3,Pin_3*%
%TO.N,DataAX12_TX*%
X122559011Y-149871511D03*
%TD*%
D21*
%TO.P,DYNAMIXEL1,1,Pin_1*%
%TO.N,GND*%
X97119011Y-149901511D03*
D20*
%TO.P,DYNAMIXEL1,2,Pin_2*%
%TO.N,+12V*%
X99619011Y-149901511D03*
%TO.P,DYNAMIXEL1,3,Pin_3*%
%TO.N,DataAX12_TX*%
X102119011Y-149901511D03*
%TD*%
D16*
%TO.P,CONTACT1,1,Pin_1*%
%TO.N,CONTACTEUR1_GPIO*%
X100889011Y-181763511D03*
%TO.P,CONTACT1,2,Pin_2*%
%TO.N,GND*%
X100889011Y-184303511D03*
%TD*%
%TO.P,ENC_FOL1,1,Pin_1*%
%TO.N,+5V*%
X94539011Y-165761511D03*
%TO.P,ENC_FOL1,2,Pin_2*%
%TO.N,GND*%
X97079011Y-165761511D03*
%TO.P,ENC_FOL1,3,Pin_3*%
%TO.N,RC_1A*%
X99619011Y-165761511D03*
%TO.P,ENC_FOL1,4,Pin_4*%
%TO.N,RC_1B*%
X102159011Y-165761511D03*
%TD*%
D22*
%TO.N,GND*%
X123749011Y-132741511D03*
X105969011Y-127661511D03*
X130099011Y-175921511D03*
X122628522Y-146576245D03*
%TO.N,Net-(CONN_COL2-Pad2)*%
X98219491Y-143481211D03*
%TO.N,Net-(CONN_COL3-Pad2)*%
X105053621Y-134926901D03*
%TO.N,Net-(CONN_COL5-Pad2)*%
X123619491Y-140361511D03*
%TO.N,Net-(CONN_COL6-Pad2)*%
X131498531Y-136551511D03*
%TO.N,DataAX12_TX*%
X107239011Y-151661991D03*
%TO.N,Mot2PWM*%
X111049011Y-147981511D03*
%TO.N,+3V3*%
X109779011Y-137821511D03*
%TD*%
D23*
%TO.N,+12V*%
X130099011Y-142901511D02*
X125059011Y-147941511D01*
X125059011Y-147941511D02*
X125059011Y-149871511D01*
%TO.N,GND*%
X111801511Y-181001511D02*
X109261511Y-181001511D01*
X126580522Y-178753022D02*
X126580522Y-182742000D01*
X105409011Y-184811511D02*
X101397011Y-184811511D01*
X122479011Y-123866511D02*
X128814011Y-123866511D01*
X122628522Y-146576245D02*
X115993745Y-146576245D01*
X126580522Y-182742000D02*
X125019011Y-184303511D01*
X97079011Y-165761511D02*
X97079011Y-163221511D01*
X99327500Y-176900000D02*
X97079011Y-174651511D01*
X123749011Y-159411511D02*
X123749011Y-166420989D01*
X138989011Y-134026511D02*
X140638522Y-135676022D01*
X115103511Y-184303511D02*
X111801511Y-181001511D01*
X125019011Y-152319284D02*
X125019011Y-158141511D01*
X127466784Y-149871511D02*
X125019011Y-152319284D01*
X140638522Y-142522000D02*
X135179011Y-147981511D01*
X123749011Y-166420989D02*
X123670000Y-166500000D01*
X94539011Y-152481511D02*
X97119011Y-149901511D01*
X140638522Y-135676022D02*
X140638522Y-142522000D01*
X99327500Y-182410311D02*
X99327500Y-176900000D01*
X127559011Y-149871511D02*
X127466784Y-149871511D01*
X101397011Y-184811511D02*
X100889011Y-184303511D01*
X120829500Y-125516022D02*
X120829500Y-129822000D01*
X123749011Y-175921511D02*
X126580522Y-178753022D01*
X97079011Y-163221511D02*
X94539011Y-160681511D01*
X128829011Y-123851511D02*
X131369011Y-126391511D01*
X125019011Y-184303511D02*
X115103511Y-184303511D01*
X100889011Y-184303511D02*
X99403855Y-182818355D01*
X137734011Y-134026511D02*
X138989011Y-134026511D01*
X128814011Y-123866511D02*
X128829011Y-123851511D01*
X125019011Y-158141511D02*
X123749011Y-159411511D01*
X122479011Y-123866511D02*
X109764011Y-123866511D01*
X94539011Y-160681511D02*
X94539011Y-156871511D01*
X122479011Y-123866511D02*
X120829500Y-125516022D01*
X130099011Y-175921511D02*
X128537500Y-174360000D01*
X94539011Y-156871511D02*
X94539011Y-152481511D01*
X97079011Y-174651511D02*
X97079011Y-165761511D01*
X109764011Y-123866511D02*
X105969011Y-127661511D01*
X129449011Y-147981511D02*
X127559011Y-149871511D01*
X120829500Y-129822000D02*
X123749011Y-132741511D01*
X112319011Y-145441511D02*
X114859011Y-145441511D01*
X131369011Y-126391511D02*
X131369011Y-127661511D01*
X131369011Y-127661511D02*
X137734011Y-134026511D01*
X128537500Y-174360000D02*
X125310522Y-174360000D01*
X109261511Y-181001511D02*
X109219011Y-181001511D01*
X125310522Y-174360000D02*
X123749011Y-175921511D01*
X115993745Y-146576245D02*
X114859011Y-145441511D01*
X109219011Y-181001511D02*
X105409011Y-184811511D01*
X123670000Y-166500000D02*
X123670000Y-169492500D01*
X123670000Y-169492500D02*
X128537500Y-174360000D01*
X99403855Y-182486666D02*
X99327500Y-182410311D01*
X99403855Y-182818355D02*
X99403855Y-182486666D01*
X135179011Y-147981511D02*
X129449011Y-147981511D01*
%TO.N,Net-(CONN_COL2-Pad2)*%
X98219491Y-143481211D02*
X99039311Y-143481211D01*
X99039311Y-143481211D02*
X100889011Y-141631511D01*
%TO.N,Net-(CONN_COL3-Pad2)*%
X101804401Y-134926901D02*
X100889011Y-134011511D01*
X105053621Y-134926901D02*
X101804401Y-134926901D01*
D24*
%TO.N,CONTACTEUR1_GPIO*%
X109261511Y-170841511D02*
X100889011Y-179214011D01*
X100889011Y-179214011D02*
X100889011Y-181763511D01*
D23*
%TO.N,Net-(CONN_COL5-Pad2)*%
X123619491Y-140361511D02*
X125019011Y-140361511D01*
X125019011Y-140361511D02*
X127559011Y-142901511D01*
%TO.N,Net-(CONN_COL6-Pad2)*%
X131498531Y-136551511D02*
X131207020Y-136843022D01*
X131207020Y-136843022D02*
X129120522Y-136843022D01*
X129120522Y-136843022D02*
X127559011Y-135281511D01*
D24*
%TO.N,CONTACTEUR2_GPIO*%
X111801511Y-170841511D02*
X122723511Y-181763511D01*
X122723511Y-181763511D02*
X125019011Y-181763511D01*
D25*
%TO.N,DataAX12_TX*%
X107239011Y-166279011D02*
X109261511Y-168301511D01*
X107239011Y-151661991D02*
X107239011Y-166279011D01*
D24*
%TO.N,Mot2PWM*%
X111049011Y-152691511D02*
X119039011Y-160681511D01*
X121039011Y-160681511D02*
X122479011Y-159241511D01*
X111049011Y-147981511D02*
X111049011Y-152691511D01*
X119039011Y-160681511D02*
X121039011Y-160681511D01*
X122479011Y-159241511D02*
X122479011Y-158141511D01*
%TO.N,Mot2DIR*%
X123808531Y-154271991D02*
X123808531Y-144158302D01*
X119939011Y-158141511D02*
X123808531Y-154271991D01*
X120011740Y-140361511D02*
X114859011Y-140361511D01*
X123808531Y-144158302D02*
X120011740Y-140361511D01*
%TO.N,Mot1PWM*%
X104389011Y-152831511D02*
X104389011Y-145751511D01*
X98419011Y-155531511D02*
X101689011Y-155531511D01*
X97079011Y-156871511D02*
X98419011Y-155531511D01*
X104389011Y-145751511D02*
X112319011Y-137821511D01*
X101689011Y-155531511D02*
X104389011Y-152831511D01*
%TO.N,Mot1DIR*%
X111049011Y-141631511D02*
X105562826Y-147117696D01*
X112816087Y-141631511D02*
X111049011Y-141631511D01*
X113568522Y-139112000D02*
X113568522Y-140879076D01*
X105562826Y-147117696D02*
X105562826Y-153007696D01*
X101699011Y-156871511D02*
X99619011Y-156871511D01*
X105562826Y-153007696D02*
X101699011Y-156871511D01*
X113568522Y-140879076D02*
X112816087Y-141631511D01*
X114859011Y-137821511D02*
X113568522Y-139112000D01*
D23*
%TO.N,+3V3*%
X109779011Y-130201511D02*
X112319011Y-127661511D01*
X109779011Y-137821511D02*
X109779011Y-130201511D01*
%TD*%
M02*
