M48
; DRILL file {KiCad (5.1.0)-1} date 29/10/2021 22:54:46
; FORMAT={-:-/ absolute / metric / decimal}
; #@! TF.CreationDate,2021-10-29T22:54:46+02:00
; #@! TF.GenerationSoftware,Kicad,Pcbnew,(5.1.0)-1
; #@! TF.FileFunction,Plated,1,2,PTH
FMAT,2
METRIC
T1C0.800
T2C0.950
T3C1.000
T4C1.100
T5C1.520
%
G90
G05
T1
X68.54Y-110.96
T2
X86.0Y-124.0
X88.5Y-124.0
X91.0Y-124.0
X93.5Y-124.0
X89.0Y-112.0
X91.5Y-112.0
X94.0Y-112.0
T3
X64.0Y-108.42
X64.0Y-110.96
X64.0Y-113.5
T4
X74.0Y-126.0
X76.54Y-126.0
X79.08Y-126.0
T5
X97.5Y-139.5
X102.58Y-139.5
X102.0Y-123.92
X102.0Y-129.0
X62.5Y-123.0
X62.5Y-128.08
X83.0Y-139.7
X88.08Y-139.7
X97.42Y-99.0
X102.5Y-99.0
X83.92Y-99.0
X89.0Y-99.0
X68.92Y-99.0
X74.0Y-99.0
X68.58Y-139.7
X73.66Y-139.7
T0
M30
