G04 #@! TF.GenerationSoftware,KiCad,Pcbnew,(5.1.0)-1*
G04 #@! TF.CreationDate,2021-10-29T22:54:01+02:00*
G04 #@! TF.ProjectId,CarteAlimRobot,43617274-6541-46c6-996d-526f626f742e,rev?*
G04 #@! TF.SameCoordinates,Original*
G04 #@! TF.FileFunction,Legend,Top*
G04 #@! TF.FilePolarity,Positive*
%FSLAX46Y46*%
G04 Gerber Fmt 4.6, Leading zero omitted, Abs format (unit mm)*
G04 Created by KiCad (PCBNEW (5.1.0)-1) date 2021-10-29 22:54:01*
%MOMM*%
%LPD*%
G04 APERTURE LIST*
%ADD10C,0.100000*%
%ADD11C,0.150000*%
%ADD12C,0.300000*%
%ADD13C,0.400000*%
%ADD14C,0.120000*%
%ADD15C,1.700000*%
%ADD16O,1.700000X1.950000*%
%ADD17C,1.200000*%
%ADD18C,3.200000*%
%ADD19R,2.500000X1.500000*%
%ADD20O,2.500000X1.500000*%
%ADD21R,3.000000X3.000000*%
%ADD22C,3.000000*%
%ADD23R,1.905000X2.000000*%
%ADD24O,1.905000X2.000000*%
%ADD25C,1.000000*%
%ADD26C,1.025000*%
G04 APERTURE END LIST*
D10*
D11*
X177002200Y-166007200D02*
X177002200Y-198007200D01*
X285002200Y-198007200D01*
X285002200Y-166007200D01*
X177002200Y-166007200D01*
D10*
D11*
X10000000Y-10000000D02*
X10000000Y-200007200D01*
X287002200Y-200007200D01*
X287002200Y-10000000D01*
X10000000Y-10000000D01*
D10*
D11*
X12000000Y-12000000D02*
X12000000Y-198007200D01*
X285002200Y-198007200D01*
X285002200Y-12000000D01*
X12000000Y-12000000D01*
D10*
D11*
X60000000Y-12000000D02*
X60000000Y-10000000D01*
D10*
D11*
X110000000Y-12000000D02*
X110000000Y-10000000D01*
D10*
D11*
X160000000Y-12000000D02*
X160000000Y-10000000D01*
D10*
D11*
X210000000Y-12000000D02*
X210000000Y-10000000D01*
D10*
D11*
X260000000Y-12000000D02*
X260000000Y-10000000D01*
D10*
D11*
X36065476Y-11588095D02*
X35322619Y-11588095D01*
X35694047Y-11588095D02*
X35694047Y-10288095D01*
X35570238Y-10473809D01*
X35446428Y-10597619D01*
X35322619Y-10659523D01*
D10*
D11*
X85322619Y-10411904D02*
X85384523Y-10350000D01*
X85508333Y-10288095D01*
X85817857Y-10288095D01*
X85941666Y-10350000D01*
X86003571Y-10411904D01*
X86065476Y-10535714D01*
X86065476Y-10659523D01*
X86003571Y-10845238D01*
X85260714Y-11588095D01*
X86065476Y-11588095D01*
D10*
D11*
X135260714Y-10288095D02*
X136065476Y-10288095D01*
X135632142Y-10783333D01*
X135817857Y-10783333D01*
X135941666Y-10845238D01*
X136003571Y-10907142D01*
X136065476Y-11030952D01*
X136065476Y-11340476D01*
X136003571Y-11464285D01*
X135941666Y-11526190D01*
X135817857Y-11588095D01*
X135446428Y-11588095D01*
X135322619Y-11526190D01*
X135260714Y-11464285D01*
D10*
D11*
X185941666Y-10721428D02*
X185941666Y-11588095D01*
X185632142Y-10226190D02*
X185322619Y-11154761D01*
X186127380Y-11154761D01*
D10*
D11*
X236003571Y-10288095D02*
X235384523Y-10288095D01*
X235322619Y-10907142D01*
X235384523Y-10845238D01*
X235508333Y-10783333D01*
X235817857Y-10783333D01*
X235941666Y-10845238D01*
X236003571Y-10907142D01*
X236065476Y-11030952D01*
X236065476Y-11340476D01*
X236003571Y-11464285D01*
X235941666Y-11526190D01*
X235817857Y-11588095D01*
X235508333Y-11588095D01*
X235384523Y-11526190D01*
X235322619Y-11464285D01*
D10*
D11*
X285941666Y-10288095D02*
X285694047Y-10288095D01*
X285570238Y-10350000D01*
X285508333Y-10411904D01*
X285384523Y-10597619D01*
X285322619Y-10845238D01*
X285322619Y-11340476D01*
X285384523Y-11464285D01*
X285446428Y-11526190D01*
X285570238Y-11588095D01*
X285817857Y-11588095D01*
X285941666Y-11526190D01*
X286003571Y-11464285D01*
X286065476Y-11340476D01*
X286065476Y-11030952D01*
X286003571Y-10907142D01*
X285941666Y-10845238D01*
X285817857Y-10783333D01*
X285570238Y-10783333D01*
X285446428Y-10845238D01*
X285384523Y-10907142D01*
X285322619Y-11030952D01*
D10*
D11*
X60000000Y-198007200D02*
X60000000Y-200007200D01*
D10*
D11*
X110000000Y-198007200D02*
X110000000Y-200007200D01*
D10*
D11*
X160000000Y-198007200D02*
X160000000Y-200007200D01*
D10*
D11*
X210000000Y-198007200D02*
X210000000Y-200007200D01*
D10*
D11*
X260000000Y-198007200D02*
X260000000Y-200007200D01*
D10*
D11*
X36065476Y-199595295D02*
X35322619Y-199595295D01*
X35694047Y-199595295D02*
X35694047Y-198295295D01*
X35570238Y-198481009D01*
X35446428Y-198604819D01*
X35322619Y-198666723D01*
D10*
D11*
X85322619Y-198419104D02*
X85384523Y-198357200D01*
X85508333Y-198295295D01*
X85817857Y-198295295D01*
X85941666Y-198357200D01*
X86003571Y-198419104D01*
X86065476Y-198542914D01*
X86065476Y-198666723D01*
X86003571Y-198852438D01*
X85260714Y-199595295D01*
X86065476Y-199595295D01*
D10*
D11*
X135260714Y-198295295D02*
X136065476Y-198295295D01*
X135632142Y-198790533D01*
X135817857Y-198790533D01*
X135941666Y-198852438D01*
X136003571Y-198914342D01*
X136065476Y-199038152D01*
X136065476Y-199347676D01*
X136003571Y-199471485D01*
X135941666Y-199533390D01*
X135817857Y-199595295D01*
X135446428Y-199595295D01*
X135322619Y-199533390D01*
X135260714Y-199471485D01*
D10*
D11*
X185941666Y-198728628D02*
X185941666Y-199595295D01*
X185632142Y-198233390D02*
X185322619Y-199161961D01*
X186127380Y-199161961D01*
D10*
D11*
X236003571Y-198295295D02*
X235384523Y-198295295D01*
X235322619Y-198914342D01*
X235384523Y-198852438D01*
X235508333Y-198790533D01*
X235817857Y-198790533D01*
X235941666Y-198852438D01*
X236003571Y-198914342D01*
X236065476Y-199038152D01*
X236065476Y-199347676D01*
X236003571Y-199471485D01*
X235941666Y-199533390D01*
X235817857Y-199595295D01*
X235508333Y-199595295D01*
X235384523Y-199533390D01*
X235322619Y-199471485D01*
D10*
D11*
X285941666Y-198295295D02*
X285694047Y-198295295D01*
X285570238Y-198357200D01*
X285508333Y-198419104D01*
X285384523Y-198604819D01*
X285322619Y-198852438D01*
X285322619Y-199347676D01*
X285384523Y-199471485D01*
X285446428Y-199533390D01*
X285570238Y-199595295D01*
X285817857Y-199595295D01*
X285941666Y-199533390D01*
X286003571Y-199471485D01*
X286065476Y-199347676D01*
X286065476Y-199038152D01*
X286003571Y-198914342D01*
X285941666Y-198852438D01*
X285817857Y-198790533D01*
X285570238Y-198790533D01*
X285446428Y-198852438D01*
X285384523Y-198914342D01*
X285322619Y-199038152D01*
D10*
D11*
X10000000Y-60000000D02*
X12000000Y-60000000D01*
D10*
D11*
X10000000Y-110000000D02*
X12000000Y-110000000D01*
D10*
D11*
X10000000Y-160000000D02*
X12000000Y-160000000D01*
D10*
D11*
X10690476Y-35216666D02*
X11309523Y-35216666D01*
X10566666Y-35588095D02*
X11000000Y-34288095D01*
X11433333Y-35588095D01*
D10*
D11*
X11092857Y-84907142D02*
X11278571Y-84969047D01*
X11340476Y-85030952D01*
X11402380Y-85154761D01*
X11402380Y-85340476D01*
X11340476Y-85464285D01*
X11278571Y-85526190D01*
X11154761Y-85588095D01*
X10659523Y-85588095D01*
X10659523Y-84288095D01*
X11092857Y-84288095D01*
X11216666Y-84350000D01*
X11278571Y-84411904D01*
X11340476Y-84535714D01*
X11340476Y-84659523D01*
X11278571Y-84783333D01*
X11216666Y-84845238D01*
X11092857Y-84907142D01*
X10659523Y-84907142D01*
D10*
D11*
X11402380Y-135464285D02*
X11340476Y-135526190D01*
X11154761Y-135588095D01*
X11030952Y-135588095D01*
X10845238Y-135526190D01*
X10721428Y-135402380D01*
X10659523Y-135278571D01*
X10597619Y-135030952D01*
X10597619Y-134845238D01*
X10659523Y-134597619D01*
X10721428Y-134473809D01*
X10845238Y-134350000D01*
X11030952Y-134288095D01*
X11154761Y-134288095D01*
X11340476Y-134350000D01*
X11402380Y-134411904D01*
D10*
D11*
X10659523Y-185588095D02*
X10659523Y-184288095D01*
X10969047Y-184288095D01*
X11154761Y-184350000D01*
X11278571Y-184473809D01*
X11340476Y-184597619D01*
X11402380Y-184845238D01*
X11402380Y-185030952D01*
X11340476Y-185278571D01*
X11278571Y-185402380D01*
X11154761Y-185526190D01*
X10969047Y-185588095D01*
X10659523Y-185588095D01*
D10*
D11*
X287002200Y-60000000D02*
X285002200Y-60000000D01*
D10*
D11*
X287002200Y-110000000D02*
X285002200Y-110000000D01*
D10*
D11*
X287002200Y-160000000D02*
X285002200Y-160000000D01*
D10*
D11*
X285692676Y-35216666D02*
X286311723Y-35216666D01*
X285568866Y-35588095D02*
X286002200Y-34288095D01*
X286435533Y-35588095D01*
D10*
D11*
X286095057Y-84907142D02*
X286280771Y-84969047D01*
X286342676Y-85030952D01*
X286404580Y-85154761D01*
X286404580Y-85340476D01*
X286342676Y-85464285D01*
X286280771Y-85526190D01*
X286156961Y-85588095D01*
X285661723Y-85588095D01*
X285661723Y-84288095D01*
X286095057Y-84288095D01*
X286218866Y-84350000D01*
X286280771Y-84411904D01*
X286342676Y-84535714D01*
X286342676Y-84659523D01*
X286280771Y-84783333D01*
X286218866Y-84845238D01*
X286095057Y-84907142D01*
X285661723Y-84907142D01*
D10*
D11*
X286404580Y-135464285D02*
X286342676Y-135526190D01*
X286156961Y-135588095D01*
X286033152Y-135588095D01*
X285847438Y-135526190D01*
X285723628Y-135402380D01*
X285661723Y-135278571D01*
X285599819Y-135030952D01*
X285599819Y-134845238D01*
X285661723Y-134597619D01*
X285723628Y-134473809D01*
X285847438Y-134350000D01*
X286033152Y-134288095D01*
X286156961Y-134288095D01*
X286342676Y-134350000D01*
X286404580Y-134411904D01*
D10*
D11*
X285661723Y-185588095D02*
X285661723Y-184288095D01*
X285971247Y-184288095D01*
X286156961Y-184350000D01*
X286280771Y-184473809D01*
X286342676Y-184597619D01*
X286404580Y-184845238D01*
X286404580Y-185030952D01*
X286342676Y-185278571D01*
X286280771Y-185402380D01*
X286156961Y-185526190D01*
X285971247Y-185588095D01*
X285661723Y-185588095D01*
D10*
D11*
X200434342Y-193785771D02*
X200434342Y-192285771D01*
X200791485Y-192285771D01*
X201005771Y-192357200D01*
X201148628Y-192500057D01*
X201220057Y-192642914D01*
X201291485Y-192928628D01*
X201291485Y-193142914D01*
X201220057Y-193428628D01*
X201148628Y-193571485D01*
X201005771Y-193714342D01*
X200791485Y-193785771D01*
X200434342Y-193785771D01*
X202577200Y-193785771D02*
X202577200Y-193000057D01*
X202505771Y-192857200D01*
X202362914Y-192785771D01*
X202077200Y-192785771D01*
X201934342Y-192857200D01*
X202577200Y-193714342D02*
X202434342Y-193785771D01*
X202077200Y-193785771D01*
X201934342Y-193714342D01*
X201862914Y-193571485D01*
X201862914Y-193428628D01*
X201934342Y-193285771D01*
X202077200Y-193214342D01*
X202434342Y-193214342D01*
X202577200Y-193142914D01*
X203077200Y-192785771D02*
X203648628Y-192785771D01*
X203291485Y-192285771D02*
X203291485Y-193571485D01*
X203362914Y-193714342D01*
X203505771Y-193785771D01*
X203648628Y-193785771D01*
X204720057Y-193714342D02*
X204577200Y-193785771D01*
X204291485Y-193785771D01*
X204148628Y-193714342D01*
X204077200Y-193571485D01*
X204077200Y-193000057D01*
X204148628Y-192857200D01*
X204291485Y-192785771D01*
X204577200Y-192785771D01*
X204720057Y-192857200D01*
X204791485Y-193000057D01*
X204791485Y-193142914D01*
X204077200Y-193285771D01*
X205434342Y-193642914D02*
X205505771Y-193714342D01*
X205434342Y-193785771D01*
X205362914Y-193714342D01*
X205434342Y-193642914D01*
X205434342Y-193785771D01*
X205434342Y-192857200D02*
X205505771Y-192928628D01*
X205434342Y-193000057D01*
X205362914Y-192928628D01*
X205434342Y-192857200D01*
X205434342Y-193000057D01*
D10*
D11*
X177002200Y-194507200D02*
X285002200Y-194507200D01*
D10*
D11*
X178434342Y-196585771D02*
X178434342Y-195085771D01*
X179291485Y-196585771D02*
X178648628Y-195728628D01*
X179291485Y-195085771D02*
X178434342Y-195942914D01*
X179934342Y-196585771D02*
X179934342Y-195585771D01*
X179934342Y-195085771D02*
X179862914Y-195157200D01*
X179934342Y-195228628D01*
X180005771Y-195157200D01*
X179934342Y-195085771D01*
X179934342Y-195228628D01*
X181505771Y-196442914D02*
X181434342Y-196514342D01*
X181220057Y-196585771D01*
X181077200Y-196585771D01*
X180862914Y-196514342D01*
X180720057Y-196371485D01*
X180648628Y-196228628D01*
X180577200Y-195942914D01*
X180577200Y-195728628D01*
X180648628Y-195442914D01*
X180720057Y-195300057D01*
X180862914Y-195157200D01*
X181077200Y-195085771D01*
X181220057Y-195085771D01*
X181434342Y-195157200D01*
X181505771Y-195228628D01*
X182791485Y-196585771D02*
X182791485Y-195800057D01*
X182720057Y-195657200D01*
X182577200Y-195585771D01*
X182291485Y-195585771D01*
X182148628Y-195657200D01*
X182791485Y-196514342D02*
X182648628Y-196585771D01*
X182291485Y-196585771D01*
X182148628Y-196514342D01*
X182077200Y-196371485D01*
X182077200Y-196228628D01*
X182148628Y-196085771D01*
X182291485Y-196014342D01*
X182648628Y-196014342D01*
X182791485Y-195942914D01*
X184148628Y-196585771D02*
X184148628Y-195085771D01*
X184148628Y-196514342D02*
X184005771Y-196585771D01*
X183720057Y-196585771D01*
X183577200Y-196514342D01*
X183505771Y-196442914D01*
X183434342Y-196300057D01*
X183434342Y-195871485D01*
X183505771Y-195728628D01*
X183577200Y-195657200D01*
X183720057Y-195585771D01*
X184005771Y-195585771D01*
X184148628Y-195657200D01*
X186005771Y-195800057D02*
X186505771Y-195800057D01*
X186720057Y-196585771D02*
X186005771Y-196585771D01*
X186005771Y-195085771D01*
X186720057Y-195085771D01*
X187362914Y-196442914D02*
X187434342Y-196514342D01*
X187362914Y-196585771D01*
X187291485Y-196514342D01*
X187362914Y-196442914D01*
X187362914Y-196585771D01*
X188077200Y-196585771D02*
X188077200Y-195085771D01*
X188434342Y-195085771D01*
X188648628Y-195157200D01*
X188791485Y-195300057D01*
X188862914Y-195442914D01*
X188934342Y-195728628D01*
X188934342Y-195942914D01*
X188862914Y-196228628D01*
X188791485Y-196371485D01*
X188648628Y-196514342D01*
X188434342Y-196585771D01*
X188077200Y-196585771D01*
X189577200Y-196442914D02*
X189648628Y-196514342D01*
X189577200Y-196585771D01*
X189505771Y-196514342D01*
X189577200Y-196442914D01*
X189577200Y-196585771D01*
X190220057Y-196157200D02*
X190934342Y-196157200D01*
X190077200Y-196585771D02*
X190577200Y-195085771D01*
X191077200Y-196585771D01*
X191577200Y-196442914D02*
X191648628Y-196514342D01*
X191577200Y-196585771D01*
X191505771Y-196514342D01*
X191577200Y-196442914D01*
X191577200Y-196585771D01*
X194577200Y-195585771D02*
X194577200Y-197085771D01*
X194577200Y-195657200D02*
X194720057Y-195585771D01*
X195005771Y-195585771D01*
X195148628Y-195657200D01*
X195220057Y-195728628D01*
X195291485Y-195871485D01*
X195291485Y-196300057D01*
X195220057Y-196442914D01*
X195148628Y-196514342D01*
X195005771Y-196585771D01*
X194720057Y-196585771D01*
X194577200Y-196514342D01*
X196577200Y-196514342D02*
X196434342Y-196585771D01*
X196148628Y-196585771D01*
X196005771Y-196514342D01*
X195934342Y-196442914D01*
X195862914Y-196300057D01*
X195862914Y-195871485D01*
X195934342Y-195728628D01*
X196005771Y-195657200D01*
X196148628Y-195585771D01*
X196434342Y-195585771D01*
X196577200Y-195657200D01*
X197220057Y-196585771D02*
X197220057Y-195085771D01*
X197220057Y-195657200D02*
X197362914Y-195585771D01*
X197648628Y-195585771D01*
X197791485Y-195657200D01*
X197862914Y-195728628D01*
X197934342Y-195871485D01*
X197934342Y-196300057D01*
X197862914Y-196442914D01*
X197791485Y-196514342D01*
X197648628Y-196585771D01*
X197362914Y-196585771D01*
X197220057Y-196514342D01*
X198577200Y-195585771D02*
X198577200Y-196585771D01*
X198577200Y-195728628D02*
X198648628Y-195657200D01*
X198791485Y-195585771D01*
X199005771Y-195585771D01*
X199148628Y-195657200D01*
X199220057Y-195800057D01*
X199220057Y-196585771D01*
X200505771Y-196514342D02*
X200362914Y-196585771D01*
X200077200Y-196585771D01*
X199934342Y-196514342D01*
X199862914Y-196371485D01*
X199862914Y-195800057D01*
X199934342Y-195657200D01*
X200077200Y-195585771D01*
X200362914Y-195585771D01*
X200505771Y-195657200D01*
X200577200Y-195800057D01*
X200577200Y-195942914D01*
X199862914Y-196085771D01*
X201077200Y-195585771D02*
X201362914Y-196585771D01*
X201648628Y-195871485D01*
X201934342Y-196585771D01*
X202220057Y-195585771D01*
X204362914Y-197157200D02*
X204291485Y-197085771D01*
X204148628Y-196871485D01*
X204077200Y-196728628D01*
X204005771Y-196514342D01*
X203934342Y-196157200D01*
X203934342Y-195871485D01*
X204005771Y-195514342D01*
X204077200Y-195300057D01*
X204148628Y-195157200D01*
X204291485Y-194942914D01*
X204362914Y-194871485D01*
X205648628Y-195085771D02*
X204934342Y-195085771D01*
X204862914Y-195800057D01*
X204934342Y-195728628D01*
X205077200Y-195657200D01*
X205434342Y-195657200D01*
X205577200Y-195728628D01*
X205648628Y-195800057D01*
X205720057Y-195942914D01*
X205720057Y-196300057D01*
X205648628Y-196442914D01*
X205577200Y-196514342D01*
X205434342Y-196585771D01*
X205077200Y-196585771D01*
X204934342Y-196514342D01*
X204862914Y-196442914D01*
X206362914Y-196442914D02*
X206434342Y-196514342D01*
X206362914Y-196585771D01*
X206291485Y-196514342D01*
X206362914Y-196442914D01*
X206362914Y-196585771D01*
X207862914Y-196585771D02*
X207005771Y-196585771D01*
X207434342Y-196585771D02*
X207434342Y-195085771D01*
X207291485Y-195300057D01*
X207148628Y-195442914D01*
X207005771Y-195514342D01*
X208505771Y-196442914D02*
X208577200Y-196514342D01*
X208505771Y-196585771D01*
X208434342Y-196514342D01*
X208505771Y-196442914D01*
X208505771Y-196585771D01*
X209505771Y-195085771D02*
X209648628Y-195085771D01*
X209791485Y-195157200D01*
X209862914Y-195228628D01*
X209934342Y-195371485D01*
X210005771Y-195657200D01*
X210005771Y-196014342D01*
X209934342Y-196300057D01*
X209862914Y-196442914D01*
X209791485Y-196514342D01*
X209648628Y-196585771D01*
X209505771Y-196585771D01*
X209362914Y-196514342D01*
X209291485Y-196442914D01*
X209220057Y-196300057D01*
X209148628Y-196014342D01*
X209148628Y-195657200D01*
X209220057Y-195371485D01*
X209291485Y-195228628D01*
X209362914Y-195157200D01*
X209505771Y-195085771D01*
X210505771Y-197157200D02*
X210577200Y-197085771D01*
X210720057Y-196871485D01*
X210791485Y-196728628D01*
X210862914Y-196514342D01*
X210934342Y-196157200D01*
X210934342Y-195871485D01*
X210862914Y-195514342D01*
X210791485Y-195300057D01*
X210720057Y-195157200D01*
X210577200Y-194942914D01*
X210505771Y-194871485D01*
X211648628Y-196014342D02*
X212791485Y-196014342D01*
X214291485Y-196585771D02*
X213434342Y-196585771D01*
X213862914Y-196585771D02*
X213862914Y-195085771D01*
X213720057Y-195300057D01*
X213577200Y-195442914D01*
X213434342Y-195514342D01*
D10*
D11*
X177002200Y-191507200D02*
X285002200Y-191507200D01*
D10*
D12*
X264411485Y-193785771D02*
X263911485Y-193071485D01*
X263554342Y-193785771D02*
X263554342Y-192285771D01*
X264125771Y-192285771D01*
X264268628Y-192357200D01*
X264340057Y-192428628D01*
X264411485Y-192571485D01*
X264411485Y-192785771D01*
X264340057Y-192928628D01*
X264268628Y-193000057D01*
X264125771Y-193071485D01*
X263554342Y-193071485D01*
X265625771Y-193714342D02*
X265482914Y-193785771D01*
X265197200Y-193785771D01*
X265054342Y-193714342D01*
X264982914Y-193571485D01*
X264982914Y-193000057D01*
X265054342Y-192857200D01*
X265197200Y-192785771D01*
X265482914Y-192785771D01*
X265625771Y-192857200D01*
X265697200Y-193000057D01*
X265697200Y-193142914D01*
X264982914Y-193285771D01*
X266197200Y-192785771D02*
X266554342Y-193785771D01*
X266911485Y-192785771D01*
X267482914Y-193642914D02*
X267554342Y-193714342D01*
X267482914Y-193785771D01*
X267411485Y-193714342D01*
X267482914Y-193642914D01*
X267482914Y-193785771D01*
X267482914Y-192857200D02*
X267554342Y-192928628D01*
X267482914Y-193000057D01*
X267411485Y-192928628D01*
X267482914Y-192857200D01*
X267482914Y-193000057D01*
D10*
D11*
X178362914Y-193714342D02*
X178577200Y-193785771D01*
X178934342Y-193785771D01*
X179077200Y-193714342D01*
X179148628Y-193642914D01*
X179220057Y-193500057D01*
X179220057Y-193357200D01*
X179148628Y-193214342D01*
X179077200Y-193142914D01*
X178934342Y-193071485D01*
X178648628Y-193000057D01*
X178505771Y-192928628D01*
X178434342Y-192857200D01*
X178362914Y-192714342D01*
X178362914Y-192571485D01*
X178434342Y-192428628D01*
X178505771Y-192357200D01*
X178648628Y-192285771D01*
X179005771Y-192285771D01*
X179220057Y-192357200D01*
X179862914Y-193785771D02*
X179862914Y-192785771D01*
X179862914Y-192285771D02*
X179791485Y-192357200D01*
X179862914Y-192428628D01*
X179934342Y-192357200D01*
X179862914Y-192285771D01*
X179862914Y-192428628D01*
X180434342Y-192785771D02*
X181220057Y-192785771D01*
X180434342Y-193785771D01*
X181220057Y-193785771D01*
X182362914Y-193714342D02*
X182220057Y-193785771D01*
X181934342Y-193785771D01*
X181791485Y-193714342D01*
X181720057Y-193571485D01*
X181720057Y-193000057D01*
X181791485Y-192857200D01*
X181934342Y-192785771D01*
X182220057Y-192785771D01*
X182362914Y-192857200D01*
X182434342Y-193000057D01*
X182434342Y-193142914D01*
X181720057Y-193285771D01*
X183077200Y-193642914D02*
X183148628Y-193714342D01*
X183077200Y-193785771D01*
X183005771Y-193714342D01*
X183077200Y-193642914D01*
X183077200Y-193785771D01*
X183077200Y-192857200D02*
X183148628Y-192928628D01*
X183077200Y-193000057D01*
X183005771Y-192928628D01*
X183077200Y-192857200D01*
X183077200Y-193000057D01*
X184862914Y-193357200D02*
X185577200Y-193357200D01*
X184720057Y-193785771D02*
X185220057Y-192285771D01*
X185720057Y-193785771D01*
X186862914Y-192785771D02*
X186862914Y-193785771D01*
X186505771Y-192214342D02*
X186148628Y-193285771D01*
X187077200Y-193285771D01*
D10*
D11*
X263434342Y-196585771D02*
X263434342Y-195085771D01*
X264791485Y-196585771D02*
X264791485Y-195085771D01*
X264791485Y-196514342D02*
X264648628Y-196585771D01*
X264362914Y-196585771D01*
X264220057Y-196514342D01*
X264148628Y-196442914D01*
X264077200Y-196300057D01*
X264077200Y-195871485D01*
X264148628Y-195728628D01*
X264220057Y-195657200D01*
X264362914Y-195585771D01*
X264648628Y-195585771D01*
X264791485Y-195657200D01*
X265505771Y-196442914D02*
X265577200Y-196514342D01*
X265505771Y-196585771D01*
X265434342Y-196514342D01*
X265505771Y-196442914D01*
X265505771Y-196585771D01*
X265505771Y-195657200D02*
X265577200Y-195728628D01*
X265505771Y-195800057D01*
X265434342Y-195728628D01*
X265505771Y-195657200D01*
X265505771Y-195800057D01*
X268148628Y-196585771D02*
X267291485Y-196585771D01*
X267720057Y-196585771D02*
X267720057Y-195085771D01*
X267577200Y-195300057D01*
X267434342Y-195442914D01*
X267291485Y-195514342D01*
X269862914Y-195014342D02*
X268577200Y-196942914D01*
X271148628Y-196585771D02*
X270291485Y-196585771D01*
X270720057Y-196585771D02*
X270720057Y-195085771D01*
X270577200Y-195300057D01*
X270434342Y-195442914D01*
X270291485Y-195514342D01*
D10*
D11*
X177002200Y-187507200D02*
X285002200Y-187507200D01*
D10*
D13*
X178714580Y-188211961D02*
X179857438Y-188211961D01*
X179036009Y-190211961D02*
X179286009Y-188211961D01*
X180274104Y-190211961D02*
X180440771Y-188878628D01*
X180524104Y-188211961D02*
X180416961Y-188307200D01*
X180500295Y-188402438D01*
X180607438Y-188307200D01*
X180524104Y-188211961D01*
X180500295Y-188402438D01*
X181107438Y-188878628D02*
X181869342Y-188878628D01*
X181476485Y-188211961D02*
X181262200Y-189926247D01*
X181333628Y-190116723D01*
X181512200Y-190211961D01*
X181702676Y-190211961D01*
X182655057Y-190211961D02*
X182476485Y-190116723D01*
X182405057Y-189926247D01*
X182619342Y-188211961D01*
X184190771Y-190116723D02*
X183988390Y-190211961D01*
X183607438Y-190211961D01*
X183428866Y-190116723D01*
X183357438Y-189926247D01*
X183452676Y-189164342D01*
X183571723Y-188973866D01*
X183774104Y-188878628D01*
X184155057Y-188878628D01*
X184333628Y-188973866D01*
X184405057Y-189164342D01*
X184381247Y-189354819D01*
X183405057Y-189545295D01*
X185155057Y-190021485D02*
X185238390Y-190116723D01*
X185131247Y-190211961D01*
X185047914Y-190116723D01*
X185155057Y-190021485D01*
X185131247Y-190211961D01*
X185286009Y-188973866D02*
X185369342Y-189069104D01*
X185262200Y-189164342D01*
X185178866Y-189069104D01*
X185286009Y-188973866D01*
X185262200Y-189164342D01*
D10*
D11*
X178934342Y-185600057D02*
X178434342Y-185600057D01*
X178434342Y-186385771D02*
X178434342Y-184885771D01*
X179148628Y-184885771D01*
X179720057Y-186385771D02*
X179720057Y-185385771D01*
X179720057Y-184885771D02*
X179648628Y-184957200D01*
X179720057Y-185028628D01*
X179791485Y-184957200D01*
X179720057Y-184885771D01*
X179720057Y-185028628D01*
X180648628Y-186385771D02*
X180505771Y-186314342D01*
X180434342Y-186171485D01*
X180434342Y-184885771D01*
X181791485Y-186314342D02*
X181648628Y-186385771D01*
X181362914Y-186385771D01*
X181220057Y-186314342D01*
X181148628Y-186171485D01*
X181148628Y-185600057D01*
X181220057Y-185457200D01*
X181362914Y-185385771D01*
X181648628Y-185385771D01*
X181791485Y-185457200D01*
X181862914Y-185600057D01*
X181862914Y-185742914D01*
X181148628Y-185885771D01*
X182505771Y-186242914D02*
X182577200Y-186314342D01*
X182505771Y-186385771D01*
X182434342Y-186314342D01*
X182505771Y-186242914D01*
X182505771Y-186385771D01*
X182505771Y-185457200D02*
X182577200Y-185528628D01*
X182505771Y-185600057D01*
X182434342Y-185528628D01*
X182505771Y-185457200D01*
X182505771Y-185600057D01*
X185220057Y-186242914D02*
X185148628Y-186314342D01*
X184934342Y-186385771D01*
X184791485Y-186385771D01*
X184577200Y-186314342D01*
X184434342Y-186171485D01*
X184362914Y-186028628D01*
X184291485Y-185742914D01*
X184291485Y-185528628D01*
X184362914Y-185242914D01*
X184434342Y-185100057D01*
X184577200Y-184957200D01*
X184791485Y-184885771D01*
X184934342Y-184885771D01*
X185148628Y-184957200D01*
X185220057Y-185028628D01*
X186505771Y-186385771D02*
X186505771Y-185600057D01*
X186434342Y-185457200D01*
X186291485Y-185385771D01*
X186005771Y-185385771D01*
X185862914Y-185457200D01*
X186505771Y-186314342D02*
X186362914Y-186385771D01*
X186005771Y-186385771D01*
X185862914Y-186314342D01*
X185791485Y-186171485D01*
X185791485Y-186028628D01*
X185862914Y-185885771D01*
X186005771Y-185814342D01*
X186362914Y-185814342D01*
X186505771Y-185742914D01*
X187220057Y-186385771D02*
X187220057Y-185385771D01*
X187220057Y-185671485D02*
X187291485Y-185528628D01*
X187362914Y-185457200D01*
X187505771Y-185385771D01*
X187648628Y-185385771D01*
X187934342Y-185385771D02*
X188505771Y-185385771D01*
X188148628Y-184885771D02*
X188148628Y-186171485D01*
X188220057Y-186314342D01*
X188362914Y-186385771D01*
X188505771Y-186385771D01*
X189577200Y-186314342D02*
X189434342Y-186385771D01*
X189148628Y-186385771D01*
X189005771Y-186314342D01*
X188934342Y-186171485D01*
X188934342Y-185600057D01*
X189005771Y-185457200D01*
X189148628Y-185385771D01*
X189434342Y-185385771D01*
X189577200Y-185457200D01*
X189648628Y-185600057D01*
X189648628Y-185742914D01*
X188934342Y-185885771D01*
X190220057Y-185957200D02*
X190934342Y-185957200D01*
X190077200Y-186385771D02*
X190577200Y-184885771D01*
X191077200Y-186385771D01*
X191791485Y-186385771D02*
X191648628Y-186314342D01*
X191577200Y-186171485D01*
X191577200Y-184885771D01*
X192362914Y-186385771D02*
X192362914Y-185385771D01*
X192362914Y-184885771D02*
X192291485Y-184957200D01*
X192362914Y-185028628D01*
X192434342Y-184957200D01*
X192362914Y-184885771D01*
X192362914Y-185028628D01*
X193077200Y-186385771D02*
X193077200Y-185385771D01*
X193077200Y-185528628D02*
X193148628Y-185457200D01*
X193291485Y-185385771D01*
X193505771Y-185385771D01*
X193648628Y-185457200D01*
X193720057Y-185600057D01*
X193720057Y-186385771D01*
X193720057Y-185600057D02*
X193791485Y-185457200D01*
X193934342Y-185385771D01*
X194148628Y-185385771D01*
X194291485Y-185457200D01*
X194362914Y-185600057D01*
X194362914Y-186385771D01*
X195934342Y-186385771D02*
X195434342Y-185671485D01*
X195077200Y-186385771D02*
X195077200Y-184885771D01*
X195648628Y-184885771D01*
X195791485Y-184957200D01*
X195862914Y-185028628D01*
X195934342Y-185171485D01*
X195934342Y-185385771D01*
X195862914Y-185528628D01*
X195791485Y-185600057D01*
X195648628Y-185671485D01*
X195077200Y-185671485D01*
X196791485Y-186385771D02*
X196648628Y-186314342D01*
X196577200Y-186242914D01*
X196505771Y-186100057D01*
X196505771Y-185671485D01*
X196577200Y-185528628D01*
X196648628Y-185457200D01*
X196791485Y-185385771D01*
X197005771Y-185385771D01*
X197148628Y-185457200D01*
X197220057Y-185528628D01*
X197291485Y-185671485D01*
X197291485Y-186100057D01*
X197220057Y-186242914D01*
X197148628Y-186314342D01*
X197005771Y-186385771D01*
X196791485Y-186385771D01*
X197934342Y-186385771D02*
X197934342Y-184885771D01*
X197934342Y-185457200D02*
X198077200Y-185385771D01*
X198362914Y-185385771D01*
X198505771Y-185457200D01*
X198577200Y-185528628D01*
X198648628Y-185671485D01*
X198648628Y-186100057D01*
X198577200Y-186242914D01*
X198505771Y-186314342D01*
X198362914Y-186385771D01*
X198077200Y-186385771D01*
X197934342Y-186314342D01*
X199505771Y-186385771D02*
X199362914Y-186314342D01*
X199291485Y-186242914D01*
X199220057Y-186100057D01*
X199220057Y-185671485D01*
X199291485Y-185528628D01*
X199362914Y-185457200D01*
X199505771Y-185385771D01*
X199720057Y-185385771D01*
X199862914Y-185457200D01*
X199934342Y-185528628D01*
X200005771Y-185671485D01*
X200005771Y-186100057D01*
X199934342Y-186242914D01*
X199862914Y-186314342D01*
X199720057Y-186385771D01*
X199505771Y-186385771D01*
X200434342Y-185385771D02*
X201005771Y-185385771D01*
X200648628Y-184885771D02*
X200648628Y-186171485D01*
X200720057Y-186314342D01*
X200862914Y-186385771D01*
X201005771Y-186385771D01*
X201505771Y-186242914D02*
X201577200Y-186314342D01*
X201505771Y-186385771D01*
X201434342Y-186314342D01*
X201505771Y-186242914D01*
X201505771Y-186385771D01*
X202220057Y-186385771D02*
X202220057Y-184885771D01*
X202362914Y-185814342D02*
X202791485Y-186385771D01*
X202791485Y-185385771D02*
X202220057Y-185957200D01*
X203434342Y-186385771D02*
X203434342Y-185385771D01*
X203434342Y-184885771D02*
X203362914Y-184957200D01*
X203434342Y-185028628D01*
X203505771Y-184957200D01*
X203434342Y-184885771D01*
X203434342Y-185028628D01*
X204791485Y-186314342D02*
X204648628Y-186385771D01*
X204362914Y-186385771D01*
X204220057Y-186314342D01*
X204148628Y-186242914D01*
X204077200Y-186100057D01*
X204077200Y-185671485D01*
X204148628Y-185528628D01*
X204220057Y-185457200D01*
X204362914Y-185385771D01*
X204648628Y-185385771D01*
X204791485Y-185457200D01*
X206077200Y-186385771D02*
X206077200Y-185600057D01*
X206005771Y-185457200D01*
X205862914Y-185385771D01*
X205577200Y-185385771D01*
X205434342Y-185457200D01*
X206077200Y-186314342D02*
X205934342Y-186385771D01*
X205577200Y-186385771D01*
X205434342Y-186314342D01*
X205362914Y-186171485D01*
X205362914Y-186028628D01*
X205434342Y-185885771D01*
X205577200Y-185814342D01*
X205934342Y-185814342D01*
X206077200Y-185742914D01*
X207434342Y-186385771D02*
X207434342Y-184885771D01*
X207434342Y-186314342D02*
X207291485Y-186385771D01*
X207005771Y-186385771D01*
X206862914Y-186314342D01*
X206791485Y-186242914D01*
X206720057Y-186100057D01*
X206720057Y-185671485D01*
X206791485Y-185528628D01*
X206862914Y-185457200D01*
X207005771Y-185385771D01*
X207291485Y-185385771D01*
X207434342Y-185457200D01*
X207791485Y-186528628D02*
X208934342Y-186528628D01*
X209291485Y-185385771D02*
X209291485Y-186885771D01*
X209291485Y-185457200D02*
X209434342Y-185385771D01*
X209720057Y-185385771D01*
X209862914Y-185457200D01*
X209934342Y-185528628D01*
X210005771Y-185671485D01*
X210005771Y-186100057D01*
X209934342Y-186242914D01*
X209862914Y-186314342D01*
X209720057Y-186385771D01*
X209434342Y-186385771D01*
X209291485Y-186314342D01*
X211291485Y-186314342D02*
X211148628Y-186385771D01*
X210862914Y-186385771D01*
X210720057Y-186314342D01*
X210648628Y-186242914D01*
X210577200Y-186100057D01*
X210577200Y-185671485D01*
X210648628Y-185528628D01*
X210720057Y-185457200D01*
X210862914Y-185385771D01*
X211148628Y-185385771D01*
X211291485Y-185457200D01*
X211934342Y-186385771D02*
X211934342Y-184885771D01*
X211934342Y-185457200D02*
X212077200Y-185385771D01*
X212362914Y-185385771D01*
X212505771Y-185457200D01*
X212577200Y-185528628D01*
X212648628Y-185671485D01*
X212648628Y-186100057D01*
X212577200Y-186242914D01*
X212505771Y-186314342D01*
X212362914Y-186385771D01*
X212077200Y-186385771D01*
X211934342Y-186314342D01*
D10*
D11*
X177002200Y-181507200D02*
X285002200Y-181507200D01*
D10*
D11*
X178362914Y-183614342D02*
X178577200Y-183685771D01*
X178934342Y-183685771D01*
X179077200Y-183614342D01*
X179148628Y-183542914D01*
X179220057Y-183400057D01*
X179220057Y-183257200D01*
X179148628Y-183114342D01*
X179077200Y-183042914D01*
X178934342Y-182971485D01*
X178648628Y-182900057D01*
X178505771Y-182828628D01*
X178434342Y-182757200D01*
X178362914Y-182614342D01*
X178362914Y-182471485D01*
X178434342Y-182328628D01*
X178505771Y-182257200D01*
X178648628Y-182185771D01*
X179005771Y-182185771D01*
X179220057Y-182257200D01*
X179862914Y-183685771D02*
X179862914Y-182185771D01*
X180505771Y-183685771D02*
X180505771Y-182900057D01*
X180434342Y-182757200D01*
X180291485Y-182685771D01*
X180077200Y-182685771D01*
X179934342Y-182757200D01*
X179862914Y-182828628D01*
X181791485Y-183614342D02*
X181648628Y-183685771D01*
X181362914Y-183685771D01*
X181220057Y-183614342D01*
X181148628Y-183471485D01*
X181148628Y-182900057D01*
X181220057Y-182757200D01*
X181362914Y-182685771D01*
X181648628Y-182685771D01*
X181791485Y-182757200D01*
X181862914Y-182900057D01*
X181862914Y-183042914D01*
X181148628Y-183185771D01*
X183077200Y-183614342D02*
X182934342Y-183685771D01*
X182648628Y-183685771D01*
X182505771Y-183614342D01*
X182434342Y-183471485D01*
X182434342Y-182900057D01*
X182505771Y-182757200D01*
X182648628Y-182685771D01*
X182934342Y-182685771D01*
X183077200Y-182757200D01*
X183148628Y-182900057D01*
X183148628Y-183042914D01*
X182434342Y-183185771D01*
X183577200Y-182685771D02*
X184148628Y-182685771D01*
X183791485Y-182185771D02*
X183791485Y-183471485D01*
X183862914Y-183614342D01*
X184005771Y-183685771D01*
X184148628Y-183685771D01*
X184648628Y-183542914D02*
X184720057Y-183614342D01*
X184648628Y-183685771D01*
X184577200Y-183614342D01*
X184648628Y-183542914D01*
X184648628Y-183685771D01*
X184648628Y-182757200D02*
X184720057Y-182828628D01*
X184648628Y-182900057D01*
X184577200Y-182828628D01*
X184648628Y-182757200D01*
X184648628Y-182900057D01*
D10*
D11*
X197002200Y-191507200D02*
X197002200Y-194507200D01*
D10*
D11*
X261002200Y-191507200D02*
X261002200Y-198007200D01*
D14*
X68500000Y-116500000D02*
X68500000Y-109000000D01*
X85500000Y-116500000D02*
X68500000Y-116500000D01*
X85500000Y-109000000D02*
X85500000Y-116500000D01*
X68500000Y-109000000D02*
X85500000Y-109000000D01*
D11*
X73357142Y-114452380D02*
X73690476Y-115452380D01*
X74023809Y-114452380D01*
X75738095Y-114976190D02*
X75690476Y-114928571D01*
X75595238Y-114880952D01*
X75500000Y-114880952D01*
X75404761Y-114928571D01*
X75357142Y-114976190D01*
X75309523Y-115071428D01*
X75309523Y-115166666D01*
X75357142Y-115261904D01*
X75404761Y-115309523D01*
X75500000Y-115357142D01*
X75595238Y-115357142D01*
X75690476Y-115309523D01*
X75738095Y-115261904D01*
X75738095Y-114880952D02*
X75738095Y-115261904D01*
X75785714Y-115309523D01*
X75833333Y-115309523D01*
X75928571Y-115261904D01*
X75976190Y-115166666D01*
X75976190Y-114928571D01*
X75880952Y-114785714D01*
X75738095Y-114690476D01*
X75547619Y-114642857D01*
X75357142Y-114690476D01*
X75214285Y-114785714D01*
X75119047Y-114928571D01*
X75071428Y-115119047D01*
X75119047Y-115309523D01*
X75214285Y-115452380D01*
X75357142Y-115547619D01*
X75547619Y-115595238D01*
X75738095Y-115547619D01*
X75880952Y-115452380D01*
X77166666Y-114928571D02*
X77500000Y-114928571D01*
X77642857Y-115452380D02*
X77166666Y-115452380D01*
X77166666Y-114452380D01*
X77642857Y-114452380D01*
X78071428Y-115452380D02*
X78071428Y-114452380D01*
X78642857Y-115452380D01*
X78642857Y-114452380D01*
X79071428Y-115166666D02*
X79547619Y-115166666D01*
X78976190Y-115452380D02*
X79309523Y-114452380D01*
X79642857Y-115452380D01*
X80547619Y-115357142D02*
X80500000Y-115404761D01*
X80357142Y-115452380D01*
X80261904Y-115452380D01*
X80119047Y-115404761D01*
X80023809Y-115309523D01*
X79976190Y-115214285D01*
X79928571Y-115023809D01*
X79928571Y-114880952D01*
X79976190Y-114690476D01*
X80023809Y-114595238D01*
X80119047Y-114500000D01*
X80261904Y-114452380D01*
X80357142Y-114452380D01*
X80500000Y-114500000D01*
X80547619Y-114547619D01*
X66404761Y-104166666D02*
X66880952Y-104166666D01*
X66309523Y-104452380D02*
X66642857Y-103452380D01*
X66976190Y-104452380D01*
X67309523Y-104452380D02*
X67309523Y-103785714D01*
X67309523Y-103976190D02*
X67357142Y-103880952D01*
X67404761Y-103833333D01*
X67500000Y-103785714D01*
X67595238Y-103785714D01*
X67928571Y-104452380D02*
X67928571Y-103785714D01*
X67928571Y-103976190D02*
X67976190Y-103880952D01*
X68023809Y-103833333D01*
X68119047Y-103785714D01*
X68214285Y-103785714D01*
X68928571Y-104404761D02*
X68833333Y-104452380D01*
X68642857Y-104452380D01*
X68547619Y-104404761D01*
X68500000Y-104309523D01*
X68500000Y-103928571D01*
X68547619Y-103833333D01*
X68642857Y-103785714D01*
X68833333Y-103785714D01*
X68928571Y-103833333D01*
X68976190Y-103928571D01*
X68976190Y-104023809D01*
X68500000Y-104119047D01*
X68547619Y-103547619D02*
X68738095Y-103404761D01*
X68928571Y-103547619D01*
X69261904Y-103785714D02*
X69642857Y-103785714D01*
X69404761Y-103452380D02*
X69404761Y-104309523D01*
X69452380Y-104404761D01*
X69547619Y-104452380D01*
X69642857Y-104452380D01*
X71166666Y-104452380D02*
X71166666Y-103452380D01*
X71166666Y-104404761D02*
X71071428Y-104452380D01*
X70880952Y-104452380D01*
X70785714Y-104404761D01*
X70738095Y-104357142D01*
X70690476Y-104261904D01*
X70690476Y-103976190D01*
X70738095Y-103880952D01*
X70785714Y-103833333D01*
X70880952Y-103785714D01*
X71071428Y-103785714D01*
X71166666Y-103833333D01*
X71690476Y-103452380D02*
X71595238Y-103642857D01*
X72547619Y-103785714D02*
X72547619Y-104452380D01*
X72119047Y-103785714D02*
X72119047Y-104309523D01*
X72166666Y-104404761D01*
X72261904Y-104452380D01*
X72404761Y-104452380D01*
X72500000Y-104404761D01*
X72547619Y-104357142D01*
X73023809Y-104452380D02*
X73023809Y-103785714D01*
X73023809Y-103976190D02*
X73071428Y-103880952D01*
X73119047Y-103833333D01*
X73214285Y-103785714D01*
X73309523Y-103785714D01*
X74071428Y-103785714D02*
X74071428Y-104595238D01*
X74023809Y-104690476D01*
X73976190Y-104738095D01*
X73880952Y-104785714D01*
X73738095Y-104785714D01*
X73642857Y-104738095D01*
X74071428Y-104404761D02*
X73976190Y-104452380D01*
X73785714Y-104452380D01*
X73690476Y-104404761D01*
X73642857Y-104357142D01*
X73595238Y-104261904D01*
X73595238Y-103976190D01*
X73642857Y-103880952D01*
X73690476Y-103833333D01*
X73785714Y-103785714D01*
X73976190Y-103785714D01*
X74071428Y-103833333D01*
X74928571Y-104404761D02*
X74833333Y-104452380D01*
X74642857Y-104452380D01*
X74547619Y-104404761D01*
X74500000Y-104309523D01*
X74500000Y-103928571D01*
X74547619Y-103833333D01*
X74642857Y-103785714D01*
X74833333Y-103785714D01*
X74928571Y-103833333D01*
X74976190Y-103928571D01*
X74976190Y-104023809D01*
X74500000Y-104119047D01*
X75404761Y-103785714D02*
X75404761Y-104452380D01*
X75404761Y-103880952D02*
X75452380Y-103833333D01*
X75547619Y-103785714D01*
X75690476Y-103785714D01*
X75785714Y-103833333D01*
X75833333Y-103928571D01*
X75833333Y-104452380D01*
X76738095Y-104404761D02*
X76642857Y-104452380D01*
X76452380Y-104452380D01*
X76357142Y-104404761D01*
X76309523Y-104357142D01*
X76261904Y-104261904D01*
X76261904Y-103976190D01*
X76309523Y-103880952D01*
X76357142Y-103833333D01*
X76452380Y-103785714D01*
X76642857Y-103785714D01*
X76738095Y-103833333D01*
X77547619Y-104404761D02*
X77452380Y-104452380D01*
X77261904Y-104452380D01*
X77166666Y-104404761D01*
X77119047Y-104309523D01*
X77119047Y-103928571D01*
X77166666Y-103833333D01*
X77261904Y-103785714D01*
X77452380Y-103785714D01*
X77547619Y-103833333D01*
X77595238Y-103928571D01*
X77595238Y-104023809D01*
X77119047Y-104119047D01*
X80000000Y-99761904D02*
X79952380Y-99857142D01*
X79952380Y-100000000D01*
X80000000Y-100142857D01*
X80095238Y-100238095D01*
X80190476Y-100285714D01*
X80380952Y-100333333D01*
X80523809Y-100333333D01*
X80714285Y-100285714D01*
X80809523Y-100238095D01*
X80904761Y-100142857D01*
X80952380Y-100000000D01*
X80952380Y-99904761D01*
X80904761Y-99761904D01*
X80857142Y-99714285D01*
X80523809Y-99714285D01*
X80523809Y-99904761D01*
X80952380Y-99285714D02*
X79952380Y-99285714D01*
X80952380Y-98714285D01*
X79952380Y-98714285D01*
X80952380Y-98238095D02*
X79952380Y-98238095D01*
X79952380Y-98000000D01*
X80000000Y-97857142D01*
X80095238Y-97761904D01*
X80190476Y-97714285D01*
X80380952Y-97666666D01*
X80523809Y-97666666D01*
X80714285Y-97714285D01*
X80809523Y-97761904D01*
X80904761Y-97857142D01*
X80952380Y-98000000D01*
X80952380Y-98238095D01*
X93500000Y-99761904D02*
X93452380Y-99857142D01*
X93452380Y-100000000D01*
X93500000Y-100142857D01*
X93595238Y-100238095D01*
X93690476Y-100285714D01*
X93880952Y-100333333D01*
X94023809Y-100333333D01*
X94214285Y-100285714D01*
X94309523Y-100238095D01*
X94404761Y-100142857D01*
X94452380Y-100000000D01*
X94452380Y-99904761D01*
X94404761Y-99761904D01*
X94357142Y-99714285D01*
X94023809Y-99714285D01*
X94023809Y-99904761D01*
X94452380Y-99285714D02*
X93452380Y-99285714D01*
X94452380Y-98714285D01*
X93452380Y-98714285D01*
X94452380Y-98238095D02*
X93452380Y-98238095D01*
X93452380Y-98000000D01*
X93500000Y-97857142D01*
X93595238Y-97761904D01*
X93690476Y-97714285D01*
X93880952Y-97666666D01*
X94023809Y-97666666D01*
X94214285Y-97714285D01*
X94309523Y-97761904D01*
X94404761Y-97857142D01*
X94452380Y-98000000D01*
X94452380Y-98238095D01*
X101238095Y-120000000D02*
X101142857Y-119952380D01*
X101000000Y-119952380D01*
X100857142Y-120000000D01*
X100761904Y-120095238D01*
X100714285Y-120190476D01*
X100666666Y-120380952D01*
X100666666Y-120523809D01*
X100714285Y-120714285D01*
X100761904Y-120809523D01*
X100857142Y-120904761D01*
X101000000Y-120952380D01*
X101095238Y-120952380D01*
X101238095Y-120904761D01*
X101285714Y-120857142D01*
X101285714Y-120523809D01*
X101095238Y-120523809D01*
X101714285Y-120952380D02*
X101714285Y-119952380D01*
X102285714Y-120952380D01*
X102285714Y-119952380D01*
X102761904Y-120952380D02*
X102761904Y-119952380D01*
X103000000Y-119952380D01*
X103142857Y-120000000D01*
X103238095Y-120095238D01*
X103285714Y-120190476D01*
X103333333Y-120380952D01*
X103333333Y-120523809D01*
X103285714Y-120714285D01*
X103238095Y-120809523D01*
X103142857Y-120904761D01*
X103000000Y-120952380D01*
X102761904Y-120952380D01*
X106000000Y-137261904D02*
X105952380Y-137357142D01*
X105952380Y-137500000D01*
X106000000Y-137642857D01*
X106095238Y-137738095D01*
X106190476Y-137785714D01*
X106380952Y-137833333D01*
X106523809Y-137833333D01*
X106714285Y-137785714D01*
X106809523Y-137738095D01*
X106904761Y-137642857D01*
X106952380Y-137500000D01*
X106952380Y-137404761D01*
X106904761Y-137261904D01*
X106857142Y-137214285D01*
X106523809Y-137214285D01*
X106523809Y-137404761D01*
X106952380Y-136785714D02*
X105952380Y-136785714D01*
X106952380Y-136214285D01*
X105952380Y-136214285D01*
X106952380Y-135738095D02*
X105952380Y-135738095D01*
X105952380Y-135500000D01*
X106000000Y-135357142D01*
X106095238Y-135261904D01*
X106190476Y-135214285D01*
X106380952Y-135166666D01*
X106523809Y-135166666D01*
X106714285Y-135214285D01*
X106809523Y-135261904D01*
X106904761Y-135357142D01*
X106952380Y-135500000D01*
X106952380Y-135738095D01*
X91000000Y-140261904D02*
X90952380Y-140357142D01*
X90952380Y-140500000D01*
X91000000Y-140642857D01*
X91095238Y-140738095D01*
X91190476Y-140785714D01*
X91380952Y-140833333D01*
X91523809Y-140833333D01*
X91714285Y-140785714D01*
X91809523Y-140738095D01*
X91904761Y-140642857D01*
X91952380Y-140500000D01*
X91952380Y-140404761D01*
X91904761Y-140261904D01*
X91857142Y-140214285D01*
X91523809Y-140214285D01*
X91523809Y-140404761D01*
X91952380Y-139785714D02*
X90952380Y-139785714D01*
X91952380Y-139214285D01*
X90952380Y-139214285D01*
X91952380Y-138738095D02*
X90952380Y-138738095D01*
X90952380Y-138500000D01*
X91000000Y-138357142D01*
X91095238Y-138261904D01*
X91190476Y-138214285D01*
X91380952Y-138166666D01*
X91523809Y-138166666D01*
X91714285Y-138214285D01*
X91809523Y-138261904D01*
X91904761Y-138357142D01*
X91952380Y-138500000D01*
X91952380Y-138738095D01*
X77000000Y-139761904D02*
X76952380Y-139857142D01*
X76952380Y-140000000D01*
X77000000Y-140142857D01*
X77095238Y-140238095D01*
X77190476Y-140285714D01*
X77380952Y-140333333D01*
X77523809Y-140333333D01*
X77714285Y-140285714D01*
X77809523Y-140238095D01*
X77904761Y-140142857D01*
X77952380Y-140000000D01*
X77952380Y-139904761D01*
X77904761Y-139761904D01*
X77857142Y-139714285D01*
X77523809Y-139714285D01*
X77523809Y-139904761D01*
X77952380Y-139285714D02*
X76952380Y-139285714D01*
X77952380Y-138714285D01*
X76952380Y-138714285D01*
X77952380Y-138238095D02*
X76952380Y-138238095D01*
X76952380Y-138000000D01*
X77000000Y-137857142D01*
X77095238Y-137761904D01*
X77190476Y-137714285D01*
X77380952Y-137666666D01*
X77523809Y-137666666D01*
X77714285Y-137714285D01*
X77809523Y-137761904D01*
X77904761Y-137857142D01*
X77952380Y-138000000D01*
X77952380Y-138238095D01*
X92952380Y-99619047D02*
X92952380Y-100190476D01*
X92952380Y-99904761D02*
X91952380Y-99904761D01*
X92095238Y-100000000D01*
X92190476Y-100095238D01*
X92238095Y-100190476D01*
X92047619Y-99238095D02*
X92000000Y-99190476D01*
X91952380Y-99095238D01*
X91952380Y-98857142D01*
X92000000Y-98761904D01*
X92047619Y-98714285D01*
X92142857Y-98666666D01*
X92238095Y-98666666D01*
X92380952Y-98714285D01*
X92952380Y-99285714D01*
X92952380Y-98666666D01*
X91952380Y-98380952D02*
X92952380Y-98047619D01*
X91952380Y-97714285D01*
X102380952Y-104452380D02*
X101809523Y-104452380D01*
X102095238Y-104452380D02*
X102095238Y-103452380D01*
X102000000Y-103595238D01*
X101904761Y-103690476D01*
X101809523Y-103738095D01*
X102761904Y-103547619D02*
X102809523Y-103500000D01*
X102904761Y-103452380D01*
X103142857Y-103452380D01*
X103238095Y-103500000D01*
X103285714Y-103547619D01*
X103333333Y-103642857D01*
X103333333Y-103738095D01*
X103285714Y-103880952D01*
X102714285Y-104452380D01*
X103333333Y-104452380D01*
X103619047Y-103452380D02*
X103952380Y-104452380D01*
X104285714Y-103452380D01*
X101380952Y-133452380D02*
X100809523Y-133452380D01*
X101095238Y-133452380D02*
X101095238Y-132452380D01*
X101000000Y-132595238D01*
X100904761Y-132690476D01*
X100809523Y-132738095D01*
X101761904Y-132547619D02*
X101809523Y-132500000D01*
X101904761Y-132452380D01*
X102142857Y-132452380D01*
X102238095Y-132500000D01*
X102285714Y-132547619D01*
X102333333Y-132642857D01*
X102333333Y-132738095D01*
X102285714Y-132880952D01*
X101714285Y-133452380D01*
X102333333Y-133452380D01*
X102619047Y-132452380D02*
X102952380Y-133452380D01*
X103285714Y-132452380D01*
X94452380Y-140119047D02*
X94452380Y-140690476D01*
X94452380Y-140404761D02*
X93452380Y-140404761D01*
X93595238Y-140500000D01*
X93690476Y-140595238D01*
X93738095Y-140690476D01*
X93547619Y-139738095D02*
X93500000Y-139690476D01*
X93452380Y-139595238D01*
X93452380Y-139357142D01*
X93500000Y-139261904D01*
X93547619Y-139214285D01*
X93642857Y-139166666D01*
X93738095Y-139166666D01*
X93880952Y-139214285D01*
X94452380Y-139785714D01*
X94452380Y-139166666D01*
X93452380Y-138880952D02*
X94452380Y-138547619D01*
X93452380Y-138214285D01*
X79952380Y-139619047D02*
X79952380Y-140190476D01*
X79952380Y-139904761D02*
X78952380Y-139904761D01*
X79095238Y-140000000D01*
X79190476Y-140095238D01*
X79238095Y-140190476D01*
X79047619Y-139238095D02*
X79000000Y-139190476D01*
X78952380Y-139095238D01*
X78952380Y-138857142D01*
X79000000Y-138761904D01*
X79047619Y-138714285D01*
X79142857Y-138666666D01*
X79238095Y-138666666D01*
X79380952Y-138714285D01*
X79952380Y-139285714D01*
X79952380Y-138666666D01*
X78952380Y-138380952D02*
X79952380Y-138047619D01*
X78952380Y-137714285D01*
X65452380Y-140619047D02*
X65452380Y-141190476D01*
X65452380Y-140904761D02*
X64452380Y-140904761D01*
X64595238Y-141000000D01*
X64690476Y-141095238D01*
X64738095Y-141190476D01*
X64547619Y-140238095D02*
X64500000Y-140190476D01*
X64452380Y-140095238D01*
X64452380Y-139857142D01*
X64500000Y-139761904D01*
X64547619Y-139714285D01*
X64642857Y-139666666D01*
X64738095Y-139666666D01*
X64880952Y-139714285D01*
X65452380Y-140285714D01*
X65452380Y-139666666D01*
X64452380Y-139380952D02*
X65452380Y-139047619D01*
X64452380Y-138714285D01*
X59238095Y-131928571D02*
X59380952Y-131976190D01*
X59428571Y-132023809D01*
X59476190Y-132119047D01*
X59476190Y-132261904D01*
X59428571Y-132357142D01*
X59380952Y-132404761D01*
X59285714Y-132452380D01*
X58904761Y-132452380D01*
X58904761Y-131452380D01*
X59238095Y-131452380D01*
X59333333Y-131500000D01*
X59380952Y-131547619D01*
X59428571Y-131642857D01*
X59428571Y-131738095D01*
X59380952Y-131833333D01*
X59333333Y-131880952D01*
X59238095Y-131928571D01*
X58904761Y-131928571D01*
X60333333Y-132452380D02*
X60333333Y-131928571D01*
X60285714Y-131833333D01*
X60190476Y-131785714D01*
X60000000Y-131785714D01*
X59904761Y-131833333D01*
X60333333Y-132404761D02*
X60238095Y-132452380D01*
X60000000Y-132452380D01*
X59904761Y-132404761D01*
X59857142Y-132309523D01*
X59857142Y-132214285D01*
X59904761Y-132119047D01*
X60000000Y-132071428D01*
X60238095Y-132071428D01*
X60333333Y-132023809D01*
X60666666Y-131785714D02*
X61047619Y-131785714D01*
X60809523Y-131452380D02*
X60809523Y-132309523D01*
X60857142Y-132404761D01*
X60952380Y-132452380D01*
X61047619Y-132452380D01*
X61238095Y-131785714D02*
X61619047Y-131785714D01*
X61380952Y-131452380D02*
X61380952Y-132309523D01*
X61428571Y-132404761D01*
X61523809Y-132452380D01*
X61619047Y-132452380D01*
X62333333Y-132404761D02*
X62238095Y-132452380D01*
X62047619Y-132452380D01*
X61952380Y-132404761D01*
X61904761Y-132309523D01*
X61904761Y-131928571D01*
X61952380Y-131833333D01*
X62047619Y-131785714D01*
X62238095Y-131785714D01*
X62333333Y-131833333D01*
X62380952Y-131928571D01*
X62380952Y-132023809D01*
X61904761Y-132119047D01*
X62809523Y-132452380D02*
X62809523Y-131785714D01*
X62809523Y-131976190D02*
X62857142Y-131880952D01*
X62904761Y-131833333D01*
X63000000Y-131785714D01*
X63095238Y-131785714D01*
X63428571Y-132452380D02*
X63428571Y-131785714D01*
X63428571Y-131452380D02*
X63380952Y-131500000D01*
X63428571Y-131547619D01*
X63476190Y-131500000D01*
X63428571Y-131452380D01*
X63428571Y-131547619D01*
X64285714Y-132404761D02*
X64190476Y-132452380D01*
X64000000Y-132452380D01*
X63904761Y-132404761D01*
X63857142Y-132309523D01*
X63857142Y-131928571D01*
X63904761Y-131833333D01*
X64000000Y-131785714D01*
X64190476Y-131785714D01*
X64285714Y-131833333D01*
X64333333Y-131928571D01*
X64333333Y-132023809D01*
X63857142Y-132119047D01*
X66047619Y-131500000D02*
X65952380Y-131452380D01*
X65809523Y-131452380D01*
X65666666Y-131500000D01*
X65571428Y-131595238D01*
X65523809Y-131690476D01*
X65476190Y-131880952D01*
X65476190Y-132023809D01*
X65523809Y-132214285D01*
X65571428Y-132309523D01*
X65666666Y-132404761D01*
X65809523Y-132452380D01*
X65904761Y-132452380D01*
X66047619Y-132404761D01*
X66095238Y-132357142D01*
X66095238Y-132023809D01*
X65904761Y-132023809D01*
X66523809Y-132452380D02*
X66523809Y-131452380D01*
X67095238Y-132452380D01*
X67095238Y-131452380D01*
X67571428Y-132452380D02*
X67571428Y-131452380D01*
X67809523Y-131452380D01*
X67952380Y-131500000D01*
X68047619Y-131595238D01*
X68095238Y-131690476D01*
X68142857Y-131880952D01*
X68142857Y-132023809D01*
X68095238Y-132214285D01*
X68047619Y-132309523D01*
X67952380Y-132404761D01*
X67809523Y-132452380D01*
X67571428Y-132452380D01*
D12*
X74678571Y-110760714D02*
X74607142Y-110832142D01*
X74392857Y-110903571D01*
X74250000Y-110903571D01*
X74035714Y-110832142D01*
X73892857Y-110689285D01*
X73821428Y-110546428D01*
X73750000Y-110260714D01*
X73750000Y-110046428D01*
X73821428Y-109760714D01*
X73892857Y-109617857D01*
X74035714Y-109475000D01*
X74250000Y-109403571D01*
X74392857Y-109403571D01*
X74607142Y-109475000D01*
X74678571Y-109546428D01*
X75964285Y-110903571D02*
X75964285Y-110117857D01*
X75892857Y-109975000D01*
X75750000Y-109903571D01*
X75464285Y-109903571D01*
X75321428Y-109975000D01*
X75964285Y-110832142D02*
X75821428Y-110903571D01*
X75464285Y-110903571D01*
X75321428Y-110832142D01*
X75250000Y-110689285D01*
X75250000Y-110546428D01*
X75321428Y-110403571D01*
X75464285Y-110332142D01*
X75821428Y-110332142D01*
X75964285Y-110260714D01*
X76678571Y-110903571D02*
X76678571Y-109903571D01*
X76678571Y-110189285D02*
X76750000Y-110046428D01*
X76821428Y-109975000D01*
X76964285Y-109903571D01*
X77107142Y-109903571D01*
X77392857Y-109903571D02*
X77964285Y-109903571D01*
X77607142Y-109403571D02*
X77607142Y-110689285D01*
X77678571Y-110832142D01*
X77821428Y-110903571D01*
X77964285Y-110903571D01*
X79035714Y-110832142D02*
X78892857Y-110903571D01*
X78607142Y-110903571D01*
X78464285Y-110832142D01*
X78392857Y-110689285D01*
X78392857Y-110117857D01*
X78464285Y-109975000D01*
X78607142Y-109903571D01*
X78892857Y-109903571D01*
X79035714Y-109975000D01*
X79107142Y-110117857D01*
X79107142Y-110260714D01*
X78392857Y-110403571D01*
X69964285Y-113453571D02*
X69964285Y-111953571D01*
X69964285Y-113382142D02*
X69821428Y-113453571D01*
X69535714Y-113453571D01*
X69392857Y-113382142D01*
X69321428Y-113310714D01*
X69250000Y-113167857D01*
X69250000Y-112739285D01*
X69321428Y-112596428D01*
X69392857Y-112525000D01*
X69535714Y-112453571D01*
X69821428Y-112453571D01*
X69964285Y-112525000D01*
X70750000Y-111953571D02*
X70607142Y-112239285D01*
X72035714Y-113453571D02*
X72035714Y-112667857D01*
X71964285Y-112525000D01*
X71821428Y-112453571D01*
X71535714Y-112453571D01*
X71392857Y-112525000D01*
X72035714Y-113382142D02*
X71892857Y-113453571D01*
X71535714Y-113453571D01*
X71392857Y-113382142D01*
X71321428Y-113239285D01*
X71321428Y-113096428D01*
X71392857Y-112953571D01*
X71535714Y-112882142D01*
X71892857Y-112882142D01*
X72035714Y-112810714D01*
X72964285Y-113453571D02*
X72821428Y-113382142D01*
X72750000Y-113239285D01*
X72750000Y-111953571D01*
X73535714Y-113453571D02*
X73535714Y-112453571D01*
X73535714Y-111953571D02*
X73464285Y-112025000D01*
X73535714Y-112096428D01*
X73607142Y-112025000D01*
X73535714Y-111953571D01*
X73535714Y-112096428D01*
X74250000Y-113453571D02*
X74250000Y-112453571D01*
X74250000Y-112596428D02*
X74321428Y-112525000D01*
X74464285Y-112453571D01*
X74678571Y-112453571D01*
X74821428Y-112525000D01*
X74892857Y-112667857D01*
X74892857Y-113453571D01*
X74892857Y-112667857D02*
X74964285Y-112525000D01*
X75107142Y-112453571D01*
X75321428Y-112453571D01*
X75464285Y-112525000D01*
X75535714Y-112667857D01*
X75535714Y-113453571D01*
X76821428Y-113382142D02*
X76678571Y-113453571D01*
X76392857Y-113453571D01*
X76250000Y-113382142D01*
X76178571Y-113239285D01*
X76178571Y-112667857D01*
X76250000Y-112525000D01*
X76392857Y-112453571D01*
X76678571Y-112453571D01*
X76821428Y-112525000D01*
X76892857Y-112667857D01*
X76892857Y-112810714D01*
X76178571Y-112953571D01*
X77535714Y-112453571D02*
X77535714Y-113453571D01*
X77535714Y-112596428D02*
X77607142Y-112525000D01*
X77750000Y-112453571D01*
X77964285Y-112453571D01*
X78107142Y-112525000D01*
X78178571Y-112667857D01*
X78178571Y-113453571D01*
X78678571Y-112453571D02*
X79250000Y-112453571D01*
X78892857Y-111953571D02*
X78892857Y-113239285D01*
X78964285Y-113382142D01*
X79107142Y-113453571D01*
X79250000Y-113453571D01*
X80392857Y-113453571D02*
X80392857Y-112667857D01*
X80321428Y-112525000D01*
X80178571Y-112453571D01*
X79892857Y-112453571D01*
X79750000Y-112525000D01*
X80392857Y-113382142D02*
X80250000Y-113453571D01*
X79892857Y-113453571D01*
X79750000Y-113382142D01*
X79678571Y-113239285D01*
X79678571Y-113096428D01*
X79750000Y-112953571D01*
X79892857Y-112882142D01*
X80250000Y-112882142D01*
X80392857Y-112810714D01*
X80892857Y-112453571D02*
X81464285Y-112453571D01*
X81107142Y-111953571D02*
X81107142Y-113239285D01*
X81178571Y-113382142D01*
X81321428Y-113453571D01*
X81464285Y-113453571D01*
X81964285Y-113453571D02*
X81964285Y-112453571D01*
X81964285Y-111953571D02*
X81892857Y-112025000D01*
X81964285Y-112096428D01*
X82035714Y-112025000D01*
X81964285Y-111953571D01*
X81964285Y-112096428D01*
X82892857Y-113453571D02*
X82750000Y-113382142D01*
X82678571Y-113310714D01*
X82607142Y-113167857D01*
X82607142Y-112739285D01*
X82678571Y-112596428D01*
X82750000Y-112525000D01*
X82892857Y-112453571D01*
X83107142Y-112453571D01*
X83250000Y-112525000D01*
X83321428Y-112596428D01*
X83392857Y-112739285D01*
X83392857Y-113167857D01*
X83321428Y-113310714D01*
X83250000Y-113382142D01*
X83107142Y-113453571D01*
X82892857Y-113453571D01*
X84035714Y-112453571D02*
X84035714Y-113453571D01*
X84035714Y-112596428D02*
X84107142Y-112525000D01*
X84250000Y-112453571D01*
X84464285Y-112453571D01*
X84607142Y-112525000D01*
X84678571Y-112667857D01*
X84678571Y-113453571D01*
D11*
X58761904Y-119428571D02*
X58904761Y-119476190D01*
X58952380Y-119523809D01*
X59000000Y-119619047D01*
X59000000Y-119761904D01*
X58952380Y-119857142D01*
X58904761Y-119904761D01*
X58809523Y-119952380D01*
X58428571Y-119952380D01*
X58428571Y-118952380D01*
X58761904Y-118952380D01*
X58857142Y-119000000D01*
X58904761Y-119047619D01*
X58952380Y-119142857D01*
X58952380Y-119238095D01*
X58904761Y-119333333D01*
X58857142Y-119380952D01*
X58761904Y-119428571D01*
X58428571Y-119428571D01*
X59857142Y-119952380D02*
X59857142Y-119428571D01*
X59809523Y-119333333D01*
X59714285Y-119285714D01*
X59523809Y-119285714D01*
X59428571Y-119333333D01*
X59857142Y-119904761D02*
X59761904Y-119952380D01*
X59523809Y-119952380D01*
X59428571Y-119904761D01*
X59380952Y-119809523D01*
X59380952Y-119714285D01*
X59428571Y-119619047D01*
X59523809Y-119571428D01*
X59761904Y-119571428D01*
X59857142Y-119523809D01*
X60190476Y-119285714D02*
X60571428Y-119285714D01*
X60333333Y-118952380D02*
X60333333Y-119809523D01*
X60380952Y-119904761D01*
X60476190Y-119952380D01*
X60571428Y-119952380D01*
X60761904Y-119285714D02*
X61142857Y-119285714D01*
X60904761Y-118952380D02*
X60904761Y-119809523D01*
X60952380Y-119904761D01*
X61047619Y-119952380D01*
X61142857Y-119952380D01*
X61857142Y-119904761D02*
X61761904Y-119952380D01*
X61571428Y-119952380D01*
X61476190Y-119904761D01*
X61428571Y-119809523D01*
X61428571Y-119428571D01*
X61476190Y-119333333D01*
X61571428Y-119285714D01*
X61761904Y-119285714D01*
X61857142Y-119333333D01*
X61904761Y-119428571D01*
X61904761Y-119523809D01*
X61428571Y-119619047D01*
X62333333Y-119952380D02*
X62333333Y-119285714D01*
X62333333Y-119476190D02*
X62380952Y-119380952D01*
X62428571Y-119333333D01*
X62523809Y-119285714D01*
X62619047Y-119285714D01*
X62952380Y-119952380D02*
X62952380Y-119285714D01*
X62952380Y-118952380D02*
X62904761Y-119000000D01*
X62952380Y-119047619D01*
X63000000Y-119000000D01*
X62952380Y-118952380D01*
X62952380Y-119047619D01*
X63809523Y-119904761D02*
X63714285Y-119952380D01*
X63523809Y-119952380D01*
X63428571Y-119904761D01*
X63380952Y-119809523D01*
X63380952Y-119428571D01*
X63428571Y-119333333D01*
X63523809Y-119285714D01*
X63714285Y-119285714D01*
X63809523Y-119333333D01*
X63857142Y-119428571D01*
X63857142Y-119523809D01*
X63380952Y-119619047D01*
X64809523Y-119952380D02*
X64238095Y-119952380D01*
X64523809Y-119952380D02*
X64523809Y-118952380D01*
X64428571Y-119095238D01*
X64333333Y-119190476D01*
X64238095Y-119238095D01*
X65190476Y-119047619D02*
X65238095Y-119000000D01*
X65333333Y-118952380D01*
X65571428Y-118952380D01*
X65666666Y-119000000D01*
X65714285Y-119047619D01*
X65761904Y-119142857D01*
X65761904Y-119238095D01*
X65714285Y-119380952D01*
X65142857Y-119952380D01*
X65761904Y-119952380D01*
X66047619Y-118952380D02*
X66380952Y-119952380D01*
X66714285Y-118952380D01*
D14*
X83150000Y-121250000D02*
X83150000Y-122500000D01*
X84400000Y-121250000D02*
X83150000Y-121250000D01*
X95300000Y-126750000D02*
X89750000Y-126750000D01*
X95300000Y-123800000D02*
X95300000Y-126750000D01*
X96050000Y-123800000D02*
X95300000Y-123800000D01*
X89750000Y-126750000D02*
X85260000Y-126750000D01*
X84200000Y-123800000D02*
X84200000Y-125140000D01*
X83450000Y-123800000D02*
X84200000Y-123800000D01*
X96050000Y-121550000D02*
X94250000Y-121550000D01*
X96050000Y-122300000D02*
X96050000Y-121550000D01*
X94250000Y-122300000D02*
X96050000Y-122300000D01*
X94250000Y-121550000D02*
X94250000Y-122300000D01*
X85250000Y-121550000D02*
X83450000Y-121550000D01*
X85250000Y-122300000D02*
X85250000Y-121550000D01*
X83450000Y-122300000D02*
X85250000Y-122300000D01*
X83450000Y-121550000D02*
X83450000Y-122300000D01*
X92750000Y-121550000D02*
X86750000Y-121550000D01*
X92750000Y-122300000D02*
X92750000Y-121550000D01*
X86750000Y-122300000D02*
X92750000Y-122300000D01*
X86750000Y-121550000D02*
X86750000Y-122300000D01*
X96060000Y-121540000D02*
X83440000Y-121540000D01*
X96060000Y-127510000D02*
X96060000Y-121540000D01*
X83440000Y-127510000D02*
X96060000Y-127510000D01*
X83440000Y-121540000D02*
X83440000Y-127510000D01*
X66450000Y-117250000D02*
X66450000Y-114920000D01*
X64000000Y-117250000D02*
X66450000Y-117250000D01*
X66120000Y-104980000D02*
X66120000Y-116920000D01*
X58270000Y-104980000D02*
X66120000Y-104980000D01*
X58270000Y-116920000D02*
X58270000Y-104980000D01*
X66120000Y-116920000D02*
X58270000Y-116920000D01*
X81380000Y-96460000D02*
X91540000Y-96460000D01*
X81380000Y-95190000D02*
X81380000Y-102810000D01*
X81380000Y-102810000D02*
X91540000Y-102810000D01*
X91540000Y-102810000D02*
X91540000Y-95190000D01*
X91540000Y-95190000D02*
X81380000Y-95190000D01*
X71420000Y-122730000D02*
X81660000Y-122730000D01*
X71420000Y-127371000D02*
X81660000Y-127371000D01*
X71420000Y-122730000D02*
X71420000Y-127371000D01*
X81660000Y-122730000D02*
X81660000Y-127371000D01*
X71420000Y-124240000D02*
X81660000Y-124240000D01*
X74690000Y-122730000D02*
X74690000Y-124240000D01*
X78391000Y-122730000D02*
X78391000Y-124240000D01*
X86440000Y-109540000D02*
X86440000Y-115510000D01*
X86440000Y-115510000D02*
X96560000Y-115510000D01*
X96560000Y-115510000D02*
X96560000Y-109540000D01*
X96560000Y-109540000D02*
X86440000Y-109540000D01*
X89750000Y-109550000D02*
X89750000Y-110300000D01*
X89750000Y-110300000D02*
X93250000Y-110300000D01*
X93250000Y-110300000D02*
X93250000Y-109550000D01*
X93250000Y-109550000D02*
X89750000Y-109550000D01*
X86450000Y-109550000D02*
X86450000Y-110300000D01*
X86450000Y-110300000D02*
X88250000Y-110300000D01*
X88250000Y-110300000D02*
X88250000Y-109550000D01*
X88250000Y-109550000D02*
X86450000Y-109550000D01*
X94750000Y-109550000D02*
X94750000Y-110300000D01*
X94750000Y-110300000D02*
X96550000Y-110300000D01*
X96550000Y-110300000D02*
X96550000Y-109550000D01*
X96550000Y-109550000D02*
X94750000Y-109550000D01*
X86450000Y-111800000D02*
X87200000Y-111800000D01*
X87200000Y-111800000D02*
X87200000Y-113140000D01*
X91500000Y-114750000D02*
X88260000Y-114750000D01*
X96550000Y-111800000D02*
X95800000Y-111800000D01*
X95800000Y-111800000D02*
X95800000Y-114750000D01*
X95800000Y-114750000D02*
X91500000Y-114750000D01*
X87400000Y-109250000D02*
X86150000Y-109250000D01*
X86150000Y-109250000D02*
X86150000Y-110500000D01*
X90261252Y-120735000D02*
X89738748Y-120735000D01*
X90261252Y-119265000D02*
X89738748Y-119265000D01*
X76540000Y-95190000D02*
X66380000Y-95190000D01*
X76540000Y-102810000D02*
X76540000Y-95190000D01*
X66380000Y-102810000D02*
X76540000Y-102810000D01*
X66380000Y-95190000D02*
X66380000Y-102810000D01*
X66380000Y-96460000D02*
X76540000Y-96460000D01*
X59960000Y-130620000D02*
X59960000Y-120460000D01*
X58690000Y-130620000D02*
X66310000Y-130620000D01*
X66310000Y-130620000D02*
X66310000Y-120460000D01*
X66310000Y-120460000D02*
X58690000Y-120460000D01*
X58690000Y-120460000D02*
X58690000Y-130620000D01*
X94880000Y-96460000D02*
X105040000Y-96460000D01*
X94880000Y-95190000D02*
X94880000Y-102810000D01*
X94880000Y-102810000D02*
X105040000Y-102810000D01*
X105040000Y-102810000D02*
X105040000Y-95190000D01*
X105040000Y-95190000D02*
X94880000Y-95190000D01*
X94960000Y-143310000D02*
X105120000Y-143310000D01*
X94960000Y-135690000D02*
X94960000Y-143310000D01*
X105120000Y-135690000D02*
X94960000Y-135690000D01*
X105120000Y-143310000D02*
X105120000Y-135690000D01*
X105120000Y-142040000D02*
X94960000Y-142040000D01*
X76200000Y-142240000D02*
X66040000Y-142240000D01*
X76200000Y-143510000D02*
X76200000Y-135890000D01*
X76200000Y-135890000D02*
X66040000Y-135890000D01*
X66040000Y-135890000D02*
X66040000Y-143510000D01*
X66040000Y-143510000D02*
X76200000Y-143510000D01*
X105810000Y-131540000D02*
X105810000Y-121380000D01*
X98190000Y-131540000D02*
X105810000Y-131540000D01*
X98190000Y-121380000D02*
X98190000Y-131540000D01*
X105810000Y-121380000D02*
X98190000Y-121380000D01*
X104540000Y-121380000D02*
X104540000Y-131540000D01*
X80460000Y-143510000D02*
X90620000Y-143510000D01*
X80460000Y-135890000D02*
X80460000Y-143510000D01*
X90620000Y-135890000D02*
X80460000Y-135890000D01*
X90620000Y-143510000D02*
X90620000Y-135890000D01*
X90620000Y-142240000D02*
X80460000Y-142240000D01*
X99735000Y-113772936D02*
X99735000Y-114227064D01*
X98265000Y-113772936D02*
X98265000Y-114227064D01*
X83265000Y-118772936D02*
X83265000Y-119227064D01*
X84735000Y-118772936D02*
X84735000Y-119227064D01*
D11*
X88940476Y-119902380D02*
X88940476Y-120616666D01*
X88892857Y-120759523D01*
X88797619Y-120854761D01*
X88654761Y-120902380D01*
X88559523Y-120902380D01*
X89940476Y-120902380D02*
X89369047Y-120902380D01*
X89654761Y-120902380D02*
X89654761Y-119902380D01*
X89559523Y-120045238D01*
X89464285Y-120140476D01*
X89369047Y-120188095D01*
X90559523Y-119902380D02*
X90654761Y-119902380D01*
X90750000Y-119950000D01*
X90797619Y-119997619D01*
X90845238Y-120092857D01*
X90892857Y-120283333D01*
X90892857Y-120521428D01*
X90845238Y-120711904D01*
X90797619Y-120807142D01*
X90750000Y-120854761D01*
X90654761Y-120902380D01*
X90559523Y-120902380D01*
X90464285Y-120854761D01*
X90416666Y-120807142D01*
X90369047Y-120711904D01*
X90321428Y-120521428D01*
X90321428Y-120283333D01*
X90369047Y-120092857D01*
X90416666Y-119997619D01*
X90464285Y-119950000D01*
X90559523Y-119902380D01*
X60452380Y-115261904D02*
X61261904Y-115261904D01*
X61357142Y-115214285D01*
X61404761Y-115166666D01*
X61452380Y-115071428D01*
X61452380Y-114880952D01*
X61404761Y-114785714D01*
X61357142Y-114738095D01*
X61261904Y-114690476D01*
X60452380Y-114690476D01*
X61452380Y-113690476D02*
X61452380Y-114261904D01*
X61452380Y-113976190D02*
X60452380Y-113976190D01*
X60595238Y-114071428D01*
X60690476Y-114166666D01*
X60738095Y-114261904D01*
X76444761Y-122277619D02*
X76349523Y-122230000D01*
X76254285Y-122134761D01*
X76111428Y-121991904D01*
X76016190Y-121944285D01*
X75920952Y-121944285D01*
X75968571Y-122182380D02*
X75873333Y-122134761D01*
X75778095Y-122039523D01*
X75730476Y-121849047D01*
X75730476Y-121515714D01*
X75778095Y-121325238D01*
X75873333Y-121230000D01*
X75968571Y-121182380D01*
X76159047Y-121182380D01*
X76254285Y-121230000D01*
X76349523Y-121325238D01*
X76397142Y-121515714D01*
X76397142Y-121849047D01*
X76349523Y-122039523D01*
X76254285Y-122134761D01*
X76159047Y-122182380D01*
X75968571Y-122182380D01*
X77349523Y-122182380D02*
X76778095Y-122182380D01*
X77063809Y-122182380D02*
X77063809Y-121182380D01*
X76968571Y-121325238D01*
X76873333Y-121420476D01*
X76778095Y-121468095D01*
X91166666Y-107902380D02*
X91166666Y-108616666D01*
X91119047Y-108759523D01*
X91023809Y-108854761D01*
X90880952Y-108902380D01*
X90785714Y-108902380D01*
X91690476Y-108902380D02*
X91880952Y-108902380D01*
X91976190Y-108854761D01*
X92023809Y-108807142D01*
X92119047Y-108664285D01*
X92166666Y-108473809D01*
X92166666Y-108092857D01*
X92119047Y-107997619D01*
X92071428Y-107950000D01*
X91976190Y-107902380D01*
X91785714Y-107902380D01*
X91690476Y-107950000D01*
X91642857Y-107997619D01*
X91595238Y-108092857D01*
X91595238Y-108330952D01*
X91642857Y-108426190D01*
X91690476Y-108473809D01*
X91785714Y-108521428D01*
X91976190Y-108521428D01*
X92071428Y-108473809D01*
X92119047Y-108426190D01*
X92166666Y-108330952D01*
X92833333Y-120357142D02*
X92785714Y-120404761D01*
X92642857Y-120452380D01*
X92547619Y-120452380D01*
X92404761Y-120404761D01*
X92309523Y-120309523D01*
X92261904Y-120214285D01*
X92214285Y-120023809D01*
X92214285Y-119880952D01*
X92261904Y-119690476D01*
X92309523Y-119595238D01*
X92404761Y-119500000D01*
X92547619Y-119452380D01*
X92642857Y-119452380D01*
X92785714Y-119500000D01*
X92833333Y-119547619D01*
X93214285Y-119547619D02*
X93261904Y-119500000D01*
X93357142Y-119452380D01*
X93595238Y-119452380D01*
X93690476Y-119500000D01*
X93738095Y-119547619D01*
X93785714Y-119642857D01*
X93785714Y-119738095D01*
X93738095Y-119880952D01*
X93166666Y-120452380D01*
X93785714Y-120452380D01*
X101102380Y-114166666D02*
X100626190Y-114500000D01*
X101102380Y-114738095D02*
X100102380Y-114738095D01*
X100102380Y-114357142D01*
X100150000Y-114261904D01*
X100197619Y-114214285D01*
X100292857Y-114166666D01*
X100435714Y-114166666D01*
X100530952Y-114214285D01*
X100578571Y-114261904D01*
X100626190Y-114357142D01*
X100626190Y-114738095D01*
X101102380Y-113214285D02*
X101102380Y-113785714D01*
X101102380Y-113500000D02*
X100102380Y-113500000D01*
X100245238Y-113595238D01*
X100340476Y-113690476D01*
X100388095Y-113785714D01*
X86102380Y-119166666D02*
X85626190Y-119500000D01*
X86102380Y-119738095D02*
X85102380Y-119738095D01*
X85102380Y-119357142D01*
X85150000Y-119261904D01*
X85197619Y-119214285D01*
X85292857Y-119166666D01*
X85435714Y-119166666D01*
X85530952Y-119214285D01*
X85578571Y-119261904D01*
X85626190Y-119357142D01*
X85626190Y-119738095D01*
X85197619Y-118785714D02*
X85150000Y-118738095D01*
X85102380Y-118642857D01*
X85102380Y-118404761D01*
X85150000Y-118309523D01*
X85197619Y-118261904D01*
X85292857Y-118214285D01*
X85388095Y-118214285D01*
X85530952Y-118261904D01*
X86102380Y-118833333D01*
X86102380Y-118214285D01*
%LPC*%
D10*
G36*
X86624504Y-123026204D02*
G01*
X86648773Y-123029804D01*
X86672571Y-123035765D01*
X86695671Y-123044030D01*
X86717849Y-123054520D01*
X86738893Y-123067133D01*
X86758598Y-123081747D01*
X86776777Y-123098223D01*
X86793253Y-123116402D01*
X86807867Y-123136107D01*
X86820480Y-123157151D01*
X86830970Y-123179329D01*
X86839235Y-123202429D01*
X86845196Y-123226227D01*
X86848796Y-123250496D01*
X86850000Y-123275000D01*
X86850000Y-124725000D01*
X86848796Y-124749504D01*
X86845196Y-124773773D01*
X86839235Y-124797571D01*
X86830970Y-124820671D01*
X86820480Y-124842849D01*
X86807867Y-124863893D01*
X86793253Y-124883598D01*
X86776777Y-124901777D01*
X86758598Y-124918253D01*
X86738893Y-124932867D01*
X86717849Y-124945480D01*
X86695671Y-124955970D01*
X86672571Y-124964235D01*
X86648773Y-124970196D01*
X86624504Y-124973796D01*
X86600000Y-124975000D01*
X85400000Y-124975000D01*
X85375496Y-124973796D01*
X85351227Y-124970196D01*
X85327429Y-124964235D01*
X85304329Y-124955970D01*
X85282151Y-124945480D01*
X85261107Y-124932867D01*
X85241402Y-124918253D01*
X85223223Y-124901777D01*
X85206747Y-124883598D01*
X85192133Y-124863893D01*
X85179520Y-124842849D01*
X85169030Y-124820671D01*
X85160765Y-124797571D01*
X85154804Y-124773773D01*
X85151204Y-124749504D01*
X85150000Y-124725000D01*
X85150000Y-123275000D01*
X85151204Y-123250496D01*
X85154804Y-123226227D01*
X85160765Y-123202429D01*
X85169030Y-123179329D01*
X85179520Y-123157151D01*
X85192133Y-123136107D01*
X85206747Y-123116402D01*
X85223223Y-123098223D01*
X85241402Y-123081747D01*
X85261107Y-123067133D01*
X85282151Y-123054520D01*
X85304329Y-123044030D01*
X85327429Y-123035765D01*
X85351227Y-123029804D01*
X85375496Y-123026204D01*
X85400000Y-123025000D01*
X86600000Y-123025000D01*
X86624504Y-123026204D01*
X86624504Y-123026204D01*
G37*
D15*
X86000000Y-124000000D03*
D16*
X88500000Y-124000000D03*
X91000000Y-124000000D03*
X93500000Y-124000000D03*
D17*
X84400000Y-126000000D03*
D18*
X61500000Y-98500000D03*
D19*
X64000000Y-113500000D03*
D20*
X64000000Y-110960000D03*
X64000000Y-108420000D03*
D21*
X89000000Y-99000000D03*
D22*
X83920000Y-99000000D03*
D23*
X74000000Y-126000000D03*
D24*
X76540000Y-126000000D03*
X79080000Y-126000000D03*
D18*
X61500000Y-140500000D03*
D10*
G36*
X89624504Y-111026204D02*
G01*
X89648773Y-111029804D01*
X89672571Y-111035765D01*
X89695671Y-111044030D01*
X89717849Y-111054520D01*
X89738893Y-111067133D01*
X89758598Y-111081747D01*
X89776777Y-111098223D01*
X89793253Y-111116402D01*
X89807867Y-111136107D01*
X89820480Y-111157151D01*
X89830970Y-111179329D01*
X89839235Y-111202429D01*
X89845196Y-111226227D01*
X89848796Y-111250496D01*
X89850000Y-111275000D01*
X89850000Y-112725000D01*
X89848796Y-112749504D01*
X89845196Y-112773773D01*
X89839235Y-112797571D01*
X89830970Y-112820671D01*
X89820480Y-112842849D01*
X89807867Y-112863893D01*
X89793253Y-112883598D01*
X89776777Y-112901777D01*
X89758598Y-112918253D01*
X89738893Y-112932867D01*
X89717849Y-112945480D01*
X89695671Y-112955970D01*
X89672571Y-112964235D01*
X89648773Y-112970196D01*
X89624504Y-112973796D01*
X89600000Y-112975000D01*
X88400000Y-112975000D01*
X88375496Y-112973796D01*
X88351227Y-112970196D01*
X88327429Y-112964235D01*
X88304329Y-112955970D01*
X88282151Y-112945480D01*
X88261107Y-112932867D01*
X88241402Y-112918253D01*
X88223223Y-112901777D01*
X88206747Y-112883598D01*
X88192133Y-112863893D01*
X88179520Y-112842849D01*
X88169030Y-112820671D01*
X88160765Y-112797571D01*
X88154804Y-112773773D01*
X88151204Y-112749504D01*
X88150000Y-112725000D01*
X88150000Y-111275000D01*
X88151204Y-111250496D01*
X88154804Y-111226227D01*
X88160765Y-111202429D01*
X88169030Y-111179329D01*
X88179520Y-111157151D01*
X88192133Y-111136107D01*
X88206747Y-111116402D01*
X88223223Y-111098223D01*
X88241402Y-111081747D01*
X88261107Y-111067133D01*
X88282151Y-111054520D01*
X88304329Y-111044030D01*
X88327429Y-111035765D01*
X88351227Y-111029804D01*
X88375496Y-111026204D01*
X88400000Y-111025000D01*
X89600000Y-111025000D01*
X89624504Y-111026204D01*
X89624504Y-111026204D01*
G37*
D15*
X89000000Y-112000000D03*
D16*
X91500000Y-112000000D03*
X94000000Y-112000000D03*
D17*
X87400000Y-114000000D03*
D18*
X109000000Y-98000000D03*
X109000000Y-140500000D03*
D10*
G36*
X91224504Y-119276204D02*
G01*
X91248773Y-119279804D01*
X91272571Y-119285765D01*
X91295671Y-119294030D01*
X91317849Y-119304520D01*
X91338893Y-119317133D01*
X91358598Y-119331747D01*
X91376777Y-119348223D01*
X91393253Y-119366402D01*
X91407867Y-119386107D01*
X91420480Y-119407151D01*
X91430970Y-119429329D01*
X91439235Y-119452429D01*
X91445196Y-119476227D01*
X91448796Y-119500496D01*
X91450000Y-119525000D01*
X91450000Y-120475000D01*
X91448796Y-120499504D01*
X91445196Y-120523773D01*
X91439235Y-120547571D01*
X91430970Y-120570671D01*
X91420480Y-120592849D01*
X91407867Y-120613893D01*
X91393253Y-120633598D01*
X91376777Y-120651777D01*
X91358598Y-120668253D01*
X91338893Y-120682867D01*
X91317849Y-120695480D01*
X91295671Y-120705970D01*
X91272571Y-120714235D01*
X91248773Y-120720196D01*
X91224504Y-120723796D01*
X91200000Y-120725000D01*
X90700000Y-120725000D01*
X90675496Y-120723796D01*
X90651227Y-120720196D01*
X90627429Y-120714235D01*
X90604329Y-120705970D01*
X90582151Y-120695480D01*
X90561107Y-120682867D01*
X90541402Y-120668253D01*
X90523223Y-120651777D01*
X90506747Y-120633598D01*
X90492133Y-120613893D01*
X90479520Y-120592849D01*
X90469030Y-120570671D01*
X90460765Y-120547571D01*
X90454804Y-120523773D01*
X90451204Y-120499504D01*
X90450000Y-120475000D01*
X90450000Y-119525000D01*
X90451204Y-119500496D01*
X90454804Y-119476227D01*
X90460765Y-119452429D01*
X90469030Y-119429329D01*
X90479520Y-119407151D01*
X90492133Y-119386107D01*
X90506747Y-119366402D01*
X90523223Y-119348223D01*
X90541402Y-119331747D01*
X90561107Y-119317133D01*
X90582151Y-119304520D01*
X90604329Y-119294030D01*
X90627429Y-119285765D01*
X90651227Y-119279804D01*
X90675496Y-119276204D01*
X90700000Y-119275000D01*
X91200000Y-119275000D01*
X91224504Y-119276204D01*
X91224504Y-119276204D01*
G37*
D25*
X90950000Y-120000000D03*
D10*
G36*
X89324504Y-119276204D02*
G01*
X89348773Y-119279804D01*
X89372571Y-119285765D01*
X89395671Y-119294030D01*
X89417849Y-119304520D01*
X89438893Y-119317133D01*
X89458598Y-119331747D01*
X89476777Y-119348223D01*
X89493253Y-119366402D01*
X89507867Y-119386107D01*
X89520480Y-119407151D01*
X89530970Y-119429329D01*
X89539235Y-119452429D01*
X89545196Y-119476227D01*
X89548796Y-119500496D01*
X89550000Y-119525000D01*
X89550000Y-120475000D01*
X89548796Y-120499504D01*
X89545196Y-120523773D01*
X89539235Y-120547571D01*
X89530970Y-120570671D01*
X89520480Y-120592849D01*
X89507867Y-120613893D01*
X89493253Y-120633598D01*
X89476777Y-120651777D01*
X89458598Y-120668253D01*
X89438893Y-120682867D01*
X89417849Y-120695480D01*
X89395671Y-120705970D01*
X89372571Y-120714235D01*
X89348773Y-120720196D01*
X89324504Y-120723796D01*
X89300000Y-120725000D01*
X88800000Y-120725000D01*
X88775496Y-120723796D01*
X88751227Y-120720196D01*
X88727429Y-120714235D01*
X88704329Y-120705970D01*
X88682151Y-120695480D01*
X88661107Y-120682867D01*
X88641402Y-120668253D01*
X88623223Y-120651777D01*
X88606747Y-120633598D01*
X88592133Y-120613893D01*
X88579520Y-120592849D01*
X88569030Y-120570671D01*
X88560765Y-120547571D01*
X88554804Y-120523773D01*
X88551204Y-120499504D01*
X88550000Y-120475000D01*
X88550000Y-119525000D01*
X88551204Y-119500496D01*
X88554804Y-119476227D01*
X88560765Y-119452429D01*
X88569030Y-119429329D01*
X88579520Y-119407151D01*
X88592133Y-119386107D01*
X88606747Y-119366402D01*
X88623223Y-119348223D01*
X88641402Y-119331747D01*
X88661107Y-119317133D01*
X88682151Y-119304520D01*
X88704329Y-119294030D01*
X88727429Y-119285765D01*
X88751227Y-119279804D01*
X88775496Y-119276204D01*
X88800000Y-119275000D01*
X89300000Y-119275000D01*
X89324504Y-119276204D01*
X89324504Y-119276204D01*
G37*
D25*
X89050000Y-120000000D03*
D22*
X68920000Y-99000000D03*
D21*
X74000000Y-99000000D03*
X62500000Y-123000000D03*
D22*
X62500000Y-128080000D03*
D21*
X102500000Y-99000000D03*
D22*
X97420000Y-99000000D03*
X102580000Y-139500000D03*
D21*
X97500000Y-139500000D03*
X68580000Y-139700000D03*
D22*
X73660000Y-139700000D03*
X102000000Y-123920000D03*
D21*
X102000000Y-129000000D03*
D22*
X88080000Y-139700000D03*
D21*
X83000000Y-139700000D03*
D10*
G36*
X99474505Y-112576204D02*
G01*
X99498773Y-112579804D01*
X99522572Y-112585765D01*
X99545671Y-112594030D01*
X99567850Y-112604520D01*
X99588893Y-112617132D01*
X99608599Y-112631747D01*
X99626777Y-112648223D01*
X99643253Y-112666401D01*
X99657868Y-112686107D01*
X99670480Y-112707150D01*
X99680970Y-112729329D01*
X99689235Y-112752428D01*
X99695196Y-112776227D01*
X99698796Y-112800495D01*
X99700000Y-112824999D01*
X99700000Y-113350001D01*
X99698796Y-113374505D01*
X99695196Y-113398773D01*
X99689235Y-113422572D01*
X99680970Y-113445671D01*
X99670480Y-113467850D01*
X99657868Y-113488893D01*
X99643253Y-113508599D01*
X99626777Y-113526777D01*
X99608599Y-113543253D01*
X99588893Y-113557868D01*
X99567850Y-113570480D01*
X99545671Y-113580970D01*
X99522572Y-113589235D01*
X99498773Y-113595196D01*
X99474505Y-113598796D01*
X99450001Y-113600000D01*
X98549999Y-113600000D01*
X98525495Y-113598796D01*
X98501227Y-113595196D01*
X98477428Y-113589235D01*
X98454329Y-113580970D01*
X98432150Y-113570480D01*
X98411107Y-113557868D01*
X98391401Y-113543253D01*
X98373223Y-113526777D01*
X98356747Y-113508599D01*
X98342132Y-113488893D01*
X98329520Y-113467850D01*
X98319030Y-113445671D01*
X98310765Y-113422572D01*
X98304804Y-113398773D01*
X98301204Y-113374505D01*
X98300000Y-113350001D01*
X98300000Y-112824999D01*
X98301204Y-112800495D01*
X98304804Y-112776227D01*
X98310765Y-112752428D01*
X98319030Y-112729329D01*
X98329520Y-112707150D01*
X98342132Y-112686107D01*
X98356747Y-112666401D01*
X98373223Y-112648223D01*
X98391401Y-112631747D01*
X98411107Y-112617132D01*
X98432150Y-112604520D01*
X98454329Y-112594030D01*
X98477428Y-112585765D01*
X98501227Y-112579804D01*
X98525495Y-112576204D01*
X98549999Y-112575000D01*
X99450001Y-112575000D01*
X99474505Y-112576204D01*
X99474505Y-112576204D01*
G37*
D26*
X99000000Y-113087500D03*
D10*
G36*
X99474505Y-114401204D02*
G01*
X99498773Y-114404804D01*
X99522572Y-114410765D01*
X99545671Y-114419030D01*
X99567850Y-114429520D01*
X99588893Y-114442132D01*
X99608599Y-114456747D01*
X99626777Y-114473223D01*
X99643253Y-114491401D01*
X99657868Y-114511107D01*
X99670480Y-114532150D01*
X99680970Y-114554329D01*
X99689235Y-114577428D01*
X99695196Y-114601227D01*
X99698796Y-114625495D01*
X99700000Y-114649999D01*
X99700000Y-115175001D01*
X99698796Y-115199505D01*
X99695196Y-115223773D01*
X99689235Y-115247572D01*
X99680970Y-115270671D01*
X99670480Y-115292850D01*
X99657868Y-115313893D01*
X99643253Y-115333599D01*
X99626777Y-115351777D01*
X99608599Y-115368253D01*
X99588893Y-115382868D01*
X99567850Y-115395480D01*
X99545671Y-115405970D01*
X99522572Y-115414235D01*
X99498773Y-115420196D01*
X99474505Y-115423796D01*
X99450001Y-115425000D01*
X98549999Y-115425000D01*
X98525495Y-115423796D01*
X98501227Y-115420196D01*
X98477428Y-115414235D01*
X98454329Y-115405970D01*
X98432150Y-115395480D01*
X98411107Y-115382868D01*
X98391401Y-115368253D01*
X98373223Y-115351777D01*
X98356747Y-115333599D01*
X98342132Y-115313893D01*
X98329520Y-115292850D01*
X98319030Y-115270671D01*
X98310765Y-115247572D01*
X98304804Y-115223773D01*
X98301204Y-115199505D01*
X98300000Y-115175001D01*
X98300000Y-114649999D01*
X98301204Y-114625495D01*
X98304804Y-114601227D01*
X98310765Y-114577428D01*
X98319030Y-114554329D01*
X98329520Y-114532150D01*
X98342132Y-114511107D01*
X98356747Y-114491401D01*
X98373223Y-114473223D01*
X98391401Y-114456747D01*
X98411107Y-114442132D01*
X98432150Y-114429520D01*
X98454329Y-114419030D01*
X98477428Y-114410765D01*
X98501227Y-114404804D01*
X98525495Y-114401204D01*
X98549999Y-114400000D01*
X99450001Y-114400000D01*
X99474505Y-114401204D01*
X99474505Y-114401204D01*
G37*
D26*
X99000000Y-114912500D03*
D10*
G36*
X84474505Y-119401204D02*
G01*
X84498773Y-119404804D01*
X84522572Y-119410765D01*
X84545671Y-119419030D01*
X84567850Y-119429520D01*
X84588893Y-119442132D01*
X84608599Y-119456747D01*
X84626777Y-119473223D01*
X84643253Y-119491401D01*
X84657868Y-119511107D01*
X84670480Y-119532150D01*
X84680970Y-119554329D01*
X84689235Y-119577428D01*
X84695196Y-119601227D01*
X84698796Y-119625495D01*
X84700000Y-119649999D01*
X84700000Y-120175001D01*
X84698796Y-120199505D01*
X84695196Y-120223773D01*
X84689235Y-120247572D01*
X84680970Y-120270671D01*
X84670480Y-120292850D01*
X84657868Y-120313893D01*
X84643253Y-120333599D01*
X84626777Y-120351777D01*
X84608599Y-120368253D01*
X84588893Y-120382868D01*
X84567850Y-120395480D01*
X84545671Y-120405970D01*
X84522572Y-120414235D01*
X84498773Y-120420196D01*
X84474505Y-120423796D01*
X84450001Y-120425000D01*
X83549999Y-120425000D01*
X83525495Y-120423796D01*
X83501227Y-120420196D01*
X83477428Y-120414235D01*
X83454329Y-120405970D01*
X83432150Y-120395480D01*
X83411107Y-120382868D01*
X83391401Y-120368253D01*
X83373223Y-120351777D01*
X83356747Y-120333599D01*
X83342132Y-120313893D01*
X83329520Y-120292850D01*
X83319030Y-120270671D01*
X83310765Y-120247572D01*
X83304804Y-120223773D01*
X83301204Y-120199505D01*
X83300000Y-120175001D01*
X83300000Y-119649999D01*
X83301204Y-119625495D01*
X83304804Y-119601227D01*
X83310765Y-119577428D01*
X83319030Y-119554329D01*
X83329520Y-119532150D01*
X83342132Y-119511107D01*
X83356747Y-119491401D01*
X83373223Y-119473223D01*
X83391401Y-119456747D01*
X83411107Y-119442132D01*
X83432150Y-119429520D01*
X83454329Y-119419030D01*
X83477428Y-119410765D01*
X83501227Y-119404804D01*
X83525495Y-119401204D01*
X83549999Y-119400000D01*
X84450001Y-119400000D01*
X84474505Y-119401204D01*
X84474505Y-119401204D01*
G37*
D26*
X84000000Y-119912500D03*
D10*
G36*
X84474505Y-117576204D02*
G01*
X84498773Y-117579804D01*
X84522572Y-117585765D01*
X84545671Y-117594030D01*
X84567850Y-117604520D01*
X84588893Y-117617132D01*
X84608599Y-117631747D01*
X84626777Y-117648223D01*
X84643253Y-117666401D01*
X84657868Y-117686107D01*
X84670480Y-117707150D01*
X84680970Y-117729329D01*
X84689235Y-117752428D01*
X84695196Y-117776227D01*
X84698796Y-117800495D01*
X84700000Y-117824999D01*
X84700000Y-118350001D01*
X84698796Y-118374505D01*
X84695196Y-118398773D01*
X84689235Y-118422572D01*
X84680970Y-118445671D01*
X84670480Y-118467850D01*
X84657868Y-118488893D01*
X84643253Y-118508599D01*
X84626777Y-118526777D01*
X84608599Y-118543253D01*
X84588893Y-118557868D01*
X84567850Y-118570480D01*
X84545671Y-118580970D01*
X84522572Y-118589235D01*
X84498773Y-118595196D01*
X84474505Y-118598796D01*
X84450001Y-118600000D01*
X83549999Y-118600000D01*
X83525495Y-118598796D01*
X83501227Y-118595196D01*
X83477428Y-118589235D01*
X83454329Y-118580970D01*
X83432150Y-118570480D01*
X83411107Y-118557868D01*
X83391401Y-118543253D01*
X83373223Y-118526777D01*
X83356747Y-118508599D01*
X83342132Y-118488893D01*
X83329520Y-118467850D01*
X83319030Y-118445671D01*
X83310765Y-118422572D01*
X83304804Y-118398773D01*
X83301204Y-118374505D01*
X83300000Y-118350001D01*
X83300000Y-117824999D01*
X83301204Y-117800495D01*
X83304804Y-117776227D01*
X83310765Y-117752428D01*
X83319030Y-117729329D01*
X83329520Y-117707150D01*
X83342132Y-117686107D01*
X83356747Y-117666401D01*
X83373223Y-117648223D01*
X83391401Y-117631747D01*
X83411107Y-117617132D01*
X83432150Y-117604520D01*
X83454329Y-117594030D01*
X83477428Y-117585765D01*
X83501227Y-117579804D01*
X83525495Y-117576204D01*
X83549999Y-117575000D01*
X84450001Y-117575000D01*
X84474505Y-117576204D01*
X84474505Y-117576204D01*
G37*
D26*
X84000000Y-118087500D03*
M02*
