G04 #@! TF.GenerationSoftware,KiCad,Pcbnew,(5.1.0)-1*
G04 #@! TF.CreationDate,2021-10-29T22:54:01+02:00*
G04 #@! TF.ProjectId,CarteAlimRobot,43617274-6541-46c6-996d-526f626f742e,rev?*
G04 #@! TF.SameCoordinates,Original*
G04 #@! TF.FileFunction,Soldermask,Top*
G04 #@! TF.FilePolarity,Negative*
%FSLAX46Y46*%
G04 Gerber Fmt 4.6, Leading zero omitted, Abs format (unit mm)*
G04 Created by KiCad (PCBNEW (5.1.0)-1) date 2021-10-29 22:54:01*
%MOMM*%
%LPD*%
G04 APERTURE LIST*
%ADD10C,0.100000*%
%ADD11C,0.150000*%
%ADD12C,0.300000*%
%ADD13C,0.400000*%
%ADD14C,1.700000*%
%ADD15O,1.700000X1.950000*%
%ADD16C,1.200000*%
%ADD17C,3.200000*%
%ADD18R,2.500000X1.500000*%
%ADD19O,2.500000X1.500000*%
%ADD20R,3.000000X3.000000*%
%ADD21C,3.000000*%
%ADD22R,1.905000X2.000000*%
%ADD23O,1.905000X2.000000*%
%ADD24C,1.000000*%
%ADD25C,1.025000*%
G04 APERTURE END LIST*
D10*
D11*
X177002200Y-166007200D02*
X177002200Y-198007200D01*
X285002200Y-198007200D01*
X285002200Y-166007200D01*
X177002200Y-166007200D01*
D10*
D11*
X10000000Y-10000000D02*
X10000000Y-200007200D01*
X287002200Y-200007200D01*
X287002200Y-10000000D01*
X10000000Y-10000000D01*
D10*
D11*
X12000000Y-12000000D02*
X12000000Y-198007200D01*
X285002200Y-198007200D01*
X285002200Y-12000000D01*
X12000000Y-12000000D01*
D10*
D11*
X60000000Y-12000000D02*
X60000000Y-10000000D01*
D10*
D11*
X110000000Y-12000000D02*
X110000000Y-10000000D01*
D10*
D11*
X160000000Y-12000000D02*
X160000000Y-10000000D01*
D10*
D11*
X210000000Y-12000000D02*
X210000000Y-10000000D01*
D10*
D11*
X260000000Y-12000000D02*
X260000000Y-10000000D01*
D10*
D11*
X36065476Y-11588095D02*
X35322619Y-11588095D01*
X35694047Y-11588095D02*
X35694047Y-10288095D01*
X35570238Y-10473809D01*
X35446428Y-10597619D01*
X35322619Y-10659523D01*
D10*
D11*
X85322619Y-10411904D02*
X85384523Y-10350000D01*
X85508333Y-10288095D01*
X85817857Y-10288095D01*
X85941666Y-10350000D01*
X86003571Y-10411904D01*
X86065476Y-10535714D01*
X86065476Y-10659523D01*
X86003571Y-10845238D01*
X85260714Y-11588095D01*
X86065476Y-11588095D01*
D10*
D11*
X135260714Y-10288095D02*
X136065476Y-10288095D01*
X135632142Y-10783333D01*
X135817857Y-10783333D01*
X135941666Y-10845238D01*
X136003571Y-10907142D01*
X136065476Y-11030952D01*
X136065476Y-11340476D01*
X136003571Y-11464285D01*
X135941666Y-11526190D01*
X135817857Y-11588095D01*
X135446428Y-11588095D01*
X135322619Y-11526190D01*
X135260714Y-11464285D01*
D10*
D11*
X185941666Y-10721428D02*
X185941666Y-11588095D01*
X185632142Y-10226190D02*
X185322619Y-11154761D01*
X186127380Y-11154761D01*
D10*
D11*
X236003571Y-10288095D02*
X235384523Y-10288095D01*
X235322619Y-10907142D01*
X235384523Y-10845238D01*
X235508333Y-10783333D01*
X235817857Y-10783333D01*
X235941666Y-10845238D01*
X236003571Y-10907142D01*
X236065476Y-11030952D01*
X236065476Y-11340476D01*
X236003571Y-11464285D01*
X235941666Y-11526190D01*
X235817857Y-11588095D01*
X235508333Y-11588095D01*
X235384523Y-11526190D01*
X235322619Y-11464285D01*
D10*
D11*
X285941666Y-10288095D02*
X285694047Y-10288095D01*
X285570238Y-10350000D01*
X285508333Y-10411904D01*
X285384523Y-10597619D01*
X285322619Y-10845238D01*
X285322619Y-11340476D01*
X285384523Y-11464285D01*
X285446428Y-11526190D01*
X285570238Y-11588095D01*
X285817857Y-11588095D01*
X285941666Y-11526190D01*
X286003571Y-11464285D01*
X286065476Y-11340476D01*
X286065476Y-11030952D01*
X286003571Y-10907142D01*
X285941666Y-10845238D01*
X285817857Y-10783333D01*
X285570238Y-10783333D01*
X285446428Y-10845238D01*
X285384523Y-10907142D01*
X285322619Y-11030952D01*
D10*
D11*
X60000000Y-198007200D02*
X60000000Y-200007200D01*
D10*
D11*
X110000000Y-198007200D02*
X110000000Y-200007200D01*
D10*
D11*
X160000000Y-198007200D02*
X160000000Y-200007200D01*
D10*
D11*
X210000000Y-198007200D02*
X210000000Y-200007200D01*
D10*
D11*
X260000000Y-198007200D02*
X260000000Y-200007200D01*
D10*
D11*
X36065476Y-199595295D02*
X35322619Y-199595295D01*
X35694047Y-199595295D02*
X35694047Y-198295295D01*
X35570238Y-198481009D01*
X35446428Y-198604819D01*
X35322619Y-198666723D01*
D10*
D11*
X85322619Y-198419104D02*
X85384523Y-198357200D01*
X85508333Y-198295295D01*
X85817857Y-198295295D01*
X85941666Y-198357200D01*
X86003571Y-198419104D01*
X86065476Y-198542914D01*
X86065476Y-198666723D01*
X86003571Y-198852438D01*
X85260714Y-199595295D01*
X86065476Y-199595295D01*
D10*
D11*
X135260714Y-198295295D02*
X136065476Y-198295295D01*
X135632142Y-198790533D01*
X135817857Y-198790533D01*
X135941666Y-198852438D01*
X136003571Y-198914342D01*
X136065476Y-199038152D01*
X136065476Y-199347676D01*
X136003571Y-199471485D01*
X135941666Y-199533390D01*
X135817857Y-199595295D01*
X135446428Y-199595295D01*
X135322619Y-199533390D01*
X135260714Y-199471485D01*
D10*
D11*
X185941666Y-198728628D02*
X185941666Y-199595295D01*
X185632142Y-198233390D02*
X185322619Y-199161961D01*
X186127380Y-199161961D01*
D10*
D11*
X236003571Y-198295295D02*
X235384523Y-198295295D01*
X235322619Y-198914342D01*
X235384523Y-198852438D01*
X235508333Y-198790533D01*
X235817857Y-198790533D01*
X235941666Y-198852438D01*
X236003571Y-198914342D01*
X236065476Y-199038152D01*
X236065476Y-199347676D01*
X236003571Y-199471485D01*
X235941666Y-199533390D01*
X235817857Y-199595295D01*
X235508333Y-199595295D01*
X235384523Y-199533390D01*
X235322619Y-199471485D01*
D10*
D11*
X285941666Y-198295295D02*
X285694047Y-198295295D01*
X285570238Y-198357200D01*
X285508333Y-198419104D01*
X285384523Y-198604819D01*
X285322619Y-198852438D01*
X285322619Y-199347676D01*
X285384523Y-199471485D01*
X285446428Y-199533390D01*
X285570238Y-199595295D01*
X285817857Y-199595295D01*
X285941666Y-199533390D01*
X286003571Y-199471485D01*
X286065476Y-199347676D01*
X286065476Y-199038152D01*
X286003571Y-198914342D01*
X285941666Y-198852438D01*
X285817857Y-198790533D01*
X285570238Y-198790533D01*
X285446428Y-198852438D01*
X285384523Y-198914342D01*
X285322619Y-199038152D01*
D10*
D11*
X10000000Y-60000000D02*
X12000000Y-60000000D01*
D10*
D11*
X10000000Y-110000000D02*
X12000000Y-110000000D01*
D10*
D11*
X10000000Y-160000000D02*
X12000000Y-160000000D01*
D10*
D11*
X10690476Y-35216666D02*
X11309523Y-35216666D01*
X10566666Y-35588095D02*
X11000000Y-34288095D01*
X11433333Y-35588095D01*
D10*
D11*
X11092857Y-84907142D02*
X11278571Y-84969047D01*
X11340476Y-85030952D01*
X11402380Y-85154761D01*
X11402380Y-85340476D01*
X11340476Y-85464285D01*
X11278571Y-85526190D01*
X11154761Y-85588095D01*
X10659523Y-85588095D01*
X10659523Y-84288095D01*
X11092857Y-84288095D01*
X11216666Y-84350000D01*
X11278571Y-84411904D01*
X11340476Y-84535714D01*
X11340476Y-84659523D01*
X11278571Y-84783333D01*
X11216666Y-84845238D01*
X11092857Y-84907142D01*
X10659523Y-84907142D01*
D10*
D11*
X11402380Y-135464285D02*
X11340476Y-135526190D01*
X11154761Y-135588095D01*
X11030952Y-135588095D01*
X10845238Y-135526190D01*
X10721428Y-135402380D01*
X10659523Y-135278571D01*
X10597619Y-135030952D01*
X10597619Y-134845238D01*
X10659523Y-134597619D01*
X10721428Y-134473809D01*
X10845238Y-134350000D01*
X11030952Y-134288095D01*
X11154761Y-134288095D01*
X11340476Y-134350000D01*
X11402380Y-134411904D01*
D10*
D11*
X10659523Y-185588095D02*
X10659523Y-184288095D01*
X10969047Y-184288095D01*
X11154761Y-184350000D01*
X11278571Y-184473809D01*
X11340476Y-184597619D01*
X11402380Y-184845238D01*
X11402380Y-185030952D01*
X11340476Y-185278571D01*
X11278571Y-185402380D01*
X11154761Y-185526190D01*
X10969047Y-185588095D01*
X10659523Y-185588095D01*
D10*
D11*
X287002200Y-60000000D02*
X285002200Y-60000000D01*
D10*
D11*
X287002200Y-110000000D02*
X285002200Y-110000000D01*
D10*
D11*
X287002200Y-160000000D02*
X285002200Y-160000000D01*
D10*
D11*
X285692676Y-35216666D02*
X286311723Y-35216666D01*
X285568866Y-35588095D02*
X286002200Y-34288095D01*
X286435533Y-35588095D01*
D10*
D11*
X286095057Y-84907142D02*
X286280771Y-84969047D01*
X286342676Y-85030952D01*
X286404580Y-85154761D01*
X286404580Y-85340476D01*
X286342676Y-85464285D01*
X286280771Y-85526190D01*
X286156961Y-85588095D01*
X285661723Y-85588095D01*
X285661723Y-84288095D01*
X286095057Y-84288095D01*
X286218866Y-84350000D01*
X286280771Y-84411904D01*
X286342676Y-84535714D01*
X286342676Y-84659523D01*
X286280771Y-84783333D01*
X286218866Y-84845238D01*
X286095057Y-84907142D01*
X285661723Y-84907142D01*
D10*
D11*
X286404580Y-135464285D02*
X286342676Y-135526190D01*
X286156961Y-135588095D01*
X286033152Y-135588095D01*
X285847438Y-135526190D01*
X285723628Y-135402380D01*
X285661723Y-135278571D01*
X285599819Y-135030952D01*
X285599819Y-134845238D01*
X285661723Y-134597619D01*
X285723628Y-134473809D01*
X285847438Y-134350000D01*
X286033152Y-134288095D01*
X286156961Y-134288095D01*
X286342676Y-134350000D01*
X286404580Y-134411904D01*
D10*
D11*
X285661723Y-185588095D02*
X285661723Y-184288095D01*
X285971247Y-184288095D01*
X286156961Y-184350000D01*
X286280771Y-184473809D01*
X286342676Y-184597619D01*
X286404580Y-184845238D01*
X286404580Y-185030952D01*
X286342676Y-185278571D01*
X286280771Y-185402380D01*
X286156961Y-185526190D01*
X285971247Y-185588095D01*
X285661723Y-185588095D01*
D10*
D11*
X200434342Y-193785771D02*
X200434342Y-192285771D01*
X200791485Y-192285771D01*
X201005771Y-192357200D01*
X201148628Y-192500057D01*
X201220057Y-192642914D01*
X201291485Y-192928628D01*
X201291485Y-193142914D01*
X201220057Y-193428628D01*
X201148628Y-193571485D01*
X201005771Y-193714342D01*
X200791485Y-193785771D01*
X200434342Y-193785771D01*
X202577200Y-193785771D02*
X202577200Y-193000057D01*
X202505771Y-192857200D01*
X202362914Y-192785771D01*
X202077200Y-192785771D01*
X201934342Y-192857200D01*
X202577200Y-193714342D02*
X202434342Y-193785771D01*
X202077200Y-193785771D01*
X201934342Y-193714342D01*
X201862914Y-193571485D01*
X201862914Y-193428628D01*
X201934342Y-193285771D01*
X202077200Y-193214342D01*
X202434342Y-193214342D01*
X202577200Y-193142914D01*
X203077200Y-192785771D02*
X203648628Y-192785771D01*
X203291485Y-192285771D02*
X203291485Y-193571485D01*
X203362914Y-193714342D01*
X203505771Y-193785771D01*
X203648628Y-193785771D01*
X204720057Y-193714342D02*
X204577200Y-193785771D01*
X204291485Y-193785771D01*
X204148628Y-193714342D01*
X204077200Y-193571485D01*
X204077200Y-193000057D01*
X204148628Y-192857200D01*
X204291485Y-192785771D01*
X204577200Y-192785771D01*
X204720057Y-192857200D01*
X204791485Y-193000057D01*
X204791485Y-193142914D01*
X204077200Y-193285771D01*
X205434342Y-193642914D02*
X205505771Y-193714342D01*
X205434342Y-193785771D01*
X205362914Y-193714342D01*
X205434342Y-193642914D01*
X205434342Y-193785771D01*
X205434342Y-192857200D02*
X205505771Y-192928628D01*
X205434342Y-193000057D01*
X205362914Y-192928628D01*
X205434342Y-192857200D01*
X205434342Y-193000057D01*
D10*
D11*
X177002200Y-194507200D02*
X285002200Y-194507200D01*
D10*
D11*
X178434342Y-196585771D02*
X178434342Y-195085771D01*
X179291485Y-196585771D02*
X178648628Y-195728628D01*
X179291485Y-195085771D02*
X178434342Y-195942914D01*
X179934342Y-196585771D02*
X179934342Y-195585771D01*
X179934342Y-195085771D02*
X179862914Y-195157200D01*
X179934342Y-195228628D01*
X180005771Y-195157200D01*
X179934342Y-195085771D01*
X179934342Y-195228628D01*
X181505771Y-196442914D02*
X181434342Y-196514342D01*
X181220057Y-196585771D01*
X181077200Y-196585771D01*
X180862914Y-196514342D01*
X180720057Y-196371485D01*
X180648628Y-196228628D01*
X180577200Y-195942914D01*
X180577200Y-195728628D01*
X180648628Y-195442914D01*
X180720057Y-195300057D01*
X180862914Y-195157200D01*
X181077200Y-195085771D01*
X181220057Y-195085771D01*
X181434342Y-195157200D01*
X181505771Y-195228628D01*
X182791485Y-196585771D02*
X182791485Y-195800057D01*
X182720057Y-195657200D01*
X182577200Y-195585771D01*
X182291485Y-195585771D01*
X182148628Y-195657200D01*
X182791485Y-196514342D02*
X182648628Y-196585771D01*
X182291485Y-196585771D01*
X182148628Y-196514342D01*
X182077200Y-196371485D01*
X182077200Y-196228628D01*
X182148628Y-196085771D01*
X182291485Y-196014342D01*
X182648628Y-196014342D01*
X182791485Y-195942914D01*
X184148628Y-196585771D02*
X184148628Y-195085771D01*
X184148628Y-196514342D02*
X184005771Y-196585771D01*
X183720057Y-196585771D01*
X183577200Y-196514342D01*
X183505771Y-196442914D01*
X183434342Y-196300057D01*
X183434342Y-195871485D01*
X183505771Y-195728628D01*
X183577200Y-195657200D01*
X183720057Y-195585771D01*
X184005771Y-195585771D01*
X184148628Y-195657200D01*
X186005771Y-195800057D02*
X186505771Y-195800057D01*
X186720057Y-196585771D02*
X186005771Y-196585771D01*
X186005771Y-195085771D01*
X186720057Y-195085771D01*
X187362914Y-196442914D02*
X187434342Y-196514342D01*
X187362914Y-196585771D01*
X187291485Y-196514342D01*
X187362914Y-196442914D01*
X187362914Y-196585771D01*
X188077200Y-196585771D02*
X188077200Y-195085771D01*
X188434342Y-195085771D01*
X188648628Y-195157200D01*
X188791485Y-195300057D01*
X188862914Y-195442914D01*
X188934342Y-195728628D01*
X188934342Y-195942914D01*
X188862914Y-196228628D01*
X188791485Y-196371485D01*
X188648628Y-196514342D01*
X188434342Y-196585771D01*
X188077200Y-196585771D01*
X189577200Y-196442914D02*
X189648628Y-196514342D01*
X189577200Y-196585771D01*
X189505771Y-196514342D01*
X189577200Y-196442914D01*
X189577200Y-196585771D01*
X190220057Y-196157200D02*
X190934342Y-196157200D01*
X190077200Y-196585771D02*
X190577200Y-195085771D01*
X191077200Y-196585771D01*
X191577200Y-196442914D02*
X191648628Y-196514342D01*
X191577200Y-196585771D01*
X191505771Y-196514342D01*
X191577200Y-196442914D01*
X191577200Y-196585771D01*
X194577200Y-195585771D02*
X194577200Y-197085771D01*
X194577200Y-195657200D02*
X194720057Y-195585771D01*
X195005771Y-195585771D01*
X195148628Y-195657200D01*
X195220057Y-195728628D01*
X195291485Y-195871485D01*
X195291485Y-196300057D01*
X195220057Y-196442914D01*
X195148628Y-196514342D01*
X195005771Y-196585771D01*
X194720057Y-196585771D01*
X194577200Y-196514342D01*
X196577200Y-196514342D02*
X196434342Y-196585771D01*
X196148628Y-196585771D01*
X196005771Y-196514342D01*
X195934342Y-196442914D01*
X195862914Y-196300057D01*
X195862914Y-195871485D01*
X195934342Y-195728628D01*
X196005771Y-195657200D01*
X196148628Y-195585771D01*
X196434342Y-195585771D01*
X196577200Y-195657200D01*
X197220057Y-196585771D02*
X197220057Y-195085771D01*
X197220057Y-195657200D02*
X197362914Y-195585771D01*
X197648628Y-195585771D01*
X197791485Y-195657200D01*
X197862914Y-195728628D01*
X197934342Y-195871485D01*
X197934342Y-196300057D01*
X197862914Y-196442914D01*
X197791485Y-196514342D01*
X197648628Y-196585771D01*
X197362914Y-196585771D01*
X197220057Y-196514342D01*
X198577200Y-195585771D02*
X198577200Y-196585771D01*
X198577200Y-195728628D02*
X198648628Y-195657200D01*
X198791485Y-195585771D01*
X199005771Y-195585771D01*
X199148628Y-195657200D01*
X199220057Y-195800057D01*
X199220057Y-196585771D01*
X200505771Y-196514342D02*
X200362914Y-196585771D01*
X200077200Y-196585771D01*
X199934342Y-196514342D01*
X199862914Y-196371485D01*
X199862914Y-195800057D01*
X199934342Y-195657200D01*
X200077200Y-195585771D01*
X200362914Y-195585771D01*
X200505771Y-195657200D01*
X200577200Y-195800057D01*
X200577200Y-195942914D01*
X199862914Y-196085771D01*
X201077200Y-195585771D02*
X201362914Y-196585771D01*
X201648628Y-195871485D01*
X201934342Y-196585771D01*
X202220057Y-195585771D01*
X204362914Y-197157200D02*
X204291485Y-197085771D01*
X204148628Y-196871485D01*
X204077200Y-196728628D01*
X204005771Y-196514342D01*
X203934342Y-196157200D01*
X203934342Y-195871485D01*
X204005771Y-195514342D01*
X204077200Y-195300057D01*
X204148628Y-195157200D01*
X204291485Y-194942914D01*
X204362914Y-194871485D01*
X205648628Y-195085771D02*
X204934342Y-195085771D01*
X204862914Y-195800057D01*
X204934342Y-195728628D01*
X205077200Y-195657200D01*
X205434342Y-195657200D01*
X205577200Y-195728628D01*
X205648628Y-195800057D01*
X205720057Y-195942914D01*
X205720057Y-196300057D01*
X205648628Y-196442914D01*
X205577200Y-196514342D01*
X205434342Y-196585771D01*
X205077200Y-196585771D01*
X204934342Y-196514342D01*
X204862914Y-196442914D01*
X206362914Y-196442914D02*
X206434342Y-196514342D01*
X206362914Y-196585771D01*
X206291485Y-196514342D01*
X206362914Y-196442914D01*
X206362914Y-196585771D01*
X207862914Y-196585771D02*
X207005771Y-196585771D01*
X207434342Y-196585771D02*
X207434342Y-195085771D01*
X207291485Y-195300057D01*
X207148628Y-195442914D01*
X207005771Y-195514342D01*
X208505771Y-196442914D02*
X208577200Y-196514342D01*
X208505771Y-196585771D01*
X208434342Y-196514342D01*
X208505771Y-196442914D01*
X208505771Y-196585771D01*
X209505771Y-195085771D02*
X209648628Y-195085771D01*
X209791485Y-195157200D01*
X209862914Y-195228628D01*
X209934342Y-195371485D01*
X210005771Y-195657200D01*
X210005771Y-196014342D01*
X209934342Y-196300057D01*
X209862914Y-196442914D01*
X209791485Y-196514342D01*
X209648628Y-196585771D01*
X209505771Y-196585771D01*
X209362914Y-196514342D01*
X209291485Y-196442914D01*
X209220057Y-196300057D01*
X209148628Y-196014342D01*
X209148628Y-195657200D01*
X209220057Y-195371485D01*
X209291485Y-195228628D01*
X209362914Y-195157200D01*
X209505771Y-195085771D01*
X210505771Y-197157200D02*
X210577200Y-197085771D01*
X210720057Y-196871485D01*
X210791485Y-196728628D01*
X210862914Y-196514342D01*
X210934342Y-196157200D01*
X210934342Y-195871485D01*
X210862914Y-195514342D01*
X210791485Y-195300057D01*
X210720057Y-195157200D01*
X210577200Y-194942914D01*
X210505771Y-194871485D01*
X211648628Y-196014342D02*
X212791485Y-196014342D01*
X214291485Y-196585771D02*
X213434342Y-196585771D01*
X213862914Y-196585771D02*
X213862914Y-195085771D01*
X213720057Y-195300057D01*
X213577200Y-195442914D01*
X213434342Y-195514342D01*
D10*
D11*
X177002200Y-191507200D02*
X285002200Y-191507200D01*
D10*
D12*
X264411485Y-193785771D02*
X263911485Y-193071485D01*
X263554342Y-193785771D02*
X263554342Y-192285771D01*
X264125771Y-192285771D01*
X264268628Y-192357200D01*
X264340057Y-192428628D01*
X264411485Y-192571485D01*
X264411485Y-192785771D01*
X264340057Y-192928628D01*
X264268628Y-193000057D01*
X264125771Y-193071485D01*
X263554342Y-193071485D01*
X265625771Y-193714342D02*
X265482914Y-193785771D01*
X265197200Y-193785771D01*
X265054342Y-193714342D01*
X264982914Y-193571485D01*
X264982914Y-193000057D01*
X265054342Y-192857200D01*
X265197200Y-192785771D01*
X265482914Y-192785771D01*
X265625771Y-192857200D01*
X265697200Y-193000057D01*
X265697200Y-193142914D01*
X264982914Y-193285771D01*
X266197200Y-192785771D02*
X266554342Y-193785771D01*
X266911485Y-192785771D01*
X267482914Y-193642914D02*
X267554342Y-193714342D01*
X267482914Y-193785771D01*
X267411485Y-193714342D01*
X267482914Y-193642914D01*
X267482914Y-193785771D01*
X267482914Y-192857200D02*
X267554342Y-192928628D01*
X267482914Y-193000057D01*
X267411485Y-192928628D01*
X267482914Y-192857200D01*
X267482914Y-193000057D01*
D10*
D11*
X178362914Y-193714342D02*
X178577200Y-193785771D01*
X178934342Y-193785771D01*
X179077200Y-193714342D01*
X179148628Y-193642914D01*
X179220057Y-193500057D01*
X179220057Y-193357200D01*
X179148628Y-193214342D01*
X179077200Y-193142914D01*
X178934342Y-193071485D01*
X178648628Y-193000057D01*
X178505771Y-192928628D01*
X178434342Y-192857200D01*
X178362914Y-192714342D01*
X178362914Y-192571485D01*
X178434342Y-192428628D01*
X178505771Y-192357200D01*
X178648628Y-192285771D01*
X179005771Y-192285771D01*
X179220057Y-192357200D01*
X179862914Y-193785771D02*
X179862914Y-192785771D01*
X179862914Y-192285771D02*
X179791485Y-192357200D01*
X179862914Y-192428628D01*
X179934342Y-192357200D01*
X179862914Y-192285771D01*
X179862914Y-192428628D01*
X180434342Y-192785771D02*
X181220057Y-192785771D01*
X180434342Y-193785771D01*
X181220057Y-193785771D01*
X182362914Y-193714342D02*
X182220057Y-193785771D01*
X181934342Y-193785771D01*
X181791485Y-193714342D01*
X181720057Y-193571485D01*
X181720057Y-193000057D01*
X181791485Y-192857200D01*
X181934342Y-192785771D01*
X182220057Y-192785771D01*
X182362914Y-192857200D01*
X182434342Y-193000057D01*
X182434342Y-193142914D01*
X181720057Y-193285771D01*
X183077200Y-193642914D02*
X183148628Y-193714342D01*
X183077200Y-193785771D01*
X183005771Y-193714342D01*
X183077200Y-193642914D01*
X183077200Y-193785771D01*
X183077200Y-192857200D02*
X183148628Y-192928628D01*
X183077200Y-193000057D01*
X183005771Y-192928628D01*
X183077200Y-192857200D01*
X183077200Y-193000057D01*
X184862914Y-193357200D02*
X185577200Y-193357200D01*
X184720057Y-193785771D02*
X185220057Y-192285771D01*
X185720057Y-193785771D01*
X186862914Y-192785771D02*
X186862914Y-193785771D01*
X186505771Y-192214342D02*
X186148628Y-193285771D01*
X187077200Y-193285771D01*
D10*
D11*
X263434342Y-196585771D02*
X263434342Y-195085771D01*
X264791485Y-196585771D02*
X264791485Y-195085771D01*
X264791485Y-196514342D02*
X264648628Y-196585771D01*
X264362914Y-196585771D01*
X264220057Y-196514342D01*
X264148628Y-196442914D01*
X264077200Y-196300057D01*
X264077200Y-195871485D01*
X264148628Y-195728628D01*
X264220057Y-195657200D01*
X264362914Y-195585771D01*
X264648628Y-195585771D01*
X264791485Y-195657200D01*
X265505771Y-196442914D02*
X265577200Y-196514342D01*
X265505771Y-196585771D01*
X265434342Y-196514342D01*
X265505771Y-196442914D01*
X265505771Y-196585771D01*
X265505771Y-195657200D02*
X265577200Y-195728628D01*
X265505771Y-195800057D01*
X265434342Y-195728628D01*
X265505771Y-195657200D01*
X265505771Y-195800057D01*
X268148628Y-196585771D02*
X267291485Y-196585771D01*
X267720057Y-196585771D02*
X267720057Y-195085771D01*
X267577200Y-195300057D01*
X267434342Y-195442914D01*
X267291485Y-195514342D01*
X269862914Y-195014342D02*
X268577200Y-196942914D01*
X271148628Y-196585771D02*
X270291485Y-196585771D01*
X270720057Y-196585771D02*
X270720057Y-195085771D01*
X270577200Y-195300057D01*
X270434342Y-195442914D01*
X270291485Y-195514342D01*
D10*
D11*
X177002200Y-187507200D02*
X285002200Y-187507200D01*
D10*
D13*
X178714580Y-188211961D02*
X179857438Y-188211961D01*
X179036009Y-190211961D02*
X179286009Y-188211961D01*
X180274104Y-190211961D02*
X180440771Y-188878628D01*
X180524104Y-188211961D02*
X180416961Y-188307200D01*
X180500295Y-188402438D01*
X180607438Y-188307200D01*
X180524104Y-188211961D01*
X180500295Y-188402438D01*
X181107438Y-188878628D02*
X181869342Y-188878628D01*
X181476485Y-188211961D02*
X181262200Y-189926247D01*
X181333628Y-190116723D01*
X181512200Y-190211961D01*
X181702676Y-190211961D01*
X182655057Y-190211961D02*
X182476485Y-190116723D01*
X182405057Y-189926247D01*
X182619342Y-188211961D01*
X184190771Y-190116723D02*
X183988390Y-190211961D01*
X183607438Y-190211961D01*
X183428866Y-190116723D01*
X183357438Y-189926247D01*
X183452676Y-189164342D01*
X183571723Y-188973866D01*
X183774104Y-188878628D01*
X184155057Y-188878628D01*
X184333628Y-188973866D01*
X184405057Y-189164342D01*
X184381247Y-189354819D01*
X183405057Y-189545295D01*
X185155057Y-190021485D02*
X185238390Y-190116723D01*
X185131247Y-190211961D01*
X185047914Y-190116723D01*
X185155057Y-190021485D01*
X185131247Y-190211961D01*
X185286009Y-188973866D02*
X185369342Y-189069104D01*
X185262200Y-189164342D01*
X185178866Y-189069104D01*
X185286009Y-188973866D01*
X185262200Y-189164342D01*
D10*
D11*
X178934342Y-185600057D02*
X178434342Y-185600057D01*
X178434342Y-186385771D02*
X178434342Y-184885771D01*
X179148628Y-184885771D01*
X179720057Y-186385771D02*
X179720057Y-185385771D01*
X179720057Y-184885771D02*
X179648628Y-184957200D01*
X179720057Y-185028628D01*
X179791485Y-184957200D01*
X179720057Y-184885771D01*
X179720057Y-185028628D01*
X180648628Y-186385771D02*
X180505771Y-186314342D01*
X180434342Y-186171485D01*
X180434342Y-184885771D01*
X181791485Y-186314342D02*
X181648628Y-186385771D01*
X181362914Y-186385771D01*
X181220057Y-186314342D01*
X181148628Y-186171485D01*
X181148628Y-185600057D01*
X181220057Y-185457200D01*
X181362914Y-185385771D01*
X181648628Y-185385771D01*
X181791485Y-185457200D01*
X181862914Y-185600057D01*
X181862914Y-185742914D01*
X181148628Y-185885771D01*
X182505771Y-186242914D02*
X182577200Y-186314342D01*
X182505771Y-186385771D01*
X182434342Y-186314342D01*
X182505771Y-186242914D01*
X182505771Y-186385771D01*
X182505771Y-185457200D02*
X182577200Y-185528628D01*
X182505771Y-185600057D01*
X182434342Y-185528628D01*
X182505771Y-185457200D01*
X182505771Y-185600057D01*
X185220057Y-186242914D02*
X185148628Y-186314342D01*
X184934342Y-186385771D01*
X184791485Y-186385771D01*
X184577200Y-186314342D01*
X184434342Y-186171485D01*
X184362914Y-186028628D01*
X184291485Y-185742914D01*
X184291485Y-185528628D01*
X184362914Y-185242914D01*
X184434342Y-185100057D01*
X184577200Y-184957200D01*
X184791485Y-184885771D01*
X184934342Y-184885771D01*
X185148628Y-184957200D01*
X185220057Y-185028628D01*
X186505771Y-186385771D02*
X186505771Y-185600057D01*
X186434342Y-185457200D01*
X186291485Y-185385771D01*
X186005771Y-185385771D01*
X185862914Y-185457200D01*
X186505771Y-186314342D02*
X186362914Y-186385771D01*
X186005771Y-186385771D01*
X185862914Y-186314342D01*
X185791485Y-186171485D01*
X185791485Y-186028628D01*
X185862914Y-185885771D01*
X186005771Y-185814342D01*
X186362914Y-185814342D01*
X186505771Y-185742914D01*
X187220057Y-186385771D02*
X187220057Y-185385771D01*
X187220057Y-185671485D02*
X187291485Y-185528628D01*
X187362914Y-185457200D01*
X187505771Y-185385771D01*
X187648628Y-185385771D01*
X187934342Y-185385771D02*
X188505771Y-185385771D01*
X188148628Y-184885771D02*
X188148628Y-186171485D01*
X188220057Y-186314342D01*
X188362914Y-186385771D01*
X188505771Y-186385771D01*
X189577200Y-186314342D02*
X189434342Y-186385771D01*
X189148628Y-186385771D01*
X189005771Y-186314342D01*
X188934342Y-186171485D01*
X188934342Y-185600057D01*
X189005771Y-185457200D01*
X189148628Y-185385771D01*
X189434342Y-185385771D01*
X189577200Y-185457200D01*
X189648628Y-185600057D01*
X189648628Y-185742914D01*
X188934342Y-185885771D01*
X190220057Y-185957200D02*
X190934342Y-185957200D01*
X190077200Y-186385771D02*
X190577200Y-184885771D01*
X191077200Y-186385771D01*
X191791485Y-186385771D02*
X191648628Y-186314342D01*
X191577200Y-186171485D01*
X191577200Y-184885771D01*
X192362914Y-186385771D02*
X192362914Y-185385771D01*
X192362914Y-184885771D02*
X192291485Y-184957200D01*
X192362914Y-185028628D01*
X192434342Y-184957200D01*
X192362914Y-184885771D01*
X192362914Y-185028628D01*
X193077200Y-186385771D02*
X193077200Y-185385771D01*
X193077200Y-185528628D02*
X193148628Y-185457200D01*
X193291485Y-185385771D01*
X193505771Y-185385771D01*
X193648628Y-185457200D01*
X193720057Y-185600057D01*
X193720057Y-186385771D01*
X193720057Y-185600057D02*
X193791485Y-185457200D01*
X193934342Y-185385771D01*
X194148628Y-185385771D01*
X194291485Y-185457200D01*
X194362914Y-185600057D01*
X194362914Y-186385771D01*
X195934342Y-186385771D02*
X195434342Y-185671485D01*
X195077200Y-186385771D02*
X195077200Y-184885771D01*
X195648628Y-184885771D01*
X195791485Y-184957200D01*
X195862914Y-185028628D01*
X195934342Y-185171485D01*
X195934342Y-185385771D01*
X195862914Y-185528628D01*
X195791485Y-185600057D01*
X195648628Y-185671485D01*
X195077200Y-185671485D01*
X196791485Y-186385771D02*
X196648628Y-186314342D01*
X196577200Y-186242914D01*
X196505771Y-186100057D01*
X196505771Y-185671485D01*
X196577200Y-185528628D01*
X196648628Y-185457200D01*
X196791485Y-185385771D01*
X197005771Y-185385771D01*
X197148628Y-185457200D01*
X197220057Y-185528628D01*
X197291485Y-185671485D01*
X197291485Y-186100057D01*
X197220057Y-186242914D01*
X197148628Y-186314342D01*
X197005771Y-186385771D01*
X196791485Y-186385771D01*
X197934342Y-186385771D02*
X197934342Y-184885771D01*
X197934342Y-185457200D02*
X198077200Y-185385771D01*
X198362914Y-185385771D01*
X198505771Y-185457200D01*
X198577200Y-185528628D01*
X198648628Y-185671485D01*
X198648628Y-186100057D01*
X198577200Y-186242914D01*
X198505771Y-186314342D01*
X198362914Y-186385771D01*
X198077200Y-186385771D01*
X197934342Y-186314342D01*
X199505771Y-186385771D02*
X199362914Y-186314342D01*
X199291485Y-186242914D01*
X199220057Y-186100057D01*
X199220057Y-185671485D01*
X199291485Y-185528628D01*
X199362914Y-185457200D01*
X199505771Y-185385771D01*
X199720057Y-185385771D01*
X199862914Y-185457200D01*
X199934342Y-185528628D01*
X200005771Y-185671485D01*
X200005771Y-186100057D01*
X199934342Y-186242914D01*
X199862914Y-186314342D01*
X199720057Y-186385771D01*
X199505771Y-186385771D01*
X200434342Y-185385771D02*
X201005771Y-185385771D01*
X200648628Y-184885771D02*
X200648628Y-186171485D01*
X200720057Y-186314342D01*
X200862914Y-186385771D01*
X201005771Y-186385771D01*
X201505771Y-186242914D02*
X201577200Y-186314342D01*
X201505771Y-186385771D01*
X201434342Y-186314342D01*
X201505771Y-186242914D01*
X201505771Y-186385771D01*
X202220057Y-186385771D02*
X202220057Y-184885771D01*
X202362914Y-185814342D02*
X202791485Y-186385771D01*
X202791485Y-185385771D02*
X202220057Y-185957200D01*
X203434342Y-186385771D02*
X203434342Y-185385771D01*
X203434342Y-184885771D02*
X203362914Y-184957200D01*
X203434342Y-185028628D01*
X203505771Y-184957200D01*
X203434342Y-184885771D01*
X203434342Y-185028628D01*
X204791485Y-186314342D02*
X204648628Y-186385771D01*
X204362914Y-186385771D01*
X204220057Y-186314342D01*
X204148628Y-186242914D01*
X204077200Y-186100057D01*
X204077200Y-185671485D01*
X204148628Y-185528628D01*
X204220057Y-185457200D01*
X204362914Y-185385771D01*
X204648628Y-185385771D01*
X204791485Y-185457200D01*
X206077200Y-186385771D02*
X206077200Y-185600057D01*
X206005771Y-185457200D01*
X205862914Y-185385771D01*
X205577200Y-185385771D01*
X205434342Y-185457200D01*
X206077200Y-186314342D02*
X205934342Y-186385771D01*
X205577200Y-186385771D01*
X205434342Y-186314342D01*
X205362914Y-186171485D01*
X205362914Y-186028628D01*
X205434342Y-185885771D01*
X205577200Y-185814342D01*
X205934342Y-185814342D01*
X206077200Y-185742914D01*
X207434342Y-186385771D02*
X207434342Y-184885771D01*
X207434342Y-186314342D02*
X207291485Y-186385771D01*
X207005771Y-186385771D01*
X206862914Y-186314342D01*
X206791485Y-186242914D01*
X206720057Y-186100057D01*
X206720057Y-185671485D01*
X206791485Y-185528628D01*
X206862914Y-185457200D01*
X207005771Y-185385771D01*
X207291485Y-185385771D01*
X207434342Y-185457200D01*
X207791485Y-186528628D02*
X208934342Y-186528628D01*
X209291485Y-185385771D02*
X209291485Y-186885771D01*
X209291485Y-185457200D02*
X209434342Y-185385771D01*
X209720057Y-185385771D01*
X209862914Y-185457200D01*
X209934342Y-185528628D01*
X210005771Y-185671485D01*
X210005771Y-186100057D01*
X209934342Y-186242914D01*
X209862914Y-186314342D01*
X209720057Y-186385771D01*
X209434342Y-186385771D01*
X209291485Y-186314342D01*
X211291485Y-186314342D02*
X211148628Y-186385771D01*
X210862914Y-186385771D01*
X210720057Y-186314342D01*
X210648628Y-186242914D01*
X210577200Y-186100057D01*
X210577200Y-185671485D01*
X210648628Y-185528628D01*
X210720057Y-185457200D01*
X210862914Y-185385771D01*
X211148628Y-185385771D01*
X211291485Y-185457200D01*
X211934342Y-186385771D02*
X211934342Y-184885771D01*
X211934342Y-185457200D02*
X212077200Y-185385771D01*
X212362914Y-185385771D01*
X212505771Y-185457200D01*
X212577200Y-185528628D01*
X212648628Y-185671485D01*
X212648628Y-186100057D01*
X212577200Y-186242914D01*
X212505771Y-186314342D01*
X212362914Y-186385771D01*
X212077200Y-186385771D01*
X211934342Y-186314342D01*
D10*
D11*
X177002200Y-181507200D02*
X285002200Y-181507200D01*
D10*
D11*
X178362914Y-183614342D02*
X178577200Y-183685771D01*
X178934342Y-183685771D01*
X179077200Y-183614342D01*
X179148628Y-183542914D01*
X179220057Y-183400057D01*
X179220057Y-183257200D01*
X179148628Y-183114342D01*
X179077200Y-183042914D01*
X178934342Y-182971485D01*
X178648628Y-182900057D01*
X178505771Y-182828628D01*
X178434342Y-182757200D01*
X178362914Y-182614342D01*
X178362914Y-182471485D01*
X178434342Y-182328628D01*
X178505771Y-182257200D01*
X178648628Y-182185771D01*
X179005771Y-182185771D01*
X179220057Y-182257200D01*
X179862914Y-183685771D02*
X179862914Y-182185771D01*
X180505771Y-183685771D02*
X180505771Y-182900057D01*
X180434342Y-182757200D01*
X180291485Y-182685771D01*
X180077200Y-182685771D01*
X179934342Y-182757200D01*
X179862914Y-182828628D01*
X181791485Y-183614342D02*
X181648628Y-183685771D01*
X181362914Y-183685771D01*
X181220057Y-183614342D01*
X181148628Y-183471485D01*
X181148628Y-182900057D01*
X181220057Y-182757200D01*
X181362914Y-182685771D01*
X181648628Y-182685771D01*
X181791485Y-182757200D01*
X181862914Y-182900057D01*
X181862914Y-183042914D01*
X181148628Y-183185771D01*
X183077200Y-183614342D02*
X182934342Y-183685771D01*
X182648628Y-183685771D01*
X182505771Y-183614342D01*
X182434342Y-183471485D01*
X182434342Y-182900057D01*
X182505771Y-182757200D01*
X182648628Y-182685771D01*
X182934342Y-182685771D01*
X183077200Y-182757200D01*
X183148628Y-182900057D01*
X183148628Y-183042914D01*
X182434342Y-183185771D01*
X183577200Y-182685771D02*
X184148628Y-182685771D01*
X183791485Y-182185771D02*
X183791485Y-183471485D01*
X183862914Y-183614342D01*
X184005771Y-183685771D01*
X184148628Y-183685771D01*
X184648628Y-183542914D02*
X184720057Y-183614342D01*
X184648628Y-183685771D01*
X184577200Y-183614342D01*
X184648628Y-183542914D01*
X184648628Y-183685771D01*
X184648628Y-182757200D02*
X184720057Y-182828628D01*
X184648628Y-182900057D01*
X184577200Y-182828628D01*
X184648628Y-182757200D01*
X184648628Y-182900057D01*
D10*
D11*
X197002200Y-191507200D02*
X197002200Y-194507200D01*
D10*
D11*
X261002200Y-191507200D02*
X261002200Y-198007200D01*
D10*
G36*
X86624504Y-123026204D02*
G01*
X86648773Y-123029804D01*
X86672571Y-123035765D01*
X86695671Y-123044030D01*
X86717849Y-123054520D01*
X86738893Y-123067133D01*
X86758598Y-123081747D01*
X86776777Y-123098223D01*
X86793253Y-123116402D01*
X86807867Y-123136107D01*
X86820480Y-123157151D01*
X86830970Y-123179329D01*
X86839235Y-123202429D01*
X86845196Y-123226227D01*
X86848796Y-123250496D01*
X86850000Y-123275000D01*
X86850000Y-124725000D01*
X86848796Y-124749504D01*
X86845196Y-124773773D01*
X86839235Y-124797571D01*
X86830970Y-124820671D01*
X86820480Y-124842849D01*
X86807867Y-124863893D01*
X86793253Y-124883598D01*
X86776777Y-124901777D01*
X86758598Y-124918253D01*
X86738893Y-124932867D01*
X86717849Y-124945480D01*
X86695671Y-124955970D01*
X86672571Y-124964235D01*
X86648773Y-124970196D01*
X86624504Y-124973796D01*
X86600000Y-124975000D01*
X85400000Y-124975000D01*
X85375496Y-124973796D01*
X85351227Y-124970196D01*
X85327429Y-124964235D01*
X85304329Y-124955970D01*
X85282151Y-124945480D01*
X85261107Y-124932867D01*
X85241402Y-124918253D01*
X85223223Y-124901777D01*
X85206747Y-124883598D01*
X85192133Y-124863893D01*
X85179520Y-124842849D01*
X85169030Y-124820671D01*
X85160765Y-124797571D01*
X85154804Y-124773773D01*
X85151204Y-124749504D01*
X85150000Y-124725000D01*
X85150000Y-123275000D01*
X85151204Y-123250496D01*
X85154804Y-123226227D01*
X85160765Y-123202429D01*
X85169030Y-123179329D01*
X85179520Y-123157151D01*
X85192133Y-123136107D01*
X85206747Y-123116402D01*
X85223223Y-123098223D01*
X85241402Y-123081747D01*
X85261107Y-123067133D01*
X85282151Y-123054520D01*
X85304329Y-123044030D01*
X85327429Y-123035765D01*
X85351227Y-123029804D01*
X85375496Y-123026204D01*
X85400000Y-123025000D01*
X86600000Y-123025000D01*
X86624504Y-123026204D01*
X86624504Y-123026204D01*
G37*
D14*
X86000000Y-124000000D03*
D15*
X88500000Y-124000000D03*
X91000000Y-124000000D03*
X93500000Y-124000000D03*
D16*
X84400000Y-126000000D03*
D17*
X61500000Y-98500000D03*
D18*
X64000000Y-113500000D03*
D19*
X64000000Y-110960000D03*
X64000000Y-108420000D03*
D20*
X89000000Y-99000000D03*
D21*
X83920000Y-99000000D03*
D22*
X74000000Y-126000000D03*
D23*
X76540000Y-126000000D03*
X79080000Y-126000000D03*
D17*
X61500000Y-140500000D03*
D10*
G36*
X89624504Y-111026204D02*
G01*
X89648773Y-111029804D01*
X89672571Y-111035765D01*
X89695671Y-111044030D01*
X89717849Y-111054520D01*
X89738893Y-111067133D01*
X89758598Y-111081747D01*
X89776777Y-111098223D01*
X89793253Y-111116402D01*
X89807867Y-111136107D01*
X89820480Y-111157151D01*
X89830970Y-111179329D01*
X89839235Y-111202429D01*
X89845196Y-111226227D01*
X89848796Y-111250496D01*
X89850000Y-111275000D01*
X89850000Y-112725000D01*
X89848796Y-112749504D01*
X89845196Y-112773773D01*
X89839235Y-112797571D01*
X89830970Y-112820671D01*
X89820480Y-112842849D01*
X89807867Y-112863893D01*
X89793253Y-112883598D01*
X89776777Y-112901777D01*
X89758598Y-112918253D01*
X89738893Y-112932867D01*
X89717849Y-112945480D01*
X89695671Y-112955970D01*
X89672571Y-112964235D01*
X89648773Y-112970196D01*
X89624504Y-112973796D01*
X89600000Y-112975000D01*
X88400000Y-112975000D01*
X88375496Y-112973796D01*
X88351227Y-112970196D01*
X88327429Y-112964235D01*
X88304329Y-112955970D01*
X88282151Y-112945480D01*
X88261107Y-112932867D01*
X88241402Y-112918253D01*
X88223223Y-112901777D01*
X88206747Y-112883598D01*
X88192133Y-112863893D01*
X88179520Y-112842849D01*
X88169030Y-112820671D01*
X88160765Y-112797571D01*
X88154804Y-112773773D01*
X88151204Y-112749504D01*
X88150000Y-112725000D01*
X88150000Y-111275000D01*
X88151204Y-111250496D01*
X88154804Y-111226227D01*
X88160765Y-111202429D01*
X88169030Y-111179329D01*
X88179520Y-111157151D01*
X88192133Y-111136107D01*
X88206747Y-111116402D01*
X88223223Y-111098223D01*
X88241402Y-111081747D01*
X88261107Y-111067133D01*
X88282151Y-111054520D01*
X88304329Y-111044030D01*
X88327429Y-111035765D01*
X88351227Y-111029804D01*
X88375496Y-111026204D01*
X88400000Y-111025000D01*
X89600000Y-111025000D01*
X89624504Y-111026204D01*
X89624504Y-111026204D01*
G37*
D14*
X89000000Y-112000000D03*
D15*
X91500000Y-112000000D03*
X94000000Y-112000000D03*
D16*
X87400000Y-114000000D03*
D17*
X109000000Y-98000000D03*
X109000000Y-140500000D03*
D10*
G36*
X91224504Y-119276204D02*
G01*
X91248773Y-119279804D01*
X91272571Y-119285765D01*
X91295671Y-119294030D01*
X91317849Y-119304520D01*
X91338893Y-119317133D01*
X91358598Y-119331747D01*
X91376777Y-119348223D01*
X91393253Y-119366402D01*
X91407867Y-119386107D01*
X91420480Y-119407151D01*
X91430970Y-119429329D01*
X91439235Y-119452429D01*
X91445196Y-119476227D01*
X91448796Y-119500496D01*
X91450000Y-119525000D01*
X91450000Y-120475000D01*
X91448796Y-120499504D01*
X91445196Y-120523773D01*
X91439235Y-120547571D01*
X91430970Y-120570671D01*
X91420480Y-120592849D01*
X91407867Y-120613893D01*
X91393253Y-120633598D01*
X91376777Y-120651777D01*
X91358598Y-120668253D01*
X91338893Y-120682867D01*
X91317849Y-120695480D01*
X91295671Y-120705970D01*
X91272571Y-120714235D01*
X91248773Y-120720196D01*
X91224504Y-120723796D01*
X91200000Y-120725000D01*
X90700000Y-120725000D01*
X90675496Y-120723796D01*
X90651227Y-120720196D01*
X90627429Y-120714235D01*
X90604329Y-120705970D01*
X90582151Y-120695480D01*
X90561107Y-120682867D01*
X90541402Y-120668253D01*
X90523223Y-120651777D01*
X90506747Y-120633598D01*
X90492133Y-120613893D01*
X90479520Y-120592849D01*
X90469030Y-120570671D01*
X90460765Y-120547571D01*
X90454804Y-120523773D01*
X90451204Y-120499504D01*
X90450000Y-120475000D01*
X90450000Y-119525000D01*
X90451204Y-119500496D01*
X90454804Y-119476227D01*
X90460765Y-119452429D01*
X90469030Y-119429329D01*
X90479520Y-119407151D01*
X90492133Y-119386107D01*
X90506747Y-119366402D01*
X90523223Y-119348223D01*
X90541402Y-119331747D01*
X90561107Y-119317133D01*
X90582151Y-119304520D01*
X90604329Y-119294030D01*
X90627429Y-119285765D01*
X90651227Y-119279804D01*
X90675496Y-119276204D01*
X90700000Y-119275000D01*
X91200000Y-119275000D01*
X91224504Y-119276204D01*
X91224504Y-119276204D01*
G37*
D24*
X90950000Y-120000000D03*
D10*
G36*
X89324504Y-119276204D02*
G01*
X89348773Y-119279804D01*
X89372571Y-119285765D01*
X89395671Y-119294030D01*
X89417849Y-119304520D01*
X89438893Y-119317133D01*
X89458598Y-119331747D01*
X89476777Y-119348223D01*
X89493253Y-119366402D01*
X89507867Y-119386107D01*
X89520480Y-119407151D01*
X89530970Y-119429329D01*
X89539235Y-119452429D01*
X89545196Y-119476227D01*
X89548796Y-119500496D01*
X89550000Y-119525000D01*
X89550000Y-120475000D01*
X89548796Y-120499504D01*
X89545196Y-120523773D01*
X89539235Y-120547571D01*
X89530970Y-120570671D01*
X89520480Y-120592849D01*
X89507867Y-120613893D01*
X89493253Y-120633598D01*
X89476777Y-120651777D01*
X89458598Y-120668253D01*
X89438893Y-120682867D01*
X89417849Y-120695480D01*
X89395671Y-120705970D01*
X89372571Y-120714235D01*
X89348773Y-120720196D01*
X89324504Y-120723796D01*
X89300000Y-120725000D01*
X88800000Y-120725000D01*
X88775496Y-120723796D01*
X88751227Y-120720196D01*
X88727429Y-120714235D01*
X88704329Y-120705970D01*
X88682151Y-120695480D01*
X88661107Y-120682867D01*
X88641402Y-120668253D01*
X88623223Y-120651777D01*
X88606747Y-120633598D01*
X88592133Y-120613893D01*
X88579520Y-120592849D01*
X88569030Y-120570671D01*
X88560765Y-120547571D01*
X88554804Y-120523773D01*
X88551204Y-120499504D01*
X88550000Y-120475000D01*
X88550000Y-119525000D01*
X88551204Y-119500496D01*
X88554804Y-119476227D01*
X88560765Y-119452429D01*
X88569030Y-119429329D01*
X88579520Y-119407151D01*
X88592133Y-119386107D01*
X88606747Y-119366402D01*
X88623223Y-119348223D01*
X88641402Y-119331747D01*
X88661107Y-119317133D01*
X88682151Y-119304520D01*
X88704329Y-119294030D01*
X88727429Y-119285765D01*
X88751227Y-119279804D01*
X88775496Y-119276204D01*
X88800000Y-119275000D01*
X89300000Y-119275000D01*
X89324504Y-119276204D01*
X89324504Y-119276204D01*
G37*
D24*
X89050000Y-120000000D03*
D21*
X68920000Y-99000000D03*
D20*
X74000000Y-99000000D03*
X62500000Y-123000000D03*
D21*
X62500000Y-128080000D03*
D20*
X102500000Y-99000000D03*
D21*
X97420000Y-99000000D03*
X102580000Y-139500000D03*
D20*
X97500000Y-139500000D03*
X68580000Y-139700000D03*
D21*
X73660000Y-139700000D03*
X102000000Y-123920000D03*
D20*
X102000000Y-129000000D03*
D21*
X88080000Y-139700000D03*
D20*
X83000000Y-139700000D03*
D10*
G36*
X99474505Y-112576204D02*
G01*
X99498773Y-112579804D01*
X99522572Y-112585765D01*
X99545671Y-112594030D01*
X99567850Y-112604520D01*
X99588893Y-112617132D01*
X99608599Y-112631747D01*
X99626777Y-112648223D01*
X99643253Y-112666401D01*
X99657868Y-112686107D01*
X99670480Y-112707150D01*
X99680970Y-112729329D01*
X99689235Y-112752428D01*
X99695196Y-112776227D01*
X99698796Y-112800495D01*
X99700000Y-112824999D01*
X99700000Y-113350001D01*
X99698796Y-113374505D01*
X99695196Y-113398773D01*
X99689235Y-113422572D01*
X99680970Y-113445671D01*
X99670480Y-113467850D01*
X99657868Y-113488893D01*
X99643253Y-113508599D01*
X99626777Y-113526777D01*
X99608599Y-113543253D01*
X99588893Y-113557868D01*
X99567850Y-113570480D01*
X99545671Y-113580970D01*
X99522572Y-113589235D01*
X99498773Y-113595196D01*
X99474505Y-113598796D01*
X99450001Y-113600000D01*
X98549999Y-113600000D01*
X98525495Y-113598796D01*
X98501227Y-113595196D01*
X98477428Y-113589235D01*
X98454329Y-113580970D01*
X98432150Y-113570480D01*
X98411107Y-113557868D01*
X98391401Y-113543253D01*
X98373223Y-113526777D01*
X98356747Y-113508599D01*
X98342132Y-113488893D01*
X98329520Y-113467850D01*
X98319030Y-113445671D01*
X98310765Y-113422572D01*
X98304804Y-113398773D01*
X98301204Y-113374505D01*
X98300000Y-113350001D01*
X98300000Y-112824999D01*
X98301204Y-112800495D01*
X98304804Y-112776227D01*
X98310765Y-112752428D01*
X98319030Y-112729329D01*
X98329520Y-112707150D01*
X98342132Y-112686107D01*
X98356747Y-112666401D01*
X98373223Y-112648223D01*
X98391401Y-112631747D01*
X98411107Y-112617132D01*
X98432150Y-112604520D01*
X98454329Y-112594030D01*
X98477428Y-112585765D01*
X98501227Y-112579804D01*
X98525495Y-112576204D01*
X98549999Y-112575000D01*
X99450001Y-112575000D01*
X99474505Y-112576204D01*
X99474505Y-112576204D01*
G37*
D25*
X99000000Y-113087500D03*
D10*
G36*
X99474505Y-114401204D02*
G01*
X99498773Y-114404804D01*
X99522572Y-114410765D01*
X99545671Y-114419030D01*
X99567850Y-114429520D01*
X99588893Y-114442132D01*
X99608599Y-114456747D01*
X99626777Y-114473223D01*
X99643253Y-114491401D01*
X99657868Y-114511107D01*
X99670480Y-114532150D01*
X99680970Y-114554329D01*
X99689235Y-114577428D01*
X99695196Y-114601227D01*
X99698796Y-114625495D01*
X99700000Y-114649999D01*
X99700000Y-115175001D01*
X99698796Y-115199505D01*
X99695196Y-115223773D01*
X99689235Y-115247572D01*
X99680970Y-115270671D01*
X99670480Y-115292850D01*
X99657868Y-115313893D01*
X99643253Y-115333599D01*
X99626777Y-115351777D01*
X99608599Y-115368253D01*
X99588893Y-115382868D01*
X99567850Y-115395480D01*
X99545671Y-115405970D01*
X99522572Y-115414235D01*
X99498773Y-115420196D01*
X99474505Y-115423796D01*
X99450001Y-115425000D01*
X98549999Y-115425000D01*
X98525495Y-115423796D01*
X98501227Y-115420196D01*
X98477428Y-115414235D01*
X98454329Y-115405970D01*
X98432150Y-115395480D01*
X98411107Y-115382868D01*
X98391401Y-115368253D01*
X98373223Y-115351777D01*
X98356747Y-115333599D01*
X98342132Y-115313893D01*
X98329520Y-115292850D01*
X98319030Y-115270671D01*
X98310765Y-115247572D01*
X98304804Y-115223773D01*
X98301204Y-115199505D01*
X98300000Y-115175001D01*
X98300000Y-114649999D01*
X98301204Y-114625495D01*
X98304804Y-114601227D01*
X98310765Y-114577428D01*
X98319030Y-114554329D01*
X98329520Y-114532150D01*
X98342132Y-114511107D01*
X98356747Y-114491401D01*
X98373223Y-114473223D01*
X98391401Y-114456747D01*
X98411107Y-114442132D01*
X98432150Y-114429520D01*
X98454329Y-114419030D01*
X98477428Y-114410765D01*
X98501227Y-114404804D01*
X98525495Y-114401204D01*
X98549999Y-114400000D01*
X99450001Y-114400000D01*
X99474505Y-114401204D01*
X99474505Y-114401204D01*
G37*
D25*
X99000000Y-114912500D03*
D10*
G36*
X84474505Y-119401204D02*
G01*
X84498773Y-119404804D01*
X84522572Y-119410765D01*
X84545671Y-119419030D01*
X84567850Y-119429520D01*
X84588893Y-119442132D01*
X84608599Y-119456747D01*
X84626777Y-119473223D01*
X84643253Y-119491401D01*
X84657868Y-119511107D01*
X84670480Y-119532150D01*
X84680970Y-119554329D01*
X84689235Y-119577428D01*
X84695196Y-119601227D01*
X84698796Y-119625495D01*
X84700000Y-119649999D01*
X84700000Y-120175001D01*
X84698796Y-120199505D01*
X84695196Y-120223773D01*
X84689235Y-120247572D01*
X84680970Y-120270671D01*
X84670480Y-120292850D01*
X84657868Y-120313893D01*
X84643253Y-120333599D01*
X84626777Y-120351777D01*
X84608599Y-120368253D01*
X84588893Y-120382868D01*
X84567850Y-120395480D01*
X84545671Y-120405970D01*
X84522572Y-120414235D01*
X84498773Y-120420196D01*
X84474505Y-120423796D01*
X84450001Y-120425000D01*
X83549999Y-120425000D01*
X83525495Y-120423796D01*
X83501227Y-120420196D01*
X83477428Y-120414235D01*
X83454329Y-120405970D01*
X83432150Y-120395480D01*
X83411107Y-120382868D01*
X83391401Y-120368253D01*
X83373223Y-120351777D01*
X83356747Y-120333599D01*
X83342132Y-120313893D01*
X83329520Y-120292850D01*
X83319030Y-120270671D01*
X83310765Y-120247572D01*
X83304804Y-120223773D01*
X83301204Y-120199505D01*
X83300000Y-120175001D01*
X83300000Y-119649999D01*
X83301204Y-119625495D01*
X83304804Y-119601227D01*
X83310765Y-119577428D01*
X83319030Y-119554329D01*
X83329520Y-119532150D01*
X83342132Y-119511107D01*
X83356747Y-119491401D01*
X83373223Y-119473223D01*
X83391401Y-119456747D01*
X83411107Y-119442132D01*
X83432150Y-119429520D01*
X83454329Y-119419030D01*
X83477428Y-119410765D01*
X83501227Y-119404804D01*
X83525495Y-119401204D01*
X83549999Y-119400000D01*
X84450001Y-119400000D01*
X84474505Y-119401204D01*
X84474505Y-119401204D01*
G37*
D25*
X84000000Y-119912500D03*
D10*
G36*
X84474505Y-117576204D02*
G01*
X84498773Y-117579804D01*
X84522572Y-117585765D01*
X84545671Y-117594030D01*
X84567850Y-117604520D01*
X84588893Y-117617132D01*
X84608599Y-117631747D01*
X84626777Y-117648223D01*
X84643253Y-117666401D01*
X84657868Y-117686107D01*
X84670480Y-117707150D01*
X84680970Y-117729329D01*
X84689235Y-117752428D01*
X84695196Y-117776227D01*
X84698796Y-117800495D01*
X84700000Y-117824999D01*
X84700000Y-118350001D01*
X84698796Y-118374505D01*
X84695196Y-118398773D01*
X84689235Y-118422572D01*
X84680970Y-118445671D01*
X84670480Y-118467850D01*
X84657868Y-118488893D01*
X84643253Y-118508599D01*
X84626777Y-118526777D01*
X84608599Y-118543253D01*
X84588893Y-118557868D01*
X84567850Y-118570480D01*
X84545671Y-118580970D01*
X84522572Y-118589235D01*
X84498773Y-118595196D01*
X84474505Y-118598796D01*
X84450001Y-118600000D01*
X83549999Y-118600000D01*
X83525495Y-118598796D01*
X83501227Y-118595196D01*
X83477428Y-118589235D01*
X83454329Y-118580970D01*
X83432150Y-118570480D01*
X83411107Y-118557868D01*
X83391401Y-118543253D01*
X83373223Y-118526777D01*
X83356747Y-118508599D01*
X83342132Y-118488893D01*
X83329520Y-118467850D01*
X83319030Y-118445671D01*
X83310765Y-118422572D01*
X83304804Y-118398773D01*
X83301204Y-118374505D01*
X83300000Y-118350001D01*
X83300000Y-117824999D01*
X83301204Y-117800495D01*
X83304804Y-117776227D01*
X83310765Y-117752428D01*
X83319030Y-117729329D01*
X83329520Y-117707150D01*
X83342132Y-117686107D01*
X83356747Y-117666401D01*
X83373223Y-117648223D01*
X83391401Y-117631747D01*
X83411107Y-117617132D01*
X83432150Y-117604520D01*
X83454329Y-117594030D01*
X83477428Y-117585765D01*
X83501227Y-117579804D01*
X83525495Y-117576204D01*
X83549999Y-117575000D01*
X84450001Y-117575000D01*
X84474505Y-117576204D01*
X84474505Y-117576204D01*
G37*
D25*
X84000000Y-118087500D03*
M02*
