G04 #@! TF.GenerationSoftware,KiCad,Pcbnew,5.1.5*
G04 #@! TF.CreationDate,2020-03-10T21:27:45+01:00*
G04 #@! TF.ProjectId,carte_PCA9685,63617274-655f-4504-9341-393638352e6b,rev?*
G04 #@! TF.SameCoordinates,Original*
G04 #@! TF.FileFunction,Legend,Top*
G04 #@! TF.FilePolarity,Positive*
%FSLAX46Y46*%
G04 Gerber Fmt 4.6, Leading zero omitted, Abs format (unit mm)*
G04 Created by KiCad (PCBNEW 5.1.5) date 2020-03-10 21:27:45*
%MOMM*%
%LPD*%
G04 APERTURE LIST*
%ADD10C,0.300000*%
%ADD11C,0.150000*%
%ADD12C,0.120000*%
G04 APERTURE END LIST*
D10*
X125809285Y-103107142D02*
X125904523Y-103202380D01*
X125999761Y-103488095D01*
X125999761Y-103678571D01*
X125904523Y-103964285D01*
X125714047Y-104154761D01*
X125523571Y-104250000D01*
X125142619Y-104345238D01*
X124856904Y-104345238D01*
X124475952Y-104250000D01*
X124285476Y-104154761D01*
X124095000Y-103964285D01*
X123999761Y-103678571D01*
X123999761Y-103488095D01*
X124095000Y-103202380D01*
X124190238Y-103107142D01*
X125999761Y-101392857D02*
X124952142Y-101392857D01*
X124761666Y-101488095D01*
X124666428Y-101678571D01*
X124666428Y-102059523D01*
X124761666Y-102250000D01*
X125904523Y-101392857D02*
X125999761Y-101583333D01*
X125999761Y-102059523D01*
X125904523Y-102250000D01*
X125714047Y-102345238D01*
X125523571Y-102345238D01*
X125333095Y-102250000D01*
X125237857Y-102059523D01*
X125237857Y-101583333D01*
X125142619Y-101392857D01*
X125999761Y-100440476D02*
X124666428Y-100440476D01*
X125047380Y-100440476D02*
X124856904Y-100345238D01*
X124761666Y-100250000D01*
X124666428Y-100059523D01*
X124666428Y-99869047D01*
X124666428Y-99488095D02*
X124666428Y-98726190D01*
X123999761Y-99202380D02*
X125714047Y-99202380D01*
X125904523Y-99107142D01*
X125999761Y-98916666D01*
X125999761Y-98726190D01*
X125904523Y-97297619D02*
X125999761Y-97488095D01*
X125999761Y-97869047D01*
X125904523Y-98059523D01*
X125714047Y-98154761D01*
X124952142Y-98154761D01*
X124761666Y-98059523D01*
X124666428Y-97869047D01*
X124666428Y-97488095D01*
X124761666Y-97297619D01*
X124952142Y-97202380D01*
X125142619Y-97202380D01*
X125333095Y-98154761D01*
X125904523Y-94916666D02*
X125999761Y-94726190D01*
X125999761Y-94345238D01*
X125904523Y-94154761D01*
X125714047Y-94059523D01*
X125618809Y-94059523D01*
X125428333Y-94154761D01*
X125333095Y-94345238D01*
X125333095Y-94630952D01*
X125237857Y-94821428D01*
X125047380Y-94916666D01*
X124952142Y-94916666D01*
X124761666Y-94821428D01*
X124666428Y-94630952D01*
X124666428Y-94345238D01*
X124761666Y-94154761D01*
X125904523Y-92440476D02*
X125999761Y-92630952D01*
X125999761Y-93011904D01*
X125904523Y-93202380D01*
X125714047Y-93297619D01*
X124952142Y-93297619D01*
X124761666Y-93202380D01*
X124666428Y-93011904D01*
X124666428Y-92630952D01*
X124761666Y-92440476D01*
X124952142Y-92345238D01*
X125142619Y-92345238D01*
X125333095Y-93297619D01*
X125999761Y-91488095D02*
X124666428Y-91488095D01*
X125047380Y-91488095D02*
X124856904Y-91392857D01*
X124761666Y-91297619D01*
X124666428Y-91107142D01*
X124666428Y-90916666D01*
X124666428Y-90440476D02*
X125999761Y-89964285D01*
X124666428Y-89488095D01*
X125999761Y-88440476D02*
X125904523Y-88630952D01*
X125809285Y-88726190D01*
X125618809Y-88821428D01*
X125047380Y-88821428D01*
X124856904Y-88726190D01*
X124761666Y-88630952D01*
X124666428Y-88440476D01*
X124666428Y-88154761D01*
X124761666Y-87964285D01*
X124856904Y-87869047D01*
X125047380Y-87773809D01*
X125618809Y-87773809D01*
X125809285Y-87869047D01*
X125904523Y-87964285D01*
X125999761Y-88154761D01*
X125999761Y-88440476D01*
X125904523Y-87011904D02*
X125999761Y-86821428D01*
X125999761Y-86440476D01*
X125904523Y-86250000D01*
X125714047Y-86154761D01*
X125618809Y-86154761D01*
X125428333Y-86250000D01*
X125333095Y-86440476D01*
X125333095Y-86726190D01*
X125237857Y-86916666D01*
X125047380Y-87011904D01*
X124952142Y-87011904D01*
X124761666Y-86916666D01*
X124666428Y-86726190D01*
X124666428Y-86440476D01*
X124761666Y-86250000D01*
D11*
X153162095Y-101608000D02*
X153066857Y-101560380D01*
X152924000Y-101560380D01*
X152781142Y-101608000D01*
X152685904Y-101703238D01*
X152638285Y-101798476D01*
X152590666Y-101988952D01*
X152590666Y-102131809D01*
X152638285Y-102322285D01*
X152685904Y-102417523D01*
X152781142Y-102512761D01*
X152924000Y-102560380D01*
X153019238Y-102560380D01*
X153162095Y-102512761D01*
X153209714Y-102465142D01*
X153209714Y-102131809D01*
X153019238Y-102131809D01*
X153638285Y-102560380D02*
X153638285Y-101560380D01*
X154209714Y-102560380D01*
X154209714Y-101560380D01*
X154685904Y-102560380D02*
X154685904Y-101560380D01*
X154924000Y-101560380D01*
X155066857Y-101608000D01*
X155162095Y-101703238D01*
X155209714Y-101798476D01*
X155257333Y-101988952D01*
X155257333Y-102131809D01*
X155209714Y-102322285D01*
X155162095Y-102417523D01*
X155066857Y-102512761D01*
X154924000Y-102560380D01*
X154685904Y-102560380D01*
X161290095Y-61476000D02*
X161194857Y-61428380D01*
X161052000Y-61428380D01*
X160909142Y-61476000D01*
X160813904Y-61571238D01*
X160766285Y-61666476D01*
X160718666Y-61856952D01*
X160718666Y-61999809D01*
X160766285Y-62190285D01*
X160813904Y-62285523D01*
X160909142Y-62380761D01*
X161052000Y-62428380D01*
X161147238Y-62428380D01*
X161290095Y-62380761D01*
X161337714Y-62333142D01*
X161337714Y-61999809D01*
X161147238Y-61999809D01*
X161766285Y-62428380D02*
X161766285Y-61428380D01*
X162337714Y-62428380D01*
X162337714Y-61428380D01*
X162813904Y-62428380D02*
X162813904Y-61428380D01*
X163052000Y-61428380D01*
X163194857Y-61476000D01*
X163290095Y-61571238D01*
X163337714Y-61666476D01*
X163385333Y-61856952D01*
X163385333Y-61999809D01*
X163337714Y-62190285D01*
X163290095Y-62285523D01*
X163194857Y-62380761D01*
X163052000Y-62428380D01*
X162813904Y-62428380D01*
D12*
X163576000Y-66548000D02*
X163576000Y-61468000D01*
X152400000Y-107188000D02*
X152400000Y-99568000D01*
X166624000Y-104648000D02*
X166624000Y-107696000D01*
D11*
X166878095Y-103640000D02*
X166782857Y-103592380D01*
X166640000Y-103592380D01*
X166497142Y-103640000D01*
X166401904Y-103735238D01*
X166354285Y-103830476D01*
X166306666Y-104020952D01*
X166306666Y-104163809D01*
X166354285Y-104354285D01*
X166401904Y-104449523D01*
X166497142Y-104544761D01*
X166640000Y-104592380D01*
X166735238Y-104592380D01*
X166878095Y-104544761D01*
X166925714Y-104497142D01*
X166925714Y-104163809D01*
X166735238Y-104163809D01*
X167354285Y-104592380D02*
X167354285Y-103592380D01*
X167925714Y-104592380D01*
X167925714Y-103592380D01*
X168401904Y-104592380D02*
X168401904Y-103592380D01*
X168640000Y-103592380D01*
X168782857Y-103640000D01*
X168878095Y-103735238D01*
X168925714Y-103830476D01*
X168973333Y-104020952D01*
X168973333Y-104163809D01*
X168925714Y-104354285D01*
X168878095Y-104449523D01*
X168782857Y-104544761D01*
X168640000Y-104592380D01*
X168401904Y-104592380D01*
X136906095Y-111768000D02*
X136810857Y-111720380D01*
X136668000Y-111720380D01*
X136525142Y-111768000D01*
X136429904Y-111863238D01*
X136382285Y-111958476D01*
X136334666Y-112148952D01*
X136334666Y-112291809D01*
X136382285Y-112482285D01*
X136429904Y-112577523D01*
X136525142Y-112672761D01*
X136668000Y-112720380D01*
X136763238Y-112720380D01*
X136906095Y-112672761D01*
X136953714Y-112625142D01*
X136953714Y-112291809D01*
X136763238Y-112291809D01*
X137382285Y-112720380D02*
X137382285Y-111720380D01*
X137953714Y-112720380D01*
X137953714Y-111720380D01*
X138429904Y-112720380D02*
X138429904Y-111720380D01*
X138668000Y-111720380D01*
X138810857Y-111768000D01*
X138906095Y-111863238D01*
X138953714Y-111958476D01*
X139001333Y-112148952D01*
X139001333Y-112291809D01*
X138953714Y-112482285D01*
X138906095Y-112577523D01*
X138810857Y-112672761D01*
X138668000Y-112720380D01*
X138429904Y-112720380D01*
D12*
X136144000Y-107696000D02*
X136144000Y-112776000D01*
X136144000Y-107696000D02*
X136144000Y-61976000D01*
X158430000Y-63920000D02*
X158430000Y-69890000D01*
X158430000Y-69890000D02*
X171050000Y-69890000D01*
X171050000Y-69890000D02*
X171050000Y-63920000D01*
X171050000Y-63920000D02*
X158430000Y-63920000D01*
X161740000Y-63930000D02*
X161740000Y-64680000D01*
X161740000Y-64680000D02*
X167740000Y-64680000D01*
X167740000Y-64680000D02*
X167740000Y-63930000D01*
X167740000Y-63930000D02*
X161740000Y-63930000D01*
X158440000Y-63930000D02*
X158440000Y-64680000D01*
X158440000Y-64680000D02*
X160240000Y-64680000D01*
X160240000Y-64680000D02*
X160240000Y-63930000D01*
X160240000Y-63930000D02*
X158440000Y-63930000D01*
X169240000Y-63930000D02*
X169240000Y-64680000D01*
X169240000Y-64680000D02*
X171040000Y-64680000D01*
X171040000Y-64680000D02*
X171040000Y-63930000D01*
X171040000Y-63930000D02*
X169240000Y-63930000D01*
X158440000Y-66180000D02*
X159190000Y-66180000D01*
X159190000Y-66180000D02*
X159190000Y-69130000D01*
X159190000Y-69130000D02*
X164740000Y-69130000D01*
X171040000Y-66180000D02*
X170290000Y-66180000D01*
X170290000Y-66180000D02*
X170290000Y-69130000D01*
X170290000Y-69130000D02*
X164740000Y-69130000D01*
X159390000Y-63630000D02*
X158140000Y-63630000D01*
X158140000Y-63630000D02*
X158140000Y-64880000D01*
D11*
X147535000Y-78845000D02*
X147535000Y-79070000D01*
X152185000Y-78845000D02*
X152185000Y-79170000D01*
X152185000Y-88795000D02*
X152185000Y-88470000D01*
X147535000Y-88795000D02*
X147535000Y-88470000D01*
X147535000Y-78845000D02*
X152185000Y-78845000D01*
X147535000Y-88795000D02*
X152185000Y-88795000D01*
X147535000Y-79070000D02*
X146460000Y-79070000D01*
D12*
X144720000Y-66185000D02*
X142720000Y-66185000D01*
X144720000Y-63385000D02*
X144720000Y-66185000D01*
X142720000Y-63385000D02*
X144720000Y-63385000D01*
X142720000Y-66185000D02*
X142720000Y-63385000D01*
X144398922Y-71300000D02*
X144916078Y-71300000D01*
X144398922Y-69880000D02*
X144916078Y-69880000D01*
X150733000Y-66164000D02*
X150733000Y-68964000D01*
X150733000Y-68964000D02*
X148733000Y-68964000D01*
X148733000Y-68964000D02*
X148733000Y-66164000D01*
X148733000Y-66164000D02*
X150733000Y-66164000D01*
X150083733Y-76710000D02*
X150426267Y-76710000D01*
X150083733Y-75690000D02*
X150426267Y-75690000D01*
X149058578Y-72902500D02*
X148541422Y-72902500D01*
X149058578Y-71482500D02*
X148541422Y-71482500D01*
X181219000Y-50996540D02*
G75*
G03X178699000Y-50996540I-1260000J4962540D01*
G01*
X174879000Y-46034000D02*
X185039000Y-46034000D01*
X174879000Y-45994000D02*
X185039000Y-45994000D01*
X174879000Y-45954000D02*
X185039000Y-45954000D01*
X174880000Y-45914000D02*
X185038000Y-45914000D01*
X174881000Y-45874000D02*
X185037000Y-45874000D01*
X174882000Y-45834000D02*
X185036000Y-45834000D01*
X174884000Y-45794000D02*
X185034000Y-45794000D01*
X174886000Y-45754000D02*
X185032000Y-45754000D01*
X174889000Y-45714000D02*
X185029000Y-45714000D01*
X174891000Y-45674000D02*
X185027000Y-45674000D01*
X174894000Y-45634000D02*
X185024000Y-45634000D01*
X174897000Y-45594000D02*
X185021000Y-45594000D01*
X174901000Y-45554000D02*
X185017000Y-45554000D01*
X174905000Y-45514000D02*
X185013000Y-45514000D01*
X174909000Y-45474000D02*
X185009000Y-45474000D01*
X174914000Y-45434000D02*
X185004000Y-45434000D01*
X174919000Y-45394000D02*
X184999000Y-45394000D01*
X174924000Y-45354000D02*
X184994000Y-45354000D01*
X174929000Y-45313000D02*
X184989000Y-45313000D01*
X174935000Y-45273000D02*
X184983000Y-45273000D01*
X174941000Y-45233000D02*
X184977000Y-45233000D01*
X174948000Y-45193000D02*
X184970000Y-45193000D01*
X174955000Y-45153000D02*
X184963000Y-45153000D01*
X174962000Y-45113000D02*
X184956000Y-45113000D01*
X174969000Y-45073000D02*
X184949000Y-45073000D01*
X174977000Y-45033000D02*
X184941000Y-45033000D01*
X174985000Y-44993000D02*
X184933000Y-44993000D01*
X174994000Y-44953000D02*
X184924000Y-44953000D01*
X175003000Y-44913000D02*
X184915000Y-44913000D01*
X175012000Y-44873000D02*
X184906000Y-44873000D01*
X175021000Y-44833000D02*
X184897000Y-44833000D01*
X175031000Y-44793000D02*
X184887000Y-44793000D01*
X175041000Y-44753000D02*
X184877000Y-44753000D01*
X175052000Y-44713000D02*
X184866000Y-44713000D01*
X175062000Y-44673000D02*
X184856000Y-44673000D01*
X175074000Y-44633000D02*
X184844000Y-44633000D01*
X175085000Y-44593000D02*
X184833000Y-44593000D01*
X175097000Y-44553000D02*
X184821000Y-44553000D01*
X175109000Y-44513000D02*
X184809000Y-44513000D01*
X175122000Y-44473000D02*
X184796000Y-44473000D01*
X175135000Y-44433000D02*
X184783000Y-44433000D01*
X175148000Y-44393000D02*
X184770000Y-44393000D01*
X175162000Y-44353000D02*
X184756000Y-44353000D01*
X175176000Y-44313000D02*
X184742000Y-44313000D01*
X175191000Y-44273000D02*
X184727000Y-44273000D01*
X175205000Y-44233000D02*
X184713000Y-44233000D01*
X175221000Y-44193000D02*
X184697000Y-44193000D01*
X175236000Y-44153000D02*
X184682000Y-44153000D01*
X175252000Y-44113000D02*
X184666000Y-44113000D01*
X175269000Y-44073000D02*
X184649000Y-44073000D01*
X175285000Y-44033000D02*
X184633000Y-44033000D01*
X175302000Y-43993000D02*
X184616000Y-43993000D01*
X175320000Y-43953000D02*
X184598000Y-43953000D01*
X175338000Y-43913000D02*
X184580000Y-43913000D01*
X175356000Y-43873000D02*
X184562000Y-43873000D01*
X175375000Y-43833000D02*
X184543000Y-43833000D01*
X175395000Y-43793000D02*
X184523000Y-43793000D01*
X175414000Y-43753000D02*
X184504000Y-43753000D01*
X175434000Y-43713000D02*
X184484000Y-43713000D01*
X175455000Y-43673000D02*
X184463000Y-43673000D01*
X175476000Y-43633000D02*
X184442000Y-43633000D01*
X175497000Y-43593000D02*
X184421000Y-43593000D01*
X175519000Y-43553000D02*
X184399000Y-43553000D01*
X175542000Y-43513000D02*
X178718000Y-43513000D01*
X181200000Y-43513000D02*
X184376000Y-43513000D01*
X175564000Y-43473000D02*
X178718000Y-43473000D01*
X181200000Y-43473000D02*
X184354000Y-43473000D01*
X175588000Y-43433000D02*
X178718000Y-43433000D01*
X181200000Y-43433000D02*
X184330000Y-43433000D01*
X175612000Y-43393000D02*
X178718000Y-43393000D01*
X181200000Y-43393000D02*
X184306000Y-43393000D01*
X175636000Y-43353000D02*
X178718000Y-43353000D01*
X181200000Y-43353000D02*
X184282000Y-43353000D01*
X175661000Y-43313000D02*
X178718000Y-43313000D01*
X181200000Y-43313000D02*
X184257000Y-43313000D01*
X175686000Y-43273000D02*
X178718000Y-43273000D01*
X181200000Y-43273000D02*
X184232000Y-43273000D01*
X175712000Y-43233000D02*
X178718000Y-43233000D01*
X181200000Y-43233000D02*
X184206000Y-43233000D01*
X175738000Y-43193000D02*
X178718000Y-43193000D01*
X181200000Y-43193000D02*
X184180000Y-43193000D01*
X175765000Y-43153000D02*
X178718000Y-43153000D01*
X181200000Y-43153000D02*
X184153000Y-43153000D01*
X175793000Y-43113000D02*
X178718000Y-43113000D01*
X181200000Y-43113000D02*
X184125000Y-43113000D01*
X175821000Y-43073000D02*
X178718000Y-43073000D01*
X181200000Y-43073000D02*
X184097000Y-43073000D01*
X175849000Y-43033000D02*
X178718000Y-43033000D01*
X181200000Y-43033000D02*
X184069000Y-43033000D01*
X175879000Y-42993000D02*
X178718000Y-42993000D01*
X181200000Y-42993000D02*
X184039000Y-42993000D01*
X175909000Y-42953000D02*
X178718000Y-42953000D01*
X181200000Y-42953000D02*
X184009000Y-42953000D01*
X175939000Y-42913000D02*
X178718000Y-42913000D01*
X181200000Y-42913000D02*
X183979000Y-42913000D01*
X175970000Y-42873000D02*
X178718000Y-42873000D01*
X181200000Y-42873000D02*
X183948000Y-42873000D01*
X176002000Y-42833000D02*
X178718000Y-42833000D01*
X181200000Y-42833000D02*
X183916000Y-42833000D01*
X176034000Y-42793000D02*
X178718000Y-42793000D01*
X181200000Y-42793000D02*
X183884000Y-42793000D01*
X176067000Y-42753000D02*
X178718000Y-42753000D01*
X181200000Y-42753000D02*
X183851000Y-42753000D01*
X176101000Y-42713000D02*
X178718000Y-42713000D01*
X181200000Y-42713000D02*
X183817000Y-42713000D01*
X176135000Y-42673000D02*
X178718000Y-42673000D01*
X181200000Y-42673000D02*
X183783000Y-42673000D01*
X176170000Y-42633000D02*
X178718000Y-42633000D01*
X181200000Y-42633000D02*
X183748000Y-42633000D01*
X176206000Y-42593000D02*
X178718000Y-42593000D01*
X181200000Y-42593000D02*
X183712000Y-42593000D01*
X176243000Y-42553000D02*
X178718000Y-42553000D01*
X181200000Y-42553000D02*
X183675000Y-42553000D01*
X176280000Y-42513000D02*
X178718000Y-42513000D01*
X181200000Y-42513000D02*
X183638000Y-42513000D01*
X176319000Y-42473000D02*
X178718000Y-42473000D01*
X181200000Y-42473000D02*
X183599000Y-42473000D01*
X176358000Y-42433000D02*
X178718000Y-42433000D01*
X181200000Y-42433000D02*
X183560000Y-42433000D01*
X176398000Y-42393000D02*
X178718000Y-42393000D01*
X181200000Y-42393000D02*
X183520000Y-42393000D01*
X176439000Y-42353000D02*
X178718000Y-42353000D01*
X181200000Y-42353000D02*
X183479000Y-42353000D01*
X176481000Y-42313000D02*
X178718000Y-42313000D01*
X181200000Y-42313000D02*
X183437000Y-42313000D01*
X176523000Y-42273000D02*
X178718000Y-42273000D01*
X181200000Y-42273000D02*
X183395000Y-42273000D01*
X176567000Y-42233000D02*
X178718000Y-42233000D01*
X181200000Y-42233000D02*
X183351000Y-42233000D01*
X176612000Y-42193000D02*
X178718000Y-42193000D01*
X181200000Y-42193000D02*
X183306000Y-42193000D01*
X176658000Y-42153000D02*
X178718000Y-42153000D01*
X181200000Y-42153000D02*
X183260000Y-42153000D01*
X176705000Y-42113000D02*
X178718000Y-42113000D01*
X181200000Y-42113000D02*
X183213000Y-42113000D01*
X176753000Y-42073000D02*
X178718000Y-42073000D01*
X181200000Y-42073000D02*
X183165000Y-42073000D01*
X176803000Y-42033000D02*
X178718000Y-42033000D01*
X181200000Y-42033000D02*
X183115000Y-42033000D01*
X176853000Y-41993000D02*
X178718000Y-41993000D01*
X181200000Y-41993000D02*
X183065000Y-41993000D01*
X176905000Y-41953000D02*
X178718000Y-41953000D01*
X181200000Y-41953000D02*
X183013000Y-41953000D01*
X176959000Y-41913000D02*
X178718000Y-41913000D01*
X181200000Y-41913000D02*
X182959000Y-41913000D01*
X177014000Y-41873000D02*
X178718000Y-41873000D01*
X181200000Y-41873000D02*
X182904000Y-41873000D01*
X177070000Y-41833000D02*
X178718000Y-41833000D01*
X181200000Y-41833000D02*
X182848000Y-41833000D01*
X177129000Y-41793000D02*
X178718000Y-41793000D01*
X181200000Y-41793000D02*
X182789000Y-41793000D01*
X177189000Y-41753000D02*
X178718000Y-41753000D01*
X181200000Y-41753000D02*
X182729000Y-41753000D01*
X177250000Y-41713000D02*
X178718000Y-41713000D01*
X181200000Y-41713000D02*
X182668000Y-41713000D01*
X177314000Y-41673000D02*
X178718000Y-41673000D01*
X181200000Y-41673000D02*
X182604000Y-41673000D01*
X177380000Y-41633000D02*
X178718000Y-41633000D01*
X181200000Y-41633000D02*
X182538000Y-41633000D01*
X177449000Y-41593000D02*
X178718000Y-41593000D01*
X181200000Y-41593000D02*
X182469000Y-41593000D01*
X177520000Y-41553000D02*
X178718000Y-41553000D01*
X181200000Y-41553000D02*
X182398000Y-41553000D01*
X177594000Y-41513000D02*
X178718000Y-41513000D01*
X181200000Y-41513000D02*
X182324000Y-41513000D01*
X177670000Y-41473000D02*
X178718000Y-41473000D01*
X181200000Y-41473000D02*
X182248000Y-41473000D01*
X177750000Y-41433000D02*
X178718000Y-41433000D01*
X181200000Y-41433000D02*
X182168000Y-41433000D01*
X177834000Y-41393000D02*
X178718000Y-41393000D01*
X181200000Y-41393000D02*
X182084000Y-41393000D01*
X177922000Y-41353000D02*
X178718000Y-41353000D01*
X181200000Y-41353000D02*
X181996000Y-41353000D01*
X178015000Y-41313000D02*
X178718000Y-41313000D01*
X181200000Y-41313000D02*
X181903000Y-41313000D01*
X178113000Y-41273000D02*
X178718000Y-41273000D01*
X181200000Y-41273000D02*
X181805000Y-41273000D01*
X178217000Y-41233000D02*
X178718000Y-41233000D01*
X181200000Y-41233000D02*
X181701000Y-41233000D01*
X178329000Y-41193000D02*
X178718000Y-41193000D01*
X181200000Y-41193000D02*
X181589000Y-41193000D01*
X178449000Y-41153000D02*
X178718000Y-41153000D01*
X181200000Y-41153000D02*
X181469000Y-41153000D01*
X178581000Y-41113000D02*
X178718000Y-41113000D01*
X181200000Y-41113000D02*
X181337000Y-41113000D01*
X178897000Y-41033000D02*
X181021000Y-41033000D01*
X179097000Y-40993000D02*
X180821000Y-40993000D01*
X179360000Y-40953000D02*
X180558000Y-40953000D01*
X177084000Y-51513646D02*
X177084000Y-50513646D01*
X176584000Y-51013646D02*
X177584000Y-51013646D01*
X150337733Y-93470000D02*
X150680267Y-93470000D01*
X150337733Y-94490000D02*
X150680267Y-94490000D01*
X173246110Y-31998566D02*
G75*
G02X175242000Y-31997000I997890J70566D01*
G01*
X176804085Y-32270233D02*
G75*
G02X178684000Y-32270000I939915J342233D01*
G01*
X171934000Y-34629000D02*
X172704000Y-34629000D01*
X175784000Y-34629000D02*
X176611000Y-34629000D01*
X178878000Y-34629000D02*
X180054000Y-34629000D01*
X171934000Y-29768000D02*
X180054000Y-29768000D01*
X171934000Y-38188000D02*
X180054000Y-38188000D01*
X171934000Y-29768000D02*
X171934000Y-38188000D01*
X180054000Y-29768000D02*
X180054000Y-38188000D01*
X172844000Y-30528000D02*
X175644000Y-30528000D01*
X172844000Y-30528000D02*
X172844000Y-31988000D01*
X175644000Y-30528000D02*
X175644000Y-31988000D01*
X176344000Y-30528000D02*
X179144000Y-30528000D01*
X176344000Y-34278000D02*
X176345000Y-34278000D01*
X179144000Y-34278000D02*
X179144000Y-34278000D01*
X176344000Y-30528000D02*
X176344000Y-32839000D01*
X176344000Y-34217000D02*
X176344000Y-34278000D01*
X179144000Y-30528000D02*
X179144000Y-32839000D01*
X179144000Y-34217000D02*
X179144000Y-34278000D01*
X171694000Y-36188000D02*
X171694000Y-38428000D01*
X171694000Y-38428000D02*
X173694000Y-38428000D01*
X183154000Y-60499000D02*
X183154000Y-54529000D01*
X183154000Y-54529000D02*
X175534000Y-54529000D01*
X175534000Y-54529000D02*
X175534000Y-60499000D01*
X175534000Y-60499000D02*
X183154000Y-60499000D01*
X179844000Y-60489000D02*
X179844000Y-59739000D01*
X179844000Y-59739000D02*
X178844000Y-59739000D01*
X178844000Y-59739000D02*
X178844000Y-60489000D01*
X178844000Y-60489000D02*
X179844000Y-60489000D01*
X183144000Y-60489000D02*
X183144000Y-59739000D01*
X183144000Y-59739000D02*
X181344000Y-59739000D01*
X181344000Y-59739000D02*
X181344000Y-60489000D01*
X181344000Y-60489000D02*
X183144000Y-60489000D01*
X177344000Y-60489000D02*
X177344000Y-59739000D01*
X177344000Y-59739000D02*
X175544000Y-59739000D01*
X175544000Y-59739000D02*
X175544000Y-60489000D01*
X175544000Y-60489000D02*
X177344000Y-60489000D01*
X183144000Y-58239000D02*
X182394000Y-58239000D01*
X182394000Y-58239000D02*
X182394000Y-55289000D01*
X182394000Y-55289000D02*
X179344000Y-55289000D01*
X175544000Y-58239000D02*
X176294000Y-58239000D01*
X176294000Y-58239000D02*
X176294000Y-55289000D01*
X176294000Y-55289000D02*
X179344000Y-55289000D01*
X182194000Y-60789000D02*
X183444000Y-60789000D01*
X183444000Y-60789000D02*
X183444000Y-59539000D01*
X183154000Y-110664000D02*
X183154000Y-104694000D01*
X183154000Y-104694000D02*
X175534000Y-104694000D01*
X175534000Y-104694000D02*
X175534000Y-110664000D01*
X175534000Y-110664000D02*
X183154000Y-110664000D01*
X179844000Y-110654000D02*
X179844000Y-109904000D01*
X179844000Y-109904000D02*
X178844000Y-109904000D01*
X178844000Y-109904000D02*
X178844000Y-110654000D01*
X178844000Y-110654000D02*
X179844000Y-110654000D01*
X183144000Y-110654000D02*
X183144000Y-109904000D01*
X183144000Y-109904000D02*
X181344000Y-109904000D01*
X181344000Y-109904000D02*
X181344000Y-110654000D01*
X181344000Y-110654000D02*
X183144000Y-110654000D01*
X177344000Y-110654000D02*
X177344000Y-109904000D01*
X177344000Y-109904000D02*
X175544000Y-109904000D01*
X175544000Y-109904000D02*
X175544000Y-110654000D01*
X175544000Y-110654000D02*
X177344000Y-110654000D01*
X183144000Y-108404000D02*
X182394000Y-108404000D01*
X182394000Y-108404000D02*
X182394000Y-105454000D01*
X182394000Y-105454000D02*
X179344000Y-105454000D01*
X175544000Y-108404000D02*
X176294000Y-108404000D01*
X176294000Y-108404000D02*
X176294000Y-105454000D01*
X176294000Y-105454000D02*
X179344000Y-105454000D01*
X182194000Y-110954000D02*
X183444000Y-110954000D01*
X183444000Y-110954000D02*
X183444000Y-109704000D01*
X183444000Y-100794000D02*
X183444000Y-99544000D01*
X182194000Y-100794000D02*
X183444000Y-100794000D01*
X176294000Y-95294000D02*
X179344000Y-95294000D01*
X176294000Y-98244000D02*
X176294000Y-95294000D01*
X175544000Y-98244000D02*
X176294000Y-98244000D01*
X182394000Y-95294000D02*
X179344000Y-95294000D01*
X182394000Y-98244000D02*
X182394000Y-95294000D01*
X183144000Y-98244000D02*
X182394000Y-98244000D01*
X175544000Y-100494000D02*
X177344000Y-100494000D01*
X175544000Y-99744000D02*
X175544000Y-100494000D01*
X177344000Y-99744000D02*
X175544000Y-99744000D01*
X177344000Y-100494000D02*
X177344000Y-99744000D01*
X181344000Y-100494000D02*
X183144000Y-100494000D01*
X181344000Y-99744000D02*
X181344000Y-100494000D01*
X183144000Y-99744000D02*
X181344000Y-99744000D01*
X183144000Y-100494000D02*
X183144000Y-99744000D01*
X178844000Y-100494000D02*
X179844000Y-100494000D01*
X178844000Y-99744000D02*
X178844000Y-100494000D01*
X179844000Y-99744000D02*
X178844000Y-99744000D01*
X179844000Y-100494000D02*
X179844000Y-99744000D01*
X175534000Y-100504000D02*
X183154000Y-100504000D01*
X175534000Y-94534000D02*
X175534000Y-100504000D01*
X183154000Y-94534000D02*
X175534000Y-94534000D01*
X183154000Y-100504000D02*
X183154000Y-94534000D01*
X183444000Y-90634000D02*
X183444000Y-89384000D01*
X182194000Y-90634000D02*
X183444000Y-90634000D01*
X176294000Y-85134000D02*
X179344000Y-85134000D01*
X176294000Y-88084000D02*
X176294000Y-85134000D01*
X175544000Y-88084000D02*
X176294000Y-88084000D01*
X182394000Y-85134000D02*
X179344000Y-85134000D01*
X182394000Y-88084000D02*
X182394000Y-85134000D01*
X183144000Y-88084000D02*
X182394000Y-88084000D01*
X175544000Y-90334000D02*
X177344000Y-90334000D01*
X175544000Y-89584000D02*
X175544000Y-90334000D01*
X177344000Y-89584000D02*
X175544000Y-89584000D01*
X177344000Y-90334000D02*
X177344000Y-89584000D01*
X181344000Y-90334000D02*
X183144000Y-90334000D01*
X181344000Y-89584000D02*
X181344000Y-90334000D01*
X183144000Y-89584000D02*
X181344000Y-89584000D01*
X183144000Y-90334000D02*
X183144000Y-89584000D01*
X178844000Y-90334000D02*
X179844000Y-90334000D01*
X178844000Y-89584000D02*
X178844000Y-90334000D01*
X179844000Y-89584000D02*
X178844000Y-89584000D01*
X179844000Y-90334000D02*
X179844000Y-89584000D01*
X175534000Y-90344000D02*
X183154000Y-90344000D01*
X175534000Y-84374000D02*
X175534000Y-90344000D01*
X183154000Y-84374000D02*
X175534000Y-84374000D01*
X183154000Y-90344000D02*
X183154000Y-84374000D01*
X183444000Y-80474000D02*
X183444000Y-79224000D01*
X182194000Y-80474000D02*
X183444000Y-80474000D01*
X176294000Y-74974000D02*
X179344000Y-74974000D01*
X176294000Y-77924000D02*
X176294000Y-74974000D01*
X175544000Y-77924000D02*
X176294000Y-77924000D01*
X182394000Y-74974000D02*
X179344000Y-74974000D01*
X182394000Y-77924000D02*
X182394000Y-74974000D01*
X183144000Y-77924000D02*
X182394000Y-77924000D01*
X175544000Y-80174000D02*
X177344000Y-80174000D01*
X175544000Y-79424000D02*
X175544000Y-80174000D01*
X177344000Y-79424000D02*
X175544000Y-79424000D01*
X177344000Y-80174000D02*
X177344000Y-79424000D01*
X181344000Y-80174000D02*
X183144000Y-80174000D01*
X181344000Y-79424000D02*
X181344000Y-80174000D01*
X183144000Y-79424000D02*
X181344000Y-79424000D01*
X183144000Y-80174000D02*
X183144000Y-79424000D01*
X178844000Y-80174000D02*
X179844000Y-80174000D01*
X178844000Y-79424000D02*
X178844000Y-80174000D01*
X179844000Y-79424000D02*
X178844000Y-79424000D01*
X179844000Y-80174000D02*
X179844000Y-79424000D01*
X175534000Y-80184000D02*
X183154000Y-80184000D01*
X175534000Y-74214000D02*
X175534000Y-80184000D01*
X183154000Y-74214000D02*
X175534000Y-74214000D01*
X183154000Y-80184000D02*
X183154000Y-74214000D01*
X183154000Y-70024000D02*
X183154000Y-64054000D01*
X183154000Y-64054000D02*
X175534000Y-64054000D01*
X175534000Y-64054000D02*
X175534000Y-70024000D01*
X175534000Y-70024000D02*
X183154000Y-70024000D01*
X179844000Y-70014000D02*
X179844000Y-69264000D01*
X179844000Y-69264000D02*
X178844000Y-69264000D01*
X178844000Y-69264000D02*
X178844000Y-70014000D01*
X178844000Y-70014000D02*
X179844000Y-70014000D01*
X183144000Y-70014000D02*
X183144000Y-69264000D01*
X183144000Y-69264000D02*
X181344000Y-69264000D01*
X181344000Y-69264000D02*
X181344000Y-70014000D01*
X181344000Y-70014000D02*
X183144000Y-70014000D01*
X177344000Y-70014000D02*
X177344000Y-69264000D01*
X177344000Y-69264000D02*
X175544000Y-69264000D01*
X175544000Y-69264000D02*
X175544000Y-70014000D01*
X175544000Y-70014000D02*
X177344000Y-70014000D01*
X183144000Y-67764000D02*
X182394000Y-67764000D01*
X182394000Y-67764000D02*
X182394000Y-64814000D01*
X182394000Y-64814000D02*
X179344000Y-64814000D01*
X175544000Y-67764000D02*
X176294000Y-67764000D01*
X176294000Y-67764000D02*
X176294000Y-64814000D01*
X176294000Y-64814000D02*
X179344000Y-64814000D01*
X182194000Y-70314000D02*
X183444000Y-70314000D01*
X183444000Y-70314000D02*
X183444000Y-69064000D01*
X171110000Y-56220000D02*
X128610000Y-56220000D01*
X128610000Y-56220000D02*
X128610000Y-35220000D01*
X128610000Y-35220000D02*
X171110000Y-35220000D01*
X171110000Y-35220000D02*
X171110000Y-56220000D01*
X165560000Y-75580000D02*
X165560000Y-74650000D01*
X165560000Y-72420000D02*
X165560000Y-73350000D01*
X165560000Y-72420000D02*
X163400000Y-72420000D01*
X165560000Y-75580000D02*
X164100000Y-75580000D01*
X165390000Y-100660000D02*
X165390000Y-99730000D01*
X165390000Y-97500000D02*
X165390000Y-98430000D01*
X165390000Y-97500000D02*
X163230000Y-97500000D01*
X165390000Y-100660000D02*
X163930000Y-100660000D01*
X165390000Y-95580000D02*
X165390000Y-94650000D01*
X165390000Y-92420000D02*
X165390000Y-93350000D01*
X165390000Y-92420000D02*
X163230000Y-92420000D01*
X165390000Y-95580000D02*
X163930000Y-95580000D01*
X165390000Y-90500000D02*
X163930000Y-90500000D01*
X165390000Y-87340000D02*
X163230000Y-87340000D01*
X165390000Y-87340000D02*
X165390000Y-88270000D01*
X165390000Y-90500000D02*
X165390000Y-89570000D01*
X165390000Y-85420000D02*
X163930000Y-85420000D01*
X165390000Y-82260000D02*
X163230000Y-82260000D01*
X165390000Y-82260000D02*
X165390000Y-83190000D01*
X165390000Y-85420000D02*
X165390000Y-84490000D01*
X165390000Y-80340000D02*
X163930000Y-80340000D01*
X165390000Y-77180000D02*
X163230000Y-77180000D01*
X165390000Y-77180000D02*
X165390000Y-78110000D01*
X165390000Y-80340000D02*
X165390000Y-79410000D01*
X129520000Y-60590000D02*
X129520000Y-63250000D01*
X134660000Y-60590000D02*
X129520000Y-60590000D01*
X134660000Y-63250000D02*
X129520000Y-63250000D01*
X134660000Y-60590000D02*
X134660000Y-63250000D01*
X135930000Y-60590000D02*
X137260000Y-60590000D01*
X137260000Y-60590000D02*
X137260000Y-61920000D01*
X129520000Y-67758000D02*
X129520000Y-70418000D01*
X134660000Y-67758000D02*
X129520000Y-67758000D01*
X134660000Y-70418000D02*
X129520000Y-70418000D01*
X134660000Y-67758000D02*
X134660000Y-70418000D01*
X135930000Y-67758000D02*
X137260000Y-67758000D01*
X137260000Y-67758000D02*
X137260000Y-69088000D01*
X137260000Y-75886000D02*
X137260000Y-77216000D01*
X135930000Y-75886000D02*
X137260000Y-75886000D01*
X134660000Y-75886000D02*
X134660000Y-78546000D01*
X134660000Y-78546000D02*
X129520000Y-78546000D01*
X134660000Y-75886000D02*
X129520000Y-75886000D01*
X129520000Y-75886000D02*
X129520000Y-78546000D01*
X129520000Y-83506000D02*
X129520000Y-86166000D01*
X134660000Y-83506000D02*
X129520000Y-83506000D01*
X134660000Y-86166000D02*
X129520000Y-86166000D01*
X134660000Y-83506000D02*
X134660000Y-86166000D01*
X135930000Y-83506000D02*
X137260000Y-83506000D01*
X137260000Y-83506000D02*
X137260000Y-84836000D01*
X137260000Y-91126000D02*
X137260000Y-92456000D01*
X135930000Y-91126000D02*
X137260000Y-91126000D01*
X134660000Y-91126000D02*
X134660000Y-93786000D01*
X134660000Y-93786000D02*
X129520000Y-93786000D01*
X134660000Y-91126000D02*
X129520000Y-91126000D01*
X129520000Y-91126000D02*
X129520000Y-93786000D01*
X137260000Y-98746000D02*
X137260000Y-100076000D01*
X135930000Y-98746000D02*
X137260000Y-98746000D01*
X134660000Y-98746000D02*
X134660000Y-101406000D01*
X134660000Y-101406000D02*
X129520000Y-101406000D01*
X134660000Y-98746000D02*
X129520000Y-98746000D01*
X129520000Y-98746000D02*
X129520000Y-101406000D01*
X129520000Y-106366000D02*
X129520000Y-109026000D01*
X134660000Y-106366000D02*
X129520000Y-106366000D01*
X134660000Y-109026000D02*
X129520000Y-109026000D01*
X134660000Y-106366000D02*
X134660000Y-109026000D01*
X135930000Y-106366000D02*
X137260000Y-106366000D01*
X137260000Y-106366000D02*
X137260000Y-107696000D01*
X145482000Y-105858000D02*
X145482000Y-108518000D01*
X150622000Y-105858000D02*
X145482000Y-105858000D01*
X150622000Y-108518000D02*
X145482000Y-108518000D01*
X150622000Y-105858000D02*
X150622000Y-108518000D01*
X151892000Y-105858000D02*
X153222000Y-105858000D01*
X153222000Y-105858000D02*
X153222000Y-107188000D01*
X153222000Y-98238000D02*
X153222000Y-99568000D01*
X151892000Y-98238000D02*
X153222000Y-98238000D01*
X150622000Y-98238000D02*
X150622000Y-100898000D01*
X150622000Y-100898000D02*
X145482000Y-100898000D01*
X150622000Y-98238000D02*
X145482000Y-98238000D01*
X145482000Y-98238000D02*
X145482000Y-100898000D01*
X160214000Y-105858000D02*
X160214000Y-108518000D01*
X165354000Y-105858000D02*
X160214000Y-105858000D01*
X165354000Y-108518000D02*
X160214000Y-108518000D01*
X165354000Y-105858000D02*
X165354000Y-108518000D01*
X166624000Y-105858000D02*
X167954000Y-105858000D01*
X167954000Y-105858000D02*
X167954000Y-107188000D01*
D11*
X166187619Y-63282380D02*
X166187619Y-62282380D01*
X166616190Y-62377619D02*
X166663809Y-62330000D01*
X166759047Y-62282380D01*
X166997142Y-62282380D01*
X167092380Y-62330000D01*
X167140000Y-62377619D01*
X167187619Y-62472857D01*
X167187619Y-62568095D01*
X167140000Y-62710952D01*
X166568571Y-63282380D01*
X167187619Y-63282380D01*
X168187619Y-63187142D02*
X168140000Y-63234761D01*
X167997142Y-63282380D01*
X167901904Y-63282380D01*
X167759047Y-63234761D01*
X167663809Y-63139523D01*
X167616190Y-63044285D01*
X167568571Y-62853809D01*
X167568571Y-62710952D01*
X167616190Y-62520476D01*
X167663809Y-62425238D01*
X167759047Y-62330000D01*
X167901904Y-62282380D01*
X167997142Y-62282380D01*
X168140000Y-62330000D01*
X168187619Y-62377619D01*
X169140000Y-63282380D02*
X168568571Y-63282380D01*
X168854285Y-63282380D02*
X168854285Y-62282380D01*
X168759047Y-62425238D01*
X168663809Y-62520476D01*
X168568571Y-62568095D01*
X149098095Y-77372380D02*
X149098095Y-78181904D01*
X149145714Y-78277142D01*
X149193333Y-78324761D01*
X149288571Y-78372380D01*
X149479047Y-78372380D01*
X149574285Y-78324761D01*
X149621904Y-78277142D01*
X149669523Y-78181904D01*
X149669523Y-77372380D01*
X150574285Y-77705714D02*
X150574285Y-78372380D01*
X150336190Y-77324761D02*
X150098095Y-78039047D01*
X150717142Y-78039047D01*
X141372380Y-65618333D02*
X142086666Y-65618333D01*
X142229523Y-65665952D01*
X142324761Y-65761190D01*
X142372380Y-65904047D01*
X142372380Y-65999285D01*
X142372380Y-65142142D02*
X141372380Y-65142142D01*
X141372380Y-64761190D01*
X141420000Y-64665952D01*
X141467619Y-64618333D01*
X141562857Y-64570714D01*
X141705714Y-64570714D01*
X141800952Y-64618333D01*
X141848571Y-64665952D01*
X141896190Y-64761190D01*
X141896190Y-65142142D01*
X141467619Y-64189761D02*
X141420000Y-64142142D01*
X141372380Y-64046904D01*
X141372380Y-63808809D01*
X141420000Y-63713571D01*
X141467619Y-63665952D01*
X141562857Y-63618333D01*
X141658095Y-63618333D01*
X141800952Y-63665952D01*
X142372380Y-64237380D01*
X142372380Y-63618333D01*
X144490833Y-69392380D02*
X144157500Y-68916190D01*
X143919404Y-69392380D02*
X143919404Y-68392380D01*
X144300357Y-68392380D01*
X144395595Y-68440000D01*
X144443214Y-68487619D01*
X144490833Y-68582857D01*
X144490833Y-68725714D01*
X144443214Y-68820952D01*
X144395595Y-68868571D01*
X144300357Y-68916190D01*
X143919404Y-68916190D01*
X144871785Y-68487619D02*
X144919404Y-68440000D01*
X145014642Y-68392380D01*
X145252738Y-68392380D01*
X145347976Y-68440000D01*
X145395595Y-68487619D01*
X145443214Y-68582857D01*
X145443214Y-68678095D01*
X145395595Y-68820952D01*
X144824166Y-69392380D01*
X145443214Y-69392380D01*
X150985380Y-68397333D02*
X151699666Y-68397333D01*
X151842523Y-68444952D01*
X151937761Y-68540190D01*
X151985380Y-68683047D01*
X151985380Y-68778285D01*
X151985380Y-67921142D02*
X150985380Y-67921142D01*
X150985380Y-67540190D01*
X151033000Y-67444952D01*
X151080619Y-67397333D01*
X151175857Y-67349714D01*
X151318714Y-67349714D01*
X151413952Y-67397333D01*
X151461571Y-67444952D01*
X151509190Y-67540190D01*
X151509190Y-67921142D01*
X151985380Y-66397333D02*
X151985380Y-66968761D01*
X151985380Y-66683047D02*
X150985380Y-66683047D01*
X151128238Y-66778285D01*
X151223476Y-66873523D01*
X151271095Y-66968761D01*
X151217333Y-75127142D02*
X151169714Y-75174761D01*
X151026857Y-75222380D01*
X150931619Y-75222380D01*
X150788761Y-75174761D01*
X150693523Y-75079523D01*
X150645904Y-74984285D01*
X150598285Y-74793809D01*
X150598285Y-74650952D01*
X150645904Y-74460476D01*
X150693523Y-74365238D01*
X150788761Y-74270000D01*
X150931619Y-74222380D01*
X151026857Y-74222380D01*
X151169714Y-74270000D01*
X151217333Y-74317619D01*
X152169714Y-75222380D02*
X151598285Y-75222380D01*
X151884000Y-75222380D02*
X151884000Y-74222380D01*
X151788761Y-74365238D01*
X151693523Y-74460476D01*
X151598285Y-74508095D01*
X148677333Y-71064380D02*
X148344000Y-70588190D01*
X148105904Y-71064380D02*
X148105904Y-70064380D01*
X148486857Y-70064380D01*
X148582095Y-70112000D01*
X148629714Y-70159619D01*
X148677333Y-70254857D01*
X148677333Y-70397714D01*
X148629714Y-70492952D01*
X148582095Y-70540571D01*
X148486857Y-70588190D01*
X148105904Y-70588190D01*
X149629714Y-71064380D02*
X149058285Y-71064380D01*
X149344000Y-71064380D02*
X149344000Y-70064380D01*
X149248761Y-70207238D01*
X149153523Y-70302476D01*
X149058285Y-70350095D01*
X174066142Y-46200666D02*
X174113761Y-46248285D01*
X174161380Y-46391142D01*
X174161380Y-46486380D01*
X174113761Y-46629238D01*
X174018523Y-46724476D01*
X173923285Y-46772095D01*
X173732809Y-46819714D01*
X173589952Y-46819714D01*
X173399476Y-46772095D01*
X173304238Y-46724476D01*
X173209000Y-46629238D01*
X173161380Y-46486380D01*
X173161380Y-46391142D01*
X173209000Y-46248285D01*
X173256619Y-46200666D01*
X173256619Y-45819714D02*
X173209000Y-45772095D01*
X173161380Y-45676857D01*
X173161380Y-45438761D01*
X173209000Y-45343523D01*
X173256619Y-45295904D01*
X173351857Y-45248285D01*
X173447095Y-45248285D01*
X173589952Y-45295904D01*
X174161380Y-45867333D01*
X174161380Y-45248285D01*
X150342333Y-92907142D02*
X150294714Y-92954761D01*
X150151857Y-93002380D01*
X150056619Y-93002380D01*
X149913761Y-92954761D01*
X149818523Y-92859523D01*
X149770904Y-92764285D01*
X149723285Y-92573809D01*
X149723285Y-92430952D01*
X149770904Y-92240476D01*
X149818523Y-92145238D01*
X149913761Y-92050000D01*
X150056619Y-92002380D01*
X150151857Y-92002380D01*
X150294714Y-92050000D01*
X150342333Y-92097619D01*
X150675666Y-92002380D02*
X151294714Y-92002380D01*
X150961380Y-92383333D01*
X151104238Y-92383333D01*
X151199476Y-92430952D01*
X151247095Y-92478571D01*
X151294714Y-92573809D01*
X151294714Y-92811904D01*
X151247095Y-92907142D01*
X151199476Y-92954761D01*
X151104238Y-93002380D01*
X150818523Y-93002380D01*
X150723285Y-92954761D01*
X150675666Y-92907142D01*
X175660666Y-28220380D02*
X175660666Y-28934666D01*
X175613047Y-29077523D01*
X175517809Y-29172761D01*
X175374952Y-29220380D01*
X175279714Y-29220380D01*
X176660666Y-29220380D02*
X176089238Y-29220380D01*
X176374952Y-29220380D02*
X176374952Y-28220380D01*
X176279714Y-28363238D01*
X176184476Y-28458476D01*
X176089238Y-28506095D01*
X177891619Y-61517571D02*
X178224952Y-61517571D01*
X178367809Y-62041380D02*
X177891619Y-62041380D01*
X177891619Y-61041380D01*
X178367809Y-61041380D01*
X178701142Y-61374714D02*
X178939238Y-62041380D01*
X179177333Y-61374714D01*
X179320190Y-62136619D02*
X180082095Y-62136619D01*
X180748761Y-61041380D02*
X180558285Y-61041380D01*
X180463047Y-61089000D01*
X180415428Y-61136619D01*
X180320190Y-61279476D01*
X180272571Y-61469952D01*
X180272571Y-61850904D01*
X180320190Y-61946142D01*
X180367809Y-61993761D01*
X180463047Y-62041380D01*
X180653523Y-62041380D01*
X180748761Y-61993761D01*
X180796380Y-61946142D01*
X180844000Y-61850904D01*
X180844000Y-61612809D01*
X180796380Y-61517571D01*
X180748761Y-61469952D01*
X180653523Y-61422333D01*
X180463047Y-61422333D01*
X180367809Y-61469952D01*
X180320190Y-61517571D01*
X180272571Y-61612809D01*
X177891619Y-111682571D02*
X178224952Y-111682571D01*
X178367809Y-112206380D02*
X177891619Y-112206380D01*
X177891619Y-111206380D01*
X178367809Y-111206380D01*
X178701142Y-111539714D02*
X178939238Y-112206380D01*
X179177333Y-111539714D01*
X179320190Y-112301619D02*
X180082095Y-112301619D01*
X180844000Y-112206380D02*
X180272571Y-112206380D01*
X180558285Y-112206380D02*
X180558285Y-111206380D01*
X180463047Y-111349238D01*
X180367809Y-111444476D01*
X180272571Y-111492095D01*
X177891619Y-101522571D02*
X178224952Y-101522571D01*
X178367809Y-102046380D02*
X177891619Y-102046380D01*
X177891619Y-101046380D01*
X178367809Y-101046380D01*
X178701142Y-101379714D02*
X178939238Y-102046380D01*
X179177333Y-101379714D01*
X179320190Y-102141619D02*
X180082095Y-102141619D01*
X180272571Y-101141619D02*
X180320190Y-101094000D01*
X180415428Y-101046380D01*
X180653523Y-101046380D01*
X180748761Y-101094000D01*
X180796380Y-101141619D01*
X180844000Y-101236857D01*
X180844000Y-101332095D01*
X180796380Y-101474952D01*
X180224952Y-102046380D01*
X180844000Y-102046380D01*
X177891619Y-91362571D02*
X178224952Y-91362571D01*
X178367809Y-91886380D02*
X177891619Y-91886380D01*
X177891619Y-90886380D01*
X178367809Y-90886380D01*
X178701142Y-91219714D02*
X178939238Y-91886380D01*
X179177333Y-91219714D01*
X179320190Y-91981619D02*
X180082095Y-91981619D01*
X180224952Y-90886380D02*
X180844000Y-90886380D01*
X180510666Y-91267333D01*
X180653523Y-91267333D01*
X180748761Y-91314952D01*
X180796380Y-91362571D01*
X180844000Y-91457809D01*
X180844000Y-91695904D01*
X180796380Y-91791142D01*
X180748761Y-91838761D01*
X180653523Y-91886380D01*
X180367809Y-91886380D01*
X180272571Y-91838761D01*
X180224952Y-91791142D01*
X177891619Y-81202571D02*
X178224952Y-81202571D01*
X178367809Y-81726380D02*
X177891619Y-81726380D01*
X177891619Y-80726380D01*
X178367809Y-80726380D01*
X178701142Y-81059714D02*
X178939238Y-81726380D01*
X179177333Y-81059714D01*
X179320190Y-81821619D02*
X180082095Y-81821619D01*
X180748761Y-81059714D02*
X180748761Y-81726380D01*
X180510666Y-80678761D02*
X180272571Y-81393047D01*
X180891619Y-81393047D01*
X177891619Y-71042571D02*
X178224952Y-71042571D01*
X178367809Y-71566380D02*
X177891619Y-71566380D01*
X177891619Y-70566380D01*
X178367809Y-70566380D01*
X178701142Y-70899714D02*
X178939238Y-71566380D01*
X179177333Y-70899714D01*
X179320190Y-71661619D02*
X180082095Y-71661619D01*
X180796380Y-70566380D02*
X180320190Y-70566380D01*
X180272571Y-71042571D01*
X180320190Y-70994952D01*
X180415428Y-70947333D01*
X180653523Y-70947333D01*
X180748761Y-70994952D01*
X180796380Y-71042571D01*
X180844000Y-71137809D01*
X180844000Y-71375904D01*
X180796380Y-71471142D01*
X180748761Y-71518761D01*
X180653523Y-71566380D01*
X180415428Y-71566380D01*
X180320190Y-71518761D01*
X180272571Y-71471142D01*
X142098095Y-47922380D02*
X142098095Y-48731904D01*
X142145714Y-48827142D01*
X142193333Y-48874761D01*
X142288571Y-48922380D01*
X142479047Y-48922380D01*
X142574285Y-48874761D01*
X142621904Y-48827142D01*
X142669523Y-48731904D01*
X142669523Y-47922380D01*
X143669523Y-48922380D02*
X143098095Y-48922380D01*
X143383809Y-48922380D02*
X143383809Y-47922380D01*
X143288571Y-48065238D01*
X143193333Y-48160476D01*
X143098095Y-48208095D01*
X164038095Y-70952380D02*
X164038095Y-71761904D01*
X164085714Y-71857142D01*
X164133333Y-71904761D01*
X164228571Y-71952380D01*
X164419047Y-71952380D01*
X164514285Y-71904761D01*
X164561904Y-71857142D01*
X164609523Y-71761904D01*
X164609523Y-70952380D01*
X165038095Y-71047619D02*
X165085714Y-71000000D01*
X165180952Y-70952380D01*
X165419047Y-70952380D01*
X165514285Y-71000000D01*
X165561904Y-71047619D01*
X165609523Y-71142857D01*
X165609523Y-71238095D01*
X165561904Y-71380952D01*
X164990476Y-71952380D01*
X165609523Y-71952380D01*
X163868095Y-96032380D02*
X163868095Y-96841904D01*
X163915714Y-96937142D01*
X163963333Y-96984761D01*
X164058571Y-97032380D01*
X164249047Y-97032380D01*
X164344285Y-96984761D01*
X164391904Y-96937142D01*
X164439523Y-96841904D01*
X164439523Y-96032380D01*
X164820476Y-96032380D02*
X165439523Y-96032380D01*
X165106190Y-96413333D01*
X165249047Y-96413333D01*
X165344285Y-96460952D01*
X165391904Y-96508571D01*
X165439523Y-96603809D01*
X165439523Y-96841904D01*
X165391904Y-96937142D01*
X165344285Y-96984761D01*
X165249047Y-97032380D01*
X164963333Y-97032380D01*
X164868095Y-96984761D01*
X164820476Y-96937142D01*
X163868095Y-90952380D02*
X163868095Y-91761904D01*
X163915714Y-91857142D01*
X163963333Y-91904761D01*
X164058571Y-91952380D01*
X164249047Y-91952380D01*
X164344285Y-91904761D01*
X164391904Y-91857142D01*
X164439523Y-91761904D01*
X164439523Y-90952380D01*
X165391904Y-90952380D02*
X164915714Y-90952380D01*
X164868095Y-91428571D01*
X164915714Y-91380952D01*
X165010952Y-91333333D01*
X165249047Y-91333333D01*
X165344285Y-91380952D01*
X165391904Y-91428571D01*
X165439523Y-91523809D01*
X165439523Y-91761904D01*
X165391904Y-91857142D01*
X165344285Y-91904761D01*
X165249047Y-91952380D01*
X165010952Y-91952380D01*
X164915714Y-91904761D01*
X164868095Y-91857142D01*
X163868095Y-85872380D02*
X163868095Y-86681904D01*
X163915714Y-86777142D01*
X163963333Y-86824761D01*
X164058571Y-86872380D01*
X164249047Y-86872380D01*
X164344285Y-86824761D01*
X164391904Y-86777142D01*
X164439523Y-86681904D01*
X164439523Y-85872380D01*
X165344285Y-85872380D02*
X165153809Y-85872380D01*
X165058571Y-85920000D01*
X165010952Y-85967619D01*
X164915714Y-86110476D01*
X164868095Y-86300952D01*
X164868095Y-86681904D01*
X164915714Y-86777142D01*
X164963333Y-86824761D01*
X165058571Y-86872380D01*
X165249047Y-86872380D01*
X165344285Y-86824761D01*
X165391904Y-86777142D01*
X165439523Y-86681904D01*
X165439523Y-86443809D01*
X165391904Y-86348571D01*
X165344285Y-86300952D01*
X165249047Y-86253333D01*
X165058571Y-86253333D01*
X164963333Y-86300952D01*
X164915714Y-86348571D01*
X164868095Y-86443809D01*
X163868095Y-80792380D02*
X163868095Y-81601904D01*
X163915714Y-81697142D01*
X163963333Y-81744761D01*
X164058571Y-81792380D01*
X164249047Y-81792380D01*
X164344285Y-81744761D01*
X164391904Y-81697142D01*
X164439523Y-81601904D01*
X164439523Y-80792380D01*
X164820476Y-80792380D02*
X165487142Y-80792380D01*
X165058571Y-81792380D01*
X163868095Y-75712380D02*
X163868095Y-76521904D01*
X163915714Y-76617142D01*
X163963333Y-76664761D01*
X164058571Y-76712380D01*
X164249047Y-76712380D01*
X164344285Y-76664761D01*
X164391904Y-76617142D01*
X164439523Y-76521904D01*
X164439523Y-75712380D01*
X165058571Y-76140952D02*
X164963333Y-76093333D01*
X164915714Y-76045714D01*
X164868095Y-75950476D01*
X164868095Y-75902857D01*
X164915714Y-75807619D01*
X164963333Y-75760000D01*
X165058571Y-75712380D01*
X165249047Y-75712380D01*
X165344285Y-75760000D01*
X165391904Y-75807619D01*
X165439523Y-75902857D01*
X165439523Y-75950476D01*
X165391904Y-76045714D01*
X165344285Y-76093333D01*
X165249047Y-76140952D01*
X165058571Y-76140952D01*
X164963333Y-76188571D01*
X164915714Y-76236190D01*
X164868095Y-76331428D01*
X164868095Y-76521904D01*
X164915714Y-76617142D01*
X164963333Y-76664761D01*
X165058571Y-76712380D01*
X165249047Y-76712380D01*
X165344285Y-76664761D01*
X165391904Y-76617142D01*
X165439523Y-76521904D01*
X165439523Y-76331428D01*
X165391904Y-76236190D01*
X165344285Y-76188571D01*
X165249047Y-76140952D01*
X129873714Y-65428761D02*
X130016571Y-65476380D01*
X130254666Y-65476380D01*
X130349904Y-65428761D01*
X130397523Y-65381142D01*
X130445142Y-65285904D01*
X130445142Y-65190666D01*
X130397523Y-65095428D01*
X130349904Y-65047809D01*
X130254666Y-65000190D01*
X130064190Y-64952571D01*
X129968952Y-64904952D01*
X129921333Y-64857333D01*
X129873714Y-64762095D01*
X129873714Y-64666857D01*
X129921333Y-64571619D01*
X129968952Y-64524000D01*
X130064190Y-64476380D01*
X130302285Y-64476380D01*
X130445142Y-64524000D01*
X131254666Y-65428761D02*
X131159428Y-65476380D01*
X130968952Y-65476380D01*
X130873714Y-65428761D01*
X130826095Y-65333523D01*
X130826095Y-64952571D01*
X130873714Y-64857333D01*
X130968952Y-64809714D01*
X131159428Y-64809714D01*
X131254666Y-64857333D01*
X131302285Y-64952571D01*
X131302285Y-65047809D01*
X130826095Y-65143047D01*
X131730857Y-65476380D02*
X131730857Y-64809714D01*
X131730857Y-65000190D02*
X131778476Y-64904952D01*
X131826095Y-64857333D01*
X131921333Y-64809714D01*
X132016571Y-64809714D01*
X132254666Y-64809714D02*
X132492761Y-65476380D01*
X132730857Y-64809714D01*
X133254666Y-65476380D02*
X133159428Y-65428761D01*
X133111809Y-65381142D01*
X133064190Y-65285904D01*
X133064190Y-65000190D01*
X133111809Y-64904952D01*
X133159428Y-64857333D01*
X133254666Y-64809714D01*
X133397523Y-64809714D01*
X133492761Y-64857333D01*
X133540380Y-64904952D01*
X133588000Y-65000190D01*
X133588000Y-65285904D01*
X133540380Y-65381142D01*
X133492761Y-65428761D01*
X133397523Y-65476380D01*
X133254666Y-65476380D01*
X133778476Y-65571619D02*
X134540380Y-65571619D01*
X135302285Y-65476380D02*
X134730857Y-65476380D01*
X135016571Y-65476380D02*
X135016571Y-64476380D01*
X134921333Y-64619238D01*
X134826095Y-64714476D01*
X134730857Y-64762095D01*
X129873714Y-72540761D02*
X130016571Y-72588380D01*
X130254666Y-72588380D01*
X130349904Y-72540761D01*
X130397523Y-72493142D01*
X130445142Y-72397904D01*
X130445142Y-72302666D01*
X130397523Y-72207428D01*
X130349904Y-72159809D01*
X130254666Y-72112190D01*
X130064190Y-72064571D01*
X129968952Y-72016952D01*
X129921333Y-71969333D01*
X129873714Y-71874095D01*
X129873714Y-71778857D01*
X129921333Y-71683619D01*
X129968952Y-71636000D01*
X130064190Y-71588380D01*
X130302285Y-71588380D01*
X130445142Y-71636000D01*
X131254666Y-72540761D02*
X131159428Y-72588380D01*
X130968952Y-72588380D01*
X130873714Y-72540761D01*
X130826095Y-72445523D01*
X130826095Y-72064571D01*
X130873714Y-71969333D01*
X130968952Y-71921714D01*
X131159428Y-71921714D01*
X131254666Y-71969333D01*
X131302285Y-72064571D01*
X131302285Y-72159809D01*
X130826095Y-72255047D01*
X131730857Y-72588380D02*
X131730857Y-71921714D01*
X131730857Y-72112190D02*
X131778476Y-72016952D01*
X131826095Y-71969333D01*
X131921333Y-71921714D01*
X132016571Y-71921714D01*
X132254666Y-71921714D02*
X132492761Y-72588380D01*
X132730857Y-71921714D01*
X133254666Y-72588380D02*
X133159428Y-72540761D01*
X133111809Y-72493142D01*
X133064190Y-72397904D01*
X133064190Y-72112190D01*
X133111809Y-72016952D01*
X133159428Y-71969333D01*
X133254666Y-71921714D01*
X133397523Y-71921714D01*
X133492761Y-71969333D01*
X133540380Y-72016952D01*
X133588000Y-72112190D01*
X133588000Y-72397904D01*
X133540380Y-72493142D01*
X133492761Y-72540761D01*
X133397523Y-72588380D01*
X133254666Y-72588380D01*
X133778476Y-72683619D02*
X134540380Y-72683619D01*
X134730857Y-71683619D02*
X134778476Y-71636000D01*
X134873714Y-71588380D01*
X135111809Y-71588380D01*
X135207047Y-71636000D01*
X135254666Y-71683619D01*
X135302285Y-71778857D01*
X135302285Y-71874095D01*
X135254666Y-72016952D01*
X134683238Y-72588380D01*
X135302285Y-72588380D01*
X129873714Y-80668761D02*
X130016571Y-80716380D01*
X130254666Y-80716380D01*
X130349904Y-80668761D01*
X130397523Y-80621142D01*
X130445142Y-80525904D01*
X130445142Y-80430666D01*
X130397523Y-80335428D01*
X130349904Y-80287809D01*
X130254666Y-80240190D01*
X130064190Y-80192571D01*
X129968952Y-80144952D01*
X129921333Y-80097333D01*
X129873714Y-80002095D01*
X129873714Y-79906857D01*
X129921333Y-79811619D01*
X129968952Y-79764000D01*
X130064190Y-79716380D01*
X130302285Y-79716380D01*
X130445142Y-79764000D01*
X131254666Y-80668761D02*
X131159428Y-80716380D01*
X130968952Y-80716380D01*
X130873714Y-80668761D01*
X130826095Y-80573523D01*
X130826095Y-80192571D01*
X130873714Y-80097333D01*
X130968952Y-80049714D01*
X131159428Y-80049714D01*
X131254666Y-80097333D01*
X131302285Y-80192571D01*
X131302285Y-80287809D01*
X130826095Y-80383047D01*
X131730857Y-80716380D02*
X131730857Y-80049714D01*
X131730857Y-80240190D02*
X131778476Y-80144952D01*
X131826095Y-80097333D01*
X131921333Y-80049714D01*
X132016571Y-80049714D01*
X132254666Y-80049714D02*
X132492761Y-80716380D01*
X132730857Y-80049714D01*
X133254666Y-80716380D02*
X133159428Y-80668761D01*
X133111809Y-80621142D01*
X133064190Y-80525904D01*
X133064190Y-80240190D01*
X133111809Y-80144952D01*
X133159428Y-80097333D01*
X133254666Y-80049714D01*
X133397523Y-80049714D01*
X133492761Y-80097333D01*
X133540380Y-80144952D01*
X133588000Y-80240190D01*
X133588000Y-80525904D01*
X133540380Y-80621142D01*
X133492761Y-80668761D01*
X133397523Y-80716380D01*
X133254666Y-80716380D01*
X133778476Y-80811619D02*
X134540380Y-80811619D01*
X134683238Y-79716380D02*
X135302285Y-79716380D01*
X134968952Y-80097333D01*
X135111809Y-80097333D01*
X135207047Y-80144952D01*
X135254666Y-80192571D01*
X135302285Y-80287809D01*
X135302285Y-80525904D01*
X135254666Y-80621142D01*
X135207047Y-80668761D01*
X135111809Y-80716380D01*
X134826095Y-80716380D01*
X134730857Y-80668761D01*
X134683238Y-80621142D01*
X129873714Y-88288761D02*
X130016571Y-88336380D01*
X130254666Y-88336380D01*
X130349904Y-88288761D01*
X130397523Y-88241142D01*
X130445142Y-88145904D01*
X130445142Y-88050666D01*
X130397523Y-87955428D01*
X130349904Y-87907809D01*
X130254666Y-87860190D01*
X130064190Y-87812571D01*
X129968952Y-87764952D01*
X129921333Y-87717333D01*
X129873714Y-87622095D01*
X129873714Y-87526857D01*
X129921333Y-87431619D01*
X129968952Y-87384000D01*
X130064190Y-87336380D01*
X130302285Y-87336380D01*
X130445142Y-87384000D01*
X131254666Y-88288761D02*
X131159428Y-88336380D01*
X130968952Y-88336380D01*
X130873714Y-88288761D01*
X130826095Y-88193523D01*
X130826095Y-87812571D01*
X130873714Y-87717333D01*
X130968952Y-87669714D01*
X131159428Y-87669714D01*
X131254666Y-87717333D01*
X131302285Y-87812571D01*
X131302285Y-87907809D01*
X130826095Y-88003047D01*
X131730857Y-88336380D02*
X131730857Y-87669714D01*
X131730857Y-87860190D02*
X131778476Y-87764952D01*
X131826095Y-87717333D01*
X131921333Y-87669714D01*
X132016571Y-87669714D01*
X132254666Y-87669714D02*
X132492761Y-88336380D01*
X132730857Y-87669714D01*
X133254666Y-88336380D02*
X133159428Y-88288761D01*
X133111809Y-88241142D01*
X133064190Y-88145904D01*
X133064190Y-87860190D01*
X133111809Y-87764952D01*
X133159428Y-87717333D01*
X133254666Y-87669714D01*
X133397523Y-87669714D01*
X133492761Y-87717333D01*
X133540380Y-87764952D01*
X133588000Y-87860190D01*
X133588000Y-88145904D01*
X133540380Y-88241142D01*
X133492761Y-88288761D01*
X133397523Y-88336380D01*
X133254666Y-88336380D01*
X133778476Y-88431619D02*
X134540380Y-88431619D01*
X135207047Y-87669714D02*
X135207047Y-88336380D01*
X134968952Y-87288761D02*
X134730857Y-88003047D01*
X135349904Y-88003047D01*
X129873714Y-95400761D02*
X130016571Y-95448380D01*
X130254666Y-95448380D01*
X130349904Y-95400761D01*
X130397523Y-95353142D01*
X130445142Y-95257904D01*
X130445142Y-95162666D01*
X130397523Y-95067428D01*
X130349904Y-95019809D01*
X130254666Y-94972190D01*
X130064190Y-94924571D01*
X129968952Y-94876952D01*
X129921333Y-94829333D01*
X129873714Y-94734095D01*
X129873714Y-94638857D01*
X129921333Y-94543619D01*
X129968952Y-94496000D01*
X130064190Y-94448380D01*
X130302285Y-94448380D01*
X130445142Y-94496000D01*
X131254666Y-95400761D02*
X131159428Y-95448380D01*
X130968952Y-95448380D01*
X130873714Y-95400761D01*
X130826095Y-95305523D01*
X130826095Y-94924571D01*
X130873714Y-94829333D01*
X130968952Y-94781714D01*
X131159428Y-94781714D01*
X131254666Y-94829333D01*
X131302285Y-94924571D01*
X131302285Y-95019809D01*
X130826095Y-95115047D01*
X131730857Y-95448380D02*
X131730857Y-94781714D01*
X131730857Y-94972190D02*
X131778476Y-94876952D01*
X131826095Y-94829333D01*
X131921333Y-94781714D01*
X132016571Y-94781714D01*
X132254666Y-94781714D02*
X132492761Y-95448380D01*
X132730857Y-94781714D01*
X133254666Y-95448380D02*
X133159428Y-95400761D01*
X133111809Y-95353142D01*
X133064190Y-95257904D01*
X133064190Y-94972190D01*
X133111809Y-94876952D01*
X133159428Y-94829333D01*
X133254666Y-94781714D01*
X133397523Y-94781714D01*
X133492761Y-94829333D01*
X133540380Y-94876952D01*
X133588000Y-94972190D01*
X133588000Y-95257904D01*
X133540380Y-95353142D01*
X133492761Y-95400761D01*
X133397523Y-95448380D01*
X133254666Y-95448380D01*
X133778476Y-95543619D02*
X134540380Y-95543619D01*
X135254666Y-94448380D02*
X134778476Y-94448380D01*
X134730857Y-94924571D01*
X134778476Y-94876952D01*
X134873714Y-94829333D01*
X135111809Y-94829333D01*
X135207047Y-94876952D01*
X135254666Y-94924571D01*
X135302285Y-95019809D01*
X135302285Y-95257904D01*
X135254666Y-95353142D01*
X135207047Y-95400761D01*
X135111809Y-95448380D01*
X134873714Y-95448380D01*
X134778476Y-95400761D01*
X134730857Y-95353142D01*
X129873714Y-103020761D02*
X130016571Y-103068380D01*
X130254666Y-103068380D01*
X130349904Y-103020761D01*
X130397523Y-102973142D01*
X130445142Y-102877904D01*
X130445142Y-102782666D01*
X130397523Y-102687428D01*
X130349904Y-102639809D01*
X130254666Y-102592190D01*
X130064190Y-102544571D01*
X129968952Y-102496952D01*
X129921333Y-102449333D01*
X129873714Y-102354095D01*
X129873714Y-102258857D01*
X129921333Y-102163619D01*
X129968952Y-102116000D01*
X130064190Y-102068380D01*
X130302285Y-102068380D01*
X130445142Y-102116000D01*
X131254666Y-103020761D02*
X131159428Y-103068380D01*
X130968952Y-103068380D01*
X130873714Y-103020761D01*
X130826095Y-102925523D01*
X130826095Y-102544571D01*
X130873714Y-102449333D01*
X130968952Y-102401714D01*
X131159428Y-102401714D01*
X131254666Y-102449333D01*
X131302285Y-102544571D01*
X131302285Y-102639809D01*
X130826095Y-102735047D01*
X131730857Y-103068380D02*
X131730857Y-102401714D01*
X131730857Y-102592190D02*
X131778476Y-102496952D01*
X131826095Y-102449333D01*
X131921333Y-102401714D01*
X132016571Y-102401714D01*
X132254666Y-102401714D02*
X132492761Y-103068380D01*
X132730857Y-102401714D01*
X133254666Y-103068380D02*
X133159428Y-103020761D01*
X133111809Y-102973142D01*
X133064190Y-102877904D01*
X133064190Y-102592190D01*
X133111809Y-102496952D01*
X133159428Y-102449333D01*
X133254666Y-102401714D01*
X133397523Y-102401714D01*
X133492761Y-102449333D01*
X133540380Y-102496952D01*
X133588000Y-102592190D01*
X133588000Y-102877904D01*
X133540380Y-102973142D01*
X133492761Y-103020761D01*
X133397523Y-103068380D01*
X133254666Y-103068380D01*
X133778476Y-103163619D02*
X134540380Y-103163619D01*
X135207047Y-102068380D02*
X135016571Y-102068380D01*
X134921333Y-102116000D01*
X134873714Y-102163619D01*
X134778476Y-102306476D01*
X134730857Y-102496952D01*
X134730857Y-102877904D01*
X134778476Y-102973142D01*
X134826095Y-103020761D01*
X134921333Y-103068380D01*
X135111809Y-103068380D01*
X135207047Y-103020761D01*
X135254666Y-102973142D01*
X135302285Y-102877904D01*
X135302285Y-102639809D01*
X135254666Y-102544571D01*
X135207047Y-102496952D01*
X135111809Y-102449333D01*
X134921333Y-102449333D01*
X134826095Y-102496952D01*
X134778476Y-102544571D01*
X134730857Y-102639809D01*
X129873714Y-111148761D02*
X130016571Y-111196380D01*
X130254666Y-111196380D01*
X130349904Y-111148761D01*
X130397523Y-111101142D01*
X130445142Y-111005904D01*
X130445142Y-110910666D01*
X130397523Y-110815428D01*
X130349904Y-110767809D01*
X130254666Y-110720190D01*
X130064190Y-110672571D01*
X129968952Y-110624952D01*
X129921333Y-110577333D01*
X129873714Y-110482095D01*
X129873714Y-110386857D01*
X129921333Y-110291619D01*
X129968952Y-110244000D01*
X130064190Y-110196380D01*
X130302285Y-110196380D01*
X130445142Y-110244000D01*
X131254666Y-111148761D02*
X131159428Y-111196380D01*
X130968952Y-111196380D01*
X130873714Y-111148761D01*
X130826095Y-111053523D01*
X130826095Y-110672571D01*
X130873714Y-110577333D01*
X130968952Y-110529714D01*
X131159428Y-110529714D01*
X131254666Y-110577333D01*
X131302285Y-110672571D01*
X131302285Y-110767809D01*
X130826095Y-110863047D01*
X131730857Y-111196380D02*
X131730857Y-110529714D01*
X131730857Y-110720190D02*
X131778476Y-110624952D01*
X131826095Y-110577333D01*
X131921333Y-110529714D01*
X132016571Y-110529714D01*
X132254666Y-110529714D02*
X132492761Y-111196380D01*
X132730857Y-110529714D01*
X133254666Y-111196380D02*
X133159428Y-111148761D01*
X133111809Y-111101142D01*
X133064190Y-111005904D01*
X133064190Y-110720190D01*
X133111809Y-110624952D01*
X133159428Y-110577333D01*
X133254666Y-110529714D01*
X133397523Y-110529714D01*
X133492761Y-110577333D01*
X133540380Y-110624952D01*
X133588000Y-110720190D01*
X133588000Y-111005904D01*
X133540380Y-111101142D01*
X133492761Y-111148761D01*
X133397523Y-111196380D01*
X133254666Y-111196380D01*
X133778476Y-111291619D02*
X134540380Y-111291619D01*
X134683238Y-110196380D02*
X135349904Y-110196380D01*
X134921333Y-111196380D01*
X146637714Y-110640761D02*
X146780571Y-110688380D01*
X147018666Y-110688380D01*
X147113904Y-110640761D01*
X147161523Y-110593142D01*
X147209142Y-110497904D01*
X147209142Y-110402666D01*
X147161523Y-110307428D01*
X147113904Y-110259809D01*
X147018666Y-110212190D01*
X146828190Y-110164571D01*
X146732952Y-110116952D01*
X146685333Y-110069333D01*
X146637714Y-109974095D01*
X146637714Y-109878857D01*
X146685333Y-109783619D01*
X146732952Y-109736000D01*
X146828190Y-109688380D01*
X147066285Y-109688380D01*
X147209142Y-109736000D01*
X148018666Y-110640761D02*
X147923428Y-110688380D01*
X147732952Y-110688380D01*
X147637714Y-110640761D01*
X147590095Y-110545523D01*
X147590095Y-110164571D01*
X147637714Y-110069333D01*
X147732952Y-110021714D01*
X147923428Y-110021714D01*
X148018666Y-110069333D01*
X148066285Y-110164571D01*
X148066285Y-110259809D01*
X147590095Y-110355047D01*
X148494857Y-110688380D02*
X148494857Y-110021714D01*
X148494857Y-110212190D02*
X148542476Y-110116952D01*
X148590095Y-110069333D01*
X148685333Y-110021714D01*
X148780571Y-110021714D01*
X149018666Y-110021714D02*
X149256761Y-110688380D01*
X149494857Y-110021714D01*
X150018666Y-110688380D02*
X149923428Y-110640761D01*
X149875809Y-110593142D01*
X149828190Y-110497904D01*
X149828190Y-110212190D01*
X149875809Y-110116952D01*
X149923428Y-110069333D01*
X150018666Y-110021714D01*
X150161523Y-110021714D01*
X150256761Y-110069333D01*
X150304380Y-110116952D01*
X150352000Y-110212190D01*
X150352000Y-110497904D01*
X150304380Y-110593142D01*
X150256761Y-110640761D01*
X150161523Y-110688380D01*
X150018666Y-110688380D01*
X150542476Y-110783619D02*
X151304380Y-110783619D01*
X151685333Y-110116952D02*
X151590095Y-110069333D01*
X151542476Y-110021714D01*
X151494857Y-109926476D01*
X151494857Y-109878857D01*
X151542476Y-109783619D01*
X151590095Y-109736000D01*
X151685333Y-109688380D01*
X151875809Y-109688380D01*
X151971047Y-109736000D01*
X152018666Y-109783619D01*
X152066285Y-109878857D01*
X152066285Y-109926476D01*
X152018666Y-110021714D01*
X151971047Y-110069333D01*
X151875809Y-110116952D01*
X151685333Y-110116952D01*
X151590095Y-110164571D01*
X151542476Y-110212190D01*
X151494857Y-110307428D01*
X151494857Y-110497904D01*
X151542476Y-110593142D01*
X151590095Y-110640761D01*
X151685333Y-110688380D01*
X151875809Y-110688380D01*
X151971047Y-110640761D01*
X152018666Y-110593142D01*
X152066285Y-110497904D01*
X152066285Y-110307428D01*
X152018666Y-110212190D01*
X151971047Y-110164571D01*
X151875809Y-110116952D01*
X146637714Y-97432761D02*
X146780571Y-97480380D01*
X147018666Y-97480380D01*
X147113904Y-97432761D01*
X147161523Y-97385142D01*
X147209142Y-97289904D01*
X147209142Y-97194666D01*
X147161523Y-97099428D01*
X147113904Y-97051809D01*
X147018666Y-97004190D01*
X146828190Y-96956571D01*
X146732952Y-96908952D01*
X146685333Y-96861333D01*
X146637714Y-96766095D01*
X146637714Y-96670857D01*
X146685333Y-96575619D01*
X146732952Y-96528000D01*
X146828190Y-96480380D01*
X147066285Y-96480380D01*
X147209142Y-96528000D01*
X148018666Y-97432761D02*
X147923428Y-97480380D01*
X147732952Y-97480380D01*
X147637714Y-97432761D01*
X147590095Y-97337523D01*
X147590095Y-96956571D01*
X147637714Y-96861333D01*
X147732952Y-96813714D01*
X147923428Y-96813714D01*
X148018666Y-96861333D01*
X148066285Y-96956571D01*
X148066285Y-97051809D01*
X147590095Y-97147047D01*
X148494857Y-97480380D02*
X148494857Y-96813714D01*
X148494857Y-97004190D02*
X148542476Y-96908952D01*
X148590095Y-96861333D01*
X148685333Y-96813714D01*
X148780571Y-96813714D01*
X149018666Y-96813714D02*
X149256761Y-97480380D01*
X149494857Y-96813714D01*
X150018666Y-97480380D02*
X149923428Y-97432761D01*
X149875809Y-97385142D01*
X149828190Y-97289904D01*
X149828190Y-97004190D01*
X149875809Y-96908952D01*
X149923428Y-96861333D01*
X150018666Y-96813714D01*
X150161523Y-96813714D01*
X150256761Y-96861333D01*
X150304380Y-96908952D01*
X150352000Y-97004190D01*
X150352000Y-97289904D01*
X150304380Y-97385142D01*
X150256761Y-97432761D01*
X150161523Y-97480380D01*
X150018666Y-97480380D01*
X150542476Y-97575619D02*
X151304380Y-97575619D01*
X151590095Y-97480380D02*
X151780571Y-97480380D01*
X151875809Y-97432761D01*
X151923428Y-97385142D01*
X152018666Y-97242285D01*
X152066285Y-97051809D01*
X152066285Y-96670857D01*
X152018666Y-96575619D01*
X151971047Y-96528000D01*
X151875809Y-96480380D01*
X151685333Y-96480380D01*
X151590095Y-96528000D01*
X151542476Y-96575619D01*
X151494857Y-96670857D01*
X151494857Y-96908952D01*
X151542476Y-97004190D01*
X151590095Y-97051809D01*
X151685333Y-97099428D01*
X151875809Y-97099428D01*
X151971047Y-97051809D01*
X152018666Y-97004190D01*
X152066285Y-96908952D01*
X160893523Y-110640761D02*
X161036380Y-110688380D01*
X161274476Y-110688380D01*
X161369714Y-110640761D01*
X161417333Y-110593142D01*
X161464952Y-110497904D01*
X161464952Y-110402666D01*
X161417333Y-110307428D01*
X161369714Y-110259809D01*
X161274476Y-110212190D01*
X161084000Y-110164571D01*
X160988761Y-110116952D01*
X160941142Y-110069333D01*
X160893523Y-109974095D01*
X160893523Y-109878857D01*
X160941142Y-109783619D01*
X160988761Y-109736000D01*
X161084000Y-109688380D01*
X161322095Y-109688380D01*
X161464952Y-109736000D01*
X162274476Y-110640761D02*
X162179238Y-110688380D01*
X161988761Y-110688380D01*
X161893523Y-110640761D01*
X161845904Y-110545523D01*
X161845904Y-110164571D01*
X161893523Y-110069333D01*
X161988761Y-110021714D01*
X162179238Y-110021714D01*
X162274476Y-110069333D01*
X162322095Y-110164571D01*
X162322095Y-110259809D01*
X161845904Y-110355047D01*
X162750666Y-110688380D02*
X162750666Y-110021714D01*
X162750666Y-110212190D02*
X162798285Y-110116952D01*
X162845904Y-110069333D01*
X162941142Y-110021714D01*
X163036380Y-110021714D01*
X163274476Y-110021714D02*
X163512571Y-110688380D01*
X163750666Y-110021714D01*
X164274476Y-110688380D02*
X164179238Y-110640761D01*
X164131619Y-110593142D01*
X164084000Y-110497904D01*
X164084000Y-110212190D01*
X164131619Y-110116952D01*
X164179238Y-110069333D01*
X164274476Y-110021714D01*
X164417333Y-110021714D01*
X164512571Y-110069333D01*
X164560190Y-110116952D01*
X164607809Y-110212190D01*
X164607809Y-110497904D01*
X164560190Y-110593142D01*
X164512571Y-110640761D01*
X164417333Y-110688380D01*
X164274476Y-110688380D01*
X164798285Y-110783619D02*
X165560190Y-110783619D01*
X166322095Y-110688380D02*
X165750666Y-110688380D01*
X166036380Y-110688380D02*
X166036380Y-109688380D01*
X165941142Y-109831238D01*
X165845904Y-109926476D01*
X165750666Y-109974095D01*
X166941142Y-109688380D02*
X167036380Y-109688380D01*
X167131619Y-109736000D01*
X167179238Y-109783619D01*
X167226857Y-109878857D01*
X167274476Y-110069333D01*
X167274476Y-110307428D01*
X167226857Y-110497904D01*
X167179238Y-110593142D01*
X167131619Y-110640761D01*
X167036380Y-110688380D01*
X166941142Y-110688380D01*
X166845904Y-110640761D01*
X166798285Y-110593142D01*
X166750666Y-110497904D01*
X166703047Y-110307428D01*
X166703047Y-110069333D01*
X166750666Y-109878857D01*
X166798285Y-109783619D01*
X166845904Y-109736000D01*
X166941142Y-109688380D01*
M02*
