G04 #@! TF.GenerationSoftware,KiCad,Pcbnew,5.1.5*
G04 #@! TF.CreationDate,2020-03-10T21:27:45+01:00*
G04 #@! TF.ProjectId,carte_PCA9685,63617274-655f-4504-9341-393638352e6b,rev?*
G04 #@! TF.SameCoordinates,Original*
G04 #@! TF.FileFunction,Copper,L1,Top*
G04 #@! TF.FilePolarity,Positive*
%FSLAX46Y46*%
G04 Gerber Fmt 4.6, Leading zero omitted, Abs format (unit mm)*
G04 Created by KiCad (PCBNEW 5.1.5) date 2020-03-10 21:27:45*
%MOMM*%
%LPD*%
G04 APERTURE LIST*
%ADD10C,0.100000*%
%ADD11O,1.700000X1.950000*%
%ADD12R,1.100000X0.400000*%
%ADD13R,2.000000X2.000000*%
%ADD14C,2.000000*%
%ADD15R,2.600000X2.600000*%
%ADD16C,2.600000*%
%ADD17O,1.700000X2.000000*%
%ADD18R,2.900000X2.900000*%
%ADD19R,1.200000X0.800000*%
%ADD20R,1.700000X1.700000*%
%ADD21O,1.700000X1.700000*%
%ADD22C,1.000000*%
%ADD23C,0.800000*%
%ADD24C,0.400000*%
%ADD25C,0.800000*%
%ADD26C,0.600000*%
G04 APERTURE END LIST*
G04 #@! TA.AperFunction,ComponentPad*
D10*
G36*
X161614504Y-65406204D02*
G01*
X161638773Y-65409804D01*
X161662571Y-65415765D01*
X161685671Y-65424030D01*
X161707849Y-65434520D01*
X161728893Y-65447133D01*
X161748598Y-65461747D01*
X161766777Y-65478223D01*
X161783253Y-65496402D01*
X161797867Y-65516107D01*
X161810480Y-65537151D01*
X161820970Y-65559329D01*
X161829235Y-65582429D01*
X161835196Y-65606227D01*
X161838796Y-65630496D01*
X161840000Y-65655000D01*
X161840000Y-67105000D01*
X161838796Y-67129504D01*
X161835196Y-67153773D01*
X161829235Y-67177571D01*
X161820970Y-67200671D01*
X161810480Y-67222849D01*
X161797867Y-67243893D01*
X161783253Y-67263598D01*
X161766777Y-67281777D01*
X161748598Y-67298253D01*
X161728893Y-67312867D01*
X161707849Y-67325480D01*
X161685671Y-67335970D01*
X161662571Y-67344235D01*
X161638773Y-67350196D01*
X161614504Y-67353796D01*
X161590000Y-67355000D01*
X160390000Y-67355000D01*
X160365496Y-67353796D01*
X160341227Y-67350196D01*
X160317429Y-67344235D01*
X160294329Y-67335970D01*
X160272151Y-67325480D01*
X160251107Y-67312867D01*
X160231402Y-67298253D01*
X160213223Y-67281777D01*
X160196747Y-67263598D01*
X160182133Y-67243893D01*
X160169520Y-67222849D01*
X160159030Y-67200671D01*
X160150765Y-67177571D01*
X160144804Y-67153773D01*
X160141204Y-67129504D01*
X160140000Y-67105000D01*
X160140000Y-65655000D01*
X160141204Y-65630496D01*
X160144804Y-65606227D01*
X160150765Y-65582429D01*
X160159030Y-65559329D01*
X160169520Y-65537151D01*
X160182133Y-65516107D01*
X160196747Y-65496402D01*
X160213223Y-65478223D01*
X160231402Y-65461747D01*
X160251107Y-65447133D01*
X160272151Y-65434520D01*
X160294329Y-65424030D01*
X160317429Y-65415765D01*
X160341227Y-65409804D01*
X160365496Y-65406204D01*
X160390000Y-65405000D01*
X161590000Y-65405000D01*
X161614504Y-65406204D01*
G37*
G04 #@! TD.AperFunction*
D11*
X163490000Y-66380000D03*
X165990000Y-66380000D03*
X168490000Y-66380000D03*
D12*
X147010000Y-79595000D03*
X147010000Y-80245000D03*
X147010000Y-80895000D03*
X147010000Y-81545000D03*
X147010000Y-82195000D03*
X147010000Y-82845000D03*
X147010000Y-83495000D03*
X147010000Y-84145000D03*
X147010000Y-84795000D03*
X147010000Y-85445000D03*
X147010000Y-86095000D03*
X147010000Y-86745000D03*
X147010000Y-87395000D03*
X147010000Y-88045000D03*
X152710000Y-88045000D03*
X152710000Y-87395000D03*
X152710000Y-86745000D03*
X152710000Y-86095000D03*
X152710000Y-85445000D03*
X152710000Y-84795000D03*
X152710000Y-84145000D03*
X152710000Y-83495000D03*
X152710000Y-82845000D03*
X152710000Y-82195000D03*
X152710000Y-81545000D03*
X152710000Y-80895000D03*
X152710000Y-80245000D03*
X152710000Y-79595000D03*
G04 #@! TA.AperFunction,SMDPad,CuDef*
D10*
G36*
X144470000Y-63560000D02*
G01*
X144470000Y-64710000D01*
X143720000Y-64210000D01*
X142970000Y-64710000D01*
X142970000Y-63560000D01*
X144470000Y-63560000D01*
G37*
G04 #@! TD.AperFunction*
G04 #@! TA.AperFunction,SMDPad,CuDef*
G36*
X143720000Y-64510000D02*
G01*
X144470000Y-65010000D01*
X144470000Y-66010000D01*
X142970000Y-66010000D01*
X142970000Y-65010000D01*
X143720000Y-64510000D01*
G37*
G04 #@! TD.AperFunction*
G04 #@! TA.AperFunction,SMDPad,CuDef*
G36*
X145862642Y-69891174D02*
G01*
X145886303Y-69894684D01*
X145909507Y-69900496D01*
X145932029Y-69908554D01*
X145953653Y-69918782D01*
X145974170Y-69931079D01*
X145993383Y-69945329D01*
X146011107Y-69961393D01*
X146027171Y-69979117D01*
X146041421Y-69998330D01*
X146053718Y-70018847D01*
X146063946Y-70040471D01*
X146072004Y-70062993D01*
X146077816Y-70086197D01*
X146081326Y-70109858D01*
X146082500Y-70133750D01*
X146082500Y-71046250D01*
X146081326Y-71070142D01*
X146077816Y-71093803D01*
X146072004Y-71117007D01*
X146063946Y-71139529D01*
X146053718Y-71161153D01*
X146041421Y-71181670D01*
X146027171Y-71200883D01*
X146011107Y-71218607D01*
X145993383Y-71234671D01*
X145974170Y-71248921D01*
X145953653Y-71261218D01*
X145932029Y-71271446D01*
X145909507Y-71279504D01*
X145886303Y-71285316D01*
X145862642Y-71288826D01*
X145838750Y-71290000D01*
X145351250Y-71290000D01*
X145327358Y-71288826D01*
X145303697Y-71285316D01*
X145280493Y-71279504D01*
X145257971Y-71271446D01*
X145236347Y-71261218D01*
X145215830Y-71248921D01*
X145196617Y-71234671D01*
X145178893Y-71218607D01*
X145162829Y-71200883D01*
X145148579Y-71181670D01*
X145136282Y-71161153D01*
X145126054Y-71139529D01*
X145117996Y-71117007D01*
X145112184Y-71093803D01*
X145108674Y-71070142D01*
X145107500Y-71046250D01*
X145107500Y-70133750D01*
X145108674Y-70109858D01*
X145112184Y-70086197D01*
X145117996Y-70062993D01*
X145126054Y-70040471D01*
X145136282Y-70018847D01*
X145148579Y-69998330D01*
X145162829Y-69979117D01*
X145178893Y-69961393D01*
X145196617Y-69945329D01*
X145215830Y-69931079D01*
X145236347Y-69918782D01*
X145257971Y-69908554D01*
X145280493Y-69900496D01*
X145303697Y-69894684D01*
X145327358Y-69891174D01*
X145351250Y-69890000D01*
X145838750Y-69890000D01*
X145862642Y-69891174D01*
G37*
G04 #@! TD.AperFunction*
G04 #@! TA.AperFunction,SMDPad,CuDef*
G36*
X143987642Y-69891174D02*
G01*
X144011303Y-69894684D01*
X144034507Y-69900496D01*
X144057029Y-69908554D01*
X144078653Y-69918782D01*
X144099170Y-69931079D01*
X144118383Y-69945329D01*
X144136107Y-69961393D01*
X144152171Y-69979117D01*
X144166421Y-69998330D01*
X144178718Y-70018847D01*
X144188946Y-70040471D01*
X144197004Y-70062993D01*
X144202816Y-70086197D01*
X144206326Y-70109858D01*
X144207500Y-70133750D01*
X144207500Y-71046250D01*
X144206326Y-71070142D01*
X144202816Y-71093803D01*
X144197004Y-71117007D01*
X144188946Y-71139529D01*
X144178718Y-71161153D01*
X144166421Y-71181670D01*
X144152171Y-71200883D01*
X144136107Y-71218607D01*
X144118383Y-71234671D01*
X144099170Y-71248921D01*
X144078653Y-71261218D01*
X144057029Y-71271446D01*
X144034507Y-71279504D01*
X144011303Y-71285316D01*
X143987642Y-71288826D01*
X143963750Y-71290000D01*
X143476250Y-71290000D01*
X143452358Y-71288826D01*
X143428697Y-71285316D01*
X143405493Y-71279504D01*
X143382971Y-71271446D01*
X143361347Y-71261218D01*
X143340830Y-71248921D01*
X143321617Y-71234671D01*
X143303893Y-71218607D01*
X143287829Y-71200883D01*
X143273579Y-71181670D01*
X143261282Y-71161153D01*
X143251054Y-71139529D01*
X143242996Y-71117007D01*
X143237184Y-71093803D01*
X143233674Y-71070142D01*
X143232500Y-71046250D01*
X143232500Y-70133750D01*
X143233674Y-70109858D01*
X143237184Y-70086197D01*
X143242996Y-70062993D01*
X143251054Y-70040471D01*
X143261282Y-70018847D01*
X143273579Y-69998330D01*
X143287829Y-69979117D01*
X143303893Y-69961393D01*
X143321617Y-69945329D01*
X143340830Y-69931079D01*
X143361347Y-69918782D01*
X143382971Y-69908554D01*
X143405493Y-69900496D01*
X143428697Y-69894684D01*
X143452358Y-69891174D01*
X143476250Y-69890000D01*
X143963750Y-69890000D01*
X143987642Y-69891174D01*
G37*
G04 #@! TD.AperFunction*
G04 #@! TA.AperFunction,SMDPad,CuDef*
G36*
X149733000Y-67839000D02*
G01*
X148983000Y-67339000D01*
X148983000Y-66339000D01*
X150483000Y-66339000D01*
X150483000Y-67339000D01*
X149733000Y-67839000D01*
G37*
G04 #@! TD.AperFunction*
G04 #@! TA.AperFunction,SMDPad,CuDef*
G36*
X148983000Y-68789000D02*
G01*
X148983000Y-67639000D01*
X149733000Y-68139000D01*
X150483000Y-67639000D01*
X150483000Y-68789000D01*
X148983000Y-68789000D01*
G37*
G04 #@! TD.AperFunction*
G04 #@! TA.AperFunction,SMDPad,CuDef*
G36*
X151440779Y-75726144D02*
G01*
X151463834Y-75729563D01*
X151486443Y-75735227D01*
X151508387Y-75743079D01*
X151529457Y-75753044D01*
X151549448Y-75765026D01*
X151568168Y-75778910D01*
X151585438Y-75794562D01*
X151601090Y-75811832D01*
X151614974Y-75830552D01*
X151626956Y-75850543D01*
X151636921Y-75871613D01*
X151644773Y-75893557D01*
X151650437Y-75916166D01*
X151653856Y-75939221D01*
X151655000Y-75962500D01*
X151655000Y-76437500D01*
X151653856Y-76460779D01*
X151650437Y-76483834D01*
X151644773Y-76506443D01*
X151636921Y-76528387D01*
X151626956Y-76549457D01*
X151614974Y-76569448D01*
X151601090Y-76588168D01*
X151585438Y-76605438D01*
X151568168Y-76621090D01*
X151549448Y-76634974D01*
X151529457Y-76646956D01*
X151508387Y-76656921D01*
X151486443Y-76664773D01*
X151463834Y-76670437D01*
X151440779Y-76673856D01*
X151417500Y-76675000D01*
X150842500Y-76675000D01*
X150819221Y-76673856D01*
X150796166Y-76670437D01*
X150773557Y-76664773D01*
X150751613Y-76656921D01*
X150730543Y-76646956D01*
X150710552Y-76634974D01*
X150691832Y-76621090D01*
X150674562Y-76605438D01*
X150658910Y-76588168D01*
X150645026Y-76569448D01*
X150633044Y-76549457D01*
X150623079Y-76528387D01*
X150615227Y-76506443D01*
X150609563Y-76483834D01*
X150606144Y-76460779D01*
X150605000Y-76437500D01*
X150605000Y-75962500D01*
X150606144Y-75939221D01*
X150609563Y-75916166D01*
X150615227Y-75893557D01*
X150623079Y-75871613D01*
X150633044Y-75850543D01*
X150645026Y-75830552D01*
X150658910Y-75811832D01*
X150674562Y-75794562D01*
X150691832Y-75778910D01*
X150710552Y-75765026D01*
X150730543Y-75753044D01*
X150751613Y-75743079D01*
X150773557Y-75735227D01*
X150796166Y-75729563D01*
X150819221Y-75726144D01*
X150842500Y-75725000D01*
X151417500Y-75725000D01*
X151440779Y-75726144D01*
G37*
G04 #@! TD.AperFunction*
G04 #@! TA.AperFunction,SMDPad,CuDef*
G36*
X149690779Y-75726144D02*
G01*
X149713834Y-75729563D01*
X149736443Y-75735227D01*
X149758387Y-75743079D01*
X149779457Y-75753044D01*
X149799448Y-75765026D01*
X149818168Y-75778910D01*
X149835438Y-75794562D01*
X149851090Y-75811832D01*
X149864974Y-75830552D01*
X149876956Y-75850543D01*
X149886921Y-75871613D01*
X149894773Y-75893557D01*
X149900437Y-75916166D01*
X149903856Y-75939221D01*
X149905000Y-75962500D01*
X149905000Y-76437500D01*
X149903856Y-76460779D01*
X149900437Y-76483834D01*
X149894773Y-76506443D01*
X149886921Y-76528387D01*
X149876956Y-76549457D01*
X149864974Y-76569448D01*
X149851090Y-76588168D01*
X149835438Y-76605438D01*
X149818168Y-76621090D01*
X149799448Y-76634974D01*
X149779457Y-76646956D01*
X149758387Y-76656921D01*
X149736443Y-76664773D01*
X149713834Y-76670437D01*
X149690779Y-76673856D01*
X149667500Y-76675000D01*
X149092500Y-76675000D01*
X149069221Y-76673856D01*
X149046166Y-76670437D01*
X149023557Y-76664773D01*
X149001613Y-76656921D01*
X148980543Y-76646956D01*
X148960552Y-76634974D01*
X148941832Y-76621090D01*
X148924562Y-76605438D01*
X148908910Y-76588168D01*
X148895026Y-76569448D01*
X148883044Y-76549457D01*
X148873079Y-76528387D01*
X148865227Y-76506443D01*
X148859563Y-76483834D01*
X148856144Y-76460779D01*
X148855000Y-76437500D01*
X148855000Y-75962500D01*
X148856144Y-75939221D01*
X148859563Y-75916166D01*
X148865227Y-75893557D01*
X148873079Y-75871613D01*
X148883044Y-75850543D01*
X148895026Y-75830552D01*
X148908910Y-75811832D01*
X148924562Y-75794562D01*
X148941832Y-75778910D01*
X148960552Y-75765026D01*
X148980543Y-75753044D01*
X149001613Y-75743079D01*
X149023557Y-75735227D01*
X149046166Y-75729563D01*
X149069221Y-75726144D01*
X149092500Y-75725000D01*
X149667500Y-75725000D01*
X149690779Y-75726144D01*
G37*
G04 #@! TD.AperFunction*
G04 #@! TA.AperFunction,SMDPad,CuDef*
G36*
X150005142Y-71493674D02*
G01*
X150028803Y-71497184D01*
X150052007Y-71502996D01*
X150074529Y-71511054D01*
X150096153Y-71521282D01*
X150116670Y-71533579D01*
X150135883Y-71547829D01*
X150153607Y-71563893D01*
X150169671Y-71581617D01*
X150183921Y-71600830D01*
X150196218Y-71621347D01*
X150206446Y-71642971D01*
X150214504Y-71665493D01*
X150220316Y-71688697D01*
X150223826Y-71712358D01*
X150225000Y-71736250D01*
X150225000Y-72648750D01*
X150223826Y-72672642D01*
X150220316Y-72696303D01*
X150214504Y-72719507D01*
X150206446Y-72742029D01*
X150196218Y-72763653D01*
X150183921Y-72784170D01*
X150169671Y-72803383D01*
X150153607Y-72821107D01*
X150135883Y-72837171D01*
X150116670Y-72851421D01*
X150096153Y-72863718D01*
X150074529Y-72873946D01*
X150052007Y-72882004D01*
X150028803Y-72887816D01*
X150005142Y-72891326D01*
X149981250Y-72892500D01*
X149493750Y-72892500D01*
X149469858Y-72891326D01*
X149446197Y-72887816D01*
X149422993Y-72882004D01*
X149400471Y-72873946D01*
X149378847Y-72863718D01*
X149358330Y-72851421D01*
X149339117Y-72837171D01*
X149321393Y-72821107D01*
X149305329Y-72803383D01*
X149291079Y-72784170D01*
X149278782Y-72763653D01*
X149268554Y-72742029D01*
X149260496Y-72719507D01*
X149254684Y-72696303D01*
X149251174Y-72672642D01*
X149250000Y-72648750D01*
X149250000Y-71736250D01*
X149251174Y-71712358D01*
X149254684Y-71688697D01*
X149260496Y-71665493D01*
X149268554Y-71642971D01*
X149278782Y-71621347D01*
X149291079Y-71600830D01*
X149305329Y-71581617D01*
X149321393Y-71563893D01*
X149339117Y-71547829D01*
X149358330Y-71533579D01*
X149378847Y-71521282D01*
X149400471Y-71511054D01*
X149422993Y-71502996D01*
X149446197Y-71497184D01*
X149469858Y-71493674D01*
X149493750Y-71492500D01*
X149981250Y-71492500D01*
X150005142Y-71493674D01*
G37*
G04 #@! TD.AperFunction*
G04 #@! TA.AperFunction,SMDPad,CuDef*
G36*
X148130142Y-71493674D02*
G01*
X148153803Y-71497184D01*
X148177007Y-71502996D01*
X148199529Y-71511054D01*
X148221153Y-71521282D01*
X148241670Y-71533579D01*
X148260883Y-71547829D01*
X148278607Y-71563893D01*
X148294671Y-71581617D01*
X148308921Y-71600830D01*
X148321218Y-71621347D01*
X148331446Y-71642971D01*
X148339504Y-71665493D01*
X148345316Y-71688697D01*
X148348826Y-71712358D01*
X148350000Y-71736250D01*
X148350000Y-72648750D01*
X148348826Y-72672642D01*
X148345316Y-72696303D01*
X148339504Y-72719507D01*
X148331446Y-72742029D01*
X148321218Y-72763653D01*
X148308921Y-72784170D01*
X148294671Y-72803383D01*
X148278607Y-72821107D01*
X148260883Y-72837171D01*
X148241670Y-72851421D01*
X148221153Y-72863718D01*
X148199529Y-72873946D01*
X148177007Y-72882004D01*
X148153803Y-72887816D01*
X148130142Y-72891326D01*
X148106250Y-72892500D01*
X147618750Y-72892500D01*
X147594858Y-72891326D01*
X147571197Y-72887816D01*
X147547993Y-72882004D01*
X147525471Y-72873946D01*
X147503847Y-72863718D01*
X147483330Y-72851421D01*
X147464117Y-72837171D01*
X147446393Y-72821107D01*
X147430329Y-72803383D01*
X147416079Y-72784170D01*
X147403782Y-72763653D01*
X147393554Y-72742029D01*
X147385496Y-72719507D01*
X147379684Y-72696303D01*
X147376174Y-72672642D01*
X147375000Y-72648750D01*
X147375000Y-71736250D01*
X147376174Y-71712358D01*
X147379684Y-71688697D01*
X147385496Y-71665493D01*
X147393554Y-71642971D01*
X147403782Y-71621347D01*
X147416079Y-71600830D01*
X147430329Y-71581617D01*
X147446393Y-71563893D01*
X147464117Y-71547829D01*
X147483330Y-71533579D01*
X147503847Y-71521282D01*
X147525471Y-71511054D01*
X147547993Y-71502996D01*
X147571197Y-71497184D01*
X147594858Y-71493674D01*
X147618750Y-71492500D01*
X148106250Y-71492500D01*
X148130142Y-71493674D01*
G37*
G04 #@! TD.AperFunction*
D13*
X179959000Y-49784000D03*
D14*
X179959000Y-42284000D03*
G04 #@! TA.AperFunction,SMDPad,CuDef*
D10*
G36*
X149944779Y-93506144D02*
G01*
X149967834Y-93509563D01*
X149990443Y-93515227D01*
X150012387Y-93523079D01*
X150033457Y-93533044D01*
X150053448Y-93545026D01*
X150072168Y-93558910D01*
X150089438Y-93574562D01*
X150105090Y-93591832D01*
X150118974Y-93610552D01*
X150130956Y-93630543D01*
X150140921Y-93651613D01*
X150148773Y-93673557D01*
X150154437Y-93696166D01*
X150157856Y-93719221D01*
X150159000Y-93742500D01*
X150159000Y-94217500D01*
X150157856Y-94240779D01*
X150154437Y-94263834D01*
X150148773Y-94286443D01*
X150140921Y-94308387D01*
X150130956Y-94329457D01*
X150118974Y-94349448D01*
X150105090Y-94368168D01*
X150089438Y-94385438D01*
X150072168Y-94401090D01*
X150053448Y-94414974D01*
X150033457Y-94426956D01*
X150012387Y-94436921D01*
X149990443Y-94444773D01*
X149967834Y-94450437D01*
X149944779Y-94453856D01*
X149921500Y-94455000D01*
X149346500Y-94455000D01*
X149323221Y-94453856D01*
X149300166Y-94450437D01*
X149277557Y-94444773D01*
X149255613Y-94436921D01*
X149234543Y-94426956D01*
X149214552Y-94414974D01*
X149195832Y-94401090D01*
X149178562Y-94385438D01*
X149162910Y-94368168D01*
X149149026Y-94349448D01*
X149137044Y-94329457D01*
X149127079Y-94308387D01*
X149119227Y-94286443D01*
X149113563Y-94263834D01*
X149110144Y-94240779D01*
X149109000Y-94217500D01*
X149109000Y-93742500D01*
X149110144Y-93719221D01*
X149113563Y-93696166D01*
X149119227Y-93673557D01*
X149127079Y-93651613D01*
X149137044Y-93630543D01*
X149149026Y-93610552D01*
X149162910Y-93591832D01*
X149178562Y-93574562D01*
X149195832Y-93558910D01*
X149214552Y-93545026D01*
X149234543Y-93533044D01*
X149255613Y-93523079D01*
X149277557Y-93515227D01*
X149300166Y-93509563D01*
X149323221Y-93506144D01*
X149346500Y-93505000D01*
X149921500Y-93505000D01*
X149944779Y-93506144D01*
G37*
G04 #@! TD.AperFunction*
G04 #@! TA.AperFunction,SMDPad,CuDef*
G36*
X151694779Y-93506144D02*
G01*
X151717834Y-93509563D01*
X151740443Y-93515227D01*
X151762387Y-93523079D01*
X151783457Y-93533044D01*
X151803448Y-93545026D01*
X151822168Y-93558910D01*
X151839438Y-93574562D01*
X151855090Y-93591832D01*
X151868974Y-93610552D01*
X151880956Y-93630543D01*
X151890921Y-93651613D01*
X151898773Y-93673557D01*
X151904437Y-93696166D01*
X151907856Y-93719221D01*
X151909000Y-93742500D01*
X151909000Y-94217500D01*
X151907856Y-94240779D01*
X151904437Y-94263834D01*
X151898773Y-94286443D01*
X151890921Y-94308387D01*
X151880956Y-94329457D01*
X151868974Y-94349448D01*
X151855090Y-94368168D01*
X151839438Y-94385438D01*
X151822168Y-94401090D01*
X151803448Y-94414974D01*
X151783457Y-94426956D01*
X151762387Y-94436921D01*
X151740443Y-94444773D01*
X151717834Y-94450437D01*
X151694779Y-94453856D01*
X151671500Y-94455000D01*
X151096500Y-94455000D01*
X151073221Y-94453856D01*
X151050166Y-94450437D01*
X151027557Y-94444773D01*
X151005613Y-94436921D01*
X150984543Y-94426956D01*
X150964552Y-94414974D01*
X150945832Y-94401090D01*
X150928562Y-94385438D01*
X150912910Y-94368168D01*
X150899026Y-94349448D01*
X150887044Y-94329457D01*
X150877079Y-94308387D01*
X150869227Y-94286443D01*
X150863563Y-94263834D01*
X150860144Y-94240779D01*
X150859000Y-94217500D01*
X150859000Y-93742500D01*
X150860144Y-93719221D01*
X150863563Y-93696166D01*
X150869227Y-93673557D01*
X150877079Y-93651613D01*
X150887044Y-93630543D01*
X150899026Y-93610552D01*
X150912910Y-93591832D01*
X150928562Y-93574562D01*
X150945832Y-93558910D01*
X150964552Y-93545026D01*
X150984543Y-93533044D01*
X151005613Y-93523079D01*
X151027557Y-93515227D01*
X151050166Y-93509563D01*
X151073221Y-93506144D01*
X151096500Y-93505000D01*
X151671500Y-93505000D01*
X151694779Y-93506144D01*
G37*
G04 #@! TD.AperFunction*
D15*
X174244000Y-33528000D03*
D16*
X177744000Y-33528000D03*
G04 #@! TA.AperFunction,ComponentPad*
D10*
G36*
X181218504Y-57040204D02*
G01*
X181242773Y-57043804D01*
X181266571Y-57049765D01*
X181289671Y-57058030D01*
X181311849Y-57068520D01*
X181332893Y-57081133D01*
X181352598Y-57095747D01*
X181370777Y-57112223D01*
X181387253Y-57130402D01*
X181401867Y-57150107D01*
X181414480Y-57171151D01*
X181424970Y-57193329D01*
X181433235Y-57216429D01*
X181439196Y-57240227D01*
X181442796Y-57264496D01*
X181444000Y-57289000D01*
X181444000Y-58789000D01*
X181442796Y-58813504D01*
X181439196Y-58837773D01*
X181433235Y-58861571D01*
X181424970Y-58884671D01*
X181414480Y-58906849D01*
X181401867Y-58927893D01*
X181387253Y-58947598D01*
X181370777Y-58965777D01*
X181352598Y-58982253D01*
X181332893Y-58996867D01*
X181311849Y-59009480D01*
X181289671Y-59019970D01*
X181266571Y-59028235D01*
X181242773Y-59034196D01*
X181218504Y-59037796D01*
X181194000Y-59039000D01*
X179994000Y-59039000D01*
X179969496Y-59037796D01*
X179945227Y-59034196D01*
X179921429Y-59028235D01*
X179898329Y-59019970D01*
X179876151Y-59009480D01*
X179855107Y-58996867D01*
X179835402Y-58982253D01*
X179817223Y-58965777D01*
X179800747Y-58947598D01*
X179786133Y-58927893D01*
X179773520Y-58906849D01*
X179763030Y-58884671D01*
X179754765Y-58861571D01*
X179748804Y-58837773D01*
X179745204Y-58813504D01*
X179744000Y-58789000D01*
X179744000Y-57289000D01*
X179745204Y-57264496D01*
X179748804Y-57240227D01*
X179754765Y-57216429D01*
X179763030Y-57193329D01*
X179773520Y-57171151D01*
X179786133Y-57150107D01*
X179800747Y-57130402D01*
X179817223Y-57112223D01*
X179835402Y-57095747D01*
X179855107Y-57081133D01*
X179876151Y-57068520D01*
X179898329Y-57058030D01*
X179921429Y-57049765D01*
X179945227Y-57043804D01*
X179969496Y-57040204D01*
X179994000Y-57039000D01*
X181194000Y-57039000D01*
X181218504Y-57040204D01*
G37*
G04 #@! TD.AperFunction*
D17*
X178094000Y-58039000D03*
G04 #@! TA.AperFunction,ComponentPad*
D10*
G36*
X181218504Y-107205204D02*
G01*
X181242773Y-107208804D01*
X181266571Y-107214765D01*
X181289671Y-107223030D01*
X181311849Y-107233520D01*
X181332893Y-107246133D01*
X181352598Y-107260747D01*
X181370777Y-107277223D01*
X181387253Y-107295402D01*
X181401867Y-107315107D01*
X181414480Y-107336151D01*
X181424970Y-107358329D01*
X181433235Y-107381429D01*
X181439196Y-107405227D01*
X181442796Y-107429496D01*
X181444000Y-107454000D01*
X181444000Y-108954000D01*
X181442796Y-108978504D01*
X181439196Y-109002773D01*
X181433235Y-109026571D01*
X181424970Y-109049671D01*
X181414480Y-109071849D01*
X181401867Y-109092893D01*
X181387253Y-109112598D01*
X181370777Y-109130777D01*
X181352598Y-109147253D01*
X181332893Y-109161867D01*
X181311849Y-109174480D01*
X181289671Y-109184970D01*
X181266571Y-109193235D01*
X181242773Y-109199196D01*
X181218504Y-109202796D01*
X181194000Y-109204000D01*
X179994000Y-109204000D01*
X179969496Y-109202796D01*
X179945227Y-109199196D01*
X179921429Y-109193235D01*
X179898329Y-109184970D01*
X179876151Y-109174480D01*
X179855107Y-109161867D01*
X179835402Y-109147253D01*
X179817223Y-109130777D01*
X179800747Y-109112598D01*
X179786133Y-109092893D01*
X179773520Y-109071849D01*
X179763030Y-109049671D01*
X179754765Y-109026571D01*
X179748804Y-109002773D01*
X179745204Y-108978504D01*
X179744000Y-108954000D01*
X179744000Y-107454000D01*
X179745204Y-107429496D01*
X179748804Y-107405227D01*
X179754765Y-107381429D01*
X179763030Y-107358329D01*
X179773520Y-107336151D01*
X179786133Y-107315107D01*
X179800747Y-107295402D01*
X179817223Y-107277223D01*
X179835402Y-107260747D01*
X179855107Y-107246133D01*
X179876151Y-107233520D01*
X179898329Y-107223030D01*
X179921429Y-107214765D01*
X179945227Y-107208804D01*
X179969496Y-107205204D01*
X179994000Y-107204000D01*
X181194000Y-107204000D01*
X181218504Y-107205204D01*
G37*
G04 #@! TD.AperFunction*
D17*
X178094000Y-108204000D03*
X178094000Y-98044000D03*
G04 #@! TA.AperFunction,ComponentPad*
D10*
G36*
X181218504Y-97045204D02*
G01*
X181242773Y-97048804D01*
X181266571Y-97054765D01*
X181289671Y-97063030D01*
X181311849Y-97073520D01*
X181332893Y-97086133D01*
X181352598Y-97100747D01*
X181370777Y-97117223D01*
X181387253Y-97135402D01*
X181401867Y-97155107D01*
X181414480Y-97176151D01*
X181424970Y-97198329D01*
X181433235Y-97221429D01*
X181439196Y-97245227D01*
X181442796Y-97269496D01*
X181444000Y-97294000D01*
X181444000Y-98794000D01*
X181442796Y-98818504D01*
X181439196Y-98842773D01*
X181433235Y-98866571D01*
X181424970Y-98889671D01*
X181414480Y-98911849D01*
X181401867Y-98932893D01*
X181387253Y-98952598D01*
X181370777Y-98970777D01*
X181352598Y-98987253D01*
X181332893Y-99001867D01*
X181311849Y-99014480D01*
X181289671Y-99024970D01*
X181266571Y-99033235D01*
X181242773Y-99039196D01*
X181218504Y-99042796D01*
X181194000Y-99044000D01*
X179994000Y-99044000D01*
X179969496Y-99042796D01*
X179945227Y-99039196D01*
X179921429Y-99033235D01*
X179898329Y-99024970D01*
X179876151Y-99014480D01*
X179855107Y-99001867D01*
X179835402Y-98987253D01*
X179817223Y-98970777D01*
X179800747Y-98952598D01*
X179786133Y-98932893D01*
X179773520Y-98911849D01*
X179763030Y-98889671D01*
X179754765Y-98866571D01*
X179748804Y-98842773D01*
X179745204Y-98818504D01*
X179744000Y-98794000D01*
X179744000Y-97294000D01*
X179745204Y-97269496D01*
X179748804Y-97245227D01*
X179754765Y-97221429D01*
X179763030Y-97198329D01*
X179773520Y-97176151D01*
X179786133Y-97155107D01*
X179800747Y-97135402D01*
X179817223Y-97117223D01*
X179835402Y-97100747D01*
X179855107Y-97086133D01*
X179876151Y-97073520D01*
X179898329Y-97063030D01*
X179921429Y-97054765D01*
X179945227Y-97048804D01*
X179969496Y-97045204D01*
X179994000Y-97044000D01*
X181194000Y-97044000D01*
X181218504Y-97045204D01*
G37*
G04 #@! TD.AperFunction*
D17*
X178094000Y-87884000D03*
G04 #@! TA.AperFunction,ComponentPad*
D10*
G36*
X181218504Y-86885204D02*
G01*
X181242773Y-86888804D01*
X181266571Y-86894765D01*
X181289671Y-86903030D01*
X181311849Y-86913520D01*
X181332893Y-86926133D01*
X181352598Y-86940747D01*
X181370777Y-86957223D01*
X181387253Y-86975402D01*
X181401867Y-86995107D01*
X181414480Y-87016151D01*
X181424970Y-87038329D01*
X181433235Y-87061429D01*
X181439196Y-87085227D01*
X181442796Y-87109496D01*
X181444000Y-87134000D01*
X181444000Y-88634000D01*
X181442796Y-88658504D01*
X181439196Y-88682773D01*
X181433235Y-88706571D01*
X181424970Y-88729671D01*
X181414480Y-88751849D01*
X181401867Y-88772893D01*
X181387253Y-88792598D01*
X181370777Y-88810777D01*
X181352598Y-88827253D01*
X181332893Y-88841867D01*
X181311849Y-88854480D01*
X181289671Y-88864970D01*
X181266571Y-88873235D01*
X181242773Y-88879196D01*
X181218504Y-88882796D01*
X181194000Y-88884000D01*
X179994000Y-88884000D01*
X179969496Y-88882796D01*
X179945227Y-88879196D01*
X179921429Y-88873235D01*
X179898329Y-88864970D01*
X179876151Y-88854480D01*
X179855107Y-88841867D01*
X179835402Y-88827253D01*
X179817223Y-88810777D01*
X179800747Y-88792598D01*
X179786133Y-88772893D01*
X179773520Y-88751849D01*
X179763030Y-88729671D01*
X179754765Y-88706571D01*
X179748804Y-88682773D01*
X179745204Y-88658504D01*
X179744000Y-88634000D01*
X179744000Y-87134000D01*
X179745204Y-87109496D01*
X179748804Y-87085227D01*
X179754765Y-87061429D01*
X179763030Y-87038329D01*
X179773520Y-87016151D01*
X179786133Y-86995107D01*
X179800747Y-86975402D01*
X179817223Y-86957223D01*
X179835402Y-86940747D01*
X179855107Y-86926133D01*
X179876151Y-86913520D01*
X179898329Y-86903030D01*
X179921429Y-86894765D01*
X179945227Y-86888804D01*
X179969496Y-86885204D01*
X179994000Y-86884000D01*
X181194000Y-86884000D01*
X181218504Y-86885204D01*
G37*
G04 #@! TD.AperFunction*
D17*
X178094000Y-77724000D03*
G04 #@! TA.AperFunction,ComponentPad*
D10*
G36*
X181218504Y-76725204D02*
G01*
X181242773Y-76728804D01*
X181266571Y-76734765D01*
X181289671Y-76743030D01*
X181311849Y-76753520D01*
X181332893Y-76766133D01*
X181352598Y-76780747D01*
X181370777Y-76797223D01*
X181387253Y-76815402D01*
X181401867Y-76835107D01*
X181414480Y-76856151D01*
X181424970Y-76878329D01*
X181433235Y-76901429D01*
X181439196Y-76925227D01*
X181442796Y-76949496D01*
X181444000Y-76974000D01*
X181444000Y-78474000D01*
X181442796Y-78498504D01*
X181439196Y-78522773D01*
X181433235Y-78546571D01*
X181424970Y-78569671D01*
X181414480Y-78591849D01*
X181401867Y-78612893D01*
X181387253Y-78632598D01*
X181370777Y-78650777D01*
X181352598Y-78667253D01*
X181332893Y-78681867D01*
X181311849Y-78694480D01*
X181289671Y-78704970D01*
X181266571Y-78713235D01*
X181242773Y-78719196D01*
X181218504Y-78722796D01*
X181194000Y-78724000D01*
X179994000Y-78724000D01*
X179969496Y-78722796D01*
X179945227Y-78719196D01*
X179921429Y-78713235D01*
X179898329Y-78704970D01*
X179876151Y-78694480D01*
X179855107Y-78681867D01*
X179835402Y-78667253D01*
X179817223Y-78650777D01*
X179800747Y-78632598D01*
X179786133Y-78612893D01*
X179773520Y-78591849D01*
X179763030Y-78569671D01*
X179754765Y-78546571D01*
X179748804Y-78522773D01*
X179745204Y-78498504D01*
X179744000Y-78474000D01*
X179744000Y-76974000D01*
X179745204Y-76949496D01*
X179748804Y-76925227D01*
X179754765Y-76901429D01*
X179763030Y-76878329D01*
X179773520Y-76856151D01*
X179786133Y-76835107D01*
X179800747Y-76815402D01*
X179817223Y-76797223D01*
X179835402Y-76780747D01*
X179855107Y-76766133D01*
X179876151Y-76753520D01*
X179898329Y-76743030D01*
X179921429Y-76734765D01*
X179945227Y-76728804D01*
X179969496Y-76725204D01*
X179994000Y-76724000D01*
X181194000Y-76724000D01*
X181218504Y-76725204D01*
G37*
G04 #@! TD.AperFunction*
G04 #@! TA.AperFunction,ComponentPad*
G36*
X181218504Y-66565204D02*
G01*
X181242773Y-66568804D01*
X181266571Y-66574765D01*
X181289671Y-66583030D01*
X181311849Y-66593520D01*
X181332893Y-66606133D01*
X181352598Y-66620747D01*
X181370777Y-66637223D01*
X181387253Y-66655402D01*
X181401867Y-66675107D01*
X181414480Y-66696151D01*
X181424970Y-66718329D01*
X181433235Y-66741429D01*
X181439196Y-66765227D01*
X181442796Y-66789496D01*
X181444000Y-66814000D01*
X181444000Y-68314000D01*
X181442796Y-68338504D01*
X181439196Y-68362773D01*
X181433235Y-68386571D01*
X181424970Y-68409671D01*
X181414480Y-68431849D01*
X181401867Y-68452893D01*
X181387253Y-68472598D01*
X181370777Y-68490777D01*
X181352598Y-68507253D01*
X181332893Y-68521867D01*
X181311849Y-68534480D01*
X181289671Y-68544970D01*
X181266571Y-68553235D01*
X181242773Y-68559196D01*
X181218504Y-68562796D01*
X181194000Y-68564000D01*
X179994000Y-68564000D01*
X179969496Y-68562796D01*
X179945227Y-68559196D01*
X179921429Y-68553235D01*
X179898329Y-68544970D01*
X179876151Y-68534480D01*
X179855107Y-68521867D01*
X179835402Y-68507253D01*
X179817223Y-68490777D01*
X179800747Y-68472598D01*
X179786133Y-68452893D01*
X179773520Y-68431849D01*
X179763030Y-68409671D01*
X179754765Y-68386571D01*
X179748804Y-68362773D01*
X179745204Y-68338504D01*
X179744000Y-68314000D01*
X179744000Y-66814000D01*
X179745204Y-66789496D01*
X179748804Y-66765227D01*
X179754765Y-66741429D01*
X179763030Y-66718329D01*
X179773520Y-66696151D01*
X179786133Y-66675107D01*
X179800747Y-66655402D01*
X179817223Y-66637223D01*
X179835402Y-66620747D01*
X179855107Y-66606133D01*
X179876151Y-66593520D01*
X179898329Y-66583030D01*
X179921429Y-66574765D01*
X179945227Y-66568804D01*
X179969496Y-66565204D01*
X179994000Y-66564000D01*
X181194000Y-66564000D01*
X181218504Y-66565204D01*
G37*
G04 #@! TD.AperFunction*
D17*
X178094000Y-67564000D03*
D18*
X169610000Y-54720000D03*
X169610000Y-36720000D03*
X130110000Y-54720000D03*
X130110000Y-36720000D03*
D19*
X163700000Y-73050000D03*
X163700000Y-74950000D03*
X165900000Y-74000000D03*
X163530000Y-98130000D03*
X163530000Y-100030000D03*
X165730000Y-99080000D03*
X163530000Y-93050000D03*
X163530000Y-94950000D03*
X165730000Y-94000000D03*
X165730000Y-88920000D03*
X163530000Y-89870000D03*
X163530000Y-87970000D03*
X165730000Y-83840000D03*
X163530000Y-84790000D03*
X163530000Y-82890000D03*
X165730000Y-78760000D03*
X163530000Y-79710000D03*
X163530000Y-77810000D03*
D20*
X135930000Y-61920000D03*
D21*
X133390000Y-61920000D03*
X130850000Y-61920000D03*
D20*
X135930000Y-69088000D03*
D21*
X133390000Y-69088000D03*
X130850000Y-69088000D03*
X130850000Y-77216000D03*
X133390000Y-77216000D03*
D20*
X135930000Y-77216000D03*
X135930000Y-84836000D03*
D21*
X133390000Y-84836000D03*
X130850000Y-84836000D03*
X130850000Y-92456000D03*
X133390000Y-92456000D03*
D20*
X135930000Y-92456000D03*
D21*
X130850000Y-100076000D03*
X133390000Y-100076000D03*
D20*
X135930000Y-100076000D03*
X135930000Y-107696000D03*
D21*
X133390000Y-107696000D03*
X130850000Y-107696000D03*
D20*
X151892000Y-107188000D03*
D21*
X149352000Y-107188000D03*
X146812000Y-107188000D03*
X146812000Y-99568000D03*
X149352000Y-99568000D03*
D20*
X151892000Y-99568000D03*
X166624000Y-107188000D03*
D21*
X164084000Y-107188000D03*
X161544000Y-107188000D03*
D22*
X163656000Y-102028000D03*
X163656000Y-76374000D03*
X163656000Y-81327000D03*
X163656000Y-86280000D03*
X163656000Y-91487000D03*
X163656000Y-96567000D03*
X149860000Y-82804000D03*
D23*
X144780000Y-80010000D03*
D22*
X149733000Y-74295000D03*
D24*
X151655000Y-76200000D02*
X152710000Y-77255000D01*
X152710000Y-78995000D02*
X152710000Y-79595000D01*
X151130000Y-76200000D02*
X151655000Y-76200000D01*
X152710000Y-77255000D02*
X152710000Y-77255000D01*
X152710000Y-77255000D02*
X152710000Y-78995000D01*
D25*
X149312000Y-99648000D02*
X149392000Y-99568000D01*
X149312000Y-107188000D02*
X149312000Y-99648000D01*
X149392000Y-94222000D02*
X149634000Y-93980000D01*
X149392000Y-99568000D02*
X149392000Y-94222000D01*
X160531000Y-66839000D02*
X160990000Y-66380000D01*
D26*
X143764000Y-64009990D02*
X143720000Y-64009990D01*
X133430000Y-63495000D02*
X133943000Y-64008000D01*
X133943000Y-64008000D02*
X140208000Y-64008000D01*
X140208000Y-64008000D02*
X141732000Y-62484000D01*
X149733000Y-64897000D02*
X149733000Y-66839000D01*
X147320000Y-62484000D02*
X149733000Y-64897000D01*
X143764000Y-62484000D02*
X143764000Y-64009990D01*
X143764000Y-62484000D02*
X147320000Y-62484000D01*
X141732000Y-62484000D02*
X143764000Y-62484000D01*
D25*
X133430000Y-55790000D02*
X133430000Y-60145000D01*
X133430000Y-60145000D02*
X133430000Y-61920000D01*
X132360000Y-54720000D02*
X133430000Y-55790000D01*
X130110000Y-54720000D02*
X132360000Y-54720000D01*
X160990000Y-66380000D02*
X160990000Y-58720000D01*
X169926000Y-49784000D02*
X179959000Y-49784000D01*
X160990000Y-58720000D02*
X169926000Y-49784000D01*
D24*
X153695400Y-73159600D02*
X153695400Y-66827400D01*
X151130000Y-75725000D02*
X153695400Y-73159600D01*
D25*
X149733000Y-66839000D02*
X153695400Y-66827400D01*
X153695400Y-66827400D02*
X160531000Y-66839000D01*
X133390000Y-63455000D02*
X133390000Y-61920000D01*
X133430000Y-63495000D02*
X133390000Y-63455000D01*
X163490000Y-66255000D02*
X163490000Y-66380000D01*
X163490000Y-79750000D02*
X163530000Y-79710000D01*
X163490000Y-89910000D02*
X163530000Y-89870000D01*
D24*
X147010000Y-80245000D02*
X147010000Y-79595000D01*
X149860000Y-81534000D02*
X148480002Y-81545000D01*
X147830002Y-80895000D02*
X147010000Y-80895000D01*
X148480002Y-81545000D02*
X147830002Y-80895000D01*
D25*
X149860000Y-90170000D02*
X149860000Y-82804000D01*
D24*
X149860000Y-81788000D02*
X149860000Y-81534000D01*
X147010000Y-78045000D02*
X148855000Y-76200000D01*
X152710000Y-81545000D02*
X152710000Y-82195000D01*
X147010000Y-80895000D02*
X147010000Y-80245000D01*
X152710000Y-81545000D02*
X149860000Y-81534000D01*
X152710000Y-82195000D02*
X152710000Y-82845000D01*
X147010000Y-79595000D02*
X147010000Y-78045000D01*
D25*
X135930000Y-60945000D02*
X135930000Y-61920000D01*
X135930000Y-44790000D02*
X135930000Y-60945000D01*
X130110000Y-38970000D02*
X135930000Y-44790000D01*
X130110000Y-36720000D02*
X130110000Y-38970000D01*
X149860000Y-90170000D02*
X149860000Y-90424000D01*
X151384000Y-91948000D02*
X151384000Y-93980000D01*
X149860000Y-90424000D02*
X151384000Y-91948000D01*
D24*
X149768458Y-88392000D02*
X149814229Y-88437771D01*
X149618458Y-88392000D02*
X149768458Y-88392000D01*
X147010000Y-88045000D02*
X149271458Y-88045000D01*
X149271458Y-88045000D02*
X149618458Y-88392000D01*
X146260000Y-70590000D02*
X147862500Y-72192500D01*
X145595000Y-70590000D02*
X146260000Y-70590000D01*
X148855000Y-76200000D02*
X149380000Y-76200000D01*
X147862500Y-75207500D02*
X148855000Y-76200000D01*
X147862500Y-72192500D02*
X147862500Y-75207500D01*
D25*
X130110000Y-36720000D02*
X169610000Y-36720000D01*
D24*
X163656000Y-95076000D02*
X163530000Y-94950000D01*
X163656000Y-96567000D02*
X163656000Y-95076000D01*
X163703000Y-101273894D02*
X163703000Y-100457000D01*
X163656000Y-102028000D02*
X163656000Y-101320894D01*
X163530000Y-100030000D02*
X163703000Y-100457000D01*
X163656000Y-89996000D02*
X163530000Y-89870000D01*
X163656000Y-91487000D02*
X163656000Y-89996000D01*
X163656000Y-84916000D02*
X163530000Y-84790000D01*
X163656000Y-86280000D02*
X163656000Y-84916000D01*
X163656000Y-79836000D02*
X163530000Y-79710000D01*
X163656000Y-81327000D02*
X163656000Y-79836000D01*
X163656000Y-74994000D02*
X163700000Y-74950000D01*
X163656000Y-76374000D02*
X163656000Y-74994000D01*
D25*
X149860000Y-82804000D02*
X149860000Y-81788000D01*
X151892000Y-99568000D02*
X151892000Y-107188000D01*
X151384000Y-99060000D02*
X151892000Y-99568000D01*
X151384000Y-93980000D02*
X151384000Y-99060000D01*
X177744000Y-36632000D02*
X177744000Y-33528000D01*
X169610000Y-36720000D02*
X177656000Y-36720000D01*
X177656000Y-36720000D02*
X177744000Y-36632000D01*
X177656000Y-36720000D02*
X179468000Y-36720000D01*
X179959000Y-37211000D02*
X179959000Y-42284000D01*
X179468000Y-36720000D02*
X179959000Y-37211000D01*
X180594000Y-107204000D02*
X180594000Y-98044000D01*
X180594000Y-108204000D02*
X180594000Y-107204000D01*
X180594000Y-98044000D02*
X180594000Y-87884000D01*
X180594000Y-87884000D02*
X180594000Y-77724000D01*
X180594000Y-77724000D02*
X180594000Y-67564000D01*
X171860000Y-54720000D02*
X171970000Y-54610000D01*
X169610000Y-54720000D02*
X171860000Y-54720000D01*
X180594000Y-67564000D02*
X180594000Y-57404000D01*
X180594000Y-57039000D02*
X180594000Y-58039000D01*
X178165000Y-54610000D02*
X180594000Y-57039000D01*
X171970000Y-54610000D02*
X178165000Y-54610000D01*
D24*
X152710000Y-80245000D02*
X154006500Y-80245000D01*
X154006500Y-80245000D02*
X154070000Y-80245000D01*
X154070000Y-80245000D02*
X154940000Y-79375000D01*
D26*
X154940000Y-76835000D02*
X154940000Y-73025000D01*
D24*
X154940000Y-76835000D02*
X154940000Y-74930000D01*
X154940000Y-79375000D02*
X154940000Y-76835000D01*
D26*
X154940000Y-73025000D02*
X157480000Y-70485000D01*
D25*
X165990000Y-68155000D02*
X165990000Y-66380000D01*
X163660000Y-70485000D02*
X165990000Y-68155000D01*
X157480000Y-70485000D02*
X163660000Y-70485000D01*
X168060000Y-66040000D02*
X168910000Y-66040000D01*
D24*
X168522998Y-66412998D02*
X168490000Y-66380000D01*
X168522998Y-66507000D02*
X168522998Y-66412998D01*
X152710000Y-80895000D02*
X155071001Y-80894999D01*
D26*
X155071001Y-80894999D02*
X155325001Y-80894999D01*
X155325001Y-80894999D02*
X156845000Y-79375000D01*
X156845000Y-79375000D02*
X156845000Y-73660000D01*
D25*
X156845000Y-73660000D02*
X158750000Y-71755000D01*
X158750000Y-71755000D02*
X167005000Y-71755000D01*
X168490000Y-70270000D02*
X168490000Y-66380000D01*
X167005000Y-71755000D02*
X168490000Y-70270000D01*
D24*
X146000500Y-86804500D02*
X145351500Y-86804500D01*
X147010000Y-86745000D02*
X146060000Y-86745000D01*
X146060000Y-86745000D02*
X146000500Y-86804500D01*
X145351500Y-86804500D02*
X144272000Y-87884000D01*
X144272000Y-87884000D02*
X144272000Y-89916000D01*
D25*
X130930000Y-107821000D02*
X130556000Y-108195000D01*
X130930000Y-107696000D02*
X130930000Y-107821000D01*
X130556000Y-108195000D02*
X130556000Y-109220000D01*
X130556000Y-109220000D02*
X131572000Y-110236000D01*
X131572000Y-110236000D02*
X135917098Y-110236000D01*
X135917098Y-110236000D02*
X138176000Y-110236000D01*
X138176000Y-110236000D02*
X144272000Y-104140000D01*
D26*
X144272000Y-89916000D02*
X144272000Y-104140000D01*
D24*
X152747000Y-88045000D02*
X153416000Y-88714000D01*
X152710000Y-88045000D02*
X152747000Y-88045000D01*
D26*
X153416000Y-88714000D02*
X153416000Y-92964000D01*
D25*
X154432000Y-95504000D02*
X154432000Y-108585000D01*
X153416000Y-92964000D02*
X153416000Y-94488000D01*
X153416000Y-94488000D02*
X154432000Y-95504000D01*
X146812000Y-109220000D02*
X146812000Y-107188000D01*
X147320000Y-109728000D02*
X146812000Y-109220000D01*
X153289000Y-109728000D02*
X154432000Y-108585000D01*
X147320000Y-109728000D02*
X153289000Y-109728000D01*
D24*
X147010000Y-87395000D02*
X146189998Y-87395000D01*
D26*
X145494499Y-88090499D02*
X145494499Y-89106499D01*
X145494499Y-89106499D02*
X145796000Y-89408000D01*
D24*
X146189998Y-87395000D02*
X145494499Y-88090499D01*
D25*
X145796000Y-89408000D02*
X146892000Y-90916998D01*
X146812000Y-90996998D02*
X146812000Y-99568000D01*
X146892000Y-90916998D02*
X146812000Y-90996998D01*
D24*
X147010000Y-82845000D02*
X143805000Y-82845000D01*
D26*
X140716000Y-69596000D02*
X140716000Y-72136000D01*
X140716000Y-72136000D02*
X142240000Y-73660000D01*
D24*
X142240000Y-81280000D02*
X143764000Y-82804000D01*
X142240000Y-73660000D02*
X142240000Y-81280000D01*
D25*
X132080000Y-66040000D02*
X137160000Y-66040000D01*
X137160000Y-66040000D02*
X140716000Y-69596000D01*
X130850000Y-61920000D02*
X130850000Y-64810000D01*
X130850000Y-64810000D02*
X132080000Y-66040000D01*
D24*
X147010000Y-83495000D02*
X141978500Y-83495000D01*
X141978500Y-83495000D02*
X141224000Y-82740500D01*
X141224000Y-82740500D02*
X141224000Y-75184000D01*
X141224000Y-75184000D02*
X140208000Y-74168000D01*
D25*
X130930000Y-70863000D02*
X130930000Y-69088000D01*
X134235000Y-74168000D02*
X130930000Y-70863000D01*
X140208000Y-74168000D02*
X134235000Y-74168000D01*
D24*
X144455000Y-84145000D02*
X144343000Y-84145000D01*
X147010000Y-84145000D02*
X144455000Y-84145000D01*
D25*
X130930000Y-78991000D02*
X133219000Y-81280000D01*
X130930000Y-77216000D02*
X130930000Y-78991000D01*
X133219000Y-81280000D02*
X137668000Y-81280000D01*
D24*
X147010000Y-84145000D02*
X141041000Y-84145000D01*
D26*
X138176000Y-81280000D02*
X141041000Y-84145000D01*
X137668000Y-81280000D02*
X138176000Y-81280000D01*
D24*
X141404970Y-84770992D02*
X139612762Y-86563200D01*
X146035992Y-84770992D02*
X141404970Y-84770992D01*
X147010000Y-84795000D02*
X146060000Y-84795000D01*
X146060000Y-84795000D02*
X146035992Y-84770992D01*
X130930000Y-86211000D02*
X130930000Y-84836000D01*
X131282200Y-86563200D02*
X130930000Y-86211000D01*
X139612762Y-86563200D02*
X131282200Y-86563200D01*
X147010000Y-85445000D02*
X146060000Y-85445000D01*
X146060000Y-85445000D02*
X145970500Y-85534500D01*
D26*
X140716000Y-86614000D02*
X138303000Y-89027000D01*
D25*
X132584000Y-89027000D02*
X130930000Y-90681000D01*
X130930000Y-90681000D02*
X130930000Y-92456000D01*
X138303000Y-89027000D02*
X132584000Y-89027000D01*
D26*
X141351000Y-86614000D02*
X142494000Y-85471000D01*
X140716000Y-86614000D02*
X141351000Y-86614000D01*
D24*
X145970500Y-85534500D02*
X142494000Y-85471000D01*
X146886500Y-86095000D02*
X146836501Y-86144999D01*
X146836501Y-86144999D02*
X144042501Y-86144999D01*
X147010000Y-86095000D02*
X146886500Y-86095000D01*
X144042501Y-86144999D02*
X143979001Y-86144999D01*
X143979001Y-86144999D02*
X141605000Y-88519000D01*
D26*
X141605000Y-88519000D02*
X141605000Y-95250000D01*
D25*
X141605000Y-95250000D02*
X141605000Y-95758000D01*
X141605000Y-95758000D02*
X139573000Y-97790000D01*
X130930000Y-98301000D02*
X130930000Y-100076000D01*
X131441000Y-97790000D02*
X130930000Y-98301000D01*
X139573000Y-97790000D02*
X131441000Y-97790000D01*
D24*
X153660000Y-87395000D02*
X154940000Y-88675000D01*
X152710000Y-87395000D02*
X153660000Y-87395000D01*
X154940000Y-88675000D02*
X154940000Y-91440000D01*
D26*
X154940000Y-91440000D02*
X154940000Y-92964000D01*
X154940000Y-92964000D02*
X156972000Y-94996000D01*
D25*
X156972000Y-102616000D02*
X161544000Y-107188000D01*
X156972000Y-94996000D02*
X156972000Y-102616000D01*
D24*
X146124500Y-81545000D02*
X144780000Y-80200500D01*
X147010000Y-81545000D02*
X146124500Y-81545000D01*
X144780000Y-80200500D02*
X144780000Y-80010000D01*
X144780000Y-80010000D02*
X144780000Y-80010000D01*
D26*
X149733000Y-72197000D02*
X149737500Y-72192500D01*
X149733000Y-74295000D02*
X149733000Y-72197000D01*
X149737500Y-68343510D02*
X149733000Y-68339010D01*
D25*
X149737500Y-68443510D02*
X149733000Y-68439010D01*
X149737500Y-72192500D02*
X149737500Y-68443510D01*
D24*
X143720000Y-80982000D02*
X143720000Y-74717500D01*
X147010000Y-82195000D02*
X144933000Y-82195000D01*
X144933000Y-82195000D02*
X143720000Y-80982000D01*
X143720000Y-65510000D02*
X143720000Y-70590000D01*
X143720000Y-74717500D02*
X143720000Y-70590000D01*
X157988000Y-75692000D02*
X160630000Y-73050000D01*
X160630000Y-73050000D02*
X163700000Y-73050000D01*
X157988000Y-80264000D02*
X157988000Y-75692000D01*
X152710000Y-83495000D02*
X154757000Y-83495000D01*
X154757000Y-83495000D02*
X157988000Y-80264000D01*
X153858542Y-86745000D02*
X160528000Y-93414458D01*
X152710000Y-86745000D02*
X153858542Y-86745000D01*
X160528000Y-96012000D02*
X162560000Y-98044000D01*
X160528000Y-94488000D02*
X160528000Y-96012000D01*
X160528000Y-93414458D02*
X160528000Y-94488000D01*
X162560000Y-98044000D02*
X163530000Y-98130000D01*
X162530000Y-93050000D02*
X163530000Y-93050000D01*
X155575000Y-86095000D02*
X154675000Y-86095000D01*
X162530000Y-93050000D02*
X155575000Y-86095000D01*
X154675000Y-86095000D02*
X152710000Y-86095000D01*
X152710000Y-85445000D02*
X158597000Y-85445000D01*
X161122000Y-87970000D02*
X163530000Y-87970000D01*
X158597000Y-85445000D02*
X161122000Y-87970000D01*
X152710000Y-84795000D02*
X156505000Y-84795000D01*
X158410000Y-82890000D02*
X163530000Y-82890000D01*
X156505000Y-84795000D02*
X158410000Y-82890000D01*
X161458000Y-77810000D02*
X163530000Y-77810000D01*
X152710000Y-84145000D02*
X155123000Y-84145000D01*
X155123000Y-84145000D02*
X161458000Y-77810000D01*
D25*
X165730000Y-99080000D02*
X170770000Y-99080000D01*
X178094000Y-106404000D02*
X178094000Y-108204000D01*
X170770000Y-99080000D02*
X178094000Y-106404000D01*
X178094000Y-96244000D02*
X178094000Y-98044000D01*
X175850000Y-94000000D02*
X178094000Y-96244000D01*
X165730000Y-94000000D02*
X175850000Y-94000000D01*
X177058000Y-88920000D02*
X178094000Y-87884000D01*
X165730000Y-88920000D02*
X177058000Y-88920000D01*
X178094000Y-79524000D02*
X178094000Y-77724000D01*
X165730000Y-83840000D02*
X173778000Y-83840000D01*
X173778000Y-83840000D02*
X178094000Y-79524000D01*
X165730000Y-78760000D02*
X171176000Y-78760000D01*
X178094000Y-71842000D02*
X178094000Y-67564000D01*
X171176000Y-78760000D02*
X178094000Y-71842000D01*
X176444000Y-58039000D02*
X178094000Y-58039000D01*
X173990000Y-70739000D02*
X173990000Y-60493000D01*
X173990000Y-60493000D02*
X176444000Y-58039000D01*
X170729000Y-74000000D02*
X173990000Y-70739000D01*
X165900000Y-74000000D02*
X170729000Y-74000000D01*
M02*
