G04 #@! TF.GenerationSoftware,KiCad,Pcbnew,5.1.5*
G04 #@! TF.CreationDate,2020-03-10T21:27:45+01:00*
G04 #@! TF.ProjectId,carte_PCA9685,63617274-655f-4504-9341-393638352e6b,rev?*
G04 #@! TF.SameCoordinates,Original*
G04 #@! TF.FileFunction,Copper,L2,Bot*
G04 #@! TF.FilePolarity,Positive*
%FSLAX46Y46*%
G04 Gerber Fmt 4.6, Leading zero omitted, Abs format (unit mm)*
G04 Created by KiCad (PCBNEW 5.1.5) date 2020-03-10 21:27:45*
%MOMM*%
%LPD*%
G04 APERTURE LIST*
%ADD10C,0.100000*%
%ADD11O,1.700000X1.950000*%
%ADD12R,2.000000X2.000000*%
%ADD13C,2.000000*%
%ADD14R,2.600000X2.600000*%
%ADD15C,2.600000*%
%ADD16O,1.700000X2.000000*%
%ADD17R,2.900000X2.900000*%
%ADD18R,1.700000X1.700000*%
%ADD19O,1.700000X1.700000*%
%ADD20C,1.000000*%
%ADD21C,0.800000*%
%ADD22C,0.800000*%
%ADD23C,0.400000*%
G04 APERTURE END LIST*
G04 #@! TA.AperFunction,ComponentPad*
D10*
G36*
X161614504Y-65406204D02*
G01*
X161638773Y-65409804D01*
X161662571Y-65415765D01*
X161685671Y-65424030D01*
X161707849Y-65434520D01*
X161728893Y-65447133D01*
X161748598Y-65461747D01*
X161766777Y-65478223D01*
X161783253Y-65496402D01*
X161797867Y-65516107D01*
X161810480Y-65537151D01*
X161820970Y-65559329D01*
X161829235Y-65582429D01*
X161835196Y-65606227D01*
X161838796Y-65630496D01*
X161840000Y-65655000D01*
X161840000Y-67105000D01*
X161838796Y-67129504D01*
X161835196Y-67153773D01*
X161829235Y-67177571D01*
X161820970Y-67200671D01*
X161810480Y-67222849D01*
X161797867Y-67243893D01*
X161783253Y-67263598D01*
X161766777Y-67281777D01*
X161748598Y-67298253D01*
X161728893Y-67312867D01*
X161707849Y-67325480D01*
X161685671Y-67335970D01*
X161662571Y-67344235D01*
X161638773Y-67350196D01*
X161614504Y-67353796D01*
X161590000Y-67355000D01*
X160390000Y-67355000D01*
X160365496Y-67353796D01*
X160341227Y-67350196D01*
X160317429Y-67344235D01*
X160294329Y-67335970D01*
X160272151Y-67325480D01*
X160251107Y-67312867D01*
X160231402Y-67298253D01*
X160213223Y-67281777D01*
X160196747Y-67263598D01*
X160182133Y-67243893D01*
X160169520Y-67222849D01*
X160159030Y-67200671D01*
X160150765Y-67177571D01*
X160144804Y-67153773D01*
X160141204Y-67129504D01*
X160140000Y-67105000D01*
X160140000Y-65655000D01*
X160141204Y-65630496D01*
X160144804Y-65606227D01*
X160150765Y-65582429D01*
X160159030Y-65559329D01*
X160169520Y-65537151D01*
X160182133Y-65516107D01*
X160196747Y-65496402D01*
X160213223Y-65478223D01*
X160231402Y-65461747D01*
X160251107Y-65447133D01*
X160272151Y-65434520D01*
X160294329Y-65424030D01*
X160317429Y-65415765D01*
X160341227Y-65409804D01*
X160365496Y-65406204D01*
X160390000Y-65405000D01*
X161590000Y-65405000D01*
X161614504Y-65406204D01*
G37*
G04 #@! TD.AperFunction*
D11*
X163490000Y-66380000D03*
X165990000Y-66380000D03*
X168490000Y-66380000D03*
D12*
X179959000Y-49784000D03*
D13*
X179959000Y-42284000D03*
D14*
X174244000Y-33528000D03*
D15*
X177744000Y-33528000D03*
G04 #@! TA.AperFunction,ComponentPad*
D10*
G36*
X181218504Y-57040204D02*
G01*
X181242773Y-57043804D01*
X181266571Y-57049765D01*
X181289671Y-57058030D01*
X181311849Y-57068520D01*
X181332893Y-57081133D01*
X181352598Y-57095747D01*
X181370777Y-57112223D01*
X181387253Y-57130402D01*
X181401867Y-57150107D01*
X181414480Y-57171151D01*
X181424970Y-57193329D01*
X181433235Y-57216429D01*
X181439196Y-57240227D01*
X181442796Y-57264496D01*
X181444000Y-57289000D01*
X181444000Y-58789000D01*
X181442796Y-58813504D01*
X181439196Y-58837773D01*
X181433235Y-58861571D01*
X181424970Y-58884671D01*
X181414480Y-58906849D01*
X181401867Y-58927893D01*
X181387253Y-58947598D01*
X181370777Y-58965777D01*
X181352598Y-58982253D01*
X181332893Y-58996867D01*
X181311849Y-59009480D01*
X181289671Y-59019970D01*
X181266571Y-59028235D01*
X181242773Y-59034196D01*
X181218504Y-59037796D01*
X181194000Y-59039000D01*
X179994000Y-59039000D01*
X179969496Y-59037796D01*
X179945227Y-59034196D01*
X179921429Y-59028235D01*
X179898329Y-59019970D01*
X179876151Y-59009480D01*
X179855107Y-58996867D01*
X179835402Y-58982253D01*
X179817223Y-58965777D01*
X179800747Y-58947598D01*
X179786133Y-58927893D01*
X179773520Y-58906849D01*
X179763030Y-58884671D01*
X179754765Y-58861571D01*
X179748804Y-58837773D01*
X179745204Y-58813504D01*
X179744000Y-58789000D01*
X179744000Y-57289000D01*
X179745204Y-57264496D01*
X179748804Y-57240227D01*
X179754765Y-57216429D01*
X179763030Y-57193329D01*
X179773520Y-57171151D01*
X179786133Y-57150107D01*
X179800747Y-57130402D01*
X179817223Y-57112223D01*
X179835402Y-57095747D01*
X179855107Y-57081133D01*
X179876151Y-57068520D01*
X179898329Y-57058030D01*
X179921429Y-57049765D01*
X179945227Y-57043804D01*
X179969496Y-57040204D01*
X179994000Y-57039000D01*
X181194000Y-57039000D01*
X181218504Y-57040204D01*
G37*
G04 #@! TD.AperFunction*
D16*
X178094000Y-58039000D03*
G04 #@! TA.AperFunction,ComponentPad*
D10*
G36*
X181218504Y-107205204D02*
G01*
X181242773Y-107208804D01*
X181266571Y-107214765D01*
X181289671Y-107223030D01*
X181311849Y-107233520D01*
X181332893Y-107246133D01*
X181352598Y-107260747D01*
X181370777Y-107277223D01*
X181387253Y-107295402D01*
X181401867Y-107315107D01*
X181414480Y-107336151D01*
X181424970Y-107358329D01*
X181433235Y-107381429D01*
X181439196Y-107405227D01*
X181442796Y-107429496D01*
X181444000Y-107454000D01*
X181444000Y-108954000D01*
X181442796Y-108978504D01*
X181439196Y-109002773D01*
X181433235Y-109026571D01*
X181424970Y-109049671D01*
X181414480Y-109071849D01*
X181401867Y-109092893D01*
X181387253Y-109112598D01*
X181370777Y-109130777D01*
X181352598Y-109147253D01*
X181332893Y-109161867D01*
X181311849Y-109174480D01*
X181289671Y-109184970D01*
X181266571Y-109193235D01*
X181242773Y-109199196D01*
X181218504Y-109202796D01*
X181194000Y-109204000D01*
X179994000Y-109204000D01*
X179969496Y-109202796D01*
X179945227Y-109199196D01*
X179921429Y-109193235D01*
X179898329Y-109184970D01*
X179876151Y-109174480D01*
X179855107Y-109161867D01*
X179835402Y-109147253D01*
X179817223Y-109130777D01*
X179800747Y-109112598D01*
X179786133Y-109092893D01*
X179773520Y-109071849D01*
X179763030Y-109049671D01*
X179754765Y-109026571D01*
X179748804Y-109002773D01*
X179745204Y-108978504D01*
X179744000Y-108954000D01*
X179744000Y-107454000D01*
X179745204Y-107429496D01*
X179748804Y-107405227D01*
X179754765Y-107381429D01*
X179763030Y-107358329D01*
X179773520Y-107336151D01*
X179786133Y-107315107D01*
X179800747Y-107295402D01*
X179817223Y-107277223D01*
X179835402Y-107260747D01*
X179855107Y-107246133D01*
X179876151Y-107233520D01*
X179898329Y-107223030D01*
X179921429Y-107214765D01*
X179945227Y-107208804D01*
X179969496Y-107205204D01*
X179994000Y-107204000D01*
X181194000Y-107204000D01*
X181218504Y-107205204D01*
G37*
G04 #@! TD.AperFunction*
D16*
X178094000Y-108204000D03*
X178094000Y-98044000D03*
G04 #@! TA.AperFunction,ComponentPad*
D10*
G36*
X181218504Y-97045204D02*
G01*
X181242773Y-97048804D01*
X181266571Y-97054765D01*
X181289671Y-97063030D01*
X181311849Y-97073520D01*
X181332893Y-97086133D01*
X181352598Y-97100747D01*
X181370777Y-97117223D01*
X181387253Y-97135402D01*
X181401867Y-97155107D01*
X181414480Y-97176151D01*
X181424970Y-97198329D01*
X181433235Y-97221429D01*
X181439196Y-97245227D01*
X181442796Y-97269496D01*
X181444000Y-97294000D01*
X181444000Y-98794000D01*
X181442796Y-98818504D01*
X181439196Y-98842773D01*
X181433235Y-98866571D01*
X181424970Y-98889671D01*
X181414480Y-98911849D01*
X181401867Y-98932893D01*
X181387253Y-98952598D01*
X181370777Y-98970777D01*
X181352598Y-98987253D01*
X181332893Y-99001867D01*
X181311849Y-99014480D01*
X181289671Y-99024970D01*
X181266571Y-99033235D01*
X181242773Y-99039196D01*
X181218504Y-99042796D01*
X181194000Y-99044000D01*
X179994000Y-99044000D01*
X179969496Y-99042796D01*
X179945227Y-99039196D01*
X179921429Y-99033235D01*
X179898329Y-99024970D01*
X179876151Y-99014480D01*
X179855107Y-99001867D01*
X179835402Y-98987253D01*
X179817223Y-98970777D01*
X179800747Y-98952598D01*
X179786133Y-98932893D01*
X179773520Y-98911849D01*
X179763030Y-98889671D01*
X179754765Y-98866571D01*
X179748804Y-98842773D01*
X179745204Y-98818504D01*
X179744000Y-98794000D01*
X179744000Y-97294000D01*
X179745204Y-97269496D01*
X179748804Y-97245227D01*
X179754765Y-97221429D01*
X179763030Y-97198329D01*
X179773520Y-97176151D01*
X179786133Y-97155107D01*
X179800747Y-97135402D01*
X179817223Y-97117223D01*
X179835402Y-97100747D01*
X179855107Y-97086133D01*
X179876151Y-97073520D01*
X179898329Y-97063030D01*
X179921429Y-97054765D01*
X179945227Y-97048804D01*
X179969496Y-97045204D01*
X179994000Y-97044000D01*
X181194000Y-97044000D01*
X181218504Y-97045204D01*
G37*
G04 #@! TD.AperFunction*
D16*
X178094000Y-87884000D03*
G04 #@! TA.AperFunction,ComponentPad*
D10*
G36*
X181218504Y-86885204D02*
G01*
X181242773Y-86888804D01*
X181266571Y-86894765D01*
X181289671Y-86903030D01*
X181311849Y-86913520D01*
X181332893Y-86926133D01*
X181352598Y-86940747D01*
X181370777Y-86957223D01*
X181387253Y-86975402D01*
X181401867Y-86995107D01*
X181414480Y-87016151D01*
X181424970Y-87038329D01*
X181433235Y-87061429D01*
X181439196Y-87085227D01*
X181442796Y-87109496D01*
X181444000Y-87134000D01*
X181444000Y-88634000D01*
X181442796Y-88658504D01*
X181439196Y-88682773D01*
X181433235Y-88706571D01*
X181424970Y-88729671D01*
X181414480Y-88751849D01*
X181401867Y-88772893D01*
X181387253Y-88792598D01*
X181370777Y-88810777D01*
X181352598Y-88827253D01*
X181332893Y-88841867D01*
X181311849Y-88854480D01*
X181289671Y-88864970D01*
X181266571Y-88873235D01*
X181242773Y-88879196D01*
X181218504Y-88882796D01*
X181194000Y-88884000D01*
X179994000Y-88884000D01*
X179969496Y-88882796D01*
X179945227Y-88879196D01*
X179921429Y-88873235D01*
X179898329Y-88864970D01*
X179876151Y-88854480D01*
X179855107Y-88841867D01*
X179835402Y-88827253D01*
X179817223Y-88810777D01*
X179800747Y-88792598D01*
X179786133Y-88772893D01*
X179773520Y-88751849D01*
X179763030Y-88729671D01*
X179754765Y-88706571D01*
X179748804Y-88682773D01*
X179745204Y-88658504D01*
X179744000Y-88634000D01*
X179744000Y-87134000D01*
X179745204Y-87109496D01*
X179748804Y-87085227D01*
X179754765Y-87061429D01*
X179763030Y-87038329D01*
X179773520Y-87016151D01*
X179786133Y-86995107D01*
X179800747Y-86975402D01*
X179817223Y-86957223D01*
X179835402Y-86940747D01*
X179855107Y-86926133D01*
X179876151Y-86913520D01*
X179898329Y-86903030D01*
X179921429Y-86894765D01*
X179945227Y-86888804D01*
X179969496Y-86885204D01*
X179994000Y-86884000D01*
X181194000Y-86884000D01*
X181218504Y-86885204D01*
G37*
G04 #@! TD.AperFunction*
D16*
X178094000Y-77724000D03*
G04 #@! TA.AperFunction,ComponentPad*
D10*
G36*
X181218504Y-76725204D02*
G01*
X181242773Y-76728804D01*
X181266571Y-76734765D01*
X181289671Y-76743030D01*
X181311849Y-76753520D01*
X181332893Y-76766133D01*
X181352598Y-76780747D01*
X181370777Y-76797223D01*
X181387253Y-76815402D01*
X181401867Y-76835107D01*
X181414480Y-76856151D01*
X181424970Y-76878329D01*
X181433235Y-76901429D01*
X181439196Y-76925227D01*
X181442796Y-76949496D01*
X181444000Y-76974000D01*
X181444000Y-78474000D01*
X181442796Y-78498504D01*
X181439196Y-78522773D01*
X181433235Y-78546571D01*
X181424970Y-78569671D01*
X181414480Y-78591849D01*
X181401867Y-78612893D01*
X181387253Y-78632598D01*
X181370777Y-78650777D01*
X181352598Y-78667253D01*
X181332893Y-78681867D01*
X181311849Y-78694480D01*
X181289671Y-78704970D01*
X181266571Y-78713235D01*
X181242773Y-78719196D01*
X181218504Y-78722796D01*
X181194000Y-78724000D01*
X179994000Y-78724000D01*
X179969496Y-78722796D01*
X179945227Y-78719196D01*
X179921429Y-78713235D01*
X179898329Y-78704970D01*
X179876151Y-78694480D01*
X179855107Y-78681867D01*
X179835402Y-78667253D01*
X179817223Y-78650777D01*
X179800747Y-78632598D01*
X179786133Y-78612893D01*
X179773520Y-78591849D01*
X179763030Y-78569671D01*
X179754765Y-78546571D01*
X179748804Y-78522773D01*
X179745204Y-78498504D01*
X179744000Y-78474000D01*
X179744000Y-76974000D01*
X179745204Y-76949496D01*
X179748804Y-76925227D01*
X179754765Y-76901429D01*
X179763030Y-76878329D01*
X179773520Y-76856151D01*
X179786133Y-76835107D01*
X179800747Y-76815402D01*
X179817223Y-76797223D01*
X179835402Y-76780747D01*
X179855107Y-76766133D01*
X179876151Y-76753520D01*
X179898329Y-76743030D01*
X179921429Y-76734765D01*
X179945227Y-76728804D01*
X179969496Y-76725204D01*
X179994000Y-76724000D01*
X181194000Y-76724000D01*
X181218504Y-76725204D01*
G37*
G04 #@! TD.AperFunction*
G04 #@! TA.AperFunction,ComponentPad*
G36*
X181218504Y-66565204D02*
G01*
X181242773Y-66568804D01*
X181266571Y-66574765D01*
X181289671Y-66583030D01*
X181311849Y-66593520D01*
X181332893Y-66606133D01*
X181352598Y-66620747D01*
X181370777Y-66637223D01*
X181387253Y-66655402D01*
X181401867Y-66675107D01*
X181414480Y-66696151D01*
X181424970Y-66718329D01*
X181433235Y-66741429D01*
X181439196Y-66765227D01*
X181442796Y-66789496D01*
X181444000Y-66814000D01*
X181444000Y-68314000D01*
X181442796Y-68338504D01*
X181439196Y-68362773D01*
X181433235Y-68386571D01*
X181424970Y-68409671D01*
X181414480Y-68431849D01*
X181401867Y-68452893D01*
X181387253Y-68472598D01*
X181370777Y-68490777D01*
X181352598Y-68507253D01*
X181332893Y-68521867D01*
X181311849Y-68534480D01*
X181289671Y-68544970D01*
X181266571Y-68553235D01*
X181242773Y-68559196D01*
X181218504Y-68562796D01*
X181194000Y-68564000D01*
X179994000Y-68564000D01*
X179969496Y-68562796D01*
X179945227Y-68559196D01*
X179921429Y-68553235D01*
X179898329Y-68544970D01*
X179876151Y-68534480D01*
X179855107Y-68521867D01*
X179835402Y-68507253D01*
X179817223Y-68490777D01*
X179800747Y-68472598D01*
X179786133Y-68452893D01*
X179773520Y-68431849D01*
X179763030Y-68409671D01*
X179754765Y-68386571D01*
X179748804Y-68362773D01*
X179745204Y-68338504D01*
X179744000Y-68314000D01*
X179744000Y-66814000D01*
X179745204Y-66789496D01*
X179748804Y-66765227D01*
X179754765Y-66741429D01*
X179763030Y-66718329D01*
X179773520Y-66696151D01*
X179786133Y-66675107D01*
X179800747Y-66655402D01*
X179817223Y-66637223D01*
X179835402Y-66620747D01*
X179855107Y-66606133D01*
X179876151Y-66593520D01*
X179898329Y-66583030D01*
X179921429Y-66574765D01*
X179945227Y-66568804D01*
X179969496Y-66565204D01*
X179994000Y-66564000D01*
X181194000Y-66564000D01*
X181218504Y-66565204D01*
G37*
G04 #@! TD.AperFunction*
D16*
X178094000Y-67564000D03*
D17*
X169610000Y-54720000D03*
X169610000Y-36720000D03*
X130110000Y-54720000D03*
X130110000Y-36720000D03*
D18*
X135930000Y-61920000D03*
D19*
X133390000Y-61920000D03*
X130850000Y-61920000D03*
D18*
X135930000Y-69088000D03*
D19*
X133390000Y-69088000D03*
X130850000Y-69088000D03*
X130850000Y-77216000D03*
X133390000Y-77216000D03*
D18*
X135930000Y-77216000D03*
X135930000Y-84836000D03*
D19*
X133390000Y-84836000D03*
X130850000Y-84836000D03*
X130850000Y-92456000D03*
X133390000Y-92456000D03*
D18*
X135930000Y-92456000D03*
D19*
X130850000Y-100076000D03*
X133390000Y-100076000D03*
D18*
X135930000Y-100076000D03*
X135930000Y-107696000D03*
D19*
X133390000Y-107696000D03*
X130850000Y-107696000D03*
D18*
X151892000Y-107188000D03*
D19*
X149352000Y-107188000D03*
X146812000Y-107188000D03*
X146812000Y-99568000D03*
X149352000Y-99568000D03*
D18*
X151892000Y-99568000D03*
X166624000Y-107188000D03*
D19*
X164084000Y-107188000D03*
X161544000Y-107188000D03*
D20*
X163656000Y-102028000D03*
X163656000Y-76374000D03*
X163656000Y-81327000D03*
X163656000Y-86280000D03*
X163656000Y-91487000D03*
X163656000Y-96567000D03*
X149860000Y-82804000D03*
D21*
X144780000Y-80010000D03*
D20*
X149733000Y-74295000D03*
D22*
X149312000Y-111212000D02*
X149312000Y-107188000D01*
X149352000Y-111252000D02*
X149312000Y-111212000D01*
X135211000Y-111252000D02*
X149352000Y-111252000D01*
X133430000Y-107696000D02*
X133430000Y-109471000D01*
X133430000Y-109471000D02*
X135211000Y-111252000D01*
X149352000Y-111252000D02*
X163740000Y-111252000D01*
X133390000Y-61920000D02*
X133390000Y-69088000D01*
X133390000Y-69088000D02*
X133390000Y-77216000D01*
X133390000Y-77216000D02*
X133390000Y-84836000D01*
X133390000Y-84836000D02*
X133390000Y-92456000D01*
X133390000Y-92456000D02*
X133390000Y-100076000D01*
X133390000Y-100076000D02*
X133390000Y-107696000D01*
X164084000Y-110908000D02*
X164084000Y-107188000D01*
X163740000Y-111252000D02*
X164084000Y-110908000D01*
X163656000Y-66546000D02*
X163490000Y-66380000D01*
X163656000Y-102028000D02*
X163656000Y-96567000D01*
X163656000Y-76374000D02*
X163656000Y-66546000D01*
X163656000Y-81327000D02*
X163656000Y-76374000D01*
X163656000Y-86280000D02*
X163656000Y-81327000D01*
X163656000Y-91487000D02*
X163656000Y-86280000D01*
X163656000Y-96567000D02*
X163656000Y-91487000D01*
X162179000Y-82804000D02*
X163656000Y-81327000D01*
X149860000Y-82804000D02*
X162179000Y-82804000D01*
X163490000Y-64605000D02*
X163490000Y-66380000D01*
X174752000Y-55219600D02*
X168097200Y-61874400D01*
X179959000Y-42284000D02*
X179959000Y-43698213D01*
X179959000Y-43698213D02*
X183159400Y-46898613D01*
X168097200Y-61874400D02*
X166220600Y-61874400D01*
X183159400Y-46898613D02*
X183159400Y-51384200D01*
X183159400Y-51384200D02*
X179324000Y-55219600D01*
X166220600Y-61874400D02*
X163490000Y-64605000D01*
X179324000Y-55219600D02*
X174752000Y-55219600D01*
X135930000Y-107696000D02*
X135930000Y-100076000D01*
X135930000Y-100076000D02*
X135930000Y-92456000D01*
X135930000Y-92456000D02*
X135930000Y-84836000D01*
X135930000Y-84836000D02*
X135930000Y-77216000D01*
X135930000Y-77216000D02*
X135930000Y-69088000D01*
X135930000Y-69088000D02*
X135930000Y-61920000D01*
X163656000Y-102028000D02*
X165020000Y-102028000D01*
X166624000Y-103632000D02*
X166624000Y-107188000D01*
X165020000Y-102028000D02*
X166624000Y-103632000D01*
X171860000Y-54720000D02*
X169610000Y-54720000D01*
X174244000Y-52336000D02*
X171860000Y-54720000D01*
X174244000Y-33528000D02*
X174244000Y-52336000D01*
D23*
X144780000Y-80010000D02*
X144780000Y-78105000D01*
X144780000Y-78105000D02*
X148590000Y-74295000D01*
X148590000Y-74295000D02*
X149733000Y-74295000D01*
X149733000Y-74295000D02*
X149733000Y-74295000D01*
M02*
