M48
; DRILL file {KiCad 5.1.5} date mar. 10 mars 2020 21:27:50
; FORMAT={-:-/ absolute / inch / decimal}
; #@! TF.CreationDate,2020-03-10T21:27:50+01:00
; #@! TF.GenerationSoftware,Kicad,Pcbnew,5.1.5
; #@! TF.FileFunction,Plated,1,2,PTH
FMAT,2
INCH
T1C0.0236
T2C0.0374
T3C0.0394
T4C0.0512
%
G90
G05
T1
X5.7Y-3.15
X5.895Y-2.925
X5.9Y-3.26
X6.4431Y-3.0069
X6.4431Y-3.2019
X6.4431Y-3.3969
X6.4431Y-3.6019
X6.4431Y-3.8019
X6.4431Y-4.0169
T2
X6.3382Y-2.6134
X6.4366Y-2.6134
X6.535Y-2.6134
X6.6335Y-2.6134
T3
X7.0116Y-3.06
X7.11Y-3.06
X5.78Y-3.92
X5.88Y-3.92
X5.98Y-3.92
X5.1516Y-3.94
X5.2516Y-3.94
X5.3516Y-3.94
X7.0116Y-4.26
X7.11Y-4.26
X5.1516Y-2.72
X5.2516Y-2.72
X5.3516Y-2.72
X7.0116Y-2.66
X7.11Y-2.66
X7.0116Y-3.46
X7.11Y-3.46
X5.1516Y-2.4378
X5.2516Y-2.4378
X5.3516Y-2.4378
X6.36Y-4.22
X6.46Y-4.22
X6.56Y-4.22
X5.1516Y-3.04
X5.2516Y-3.04
X5.3516Y-3.04
X7.0116Y-2.285
X7.11Y-2.285
X5.1516Y-4.24
X5.2516Y-4.24
X5.3516Y-4.24
X5.1516Y-3.34
X5.2516Y-3.34
X5.3516Y-3.34
X5.1516Y-3.64
X5.2516Y-3.64
X5.3516Y-3.64
X7.085Y-1.6647
X7.085Y-1.96
X5.78Y-4.22
X5.88Y-4.22
X5.98Y-4.22
X5.1224Y-1.4457
X5.1224Y-2.1543
X6.6776Y-1.4457
X6.6776Y-2.1543
X7.0116Y-3.86
X7.11Y-3.86
T4
X6.86Y-1.32
X6.9978Y-1.32
T0
M30
