G04 #@! TF.GenerationSoftware,KiCad,Pcbnew,5.1.5*
G04 #@! TF.CreationDate,2020-03-10T21:27:45+01:00*
G04 #@! TF.ProjectId,carte_PCA9685,63617274-655f-4504-9341-393638352e6b,rev?*
G04 #@! TF.SameCoordinates,Original*
G04 #@! TF.FileFunction,Soldermask,Bot*
G04 #@! TF.FilePolarity,Negative*
%FSLAX46Y46*%
G04 Gerber Fmt 4.6, Leading zero omitted, Abs format (unit mm)*
G04 Created by KiCad (PCBNEW 5.1.5) date 2020-03-10 21:27:45*
%MOMM*%
%LPD*%
G04 APERTURE LIST*
%ADD10C,0.100000*%
G04 APERTURE END LIST*
D10*
G36*
X187246585Y-110478802D02*
G01*
X187396410Y-110508604D01*
X187678674Y-110625521D01*
X187932705Y-110795259D01*
X188148741Y-111011295D01*
X188318479Y-111265326D01*
X188435396Y-111547590D01*
X188495000Y-111847240D01*
X188495000Y-112152760D01*
X188435396Y-112452410D01*
X188318479Y-112734674D01*
X188148741Y-112988705D01*
X187932705Y-113204741D01*
X187678674Y-113374479D01*
X187396410Y-113491396D01*
X187246585Y-113521198D01*
X187096761Y-113551000D01*
X186791239Y-113551000D01*
X186641415Y-113521198D01*
X186491590Y-113491396D01*
X186209326Y-113374479D01*
X185955295Y-113204741D01*
X185739259Y-112988705D01*
X185569521Y-112734674D01*
X185452604Y-112452410D01*
X185393000Y-112152760D01*
X185393000Y-111847240D01*
X185452604Y-111547590D01*
X185569521Y-111265326D01*
X185739259Y-111011295D01*
X185955295Y-110795259D01*
X186209326Y-110625521D01*
X186491590Y-110508604D01*
X186641415Y-110478802D01*
X186791239Y-110449000D01*
X187096761Y-110449000D01*
X187246585Y-110478802D01*
G37*
G36*
X125302585Y-110478802D02*
G01*
X125452410Y-110508604D01*
X125734674Y-110625521D01*
X125988705Y-110795259D01*
X126204741Y-111011295D01*
X126374479Y-111265326D01*
X126491396Y-111547590D01*
X126551000Y-111847240D01*
X126551000Y-112152760D01*
X126491396Y-112452410D01*
X126374479Y-112734674D01*
X126204741Y-112988705D01*
X125988705Y-113204741D01*
X125734674Y-113374479D01*
X125452410Y-113491396D01*
X125302585Y-113521198D01*
X125152761Y-113551000D01*
X124847239Y-113551000D01*
X124697415Y-113521198D01*
X124547590Y-113491396D01*
X124265326Y-113374479D01*
X124011295Y-113204741D01*
X123795259Y-112988705D01*
X123625521Y-112734674D01*
X123508604Y-112452410D01*
X123449000Y-112152760D01*
X123449000Y-111847240D01*
X123508604Y-111547590D01*
X123625521Y-111265326D01*
X123795259Y-111011295D01*
X124011295Y-110795259D01*
X124265326Y-110625521D01*
X124547590Y-110508604D01*
X124697415Y-110478802D01*
X124847239Y-110449000D01*
X125152761Y-110449000D01*
X125302585Y-110478802D01*
G37*
G36*
X178270627Y-107166037D02*
G01*
X178440466Y-107217557D01*
X178596991Y-107301222D01*
X178632729Y-107330552D01*
X178734186Y-107413814D01*
X178817448Y-107515271D01*
X178846778Y-107551009D01*
X178930443Y-107707534D01*
X178981963Y-107877374D01*
X178981963Y-107877376D01*
X178992707Y-107986456D01*
X178995000Y-108009743D01*
X178995000Y-108398258D01*
X178981963Y-108530627D01*
X178930443Y-108700466D01*
X178846778Y-108856991D01*
X178817448Y-108892729D01*
X178734186Y-108994186D01*
X178596989Y-109106779D01*
X178440467Y-109190442D01*
X178440465Y-109190443D01*
X178270626Y-109241963D01*
X178094000Y-109259359D01*
X177917373Y-109241963D01*
X177747534Y-109190443D01*
X177591009Y-109106778D01*
X177548750Y-109072097D01*
X177453814Y-108994186D01*
X177341221Y-108856989D01*
X177257558Y-108700467D01*
X177257557Y-108700465D01*
X177206037Y-108530626D01*
X177193000Y-108398257D01*
X177193000Y-108009742D01*
X177206037Y-107877373D01*
X177257557Y-107707534D01*
X177341222Y-107551009D01*
X177453815Y-107413815D01*
X177591010Y-107301222D01*
X177747535Y-107217557D01*
X177917374Y-107166037D01*
X178094000Y-107148641D01*
X178270627Y-107166037D01*
G37*
G36*
X181352600Y-107156989D02*
G01*
X181385652Y-107167015D01*
X181416103Y-107183292D01*
X181442799Y-107205201D01*
X181464708Y-107231897D01*
X181480985Y-107262348D01*
X181491011Y-107295400D01*
X181495000Y-107335903D01*
X181495000Y-109072097D01*
X181491011Y-109112600D01*
X181480985Y-109145652D01*
X181464708Y-109176103D01*
X181442799Y-109202799D01*
X181416103Y-109224708D01*
X181385652Y-109240985D01*
X181352600Y-109251011D01*
X181312097Y-109255000D01*
X179875903Y-109255000D01*
X179835400Y-109251011D01*
X179802348Y-109240985D01*
X179771897Y-109224708D01*
X179745201Y-109202799D01*
X179723292Y-109176103D01*
X179707015Y-109145652D01*
X179696989Y-109112600D01*
X179693000Y-109072097D01*
X179693000Y-107335903D01*
X179696989Y-107295400D01*
X179707015Y-107262348D01*
X179723292Y-107231897D01*
X179745201Y-107205201D01*
X179771897Y-107183292D01*
X179802348Y-107167015D01*
X179835400Y-107156989D01*
X179875903Y-107153000D01*
X181312097Y-107153000D01*
X181352600Y-107156989D01*
G37*
G36*
X136831000Y-108597000D02*
G01*
X135029000Y-108597000D01*
X135029000Y-106795000D01*
X136831000Y-106795000D01*
X136831000Y-108597000D01*
G37*
G36*
X133503512Y-106799927D02*
G01*
X133652812Y-106829624D01*
X133816784Y-106897544D01*
X133964354Y-106996147D01*
X134089853Y-107121646D01*
X134188456Y-107269216D01*
X134256376Y-107433188D01*
X134291000Y-107607259D01*
X134291000Y-107784741D01*
X134256376Y-107958812D01*
X134188456Y-108122784D01*
X134089853Y-108270354D01*
X133964354Y-108395853D01*
X133816784Y-108494456D01*
X133652812Y-108562376D01*
X133503512Y-108592073D01*
X133478742Y-108597000D01*
X133301258Y-108597000D01*
X133276488Y-108592073D01*
X133127188Y-108562376D01*
X132963216Y-108494456D01*
X132815646Y-108395853D01*
X132690147Y-108270354D01*
X132591544Y-108122784D01*
X132523624Y-107958812D01*
X132489000Y-107784741D01*
X132489000Y-107607259D01*
X132523624Y-107433188D01*
X132591544Y-107269216D01*
X132690147Y-107121646D01*
X132815646Y-106996147D01*
X132963216Y-106897544D01*
X133127188Y-106829624D01*
X133276488Y-106799927D01*
X133301258Y-106795000D01*
X133478742Y-106795000D01*
X133503512Y-106799927D01*
G37*
G36*
X130963512Y-106799927D02*
G01*
X131112812Y-106829624D01*
X131276784Y-106897544D01*
X131424354Y-106996147D01*
X131549853Y-107121646D01*
X131648456Y-107269216D01*
X131716376Y-107433188D01*
X131751000Y-107607259D01*
X131751000Y-107784741D01*
X131716376Y-107958812D01*
X131648456Y-108122784D01*
X131549853Y-108270354D01*
X131424354Y-108395853D01*
X131276784Y-108494456D01*
X131112812Y-108562376D01*
X130963512Y-108592073D01*
X130938742Y-108597000D01*
X130761258Y-108597000D01*
X130736488Y-108592073D01*
X130587188Y-108562376D01*
X130423216Y-108494456D01*
X130275646Y-108395853D01*
X130150147Y-108270354D01*
X130051544Y-108122784D01*
X129983624Y-107958812D01*
X129949000Y-107784741D01*
X129949000Y-107607259D01*
X129983624Y-107433188D01*
X130051544Y-107269216D01*
X130150147Y-107121646D01*
X130275646Y-106996147D01*
X130423216Y-106897544D01*
X130587188Y-106829624D01*
X130736488Y-106799927D01*
X130761258Y-106795000D01*
X130938742Y-106795000D01*
X130963512Y-106799927D01*
G37*
G36*
X164197512Y-106291927D02*
G01*
X164346812Y-106321624D01*
X164510784Y-106389544D01*
X164658354Y-106488147D01*
X164783853Y-106613646D01*
X164882456Y-106761216D01*
X164950376Y-106925188D01*
X164985000Y-107099259D01*
X164985000Y-107276741D01*
X164950376Y-107450812D01*
X164882456Y-107614784D01*
X164783853Y-107762354D01*
X164658354Y-107887853D01*
X164510784Y-107986456D01*
X164346812Y-108054376D01*
X164197512Y-108084073D01*
X164172742Y-108089000D01*
X163995258Y-108089000D01*
X163970488Y-108084073D01*
X163821188Y-108054376D01*
X163657216Y-107986456D01*
X163509646Y-107887853D01*
X163384147Y-107762354D01*
X163285544Y-107614784D01*
X163217624Y-107450812D01*
X163183000Y-107276741D01*
X163183000Y-107099259D01*
X163217624Y-106925188D01*
X163285544Y-106761216D01*
X163384147Y-106613646D01*
X163509646Y-106488147D01*
X163657216Y-106389544D01*
X163821188Y-106321624D01*
X163970488Y-106291927D01*
X163995258Y-106287000D01*
X164172742Y-106287000D01*
X164197512Y-106291927D01*
G37*
G36*
X167525000Y-108089000D02*
G01*
X165723000Y-108089000D01*
X165723000Y-106287000D01*
X167525000Y-106287000D01*
X167525000Y-108089000D01*
G37*
G36*
X146925512Y-106291927D02*
G01*
X147074812Y-106321624D01*
X147238784Y-106389544D01*
X147386354Y-106488147D01*
X147511853Y-106613646D01*
X147610456Y-106761216D01*
X147678376Y-106925188D01*
X147713000Y-107099259D01*
X147713000Y-107276741D01*
X147678376Y-107450812D01*
X147610456Y-107614784D01*
X147511853Y-107762354D01*
X147386354Y-107887853D01*
X147238784Y-107986456D01*
X147074812Y-108054376D01*
X146925512Y-108084073D01*
X146900742Y-108089000D01*
X146723258Y-108089000D01*
X146698488Y-108084073D01*
X146549188Y-108054376D01*
X146385216Y-107986456D01*
X146237646Y-107887853D01*
X146112147Y-107762354D01*
X146013544Y-107614784D01*
X145945624Y-107450812D01*
X145911000Y-107276741D01*
X145911000Y-107099259D01*
X145945624Y-106925188D01*
X146013544Y-106761216D01*
X146112147Y-106613646D01*
X146237646Y-106488147D01*
X146385216Y-106389544D01*
X146549188Y-106321624D01*
X146698488Y-106291927D01*
X146723258Y-106287000D01*
X146900742Y-106287000D01*
X146925512Y-106291927D01*
G37*
G36*
X149465512Y-106291927D02*
G01*
X149614812Y-106321624D01*
X149778784Y-106389544D01*
X149926354Y-106488147D01*
X150051853Y-106613646D01*
X150150456Y-106761216D01*
X150218376Y-106925188D01*
X150253000Y-107099259D01*
X150253000Y-107276741D01*
X150218376Y-107450812D01*
X150150456Y-107614784D01*
X150051853Y-107762354D01*
X149926354Y-107887853D01*
X149778784Y-107986456D01*
X149614812Y-108054376D01*
X149465512Y-108084073D01*
X149440742Y-108089000D01*
X149263258Y-108089000D01*
X149238488Y-108084073D01*
X149089188Y-108054376D01*
X148925216Y-107986456D01*
X148777646Y-107887853D01*
X148652147Y-107762354D01*
X148553544Y-107614784D01*
X148485624Y-107450812D01*
X148451000Y-107276741D01*
X148451000Y-107099259D01*
X148485624Y-106925188D01*
X148553544Y-106761216D01*
X148652147Y-106613646D01*
X148777646Y-106488147D01*
X148925216Y-106389544D01*
X149089188Y-106321624D01*
X149238488Y-106291927D01*
X149263258Y-106287000D01*
X149440742Y-106287000D01*
X149465512Y-106291927D01*
G37*
G36*
X152793000Y-108089000D02*
G01*
X150991000Y-108089000D01*
X150991000Y-106287000D01*
X152793000Y-106287000D01*
X152793000Y-108089000D01*
G37*
G36*
X161657512Y-106291927D02*
G01*
X161806812Y-106321624D01*
X161970784Y-106389544D01*
X162118354Y-106488147D01*
X162243853Y-106613646D01*
X162342456Y-106761216D01*
X162410376Y-106925188D01*
X162445000Y-107099259D01*
X162445000Y-107276741D01*
X162410376Y-107450812D01*
X162342456Y-107614784D01*
X162243853Y-107762354D01*
X162118354Y-107887853D01*
X161970784Y-107986456D01*
X161806812Y-108054376D01*
X161657512Y-108084073D01*
X161632742Y-108089000D01*
X161455258Y-108089000D01*
X161430488Y-108084073D01*
X161281188Y-108054376D01*
X161117216Y-107986456D01*
X160969646Y-107887853D01*
X160844147Y-107762354D01*
X160745544Y-107614784D01*
X160677624Y-107450812D01*
X160643000Y-107276741D01*
X160643000Y-107099259D01*
X160677624Y-106925188D01*
X160745544Y-106761216D01*
X160844147Y-106613646D01*
X160969646Y-106488147D01*
X161117216Y-106389544D01*
X161281188Y-106321624D01*
X161430488Y-106291927D01*
X161455258Y-106287000D01*
X161632742Y-106287000D01*
X161657512Y-106291927D01*
G37*
G36*
X130963512Y-99179927D02*
G01*
X131112812Y-99209624D01*
X131276784Y-99277544D01*
X131424354Y-99376147D01*
X131549853Y-99501646D01*
X131648456Y-99649216D01*
X131716376Y-99813188D01*
X131751000Y-99987259D01*
X131751000Y-100164741D01*
X131716376Y-100338812D01*
X131648456Y-100502784D01*
X131549853Y-100650354D01*
X131424354Y-100775853D01*
X131276784Y-100874456D01*
X131112812Y-100942376D01*
X130963512Y-100972073D01*
X130938742Y-100977000D01*
X130761258Y-100977000D01*
X130736488Y-100972073D01*
X130587188Y-100942376D01*
X130423216Y-100874456D01*
X130275646Y-100775853D01*
X130150147Y-100650354D01*
X130051544Y-100502784D01*
X129983624Y-100338812D01*
X129949000Y-100164741D01*
X129949000Y-99987259D01*
X129983624Y-99813188D01*
X130051544Y-99649216D01*
X130150147Y-99501646D01*
X130275646Y-99376147D01*
X130423216Y-99277544D01*
X130587188Y-99209624D01*
X130736488Y-99179927D01*
X130761258Y-99175000D01*
X130938742Y-99175000D01*
X130963512Y-99179927D01*
G37*
G36*
X133503512Y-99179927D02*
G01*
X133652812Y-99209624D01*
X133816784Y-99277544D01*
X133964354Y-99376147D01*
X134089853Y-99501646D01*
X134188456Y-99649216D01*
X134256376Y-99813188D01*
X134291000Y-99987259D01*
X134291000Y-100164741D01*
X134256376Y-100338812D01*
X134188456Y-100502784D01*
X134089853Y-100650354D01*
X133964354Y-100775853D01*
X133816784Y-100874456D01*
X133652812Y-100942376D01*
X133503512Y-100972073D01*
X133478742Y-100977000D01*
X133301258Y-100977000D01*
X133276488Y-100972073D01*
X133127188Y-100942376D01*
X132963216Y-100874456D01*
X132815646Y-100775853D01*
X132690147Y-100650354D01*
X132591544Y-100502784D01*
X132523624Y-100338812D01*
X132489000Y-100164741D01*
X132489000Y-99987259D01*
X132523624Y-99813188D01*
X132591544Y-99649216D01*
X132690147Y-99501646D01*
X132815646Y-99376147D01*
X132963216Y-99277544D01*
X133127188Y-99209624D01*
X133276488Y-99179927D01*
X133301258Y-99175000D01*
X133478742Y-99175000D01*
X133503512Y-99179927D01*
G37*
G36*
X136831000Y-100977000D02*
G01*
X135029000Y-100977000D01*
X135029000Y-99175000D01*
X136831000Y-99175000D01*
X136831000Y-100977000D01*
G37*
G36*
X146925512Y-98671927D02*
G01*
X147074812Y-98701624D01*
X147238784Y-98769544D01*
X147386354Y-98868147D01*
X147511853Y-98993646D01*
X147610456Y-99141216D01*
X147678376Y-99305188D01*
X147713000Y-99479259D01*
X147713000Y-99656741D01*
X147678376Y-99830812D01*
X147610456Y-99994784D01*
X147511853Y-100142354D01*
X147386354Y-100267853D01*
X147238784Y-100366456D01*
X147074812Y-100434376D01*
X146925512Y-100464073D01*
X146900742Y-100469000D01*
X146723258Y-100469000D01*
X146698488Y-100464073D01*
X146549188Y-100434376D01*
X146385216Y-100366456D01*
X146237646Y-100267853D01*
X146112147Y-100142354D01*
X146013544Y-99994784D01*
X145945624Y-99830812D01*
X145911000Y-99656741D01*
X145911000Y-99479259D01*
X145945624Y-99305188D01*
X146013544Y-99141216D01*
X146112147Y-98993646D01*
X146237646Y-98868147D01*
X146385216Y-98769544D01*
X146549188Y-98701624D01*
X146698488Y-98671927D01*
X146723258Y-98667000D01*
X146900742Y-98667000D01*
X146925512Y-98671927D01*
G37*
G36*
X149465512Y-98671927D02*
G01*
X149614812Y-98701624D01*
X149778784Y-98769544D01*
X149926354Y-98868147D01*
X150051853Y-98993646D01*
X150150456Y-99141216D01*
X150218376Y-99305188D01*
X150253000Y-99479259D01*
X150253000Y-99656741D01*
X150218376Y-99830812D01*
X150150456Y-99994784D01*
X150051853Y-100142354D01*
X149926354Y-100267853D01*
X149778784Y-100366456D01*
X149614812Y-100434376D01*
X149465512Y-100464073D01*
X149440742Y-100469000D01*
X149263258Y-100469000D01*
X149238488Y-100464073D01*
X149089188Y-100434376D01*
X148925216Y-100366456D01*
X148777646Y-100267853D01*
X148652147Y-100142354D01*
X148553544Y-99994784D01*
X148485624Y-99830812D01*
X148451000Y-99656741D01*
X148451000Y-99479259D01*
X148485624Y-99305188D01*
X148553544Y-99141216D01*
X148652147Y-98993646D01*
X148777646Y-98868147D01*
X148925216Y-98769544D01*
X149089188Y-98701624D01*
X149238488Y-98671927D01*
X149263258Y-98667000D01*
X149440742Y-98667000D01*
X149465512Y-98671927D01*
G37*
G36*
X152793000Y-100469000D02*
G01*
X150991000Y-100469000D01*
X150991000Y-98667000D01*
X152793000Y-98667000D01*
X152793000Y-100469000D01*
G37*
G36*
X178270627Y-97006037D02*
G01*
X178440466Y-97057557D01*
X178596991Y-97141222D01*
X178632729Y-97170552D01*
X178734186Y-97253814D01*
X178817448Y-97355271D01*
X178846778Y-97391009D01*
X178930443Y-97547534D01*
X178981963Y-97717374D01*
X178995000Y-97849743D01*
X178995000Y-98238258D01*
X178981963Y-98370627D01*
X178930443Y-98540466D01*
X178846778Y-98696991D01*
X178817448Y-98732729D01*
X178734186Y-98834186D01*
X178596989Y-98946779D01*
X178440467Y-99030442D01*
X178440465Y-99030443D01*
X178270626Y-99081963D01*
X178094000Y-99099359D01*
X177917373Y-99081963D01*
X177747534Y-99030443D01*
X177591009Y-98946778D01*
X177548750Y-98912097D01*
X177453814Y-98834186D01*
X177341221Y-98696989D01*
X177257558Y-98540467D01*
X177257557Y-98540465D01*
X177206037Y-98370626D01*
X177193000Y-98238257D01*
X177193000Y-97849742D01*
X177206037Y-97717373D01*
X177257557Y-97547534D01*
X177341222Y-97391009D01*
X177453815Y-97253815D01*
X177591010Y-97141222D01*
X177747535Y-97057557D01*
X177917374Y-97006037D01*
X178094000Y-96988641D01*
X178270627Y-97006037D01*
G37*
G36*
X181352600Y-96996989D02*
G01*
X181385652Y-97007015D01*
X181416103Y-97023292D01*
X181442799Y-97045201D01*
X181464708Y-97071897D01*
X181480985Y-97102348D01*
X181491011Y-97135400D01*
X181495000Y-97175903D01*
X181495000Y-98912097D01*
X181491011Y-98952600D01*
X181480985Y-98985652D01*
X181464708Y-99016103D01*
X181442799Y-99042799D01*
X181416103Y-99064708D01*
X181385652Y-99080985D01*
X181352600Y-99091011D01*
X181312097Y-99095000D01*
X179875903Y-99095000D01*
X179835400Y-99091011D01*
X179802348Y-99080985D01*
X179771897Y-99064708D01*
X179745201Y-99042799D01*
X179723292Y-99016103D01*
X179707015Y-98985652D01*
X179696989Y-98952600D01*
X179693000Y-98912097D01*
X179693000Y-97175903D01*
X179696989Y-97135400D01*
X179707015Y-97102348D01*
X179723292Y-97071897D01*
X179745201Y-97045201D01*
X179771897Y-97023292D01*
X179802348Y-97007015D01*
X179835400Y-96996989D01*
X179875903Y-96993000D01*
X181312097Y-96993000D01*
X181352600Y-96996989D01*
G37*
G36*
X130963512Y-91559927D02*
G01*
X131112812Y-91589624D01*
X131276784Y-91657544D01*
X131424354Y-91756147D01*
X131549853Y-91881646D01*
X131648456Y-92029216D01*
X131716376Y-92193188D01*
X131751000Y-92367259D01*
X131751000Y-92544741D01*
X131716376Y-92718812D01*
X131648456Y-92882784D01*
X131549853Y-93030354D01*
X131424354Y-93155853D01*
X131276784Y-93254456D01*
X131112812Y-93322376D01*
X130963512Y-93352073D01*
X130938742Y-93357000D01*
X130761258Y-93357000D01*
X130736488Y-93352073D01*
X130587188Y-93322376D01*
X130423216Y-93254456D01*
X130275646Y-93155853D01*
X130150147Y-93030354D01*
X130051544Y-92882784D01*
X129983624Y-92718812D01*
X129949000Y-92544741D01*
X129949000Y-92367259D01*
X129983624Y-92193188D01*
X130051544Y-92029216D01*
X130150147Y-91881646D01*
X130275646Y-91756147D01*
X130423216Y-91657544D01*
X130587188Y-91589624D01*
X130736488Y-91559927D01*
X130761258Y-91555000D01*
X130938742Y-91555000D01*
X130963512Y-91559927D01*
G37*
G36*
X133503512Y-91559927D02*
G01*
X133652812Y-91589624D01*
X133816784Y-91657544D01*
X133964354Y-91756147D01*
X134089853Y-91881646D01*
X134188456Y-92029216D01*
X134256376Y-92193188D01*
X134291000Y-92367259D01*
X134291000Y-92544741D01*
X134256376Y-92718812D01*
X134188456Y-92882784D01*
X134089853Y-93030354D01*
X133964354Y-93155853D01*
X133816784Y-93254456D01*
X133652812Y-93322376D01*
X133503512Y-93352073D01*
X133478742Y-93357000D01*
X133301258Y-93357000D01*
X133276488Y-93352073D01*
X133127188Y-93322376D01*
X132963216Y-93254456D01*
X132815646Y-93155853D01*
X132690147Y-93030354D01*
X132591544Y-92882784D01*
X132523624Y-92718812D01*
X132489000Y-92544741D01*
X132489000Y-92367259D01*
X132523624Y-92193188D01*
X132591544Y-92029216D01*
X132690147Y-91881646D01*
X132815646Y-91756147D01*
X132963216Y-91657544D01*
X133127188Y-91589624D01*
X133276488Y-91559927D01*
X133301258Y-91555000D01*
X133478742Y-91555000D01*
X133503512Y-91559927D01*
G37*
G36*
X136831000Y-93357000D02*
G01*
X135029000Y-93357000D01*
X135029000Y-91555000D01*
X136831000Y-91555000D01*
X136831000Y-93357000D01*
G37*
G36*
X178270627Y-86846037D02*
G01*
X178440466Y-86897557D01*
X178596991Y-86981222D01*
X178632729Y-87010552D01*
X178734186Y-87093814D01*
X178817448Y-87195271D01*
X178846778Y-87231009D01*
X178930443Y-87387534D01*
X178981963Y-87557374D01*
X178995000Y-87689743D01*
X178995000Y-88078258D01*
X178981963Y-88210627D01*
X178930443Y-88380466D01*
X178846778Y-88536991D01*
X178817448Y-88572729D01*
X178734186Y-88674186D01*
X178596989Y-88786779D01*
X178440467Y-88870442D01*
X178440465Y-88870443D01*
X178270626Y-88921963D01*
X178094000Y-88939359D01*
X177917373Y-88921963D01*
X177747534Y-88870443D01*
X177591009Y-88786778D01*
X177548750Y-88752097D01*
X177453814Y-88674186D01*
X177341221Y-88536989D01*
X177257558Y-88380467D01*
X177257557Y-88380465D01*
X177206037Y-88210626D01*
X177193000Y-88078257D01*
X177193000Y-87689742D01*
X177206037Y-87557373D01*
X177257557Y-87387534D01*
X177341222Y-87231009D01*
X177453815Y-87093815D01*
X177591010Y-86981222D01*
X177747535Y-86897557D01*
X177917374Y-86846037D01*
X178094000Y-86828641D01*
X178270627Y-86846037D01*
G37*
G36*
X181352600Y-86836989D02*
G01*
X181385652Y-86847015D01*
X181416103Y-86863292D01*
X181442799Y-86885201D01*
X181464708Y-86911897D01*
X181480985Y-86942348D01*
X181491011Y-86975400D01*
X181495000Y-87015903D01*
X181495000Y-88752097D01*
X181491011Y-88792600D01*
X181480985Y-88825652D01*
X181464708Y-88856103D01*
X181442799Y-88882799D01*
X181416103Y-88904708D01*
X181385652Y-88920985D01*
X181352600Y-88931011D01*
X181312097Y-88935000D01*
X179875903Y-88935000D01*
X179835400Y-88931011D01*
X179802348Y-88920985D01*
X179771897Y-88904708D01*
X179745201Y-88882799D01*
X179723292Y-88856103D01*
X179707015Y-88825652D01*
X179696989Y-88792600D01*
X179693000Y-88752097D01*
X179693000Y-87015903D01*
X179696989Y-86975400D01*
X179707015Y-86942348D01*
X179723292Y-86911897D01*
X179745201Y-86885201D01*
X179771897Y-86863292D01*
X179802348Y-86847015D01*
X179835400Y-86836989D01*
X179875903Y-86833000D01*
X181312097Y-86833000D01*
X181352600Y-86836989D01*
G37*
G36*
X133503512Y-83939927D02*
G01*
X133652812Y-83969624D01*
X133816784Y-84037544D01*
X133964354Y-84136147D01*
X134089853Y-84261646D01*
X134188456Y-84409216D01*
X134256376Y-84573188D01*
X134291000Y-84747259D01*
X134291000Y-84924741D01*
X134256376Y-85098812D01*
X134188456Y-85262784D01*
X134089853Y-85410354D01*
X133964354Y-85535853D01*
X133816784Y-85634456D01*
X133652812Y-85702376D01*
X133503512Y-85732073D01*
X133478742Y-85737000D01*
X133301258Y-85737000D01*
X133276488Y-85732073D01*
X133127188Y-85702376D01*
X132963216Y-85634456D01*
X132815646Y-85535853D01*
X132690147Y-85410354D01*
X132591544Y-85262784D01*
X132523624Y-85098812D01*
X132489000Y-84924741D01*
X132489000Y-84747259D01*
X132523624Y-84573188D01*
X132591544Y-84409216D01*
X132690147Y-84261646D01*
X132815646Y-84136147D01*
X132963216Y-84037544D01*
X133127188Y-83969624D01*
X133276488Y-83939927D01*
X133301258Y-83935000D01*
X133478742Y-83935000D01*
X133503512Y-83939927D01*
G37*
G36*
X136831000Y-85737000D02*
G01*
X135029000Y-85737000D01*
X135029000Y-83935000D01*
X136831000Y-83935000D01*
X136831000Y-85737000D01*
G37*
G36*
X130963512Y-83939927D02*
G01*
X131112812Y-83969624D01*
X131276784Y-84037544D01*
X131424354Y-84136147D01*
X131549853Y-84261646D01*
X131648456Y-84409216D01*
X131716376Y-84573188D01*
X131751000Y-84747259D01*
X131751000Y-84924741D01*
X131716376Y-85098812D01*
X131648456Y-85262784D01*
X131549853Y-85410354D01*
X131424354Y-85535853D01*
X131276784Y-85634456D01*
X131112812Y-85702376D01*
X130963512Y-85732073D01*
X130938742Y-85737000D01*
X130761258Y-85737000D01*
X130736488Y-85732073D01*
X130587188Y-85702376D01*
X130423216Y-85634456D01*
X130275646Y-85535853D01*
X130150147Y-85410354D01*
X130051544Y-85262784D01*
X129983624Y-85098812D01*
X129949000Y-84924741D01*
X129949000Y-84747259D01*
X129983624Y-84573188D01*
X130051544Y-84409216D01*
X130150147Y-84261646D01*
X130275646Y-84136147D01*
X130423216Y-84037544D01*
X130587188Y-83969624D01*
X130736488Y-83939927D01*
X130761258Y-83935000D01*
X130938742Y-83935000D01*
X130963512Y-83939927D01*
G37*
G36*
X178270627Y-76686037D02*
G01*
X178440466Y-76737557D01*
X178596991Y-76821222D01*
X178632729Y-76850552D01*
X178734186Y-76933814D01*
X178817448Y-77035271D01*
X178846778Y-77071009D01*
X178930443Y-77227534D01*
X178981963Y-77397374D01*
X178995000Y-77529743D01*
X178995000Y-77918258D01*
X178981963Y-78050627D01*
X178930443Y-78220466D01*
X178846778Y-78376991D01*
X178817448Y-78412729D01*
X178734186Y-78514186D01*
X178596989Y-78626779D01*
X178440467Y-78710442D01*
X178440465Y-78710443D01*
X178270626Y-78761963D01*
X178094000Y-78779359D01*
X177917373Y-78761963D01*
X177747534Y-78710443D01*
X177591009Y-78626778D01*
X177548750Y-78592097D01*
X177453814Y-78514186D01*
X177341221Y-78376989D01*
X177257558Y-78220467D01*
X177257557Y-78220465D01*
X177206037Y-78050626D01*
X177193000Y-77918257D01*
X177193000Y-77529742D01*
X177206037Y-77397373D01*
X177257557Y-77227534D01*
X177341222Y-77071009D01*
X177453815Y-76933815D01*
X177591010Y-76821222D01*
X177747535Y-76737557D01*
X177917374Y-76686037D01*
X178094000Y-76668641D01*
X178270627Y-76686037D01*
G37*
G36*
X181352600Y-76676989D02*
G01*
X181385652Y-76687015D01*
X181416103Y-76703292D01*
X181442799Y-76725201D01*
X181464708Y-76751897D01*
X181480985Y-76782348D01*
X181491011Y-76815400D01*
X181495000Y-76855903D01*
X181495000Y-78592097D01*
X181491011Y-78632600D01*
X181480985Y-78665652D01*
X181464708Y-78696103D01*
X181442799Y-78722799D01*
X181416103Y-78744708D01*
X181385652Y-78760985D01*
X181352600Y-78771011D01*
X181312097Y-78775000D01*
X179875903Y-78775000D01*
X179835400Y-78771011D01*
X179802348Y-78760985D01*
X179771897Y-78744708D01*
X179745201Y-78722799D01*
X179723292Y-78696103D01*
X179707015Y-78665652D01*
X179696989Y-78632600D01*
X179693000Y-78592097D01*
X179693000Y-76855903D01*
X179696989Y-76815400D01*
X179707015Y-76782348D01*
X179723292Y-76751897D01*
X179745201Y-76725201D01*
X179771897Y-76703292D01*
X179802348Y-76687015D01*
X179835400Y-76676989D01*
X179875903Y-76673000D01*
X181312097Y-76673000D01*
X181352600Y-76676989D01*
G37*
G36*
X133503512Y-76319927D02*
G01*
X133652812Y-76349624D01*
X133816784Y-76417544D01*
X133964354Y-76516147D01*
X134089853Y-76641646D01*
X134188456Y-76789216D01*
X134256376Y-76953188D01*
X134291000Y-77127259D01*
X134291000Y-77304741D01*
X134256376Y-77478812D01*
X134188456Y-77642784D01*
X134089853Y-77790354D01*
X133964354Y-77915853D01*
X133816784Y-78014456D01*
X133652812Y-78082376D01*
X133503512Y-78112073D01*
X133478742Y-78117000D01*
X133301258Y-78117000D01*
X133276488Y-78112073D01*
X133127188Y-78082376D01*
X132963216Y-78014456D01*
X132815646Y-77915853D01*
X132690147Y-77790354D01*
X132591544Y-77642784D01*
X132523624Y-77478812D01*
X132489000Y-77304741D01*
X132489000Y-77127259D01*
X132523624Y-76953188D01*
X132591544Y-76789216D01*
X132690147Y-76641646D01*
X132815646Y-76516147D01*
X132963216Y-76417544D01*
X133127188Y-76349624D01*
X133276488Y-76319927D01*
X133301258Y-76315000D01*
X133478742Y-76315000D01*
X133503512Y-76319927D01*
G37*
G36*
X130963512Y-76319927D02*
G01*
X131112812Y-76349624D01*
X131276784Y-76417544D01*
X131424354Y-76516147D01*
X131549853Y-76641646D01*
X131648456Y-76789216D01*
X131716376Y-76953188D01*
X131751000Y-77127259D01*
X131751000Y-77304741D01*
X131716376Y-77478812D01*
X131648456Y-77642784D01*
X131549853Y-77790354D01*
X131424354Y-77915853D01*
X131276784Y-78014456D01*
X131112812Y-78082376D01*
X130963512Y-78112073D01*
X130938742Y-78117000D01*
X130761258Y-78117000D01*
X130736488Y-78112073D01*
X130587188Y-78082376D01*
X130423216Y-78014456D01*
X130275646Y-77915853D01*
X130150147Y-77790354D01*
X130051544Y-77642784D01*
X129983624Y-77478812D01*
X129949000Y-77304741D01*
X129949000Y-77127259D01*
X129983624Y-76953188D01*
X130051544Y-76789216D01*
X130150147Y-76641646D01*
X130275646Y-76516147D01*
X130423216Y-76417544D01*
X130587188Y-76349624D01*
X130736488Y-76319927D01*
X130761258Y-76315000D01*
X130938742Y-76315000D01*
X130963512Y-76319927D01*
G37*
G36*
X136831000Y-78117000D02*
G01*
X135029000Y-78117000D01*
X135029000Y-76315000D01*
X136831000Y-76315000D01*
X136831000Y-78117000D01*
G37*
G36*
X130963512Y-68191927D02*
G01*
X131112812Y-68221624D01*
X131276784Y-68289544D01*
X131424354Y-68388147D01*
X131549853Y-68513646D01*
X131648456Y-68661216D01*
X131716376Y-68825188D01*
X131751000Y-68999259D01*
X131751000Y-69176741D01*
X131716376Y-69350812D01*
X131648456Y-69514784D01*
X131549853Y-69662354D01*
X131424354Y-69787853D01*
X131276784Y-69886456D01*
X131112812Y-69954376D01*
X130963512Y-69984073D01*
X130938742Y-69989000D01*
X130761258Y-69989000D01*
X130736488Y-69984073D01*
X130587188Y-69954376D01*
X130423216Y-69886456D01*
X130275646Y-69787853D01*
X130150147Y-69662354D01*
X130051544Y-69514784D01*
X129983624Y-69350812D01*
X129949000Y-69176741D01*
X129949000Y-68999259D01*
X129983624Y-68825188D01*
X130051544Y-68661216D01*
X130150147Y-68513646D01*
X130275646Y-68388147D01*
X130423216Y-68289544D01*
X130587188Y-68221624D01*
X130736488Y-68191927D01*
X130761258Y-68187000D01*
X130938742Y-68187000D01*
X130963512Y-68191927D01*
G37*
G36*
X133503512Y-68191927D02*
G01*
X133652812Y-68221624D01*
X133816784Y-68289544D01*
X133964354Y-68388147D01*
X134089853Y-68513646D01*
X134188456Y-68661216D01*
X134256376Y-68825188D01*
X134291000Y-68999259D01*
X134291000Y-69176741D01*
X134256376Y-69350812D01*
X134188456Y-69514784D01*
X134089853Y-69662354D01*
X133964354Y-69787853D01*
X133816784Y-69886456D01*
X133652812Y-69954376D01*
X133503512Y-69984073D01*
X133478742Y-69989000D01*
X133301258Y-69989000D01*
X133276488Y-69984073D01*
X133127188Y-69954376D01*
X132963216Y-69886456D01*
X132815646Y-69787853D01*
X132690147Y-69662354D01*
X132591544Y-69514784D01*
X132523624Y-69350812D01*
X132489000Y-69176741D01*
X132489000Y-68999259D01*
X132523624Y-68825188D01*
X132591544Y-68661216D01*
X132690147Y-68513646D01*
X132815646Y-68388147D01*
X132963216Y-68289544D01*
X133127188Y-68221624D01*
X133276488Y-68191927D01*
X133301258Y-68187000D01*
X133478742Y-68187000D01*
X133503512Y-68191927D01*
G37*
G36*
X136831000Y-69989000D02*
G01*
X135029000Y-69989000D01*
X135029000Y-68187000D01*
X136831000Y-68187000D01*
X136831000Y-69989000D01*
G37*
G36*
X178270627Y-66526037D02*
G01*
X178440466Y-66577557D01*
X178596991Y-66661222D01*
X178621852Y-66681625D01*
X178734186Y-66773814D01*
X178797912Y-66851466D01*
X178846778Y-66911009D01*
X178930443Y-67067534D01*
X178981963Y-67237374D01*
X178983973Y-67257779D01*
X178990927Y-67328383D01*
X178995000Y-67369743D01*
X178995000Y-67758258D01*
X178981963Y-67890627D01*
X178930443Y-68060466D01*
X178846778Y-68216991D01*
X178817448Y-68252729D01*
X178734186Y-68354186D01*
X178596989Y-68466779D01*
X178440467Y-68550442D01*
X178440465Y-68550443D01*
X178270626Y-68601963D01*
X178094000Y-68619359D01*
X177917373Y-68601963D01*
X177747534Y-68550443D01*
X177591009Y-68466778D01*
X177548750Y-68432097D01*
X177453814Y-68354186D01*
X177341221Y-68216989D01*
X177257558Y-68060467D01*
X177257557Y-68060465D01*
X177206037Y-67890626D01*
X177193000Y-67758257D01*
X177193000Y-67369742D01*
X177193828Y-67361339D01*
X177200199Y-67296652D01*
X177206037Y-67237373D01*
X177257557Y-67067534D01*
X177341222Y-66911009D01*
X177453815Y-66773815D01*
X177591010Y-66661222D01*
X177747535Y-66577557D01*
X177917374Y-66526037D01*
X178094000Y-66508641D01*
X178270627Y-66526037D01*
G37*
G36*
X181352600Y-66516989D02*
G01*
X181385652Y-66527015D01*
X181416103Y-66543292D01*
X181442799Y-66565201D01*
X181464708Y-66591897D01*
X181480985Y-66622348D01*
X181491011Y-66655400D01*
X181495000Y-66695903D01*
X181495000Y-68432097D01*
X181491011Y-68472600D01*
X181480985Y-68505652D01*
X181464708Y-68536103D01*
X181442799Y-68562799D01*
X181416103Y-68584708D01*
X181385652Y-68600985D01*
X181352600Y-68611011D01*
X181312097Y-68615000D01*
X179875903Y-68615000D01*
X179835400Y-68611011D01*
X179802348Y-68600985D01*
X179771897Y-68584708D01*
X179745201Y-68562799D01*
X179723292Y-68536103D01*
X179707015Y-68505652D01*
X179696989Y-68472600D01*
X179693000Y-68432097D01*
X179693000Y-66695903D01*
X179696989Y-66655400D01*
X179707015Y-66622348D01*
X179723292Y-66591897D01*
X179745201Y-66565201D01*
X179771897Y-66543292D01*
X179802348Y-66527015D01*
X179835400Y-66516989D01*
X179875903Y-66513000D01*
X181312097Y-66513000D01*
X181352600Y-66516989D01*
G37*
G36*
X168666626Y-65367037D02*
G01*
X168836465Y-65418557D01*
X168836467Y-65418558D01*
X168992989Y-65502221D01*
X169130186Y-65614814D01*
X169213448Y-65716271D01*
X169242778Y-65752009D01*
X169326443Y-65908534D01*
X169377963Y-66078373D01*
X169377963Y-66078375D01*
X169391000Y-66210740D01*
X169391000Y-66549259D01*
X169386800Y-66591897D01*
X169377963Y-66681626D01*
X169326443Y-66851466D01*
X169242778Y-67007991D01*
X169213448Y-67043729D01*
X169130186Y-67145186D01*
X169035250Y-67223097D01*
X168992991Y-67257778D01*
X168836466Y-67341443D01*
X168666627Y-67392963D01*
X168490000Y-67410359D01*
X168313374Y-67392963D01*
X168143535Y-67341443D01*
X167987010Y-67257778D01*
X167849815Y-67145185D01*
X167737222Y-67007991D01*
X167653557Y-66851466D01*
X167602037Y-66681627D01*
X167595518Y-66615442D01*
X167589000Y-66549260D01*
X167589000Y-66210741D01*
X167602037Y-66078376D01*
X167602037Y-66078374D01*
X167653557Y-65908535D01*
X167737222Y-65752010D01*
X167737223Y-65752009D01*
X167849814Y-65614814D01*
X167951271Y-65531552D01*
X167987009Y-65502222D01*
X168143534Y-65418557D01*
X168313373Y-65367037D01*
X168490000Y-65349641D01*
X168666626Y-65367037D01*
G37*
G36*
X163666626Y-65367037D02*
G01*
X163836465Y-65418557D01*
X163836467Y-65418558D01*
X163992989Y-65502221D01*
X164130186Y-65614814D01*
X164213448Y-65716271D01*
X164242778Y-65752009D01*
X164326443Y-65908534D01*
X164377963Y-66078373D01*
X164377963Y-66078375D01*
X164391000Y-66210740D01*
X164391000Y-66549259D01*
X164386800Y-66591897D01*
X164377963Y-66681626D01*
X164326443Y-66851466D01*
X164242778Y-67007991D01*
X164213448Y-67043729D01*
X164130186Y-67145186D01*
X164035250Y-67223097D01*
X163992991Y-67257778D01*
X163836466Y-67341443D01*
X163666627Y-67392963D01*
X163490000Y-67410359D01*
X163313374Y-67392963D01*
X163143535Y-67341443D01*
X162987010Y-67257778D01*
X162849815Y-67145185D01*
X162737222Y-67007991D01*
X162653557Y-66851466D01*
X162602037Y-66681627D01*
X162595518Y-66615442D01*
X162589000Y-66549260D01*
X162589000Y-66210741D01*
X162602037Y-66078376D01*
X162602037Y-66078374D01*
X162653557Y-65908535D01*
X162737222Y-65752010D01*
X162737223Y-65752009D01*
X162849814Y-65614814D01*
X162951271Y-65531552D01*
X162987009Y-65502222D01*
X163143534Y-65418557D01*
X163313373Y-65367037D01*
X163490000Y-65349641D01*
X163666626Y-65367037D01*
G37*
G36*
X166166626Y-65367037D02*
G01*
X166336465Y-65418557D01*
X166336467Y-65418558D01*
X166492989Y-65502221D01*
X166630186Y-65614814D01*
X166713448Y-65716271D01*
X166742778Y-65752009D01*
X166826443Y-65908534D01*
X166877963Y-66078373D01*
X166877963Y-66078375D01*
X166891000Y-66210740D01*
X166891000Y-66549259D01*
X166886800Y-66591897D01*
X166877963Y-66681626D01*
X166826443Y-66851466D01*
X166742778Y-67007991D01*
X166713448Y-67043729D01*
X166630186Y-67145186D01*
X166535250Y-67223097D01*
X166492991Y-67257778D01*
X166336466Y-67341443D01*
X166166627Y-67392963D01*
X165990000Y-67410359D01*
X165813374Y-67392963D01*
X165643535Y-67341443D01*
X165487010Y-67257778D01*
X165349815Y-67145185D01*
X165237222Y-67007991D01*
X165153557Y-66851466D01*
X165102037Y-66681627D01*
X165095518Y-66615442D01*
X165089000Y-66549260D01*
X165089000Y-66210741D01*
X165102037Y-66078376D01*
X165102037Y-66078374D01*
X165153557Y-65908535D01*
X165237222Y-65752010D01*
X165237223Y-65752009D01*
X165349814Y-65614814D01*
X165451271Y-65531552D01*
X165487009Y-65502222D01*
X165643534Y-65418557D01*
X165813373Y-65367037D01*
X165990000Y-65349641D01*
X166166626Y-65367037D01*
G37*
G36*
X161748600Y-65357989D02*
G01*
X161781652Y-65368015D01*
X161812103Y-65384292D01*
X161838799Y-65406201D01*
X161860708Y-65432897D01*
X161876985Y-65463348D01*
X161887011Y-65496400D01*
X161891000Y-65536903D01*
X161891000Y-67223097D01*
X161887011Y-67263600D01*
X161876985Y-67296652D01*
X161860708Y-67327103D01*
X161838799Y-67353799D01*
X161812103Y-67375708D01*
X161781652Y-67391985D01*
X161748600Y-67402011D01*
X161708097Y-67406000D01*
X160271903Y-67406000D01*
X160231400Y-67402011D01*
X160198348Y-67391985D01*
X160167897Y-67375708D01*
X160141201Y-67353799D01*
X160119292Y-67327103D01*
X160103015Y-67296652D01*
X160092989Y-67263600D01*
X160089000Y-67223097D01*
X160089000Y-65536903D01*
X160092989Y-65496400D01*
X160103015Y-65463348D01*
X160119292Y-65432897D01*
X160141201Y-65406201D01*
X160167897Y-65384292D01*
X160198348Y-65368015D01*
X160231400Y-65357989D01*
X160271903Y-65354000D01*
X161708097Y-65354000D01*
X161748600Y-65357989D01*
G37*
G36*
X133503512Y-61023927D02*
G01*
X133652812Y-61053624D01*
X133816784Y-61121544D01*
X133964354Y-61220147D01*
X134089853Y-61345646D01*
X134188456Y-61493216D01*
X134256376Y-61657188D01*
X134291000Y-61831259D01*
X134291000Y-62008741D01*
X134256376Y-62182812D01*
X134188456Y-62346784D01*
X134089853Y-62494354D01*
X133964354Y-62619853D01*
X133816784Y-62718456D01*
X133652812Y-62786376D01*
X133503512Y-62816073D01*
X133478742Y-62821000D01*
X133301258Y-62821000D01*
X133276488Y-62816073D01*
X133127188Y-62786376D01*
X132963216Y-62718456D01*
X132815646Y-62619853D01*
X132690147Y-62494354D01*
X132591544Y-62346784D01*
X132523624Y-62182812D01*
X132489000Y-62008741D01*
X132489000Y-61831259D01*
X132523624Y-61657188D01*
X132591544Y-61493216D01*
X132690147Y-61345646D01*
X132815646Y-61220147D01*
X132963216Y-61121544D01*
X133127188Y-61053624D01*
X133276488Y-61023927D01*
X133301258Y-61019000D01*
X133478742Y-61019000D01*
X133503512Y-61023927D01*
G37*
G36*
X130963512Y-61023927D02*
G01*
X131112812Y-61053624D01*
X131276784Y-61121544D01*
X131424354Y-61220147D01*
X131549853Y-61345646D01*
X131648456Y-61493216D01*
X131716376Y-61657188D01*
X131751000Y-61831259D01*
X131751000Y-62008741D01*
X131716376Y-62182812D01*
X131648456Y-62346784D01*
X131549853Y-62494354D01*
X131424354Y-62619853D01*
X131276784Y-62718456D01*
X131112812Y-62786376D01*
X130963512Y-62816073D01*
X130938742Y-62821000D01*
X130761258Y-62821000D01*
X130736488Y-62816073D01*
X130587188Y-62786376D01*
X130423216Y-62718456D01*
X130275646Y-62619853D01*
X130150147Y-62494354D01*
X130051544Y-62346784D01*
X129983624Y-62182812D01*
X129949000Y-62008741D01*
X129949000Y-61831259D01*
X129983624Y-61657188D01*
X130051544Y-61493216D01*
X130150147Y-61345646D01*
X130275646Y-61220147D01*
X130423216Y-61121544D01*
X130587188Y-61053624D01*
X130736488Y-61023927D01*
X130761258Y-61019000D01*
X130938742Y-61019000D01*
X130963512Y-61023927D01*
G37*
G36*
X136831000Y-62821000D02*
G01*
X135029000Y-62821000D01*
X135029000Y-61019000D01*
X136831000Y-61019000D01*
X136831000Y-62821000D01*
G37*
G36*
X178270627Y-57001037D02*
G01*
X178440466Y-57052557D01*
X178596991Y-57136222D01*
X178632729Y-57165552D01*
X178734186Y-57248814D01*
X178817448Y-57350271D01*
X178846778Y-57386009D01*
X178930443Y-57542534D01*
X178981963Y-57712374D01*
X178995000Y-57844743D01*
X178995000Y-58233258D01*
X178981963Y-58365627D01*
X178930443Y-58535466D01*
X178846778Y-58691991D01*
X178817448Y-58727729D01*
X178734186Y-58829186D01*
X178596989Y-58941779D01*
X178440467Y-59025442D01*
X178440465Y-59025443D01*
X178270626Y-59076963D01*
X178094000Y-59094359D01*
X177917373Y-59076963D01*
X177747534Y-59025443D01*
X177591009Y-58941778D01*
X177548750Y-58907097D01*
X177453814Y-58829186D01*
X177341221Y-58691989D01*
X177257558Y-58535467D01*
X177257557Y-58535465D01*
X177206037Y-58365626D01*
X177193000Y-58233257D01*
X177193000Y-57844742D01*
X177206037Y-57712373D01*
X177257557Y-57542534D01*
X177341222Y-57386009D01*
X177453815Y-57248815D01*
X177591010Y-57136222D01*
X177747535Y-57052557D01*
X177917374Y-57001037D01*
X178094000Y-56983641D01*
X178270627Y-57001037D01*
G37*
G36*
X181352600Y-56991989D02*
G01*
X181385652Y-57002015D01*
X181416103Y-57018292D01*
X181442799Y-57040201D01*
X181464708Y-57066897D01*
X181480985Y-57097348D01*
X181491011Y-57130400D01*
X181495000Y-57170903D01*
X181495000Y-58907097D01*
X181491011Y-58947600D01*
X181480985Y-58980652D01*
X181464708Y-59011103D01*
X181442799Y-59037799D01*
X181416103Y-59059708D01*
X181385652Y-59075985D01*
X181352600Y-59086011D01*
X181312097Y-59090000D01*
X179875903Y-59090000D01*
X179835400Y-59086011D01*
X179802348Y-59075985D01*
X179771897Y-59059708D01*
X179745201Y-59037799D01*
X179723292Y-59011103D01*
X179707015Y-58980652D01*
X179696989Y-58947600D01*
X179693000Y-58907097D01*
X179693000Y-57170903D01*
X179696989Y-57130400D01*
X179707015Y-57097348D01*
X179723292Y-57066897D01*
X179745201Y-57040201D01*
X179771897Y-57018292D01*
X179802348Y-57002015D01*
X179835400Y-56991989D01*
X179875903Y-56988000D01*
X181312097Y-56988000D01*
X181352600Y-56991989D01*
G37*
G36*
X171111000Y-56221000D02*
G01*
X168109000Y-56221000D01*
X168109000Y-53219000D01*
X171111000Y-53219000D01*
X171111000Y-56221000D01*
G37*
G36*
X131611000Y-56221000D02*
G01*
X128609000Y-56221000D01*
X128609000Y-53219000D01*
X131611000Y-53219000D01*
X131611000Y-56221000D01*
G37*
G36*
X181010000Y-50835000D02*
G01*
X178908000Y-50835000D01*
X178908000Y-48733000D01*
X181010000Y-48733000D01*
X181010000Y-50835000D01*
G37*
G36*
X180265564Y-41273389D02*
G01*
X180456833Y-41352615D01*
X180456835Y-41352616D01*
X180628973Y-41467635D01*
X180775365Y-41614027D01*
X180890385Y-41786167D01*
X180969611Y-41977436D01*
X181010000Y-42180484D01*
X181010000Y-42387516D01*
X180969611Y-42590564D01*
X180890385Y-42781833D01*
X180890384Y-42781835D01*
X180775365Y-42953973D01*
X180628973Y-43100365D01*
X180456835Y-43215384D01*
X180456834Y-43215385D01*
X180456833Y-43215385D01*
X180265564Y-43294611D01*
X180062516Y-43335000D01*
X179855484Y-43335000D01*
X179652436Y-43294611D01*
X179461167Y-43215385D01*
X179461166Y-43215385D01*
X179461165Y-43215384D01*
X179289027Y-43100365D01*
X179142635Y-42953973D01*
X179027616Y-42781835D01*
X179027615Y-42781833D01*
X178948389Y-42590564D01*
X178908000Y-42387516D01*
X178908000Y-42180484D01*
X178948389Y-41977436D01*
X179027615Y-41786167D01*
X179142635Y-41614027D01*
X179289027Y-41467635D01*
X179461165Y-41352616D01*
X179461167Y-41352615D01*
X179652436Y-41273389D01*
X179855484Y-41233000D01*
X180062516Y-41233000D01*
X180265564Y-41273389D01*
G37*
G36*
X131611000Y-38221000D02*
G01*
X128609000Y-38221000D01*
X128609000Y-35219000D01*
X131611000Y-35219000D01*
X131611000Y-38221000D01*
G37*
G36*
X171111000Y-38221000D02*
G01*
X168109000Y-38221000D01*
X168109000Y-35219000D01*
X171111000Y-35219000D01*
X171111000Y-38221000D01*
G37*
G36*
X178138072Y-32228918D02*
G01*
X178383939Y-32330759D01*
X178495328Y-32405187D01*
X178605211Y-32478609D01*
X178793391Y-32666789D01*
X178941242Y-32888063D01*
X179043082Y-33133928D01*
X179090931Y-33374479D01*
X179095000Y-33394938D01*
X179095000Y-33661062D01*
X179043082Y-33922072D01*
X178941241Y-34167939D01*
X178793390Y-34389212D01*
X178605212Y-34577390D01*
X178383939Y-34725241D01*
X178383938Y-34725242D01*
X178383937Y-34725242D01*
X178138072Y-34827082D01*
X177877063Y-34879000D01*
X177610937Y-34879000D01*
X177349928Y-34827082D01*
X177104063Y-34725242D01*
X177104062Y-34725242D01*
X177104061Y-34725241D01*
X176882788Y-34577390D01*
X176694610Y-34389212D01*
X176546759Y-34167939D01*
X176444918Y-33922072D01*
X176393000Y-33661062D01*
X176393000Y-33394938D01*
X176397070Y-33374479D01*
X176444918Y-33133928D01*
X176546758Y-32888063D01*
X176694609Y-32666789D01*
X176882789Y-32478609D01*
X176992672Y-32405187D01*
X177104061Y-32330759D01*
X177349928Y-32228918D01*
X177610937Y-32177000D01*
X177877063Y-32177000D01*
X178138072Y-32228918D01*
G37*
G36*
X175595000Y-34879000D02*
G01*
X172893000Y-34879000D01*
X172893000Y-32177000D01*
X175595000Y-32177000D01*
X175595000Y-34879000D01*
G37*
G36*
X125302585Y-30478802D02*
G01*
X125452410Y-30508604D01*
X125734674Y-30625521D01*
X125988705Y-30795259D01*
X126204741Y-31011295D01*
X126374479Y-31265326D01*
X126491396Y-31547590D01*
X126491396Y-31547591D01*
X126551000Y-31847239D01*
X126551000Y-32152761D01*
X126535851Y-32228918D01*
X126491396Y-32452410D01*
X126374479Y-32734674D01*
X126204741Y-32988705D01*
X125988705Y-33204741D01*
X125734674Y-33374479D01*
X125452410Y-33491396D01*
X125302585Y-33521198D01*
X125152761Y-33551000D01*
X124847239Y-33551000D01*
X124697415Y-33521198D01*
X124547590Y-33491396D01*
X124265326Y-33374479D01*
X124011295Y-33204741D01*
X123795259Y-32988705D01*
X123625521Y-32734674D01*
X123508604Y-32452410D01*
X123464149Y-32228918D01*
X123449000Y-32152761D01*
X123449000Y-31847239D01*
X123508604Y-31547591D01*
X123508604Y-31547590D01*
X123625521Y-31265326D01*
X123795259Y-31011295D01*
X124011295Y-30795259D01*
X124265326Y-30625521D01*
X124547590Y-30508604D01*
X124697415Y-30478802D01*
X124847239Y-30449000D01*
X125152761Y-30449000D01*
X125302585Y-30478802D01*
G37*
G36*
X186302585Y-30478802D02*
G01*
X186452410Y-30508604D01*
X186734674Y-30625521D01*
X186988705Y-30795259D01*
X187204741Y-31011295D01*
X187374479Y-31265326D01*
X187491396Y-31547590D01*
X187491396Y-31547591D01*
X187551000Y-31847239D01*
X187551000Y-32152761D01*
X187535851Y-32228918D01*
X187491396Y-32452410D01*
X187374479Y-32734674D01*
X187204741Y-32988705D01*
X186988705Y-33204741D01*
X186734674Y-33374479D01*
X186452410Y-33491396D01*
X186302585Y-33521198D01*
X186152761Y-33551000D01*
X185847239Y-33551000D01*
X185697415Y-33521198D01*
X185547590Y-33491396D01*
X185265326Y-33374479D01*
X185011295Y-33204741D01*
X184795259Y-32988705D01*
X184625521Y-32734674D01*
X184508604Y-32452410D01*
X184464149Y-32228918D01*
X184449000Y-32152761D01*
X184449000Y-31847239D01*
X184508604Y-31547591D01*
X184508604Y-31547590D01*
X184625521Y-31265326D01*
X184795259Y-31011295D01*
X185011295Y-30795259D01*
X185265326Y-30625521D01*
X185547590Y-30508604D01*
X185697415Y-30478802D01*
X185847239Y-30449000D01*
X186152761Y-30449000D01*
X186302585Y-30478802D01*
G37*
M02*
