G04 #@! TF.GenerationSoftware,KiCad,Pcbnew,5.1.5*
G04 #@! TF.CreationDate,2020-03-10T21:21:54+01:00*
G04 #@! TF.ProjectId,robotA_2020,726f626f-7441-45f3-9230-32302e6b6963,rev?*
G04 #@! TF.SameCoordinates,Original*
G04 #@! TF.FileFunction,Copper,L2,Bot*
G04 #@! TF.FilePolarity,Positive*
%FSLAX46Y46*%
G04 Gerber Fmt 4.6, Leading zero omitted, Abs format (unit mm)*
G04 Created by KiCad (PCBNEW 5.1.5) date 2020-03-10 21:21:54*
%MOMM*%
%LPD*%
G04 APERTURE LIST*
%ADD10O,1.700000X1.950000*%
%ADD11C,0.100000*%
%ADD12R,2.900000X2.900000*%
%ADD13C,1.524000*%
%ADD14R,1.524000X1.524000*%
%ADD15R,2.600000X2.600000*%
%ADD16C,2.600000*%
%ADD17O,1.700000X2.000000*%
%ADD18C,0.800000*%
%ADD19C,1.000000*%
%ADD20C,0.800000*%
%ADD21C,0.400000*%
G04 APERTURE END LIST*
D10*
X188080000Y-78740000D03*
X190580000Y-78740000D03*
X193080000Y-78740000D03*
G04 #@! TA.AperFunction,ComponentPad*
D11*
G36*
X196204504Y-77766204D02*
G01*
X196228773Y-77769804D01*
X196252571Y-77775765D01*
X196275671Y-77784030D01*
X196297849Y-77794520D01*
X196318893Y-77807133D01*
X196338598Y-77821747D01*
X196356777Y-77838223D01*
X196373253Y-77856402D01*
X196387867Y-77876107D01*
X196400480Y-77897151D01*
X196410970Y-77919329D01*
X196419235Y-77942429D01*
X196425196Y-77966227D01*
X196428796Y-77990496D01*
X196430000Y-78015000D01*
X196430000Y-79465000D01*
X196428796Y-79489504D01*
X196425196Y-79513773D01*
X196419235Y-79537571D01*
X196410970Y-79560671D01*
X196400480Y-79582849D01*
X196387867Y-79603893D01*
X196373253Y-79623598D01*
X196356777Y-79641777D01*
X196338598Y-79658253D01*
X196318893Y-79672867D01*
X196297849Y-79685480D01*
X196275671Y-79695970D01*
X196252571Y-79704235D01*
X196228773Y-79710196D01*
X196204504Y-79713796D01*
X196180000Y-79715000D01*
X194980000Y-79715000D01*
X194955496Y-79713796D01*
X194931227Y-79710196D01*
X194907429Y-79704235D01*
X194884329Y-79695970D01*
X194862151Y-79685480D01*
X194841107Y-79672867D01*
X194821402Y-79658253D01*
X194803223Y-79641777D01*
X194786747Y-79623598D01*
X194772133Y-79603893D01*
X194759520Y-79582849D01*
X194749030Y-79560671D01*
X194740765Y-79537571D01*
X194734804Y-79513773D01*
X194731204Y-79489504D01*
X194730000Y-79465000D01*
X194730000Y-78015000D01*
X194731204Y-77990496D01*
X194734804Y-77966227D01*
X194740765Y-77942429D01*
X194749030Y-77919329D01*
X194759520Y-77897151D01*
X194772133Y-77876107D01*
X194786747Y-77856402D01*
X194803223Y-77838223D01*
X194821402Y-77821747D01*
X194841107Y-77807133D01*
X194862151Y-77794520D01*
X194884329Y-77784030D01*
X194907429Y-77775765D01*
X194931227Y-77769804D01*
X194955496Y-77766204D01*
X194980000Y-77765000D01*
X196180000Y-77765000D01*
X196204504Y-77766204D01*
G37*
G04 #@! TD.AperFunction*
G04 #@! TA.AperFunction,ComponentPad*
G36*
X196164504Y-85386204D02*
G01*
X196188773Y-85389804D01*
X196212571Y-85395765D01*
X196235671Y-85404030D01*
X196257849Y-85414520D01*
X196278893Y-85427133D01*
X196298598Y-85441747D01*
X196316777Y-85458223D01*
X196333253Y-85476402D01*
X196347867Y-85496107D01*
X196360480Y-85517151D01*
X196370970Y-85539329D01*
X196379235Y-85562429D01*
X196385196Y-85586227D01*
X196388796Y-85610496D01*
X196390000Y-85635000D01*
X196390000Y-87085000D01*
X196388796Y-87109504D01*
X196385196Y-87133773D01*
X196379235Y-87157571D01*
X196370970Y-87180671D01*
X196360480Y-87202849D01*
X196347867Y-87223893D01*
X196333253Y-87243598D01*
X196316777Y-87261777D01*
X196298598Y-87278253D01*
X196278893Y-87292867D01*
X196257849Y-87305480D01*
X196235671Y-87315970D01*
X196212571Y-87324235D01*
X196188773Y-87330196D01*
X196164504Y-87333796D01*
X196140000Y-87335000D01*
X194940000Y-87335000D01*
X194915496Y-87333796D01*
X194891227Y-87330196D01*
X194867429Y-87324235D01*
X194844329Y-87315970D01*
X194822151Y-87305480D01*
X194801107Y-87292867D01*
X194781402Y-87278253D01*
X194763223Y-87261777D01*
X194746747Y-87243598D01*
X194732133Y-87223893D01*
X194719520Y-87202849D01*
X194709030Y-87180671D01*
X194700765Y-87157571D01*
X194694804Y-87133773D01*
X194691204Y-87109504D01*
X194690000Y-87085000D01*
X194690000Y-85635000D01*
X194691204Y-85610496D01*
X194694804Y-85586227D01*
X194700765Y-85562429D01*
X194709030Y-85539329D01*
X194719520Y-85517151D01*
X194732133Y-85496107D01*
X194746747Y-85476402D01*
X194763223Y-85458223D01*
X194781402Y-85441747D01*
X194801107Y-85427133D01*
X194822151Y-85414520D01*
X194844329Y-85404030D01*
X194867429Y-85395765D01*
X194891227Y-85389804D01*
X194915496Y-85386204D01*
X194940000Y-85385000D01*
X196140000Y-85385000D01*
X196164504Y-85386204D01*
G37*
G04 #@! TD.AperFunction*
D10*
X193040000Y-86360000D03*
X190540000Y-86360000D03*
X188040000Y-86360000D03*
D12*
X184040000Y-131510000D03*
X202040000Y-131510000D03*
X184040000Y-92010000D03*
X202040000Y-92010000D03*
D13*
X160655000Y-76200000D03*
X160655000Y-78740000D03*
X160655000Y-81280000D03*
X160655000Y-83820000D03*
X160655000Y-86360000D03*
X160655000Y-88900000D03*
X160655000Y-91440000D03*
X160655000Y-93980000D03*
X160655000Y-96520000D03*
X160655000Y-99060000D03*
X160655000Y-101600000D03*
X160655000Y-104140000D03*
X160655000Y-106680000D03*
X160655000Y-109220000D03*
X160655000Y-111760000D03*
X175895000Y-76200000D03*
X175895000Y-78740000D03*
X175895000Y-81280000D03*
X175895000Y-83820000D03*
X175895000Y-86360000D03*
X175895000Y-88900000D03*
X175895000Y-91440000D03*
D14*
X175895000Y-111760000D03*
D13*
X175895000Y-109220000D03*
X175895000Y-106680000D03*
X175895000Y-104140000D03*
X175895000Y-101600000D03*
X175895000Y-99060000D03*
X175895000Y-96520000D03*
X175895000Y-93980000D03*
D10*
X196175000Y-138430000D03*
X193675000Y-138430000D03*
X191175000Y-138430000D03*
G04 #@! TA.AperFunction,ComponentPad*
D11*
G36*
X189299504Y-137456204D02*
G01*
X189323773Y-137459804D01*
X189347571Y-137465765D01*
X189370671Y-137474030D01*
X189392849Y-137484520D01*
X189413893Y-137497133D01*
X189433598Y-137511747D01*
X189451777Y-137528223D01*
X189468253Y-137546402D01*
X189482867Y-137566107D01*
X189495480Y-137587151D01*
X189505970Y-137609329D01*
X189514235Y-137632429D01*
X189520196Y-137656227D01*
X189523796Y-137680496D01*
X189525000Y-137705000D01*
X189525000Y-139155000D01*
X189523796Y-139179504D01*
X189520196Y-139203773D01*
X189514235Y-139227571D01*
X189505970Y-139250671D01*
X189495480Y-139272849D01*
X189482867Y-139293893D01*
X189468253Y-139313598D01*
X189451777Y-139331777D01*
X189433598Y-139348253D01*
X189413893Y-139362867D01*
X189392849Y-139375480D01*
X189370671Y-139385970D01*
X189347571Y-139394235D01*
X189323773Y-139400196D01*
X189299504Y-139403796D01*
X189275000Y-139405000D01*
X188075000Y-139405000D01*
X188050496Y-139403796D01*
X188026227Y-139400196D01*
X188002429Y-139394235D01*
X187979329Y-139385970D01*
X187957151Y-139375480D01*
X187936107Y-139362867D01*
X187916402Y-139348253D01*
X187898223Y-139331777D01*
X187881747Y-139313598D01*
X187867133Y-139293893D01*
X187854520Y-139272849D01*
X187844030Y-139250671D01*
X187835765Y-139227571D01*
X187829804Y-139203773D01*
X187826204Y-139179504D01*
X187825000Y-139155000D01*
X187825000Y-137705000D01*
X187826204Y-137680496D01*
X187829804Y-137656227D01*
X187835765Y-137632429D01*
X187844030Y-137609329D01*
X187854520Y-137587151D01*
X187867133Y-137566107D01*
X187881747Y-137546402D01*
X187898223Y-137528223D01*
X187916402Y-137511747D01*
X187936107Y-137497133D01*
X187957151Y-137484520D01*
X187979329Y-137474030D01*
X188002429Y-137465765D01*
X188026227Y-137459804D01*
X188050496Y-137456204D01*
X188075000Y-137455000D01*
X189275000Y-137455000D01*
X189299504Y-137456204D01*
G37*
G04 #@! TD.AperFunction*
D10*
X141210000Y-71755000D03*
X143710000Y-71755000D03*
X146210000Y-71755000D03*
G04 #@! TA.AperFunction,ComponentPad*
D11*
G36*
X149334504Y-70781204D02*
G01*
X149358773Y-70784804D01*
X149382571Y-70790765D01*
X149405671Y-70799030D01*
X149427849Y-70809520D01*
X149448893Y-70822133D01*
X149468598Y-70836747D01*
X149486777Y-70853223D01*
X149503253Y-70871402D01*
X149517867Y-70891107D01*
X149530480Y-70912151D01*
X149540970Y-70934329D01*
X149549235Y-70957429D01*
X149555196Y-70981227D01*
X149558796Y-71005496D01*
X149560000Y-71030000D01*
X149560000Y-72480000D01*
X149558796Y-72504504D01*
X149555196Y-72528773D01*
X149549235Y-72552571D01*
X149540970Y-72575671D01*
X149530480Y-72597849D01*
X149517867Y-72618893D01*
X149503253Y-72638598D01*
X149486777Y-72656777D01*
X149468598Y-72673253D01*
X149448893Y-72687867D01*
X149427849Y-72700480D01*
X149405671Y-72710970D01*
X149382571Y-72719235D01*
X149358773Y-72725196D01*
X149334504Y-72728796D01*
X149310000Y-72730000D01*
X148110000Y-72730000D01*
X148085496Y-72728796D01*
X148061227Y-72725196D01*
X148037429Y-72719235D01*
X148014329Y-72710970D01*
X147992151Y-72700480D01*
X147971107Y-72687867D01*
X147951402Y-72673253D01*
X147933223Y-72656777D01*
X147916747Y-72638598D01*
X147902133Y-72618893D01*
X147889520Y-72597849D01*
X147879030Y-72575671D01*
X147870765Y-72552571D01*
X147864804Y-72528773D01*
X147861204Y-72504504D01*
X147860000Y-72480000D01*
X147860000Y-71030000D01*
X147861204Y-71005496D01*
X147864804Y-70981227D01*
X147870765Y-70957429D01*
X147879030Y-70934329D01*
X147889520Y-70912151D01*
X147902133Y-70891107D01*
X147916747Y-70871402D01*
X147933223Y-70853223D01*
X147951402Y-70836747D01*
X147971107Y-70822133D01*
X147992151Y-70809520D01*
X148014329Y-70799030D01*
X148037429Y-70790765D01*
X148061227Y-70784804D01*
X148085496Y-70781204D01*
X148110000Y-70780000D01*
X149310000Y-70780000D01*
X149334504Y-70781204D01*
G37*
G04 #@! TD.AperFunction*
G04 #@! TA.AperFunction,ComponentPad*
G36*
X149334504Y-102531204D02*
G01*
X149358773Y-102534804D01*
X149382571Y-102540765D01*
X149405671Y-102549030D01*
X149427849Y-102559520D01*
X149448893Y-102572133D01*
X149468598Y-102586747D01*
X149486777Y-102603223D01*
X149503253Y-102621402D01*
X149517867Y-102641107D01*
X149530480Y-102662151D01*
X149540970Y-102684329D01*
X149549235Y-102707429D01*
X149555196Y-102731227D01*
X149558796Y-102755496D01*
X149560000Y-102780000D01*
X149560000Y-104230000D01*
X149558796Y-104254504D01*
X149555196Y-104278773D01*
X149549235Y-104302571D01*
X149540970Y-104325671D01*
X149530480Y-104347849D01*
X149517867Y-104368893D01*
X149503253Y-104388598D01*
X149486777Y-104406777D01*
X149468598Y-104423253D01*
X149448893Y-104437867D01*
X149427849Y-104450480D01*
X149405671Y-104460970D01*
X149382571Y-104469235D01*
X149358773Y-104475196D01*
X149334504Y-104478796D01*
X149310000Y-104480000D01*
X148110000Y-104480000D01*
X148085496Y-104478796D01*
X148061227Y-104475196D01*
X148037429Y-104469235D01*
X148014329Y-104460970D01*
X147992151Y-104450480D01*
X147971107Y-104437867D01*
X147951402Y-104423253D01*
X147933223Y-104406777D01*
X147916747Y-104388598D01*
X147902133Y-104368893D01*
X147889520Y-104347849D01*
X147879030Y-104325671D01*
X147870765Y-104302571D01*
X147864804Y-104278773D01*
X147861204Y-104254504D01*
X147860000Y-104230000D01*
X147860000Y-102780000D01*
X147861204Y-102755496D01*
X147864804Y-102731227D01*
X147870765Y-102707429D01*
X147879030Y-102684329D01*
X147889520Y-102662151D01*
X147902133Y-102641107D01*
X147916747Y-102621402D01*
X147933223Y-102603223D01*
X147951402Y-102586747D01*
X147971107Y-102572133D01*
X147992151Y-102559520D01*
X148014329Y-102549030D01*
X148037429Y-102540765D01*
X148061227Y-102534804D01*
X148085496Y-102531204D01*
X148110000Y-102530000D01*
X149310000Y-102530000D01*
X149334504Y-102531204D01*
G37*
G04 #@! TD.AperFunction*
D10*
X146210000Y-103505000D03*
X143710000Y-103505000D03*
X141210000Y-103505000D03*
X141050000Y-79375000D03*
X143550000Y-79375000D03*
G04 #@! TA.AperFunction,ComponentPad*
D11*
G36*
X146674504Y-78401204D02*
G01*
X146698773Y-78404804D01*
X146722571Y-78410765D01*
X146745671Y-78419030D01*
X146767849Y-78429520D01*
X146788893Y-78442133D01*
X146808598Y-78456747D01*
X146826777Y-78473223D01*
X146843253Y-78491402D01*
X146857867Y-78511107D01*
X146870480Y-78532151D01*
X146880970Y-78554329D01*
X146889235Y-78577429D01*
X146895196Y-78601227D01*
X146898796Y-78625496D01*
X146900000Y-78650000D01*
X146900000Y-80100000D01*
X146898796Y-80124504D01*
X146895196Y-80148773D01*
X146889235Y-80172571D01*
X146880970Y-80195671D01*
X146870480Y-80217849D01*
X146857867Y-80238893D01*
X146843253Y-80258598D01*
X146826777Y-80276777D01*
X146808598Y-80293253D01*
X146788893Y-80307867D01*
X146767849Y-80320480D01*
X146745671Y-80330970D01*
X146722571Y-80339235D01*
X146698773Y-80345196D01*
X146674504Y-80348796D01*
X146650000Y-80350000D01*
X145450000Y-80350000D01*
X145425496Y-80348796D01*
X145401227Y-80345196D01*
X145377429Y-80339235D01*
X145354329Y-80330970D01*
X145332151Y-80320480D01*
X145311107Y-80307867D01*
X145291402Y-80293253D01*
X145273223Y-80276777D01*
X145256747Y-80258598D01*
X145242133Y-80238893D01*
X145229520Y-80217849D01*
X145219030Y-80195671D01*
X145210765Y-80172571D01*
X145204804Y-80148773D01*
X145201204Y-80124504D01*
X145200000Y-80100000D01*
X145200000Y-78650000D01*
X145201204Y-78625496D01*
X145204804Y-78601227D01*
X145210765Y-78577429D01*
X145219030Y-78554329D01*
X145229520Y-78532151D01*
X145242133Y-78511107D01*
X145256747Y-78491402D01*
X145273223Y-78473223D01*
X145291402Y-78456747D01*
X145311107Y-78442133D01*
X145332151Y-78429520D01*
X145354329Y-78419030D01*
X145377429Y-78410765D01*
X145401227Y-78404804D01*
X145425496Y-78401204D01*
X145450000Y-78400000D01*
X146650000Y-78400000D01*
X146674504Y-78401204D01*
G37*
G04 #@! TD.AperFunction*
G04 #@! TA.AperFunction,ComponentPad*
G36*
X193791504Y-70019204D02*
G01*
X193815773Y-70022804D01*
X193839571Y-70028765D01*
X193862671Y-70037030D01*
X193884849Y-70047520D01*
X193905893Y-70060133D01*
X193925598Y-70074747D01*
X193943777Y-70091223D01*
X193960253Y-70109402D01*
X193974867Y-70129107D01*
X193987480Y-70150151D01*
X193997970Y-70172329D01*
X194006235Y-70195429D01*
X194012196Y-70219227D01*
X194015796Y-70243496D01*
X194017000Y-70268000D01*
X194017000Y-71718000D01*
X194015796Y-71742504D01*
X194012196Y-71766773D01*
X194006235Y-71790571D01*
X193997970Y-71813671D01*
X193987480Y-71835849D01*
X193974867Y-71856893D01*
X193960253Y-71876598D01*
X193943777Y-71894777D01*
X193925598Y-71911253D01*
X193905893Y-71925867D01*
X193884849Y-71938480D01*
X193862671Y-71948970D01*
X193839571Y-71957235D01*
X193815773Y-71963196D01*
X193791504Y-71966796D01*
X193767000Y-71968000D01*
X192567000Y-71968000D01*
X192542496Y-71966796D01*
X192518227Y-71963196D01*
X192494429Y-71957235D01*
X192471329Y-71948970D01*
X192449151Y-71938480D01*
X192428107Y-71925867D01*
X192408402Y-71911253D01*
X192390223Y-71894777D01*
X192373747Y-71876598D01*
X192359133Y-71856893D01*
X192346520Y-71835849D01*
X192336030Y-71813671D01*
X192327765Y-71790571D01*
X192321804Y-71766773D01*
X192318204Y-71742504D01*
X192317000Y-71718000D01*
X192317000Y-70268000D01*
X192318204Y-70243496D01*
X192321804Y-70219227D01*
X192327765Y-70195429D01*
X192336030Y-70172329D01*
X192346520Y-70150151D01*
X192359133Y-70129107D01*
X192373747Y-70109402D01*
X192390223Y-70091223D01*
X192408402Y-70074747D01*
X192428107Y-70060133D01*
X192449151Y-70047520D01*
X192471329Y-70037030D01*
X192494429Y-70028765D01*
X192518227Y-70022804D01*
X192542496Y-70019204D01*
X192567000Y-70018000D01*
X193767000Y-70018000D01*
X193791504Y-70019204D01*
G37*
G04 #@! TD.AperFunction*
D10*
X190667000Y-70993000D03*
X188167000Y-70993000D03*
G04 #@! TA.AperFunction,ComponentPad*
D11*
G36*
X149334504Y-86021204D02*
G01*
X149358773Y-86024804D01*
X149382571Y-86030765D01*
X149405671Y-86039030D01*
X149427849Y-86049520D01*
X149448893Y-86062133D01*
X149468598Y-86076747D01*
X149486777Y-86093223D01*
X149503253Y-86111402D01*
X149517867Y-86131107D01*
X149530480Y-86152151D01*
X149540970Y-86174329D01*
X149549235Y-86197429D01*
X149555196Y-86221227D01*
X149558796Y-86245496D01*
X149560000Y-86270000D01*
X149560000Y-87720000D01*
X149558796Y-87744504D01*
X149555196Y-87768773D01*
X149549235Y-87792571D01*
X149540970Y-87815671D01*
X149530480Y-87837849D01*
X149517867Y-87858893D01*
X149503253Y-87878598D01*
X149486777Y-87896777D01*
X149468598Y-87913253D01*
X149448893Y-87927867D01*
X149427849Y-87940480D01*
X149405671Y-87950970D01*
X149382571Y-87959235D01*
X149358773Y-87965196D01*
X149334504Y-87968796D01*
X149310000Y-87970000D01*
X148110000Y-87970000D01*
X148085496Y-87968796D01*
X148061227Y-87965196D01*
X148037429Y-87959235D01*
X148014329Y-87950970D01*
X147992151Y-87940480D01*
X147971107Y-87927867D01*
X147951402Y-87913253D01*
X147933223Y-87896777D01*
X147916747Y-87878598D01*
X147902133Y-87858893D01*
X147889520Y-87837849D01*
X147879030Y-87815671D01*
X147870765Y-87792571D01*
X147864804Y-87768773D01*
X147861204Y-87744504D01*
X147860000Y-87720000D01*
X147860000Y-86270000D01*
X147861204Y-86245496D01*
X147864804Y-86221227D01*
X147870765Y-86197429D01*
X147879030Y-86174329D01*
X147889520Y-86152151D01*
X147902133Y-86131107D01*
X147916747Y-86111402D01*
X147933223Y-86093223D01*
X147951402Y-86076747D01*
X147971107Y-86062133D01*
X147992151Y-86049520D01*
X148014329Y-86039030D01*
X148037429Y-86030765D01*
X148061227Y-86024804D01*
X148085496Y-86021204D01*
X148110000Y-86020000D01*
X149310000Y-86020000D01*
X149334504Y-86021204D01*
G37*
G04 #@! TD.AperFunction*
D10*
X146210000Y-86995000D03*
X143710000Y-86995000D03*
X141210000Y-86995000D03*
G04 #@! TA.AperFunction,ComponentPad*
D11*
G36*
X149214504Y-110151204D02*
G01*
X149238773Y-110154804D01*
X149262571Y-110160765D01*
X149285671Y-110169030D01*
X149307849Y-110179520D01*
X149328893Y-110192133D01*
X149348598Y-110206747D01*
X149366777Y-110223223D01*
X149383253Y-110241402D01*
X149397867Y-110261107D01*
X149410480Y-110282151D01*
X149420970Y-110304329D01*
X149429235Y-110327429D01*
X149435196Y-110351227D01*
X149438796Y-110375496D01*
X149440000Y-110400000D01*
X149440000Y-111850000D01*
X149438796Y-111874504D01*
X149435196Y-111898773D01*
X149429235Y-111922571D01*
X149420970Y-111945671D01*
X149410480Y-111967849D01*
X149397867Y-111988893D01*
X149383253Y-112008598D01*
X149366777Y-112026777D01*
X149348598Y-112043253D01*
X149328893Y-112057867D01*
X149307849Y-112070480D01*
X149285671Y-112080970D01*
X149262571Y-112089235D01*
X149238773Y-112095196D01*
X149214504Y-112098796D01*
X149190000Y-112100000D01*
X147990000Y-112100000D01*
X147965496Y-112098796D01*
X147941227Y-112095196D01*
X147917429Y-112089235D01*
X147894329Y-112080970D01*
X147872151Y-112070480D01*
X147851107Y-112057867D01*
X147831402Y-112043253D01*
X147813223Y-112026777D01*
X147796747Y-112008598D01*
X147782133Y-111988893D01*
X147769520Y-111967849D01*
X147759030Y-111945671D01*
X147750765Y-111922571D01*
X147744804Y-111898773D01*
X147741204Y-111874504D01*
X147740000Y-111850000D01*
X147740000Y-110400000D01*
X147741204Y-110375496D01*
X147744804Y-110351227D01*
X147750765Y-110327429D01*
X147759030Y-110304329D01*
X147769520Y-110282151D01*
X147782133Y-110261107D01*
X147796747Y-110241402D01*
X147813223Y-110223223D01*
X147831402Y-110206747D01*
X147851107Y-110192133D01*
X147872151Y-110179520D01*
X147894329Y-110169030D01*
X147917429Y-110160765D01*
X147941227Y-110154804D01*
X147965496Y-110151204D01*
X147990000Y-110150000D01*
X149190000Y-110150000D01*
X149214504Y-110151204D01*
G37*
G04 #@! TD.AperFunction*
D10*
X146090000Y-111125000D03*
X143590000Y-111125000D03*
D15*
X172085000Y-137160000D03*
D16*
X168585000Y-137160000D03*
G04 #@! TA.AperFunction,ComponentPad*
D11*
G36*
X149214504Y-93641204D02*
G01*
X149238773Y-93644804D01*
X149262571Y-93650765D01*
X149285671Y-93659030D01*
X149307849Y-93669520D01*
X149328893Y-93682133D01*
X149348598Y-93696747D01*
X149366777Y-93713223D01*
X149383253Y-93731402D01*
X149397867Y-93751107D01*
X149410480Y-93772151D01*
X149420970Y-93794329D01*
X149429235Y-93817429D01*
X149435196Y-93841227D01*
X149438796Y-93865496D01*
X149440000Y-93890000D01*
X149440000Y-95340000D01*
X149438796Y-95364504D01*
X149435196Y-95388773D01*
X149429235Y-95412571D01*
X149420970Y-95435671D01*
X149410480Y-95457849D01*
X149397867Y-95478893D01*
X149383253Y-95498598D01*
X149366777Y-95516777D01*
X149348598Y-95533253D01*
X149328893Y-95547867D01*
X149307849Y-95560480D01*
X149285671Y-95570970D01*
X149262571Y-95579235D01*
X149238773Y-95585196D01*
X149214504Y-95588796D01*
X149190000Y-95590000D01*
X147990000Y-95590000D01*
X147965496Y-95588796D01*
X147941227Y-95585196D01*
X147917429Y-95579235D01*
X147894329Y-95570970D01*
X147872151Y-95560480D01*
X147851107Y-95547867D01*
X147831402Y-95533253D01*
X147813223Y-95516777D01*
X147796747Y-95498598D01*
X147782133Y-95478893D01*
X147769520Y-95457849D01*
X147759030Y-95435671D01*
X147750765Y-95412571D01*
X147744804Y-95388773D01*
X147741204Y-95364504D01*
X147740000Y-95340000D01*
X147740000Y-93890000D01*
X147741204Y-93865496D01*
X147744804Y-93841227D01*
X147750765Y-93817429D01*
X147759030Y-93794329D01*
X147769520Y-93772151D01*
X147782133Y-93751107D01*
X147796747Y-93731402D01*
X147813223Y-93713223D01*
X147831402Y-93696747D01*
X147851107Y-93682133D01*
X147872151Y-93669520D01*
X147894329Y-93659030D01*
X147917429Y-93650765D01*
X147941227Y-93644804D01*
X147965496Y-93641204D01*
X147990000Y-93640000D01*
X149190000Y-93640000D01*
X149214504Y-93641204D01*
G37*
G04 #@! TD.AperFunction*
D10*
X146090000Y-94615000D03*
X143590000Y-94615000D03*
X141090000Y-94615000D03*
G04 #@! TA.AperFunction,ComponentPad*
D11*
G36*
X139849504Y-126661204D02*
G01*
X139873773Y-126664804D01*
X139897571Y-126670765D01*
X139920671Y-126679030D01*
X139942849Y-126689520D01*
X139963893Y-126702133D01*
X139983598Y-126716747D01*
X140001777Y-126733223D01*
X140018253Y-126751402D01*
X140032867Y-126771107D01*
X140045480Y-126792151D01*
X140055970Y-126814329D01*
X140064235Y-126837429D01*
X140070196Y-126861227D01*
X140073796Y-126885496D01*
X140075000Y-126910000D01*
X140075000Y-128360000D01*
X140073796Y-128384504D01*
X140070196Y-128408773D01*
X140064235Y-128432571D01*
X140055970Y-128455671D01*
X140045480Y-128477849D01*
X140032867Y-128498893D01*
X140018253Y-128518598D01*
X140001777Y-128536777D01*
X139983598Y-128553253D01*
X139963893Y-128567867D01*
X139942849Y-128580480D01*
X139920671Y-128590970D01*
X139897571Y-128599235D01*
X139873773Y-128605196D01*
X139849504Y-128608796D01*
X139825000Y-128610000D01*
X138625000Y-128610000D01*
X138600496Y-128608796D01*
X138576227Y-128605196D01*
X138552429Y-128599235D01*
X138529329Y-128590970D01*
X138507151Y-128580480D01*
X138486107Y-128567867D01*
X138466402Y-128553253D01*
X138448223Y-128536777D01*
X138431747Y-128518598D01*
X138417133Y-128498893D01*
X138404520Y-128477849D01*
X138394030Y-128455671D01*
X138385765Y-128432571D01*
X138379804Y-128408773D01*
X138376204Y-128384504D01*
X138375000Y-128360000D01*
X138375000Y-126910000D01*
X138376204Y-126885496D01*
X138379804Y-126861227D01*
X138385765Y-126837429D01*
X138394030Y-126814329D01*
X138404520Y-126792151D01*
X138417133Y-126771107D01*
X138431747Y-126751402D01*
X138448223Y-126733223D01*
X138466402Y-126716747D01*
X138486107Y-126702133D01*
X138507151Y-126689520D01*
X138529329Y-126679030D01*
X138552429Y-126670765D01*
X138576227Y-126664804D01*
X138600496Y-126661204D01*
X138625000Y-126660000D01*
X139825000Y-126660000D01*
X139849504Y-126661204D01*
G37*
G04 #@! TD.AperFunction*
D10*
X141725000Y-127635000D03*
X144225000Y-127635000D03*
X146725000Y-127635000D03*
X149225000Y-127635000D03*
G04 #@! TA.AperFunction,ComponentPad*
D11*
G36*
X132704504Y-120311204D02*
G01*
X132728773Y-120314804D01*
X132752571Y-120320765D01*
X132775671Y-120329030D01*
X132797849Y-120339520D01*
X132818893Y-120352133D01*
X132838598Y-120366747D01*
X132856777Y-120383223D01*
X132873253Y-120401402D01*
X132887867Y-120421107D01*
X132900480Y-120442151D01*
X132910970Y-120464329D01*
X132919235Y-120487429D01*
X132925196Y-120511227D01*
X132928796Y-120535496D01*
X132930000Y-120560000D01*
X132930000Y-122010000D01*
X132928796Y-122034504D01*
X132925196Y-122058773D01*
X132919235Y-122082571D01*
X132910970Y-122105671D01*
X132900480Y-122127849D01*
X132887867Y-122148893D01*
X132873253Y-122168598D01*
X132856777Y-122186777D01*
X132838598Y-122203253D01*
X132818893Y-122217867D01*
X132797849Y-122230480D01*
X132775671Y-122240970D01*
X132752571Y-122249235D01*
X132728773Y-122255196D01*
X132704504Y-122258796D01*
X132680000Y-122260000D01*
X131480000Y-122260000D01*
X131455496Y-122258796D01*
X131431227Y-122255196D01*
X131407429Y-122249235D01*
X131384329Y-122240970D01*
X131362151Y-122230480D01*
X131341107Y-122217867D01*
X131321402Y-122203253D01*
X131303223Y-122186777D01*
X131286747Y-122168598D01*
X131272133Y-122148893D01*
X131259520Y-122127849D01*
X131249030Y-122105671D01*
X131240765Y-122082571D01*
X131234804Y-122058773D01*
X131231204Y-122034504D01*
X131230000Y-122010000D01*
X131230000Y-120560000D01*
X131231204Y-120535496D01*
X131234804Y-120511227D01*
X131240765Y-120487429D01*
X131249030Y-120464329D01*
X131259520Y-120442151D01*
X131272133Y-120421107D01*
X131286747Y-120401402D01*
X131303223Y-120383223D01*
X131321402Y-120366747D01*
X131341107Y-120352133D01*
X131362151Y-120339520D01*
X131384329Y-120329030D01*
X131407429Y-120320765D01*
X131431227Y-120314804D01*
X131455496Y-120311204D01*
X131480000Y-120310000D01*
X132680000Y-120310000D01*
X132704504Y-120311204D01*
G37*
G04 #@! TD.AperFunction*
D10*
X129580000Y-121285000D03*
X127080000Y-121285000D03*
G04 #@! TA.AperFunction,ComponentPad*
D11*
G36*
X149214504Y-117746204D02*
G01*
X149238773Y-117749804D01*
X149262571Y-117755765D01*
X149285671Y-117764030D01*
X149307849Y-117774520D01*
X149328893Y-117787133D01*
X149348598Y-117801747D01*
X149366777Y-117818223D01*
X149383253Y-117836402D01*
X149397867Y-117856107D01*
X149410480Y-117877151D01*
X149420970Y-117899329D01*
X149429235Y-117922429D01*
X149435196Y-117946227D01*
X149438796Y-117970496D01*
X149440000Y-117995000D01*
X149440000Y-119495000D01*
X149438796Y-119519504D01*
X149435196Y-119543773D01*
X149429235Y-119567571D01*
X149420970Y-119590671D01*
X149410480Y-119612849D01*
X149397867Y-119633893D01*
X149383253Y-119653598D01*
X149366777Y-119671777D01*
X149348598Y-119688253D01*
X149328893Y-119702867D01*
X149307849Y-119715480D01*
X149285671Y-119725970D01*
X149262571Y-119734235D01*
X149238773Y-119740196D01*
X149214504Y-119743796D01*
X149190000Y-119745000D01*
X147990000Y-119745000D01*
X147965496Y-119743796D01*
X147941227Y-119740196D01*
X147917429Y-119734235D01*
X147894329Y-119725970D01*
X147872151Y-119715480D01*
X147851107Y-119702867D01*
X147831402Y-119688253D01*
X147813223Y-119671777D01*
X147796747Y-119653598D01*
X147782133Y-119633893D01*
X147769520Y-119612849D01*
X147759030Y-119590671D01*
X147750765Y-119567571D01*
X147744804Y-119543773D01*
X147741204Y-119519504D01*
X147740000Y-119495000D01*
X147740000Y-117995000D01*
X147741204Y-117970496D01*
X147744804Y-117946227D01*
X147750765Y-117922429D01*
X147759030Y-117899329D01*
X147769520Y-117877151D01*
X147782133Y-117856107D01*
X147796747Y-117836402D01*
X147813223Y-117818223D01*
X147831402Y-117801747D01*
X147851107Y-117787133D01*
X147872151Y-117774520D01*
X147894329Y-117764030D01*
X147917429Y-117755765D01*
X147941227Y-117749804D01*
X147965496Y-117746204D01*
X147990000Y-117745000D01*
X149190000Y-117745000D01*
X149214504Y-117746204D01*
G37*
G04 #@! TD.AperFunction*
D17*
X146090000Y-118745000D03*
X127040000Y-95250000D03*
G04 #@! TA.AperFunction,ComponentPad*
D11*
G36*
X130164504Y-94251204D02*
G01*
X130188773Y-94254804D01*
X130212571Y-94260765D01*
X130235671Y-94269030D01*
X130257849Y-94279520D01*
X130278893Y-94292133D01*
X130298598Y-94306747D01*
X130316777Y-94323223D01*
X130333253Y-94341402D01*
X130347867Y-94361107D01*
X130360480Y-94382151D01*
X130370970Y-94404329D01*
X130379235Y-94427429D01*
X130385196Y-94451227D01*
X130388796Y-94475496D01*
X130390000Y-94500000D01*
X130390000Y-96000000D01*
X130388796Y-96024504D01*
X130385196Y-96048773D01*
X130379235Y-96072571D01*
X130370970Y-96095671D01*
X130360480Y-96117849D01*
X130347867Y-96138893D01*
X130333253Y-96158598D01*
X130316777Y-96176777D01*
X130298598Y-96193253D01*
X130278893Y-96207867D01*
X130257849Y-96220480D01*
X130235671Y-96230970D01*
X130212571Y-96239235D01*
X130188773Y-96245196D01*
X130164504Y-96248796D01*
X130140000Y-96250000D01*
X128940000Y-96250000D01*
X128915496Y-96248796D01*
X128891227Y-96245196D01*
X128867429Y-96239235D01*
X128844329Y-96230970D01*
X128822151Y-96220480D01*
X128801107Y-96207867D01*
X128781402Y-96193253D01*
X128763223Y-96176777D01*
X128746747Y-96158598D01*
X128732133Y-96138893D01*
X128719520Y-96117849D01*
X128709030Y-96095671D01*
X128700765Y-96072571D01*
X128694804Y-96048773D01*
X128691204Y-96024504D01*
X128690000Y-96000000D01*
X128690000Y-94500000D01*
X128691204Y-94475496D01*
X128694804Y-94451227D01*
X128700765Y-94427429D01*
X128709030Y-94404329D01*
X128719520Y-94382151D01*
X128732133Y-94361107D01*
X128746747Y-94341402D01*
X128763223Y-94323223D01*
X128781402Y-94306747D01*
X128801107Y-94292133D01*
X128822151Y-94279520D01*
X128844329Y-94269030D01*
X128867429Y-94260765D01*
X128891227Y-94254804D01*
X128915496Y-94251204D01*
X128940000Y-94250000D01*
X130140000Y-94250000D01*
X130164504Y-94251204D01*
G37*
G04 #@! TD.AperFunction*
G04 #@! TA.AperFunction,ComponentPad*
G36*
X160644504Y-127525204D02*
G01*
X160668773Y-127528804D01*
X160692571Y-127534765D01*
X160715671Y-127543030D01*
X160737849Y-127553520D01*
X160758893Y-127566133D01*
X160778598Y-127580747D01*
X160796777Y-127597223D01*
X160813253Y-127615402D01*
X160827867Y-127635107D01*
X160840480Y-127656151D01*
X160850970Y-127678329D01*
X160859235Y-127701429D01*
X160865196Y-127725227D01*
X160868796Y-127749496D01*
X160870000Y-127774000D01*
X160870000Y-129274000D01*
X160868796Y-129298504D01*
X160865196Y-129322773D01*
X160859235Y-129346571D01*
X160850970Y-129369671D01*
X160840480Y-129391849D01*
X160827867Y-129412893D01*
X160813253Y-129432598D01*
X160796777Y-129450777D01*
X160778598Y-129467253D01*
X160758893Y-129481867D01*
X160737849Y-129494480D01*
X160715671Y-129504970D01*
X160692571Y-129513235D01*
X160668773Y-129519196D01*
X160644504Y-129522796D01*
X160620000Y-129524000D01*
X159420000Y-129524000D01*
X159395496Y-129522796D01*
X159371227Y-129519196D01*
X159347429Y-129513235D01*
X159324329Y-129504970D01*
X159302151Y-129494480D01*
X159281107Y-129481867D01*
X159261402Y-129467253D01*
X159243223Y-129450777D01*
X159226747Y-129432598D01*
X159212133Y-129412893D01*
X159199520Y-129391849D01*
X159189030Y-129369671D01*
X159180765Y-129346571D01*
X159174804Y-129322773D01*
X159171204Y-129298504D01*
X159170000Y-129274000D01*
X159170000Y-127774000D01*
X159171204Y-127749496D01*
X159174804Y-127725227D01*
X159180765Y-127701429D01*
X159189030Y-127678329D01*
X159199520Y-127656151D01*
X159212133Y-127635107D01*
X159226747Y-127615402D01*
X159243223Y-127597223D01*
X159261402Y-127580747D01*
X159281107Y-127566133D01*
X159302151Y-127553520D01*
X159324329Y-127543030D01*
X159347429Y-127534765D01*
X159371227Y-127528804D01*
X159395496Y-127525204D01*
X159420000Y-127524000D01*
X160620000Y-127524000D01*
X160644504Y-127525204D01*
G37*
G04 #@! TD.AperFunction*
D17*
X157520000Y-128524000D03*
D18*
X130505000Y-80315000D03*
X138836400Y-107543600D03*
X139700000Y-123190000D03*
X138836400Y-107543600D03*
X136652000Y-101092000D03*
D19*
X137160000Y-105664000D03*
D18*
X136906000Y-115570000D03*
X136880000Y-107595000D03*
X136669999Y-123969999D03*
X135382000Y-115570000D03*
X133096000Y-103505000D03*
X135382000Y-135382000D03*
X137668000Y-137922000D03*
X137414000Y-133858000D03*
X144018000Y-138176000D03*
X137414000Y-132334000D03*
X150114000Y-138176000D03*
X137851000Y-131135000D03*
X155702000Y-137922000D03*
D20*
X127040000Y-73620000D02*
X132080000Y-68580000D01*
X146210000Y-69980000D02*
X146210000Y-71755000D01*
X144810000Y-68580000D02*
X146210000Y-69980000D01*
X132080000Y-68580000D02*
X144810000Y-68580000D01*
X127305000Y-80315000D02*
X127000000Y-80010000D01*
X130505000Y-80315000D02*
X127305000Y-80315000D01*
X127040000Y-95250000D02*
X127000000Y-80010000D01*
X127000000Y-80010000D02*
X127040000Y-73620000D01*
X146210000Y-94735000D02*
X146090000Y-94615000D01*
X146210000Y-103505000D02*
X146210000Y-94735000D01*
X146090000Y-87115000D02*
X146210000Y-86995000D01*
X146090000Y-94615000D02*
X146090000Y-87115000D01*
X146210000Y-79535000D02*
X146050000Y-79375000D01*
X146210000Y-86995000D02*
X146210000Y-79535000D01*
X146050000Y-71915000D02*
X146210000Y-71755000D01*
X146050000Y-79375000D02*
X146050000Y-71915000D01*
X173355000Y-96520000D02*
X175895000Y-93980000D01*
X193675000Y-138430000D02*
X193675000Y-134747000D01*
X193675000Y-134747000D02*
X192024000Y-133096000D01*
X192024000Y-133096000D02*
X176280998Y-116844998D01*
X176280998Y-116844998D02*
X173228000Y-113792000D01*
X173228000Y-113792000D02*
X173355000Y-96520000D01*
X148710000Y-72730000D02*
X148710000Y-86995000D01*
X148710000Y-71755000D02*
X148710000Y-72730000D01*
X148710000Y-94495000D02*
X148590000Y-94615000D01*
X148710000Y-86995000D02*
X148710000Y-94495000D01*
X148710000Y-104480000D02*
X148710000Y-103505000D01*
X138836400Y-107543600D02*
X138836400Y-107543600D01*
X145646400Y-107543600D02*
X148710000Y-104480000D01*
X148710000Y-94735000D02*
X148590000Y-94615000D01*
X148710000Y-103505000D02*
X148710000Y-94735000D01*
X149560000Y-71755000D02*
X152227000Y-69088000D01*
X148710000Y-71755000D02*
X149560000Y-71755000D01*
X152227000Y-69088000D02*
X179324000Y-69088000D01*
X182931010Y-72695010D02*
X185725010Y-72695010D01*
X179324000Y-69088000D02*
X182931010Y-72695010D01*
X185725010Y-72695010D02*
X187960000Y-74930000D01*
X187960000Y-74930000D02*
X192745000Y-74930000D01*
X195580000Y-77765000D02*
X195580000Y-78740000D01*
X192745000Y-74930000D02*
X195580000Y-77765000D01*
X138836400Y-107543600D02*
X145646400Y-107543600D01*
X139700000Y-108407200D02*
X139700000Y-107543609D01*
X139700000Y-123190000D02*
X139700000Y-108407200D01*
X184040000Y-92010000D02*
X195515000Y-92010000D01*
X195540000Y-91985000D02*
X195540000Y-86360000D01*
X195515000Y-92010000D02*
X195540000Y-91985000D01*
X188675000Y-139405000D02*
X188675000Y-138430000D01*
X195515000Y-92010000D02*
X195515000Y-132650000D01*
X198755000Y-135890000D02*
X198755000Y-140970000D01*
X190240000Y-140970000D02*
X188675000Y-139405000D01*
X195515000Y-132650000D02*
X198755000Y-135890000D01*
X136652000Y-101092000D02*
X136652000Y-105156000D01*
X136652000Y-105156000D02*
X137160000Y-105664000D01*
X137160000Y-105664000D02*
X137160000Y-105664000D01*
X198755000Y-140970000D02*
X190240000Y-140970000D01*
D21*
X136906000Y-115570000D02*
X136906000Y-107696000D01*
D20*
X143590000Y-103385000D02*
X143710000Y-103505000D01*
X143590000Y-94615000D02*
X143590000Y-103385000D01*
X172466000Y-76200000D02*
X175895000Y-76200000D01*
X137160000Y-124460000D02*
X161290000Y-124460000D01*
X165100000Y-120650000D02*
X165100000Y-83566000D01*
X136669999Y-123969999D02*
X137160000Y-124460000D01*
X161290000Y-124460000D02*
X165100000Y-120650000D01*
X165100000Y-83566000D02*
X172466000Y-76200000D01*
D21*
X143710000Y-104880000D02*
X143710000Y-103505000D01*
X142240000Y-106299000D02*
X143710000Y-104880000D01*
X136880000Y-107595000D02*
X138303000Y-106299000D01*
X138303000Y-106299000D02*
X142240000Y-106299000D01*
X133096000Y-113284000D02*
X133096000Y-103505000D01*
X135382000Y-115570000D02*
X133096000Y-113284000D01*
D20*
X180340000Y-84830000D02*
X186430000Y-78740000D01*
X180340000Y-107315000D02*
X180340000Y-84830000D01*
X186430000Y-78740000D02*
X188080000Y-78740000D01*
X175895000Y-111760000D02*
X180340000Y-107315000D01*
X184040000Y-133760000D02*
X180640000Y-137160000D01*
X184040000Y-131510000D02*
X184040000Y-133760000D01*
X180640000Y-137160000D02*
X172085000Y-137160000D01*
D21*
X135781999Y-135781999D02*
X135781999Y-136035999D01*
X135382000Y-135382000D02*
X135781999Y-135781999D01*
X135781999Y-136035999D02*
X137668000Y-137922000D01*
X137668000Y-137922000D02*
X137668000Y-137922000D01*
X137414000Y-133858000D02*
X140970000Y-133858000D01*
X140970000Y-133858000D02*
X144018000Y-136906000D01*
X144018000Y-136906000D02*
X144018000Y-138176000D01*
X144018000Y-138176000D02*
X144018000Y-138176000D01*
X137414000Y-132334000D02*
X146558000Y-132334000D01*
X146558000Y-132334000D02*
X150114000Y-135890000D01*
X150114000Y-135890000D02*
X150114000Y-138176000D01*
X150114000Y-138176000D02*
X150114000Y-138176000D01*
X137851000Y-131135000D02*
X152471000Y-131135000D01*
X152471000Y-131135000D02*
X155702000Y-134366000D01*
X155702000Y-134366000D02*
X155702000Y-137922000D01*
X155702000Y-137922000D02*
X155702000Y-137922000D01*
M02*
