G04 #@! TF.GenerationSoftware,KiCad,Pcbnew,5.1.5*
G04 #@! TF.CreationDate,2020-03-10T21:21:54+01:00*
G04 #@! TF.ProjectId,robotA_2020,726f626f-7441-45f3-9230-32302e6b6963,rev?*
G04 #@! TF.SameCoordinates,Original*
G04 #@! TF.FileFunction,Copper,L1,Top*
G04 #@! TF.FilePolarity,Positive*
%FSLAX46Y46*%
G04 Gerber Fmt 4.6, Leading zero omitted, Abs format (unit mm)*
G04 Created by KiCad (PCBNEW 5.1.5) date 2020-03-10 21:21:54*
%MOMM*%
%LPD*%
G04 APERTURE LIST*
%ADD10O,1.700000X1.950000*%
%ADD11C,0.100000*%
%ADD12R,1.200000X0.800000*%
%ADD13R,2.900000X2.900000*%
%ADD14C,1.524000*%
%ADD15R,1.524000X1.524000*%
%ADD16R,2.600000X2.600000*%
%ADD17C,2.600000*%
%ADD18R,1.200000X0.400000*%
%ADD19O,1.700000X2.000000*%
%ADD20C,0.800000*%
%ADD21C,1.000000*%
%ADD22C,0.800000*%
%ADD23C,0.400000*%
%ADD24C,0.600000*%
%ADD25C,0.250000*%
G04 APERTURE END LIST*
D10*
X188080000Y-78740000D03*
X190580000Y-78740000D03*
X193080000Y-78740000D03*
G04 #@! TA.AperFunction,ComponentPad*
D11*
G36*
X196204504Y-77766204D02*
G01*
X196228773Y-77769804D01*
X196252571Y-77775765D01*
X196275671Y-77784030D01*
X196297849Y-77794520D01*
X196318893Y-77807133D01*
X196338598Y-77821747D01*
X196356777Y-77838223D01*
X196373253Y-77856402D01*
X196387867Y-77876107D01*
X196400480Y-77897151D01*
X196410970Y-77919329D01*
X196419235Y-77942429D01*
X196425196Y-77966227D01*
X196428796Y-77990496D01*
X196430000Y-78015000D01*
X196430000Y-79465000D01*
X196428796Y-79489504D01*
X196425196Y-79513773D01*
X196419235Y-79537571D01*
X196410970Y-79560671D01*
X196400480Y-79582849D01*
X196387867Y-79603893D01*
X196373253Y-79623598D01*
X196356777Y-79641777D01*
X196338598Y-79658253D01*
X196318893Y-79672867D01*
X196297849Y-79685480D01*
X196275671Y-79695970D01*
X196252571Y-79704235D01*
X196228773Y-79710196D01*
X196204504Y-79713796D01*
X196180000Y-79715000D01*
X194980000Y-79715000D01*
X194955496Y-79713796D01*
X194931227Y-79710196D01*
X194907429Y-79704235D01*
X194884329Y-79695970D01*
X194862151Y-79685480D01*
X194841107Y-79672867D01*
X194821402Y-79658253D01*
X194803223Y-79641777D01*
X194786747Y-79623598D01*
X194772133Y-79603893D01*
X194759520Y-79582849D01*
X194749030Y-79560671D01*
X194740765Y-79537571D01*
X194734804Y-79513773D01*
X194731204Y-79489504D01*
X194730000Y-79465000D01*
X194730000Y-78015000D01*
X194731204Y-77990496D01*
X194734804Y-77966227D01*
X194740765Y-77942429D01*
X194749030Y-77919329D01*
X194759520Y-77897151D01*
X194772133Y-77876107D01*
X194786747Y-77856402D01*
X194803223Y-77838223D01*
X194821402Y-77821747D01*
X194841107Y-77807133D01*
X194862151Y-77794520D01*
X194884329Y-77784030D01*
X194907429Y-77775765D01*
X194931227Y-77769804D01*
X194955496Y-77766204D01*
X194980000Y-77765000D01*
X196180000Y-77765000D01*
X196204504Y-77766204D01*
G37*
G04 #@! TD.AperFunction*
D12*
X134325000Y-138115000D03*
X134325000Y-140015000D03*
X136525000Y-139065000D03*
G04 #@! TA.AperFunction,ComponentPad*
D11*
G36*
X196164504Y-85386204D02*
G01*
X196188773Y-85389804D01*
X196212571Y-85395765D01*
X196235671Y-85404030D01*
X196257849Y-85414520D01*
X196278893Y-85427133D01*
X196298598Y-85441747D01*
X196316777Y-85458223D01*
X196333253Y-85476402D01*
X196347867Y-85496107D01*
X196360480Y-85517151D01*
X196370970Y-85539329D01*
X196379235Y-85562429D01*
X196385196Y-85586227D01*
X196388796Y-85610496D01*
X196390000Y-85635000D01*
X196390000Y-87085000D01*
X196388796Y-87109504D01*
X196385196Y-87133773D01*
X196379235Y-87157571D01*
X196370970Y-87180671D01*
X196360480Y-87202849D01*
X196347867Y-87223893D01*
X196333253Y-87243598D01*
X196316777Y-87261777D01*
X196298598Y-87278253D01*
X196278893Y-87292867D01*
X196257849Y-87305480D01*
X196235671Y-87315970D01*
X196212571Y-87324235D01*
X196188773Y-87330196D01*
X196164504Y-87333796D01*
X196140000Y-87335000D01*
X194940000Y-87335000D01*
X194915496Y-87333796D01*
X194891227Y-87330196D01*
X194867429Y-87324235D01*
X194844329Y-87315970D01*
X194822151Y-87305480D01*
X194801107Y-87292867D01*
X194781402Y-87278253D01*
X194763223Y-87261777D01*
X194746747Y-87243598D01*
X194732133Y-87223893D01*
X194719520Y-87202849D01*
X194709030Y-87180671D01*
X194700765Y-87157571D01*
X194694804Y-87133773D01*
X194691204Y-87109504D01*
X194690000Y-87085000D01*
X194690000Y-85635000D01*
X194691204Y-85610496D01*
X194694804Y-85586227D01*
X194700765Y-85562429D01*
X194709030Y-85539329D01*
X194719520Y-85517151D01*
X194732133Y-85496107D01*
X194746747Y-85476402D01*
X194763223Y-85458223D01*
X194781402Y-85441747D01*
X194801107Y-85427133D01*
X194822151Y-85414520D01*
X194844329Y-85404030D01*
X194867429Y-85395765D01*
X194891227Y-85389804D01*
X194915496Y-85386204D01*
X194940000Y-85385000D01*
X196140000Y-85385000D01*
X196164504Y-85386204D01*
G37*
G04 #@! TD.AperFunction*
D10*
X193040000Y-86360000D03*
X190540000Y-86360000D03*
X188040000Y-86360000D03*
D13*
X184040000Y-131510000D03*
X202040000Y-131510000D03*
X184040000Y-92010000D03*
X202040000Y-92010000D03*
D14*
X160655000Y-76200000D03*
X160655000Y-78740000D03*
X160655000Y-81280000D03*
X160655000Y-83820000D03*
X160655000Y-86360000D03*
X160655000Y-88900000D03*
X160655000Y-91440000D03*
X160655000Y-93980000D03*
X160655000Y-96520000D03*
X160655000Y-99060000D03*
X160655000Y-101600000D03*
X160655000Y-104140000D03*
X160655000Y-106680000D03*
X160655000Y-109220000D03*
X160655000Y-111760000D03*
X175895000Y-76200000D03*
X175895000Y-78740000D03*
X175895000Y-81280000D03*
X175895000Y-83820000D03*
X175895000Y-86360000D03*
X175895000Y-88900000D03*
X175895000Y-91440000D03*
D15*
X175895000Y-111760000D03*
D14*
X175895000Y-109220000D03*
X175895000Y-106680000D03*
X175895000Y-104140000D03*
X175895000Y-101600000D03*
X175895000Y-99060000D03*
X175895000Y-96520000D03*
X175895000Y-93980000D03*
D10*
X196175000Y-138430000D03*
X193675000Y-138430000D03*
X191175000Y-138430000D03*
G04 #@! TA.AperFunction,ComponentPad*
D11*
G36*
X189299504Y-137456204D02*
G01*
X189323773Y-137459804D01*
X189347571Y-137465765D01*
X189370671Y-137474030D01*
X189392849Y-137484520D01*
X189413893Y-137497133D01*
X189433598Y-137511747D01*
X189451777Y-137528223D01*
X189468253Y-137546402D01*
X189482867Y-137566107D01*
X189495480Y-137587151D01*
X189505970Y-137609329D01*
X189514235Y-137632429D01*
X189520196Y-137656227D01*
X189523796Y-137680496D01*
X189525000Y-137705000D01*
X189525000Y-139155000D01*
X189523796Y-139179504D01*
X189520196Y-139203773D01*
X189514235Y-139227571D01*
X189505970Y-139250671D01*
X189495480Y-139272849D01*
X189482867Y-139293893D01*
X189468253Y-139313598D01*
X189451777Y-139331777D01*
X189433598Y-139348253D01*
X189413893Y-139362867D01*
X189392849Y-139375480D01*
X189370671Y-139385970D01*
X189347571Y-139394235D01*
X189323773Y-139400196D01*
X189299504Y-139403796D01*
X189275000Y-139405000D01*
X188075000Y-139405000D01*
X188050496Y-139403796D01*
X188026227Y-139400196D01*
X188002429Y-139394235D01*
X187979329Y-139385970D01*
X187957151Y-139375480D01*
X187936107Y-139362867D01*
X187916402Y-139348253D01*
X187898223Y-139331777D01*
X187881747Y-139313598D01*
X187867133Y-139293893D01*
X187854520Y-139272849D01*
X187844030Y-139250671D01*
X187835765Y-139227571D01*
X187829804Y-139203773D01*
X187826204Y-139179504D01*
X187825000Y-139155000D01*
X187825000Y-137705000D01*
X187826204Y-137680496D01*
X187829804Y-137656227D01*
X187835765Y-137632429D01*
X187844030Y-137609329D01*
X187854520Y-137587151D01*
X187867133Y-137566107D01*
X187881747Y-137546402D01*
X187898223Y-137528223D01*
X187916402Y-137511747D01*
X187936107Y-137497133D01*
X187957151Y-137484520D01*
X187979329Y-137474030D01*
X188002429Y-137465765D01*
X188026227Y-137459804D01*
X188050496Y-137456204D01*
X188075000Y-137455000D01*
X189275000Y-137455000D01*
X189299504Y-137456204D01*
G37*
G04 #@! TD.AperFunction*
G04 #@! TA.AperFunction,SMDPad,CuDef*
G36*
X157105779Y-104646144D02*
G01*
X157128834Y-104649563D01*
X157151443Y-104655227D01*
X157173387Y-104663079D01*
X157194457Y-104673044D01*
X157214448Y-104685026D01*
X157233168Y-104698910D01*
X157250438Y-104714562D01*
X157266090Y-104731832D01*
X157279974Y-104750552D01*
X157291956Y-104770543D01*
X157301921Y-104791613D01*
X157309773Y-104813557D01*
X157315437Y-104836166D01*
X157318856Y-104859221D01*
X157320000Y-104882500D01*
X157320000Y-105457500D01*
X157318856Y-105480779D01*
X157315437Y-105503834D01*
X157309773Y-105526443D01*
X157301921Y-105548387D01*
X157291956Y-105569457D01*
X157279974Y-105589448D01*
X157266090Y-105608168D01*
X157250438Y-105625438D01*
X157233168Y-105641090D01*
X157214448Y-105654974D01*
X157194457Y-105666956D01*
X157173387Y-105676921D01*
X157151443Y-105684773D01*
X157128834Y-105690437D01*
X157105779Y-105693856D01*
X157082500Y-105695000D01*
X156607500Y-105695000D01*
X156584221Y-105693856D01*
X156561166Y-105690437D01*
X156538557Y-105684773D01*
X156516613Y-105676921D01*
X156495543Y-105666956D01*
X156475552Y-105654974D01*
X156456832Y-105641090D01*
X156439562Y-105625438D01*
X156423910Y-105608168D01*
X156410026Y-105589448D01*
X156398044Y-105569457D01*
X156388079Y-105548387D01*
X156380227Y-105526443D01*
X156374563Y-105503834D01*
X156371144Y-105480779D01*
X156370000Y-105457500D01*
X156370000Y-104882500D01*
X156371144Y-104859221D01*
X156374563Y-104836166D01*
X156380227Y-104813557D01*
X156388079Y-104791613D01*
X156398044Y-104770543D01*
X156410026Y-104750552D01*
X156423910Y-104731832D01*
X156439562Y-104714562D01*
X156456832Y-104698910D01*
X156475552Y-104685026D01*
X156495543Y-104673044D01*
X156516613Y-104663079D01*
X156538557Y-104655227D01*
X156561166Y-104649563D01*
X156584221Y-104646144D01*
X156607500Y-104645000D01*
X157082500Y-104645000D01*
X157105779Y-104646144D01*
G37*
G04 #@! TD.AperFunction*
G04 #@! TA.AperFunction,SMDPad,CuDef*
G36*
X157105779Y-106396144D02*
G01*
X157128834Y-106399563D01*
X157151443Y-106405227D01*
X157173387Y-106413079D01*
X157194457Y-106423044D01*
X157214448Y-106435026D01*
X157233168Y-106448910D01*
X157250438Y-106464562D01*
X157266090Y-106481832D01*
X157279974Y-106500552D01*
X157291956Y-106520543D01*
X157301921Y-106541613D01*
X157309773Y-106563557D01*
X157315437Y-106586166D01*
X157318856Y-106609221D01*
X157320000Y-106632500D01*
X157320000Y-107207500D01*
X157318856Y-107230779D01*
X157315437Y-107253834D01*
X157309773Y-107276443D01*
X157301921Y-107298387D01*
X157291956Y-107319457D01*
X157279974Y-107339448D01*
X157266090Y-107358168D01*
X157250438Y-107375438D01*
X157233168Y-107391090D01*
X157214448Y-107404974D01*
X157194457Y-107416956D01*
X157173387Y-107426921D01*
X157151443Y-107434773D01*
X157128834Y-107440437D01*
X157105779Y-107443856D01*
X157082500Y-107445000D01*
X156607500Y-107445000D01*
X156584221Y-107443856D01*
X156561166Y-107440437D01*
X156538557Y-107434773D01*
X156516613Y-107426921D01*
X156495543Y-107416956D01*
X156475552Y-107404974D01*
X156456832Y-107391090D01*
X156439562Y-107375438D01*
X156423910Y-107358168D01*
X156410026Y-107339448D01*
X156398044Y-107319457D01*
X156388079Y-107298387D01*
X156380227Y-107276443D01*
X156374563Y-107253834D01*
X156371144Y-107230779D01*
X156370000Y-107207500D01*
X156370000Y-106632500D01*
X156371144Y-106609221D01*
X156374563Y-106586166D01*
X156380227Y-106563557D01*
X156388079Y-106541613D01*
X156398044Y-106520543D01*
X156410026Y-106500552D01*
X156423910Y-106481832D01*
X156439562Y-106464562D01*
X156456832Y-106448910D01*
X156475552Y-106435026D01*
X156495543Y-106423044D01*
X156516613Y-106413079D01*
X156538557Y-106405227D01*
X156561166Y-106399563D01*
X156584221Y-106396144D01*
X156607500Y-106395000D01*
X157082500Y-106395000D01*
X157105779Y-106396144D01*
G37*
G04 #@! TD.AperFunction*
D10*
X141210000Y-71755000D03*
X143710000Y-71755000D03*
X146210000Y-71755000D03*
G04 #@! TA.AperFunction,ComponentPad*
D11*
G36*
X149334504Y-70781204D02*
G01*
X149358773Y-70784804D01*
X149382571Y-70790765D01*
X149405671Y-70799030D01*
X149427849Y-70809520D01*
X149448893Y-70822133D01*
X149468598Y-70836747D01*
X149486777Y-70853223D01*
X149503253Y-70871402D01*
X149517867Y-70891107D01*
X149530480Y-70912151D01*
X149540970Y-70934329D01*
X149549235Y-70957429D01*
X149555196Y-70981227D01*
X149558796Y-71005496D01*
X149560000Y-71030000D01*
X149560000Y-72480000D01*
X149558796Y-72504504D01*
X149555196Y-72528773D01*
X149549235Y-72552571D01*
X149540970Y-72575671D01*
X149530480Y-72597849D01*
X149517867Y-72618893D01*
X149503253Y-72638598D01*
X149486777Y-72656777D01*
X149468598Y-72673253D01*
X149448893Y-72687867D01*
X149427849Y-72700480D01*
X149405671Y-72710970D01*
X149382571Y-72719235D01*
X149358773Y-72725196D01*
X149334504Y-72728796D01*
X149310000Y-72730000D01*
X148110000Y-72730000D01*
X148085496Y-72728796D01*
X148061227Y-72725196D01*
X148037429Y-72719235D01*
X148014329Y-72710970D01*
X147992151Y-72700480D01*
X147971107Y-72687867D01*
X147951402Y-72673253D01*
X147933223Y-72656777D01*
X147916747Y-72638598D01*
X147902133Y-72618893D01*
X147889520Y-72597849D01*
X147879030Y-72575671D01*
X147870765Y-72552571D01*
X147864804Y-72528773D01*
X147861204Y-72504504D01*
X147860000Y-72480000D01*
X147860000Y-71030000D01*
X147861204Y-71005496D01*
X147864804Y-70981227D01*
X147870765Y-70957429D01*
X147879030Y-70934329D01*
X147889520Y-70912151D01*
X147902133Y-70891107D01*
X147916747Y-70871402D01*
X147933223Y-70853223D01*
X147951402Y-70836747D01*
X147971107Y-70822133D01*
X147992151Y-70809520D01*
X148014329Y-70799030D01*
X148037429Y-70790765D01*
X148061227Y-70784804D01*
X148085496Y-70781204D01*
X148110000Y-70780000D01*
X149310000Y-70780000D01*
X149334504Y-70781204D01*
G37*
G04 #@! TD.AperFunction*
G04 #@! TA.AperFunction,SMDPad,CuDef*
G36*
X130745191Y-85886053D02*
G01*
X130766426Y-85889203D01*
X130787250Y-85894419D01*
X130807462Y-85901651D01*
X130826868Y-85910830D01*
X130845281Y-85921866D01*
X130862524Y-85934654D01*
X130878430Y-85949070D01*
X130892846Y-85964976D01*
X130905634Y-85982219D01*
X130916670Y-86000632D01*
X130925849Y-86020038D01*
X130933081Y-86040250D01*
X130938297Y-86061074D01*
X130941447Y-86082309D01*
X130942500Y-86103750D01*
X130942500Y-86616250D01*
X130941447Y-86637691D01*
X130938297Y-86658926D01*
X130933081Y-86679750D01*
X130925849Y-86699962D01*
X130916670Y-86719368D01*
X130905634Y-86737781D01*
X130892846Y-86755024D01*
X130878430Y-86770930D01*
X130862524Y-86785346D01*
X130845281Y-86798134D01*
X130826868Y-86809170D01*
X130807462Y-86818349D01*
X130787250Y-86825581D01*
X130766426Y-86830797D01*
X130745191Y-86833947D01*
X130723750Y-86835000D01*
X130286250Y-86835000D01*
X130264809Y-86833947D01*
X130243574Y-86830797D01*
X130222750Y-86825581D01*
X130202538Y-86818349D01*
X130183132Y-86809170D01*
X130164719Y-86798134D01*
X130147476Y-86785346D01*
X130131570Y-86770930D01*
X130117154Y-86755024D01*
X130104366Y-86737781D01*
X130093330Y-86719368D01*
X130084151Y-86699962D01*
X130076919Y-86679750D01*
X130071703Y-86658926D01*
X130068553Y-86637691D01*
X130067500Y-86616250D01*
X130067500Y-86103750D01*
X130068553Y-86082309D01*
X130071703Y-86061074D01*
X130076919Y-86040250D01*
X130084151Y-86020038D01*
X130093330Y-86000632D01*
X130104366Y-85982219D01*
X130117154Y-85964976D01*
X130131570Y-85949070D01*
X130147476Y-85934654D01*
X130164719Y-85921866D01*
X130183132Y-85910830D01*
X130202538Y-85901651D01*
X130222750Y-85894419D01*
X130243574Y-85889203D01*
X130264809Y-85886053D01*
X130286250Y-85885000D01*
X130723750Y-85885000D01*
X130745191Y-85886053D01*
G37*
G04 #@! TD.AperFunction*
G04 #@! TA.AperFunction,SMDPad,CuDef*
G36*
X132320191Y-85886053D02*
G01*
X132341426Y-85889203D01*
X132362250Y-85894419D01*
X132382462Y-85901651D01*
X132401868Y-85910830D01*
X132420281Y-85921866D01*
X132437524Y-85934654D01*
X132453430Y-85949070D01*
X132467846Y-85964976D01*
X132480634Y-85982219D01*
X132491670Y-86000632D01*
X132500849Y-86020038D01*
X132508081Y-86040250D01*
X132513297Y-86061074D01*
X132516447Y-86082309D01*
X132517500Y-86103750D01*
X132517500Y-86616250D01*
X132516447Y-86637691D01*
X132513297Y-86658926D01*
X132508081Y-86679750D01*
X132500849Y-86699962D01*
X132491670Y-86719368D01*
X132480634Y-86737781D01*
X132467846Y-86755024D01*
X132453430Y-86770930D01*
X132437524Y-86785346D01*
X132420281Y-86798134D01*
X132401868Y-86809170D01*
X132382462Y-86818349D01*
X132362250Y-86825581D01*
X132341426Y-86830797D01*
X132320191Y-86833947D01*
X132298750Y-86835000D01*
X131861250Y-86835000D01*
X131839809Y-86833947D01*
X131818574Y-86830797D01*
X131797750Y-86825581D01*
X131777538Y-86818349D01*
X131758132Y-86809170D01*
X131739719Y-86798134D01*
X131722476Y-86785346D01*
X131706570Y-86770930D01*
X131692154Y-86755024D01*
X131679366Y-86737781D01*
X131668330Y-86719368D01*
X131659151Y-86699962D01*
X131651919Y-86679750D01*
X131646703Y-86658926D01*
X131643553Y-86637691D01*
X131642500Y-86616250D01*
X131642500Y-86103750D01*
X131643553Y-86082309D01*
X131646703Y-86061074D01*
X131651919Y-86040250D01*
X131659151Y-86020038D01*
X131668330Y-86000632D01*
X131679366Y-85982219D01*
X131692154Y-85964976D01*
X131706570Y-85949070D01*
X131722476Y-85934654D01*
X131739719Y-85921866D01*
X131758132Y-85910830D01*
X131777538Y-85901651D01*
X131797750Y-85894419D01*
X131818574Y-85889203D01*
X131839809Y-85886053D01*
X131861250Y-85885000D01*
X132298750Y-85885000D01*
X132320191Y-85886053D01*
G37*
G04 #@! TD.AperFunction*
G04 #@! TA.AperFunction,SMDPad,CuDef*
G36*
X132320191Y-82076053D02*
G01*
X132341426Y-82079203D01*
X132362250Y-82084419D01*
X132382462Y-82091651D01*
X132401868Y-82100830D01*
X132420281Y-82111866D01*
X132437524Y-82124654D01*
X132453430Y-82139070D01*
X132467846Y-82154976D01*
X132480634Y-82172219D01*
X132491670Y-82190632D01*
X132500849Y-82210038D01*
X132508081Y-82230250D01*
X132513297Y-82251074D01*
X132516447Y-82272309D01*
X132517500Y-82293750D01*
X132517500Y-82806250D01*
X132516447Y-82827691D01*
X132513297Y-82848926D01*
X132508081Y-82869750D01*
X132500849Y-82889962D01*
X132491670Y-82909368D01*
X132480634Y-82927781D01*
X132467846Y-82945024D01*
X132453430Y-82960930D01*
X132437524Y-82975346D01*
X132420281Y-82988134D01*
X132401868Y-82999170D01*
X132382462Y-83008349D01*
X132362250Y-83015581D01*
X132341426Y-83020797D01*
X132320191Y-83023947D01*
X132298750Y-83025000D01*
X131861250Y-83025000D01*
X131839809Y-83023947D01*
X131818574Y-83020797D01*
X131797750Y-83015581D01*
X131777538Y-83008349D01*
X131758132Y-82999170D01*
X131739719Y-82988134D01*
X131722476Y-82975346D01*
X131706570Y-82960930D01*
X131692154Y-82945024D01*
X131679366Y-82927781D01*
X131668330Y-82909368D01*
X131659151Y-82889962D01*
X131651919Y-82869750D01*
X131646703Y-82848926D01*
X131643553Y-82827691D01*
X131642500Y-82806250D01*
X131642500Y-82293750D01*
X131643553Y-82272309D01*
X131646703Y-82251074D01*
X131651919Y-82230250D01*
X131659151Y-82210038D01*
X131668330Y-82190632D01*
X131679366Y-82172219D01*
X131692154Y-82154976D01*
X131706570Y-82139070D01*
X131722476Y-82124654D01*
X131739719Y-82111866D01*
X131758132Y-82100830D01*
X131777538Y-82091651D01*
X131797750Y-82084419D01*
X131818574Y-82079203D01*
X131839809Y-82076053D01*
X131861250Y-82075000D01*
X132298750Y-82075000D01*
X132320191Y-82076053D01*
G37*
G04 #@! TD.AperFunction*
G04 #@! TA.AperFunction,SMDPad,CuDef*
G36*
X130745191Y-82076053D02*
G01*
X130766426Y-82079203D01*
X130787250Y-82084419D01*
X130807462Y-82091651D01*
X130826868Y-82100830D01*
X130845281Y-82111866D01*
X130862524Y-82124654D01*
X130878430Y-82139070D01*
X130892846Y-82154976D01*
X130905634Y-82172219D01*
X130916670Y-82190632D01*
X130925849Y-82210038D01*
X130933081Y-82230250D01*
X130938297Y-82251074D01*
X130941447Y-82272309D01*
X130942500Y-82293750D01*
X130942500Y-82806250D01*
X130941447Y-82827691D01*
X130938297Y-82848926D01*
X130933081Y-82869750D01*
X130925849Y-82889962D01*
X130916670Y-82909368D01*
X130905634Y-82927781D01*
X130892846Y-82945024D01*
X130878430Y-82960930D01*
X130862524Y-82975346D01*
X130845281Y-82988134D01*
X130826868Y-82999170D01*
X130807462Y-83008349D01*
X130787250Y-83015581D01*
X130766426Y-83020797D01*
X130745191Y-83023947D01*
X130723750Y-83025000D01*
X130286250Y-83025000D01*
X130264809Y-83023947D01*
X130243574Y-83020797D01*
X130222750Y-83015581D01*
X130202538Y-83008349D01*
X130183132Y-82999170D01*
X130164719Y-82988134D01*
X130147476Y-82975346D01*
X130131570Y-82960930D01*
X130117154Y-82945024D01*
X130104366Y-82927781D01*
X130093330Y-82909368D01*
X130084151Y-82889962D01*
X130076919Y-82869750D01*
X130071703Y-82848926D01*
X130068553Y-82827691D01*
X130067500Y-82806250D01*
X130067500Y-82293750D01*
X130068553Y-82272309D01*
X130071703Y-82251074D01*
X130076919Y-82230250D01*
X130084151Y-82210038D01*
X130093330Y-82190632D01*
X130104366Y-82172219D01*
X130117154Y-82154976D01*
X130131570Y-82139070D01*
X130147476Y-82124654D01*
X130164719Y-82111866D01*
X130183132Y-82100830D01*
X130202538Y-82091651D01*
X130222750Y-82084419D01*
X130243574Y-82079203D01*
X130264809Y-82076053D01*
X130286250Y-82075000D01*
X130723750Y-82075000D01*
X130745191Y-82076053D01*
G37*
G04 #@! TD.AperFunction*
G04 #@! TA.AperFunction,SMDPad,CuDef*
G36*
X130745191Y-78266053D02*
G01*
X130766426Y-78269203D01*
X130787250Y-78274419D01*
X130807462Y-78281651D01*
X130826868Y-78290830D01*
X130845281Y-78301866D01*
X130862524Y-78314654D01*
X130878430Y-78329070D01*
X130892846Y-78344976D01*
X130905634Y-78362219D01*
X130916670Y-78380632D01*
X130925849Y-78400038D01*
X130933081Y-78420250D01*
X130938297Y-78441074D01*
X130941447Y-78462309D01*
X130942500Y-78483750D01*
X130942500Y-78996250D01*
X130941447Y-79017691D01*
X130938297Y-79038926D01*
X130933081Y-79059750D01*
X130925849Y-79079962D01*
X130916670Y-79099368D01*
X130905634Y-79117781D01*
X130892846Y-79135024D01*
X130878430Y-79150930D01*
X130862524Y-79165346D01*
X130845281Y-79178134D01*
X130826868Y-79189170D01*
X130807462Y-79198349D01*
X130787250Y-79205581D01*
X130766426Y-79210797D01*
X130745191Y-79213947D01*
X130723750Y-79215000D01*
X130286250Y-79215000D01*
X130264809Y-79213947D01*
X130243574Y-79210797D01*
X130222750Y-79205581D01*
X130202538Y-79198349D01*
X130183132Y-79189170D01*
X130164719Y-79178134D01*
X130147476Y-79165346D01*
X130131570Y-79150930D01*
X130117154Y-79135024D01*
X130104366Y-79117781D01*
X130093330Y-79099368D01*
X130084151Y-79079962D01*
X130076919Y-79059750D01*
X130071703Y-79038926D01*
X130068553Y-79017691D01*
X130067500Y-78996250D01*
X130067500Y-78483750D01*
X130068553Y-78462309D01*
X130071703Y-78441074D01*
X130076919Y-78420250D01*
X130084151Y-78400038D01*
X130093330Y-78380632D01*
X130104366Y-78362219D01*
X130117154Y-78344976D01*
X130131570Y-78329070D01*
X130147476Y-78314654D01*
X130164719Y-78301866D01*
X130183132Y-78290830D01*
X130202538Y-78281651D01*
X130222750Y-78274419D01*
X130243574Y-78269203D01*
X130264809Y-78266053D01*
X130286250Y-78265000D01*
X130723750Y-78265000D01*
X130745191Y-78266053D01*
G37*
G04 #@! TD.AperFunction*
G04 #@! TA.AperFunction,SMDPad,CuDef*
G36*
X132320191Y-78266053D02*
G01*
X132341426Y-78269203D01*
X132362250Y-78274419D01*
X132382462Y-78281651D01*
X132401868Y-78290830D01*
X132420281Y-78301866D01*
X132437524Y-78314654D01*
X132453430Y-78329070D01*
X132467846Y-78344976D01*
X132480634Y-78362219D01*
X132491670Y-78380632D01*
X132500849Y-78400038D01*
X132508081Y-78420250D01*
X132513297Y-78441074D01*
X132516447Y-78462309D01*
X132517500Y-78483750D01*
X132517500Y-78996250D01*
X132516447Y-79017691D01*
X132513297Y-79038926D01*
X132508081Y-79059750D01*
X132500849Y-79079962D01*
X132491670Y-79099368D01*
X132480634Y-79117781D01*
X132467846Y-79135024D01*
X132453430Y-79150930D01*
X132437524Y-79165346D01*
X132420281Y-79178134D01*
X132401868Y-79189170D01*
X132382462Y-79198349D01*
X132362250Y-79205581D01*
X132341426Y-79210797D01*
X132320191Y-79213947D01*
X132298750Y-79215000D01*
X131861250Y-79215000D01*
X131839809Y-79213947D01*
X131818574Y-79210797D01*
X131797750Y-79205581D01*
X131777538Y-79198349D01*
X131758132Y-79189170D01*
X131739719Y-79178134D01*
X131722476Y-79165346D01*
X131706570Y-79150930D01*
X131692154Y-79135024D01*
X131679366Y-79117781D01*
X131668330Y-79099368D01*
X131659151Y-79079962D01*
X131651919Y-79059750D01*
X131646703Y-79038926D01*
X131643553Y-79017691D01*
X131642500Y-78996250D01*
X131642500Y-78483750D01*
X131643553Y-78462309D01*
X131646703Y-78441074D01*
X131651919Y-78420250D01*
X131659151Y-78400038D01*
X131668330Y-78380632D01*
X131679366Y-78362219D01*
X131692154Y-78344976D01*
X131706570Y-78329070D01*
X131722476Y-78314654D01*
X131739719Y-78301866D01*
X131758132Y-78290830D01*
X131777538Y-78281651D01*
X131797750Y-78274419D01*
X131818574Y-78269203D01*
X131839809Y-78266053D01*
X131861250Y-78265000D01*
X132298750Y-78265000D01*
X132320191Y-78266053D01*
G37*
G04 #@! TD.AperFunction*
G04 #@! TA.AperFunction,ComponentPad*
G36*
X149334504Y-102531204D02*
G01*
X149358773Y-102534804D01*
X149382571Y-102540765D01*
X149405671Y-102549030D01*
X149427849Y-102559520D01*
X149448893Y-102572133D01*
X149468598Y-102586747D01*
X149486777Y-102603223D01*
X149503253Y-102621402D01*
X149517867Y-102641107D01*
X149530480Y-102662151D01*
X149540970Y-102684329D01*
X149549235Y-102707429D01*
X149555196Y-102731227D01*
X149558796Y-102755496D01*
X149560000Y-102780000D01*
X149560000Y-104230000D01*
X149558796Y-104254504D01*
X149555196Y-104278773D01*
X149549235Y-104302571D01*
X149540970Y-104325671D01*
X149530480Y-104347849D01*
X149517867Y-104368893D01*
X149503253Y-104388598D01*
X149486777Y-104406777D01*
X149468598Y-104423253D01*
X149448893Y-104437867D01*
X149427849Y-104450480D01*
X149405671Y-104460970D01*
X149382571Y-104469235D01*
X149358773Y-104475196D01*
X149334504Y-104478796D01*
X149310000Y-104480000D01*
X148110000Y-104480000D01*
X148085496Y-104478796D01*
X148061227Y-104475196D01*
X148037429Y-104469235D01*
X148014329Y-104460970D01*
X147992151Y-104450480D01*
X147971107Y-104437867D01*
X147951402Y-104423253D01*
X147933223Y-104406777D01*
X147916747Y-104388598D01*
X147902133Y-104368893D01*
X147889520Y-104347849D01*
X147879030Y-104325671D01*
X147870765Y-104302571D01*
X147864804Y-104278773D01*
X147861204Y-104254504D01*
X147860000Y-104230000D01*
X147860000Y-102780000D01*
X147861204Y-102755496D01*
X147864804Y-102731227D01*
X147870765Y-102707429D01*
X147879030Y-102684329D01*
X147889520Y-102662151D01*
X147902133Y-102641107D01*
X147916747Y-102621402D01*
X147933223Y-102603223D01*
X147951402Y-102586747D01*
X147971107Y-102572133D01*
X147992151Y-102559520D01*
X148014329Y-102549030D01*
X148037429Y-102540765D01*
X148061227Y-102534804D01*
X148085496Y-102531204D01*
X148110000Y-102530000D01*
X149310000Y-102530000D01*
X149334504Y-102531204D01*
G37*
G04 #@! TD.AperFunction*
D10*
X146210000Y-103505000D03*
X143710000Y-103505000D03*
X141210000Y-103505000D03*
X141050000Y-79375000D03*
X143550000Y-79375000D03*
G04 #@! TA.AperFunction,ComponentPad*
D11*
G36*
X146674504Y-78401204D02*
G01*
X146698773Y-78404804D01*
X146722571Y-78410765D01*
X146745671Y-78419030D01*
X146767849Y-78429520D01*
X146788893Y-78442133D01*
X146808598Y-78456747D01*
X146826777Y-78473223D01*
X146843253Y-78491402D01*
X146857867Y-78511107D01*
X146870480Y-78532151D01*
X146880970Y-78554329D01*
X146889235Y-78577429D01*
X146895196Y-78601227D01*
X146898796Y-78625496D01*
X146900000Y-78650000D01*
X146900000Y-80100000D01*
X146898796Y-80124504D01*
X146895196Y-80148773D01*
X146889235Y-80172571D01*
X146880970Y-80195671D01*
X146870480Y-80217849D01*
X146857867Y-80238893D01*
X146843253Y-80258598D01*
X146826777Y-80276777D01*
X146808598Y-80293253D01*
X146788893Y-80307867D01*
X146767849Y-80320480D01*
X146745671Y-80330970D01*
X146722571Y-80339235D01*
X146698773Y-80345196D01*
X146674504Y-80348796D01*
X146650000Y-80350000D01*
X145450000Y-80350000D01*
X145425496Y-80348796D01*
X145401227Y-80345196D01*
X145377429Y-80339235D01*
X145354329Y-80330970D01*
X145332151Y-80320480D01*
X145311107Y-80307867D01*
X145291402Y-80293253D01*
X145273223Y-80276777D01*
X145256747Y-80258598D01*
X145242133Y-80238893D01*
X145229520Y-80217849D01*
X145219030Y-80195671D01*
X145210765Y-80172571D01*
X145204804Y-80148773D01*
X145201204Y-80124504D01*
X145200000Y-80100000D01*
X145200000Y-78650000D01*
X145201204Y-78625496D01*
X145204804Y-78601227D01*
X145210765Y-78577429D01*
X145219030Y-78554329D01*
X145229520Y-78532151D01*
X145242133Y-78511107D01*
X145256747Y-78491402D01*
X145273223Y-78473223D01*
X145291402Y-78456747D01*
X145311107Y-78442133D01*
X145332151Y-78429520D01*
X145354329Y-78419030D01*
X145377429Y-78410765D01*
X145401227Y-78404804D01*
X145425496Y-78401204D01*
X145450000Y-78400000D01*
X146650000Y-78400000D01*
X146674504Y-78401204D01*
G37*
G04 #@! TD.AperFunction*
G04 #@! TA.AperFunction,ComponentPad*
G36*
X193791504Y-70019204D02*
G01*
X193815773Y-70022804D01*
X193839571Y-70028765D01*
X193862671Y-70037030D01*
X193884849Y-70047520D01*
X193905893Y-70060133D01*
X193925598Y-70074747D01*
X193943777Y-70091223D01*
X193960253Y-70109402D01*
X193974867Y-70129107D01*
X193987480Y-70150151D01*
X193997970Y-70172329D01*
X194006235Y-70195429D01*
X194012196Y-70219227D01*
X194015796Y-70243496D01*
X194017000Y-70268000D01*
X194017000Y-71718000D01*
X194015796Y-71742504D01*
X194012196Y-71766773D01*
X194006235Y-71790571D01*
X193997970Y-71813671D01*
X193987480Y-71835849D01*
X193974867Y-71856893D01*
X193960253Y-71876598D01*
X193943777Y-71894777D01*
X193925598Y-71911253D01*
X193905893Y-71925867D01*
X193884849Y-71938480D01*
X193862671Y-71948970D01*
X193839571Y-71957235D01*
X193815773Y-71963196D01*
X193791504Y-71966796D01*
X193767000Y-71968000D01*
X192567000Y-71968000D01*
X192542496Y-71966796D01*
X192518227Y-71963196D01*
X192494429Y-71957235D01*
X192471329Y-71948970D01*
X192449151Y-71938480D01*
X192428107Y-71925867D01*
X192408402Y-71911253D01*
X192390223Y-71894777D01*
X192373747Y-71876598D01*
X192359133Y-71856893D01*
X192346520Y-71835849D01*
X192336030Y-71813671D01*
X192327765Y-71790571D01*
X192321804Y-71766773D01*
X192318204Y-71742504D01*
X192317000Y-71718000D01*
X192317000Y-70268000D01*
X192318204Y-70243496D01*
X192321804Y-70219227D01*
X192327765Y-70195429D01*
X192336030Y-70172329D01*
X192346520Y-70150151D01*
X192359133Y-70129107D01*
X192373747Y-70109402D01*
X192390223Y-70091223D01*
X192408402Y-70074747D01*
X192428107Y-70060133D01*
X192449151Y-70047520D01*
X192471329Y-70037030D01*
X192494429Y-70028765D01*
X192518227Y-70022804D01*
X192542496Y-70019204D01*
X192567000Y-70018000D01*
X193767000Y-70018000D01*
X193791504Y-70019204D01*
G37*
G04 #@! TD.AperFunction*
D10*
X190667000Y-70993000D03*
X188167000Y-70993000D03*
G04 #@! TA.AperFunction,ComponentPad*
D11*
G36*
X149334504Y-86021204D02*
G01*
X149358773Y-86024804D01*
X149382571Y-86030765D01*
X149405671Y-86039030D01*
X149427849Y-86049520D01*
X149448893Y-86062133D01*
X149468598Y-86076747D01*
X149486777Y-86093223D01*
X149503253Y-86111402D01*
X149517867Y-86131107D01*
X149530480Y-86152151D01*
X149540970Y-86174329D01*
X149549235Y-86197429D01*
X149555196Y-86221227D01*
X149558796Y-86245496D01*
X149560000Y-86270000D01*
X149560000Y-87720000D01*
X149558796Y-87744504D01*
X149555196Y-87768773D01*
X149549235Y-87792571D01*
X149540970Y-87815671D01*
X149530480Y-87837849D01*
X149517867Y-87858893D01*
X149503253Y-87878598D01*
X149486777Y-87896777D01*
X149468598Y-87913253D01*
X149448893Y-87927867D01*
X149427849Y-87940480D01*
X149405671Y-87950970D01*
X149382571Y-87959235D01*
X149358773Y-87965196D01*
X149334504Y-87968796D01*
X149310000Y-87970000D01*
X148110000Y-87970000D01*
X148085496Y-87968796D01*
X148061227Y-87965196D01*
X148037429Y-87959235D01*
X148014329Y-87950970D01*
X147992151Y-87940480D01*
X147971107Y-87927867D01*
X147951402Y-87913253D01*
X147933223Y-87896777D01*
X147916747Y-87878598D01*
X147902133Y-87858893D01*
X147889520Y-87837849D01*
X147879030Y-87815671D01*
X147870765Y-87792571D01*
X147864804Y-87768773D01*
X147861204Y-87744504D01*
X147860000Y-87720000D01*
X147860000Y-86270000D01*
X147861204Y-86245496D01*
X147864804Y-86221227D01*
X147870765Y-86197429D01*
X147879030Y-86174329D01*
X147889520Y-86152151D01*
X147902133Y-86131107D01*
X147916747Y-86111402D01*
X147933223Y-86093223D01*
X147951402Y-86076747D01*
X147971107Y-86062133D01*
X147992151Y-86049520D01*
X148014329Y-86039030D01*
X148037429Y-86030765D01*
X148061227Y-86024804D01*
X148085496Y-86021204D01*
X148110000Y-86020000D01*
X149310000Y-86020000D01*
X149334504Y-86021204D01*
G37*
G04 #@! TD.AperFunction*
D10*
X146210000Y-86995000D03*
X143710000Y-86995000D03*
X141210000Y-86995000D03*
G04 #@! TA.AperFunction,ComponentPad*
D11*
G36*
X149214504Y-110151204D02*
G01*
X149238773Y-110154804D01*
X149262571Y-110160765D01*
X149285671Y-110169030D01*
X149307849Y-110179520D01*
X149328893Y-110192133D01*
X149348598Y-110206747D01*
X149366777Y-110223223D01*
X149383253Y-110241402D01*
X149397867Y-110261107D01*
X149410480Y-110282151D01*
X149420970Y-110304329D01*
X149429235Y-110327429D01*
X149435196Y-110351227D01*
X149438796Y-110375496D01*
X149440000Y-110400000D01*
X149440000Y-111850000D01*
X149438796Y-111874504D01*
X149435196Y-111898773D01*
X149429235Y-111922571D01*
X149420970Y-111945671D01*
X149410480Y-111967849D01*
X149397867Y-111988893D01*
X149383253Y-112008598D01*
X149366777Y-112026777D01*
X149348598Y-112043253D01*
X149328893Y-112057867D01*
X149307849Y-112070480D01*
X149285671Y-112080970D01*
X149262571Y-112089235D01*
X149238773Y-112095196D01*
X149214504Y-112098796D01*
X149190000Y-112100000D01*
X147990000Y-112100000D01*
X147965496Y-112098796D01*
X147941227Y-112095196D01*
X147917429Y-112089235D01*
X147894329Y-112080970D01*
X147872151Y-112070480D01*
X147851107Y-112057867D01*
X147831402Y-112043253D01*
X147813223Y-112026777D01*
X147796747Y-112008598D01*
X147782133Y-111988893D01*
X147769520Y-111967849D01*
X147759030Y-111945671D01*
X147750765Y-111922571D01*
X147744804Y-111898773D01*
X147741204Y-111874504D01*
X147740000Y-111850000D01*
X147740000Y-110400000D01*
X147741204Y-110375496D01*
X147744804Y-110351227D01*
X147750765Y-110327429D01*
X147759030Y-110304329D01*
X147769520Y-110282151D01*
X147782133Y-110261107D01*
X147796747Y-110241402D01*
X147813223Y-110223223D01*
X147831402Y-110206747D01*
X147851107Y-110192133D01*
X147872151Y-110179520D01*
X147894329Y-110169030D01*
X147917429Y-110160765D01*
X147941227Y-110154804D01*
X147965496Y-110151204D01*
X147990000Y-110150000D01*
X149190000Y-110150000D01*
X149214504Y-110151204D01*
G37*
G04 #@! TD.AperFunction*
D10*
X146090000Y-111125000D03*
X143590000Y-111125000D03*
D16*
X172085000Y-137160000D03*
D17*
X168585000Y-137160000D03*
G04 #@! TA.AperFunction,ComponentPad*
D11*
G36*
X149214504Y-93641204D02*
G01*
X149238773Y-93644804D01*
X149262571Y-93650765D01*
X149285671Y-93659030D01*
X149307849Y-93669520D01*
X149328893Y-93682133D01*
X149348598Y-93696747D01*
X149366777Y-93713223D01*
X149383253Y-93731402D01*
X149397867Y-93751107D01*
X149410480Y-93772151D01*
X149420970Y-93794329D01*
X149429235Y-93817429D01*
X149435196Y-93841227D01*
X149438796Y-93865496D01*
X149440000Y-93890000D01*
X149440000Y-95340000D01*
X149438796Y-95364504D01*
X149435196Y-95388773D01*
X149429235Y-95412571D01*
X149420970Y-95435671D01*
X149410480Y-95457849D01*
X149397867Y-95478893D01*
X149383253Y-95498598D01*
X149366777Y-95516777D01*
X149348598Y-95533253D01*
X149328893Y-95547867D01*
X149307849Y-95560480D01*
X149285671Y-95570970D01*
X149262571Y-95579235D01*
X149238773Y-95585196D01*
X149214504Y-95588796D01*
X149190000Y-95590000D01*
X147990000Y-95590000D01*
X147965496Y-95588796D01*
X147941227Y-95585196D01*
X147917429Y-95579235D01*
X147894329Y-95570970D01*
X147872151Y-95560480D01*
X147851107Y-95547867D01*
X147831402Y-95533253D01*
X147813223Y-95516777D01*
X147796747Y-95498598D01*
X147782133Y-95478893D01*
X147769520Y-95457849D01*
X147759030Y-95435671D01*
X147750765Y-95412571D01*
X147744804Y-95388773D01*
X147741204Y-95364504D01*
X147740000Y-95340000D01*
X147740000Y-93890000D01*
X147741204Y-93865496D01*
X147744804Y-93841227D01*
X147750765Y-93817429D01*
X147759030Y-93794329D01*
X147769520Y-93772151D01*
X147782133Y-93751107D01*
X147796747Y-93731402D01*
X147813223Y-93713223D01*
X147831402Y-93696747D01*
X147851107Y-93682133D01*
X147872151Y-93669520D01*
X147894329Y-93659030D01*
X147917429Y-93650765D01*
X147941227Y-93644804D01*
X147965496Y-93641204D01*
X147990000Y-93640000D01*
X149190000Y-93640000D01*
X149214504Y-93641204D01*
G37*
G04 #@! TD.AperFunction*
D10*
X146090000Y-94615000D03*
X143590000Y-94615000D03*
X141090000Y-94615000D03*
G04 #@! TA.AperFunction,ComponentPad*
D11*
G36*
X139849504Y-126661204D02*
G01*
X139873773Y-126664804D01*
X139897571Y-126670765D01*
X139920671Y-126679030D01*
X139942849Y-126689520D01*
X139963893Y-126702133D01*
X139983598Y-126716747D01*
X140001777Y-126733223D01*
X140018253Y-126751402D01*
X140032867Y-126771107D01*
X140045480Y-126792151D01*
X140055970Y-126814329D01*
X140064235Y-126837429D01*
X140070196Y-126861227D01*
X140073796Y-126885496D01*
X140075000Y-126910000D01*
X140075000Y-128360000D01*
X140073796Y-128384504D01*
X140070196Y-128408773D01*
X140064235Y-128432571D01*
X140055970Y-128455671D01*
X140045480Y-128477849D01*
X140032867Y-128498893D01*
X140018253Y-128518598D01*
X140001777Y-128536777D01*
X139983598Y-128553253D01*
X139963893Y-128567867D01*
X139942849Y-128580480D01*
X139920671Y-128590970D01*
X139897571Y-128599235D01*
X139873773Y-128605196D01*
X139849504Y-128608796D01*
X139825000Y-128610000D01*
X138625000Y-128610000D01*
X138600496Y-128608796D01*
X138576227Y-128605196D01*
X138552429Y-128599235D01*
X138529329Y-128590970D01*
X138507151Y-128580480D01*
X138486107Y-128567867D01*
X138466402Y-128553253D01*
X138448223Y-128536777D01*
X138431747Y-128518598D01*
X138417133Y-128498893D01*
X138404520Y-128477849D01*
X138394030Y-128455671D01*
X138385765Y-128432571D01*
X138379804Y-128408773D01*
X138376204Y-128384504D01*
X138375000Y-128360000D01*
X138375000Y-126910000D01*
X138376204Y-126885496D01*
X138379804Y-126861227D01*
X138385765Y-126837429D01*
X138394030Y-126814329D01*
X138404520Y-126792151D01*
X138417133Y-126771107D01*
X138431747Y-126751402D01*
X138448223Y-126733223D01*
X138466402Y-126716747D01*
X138486107Y-126702133D01*
X138507151Y-126689520D01*
X138529329Y-126679030D01*
X138552429Y-126670765D01*
X138576227Y-126664804D01*
X138600496Y-126661204D01*
X138625000Y-126660000D01*
X139825000Y-126660000D01*
X139849504Y-126661204D01*
G37*
G04 #@! TD.AperFunction*
D10*
X141725000Y-127635000D03*
X144225000Y-127635000D03*
X146725000Y-127635000D03*
X149225000Y-127635000D03*
G04 #@! TA.AperFunction,SMDPad,CuDef*
D11*
G36*
X167242642Y-126301174D02*
G01*
X167266303Y-126304684D01*
X167289507Y-126310496D01*
X167312029Y-126318554D01*
X167333653Y-126328782D01*
X167354170Y-126341079D01*
X167373383Y-126355329D01*
X167391107Y-126371393D01*
X167407171Y-126389117D01*
X167421421Y-126408330D01*
X167433718Y-126428847D01*
X167443946Y-126450471D01*
X167452004Y-126472993D01*
X167457816Y-126496197D01*
X167461326Y-126519858D01*
X167462500Y-126543750D01*
X167462500Y-127456250D01*
X167461326Y-127480142D01*
X167457816Y-127503803D01*
X167452004Y-127527007D01*
X167443946Y-127549529D01*
X167433718Y-127571153D01*
X167421421Y-127591670D01*
X167407171Y-127610883D01*
X167391107Y-127628607D01*
X167373383Y-127644671D01*
X167354170Y-127658921D01*
X167333653Y-127671218D01*
X167312029Y-127681446D01*
X167289507Y-127689504D01*
X167266303Y-127695316D01*
X167242642Y-127698826D01*
X167218750Y-127700000D01*
X166731250Y-127700000D01*
X166707358Y-127698826D01*
X166683697Y-127695316D01*
X166660493Y-127689504D01*
X166637971Y-127681446D01*
X166616347Y-127671218D01*
X166595830Y-127658921D01*
X166576617Y-127644671D01*
X166558893Y-127628607D01*
X166542829Y-127610883D01*
X166528579Y-127591670D01*
X166516282Y-127571153D01*
X166506054Y-127549529D01*
X166497996Y-127527007D01*
X166492184Y-127503803D01*
X166488674Y-127480142D01*
X166487500Y-127456250D01*
X166487500Y-126543750D01*
X166488674Y-126519858D01*
X166492184Y-126496197D01*
X166497996Y-126472993D01*
X166506054Y-126450471D01*
X166516282Y-126428847D01*
X166528579Y-126408330D01*
X166542829Y-126389117D01*
X166558893Y-126371393D01*
X166576617Y-126355329D01*
X166595830Y-126341079D01*
X166616347Y-126328782D01*
X166637971Y-126318554D01*
X166660493Y-126310496D01*
X166683697Y-126304684D01*
X166707358Y-126301174D01*
X166731250Y-126300000D01*
X167218750Y-126300000D01*
X167242642Y-126301174D01*
G37*
G04 #@! TD.AperFunction*
G04 #@! TA.AperFunction,SMDPad,CuDef*
G36*
X165367642Y-126301174D02*
G01*
X165391303Y-126304684D01*
X165414507Y-126310496D01*
X165437029Y-126318554D01*
X165458653Y-126328782D01*
X165479170Y-126341079D01*
X165498383Y-126355329D01*
X165516107Y-126371393D01*
X165532171Y-126389117D01*
X165546421Y-126408330D01*
X165558718Y-126428847D01*
X165568946Y-126450471D01*
X165577004Y-126472993D01*
X165582816Y-126496197D01*
X165586326Y-126519858D01*
X165587500Y-126543750D01*
X165587500Y-127456250D01*
X165586326Y-127480142D01*
X165582816Y-127503803D01*
X165577004Y-127527007D01*
X165568946Y-127549529D01*
X165558718Y-127571153D01*
X165546421Y-127591670D01*
X165532171Y-127610883D01*
X165516107Y-127628607D01*
X165498383Y-127644671D01*
X165479170Y-127658921D01*
X165458653Y-127671218D01*
X165437029Y-127681446D01*
X165414507Y-127689504D01*
X165391303Y-127695316D01*
X165367642Y-127698826D01*
X165343750Y-127700000D01*
X164856250Y-127700000D01*
X164832358Y-127698826D01*
X164808697Y-127695316D01*
X164785493Y-127689504D01*
X164762971Y-127681446D01*
X164741347Y-127671218D01*
X164720830Y-127658921D01*
X164701617Y-127644671D01*
X164683893Y-127628607D01*
X164667829Y-127610883D01*
X164653579Y-127591670D01*
X164641282Y-127571153D01*
X164631054Y-127549529D01*
X164622996Y-127527007D01*
X164617184Y-127503803D01*
X164613674Y-127480142D01*
X164612500Y-127456250D01*
X164612500Y-126543750D01*
X164613674Y-126519858D01*
X164617184Y-126496197D01*
X164622996Y-126472993D01*
X164631054Y-126450471D01*
X164641282Y-126428847D01*
X164653579Y-126408330D01*
X164667829Y-126389117D01*
X164683893Y-126371393D01*
X164701617Y-126355329D01*
X164720830Y-126341079D01*
X164741347Y-126328782D01*
X164762971Y-126318554D01*
X164785493Y-126310496D01*
X164808697Y-126304684D01*
X164832358Y-126301174D01*
X164856250Y-126300000D01*
X165343750Y-126300000D01*
X165367642Y-126301174D01*
G37*
G04 #@! TD.AperFunction*
G04 #@! TA.AperFunction,SMDPad,CuDef*
G36*
X172050142Y-126301174D02*
G01*
X172073803Y-126304684D01*
X172097007Y-126310496D01*
X172119529Y-126318554D01*
X172141153Y-126328782D01*
X172161670Y-126341079D01*
X172180883Y-126355329D01*
X172198607Y-126371393D01*
X172214671Y-126389117D01*
X172228921Y-126408330D01*
X172241218Y-126428847D01*
X172251446Y-126450471D01*
X172259504Y-126472993D01*
X172265316Y-126496197D01*
X172268826Y-126519858D01*
X172270000Y-126543750D01*
X172270000Y-127456250D01*
X172268826Y-127480142D01*
X172265316Y-127503803D01*
X172259504Y-127527007D01*
X172251446Y-127549529D01*
X172241218Y-127571153D01*
X172228921Y-127591670D01*
X172214671Y-127610883D01*
X172198607Y-127628607D01*
X172180883Y-127644671D01*
X172161670Y-127658921D01*
X172141153Y-127671218D01*
X172119529Y-127681446D01*
X172097007Y-127689504D01*
X172073803Y-127695316D01*
X172050142Y-127698826D01*
X172026250Y-127700000D01*
X171538750Y-127700000D01*
X171514858Y-127698826D01*
X171491197Y-127695316D01*
X171467993Y-127689504D01*
X171445471Y-127681446D01*
X171423847Y-127671218D01*
X171403330Y-127658921D01*
X171384117Y-127644671D01*
X171366393Y-127628607D01*
X171350329Y-127610883D01*
X171336079Y-127591670D01*
X171323782Y-127571153D01*
X171313554Y-127549529D01*
X171305496Y-127527007D01*
X171299684Y-127503803D01*
X171296174Y-127480142D01*
X171295000Y-127456250D01*
X171295000Y-126543750D01*
X171296174Y-126519858D01*
X171299684Y-126496197D01*
X171305496Y-126472993D01*
X171313554Y-126450471D01*
X171323782Y-126428847D01*
X171336079Y-126408330D01*
X171350329Y-126389117D01*
X171366393Y-126371393D01*
X171384117Y-126355329D01*
X171403330Y-126341079D01*
X171423847Y-126328782D01*
X171445471Y-126318554D01*
X171467993Y-126310496D01*
X171491197Y-126304684D01*
X171514858Y-126301174D01*
X171538750Y-126300000D01*
X172026250Y-126300000D01*
X172050142Y-126301174D01*
G37*
G04 #@! TD.AperFunction*
G04 #@! TA.AperFunction,SMDPad,CuDef*
G36*
X173925142Y-126301174D02*
G01*
X173948803Y-126304684D01*
X173972007Y-126310496D01*
X173994529Y-126318554D01*
X174016153Y-126328782D01*
X174036670Y-126341079D01*
X174055883Y-126355329D01*
X174073607Y-126371393D01*
X174089671Y-126389117D01*
X174103921Y-126408330D01*
X174116218Y-126428847D01*
X174126446Y-126450471D01*
X174134504Y-126472993D01*
X174140316Y-126496197D01*
X174143826Y-126519858D01*
X174145000Y-126543750D01*
X174145000Y-127456250D01*
X174143826Y-127480142D01*
X174140316Y-127503803D01*
X174134504Y-127527007D01*
X174126446Y-127549529D01*
X174116218Y-127571153D01*
X174103921Y-127591670D01*
X174089671Y-127610883D01*
X174073607Y-127628607D01*
X174055883Y-127644671D01*
X174036670Y-127658921D01*
X174016153Y-127671218D01*
X173994529Y-127681446D01*
X173972007Y-127689504D01*
X173948803Y-127695316D01*
X173925142Y-127698826D01*
X173901250Y-127700000D01*
X173413750Y-127700000D01*
X173389858Y-127698826D01*
X173366197Y-127695316D01*
X173342993Y-127689504D01*
X173320471Y-127681446D01*
X173298847Y-127671218D01*
X173278330Y-127658921D01*
X173259117Y-127644671D01*
X173241393Y-127628607D01*
X173225329Y-127610883D01*
X173211079Y-127591670D01*
X173198782Y-127571153D01*
X173188554Y-127549529D01*
X173180496Y-127527007D01*
X173174684Y-127503803D01*
X173171174Y-127480142D01*
X173170000Y-127456250D01*
X173170000Y-126543750D01*
X173171174Y-126519858D01*
X173174684Y-126496197D01*
X173180496Y-126472993D01*
X173188554Y-126450471D01*
X173198782Y-126428847D01*
X173211079Y-126408330D01*
X173225329Y-126389117D01*
X173241393Y-126371393D01*
X173259117Y-126355329D01*
X173278330Y-126341079D01*
X173298847Y-126328782D01*
X173320471Y-126318554D01*
X173342993Y-126310496D01*
X173366197Y-126304684D01*
X173389858Y-126301174D01*
X173413750Y-126300000D01*
X173901250Y-126300000D01*
X173925142Y-126301174D01*
G37*
G04 #@! TD.AperFunction*
D18*
X126725000Y-128535000D03*
X126725000Y-129185000D03*
X126725000Y-129835000D03*
X126725000Y-130485000D03*
X126725000Y-131135000D03*
X126725000Y-131785000D03*
X126725000Y-132435000D03*
X126725000Y-133085000D03*
X133625000Y-133085000D03*
X133625000Y-132435000D03*
X133625000Y-131785000D03*
X133625000Y-131135000D03*
X133625000Y-130485000D03*
X133625000Y-129835000D03*
X133625000Y-129185000D03*
X133625000Y-128535000D03*
X131085000Y-106945000D03*
X131085000Y-107595000D03*
X131085000Y-108245000D03*
X131085000Y-108895000D03*
X131085000Y-109545000D03*
X131085000Y-110195000D03*
X131085000Y-110845000D03*
X131085000Y-111495000D03*
X124185000Y-111495000D03*
X124185000Y-110845000D03*
X124185000Y-110195000D03*
X124185000Y-109545000D03*
X124185000Y-108895000D03*
X124185000Y-108245000D03*
X124185000Y-107595000D03*
X124185000Y-106945000D03*
D12*
X142240000Y-139065000D03*
X140040000Y-140015000D03*
X140040000Y-138115000D03*
X148420000Y-139065000D03*
X146220000Y-140015000D03*
X146220000Y-138115000D03*
X152105000Y-138115000D03*
X152105000Y-140015000D03*
X154305000Y-139065000D03*
X160655000Y-139065000D03*
X158455000Y-140015000D03*
X158455000Y-138115000D03*
G04 #@! TA.AperFunction,ComponentPad*
D11*
G36*
X132704504Y-120311204D02*
G01*
X132728773Y-120314804D01*
X132752571Y-120320765D01*
X132775671Y-120329030D01*
X132797849Y-120339520D01*
X132818893Y-120352133D01*
X132838598Y-120366747D01*
X132856777Y-120383223D01*
X132873253Y-120401402D01*
X132887867Y-120421107D01*
X132900480Y-120442151D01*
X132910970Y-120464329D01*
X132919235Y-120487429D01*
X132925196Y-120511227D01*
X132928796Y-120535496D01*
X132930000Y-120560000D01*
X132930000Y-122010000D01*
X132928796Y-122034504D01*
X132925196Y-122058773D01*
X132919235Y-122082571D01*
X132910970Y-122105671D01*
X132900480Y-122127849D01*
X132887867Y-122148893D01*
X132873253Y-122168598D01*
X132856777Y-122186777D01*
X132838598Y-122203253D01*
X132818893Y-122217867D01*
X132797849Y-122230480D01*
X132775671Y-122240970D01*
X132752571Y-122249235D01*
X132728773Y-122255196D01*
X132704504Y-122258796D01*
X132680000Y-122260000D01*
X131480000Y-122260000D01*
X131455496Y-122258796D01*
X131431227Y-122255196D01*
X131407429Y-122249235D01*
X131384329Y-122240970D01*
X131362151Y-122230480D01*
X131341107Y-122217867D01*
X131321402Y-122203253D01*
X131303223Y-122186777D01*
X131286747Y-122168598D01*
X131272133Y-122148893D01*
X131259520Y-122127849D01*
X131249030Y-122105671D01*
X131240765Y-122082571D01*
X131234804Y-122058773D01*
X131231204Y-122034504D01*
X131230000Y-122010000D01*
X131230000Y-120560000D01*
X131231204Y-120535496D01*
X131234804Y-120511227D01*
X131240765Y-120487429D01*
X131249030Y-120464329D01*
X131259520Y-120442151D01*
X131272133Y-120421107D01*
X131286747Y-120401402D01*
X131303223Y-120383223D01*
X131321402Y-120366747D01*
X131341107Y-120352133D01*
X131362151Y-120339520D01*
X131384329Y-120329030D01*
X131407429Y-120320765D01*
X131431227Y-120314804D01*
X131455496Y-120311204D01*
X131480000Y-120310000D01*
X132680000Y-120310000D01*
X132704504Y-120311204D01*
G37*
G04 #@! TD.AperFunction*
D10*
X129580000Y-121285000D03*
X127080000Y-121285000D03*
G04 #@! TA.AperFunction,ComponentPad*
D11*
G36*
X149214504Y-117746204D02*
G01*
X149238773Y-117749804D01*
X149262571Y-117755765D01*
X149285671Y-117764030D01*
X149307849Y-117774520D01*
X149328893Y-117787133D01*
X149348598Y-117801747D01*
X149366777Y-117818223D01*
X149383253Y-117836402D01*
X149397867Y-117856107D01*
X149410480Y-117877151D01*
X149420970Y-117899329D01*
X149429235Y-117922429D01*
X149435196Y-117946227D01*
X149438796Y-117970496D01*
X149440000Y-117995000D01*
X149440000Y-119495000D01*
X149438796Y-119519504D01*
X149435196Y-119543773D01*
X149429235Y-119567571D01*
X149420970Y-119590671D01*
X149410480Y-119612849D01*
X149397867Y-119633893D01*
X149383253Y-119653598D01*
X149366777Y-119671777D01*
X149348598Y-119688253D01*
X149328893Y-119702867D01*
X149307849Y-119715480D01*
X149285671Y-119725970D01*
X149262571Y-119734235D01*
X149238773Y-119740196D01*
X149214504Y-119743796D01*
X149190000Y-119745000D01*
X147990000Y-119745000D01*
X147965496Y-119743796D01*
X147941227Y-119740196D01*
X147917429Y-119734235D01*
X147894329Y-119725970D01*
X147872151Y-119715480D01*
X147851107Y-119702867D01*
X147831402Y-119688253D01*
X147813223Y-119671777D01*
X147796747Y-119653598D01*
X147782133Y-119633893D01*
X147769520Y-119612849D01*
X147759030Y-119590671D01*
X147750765Y-119567571D01*
X147744804Y-119543773D01*
X147741204Y-119519504D01*
X147740000Y-119495000D01*
X147740000Y-117995000D01*
X147741204Y-117970496D01*
X147744804Y-117946227D01*
X147750765Y-117922429D01*
X147759030Y-117899329D01*
X147769520Y-117877151D01*
X147782133Y-117856107D01*
X147796747Y-117836402D01*
X147813223Y-117818223D01*
X147831402Y-117801747D01*
X147851107Y-117787133D01*
X147872151Y-117774520D01*
X147894329Y-117764030D01*
X147917429Y-117755765D01*
X147941227Y-117749804D01*
X147965496Y-117746204D01*
X147990000Y-117745000D01*
X149190000Y-117745000D01*
X149214504Y-117746204D01*
G37*
G04 #@! TD.AperFunction*
D19*
X146090000Y-118745000D03*
X127040000Y-95250000D03*
G04 #@! TA.AperFunction,ComponentPad*
D11*
G36*
X130164504Y-94251204D02*
G01*
X130188773Y-94254804D01*
X130212571Y-94260765D01*
X130235671Y-94269030D01*
X130257849Y-94279520D01*
X130278893Y-94292133D01*
X130298598Y-94306747D01*
X130316777Y-94323223D01*
X130333253Y-94341402D01*
X130347867Y-94361107D01*
X130360480Y-94382151D01*
X130370970Y-94404329D01*
X130379235Y-94427429D01*
X130385196Y-94451227D01*
X130388796Y-94475496D01*
X130390000Y-94500000D01*
X130390000Y-96000000D01*
X130388796Y-96024504D01*
X130385196Y-96048773D01*
X130379235Y-96072571D01*
X130370970Y-96095671D01*
X130360480Y-96117849D01*
X130347867Y-96138893D01*
X130333253Y-96158598D01*
X130316777Y-96176777D01*
X130298598Y-96193253D01*
X130278893Y-96207867D01*
X130257849Y-96220480D01*
X130235671Y-96230970D01*
X130212571Y-96239235D01*
X130188773Y-96245196D01*
X130164504Y-96248796D01*
X130140000Y-96250000D01*
X128940000Y-96250000D01*
X128915496Y-96248796D01*
X128891227Y-96245196D01*
X128867429Y-96239235D01*
X128844329Y-96230970D01*
X128822151Y-96220480D01*
X128801107Y-96207867D01*
X128781402Y-96193253D01*
X128763223Y-96176777D01*
X128746747Y-96158598D01*
X128732133Y-96138893D01*
X128719520Y-96117849D01*
X128709030Y-96095671D01*
X128700765Y-96072571D01*
X128694804Y-96048773D01*
X128691204Y-96024504D01*
X128690000Y-96000000D01*
X128690000Y-94500000D01*
X128691204Y-94475496D01*
X128694804Y-94451227D01*
X128700765Y-94427429D01*
X128709030Y-94404329D01*
X128719520Y-94382151D01*
X128732133Y-94361107D01*
X128746747Y-94341402D01*
X128763223Y-94323223D01*
X128781402Y-94306747D01*
X128801107Y-94292133D01*
X128822151Y-94279520D01*
X128844329Y-94269030D01*
X128867429Y-94260765D01*
X128891227Y-94254804D01*
X128915496Y-94251204D01*
X128940000Y-94250000D01*
X130140000Y-94250000D01*
X130164504Y-94251204D01*
G37*
G04 #@! TD.AperFunction*
G04 #@! TA.AperFunction,ComponentPad*
G36*
X160644504Y-127525204D02*
G01*
X160668773Y-127528804D01*
X160692571Y-127534765D01*
X160715671Y-127543030D01*
X160737849Y-127553520D01*
X160758893Y-127566133D01*
X160778598Y-127580747D01*
X160796777Y-127597223D01*
X160813253Y-127615402D01*
X160827867Y-127635107D01*
X160840480Y-127656151D01*
X160850970Y-127678329D01*
X160859235Y-127701429D01*
X160865196Y-127725227D01*
X160868796Y-127749496D01*
X160870000Y-127774000D01*
X160870000Y-129274000D01*
X160868796Y-129298504D01*
X160865196Y-129322773D01*
X160859235Y-129346571D01*
X160850970Y-129369671D01*
X160840480Y-129391849D01*
X160827867Y-129412893D01*
X160813253Y-129432598D01*
X160796777Y-129450777D01*
X160778598Y-129467253D01*
X160758893Y-129481867D01*
X160737849Y-129494480D01*
X160715671Y-129504970D01*
X160692571Y-129513235D01*
X160668773Y-129519196D01*
X160644504Y-129522796D01*
X160620000Y-129524000D01*
X159420000Y-129524000D01*
X159395496Y-129522796D01*
X159371227Y-129519196D01*
X159347429Y-129513235D01*
X159324329Y-129504970D01*
X159302151Y-129494480D01*
X159281107Y-129481867D01*
X159261402Y-129467253D01*
X159243223Y-129450777D01*
X159226747Y-129432598D01*
X159212133Y-129412893D01*
X159199520Y-129391849D01*
X159189030Y-129369671D01*
X159180765Y-129346571D01*
X159174804Y-129322773D01*
X159171204Y-129298504D01*
X159170000Y-129274000D01*
X159170000Y-127774000D01*
X159171204Y-127749496D01*
X159174804Y-127725227D01*
X159180765Y-127701429D01*
X159189030Y-127678329D01*
X159199520Y-127656151D01*
X159212133Y-127635107D01*
X159226747Y-127615402D01*
X159243223Y-127597223D01*
X159261402Y-127580747D01*
X159281107Y-127566133D01*
X159302151Y-127553520D01*
X159324329Y-127543030D01*
X159347429Y-127534765D01*
X159371227Y-127528804D01*
X159395496Y-127525204D01*
X159420000Y-127524000D01*
X160620000Y-127524000D01*
X160644504Y-127525204D01*
G37*
G04 #@! TD.AperFunction*
D19*
X157520000Y-128524000D03*
G04 #@! TA.AperFunction,SMDPad,CuDef*
D11*
G36*
X136116142Y-106955674D02*
G01*
X136139803Y-106959184D01*
X136163007Y-106964996D01*
X136185529Y-106973054D01*
X136207153Y-106983282D01*
X136227670Y-106995579D01*
X136246883Y-107009829D01*
X136264607Y-107025893D01*
X136280671Y-107043617D01*
X136294921Y-107062830D01*
X136307218Y-107083347D01*
X136317446Y-107104971D01*
X136325504Y-107127493D01*
X136331316Y-107150697D01*
X136334826Y-107174358D01*
X136336000Y-107198250D01*
X136336000Y-107685750D01*
X136334826Y-107709642D01*
X136331316Y-107733303D01*
X136325504Y-107756507D01*
X136317446Y-107779029D01*
X136307218Y-107800653D01*
X136294921Y-107821170D01*
X136280671Y-107840383D01*
X136264607Y-107858107D01*
X136246883Y-107874171D01*
X136227670Y-107888421D01*
X136207153Y-107900718D01*
X136185529Y-107910946D01*
X136163007Y-107919004D01*
X136139803Y-107924816D01*
X136116142Y-107928326D01*
X136092250Y-107929500D01*
X135179750Y-107929500D01*
X135155858Y-107928326D01*
X135132197Y-107924816D01*
X135108993Y-107919004D01*
X135086471Y-107910946D01*
X135064847Y-107900718D01*
X135044330Y-107888421D01*
X135025117Y-107874171D01*
X135007393Y-107858107D01*
X134991329Y-107840383D01*
X134977079Y-107821170D01*
X134964782Y-107800653D01*
X134954554Y-107779029D01*
X134946496Y-107756507D01*
X134940684Y-107733303D01*
X134937174Y-107709642D01*
X134936000Y-107685750D01*
X134936000Y-107198250D01*
X134937174Y-107174358D01*
X134940684Y-107150697D01*
X134946496Y-107127493D01*
X134954554Y-107104971D01*
X134964782Y-107083347D01*
X134977079Y-107062830D01*
X134991329Y-107043617D01*
X135007393Y-107025893D01*
X135025117Y-107009829D01*
X135044330Y-106995579D01*
X135064847Y-106983282D01*
X135086471Y-106973054D01*
X135108993Y-106964996D01*
X135132197Y-106959184D01*
X135155858Y-106955674D01*
X135179750Y-106954500D01*
X136092250Y-106954500D01*
X136116142Y-106955674D01*
G37*
G04 #@! TD.AperFunction*
G04 #@! TA.AperFunction,SMDPad,CuDef*
G36*
X136116142Y-105080674D02*
G01*
X136139803Y-105084184D01*
X136163007Y-105089996D01*
X136185529Y-105098054D01*
X136207153Y-105108282D01*
X136227670Y-105120579D01*
X136246883Y-105134829D01*
X136264607Y-105150893D01*
X136280671Y-105168617D01*
X136294921Y-105187830D01*
X136307218Y-105208347D01*
X136317446Y-105229971D01*
X136325504Y-105252493D01*
X136331316Y-105275697D01*
X136334826Y-105299358D01*
X136336000Y-105323250D01*
X136336000Y-105810750D01*
X136334826Y-105834642D01*
X136331316Y-105858303D01*
X136325504Y-105881507D01*
X136317446Y-105904029D01*
X136307218Y-105925653D01*
X136294921Y-105946170D01*
X136280671Y-105965383D01*
X136264607Y-105983107D01*
X136246883Y-105999171D01*
X136227670Y-106013421D01*
X136207153Y-106025718D01*
X136185529Y-106035946D01*
X136163007Y-106044004D01*
X136139803Y-106049816D01*
X136116142Y-106053326D01*
X136092250Y-106054500D01*
X135179750Y-106054500D01*
X135155858Y-106053326D01*
X135132197Y-106049816D01*
X135108993Y-106044004D01*
X135086471Y-106035946D01*
X135064847Y-106025718D01*
X135044330Y-106013421D01*
X135025117Y-105999171D01*
X135007393Y-105983107D01*
X134991329Y-105965383D01*
X134977079Y-105946170D01*
X134964782Y-105925653D01*
X134954554Y-105904029D01*
X134946496Y-105881507D01*
X134940684Y-105858303D01*
X134937174Y-105834642D01*
X134936000Y-105810750D01*
X134936000Y-105323250D01*
X134937174Y-105299358D01*
X134940684Y-105275697D01*
X134946496Y-105252493D01*
X134954554Y-105229971D01*
X134964782Y-105208347D01*
X134977079Y-105187830D01*
X134991329Y-105168617D01*
X135007393Y-105150893D01*
X135025117Y-105134829D01*
X135044330Y-105120579D01*
X135064847Y-105108282D01*
X135086471Y-105098054D01*
X135108993Y-105089996D01*
X135132197Y-105084184D01*
X135155858Y-105080674D01*
X135179750Y-105079500D01*
X136092250Y-105079500D01*
X136116142Y-105080674D01*
G37*
G04 #@! TD.AperFunction*
G04 #@! TA.AperFunction,SMDPad,CuDef*
G36*
X136919642Y-98361174D02*
G01*
X136943303Y-98364684D01*
X136966507Y-98370496D01*
X136989029Y-98378554D01*
X137010653Y-98388782D01*
X137031170Y-98401079D01*
X137050383Y-98415329D01*
X137068107Y-98431393D01*
X137084171Y-98449117D01*
X137098421Y-98468330D01*
X137110718Y-98488847D01*
X137120946Y-98510471D01*
X137129004Y-98532993D01*
X137134816Y-98556197D01*
X137138326Y-98579858D01*
X137139500Y-98603750D01*
X137139500Y-99516250D01*
X137138326Y-99540142D01*
X137134816Y-99563803D01*
X137129004Y-99587007D01*
X137120946Y-99609529D01*
X137110718Y-99631153D01*
X137098421Y-99651670D01*
X137084171Y-99670883D01*
X137068107Y-99688607D01*
X137050383Y-99704671D01*
X137031170Y-99718921D01*
X137010653Y-99731218D01*
X136989029Y-99741446D01*
X136966507Y-99749504D01*
X136943303Y-99755316D01*
X136919642Y-99758826D01*
X136895750Y-99760000D01*
X136408250Y-99760000D01*
X136384358Y-99758826D01*
X136360697Y-99755316D01*
X136337493Y-99749504D01*
X136314971Y-99741446D01*
X136293347Y-99731218D01*
X136272830Y-99718921D01*
X136253617Y-99704671D01*
X136235893Y-99688607D01*
X136219829Y-99670883D01*
X136205579Y-99651670D01*
X136193282Y-99631153D01*
X136183054Y-99609529D01*
X136174996Y-99587007D01*
X136169184Y-99563803D01*
X136165674Y-99540142D01*
X136164500Y-99516250D01*
X136164500Y-98603750D01*
X136165674Y-98579858D01*
X136169184Y-98556197D01*
X136174996Y-98532993D01*
X136183054Y-98510471D01*
X136193282Y-98488847D01*
X136205579Y-98468330D01*
X136219829Y-98449117D01*
X136235893Y-98431393D01*
X136253617Y-98415329D01*
X136272830Y-98401079D01*
X136293347Y-98388782D01*
X136314971Y-98378554D01*
X136337493Y-98370496D01*
X136360697Y-98364684D01*
X136384358Y-98361174D01*
X136408250Y-98360000D01*
X136895750Y-98360000D01*
X136919642Y-98361174D01*
G37*
G04 #@! TD.AperFunction*
G04 #@! TA.AperFunction,SMDPad,CuDef*
G36*
X138794642Y-98361174D02*
G01*
X138818303Y-98364684D01*
X138841507Y-98370496D01*
X138864029Y-98378554D01*
X138885653Y-98388782D01*
X138906170Y-98401079D01*
X138925383Y-98415329D01*
X138943107Y-98431393D01*
X138959171Y-98449117D01*
X138973421Y-98468330D01*
X138985718Y-98488847D01*
X138995946Y-98510471D01*
X139004004Y-98532993D01*
X139009816Y-98556197D01*
X139013326Y-98579858D01*
X139014500Y-98603750D01*
X139014500Y-99516250D01*
X139013326Y-99540142D01*
X139009816Y-99563803D01*
X139004004Y-99587007D01*
X138995946Y-99609529D01*
X138985718Y-99631153D01*
X138973421Y-99651670D01*
X138959171Y-99670883D01*
X138943107Y-99688607D01*
X138925383Y-99704671D01*
X138906170Y-99718921D01*
X138885653Y-99731218D01*
X138864029Y-99741446D01*
X138841507Y-99749504D01*
X138818303Y-99755316D01*
X138794642Y-99758826D01*
X138770750Y-99760000D01*
X138283250Y-99760000D01*
X138259358Y-99758826D01*
X138235697Y-99755316D01*
X138212493Y-99749504D01*
X138189971Y-99741446D01*
X138168347Y-99731218D01*
X138147830Y-99718921D01*
X138128617Y-99704671D01*
X138110893Y-99688607D01*
X138094829Y-99670883D01*
X138080579Y-99651670D01*
X138068282Y-99631153D01*
X138058054Y-99609529D01*
X138049996Y-99587007D01*
X138044184Y-99563803D01*
X138040674Y-99540142D01*
X138039500Y-99516250D01*
X138039500Y-98603750D01*
X138040674Y-98579858D01*
X138044184Y-98556197D01*
X138049996Y-98532993D01*
X138058054Y-98510471D01*
X138068282Y-98488847D01*
X138080579Y-98468330D01*
X138094829Y-98449117D01*
X138110893Y-98431393D01*
X138128617Y-98415329D01*
X138147830Y-98401079D01*
X138168347Y-98388782D01*
X138189971Y-98378554D01*
X138212493Y-98370496D01*
X138235697Y-98364684D01*
X138259358Y-98361174D01*
X138283250Y-98360000D01*
X138770750Y-98360000D01*
X138794642Y-98361174D01*
G37*
G04 #@! TD.AperFunction*
D20*
X130505000Y-80315000D03*
X138836400Y-107543600D03*
X139700000Y-123190000D03*
X138836400Y-107543600D03*
X136652000Y-101092000D03*
D21*
X137160000Y-105664000D03*
D20*
X136906000Y-115570000D03*
X136880000Y-107595000D03*
X136669999Y-123969999D03*
X135382000Y-115570000D03*
X133096000Y-103505000D03*
X135382000Y-135382000D03*
X137668000Y-137922000D03*
X137414000Y-133858000D03*
X144018000Y-138176000D03*
X137414000Y-132334000D03*
X150114000Y-138176000D03*
X137851000Y-131135000D03*
X155702000Y-137922000D03*
D22*
X181610000Y-142240000D02*
X181610000Y-134952500D01*
X181610000Y-134952500D02*
X173657500Y-127000000D01*
X181610000Y-142240000D02*
X168910000Y-142240000D01*
X168585000Y-141915000D02*
X168585000Y-137160000D01*
X168910000Y-142240000D02*
X168585000Y-141915000D01*
X158455000Y-141945000D02*
X158455000Y-140015000D01*
X158750000Y-142240000D02*
X158455000Y-141945000D01*
X160020000Y-142240000D02*
X158750000Y-142240000D01*
X160020000Y-142240000D02*
X153670000Y-142240000D01*
X134325000Y-141945000D02*
X134620000Y-142240000D01*
X134325000Y-140015000D02*
X134325000Y-141945000D01*
X134620000Y-142240000D02*
X130810000Y-142240000D01*
X140040000Y-140015000D02*
X140040000Y-141900000D01*
X140970000Y-142240000D02*
X139700000Y-142240000D01*
X140040000Y-141900000D02*
X139700000Y-142240000D01*
X139700000Y-142240000D02*
X134620000Y-142240000D01*
X146220000Y-142070000D02*
X146050000Y-142240000D01*
X146220000Y-140015000D02*
X146220000Y-142070000D01*
X146050000Y-142240000D02*
X140970000Y-142240000D01*
X152105000Y-141945000D02*
X152400000Y-142240000D01*
X153670000Y-142240000D02*
X152400000Y-142240000D01*
X152105000Y-140015000D02*
X152105000Y-141945000D01*
X152400000Y-142240000D02*
X146050000Y-142240000D01*
X146210000Y-79215000D02*
X146050000Y-79375000D01*
X146210000Y-94495000D02*
X146090000Y-94615000D01*
X146090000Y-103385000D02*
X146210000Y-103505000D01*
X168910000Y-142240000D02*
X163830000Y-142240000D01*
D23*
X130505000Y-86360000D02*
X130505000Y-80315000D01*
X130505000Y-80315000D02*
X130505000Y-78740000D01*
X124185000Y-111495000D02*
X121677000Y-111495000D01*
D22*
X125390000Y-95250000D02*
X127040000Y-95250000D01*
D24*
X121158000Y-110976000D02*
X121158000Y-99568000D01*
X121677000Y-111495000D02*
X121158000Y-110976000D01*
D22*
X121273990Y-99366010D02*
X121158000Y-99568000D01*
X121158000Y-99568000D02*
X125390000Y-95250000D01*
X156845000Y-107445000D02*
X158620000Y-109220000D01*
X158620000Y-109220000D02*
X160655000Y-109220000D01*
X189865000Y-142240000D02*
X181610000Y-142240000D01*
X202040000Y-92010000D02*
X202040000Y-131510000D01*
X193040000Y-78780000D02*
X193080000Y-78740000D01*
X193040000Y-86360000D02*
X193040000Y-78780000D01*
X193080000Y-78740000D02*
X193080000Y-75525000D01*
X146210000Y-105280000D02*
X146975000Y-106045000D01*
X146210000Y-103505000D02*
X146210000Y-105280000D01*
X146975000Y-106045000D02*
X152400000Y-106045000D01*
X153275000Y-106920000D02*
X156845000Y-106920000D01*
X152400000Y-106045000D02*
X153275000Y-106920000D01*
X202040000Y-137685000D02*
X202040000Y-131510000D01*
X197485000Y-142240000D02*
X202040000Y-137685000D01*
X191175000Y-142200000D02*
X191135000Y-142240000D01*
X191175000Y-138430000D02*
X191175000Y-142200000D01*
X189865000Y-142240000D02*
X191135000Y-142240000D01*
X191135000Y-142240000D02*
X197485000Y-142240000D01*
X199790000Y-92010000D02*
X202040000Y-92010000D01*
X196915000Y-92010000D02*
X199790000Y-92010000D01*
X193040000Y-88135000D02*
X196915000Y-92010000D01*
X193040000Y-86360000D02*
X193040000Y-88135000D01*
X157520000Y-130324000D02*
X157520000Y-128524000D01*
X160546000Y-133350000D02*
X157520000Y-130324000D01*
X157520000Y-128524000D02*
X157520000Y-126724000D01*
X160546000Y-133350000D02*
X163068000Y-135872000D01*
X163830000Y-142240000D02*
X163068000Y-142240000D01*
X163068000Y-135872000D02*
X163068000Y-142240000D01*
X163068000Y-142240000D02*
X160020000Y-142240000D01*
X156845000Y-107445000D02*
X156845000Y-106920000D01*
X157520000Y-126724000D02*
X156845000Y-126049000D01*
X152716000Y-121920000D02*
X156972000Y-121920000D01*
X156972000Y-121920000D02*
X156845000Y-107445000D01*
X156845000Y-126049000D02*
X156972000Y-121920000D01*
X146090000Y-118745000D02*
X146090000Y-120545000D01*
X146090000Y-120545000D02*
X147465000Y-121920000D01*
X147465000Y-121920000D02*
X152716000Y-121920000D01*
X130810000Y-142240000D02*
X126873000Y-138303000D01*
X126873000Y-138303000D02*
X126873000Y-136271000D01*
D24*
X126725000Y-135403000D02*
X126725000Y-133135010D01*
X126873000Y-135551000D02*
X126725000Y-135403000D01*
X126873000Y-136271000D02*
X126873000Y-135551000D01*
D22*
X193167000Y-75438000D02*
X193167000Y-70993000D01*
X193080000Y-75525000D02*
X193167000Y-75438000D01*
D23*
X126365000Y-108585000D02*
X125405000Y-109545000D01*
X126365000Y-102235000D02*
X126365000Y-108585000D01*
X132080000Y-96520000D02*
X126365000Y-102235000D01*
X125405000Y-109545000D02*
X124185000Y-109545000D01*
X132080000Y-86360000D02*
X132080000Y-96520000D01*
X124804990Y-110145010D02*
X126074990Y-110145010D01*
X124185000Y-110195000D02*
X124755000Y-110195000D01*
X124755000Y-110195000D02*
X124804990Y-110145010D01*
X126074990Y-110145010D02*
X127635000Y-108585000D01*
X127635000Y-108585000D02*
X127635000Y-102870000D01*
X127635000Y-102870000D02*
X133350000Y-97155000D01*
X132517500Y-82550000D02*
X132080000Y-82550000D01*
X133350000Y-83382500D02*
X132517500Y-82550000D01*
X133350000Y-97155000D02*
X133350000Y-83382500D01*
X124185000Y-110845000D02*
X127280000Y-110845000D01*
X127280000Y-110845000D02*
X128905000Y-109220000D01*
X128905000Y-109220000D02*
X128905000Y-103505000D01*
X128905000Y-103505000D02*
X134620000Y-97790000D01*
X134620000Y-97790000D02*
X134620000Y-80842500D01*
X132080000Y-78740000D02*
X132298750Y-78521250D01*
X134620000Y-80842500D02*
X132298750Y-78521250D01*
X132517500Y-78740000D02*
X134620000Y-80842500D01*
X132517500Y-78740000D02*
X132080000Y-78740000D01*
D22*
X187960000Y-117475000D02*
X187960000Y-121920000D01*
X179705000Y-109220000D02*
X187960000Y-117475000D01*
X175895000Y-109220000D02*
X179705000Y-109220000D01*
X196175000Y-136655000D02*
X196175000Y-138430000D01*
X187960000Y-128440000D02*
X196175000Y-136655000D01*
X187960000Y-117475000D02*
X187960000Y-128440000D01*
X148710000Y-94495000D02*
X148590000Y-94615000D01*
X148590000Y-103385000D02*
X148710000Y-103505000D01*
D25*
X131085000Y-106945000D02*
X132091000Y-106945000D01*
D23*
X131085000Y-106945000D02*
X133745400Y-106945000D01*
X133745400Y-106945000D02*
X133745400Y-106843400D01*
X135305800Y-105384600D02*
X133745400Y-106945000D01*
X135559800Y-105384600D02*
X135305800Y-105384600D01*
X136677400Y-105384600D02*
X138836400Y-107543600D01*
X135305800Y-105384600D02*
X136677400Y-105384600D01*
D22*
X157875000Y-104140000D02*
X156845000Y-105170000D01*
X157875000Y-104140000D02*
X160655000Y-104140000D01*
X195540000Y-78780000D02*
X195580000Y-78740000D01*
X195540000Y-86360000D02*
X195540000Y-78780000D01*
D23*
X135520018Y-127369982D02*
X139700000Y-123190000D01*
X134990000Y-128535000D02*
X135255000Y-128270000D01*
X133625000Y-128535000D02*
X134990000Y-128535000D01*
X135255000Y-127635000D02*
X135520018Y-127369982D01*
X135255000Y-128270000D02*
X135255000Y-127635000D01*
X139700000Y-123190000D02*
X139700000Y-123190000D01*
D22*
X148710000Y-103505000D02*
X152400000Y-103505000D01*
X154065000Y-105170000D02*
X156845000Y-105170000D01*
X152400000Y-103505000D02*
X154065000Y-105170000D01*
X136652000Y-99060000D02*
X136652000Y-101092000D01*
X136652000Y-101092000D02*
X136652000Y-101092000D01*
X137063000Y-105567000D02*
X137160000Y-105664000D01*
X135636000Y-105567000D02*
X137063000Y-105567000D01*
D25*
X131209999Y-107470001D02*
X131085000Y-107595000D01*
X131810001Y-107470001D02*
X131209999Y-107470001D01*
D23*
X131085000Y-107595000D02*
X136880000Y-107595000D01*
X133625000Y-129185000D02*
X131979000Y-129185000D01*
X131979000Y-128660998D02*
X136669999Y-123969999D01*
X131979000Y-129185000D02*
X131979000Y-128660998D01*
X136906000Y-123733998D02*
X136906000Y-115570000D01*
X136906000Y-115570000D02*
X136906000Y-115570000D01*
D22*
X143590000Y-103385000D02*
X143710000Y-103505000D01*
D23*
X136669999Y-123969999D02*
X136906000Y-123733998D01*
D25*
X133625000Y-129835000D02*
X132775000Y-129835000D01*
D23*
X133004998Y-103505000D02*
X133096000Y-103505000D01*
X129505010Y-107004988D02*
X133004998Y-103505000D01*
X130085000Y-108245000D02*
X130075200Y-108254800D01*
X131085000Y-108245000D02*
X130085000Y-108245000D01*
X130075200Y-108254800D02*
X129844800Y-108254800D01*
X129844800Y-108254800D02*
X129505010Y-107915010D01*
X129505010Y-107915010D02*
X129505010Y-107004988D01*
X132625000Y-129835000D02*
X132584000Y-129794000D01*
X133625000Y-129835000D02*
X132625000Y-129835000D01*
X132584000Y-129794000D02*
X131064000Y-129794000D01*
X131064000Y-129794000D02*
X131064000Y-128524000D01*
X131064000Y-128524000D02*
X135382000Y-124206000D01*
X135382000Y-124206000D02*
X135382000Y-115824000D01*
X135382000Y-115824000D02*
X135382000Y-115570000D01*
X135382000Y-115570000D02*
X135382000Y-115570000D01*
D22*
X141210000Y-103505000D02*
X141210000Y-103630000D01*
X141090000Y-103385000D02*
X141210000Y-103505000D01*
X133096000Y-103505000D02*
X141210000Y-103505000D01*
X143880000Y-99060000D02*
X140970000Y-99060000D01*
X160655000Y-99060000D02*
X143880000Y-99060000D01*
X141090000Y-94615000D02*
X140970000Y-99060000D01*
X140970000Y-99060000D02*
X141090000Y-103385000D01*
X138527000Y-99060000D02*
X140970000Y-99060000D01*
X141050000Y-83138000D02*
X141050000Y-79375000D01*
X154432000Y-90189902D02*
X148062098Y-83820000D01*
X141732000Y-83820000D02*
X141050000Y-83138000D01*
X148062098Y-83820000D02*
X141732000Y-83820000D01*
X154432000Y-90189902D02*
X154432000Y-90297000D01*
X154432000Y-90297000D02*
X155575000Y-91440000D01*
X155575000Y-91440000D02*
X160655000Y-91440000D01*
X143550000Y-79375000D02*
X143550000Y-81320000D01*
X143550000Y-81320000D02*
X147995000Y-81320000D01*
X147995000Y-81320000D02*
X155575000Y-88900000D01*
X155575000Y-88900000D02*
X160655000Y-88900000D01*
X175895000Y-81280000D02*
X179070000Y-81280000D01*
X184277000Y-76073000D02*
X185674000Y-74676000D01*
X179070000Y-81280000D02*
X184277000Y-76073000D01*
X185674000Y-74676000D02*
X189865000Y-74676000D01*
X190667000Y-73874000D02*
X190667000Y-70993000D01*
X189865000Y-74676000D02*
X190667000Y-73874000D01*
X184912000Y-70993000D02*
X188167000Y-70993000D01*
X175895000Y-78740000D02*
X177165000Y-78740000D01*
X177165000Y-78740000D02*
X184912000Y-70993000D01*
X156210000Y-84455000D02*
X158115000Y-86360000D01*
X141210000Y-71755000D02*
X141210000Y-73530000D01*
X143880000Y-76200000D02*
X153035000Y-76200000D01*
X153035000Y-76200000D02*
X156210000Y-79375000D01*
X141210000Y-73530000D02*
X143880000Y-76200000D01*
X156210000Y-79375000D02*
X156210000Y-84455000D01*
X158115000Y-86360000D02*
X160655000Y-86360000D01*
X143710000Y-73530000D02*
X143710000Y-71755000D01*
X144856000Y-74676000D02*
X143710000Y-73530000D01*
X157480000Y-78740000D02*
X153670000Y-74930000D01*
X153670000Y-74930000D02*
X144856000Y-74676000D01*
X157480000Y-81915000D02*
X157480000Y-78740000D01*
X157480000Y-81915000D02*
X157480000Y-82550000D01*
X158750000Y-83820000D02*
X160655000Y-83820000D01*
X157480000Y-82550000D02*
X158750000Y-83820000D01*
X151892000Y-92456000D02*
X149352000Y-89916000D01*
X143710000Y-88770000D02*
X143710000Y-86995000D01*
X144856000Y-89916000D02*
X143710000Y-88770000D01*
X149352000Y-89916000D02*
X144856000Y-89916000D01*
X151892000Y-92456000D02*
X152146000Y-92456000D01*
X152146000Y-92456000D02*
X153670000Y-93980000D01*
X153670000Y-93980000D02*
X160655000Y-93980000D01*
X149352000Y-91948000D02*
X153924000Y-96520000D01*
X141210000Y-86995000D02*
X141210000Y-90410000D01*
X142748000Y-91948000D02*
X149352000Y-91948000D01*
X141210000Y-90410000D02*
X142748000Y-91948000D01*
X153924000Y-96520000D02*
X160655000Y-96520000D01*
X190580000Y-80515000D02*
X190580000Y-78740000D01*
X187275000Y-83820000D02*
X190580000Y-80515000D01*
X175895000Y-83820000D02*
X187275000Y-83820000D01*
X180340000Y-99060000D02*
X177800000Y-101600000D01*
X190540000Y-88225000D02*
X189865000Y-88900000D01*
X177800000Y-101600000D02*
X175895000Y-101600000D01*
X180340000Y-90805000D02*
X180340000Y-99060000D01*
X190540000Y-86360000D02*
X190540000Y-88225000D01*
X189865000Y-88900000D02*
X182245000Y-88900000D01*
X182245000Y-88900000D02*
X180340000Y-90805000D01*
X176972630Y-99060000D02*
X178435000Y-97597630D01*
X175895000Y-99060000D02*
X176972630Y-99060000D01*
X178435000Y-97597630D02*
X178435000Y-89535000D01*
X181610000Y-86360000D02*
X188040000Y-86360000D01*
X178435000Y-89535000D02*
X181610000Y-86360000D01*
D23*
X131085000Y-110845000D02*
X138734200Y-110845000D01*
X141316010Y-113426810D02*
X141417610Y-113426810D01*
X138734200Y-110845000D02*
X141316010Y-113426810D01*
X141417610Y-113426810D02*
X141528800Y-113538000D01*
X148590000Y-112100000D02*
X148590000Y-111125000D01*
X147152000Y-113538000D02*
X148590000Y-112100000D01*
X141528800Y-113538000D02*
X147152000Y-113538000D01*
X131085000Y-110195000D02*
X139455800Y-110195000D01*
X139455800Y-110195000D02*
X142087600Y-112826800D01*
X146090000Y-112500000D02*
X146090000Y-111125000D01*
X145763200Y-112826800D02*
X146090000Y-112500000D01*
X142087600Y-112826800D02*
X145763200Y-112826800D01*
X143590000Y-109750000D02*
X143590000Y-111125000D01*
X143385000Y-109545000D02*
X143590000Y-109750000D01*
X131085000Y-109545000D02*
X143385000Y-109545000D01*
D22*
X165100000Y-130175000D02*
X172085000Y-137160000D01*
X165100000Y-127000000D02*
X165100000Y-130175000D01*
X136525000Y-139065000D02*
X136525000Y-136525000D01*
X136525000Y-136525000D02*
X137160000Y-135890000D01*
X137160000Y-135890000D02*
X138430000Y-135890000D01*
X139225000Y-135095000D02*
X139225000Y-127635000D01*
X138430000Y-135890000D02*
X139225000Y-135095000D01*
X142240000Y-128150000D02*
X141725000Y-127635000D01*
X142240000Y-139065000D02*
X142240000Y-128150000D01*
X145875000Y-129410000D02*
X144225000Y-127760000D01*
X146000000Y-129410000D02*
X145875000Y-129410000D01*
X148420000Y-131830000D02*
X146000000Y-129410000D01*
X144225000Y-127760000D02*
X144225000Y-127635000D01*
X148420000Y-139065000D02*
X148420000Y-131830000D01*
X148375000Y-129410000D02*
X146725000Y-127760000D01*
X146725000Y-127760000D02*
X146725000Y-127635000D01*
X148500000Y-129410000D02*
X148375000Y-129410000D01*
X154305000Y-135215000D02*
X148500000Y-129410000D01*
X154305000Y-139065000D02*
X154305000Y-135215000D01*
X151635000Y-127635000D02*
X149225000Y-127635000D01*
X160655000Y-137795000D02*
X157480000Y-134620000D01*
X160655000Y-139065000D02*
X160655000Y-137795000D01*
X157480000Y-134620000D02*
X151635000Y-127635000D01*
X166975000Y-127000000D02*
X171782500Y-127000000D01*
X171782500Y-95552500D02*
X175895000Y-91440000D01*
X171782500Y-127000000D02*
X171782500Y-95552500D01*
D23*
X131085000Y-111495000D02*
X137809400Y-111495000D01*
X137809400Y-111495000D02*
X142849600Y-116535200D01*
X148590000Y-117745000D02*
X148590000Y-118745000D01*
X147380200Y-116535200D02*
X148590000Y-117745000D01*
X142849600Y-116535200D02*
X147380200Y-116535200D01*
X124185000Y-108895000D02*
X123314998Y-108895000D01*
D24*
X123314998Y-108895000D02*
X122357000Y-108895000D01*
X122357000Y-108895000D02*
X122174000Y-108712000D01*
X129540000Y-96250000D02*
X129540000Y-95250000D01*
X122174000Y-103616000D02*
X129540000Y-96250000D01*
X122174000Y-108712000D02*
X122174000Y-103616000D01*
D23*
X127725000Y-132435000D02*
X129540000Y-134250000D01*
X126725000Y-132435000D02*
X127725000Y-132435000D01*
X129540000Y-134250000D02*
X129540000Y-136525000D01*
X131130000Y-138115000D02*
X134325000Y-138115000D01*
X129540000Y-136525000D02*
X131130000Y-138115000D01*
X133625000Y-133685000D02*
X135098000Y-135158000D01*
X133625000Y-133085000D02*
X133625000Y-133685000D01*
X135098000Y-135158000D02*
X135322000Y-135382000D01*
X139847000Y-137922000D02*
X140040000Y-138115000D01*
X137668000Y-137922000D02*
X139847000Y-137922000D01*
X133625000Y-132435000D02*
X135991000Y-132435000D01*
X135991000Y-132435000D02*
X137414000Y-133858000D01*
X137414000Y-133858000D02*
X137414000Y-133858000D01*
X146159000Y-138176000D02*
X146220000Y-138115000D01*
X144018000Y-138176000D02*
X146159000Y-138176000D01*
X133625000Y-131785000D02*
X136611000Y-131785000D01*
X136611000Y-131785000D02*
X136865000Y-131785000D01*
X136865000Y-131785000D02*
X137414000Y-132334000D01*
X137414000Y-132334000D02*
X137414000Y-132334000D01*
X152044000Y-138176000D02*
X152105000Y-138115000D01*
X150114000Y-138176000D02*
X152044000Y-138176000D01*
X133625000Y-131135000D02*
X137089000Y-131135000D01*
X137089000Y-131135000D02*
X137851000Y-131135000D01*
X137851000Y-131135000D02*
X137851000Y-131135000D01*
X158262000Y-137922000D02*
X158455000Y-138115000D01*
X155702000Y-137922000D02*
X158262000Y-137922000D01*
X132080000Y-122260000D02*
X132080000Y-121285000D01*
X127725000Y-130485000D02*
X132080000Y-126130000D01*
X132080000Y-126130000D02*
X132080000Y-122260000D01*
X126725000Y-130485000D02*
X127725000Y-130485000D01*
X125725000Y-131135000D02*
X125654000Y-131064000D01*
X126725000Y-131135000D02*
X125725000Y-131135000D01*
X125654000Y-130988000D02*
X124460000Y-129794000D01*
X125654000Y-131064000D02*
X125654000Y-130988000D01*
X129580000Y-122660000D02*
X129580000Y-121285000D01*
X124460000Y-127780000D02*
X129580000Y-122660000D01*
X124460000Y-129794000D02*
X124460000Y-127780000D01*
X126725000Y-131785000D02*
X124165000Y-131785000D01*
X124165000Y-131785000D02*
X123698000Y-131318000D01*
X125830000Y-121285000D02*
X127080000Y-121285000D01*
X123698000Y-123417000D02*
X125830000Y-121285000D01*
X123698000Y-131318000D02*
X123698000Y-123417000D01*
D22*
X164084000Y-105029000D02*
X160655000Y-101600000D01*
X164084000Y-117348000D02*
X164084000Y-105029000D01*
X160020000Y-128524000D02*
X160020000Y-121412000D01*
X160020000Y-121412000D02*
X164084000Y-117348000D01*
M02*
