M48
; DRILL file {KiCad 5.1.5} date mar. 10 mars 2020 21:22:14
; FORMAT={-:-/ absolute / inch / decimal}
; #@! TF.CreationDate,2020-03-10T21:22:14+01:00
; #@! TF.GenerationSoftware,Kicad,Pcbnew,5.1.5
; #@! TF.FileFunction,Plated,1,2,PTH
FMAT,2
INCH
T1C0.0157
T2C0.0300
T3C0.0315
T4C0.0374
T5C0.0394
T6C0.0512
%
G90
G05
T1
X5.138Y-3.162
X5.24Y-4.075
X5.33Y-4.55
X5.33Y-5.33
X5.38Y-3.98
X5.3807Y-4.8807
X5.389Y-4.236
X5.39Y-4.55
X5.41Y-5.21
X5.41Y-5.27
X5.42Y-5.43
X5.4272Y-5.1628
X5.466Y-4.234
X5.466Y-4.234
X5.5Y-4.85
X5.67Y-5.44
X5.91Y-5.44
X6.13Y-5.43
T2
X6.325Y-3.0
X6.325Y-3.1
X6.325Y-3.2
X6.325Y-3.3
X6.325Y-3.4
X6.325Y-3.5
X6.325Y-3.6
X6.325Y-3.7
X6.325Y-3.8
X6.325Y-3.9
X6.325Y-4.0
X6.325Y-4.1
X6.325Y-4.2
X6.325Y-4.3
X6.325Y-4.4
X6.925Y-3.0
X6.925Y-3.1
X6.925Y-3.2
X6.925Y-3.3
X6.925Y-3.4
X6.925Y-3.5
X6.925Y-3.6
X6.925Y-3.7
X6.925Y-3.8
X6.925Y-3.9
X6.925Y-4.0
X6.925Y-4.1
X6.925Y-4.2
X6.925Y-4.3
X6.925Y-4.4
T3
X5.4Y-4.16
T4
X5.6531Y-4.375
X5.7516Y-4.375
X5.85Y-4.375
X5.5594Y-4.075
X5.6579Y-4.075
X5.7563Y-4.075
X5.8547Y-4.075
X7.4047Y-3.1
X7.5031Y-3.1
X7.6016Y-3.1
X7.7Y-3.1
X5.5594Y-2.825
X5.6579Y-2.825
X5.7563Y-2.825
X5.8547Y-2.825
X5.5594Y-3.425
X5.6579Y-3.425
X5.7563Y-3.425
X5.8547Y-3.425
X5.4813Y-5.025
X5.5797Y-5.025
X5.6781Y-5.025
X5.7766Y-5.025
X5.875Y-5.025
X7.4081Y-2.795
X7.5066Y-2.795
X7.605Y-2.795
X7.4281Y-5.45
X7.5266Y-5.45
X7.625Y-5.45
X7.7234Y-5.45
X5.5547Y-3.725
X5.6531Y-3.725
X5.7516Y-3.725
X5.85Y-3.725
X5.5531Y-3.125
X5.6516Y-3.125
X5.75Y-3.125
X7.4031Y-3.4
X7.5016Y-3.4
X7.6Y-3.4
X7.6984Y-3.4
X5.0031Y-4.775
X5.1016Y-4.775
X5.2Y-4.775
T5
X5.0016Y-3.75
X5.1Y-3.75
X7.2457Y-3.6224
X7.2457Y-5.1776
X7.9543Y-3.6224
X7.9543Y-5.1776
X5.7516Y-4.675
X5.85Y-4.675
X6.2016Y-5.06
X6.3Y-5.06
T6
X6.6372Y-5.4
X6.775Y-5.4
T0
M30
