G04 #@! TF.GenerationSoftware,KiCad,Pcbnew,(6.0.1)*
G04 #@! TF.CreationDate,2022-02-07T00:01:01+01:00*
G04 #@! TF.ProjectId,CartePrincipaleR1,43617274-6550-4726-996e-636970616c65,rev?*
G04 #@! TF.SameCoordinates,Original*
G04 #@! TF.FileFunction,Copper,L1,Top*
G04 #@! TF.FilePolarity,Positive*
%FSLAX46Y46*%
G04 Gerber Fmt 4.6, Leading zero omitted, Abs format (unit mm)*
G04 Created by KiCad (PCBNEW (6.0.1)) date 2022-02-07 00:01:01*
%MOMM*%
%LPD*%
G01*
G04 APERTURE LIST*
G04 Aperture macros list*
%AMRoundRect*
0 Rectangle with rounded corners*
0 $1 Rounding radius*
0 $2 $3 $4 $5 $6 $7 $8 $9 X,Y pos of 4 corners*
0 Add a 4 corners polygon primitive as box body*
4,1,4,$2,$3,$4,$5,$6,$7,$8,$9,$2,$3,0*
0 Add four circle primitives for the rounded corners*
1,1,$1+$1,$2,$3*
1,1,$1+$1,$4,$5*
1,1,$1+$1,$6,$7*
1,1,$1+$1,$8,$9*
0 Add four rect primitives between the rounded corners*
20,1,$1+$1,$2,$3,$4,$5,0*
20,1,$1+$1,$4,$5,$6,$7,0*
20,1,$1+$1,$6,$7,$8,$9,0*
20,1,$1+$1,$8,$9,$2,$3,0*%
G04 Aperture macros list end*
%ADD10C,0.300000*%
G04 #@! TA.AperFunction,NonConductor*
%ADD11C,0.300000*%
G04 #@! TD*
G04 #@! TA.AperFunction,NonConductor*
%ADD12C,0.200000*%
G04 #@! TD*
G04 #@! TA.AperFunction,SMDPad,CuDef*
%ADD13RoundRect,0.250000X0.450000X-0.262500X0.450000X0.262500X-0.450000X0.262500X-0.450000X-0.262500X0*%
G04 #@! TD*
G04 #@! TA.AperFunction,ComponentPad*
%ADD14C,1.524000*%
G04 #@! TD*
G04 #@! TA.AperFunction,SMDPad,CuDef*
%ADD15RoundRect,0.250000X-0.250000X-0.475000X0.250000X-0.475000X0.250000X0.475000X-0.250000X0.475000X0*%
G04 #@! TD*
G04 #@! TA.AperFunction,SMDPad,CuDef*
%ADD16R,2.000000X1.500000*%
G04 #@! TD*
G04 #@! TA.AperFunction,SMDPad,CuDef*
%ADD17R,2.000000X3.800000*%
G04 #@! TD*
G04 #@! TA.AperFunction,SMDPad,CuDef*
%ADD18RoundRect,0.250000X0.262500X0.450000X-0.262500X0.450000X-0.262500X-0.450000X0.262500X-0.450000X0*%
G04 #@! TD*
G04 #@! TA.AperFunction,ComponentPad*
%ADD19R,1.530000X1.530000*%
G04 #@! TD*
G04 #@! TA.AperFunction,ComponentPad*
%ADD20C,1.530000*%
G04 #@! TD*
G04 #@! TA.AperFunction,SMDPad,CuDef*
%ADD21RoundRect,0.250000X-0.450000X0.262500X-0.450000X-0.262500X0.450000X-0.262500X0.450000X0.262500X0*%
G04 #@! TD*
G04 #@! TA.AperFunction,ComponentPad*
%ADD22RoundRect,0.250000X-0.600000X0.600000X-0.600000X-0.600000X0.600000X-0.600000X0.600000X0.600000X0*%
G04 #@! TD*
G04 #@! TA.AperFunction,ComponentPad*
%ADD23C,1.700000*%
G04 #@! TD*
G04 #@! TA.AperFunction,ComponentPad*
%ADD24RoundRect,0.250000X-0.600000X-0.600000X0.600000X-0.600000X0.600000X0.600000X-0.600000X0.600000X0*%
G04 #@! TD*
G04 #@! TA.AperFunction,ViaPad*
%ADD25C,0.700000*%
G04 #@! TD*
G04 #@! TA.AperFunction,ViaPad*
%ADD26C,0.800000*%
G04 #@! TD*
G04 #@! TA.AperFunction,Conductor*
%ADD27C,1.000000*%
G04 #@! TD*
G04 #@! TA.AperFunction,Conductor*
%ADD28C,0.800000*%
G04 #@! TD*
G04 #@! TA.AperFunction,Conductor*
%ADD29C,0.600000*%
G04 #@! TD*
G04 #@! TA.AperFunction,Conductor*
%ADD30C,0.400000*%
G04 #@! TD*
G04 #@! TA.AperFunction,Conductor*
%ADD31C,0.300000*%
G04 #@! TD*
G04 APERTURE END LIST*
D10*
D11*
X163021428Y-91642857D02*
X162950000Y-91785714D01*
X162878571Y-91857142D01*
X162735714Y-91928571D01*
X162664285Y-91928571D01*
X162521428Y-91857142D01*
X162450000Y-91785714D01*
X162378571Y-91642857D01*
X162378571Y-91357142D01*
X162450000Y-91214285D01*
X162521428Y-91142857D01*
X162664285Y-91071428D01*
X162735714Y-91071428D01*
X162878571Y-91142857D01*
X162950000Y-91214285D01*
X163021428Y-91357142D01*
X163021428Y-91642857D01*
X163092857Y-91785714D01*
X163164285Y-91857142D01*
X163307142Y-91928571D01*
X163592857Y-91928571D01*
X163735714Y-91857142D01*
X163807142Y-91785714D01*
X163878571Y-91642857D01*
X163878571Y-91357142D01*
X163807142Y-91214285D01*
X163735714Y-91142857D01*
X163592857Y-91071428D01*
X163307142Y-91071428D01*
X163164285Y-91142857D01*
X163092857Y-91214285D01*
X163021428Y-91357142D01*
X163021428Y-90214285D02*
X162950000Y-90357142D01*
X162878571Y-90428571D01*
X162735714Y-90500000D01*
X162664285Y-90500000D01*
X162521428Y-90428571D01*
X162450000Y-90357142D01*
X162378571Y-90214285D01*
X162378571Y-89928571D01*
X162450000Y-89785714D01*
X162521428Y-89714285D01*
X162664285Y-89642857D01*
X162735714Y-89642857D01*
X162878571Y-89714285D01*
X162950000Y-89785714D01*
X163021428Y-89928571D01*
X163021428Y-90214285D01*
X163092857Y-90357142D01*
X163164285Y-90428571D01*
X163307142Y-90500000D01*
X163592857Y-90500000D01*
X163735714Y-90428571D01*
X163807142Y-90357142D01*
X163878571Y-90214285D01*
X163878571Y-89928571D01*
X163807142Y-89785714D01*
X163735714Y-89714285D01*
X163592857Y-89642857D01*
X163307142Y-89642857D01*
X163164285Y-89714285D01*
X163092857Y-89785714D01*
X163021428Y-89928571D01*
X163807142Y-88928571D02*
X163878571Y-88928571D01*
X164021428Y-89000000D01*
X164092857Y-89071428D01*
X162378571Y-88000000D02*
X162378571Y-87857142D01*
X162450000Y-87714285D01*
X162521428Y-87642857D01*
X162664285Y-87571428D01*
X162950000Y-87500000D01*
X163307142Y-87500000D01*
X163592857Y-87571428D01*
X163735714Y-87642857D01*
X163807142Y-87714285D01*
X163878571Y-87857142D01*
X163878571Y-88000000D01*
X163807142Y-88142857D01*
X163735714Y-88214285D01*
X163592857Y-88285714D01*
X163307142Y-88357142D01*
X162950000Y-88357142D01*
X162664285Y-88285714D01*
X162521428Y-88214285D01*
X162450000Y-88142857D01*
X162378571Y-88000000D01*
X162378571Y-86571428D02*
X162378571Y-86428571D01*
X162450000Y-86285714D01*
X162521428Y-86214285D01*
X162664285Y-86142857D01*
X162950000Y-86071428D01*
X163307142Y-86071428D01*
X163592857Y-86142857D01*
X163735714Y-86214285D01*
X163807142Y-86285714D01*
X163878571Y-86428571D01*
X163878571Y-86571428D01*
X163807142Y-86714285D01*
X163735714Y-86785714D01*
X163592857Y-86857142D01*
X163307142Y-86928571D01*
X162950000Y-86928571D01*
X162664285Y-86857142D01*
X162521428Y-86785714D01*
X162450000Y-86714285D01*
X162378571Y-86571428D01*
X162378571Y-85142857D02*
X162378571Y-85000000D01*
X162450000Y-84857142D01*
X162521428Y-84785714D01*
X162664285Y-84714285D01*
X162950000Y-84642857D01*
X163307142Y-84642857D01*
X163592857Y-84714285D01*
X163735714Y-84785714D01*
X163807142Y-84857142D01*
X163878571Y-85000000D01*
X163878571Y-85142857D01*
X163807142Y-85285714D01*
X163735714Y-85357142D01*
X163592857Y-85428571D01*
X163307142Y-85500000D01*
X162950000Y-85500000D01*
X162664285Y-85428571D01*
X162521428Y-85357142D01*
X162450000Y-85285714D01*
X162378571Y-85142857D01*
X162378571Y-83714285D02*
X162378571Y-83571428D01*
X162450000Y-83428571D01*
X162521428Y-83357142D01*
X162664285Y-83285714D01*
X162950000Y-83214285D01*
X163307142Y-83214285D01*
X163592857Y-83285714D01*
X163735714Y-83357142D01*
X163807142Y-83428571D01*
X163878571Y-83571428D01*
X163878571Y-83714285D01*
X163807142Y-83857142D01*
X163735714Y-83928571D01*
X163592857Y-84000000D01*
X163307142Y-84071428D01*
X162950000Y-84071428D01*
X162664285Y-84000000D01*
X162521428Y-83928571D01*
X162450000Y-83857142D01*
X162378571Y-83714285D01*
X163878571Y-81428571D02*
X162878571Y-81428571D01*
X163021428Y-81428571D02*
X162950000Y-81357142D01*
X162878571Y-81214285D01*
X162878571Y-81000000D01*
X162950000Y-80857142D01*
X163092857Y-80785714D01*
X163878571Y-80785714D01*
X163092857Y-80785714D02*
X162950000Y-80714285D01*
X162878571Y-80571428D01*
X162878571Y-80357142D01*
X162950000Y-80214285D01*
X163092857Y-80142857D01*
X163878571Y-80142857D01*
X163878571Y-79428571D02*
X162878571Y-79428571D01*
X163021428Y-79428571D02*
X162950000Y-79357142D01*
X162878571Y-79214285D01*
X162878571Y-79000000D01*
X162950000Y-78857142D01*
X163092857Y-78785714D01*
X163878571Y-78785714D01*
X163092857Y-78785714D02*
X162950000Y-78714285D01*
X162878571Y-78571428D01*
X162878571Y-78357142D01*
X162950000Y-78214285D01*
X163092857Y-78142857D01*
X163878571Y-78142857D01*
D12*
X145500000Y-129000000D02*
X165586420Y-129000000D01*
X145500000Y-41000000D02*
X165586420Y-41000000D01*
X165000000Y-129000000D02*
X165000000Y-41000000D01*
X165000000Y-129000000D02*
X165000000Y-41000000D01*
X165000000Y-129000000D02*
X165586421Y-127873496D01*
X165000000Y-129000000D02*
X164413579Y-127873496D01*
X165000000Y-41000000D02*
X164413579Y-42126504D01*
X165000000Y-41000000D02*
X165586421Y-42126504D01*
D10*
D11*
X171878571Y-91785714D02*
X171878571Y-92642857D01*
X171878571Y-92214285D02*
X170378571Y-92214285D01*
X170592857Y-92357142D01*
X170735714Y-92500000D01*
X170807142Y-92642857D01*
X170378571Y-90857142D02*
X170378571Y-90714285D01*
X170450000Y-90571428D01*
X170521428Y-90500000D01*
X170664285Y-90428571D01*
X170950000Y-90357142D01*
X171307142Y-90357142D01*
X171592857Y-90428571D01*
X171735714Y-90500000D01*
X171807142Y-90571428D01*
X171878571Y-90714285D01*
X171878571Y-90857142D01*
X171807142Y-91000000D01*
X171735714Y-91071428D01*
X171592857Y-91142857D01*
X171307142Y-91214285D01*
X170950000Y-91214285D01*
X170664285Y-91142857D01*
X170521428Y-91071428D01*
X170450000Y-91000000D01*
X170378571Y-90857142D01*
X170378571Y-89428571D02*
X170378571Y-89285714D01*
X170450000Y-89142857D01*
X170521428Y-89071428D01*
X170664285Y-89000000D01*
X170950000Y-88928571D01*
X171307142Y-88928571D01*
X171592857Y-89000000D01*
X171735714Y-89071428D01*
X171807142Y-89142857D01*
X171878571Y-89285714D01*
X171878571Y-89428571D01*
X171807142Y-89571428D01*
X171735714Y-89642857D01*
X171592857Y-89714285D01*
X171307142Y-89785714D01*
X170950000Y-89785714D01*
X170664285Y-89714285D01*
X170521428Y-89642857D01*
X170450000Y-89571428D01*
X170378571Y-89428571D01*
X171807142Y-88214285D02*
X171878571Y-88214285D01*
X172021428Y-88285714D01*
X172092857Y-88357142D01*
X170378571Y-87285714D02*
X170378571Y-87142857D01*
X170450000Y-87000000D01*
X170521428Y-86928571D01*
X170664285Y-86857142D01*
X170950000Y-86785714D01*
X171307142Y-86785714D01*
X171592857Y-86857142D01*
X171735714Y-86928571D01*
X171807142Y-87000000D01*
X171878571Y-87142857D01*
X171878571Y-87285714D01*
X171807142Y-87428571D01*
X171735714Y-87500000D01*
X171592857Y-87571428D01*
X171307142Y-87642857D01*
X170950000Y-87642857D01*
X170664285Y-87571428D01*
X170521428Y-87500000D01*
X170450000Y-87428571D01*
X170378571Y-87285714D01*
X170378571Y-85857142D02*
X170378571Y-85714285D01*
X170450000Y-85571428D01*
X170521428Y-85500000D01*
X170664285Y-85428571D01*
X170950000Y-85357142D01*
X171307142Y-85357142D01*
X171592857Y-85428571D01*
X171735714Y-85500000D01*
X171807142Y-85571428D01*
X171878571Y-85714285D01*
X171878571Y-85857142D01*
X171807142Y-86000000D01*
X171735714Y-86071428D01*
X171592857Y-86142857D01*
X171307142Y-86214285D01*
X170950000Y-86214285D01*
X170664285Y-86142857D01*
X170521428Y-86071428D01*
X170450000Y-86000000D01*
X170378571Y-85857142D01*
X170378571Y-84428571D02*
X170378571Y-84285714D01*
X170450000Y-84142857D01*
X170521428Y-84071428D01*
X170664285Y-84000000D01*
X170950000Y-83928571D01*
X171307142Y-83928571D01*
X171592857Y-84000000D01*
X171735714Y-84071428D01*
X171807142Y-84142857D01*
X171878571Y-84285714D01*
X171878571Y-84428571D01*
X171807142Y-84571428D01*
X171735714Y-84642857D01*
X171592857Y-84714285D01*
X171307142Y-84785714D01*
X170950000Y-84785714D01*
X170664285Y-84714285D01*
X170521428Y-84642857D01*
X170450000Y-84571428D01*
X170378571Y-84428571D01*
X170378571Y-83000000D02*
X170378571Y-82857142D01*
X170450000Y-82714285D01*
X170521428Y-82642857D01*
X170664285Y-82571428D01*
X170950000Y-82500000D01*
X171307142Y-82500000D01*
X171592857Y-82571428D01*
X171735714Y-82642857D01*
X171807142Y-82714285D01*
X171878571Y-82857142D01*
X171878571Y-83000000D01*
X171807142Y-83142857D01*
X171735714Y-83214285D01*
X171592857Y-83285714D01*
X171307142Y-83357142D01*
X170950000Y-83357142D01*
X170664285Y-83285714D01*
X170521428Y-83214285D01*
X170450000Y-83142857D01*
X170378571Y-83000000D01*
X171878571Y-80714285D02*
X170878571Y-80714285D01*
X171021428Y-80714285D02*
X170950000Y-80642857D01*
X170878571Y-80500000D01*
X170878571Y-80285714D01*
X170950000Y-80142857D01*
X171092857Y-80071428D01*
X171878571Y-80071428D01*
X171092857Y-80071428D02*
X170950000Y-80000000D01*
X170878571Y-79857142D01*
X170878571Y-79642857D01*
X170950000Y-79500000D01*
X171092857Y-79428571D01*
X171878571Y-79428571D01*
X171878571Y-78714285D02*
X170878571Y-78714285D01*
X171021428Y-78714285D02*
X170950000Y-78642857D01*
X170878571Y-78500000D01*
X170878571Y-78285714D01*
X170950000Y-78142857D01*
X171092857Y-78071428D01*
X171878571Y-78071428D01*
X171092857Y-78071428D02*
X170950000Y-78000000D01*
X170878571Y-77857142D01*
X170878571Y-77642857D01*
X170950000Y-77500000D01*
X171092857Y-77428571D01*
X171878571Y-77428571D01*
D12*
X155500000Y-135000000D02*
X173586420Y-135000000D01*
X155500000Y-35000000D02*
X173586420Y-35000000D01*
X173000000Y-135000000D02*
X173000000Y-35000000D01*
X173000000Y-135000000D02*
X173000000Y-35000000D01*
X173000000Y-135000000D02*
X173586421Y-133873496D01*
X173000000Y-135000000D02*
X172413579Y-133873496D01*
X173000000Y-35000000D02*
X172413579Y-36126504D01*
X173000000Y-35000000D02*
X173586421Y-36126504D01*
D10*
D11*
X98214285Y-141878571D02*
X97357142Y-141878571D01*
X97785714Y-141878571D02*
X97785714Y-140378571D01*
X97642857Y-140592857D01*
X97500000Y-140735714D01*
X97357142Y-140807142D01*
X99142857Y-140378571D02*
X99285714Y-140378571D01*
X99428571Y-140450000D01*
X99500000Y-140521428D01*
X99571428Y-140664285D01*
X99642857Y-140950000D01*
X99642857Y-141307142D01*
X99571428Y-141592857D01*
X99500000Y-141735714D01*
X99428571Y-141807142D01*
X99285714Y-141878571D01*
X99142857Y-141878571D01*
X99000000Y-141807142D01*
X98928571Y-141735714D01*
X98857142Y-141592857D01*
X98785714Y-141307142D01*
X98785714Y-140950000D01*
X98857142Y-140664285D01*
X98928571Y-140521428D01*
X99000000Y-140450000D01*
X99142857Y-140378571D01*
X100571428Y-140378571D02*
X100714285Y-140378571D01*
X100857142Y-140450000D01*
X100928571Y-140521428D01*
X101000000Y-140664285D01*
X101071428Y-140950000D01*
X101071428Y-141307142D01*
X101000000Y-141592857D01*
X100928571Y-141735714D01*
X100857142Y-141807142D01*
X100714285Y-141878571D01*
X100571428Y-141878571D01*
X100428571Y-141807142D01*
X100357142Y-141735714D01*
X100285714Y-141592857D01*
X100214285Y-141307142D01*
X100214285Y-140950000D01*
X100285714Y-140664285D01*
X100357142Y-140521428D01*
X100428571Y-140450000D01*
X100571428Y-140378571D01*
X101785714Y-141807142D02*
X101785714Y-141878571D01*
X101714285Y-142021428D01*
X101642857Y-142092857D01*
X102714285Y-140378571D02*
X102857142Y-140378571D01*
X103000000Y-140450000D01*
X103071428Y-140521428D01*
X103142857Y-140664285D01*
X103214285Y-140950000D01*
X103214285Y-141307142D01*
X103142857Y-141592857D01*
X103071428Y-141735714D01*
X103000000Y-141807142D01*
X102857142Y-141878571D01*
X102714285Y-141878571D01*
X102571428Y-141807142D01*
X102500000Y-141735714D01*
X102428571Y-141592857D01*
X102357142Y-141307142D01*
X102357142Y-140950000D01*
X102428571Y-140664285D01*
X102500000Y-140521428D01*
X102571428Y-140450000D01*
X102714285Y-140378571D01*
X104142857Y-140378571D02*
X104285714Y-140378571D01*
X104428571Y-140450000D01*
X104500000Y-140521428D01*
X104571428Y-140664285D01*
X104642857Y-140950000D01*
X104642857Y-141307142D01*
X104571428Y-141592857D01*
X104500000Y-141735714D01*
X104428571Y-141807142D01*
X104285714Y-141878571D01*
X104142857Y-141878571D01*
X104000000Y-141807142D01*
X103928571Y-141735714D01*
X103857142Y-141592857D01*
X103785714Y-141307142D01*
X103785714Y-140950000D01*
X103857142Y-140664285D01*
X103928571Y-140521428D01*
X104000000Y-140450000D01*
X104142857Y-140378571D01*
X105571428Y-140378571D02*
X105714285Y-140378571D01*
X105857142Y-140450000D01*
X105928571Y-140521428D01*
X106000000Y-140664285D01*
X106071428Y-140950000D01*
X106071428Y-141307142D01*
X106000000Y-141592857D01*
X105928571Y-141735714D01*
X105857142Y-141807142D01*
X105714285Y-141878571D01*
X105571428Y-141878571D01*
X105428571Y-141807142D01*
X105357142Y-141735714D01*
X105285714Y-141592857D01*
X105214285Y-141307142D01*
X105214285Y-140950000D01*
X105285714Y-140664285D01*
X105357142Y-140521428D01*
X105428571Y-140450000D01*
X105571428Y-140378571D01*
X107000000Y-140378571D02*
X107142857Y-140378571D01*
X107285714Y-140450000D01*
X107357142Y-140521428D01*
X107428571Y-140664285D01*
X107500000Y-140950000D01*
X107500000Y-141307142D01*
X107428571Y-141592857D01*
X107357142Y-141735714D01*
X107285714Y-141807142D01*
X107142857Y-141878571D01*
X107000000Y-141878571D01*
X106857142Y-141807142D01*
X106785714Y-141735714D01*
X106714285Y-141592857D01*
X106642857Y-141307142D01*
X106642857Y-140950000D01*
X106714285Y-140664285D01*
X106785714Y-140521428D01*
X106857142Y-140450000D01*
X107000000Y-140378571D01*
X109285714Y-141878571D02*
X109285714Y-140878571D01*
X109285714Y-141021428D02*
X109357142Y-140950000D01*
X109500000Y-140878571D01*
X109714285Y-140878571D01*
X109857142Y-140950000D01*
X109928571Y-141092857D01*
X109928571Y-141878571D01*
X109928571Y-141092857D02*
X110000000Y-140950000D01*
X110142857Y-140878571D01*
X110357142Y-140878571D01*
X110500000Y-140950000D01*
X110571428Y-141092857D01*
X110571428Y-141878571D01*
X111285714Y-141878571D02*
X111285714Y-140878571D01*
X111285714Y-141021428D02*
X111357142Y-140950000D01*
X111500000Y-140878571D01*
X111714285Y-140878571D01*
X111857142Y-140950000D01*
X111928571Y-141092857D01*
X111928571Y-141878571D01*
X111928571Y-141092857D02*
X112000000Y-140950000D01*
X112142857Y-140878571D01*
X112357142Y-140878571D01*
X112500000Y-140950000D01*
X112571428Y-141092857D01*
X112571428Y-141878571D01*
D12*
X155000000Y-135500000D02*
X155000000Y-143586420D01*
X55000000Y-135500000D02*
X55000000Y-143586420D01*
X155000000Y-143000000D02*
X55000000Y-143000000D01*
X155000000Y-143000000D02*
X55000000Y-143000000D01*
X155000000Y-143000000D02*
X153873496Y-142413579D01*
X155000000Y-143000000D02*
X153873496Y-143586421D01*
X55000000Y-143000000D02*
X56126504Y-143586421D01*
X55000000Y-143000000D02*
X56126504Y-142413579D01*
D10*
D11*
X97357142Y-138021428D02*
X97214285Y-137950000D01*
X97142857Y-137878571D01*
X97071428Y-137735714D01*
X97071428Y-137664285D01*
X97142857Y-137521428D01*
X97214285Y-137450000D01*
X97357142Y-137378571D01*
X97642857Y-137378571D01*
X97785714Y-137450000D01*
X97857142Y-137521428D01*
X97928571Y-137664285D01*
X97928571Y-137735714D01*
X97857142Y-137878571D01*
X97785714Y-137950000D01*
X97642857Y-138021428D01*
X97357142Y-138021428D01*
X97214285Y-138092857D01*
X97142857Y-138164285D01*
X97071428Y-138307142D01*
X97071428Y-138592857D01*
X97142857Y-138735714D01*
X97214285Y-138807142D01*
X97357142Y-138878571D01*
X97642857Y-138878571D01*
X97785714Y-138807142D01*
X97857142Y-138735714D01*
X97928571Y-138592857D01*
X97928571Y-138307142D01*
X97857142Y-138164285D01*
X97785714Y-138092857D01*
X97642857Y-138021428D01*
X98500000Y-137521428D02*
X98571428Y-137450000D01*
X98714285Y-137378571D01*
X99071428Y-137378571D01*
X99214285Y-137450000D01*
X99285714Y-137521428D01*
X99357142Y-137664285D01*
X99357142Y-137807142D01*
X99285714Y-138021428D01*
X98428571Y-138878571D01*
X99357142Y-138878571D01*
X100071428Y-138807142D02*
X100071428Y-138878571D01*
X100000000Y-139021428D01*
X99928571Y-139092857D01*
X101000000Y-137378571D02*
X101142857Y-137378571D01*
X101285714Y-137450000D01*
X101357142Y-137521428D01*
X101428571Y-137664285D01*
X101500000Y-137950000D01*
X101500000Y-138307142D01*
X101428571Y-138592857D01*
X101357142Y-138735714D01*
X101285714Y-138807142D01*
X101142857Y-138878571D01*
X101000000Y-138878571D01*
X100857142Y-138807142D01*
X100785714Y-138735714D01*
X100714285Y-138592857D01*
X100642857Y-138307142D01*
X100642857Y-137950000D01*
X100714285Y-137664285D01*
X100785714Y-137521428D01*
X100857142Y-137450000D01*
X101000000Y-137378571D01*
X102428571Y-137378571D02*
X102571428Y-137378571D01*
X102714285Y-137450000D01*
X102785714Y-137521428D01*
X102857142Y-137664285D01*
X102928571Y-137950000D01*
X102928571Y-138307142D01*
X102857142Y-138592857D01*
X102785714Y-138735714D01*
X102714285Y-138807142D01*
X102571428Y-138878571D01*
X102428571Y-138878571D01*
X102285714Y-138807142D01*
X102214285Y-138735714D01*
X102142857Y-138592857D01*
X102071428Y-138307142D01*
X102071428Y-137950000D01*
X102142857Y-137664285D01*
X102214285Y-137521428D01*
X102285714Y-137450000D01*
X102428571Y-137378571D01*
X103857142Y-137378571D02*
X104000000Y-137378571D01*
X104142857Y-137450000D01*
X104214285Y-137521428D01*
X104285714Y-137664285D01*
X104357142Y-137950000D01*
X104357142Y-138307142D01*
X104285714Y-138592857D01*
X104214285Y-138735714D01*
X104142857Y-138807142D01*
X104000000Y-138878571D01*
X103857142Y-138878571D01*
X103714285Y-138807142D01*
X103642857Y-138735714D01*
X103571428Y-138592857D01*
X103500000Y-138307142D01*
X103500000Y-137950000D01*
X103571428Y-137664285D01*
X103642857Y-137521428D01*
X103714285Y-137450000D01*
X103857142Y-137378571D01*
X105285714Y-137378571D02*
X105428571Y-137378571D01*
X105571428Y-137450000D01*
X105642857Y-137521428D01*
X105714285Y-137664285D01*
X105785714Y-137950000D01*
X105785714Y-138307142D01*
X105714285Y-138592857D01*
X105642857Y-138735714D01*
X105571428Y-138807142D01*
X105428571Y-138878571D01*
X105285714Y-138878571D01*
X105142857Y-138807142D01*
X105071428Y-138735714D01*
X105000000Y-138592857D01*
X104928571Y-138307142D01*
X104928571Y-137950000D01*
X105000000Y-137664285D01*
X105071428Y-137521428D01*
X105142857Y-137450000D01*
X105285714Y-137378571D01*
X107571428Y-138878571D02*
X107571428Y-137878571D01*
X107571428Y-138021428D02*
X107642857Y-137950000D01*
X107785714Y-137878571D01*
X108000000Y-137878571D01*
X108142857Y-137950000D01*
X108214285Y-138092857D01*
X108214285Y-138878571D01*
X108214285Y-138092857D02*
X108285714Y-137950000D01*
X108428571Y-137878571D01*
X108642857Y-137878571D01*
X108785714Y-137950000D01*
X108857142Y-138092857D01*
X108857142Y-138878571D01*
X109571428Y-138878571D02*
X109571428Y-137878571D01*
X109571428Y-138021428D02*
X109642857Y-137950000D01*
X109785714Y-137878571D01*
X110000000Y-137878571D01*
X110142857Y-137950000D01*
X110214285Y-138092857D01*
X110214285Y-138878571D01*
X110214285Y-138092857D02*
X110285714Y-137950000D01*
X110428571Y-137878571D01*
X110642857Y-137878571D01*
X110785714Y-137950000D01*
X110857142Y-138092857D01*
X110857142Y-138878571D01*
D12*
X145000000Y-129500000D02*
X145000000Y-140586420D01*
X63000000Y-129500000D02*
X63000000Y-140586420D01*
X145000000Y-140000000D02*
X63000000Y-140000000D01*
X145000000Y-140000000D02*
X63000000Y-140000000D01*
X145000000Y-140000000D02*
X143873496Y-139413579D01*
X145000000Y-140000000D02*
X143873496Y-140586421D01*
X63000000Y-140000000D02*
X64126504Y-140586421D01*
X63000000Y-140000000D02*
X64126504Y-139413579D01*
D13*
X120300000Y-78425000D03*
X120300000Y-76600000D03*
D14*
X151110000Y-120500000D03*
X148570000Y-120500000D03*
X146030000Y-120500000D03*
X143490000Y-120500000D03*
D15*
X79600000Y-75400000D03*
X81500000Y-75400000D03*
D14*
X142190000Y-56200000D03*
X144730000Y-56200000D03*
X147270000Y-56200000D03*
X149810000Y-56200000D03*
X149810000Y-48000000D03*
X147270000Y-48000000D03*
X144730000Y-48000000D03*
X142190000Y-48000000D03*
D16*
X77350000Y-78800000D03*
X77350000Y-81100000D03*
D17*
X83650000Y-81100000D03*
D16*
X77350000Y-83400000D03*
D14*
X63000000Y-76810000D03*
X63000000Y-74270000D03*
X63000000Y-71730000D03*
X63000000Y-69190000D03*
X142700000Y-65900000D03*
X145240000Y-65900000D03*
X147780000Y-65900000D03*
X150320000Y-65900000D03*
D15*
X80050000Y-87100000D03*
X81950000Y-87100000D03*
D18*
X78012500Y-115400000D03*
X76187500Y-115400000D03*
D19*
X70350000Y-69690000D03*
D20*
X72890000Y-69690000D03*
X70350000Y-72230000D03*
X72890000Y-72230000D03*
X70350000Y-74770000D03*
X72890000Y-74770000D03*
X70350000Y-77310000D03*
X72890000Y-77310000D03*
X70350000Y-79850000D03*
X72890000Y-79850000D03*
X70350000Y-82390000D03*
X72890000Y-82390000D03*
X70350000Y-84930000D03*
X72890000Y-84930000D03*
X70350000Y-87470000D03*
X72890000Y-87470000D03*
X70350000Y-90010000D03*
X72890000Y-90010000D03*
X70350000Y-92550000D03*
X72890000Y-92550000D03*
X70350000Y-95090000D03*
X72890000Y-95090000D03*
X70350000Y-97630000D03*
X72890000Y-97630000D03*
X70350000Y-100170000D03*
X72890000Y-100170000D03*
X70350000Y-102710000D03*
X72890000Y-102710000D03*
X70350000Y-105250000D03*
X72890000Y-105250000D03*
X70350000Y-107790000D03*
X72890000Y-107790000D03*
X70350000Y-110330000D03*
X72890000Y-110330000D03*
X70350000Y-112870000D03*
X72890000Y-112870000D03*
X70350000Y-115410000D03*
X72890000Y-115410000D03*
D19*
X131310000Y-69690000D03*
D20*
X133850000Y-69690000D03*
X131310000Y-72230000D03*
X133850000Y-72230000D03*
X131310000Y-74770000D03*
X133850000Y-74770000D03*
X131310000Y-77310000D03*
X133850000Y-77310000D03*
X131310000Y-79850000D03*
X133850000Y-79850000D03*
X131310000Y-82390000D03*
X133850000Y-82390000D03*
X131310000Y-84930000D03*
X133850000Y-84930000D03*
X131310000Y-87470000D03*
X133850000Y-87470000D03*
X131310000Y-90010000D03*
X133850000Y-90010000D03*
X131310000Y-92550000D03*
X133850000Y-92550000D03*
X131310000Y-95090000D03*
X133850000Y-95090000D03*
X131310000Y-97630000D03*
X133850000Y-97630000D03*
X131310000Y-100170000D03*
X133850000Y-100170000D03*
X131310000Y-102710000D03*
X133850000Y-102710000D03*
X131310000Y-105250000D03*
X133850000Y-105250000D03*
X131310000Y-107790000D03*
X133850000Y-107790000D03*
X131310000Y-110330000D03*
X133850000Y-110330000D03*
X131310000Y-112870000D03*
X133850000Y-112870000D03*
X131310000Y-115410000D03*
X133850000Y-115410000D03*
D14*
X61300000Y-89230000D03*
X61300000Y-91770000D03*
X131000000Y-131010000D03*
X131000000Y-128470000D03*
X131000000Y-125930000D03*
X131000000Y-123390000D03*
X63470000Y-115100000D03*
X60930000Y-115100000D03*
D21*
X82500000Y-90887500D03*
X82500000Y-92712500D03*
D22*
X106600000Y-126600000D03*
D23*
X106600000Y-129140000D03*
X104060000Y-126600000D03*
X104060000Y-129140000D03*
X101520000Y-126600000D03*
X101520000Y-129140000D03*
X98980000Y-126600000D03*
X98980000Y-129140000D03*
X96440000Y-126600000D03*
X96440000Y-129140000D03*
X93900000Y-126600000D03*
X93900000Y-129140000D03*
X91360000Y-126600000D03*
X91360000Y-129140000D03*
X88820000Y-126600000D03*
X88820000Y-129140000D03*
D24*
X145600000Y-80200000D03*
D23*
X148140000Y-80200000D03*
X145600000Y-82740000D03*
X148140000Y-82740000D03*
X145600000Y-85280000D03*
X148140000Y-85280000D03*
X145600000Y-87820000D03*
X148140000Y-87820000D03*
X145600000Y-90360000D03*
X148140000Y-90360000D03*
X145600000Y-92900000D03*
X148140000Y-92900000D03*
X145600000Y-95440000D03*
X148140000Y-95440000D03*
X145600000Y-97980000D03*
X148140000Y-97980000D03*
D13*
X117500000Y-78425000D03*
X117500000Y-76600000D03*
D14*
X61832000Y-100490000D03*
X61832000Y-103030000D03*
X61832000Y-105570000D03*
X61832000Y-108110000D03*
X63670000Y-122300000D03*
X61130000Y-122300000D03*
D18*
X78000000Y-112000000D03*
X76175000Y-112000000D03*
D25*
X80200000Y-81100000D03*
X84850000Y-88650000D03*
X81450000Y-88650000D03*
D26*
X78900000Y-112900000D03*
D25*
X137650000Y-81300000D03*
X78650000Y-95850000D03*
X78750000Y-97300000D03*
X142700000Y-94200000D03*
X138650000Y-90150000D03*
X136300000Y-90150000D03*
X136800000Y-93800000D03*
X141350000Y-90100000D03*
X110900000Y-103000000D03*
X112200000Y-107900000D03*
X123400000Y-103100000D03*
X112900000Y-103100000D03*
X113400000Y-106700000D03*
X108200000Y-112700000D03*
X105300000Y-112700000D03*
X107900000Y-111300000D03*
X102600000Y-113700000D03*
X96600000Y-110700000D03*
X128000000Y-105350000D03*
X97700000Y-107700000D03*
X130000000Y-101500000D03*
X110750000Y-114600000D03*
X108400000Y-115600000D03*
X107400000Y-76800000D03*
X107400000Y-80100000D03*
X136600000Y-60400000D03*
X132100000Y-60400000D03*
X90250000Y-94600000D03*
X90700000Y-99350000D03*
X103500000Y-76800000D03*
X103500000Y-80000000D03*
D26*
X122700000Y-74200000D03*
X124400000Y-63200000D03*
D25*
X129000000Y-68700000D03*
D27*
X131000000Y-131010000D02*
X129310000Y-132700000D01*
X150320000Y-56710000D02*
X149810000Y-56200000D01*
X149810000Y-48000000D02*
X149810000Y-56200000D01*
D28*
X61832000Y-95832000D02*
X58700000Y-92700000D01*
D27*
X151210000Y-79670000D02*
X150320000Y-78780000D01*
D28*
X58700000Y-87600000D02*
X63000000Y-83300000D01*
X148400000Y-123210000D02*
X151110000Y-120500000D01*
D27*
X108000000Y-132700000D02*
X76300000Y-132700000D01*
X150320000Y-78780000D02*
X150320000Y-65900000D01*
X58600000Y-103722000D02*
X61832000Y-100490000D01*
X108000000Y-132700000D02*
X107420000Y-132700000D01*
D28*
X148140000Y-82740000D02*
X145600000Y-82740000D01*
X131000000Y-131010000D02*
X138710000Y-123300000D01*
X74300000Y-66500000D02*
X79600000Y-71800000D01*
D27*
X150320000Y-65900000D02*
X150320000Y-56710000D01*
D28*
X62310000Y-76810000D02*
X60600000Y-75100000D01*
X60600000Y-75100000D02*
X60600000Y-68300000D01*
X151210000Y-79670000D02*
X151110000Y-79770000D01*
D27*
X76300000Y-132700000D02*
X75950000Y-132350000D01*
D28*
X61832000Y-100490000D02*
X61832000Y-95832000D01*
D27*
X60200000Y-124700000D02*
X58600000Y-123100000D01*
D28*
X58700000Y-92700000D02*
X58700000Y-87600000D01*
X79600000Y-71800000D02*
X79600000Y-75400000D01*
X62400000Y-66500000D02*
X74300000Y-66500000D01*
X60600000Y-68300000D02*
X62400000Y-66500000D01*
D27*
X75950000Y-132350000D02*
X68300000Y-124700000D01*
X129310000Y-132700000D02*
X108000000Y-132700000D01*
D28*
X151210000Y-79670000D02*
X148140000Y-82740000D01*
X63000000Y-76810000D02*
X62310000Y-76810000D01*
D29*
X104060000Y-129340000D02*
X104060000Y-126800000D01*
D27*
X107420000Y-132700000D02*
X104060000Y-129340000D01*
D28*
X77350000Y-77650000D02*
X79600000Y-75400000D01*
X63000000Y-83300000D02*
X63000000Y-76810000D01*
D27*
X68300000Y-124700000D02*
X60200000Y-124700000D01*
D28*
X151110000Y-79770000D02*
X151110000Y-120500000D01*
X77350000Y-78800000D02*
X77350000Y-77650000D01*
X59011000Y-103311000D02*
X61832000Y-100490000D01*
D27*
X58600000Y-103722000D02*
X59011000Y-103311000D01*
X58600000Y-113500000D02*
X58600000Y-103722000D01*
D28*
X148400000Y-123300000D02*
X148400000Y-123210000D01*
D27*
X58600000Y-123100000D02*
X58600000Y-113500000D01*
D28*
X138710000Y-123300000D02*
X148400000Y-123300000D01*
X82500000Y-90887500D02*
X74552500Y-90887500D01*
X82500000Y-90887500D02*
X82500000Y-87650000D01*
X81950000Y-82800000D02*
X83650000Y-81100000D01*
X81950000Y-87100000D02*
X81950000Y-82800000D01*
X80200000Y-81100000D02*
X77350000Y-81100000D01*
X82500000Y-87650000D02*
X81950000Y-87100000D01*
X74552500Y-90887500D02*
X72890000Y-92550000D01*
X83650000Y-81100000D02*
X83650000Y-80950000D01*
X83650000Y-77550000D02*
X81500000Y-75400000D01*
X83650000Y-81100000D02*
X80200000Y-81100000D01*
X83650000Y-80950000D02*
X83650000Y-77550000D01*
D29*
X80050000Y-86100000D02*
X80050000Y-87100000D01*
D28*
X81450000Y-88650000D02*
X80050000Y-87250000D01*
D30*
X71660000Y-88700000D02*
X68200000Y-88700000D01*
X68200000Y-88700000D02*
X67670000Y-89230000D01*
D29*
X78012500Y-112012500D02*
X78000000Y-112000000D01*
X78000000Y-112000000D02*
X78900000Y-112900000D01*
D30*
X72890000Y-87470000D02*
X71660000Y-88700000D01*
D28*
X80050000Y-87250000D02*
X80050000Y-87100000D01*
D29*
X76960000Y-83400000D02*
X77350000Y-83400000D01*
D28*
X120300000Y-78425000D02*
X117500000Y-78425000D01*
D29*
X77350000Y-83400000D02*
X80050000Y-86100000D01*
X72890000Y-87470000D02*
X76960000Y-83400000D01*
D28*
X95075000Y-78425000D02*
X84850000Y-88650000D01*
D29*
X78012500Y-115400000D02*
X78012500Y-112012500D01*
D28*
X117500000Y-78425000D02*
X95175000Y-78425000D01*
D30*
X67670000Y-89230000D02*
X61300000Y-89230000D01*
D28*
X95175000Y-78425000D02*
X95075000Y-78425000D01*
D29*
X63670000Y-122090000D02*
X63670000Y-122300000D01*
X70350000Y-115410000D02*
X63670000Y-122090000D01*
X70350000Y-112870000D02*
X68120000Y-115100000D01*
X68120000Y-115100000D02*
X63470000Y-115100000D01*
D30*
X68300000Y-111600000D02*
X62270000Y-105570000D01*
X72100000Y-111600000D02*
X68300000Y-111600000D01*
D29*
X76175000Y-112225000D02*
X76175000Y-112000000D01*
D30*
X72890000Y-112390000D02*
X72100000Y-111600000D01*
D29*
X75530000Y-112870000D02*
X76175000Y-112225000D01*
X75530000Y-112870000D02*
X72890000Y-112870000D01*
D30*
X62270000Y-105570000D02*
X61832000Y-105570000D01*
D29*
X72900000Y-115400000D02*
X72890000Y-115410000D01*
X76187500Y-115400000D02*
X72900000Y-115400000D01*
X131000000Y-125930000D02*
X128800000Y-123730000D01*
X128800000Y-115380000D02*
X131310000Y-112870000D01*
X128800000Y-123730000D02*
X128800000Y-115380000D01*
X131310000Y-115410000D02*
X131310000Y-123080000D01*
X131310000Y-123080000D02*
X131000000Y-123390000D01*
X135860000Y-110330000D02*
X133850000Y-110330000D01*
X146030000Y-120500000D02*
X135860000Y-110330000D01*
X133850000Y-74770000D02*
X137650000Y-78570000D01*
X137650000Y-78570000D02*
X137650000Y-81300000D01*
X143800000Y-79640000D02*
X133850000Y-69690000D01*
X143800000Y-84600000D02*
X143800000Y-79640000D01*
X144480000Y-85280000D02*
X143800000Y-84600000D01*
X145600000Y-85280000D02*
X144480000Y-85280000D01*
D31*
X144600000Y-86600000D02*
X144400000Y-86400000D01*
X144400000Y-86400000D02*
X143900000Y-86400000D01*
D29*
X133850000Y-72230000D02*
X142220000Y-80600000D01*
X142700000Y-81080000D02*
X142700000Y-84500000D01*
X142700000Y-84500000D02*
X142700000Y-85200000D01*
D31*
X146820000Y-86600000D02*
X144600000Y-86600000D01*
D29*
X142220000Y-80600000D02*
X142700000Y-81080000D01*
D31*
X148140000Y-85280000D02*
X146820000Y-86600000D01*
D29*
X143700000Y-86200000D02*
X143900000Y-86400000D01*
X142700000Y-85200000D02*
X143700000Y-86200000D01*
X145600000Y-87820000D02*
X143270000Y-87820000D01*
X143270000Y-87820000D02*
X137840000Y-82390000D01*
X137840000Y-82390000D02*
X133850000Y-82390000D01*
X133850000Y-84930000D02*
X138630000Y-84930000D01*
D31*
X148140000Y-87820000D02*
X146860000Y-89100000D01*
X146860000Y-89100000D02*
X142800000Y-89100000D01*
D29*
X138630000Y-84930000D02*
X142800000Y-89100000D01*
D31*
X128700000Y-91350000D02*
X135800000Y-91350000D01*
D29*
X143340000Y-90360000D02*
X142350000Y-91350000D01*
X142350000Y-91350000D02*
X135800000Y-91350000D01*
X124200000Y-95850000D02*
X128700000Y-91350000D01*
X78650000Y-95850000D02*
X124200000Y-95850000D01*
X145600000Y-90360000D02*
X143340000Y-90360000D01*
D31*
X146850000Y-91650000D02*
X143700000Y-91650000D01*
X128900000Y-93800000D02*
X131350000Y-93800000D01*
D29*
X143200000Y-92150000D02*
X143650000Y-91700000D01*
X78750000Y-97300000D02*
X125400000Y-97300000D01*
D31*
X131350000Y-93800000D02*
X135500000Y-93800000D01*
X143700000Y-91650000D02*
X143650000Y-91700000D01*
D29*
X125400000Y-97300000D02*
X128650000Y-94050000D01*
D31*
X148140000Y-90360000D02*
X146850000Y-91650000D01*
D29*
X137150000Y-92150000D02*
X142900000Y-92150000D01*
X135500000Y-93800000D02*
X137150000Y-92150000D01*
X142900000Y-92150000D02*
X143200000Y-92150000D01*
D31*
X128650000Y-94050000D02*
X128900000Y-93800000D01*
X144550000Y-94200000D02*
X146840000Y-94200000D01*
D29*
X136300000Y-90150000D02*
X138650000Y-90150000D01*
X142700000Y-94200000D02*
X144550000Y-94200000D01*
D31*
X146840000Y-94200000D02*
X148140000Y-92900000D01*
X132620000Y-101400000D02*
X131310000Y-102710000D01*
X134700000Y-101300000D02*
X134600000Y-101400000D01*
D29*
X142280000Y-101300000D02*
X135200000Y-101300000D01*
X145600000Y-97980000D02*
X142280000Y-101300000D01*
D31*
X135200000Y-101300000D02*
X134700000Y-101300000D01*
X134600000Y-101400000D02*
X132620000Y-101400000D01*
X135300000Y-104000000D02*
X132560000Y-104000000D01*
D29*
X148140000Y-97980000D02*
X142120000Y-104000000D01*
X142120000Y-104000000D02*
X135300000Y-104000000D01*
D31*
X132560000Y-104000000D02*
X131310000Y-105250000D01*
D29*
X142290000Y-95440000D02*
X145600000Y-95440000D01*
X140650000Y-93800000D02*
X142290000Y-95440000D01*
X136800000Y-93800000D02*
X140650000Y-93800000D01*
D31*
X131310000Y-87470000D02*
X132640000Y-88800000D01*
X132640000Y-88800000D02*
X135100000Y-88800000D01*
D29*
X135100000Y-88800000D02*
X140050000Y-88800000D01*
X140050000Y-88800000D02*
X141350000Y-90100000D01*
X116000000Y-111700000D02*
X116000000Y-121100000D01*
X103100000Y-123600000D02*
X101520000Y-125180000D01*
X112200000Y-107900000D02*
X116000000Y-111700000D01*
X112200000Y-101700000D02*
X110900000Y-103000000D01*
X127600000Y-100700000D02*
X126600000Y-101700000D01*
X126600000Y-101700000D02*
X112600000Y-101700000D01*
X128130000Y-100170000D02*
X127600000Y-100700000D01*
X113500000Y-123600000D02*
X103100000Y-123600000D01*
X112600000Y-101700000D02*
X112200000Y-101700000D01*
X116000000Y-121100000D02*
X113500000Y-123600000D01*
X131310000Y-100170000D02*
X128130000Y-100170000D01*
X101520000Y-125180000D02*
X101520000Y-126800000D01*
X115300000Y-124700000D02*
X103600000Y-124700000D01*
D31*
X101520000Y-129340000D02*
X102800000Y-128060000D01*
D29*
X117500000Y-110800000D02*
X117500000Y-122500000D01*
X123400000Y-103100000D02*
X112900000Y-103100000D01*
X102800000Y-125900000D02*
X102800000Y-125500000D01*
X117500000Y-122500000D02*
X115300000Y-124700000D01*
D31*
X102800000Y-128060000D02*
X102800000Y-125900000D01*
D29*
X113400000Y-106700000D02*
X117500000Y-110800000D01*
X102800000Y-125500000D02*
X103600000Y-124700000D01*
X108200000Y-112700000D02*
X105300000Y-112700000D01*
X107900000Y-111300000D02*
X105000000Y-111300000D01*
X105000000Y-111300000D02*
X102600000Y-113700000D01*
X128000000Y-105350000D02*
X101950000Y-105350000D01*
X101950000Y-105350000D02*
X96600000Y-110700000D01*
X127300000Y-104400000D02*
X101000000Y-104400000D01*
X130000000Y-101700000D02*
X127300000Y-104400000D01*
X130000000Y-101500000D02*
X130000000Y-101700000D01*
X101000000Y-104400000D02*
X97700000Y-107700000D01*
X109091539Y-116950000D02*
X110750000Y-115291539D01*
D31*
X95100000Y-128140000D02*
X93900000Y-129340000D01*
D29*
X110750000Y-114600000D02*
X110750000Y-115291539D01*
D31*
X95100000Y-125100000D02*
X95100000Y-128140000D01*
D29*
X95100000Y-124750000D02*
X95100000Y-125100000D01*
X102900000Y-116950000D02*
X95100000Y-124750000D01*
X109091539Y-116950000D02*
X102900000Y-116950000D01*
X101950000Y-115600000D02*
X93900000Y-123650000D01*
X93900000Y-123650000D02*
X93900000Y-126800000D01*
X108400000Y-115600000D02*
X101950000Y-115600000D01*
X91360000Y-125660000D02*
X91360000Y-126800000D01*
X83400000Y-110400000D02*
X83400000Y-117700000D01*
X75710000Y-102710000D02*
X83400000Y-110400000D01*
X72890000Y-102710000D02*
X75710000Y-102710000D01*
X83400000Y-117700000D02*
X91360000Y-125660000D01*
X88820000Y-126800000D02*
X88820000Y-125120000D01*
X81900000Y-111000000D02*
X76150000Y-105250000D01*
X76150000Y-105250000D02*
X72890000Y-105250000D01*
X88820000Y-125120000D02*
X81900000Y-118200000D01*
X81900000Y-118200000D02*
X81900000Y-111000000D01*
X91360000Y-129340000D02*
X89300000Y-131400000D01*
X80400000Y-111600000D02*
X77800000Y-109000000D01*
X89300000Y-131400000D02*
X87500000Y-131400000D01*
X74220000Y-109000000D02*
X72890000Y-110330000D01*
X85900000Y-124000000D02*
X80400000Y-118500000D01*
X85900000Y-129800000D02*
X85900000Y-124000000D01*
X80400000Y-114500000D02*
X80400000Y-111600000D01*
X77800000Y-109000000D02*
X74220000Y-109000000D01*
X87500000Y-131400000D02*
X85900000Y-129800000D01*
X80400000Y-118500000D02*
X80400000Y-114500000D01*
X107400000Y-80100000D02*
X109690000Y-82390000D01*
X114400000Y-65900000D02*
X142700000Y-65900000D01*
X109690000Y-82390000D02*
X131310000Y-82390000D01*
X107400000Y-72900000D02*
X114400000Y-65900000D01*
X107400000Y-76800000D02*
X107400000Y-72900000D01*
X144730000Y-65390000D02*
X145240000Y-65900000D01*
X132100000Y-60400000D02*
X136600000Y-60400000D01*
X144730000Y-56200000D02*
X144730000Y-65390000D01*
X90700000Y-99350000D02*
X126200000Y-99350000D01*
D30*
X69114511Y-93714511D02*
X81497989Y-93714511D01*
D29*
X88362500Y-92712500D02*
X90250000Y-94600000D01*
X129100000Y-96450000D02*
X129950000Y-96450000D01*
D30*
X81497989Y-93714511D02*
X82500000Y-92712500D01*
D29*
X82500000Y-92712500D02*
X88362500Y-92712500D01*
D30*
X61300000Y-91770000D02*
X67170000Y-91770000D01*
X67170000Y-91770000D02*
X69114511Y-93714511D01*
D31*
X132670000Y-96450000D02*
X133850000Y-97630000D01*
D29*
X126200000Y-99350000D02*
X129100000Y-96450000D01*
D31*
X129950000Y-96450000D02*
X132670000Y-96450000D01*
D28*
X70350000Y-72230000D02*
X65430000Y-72230000D01*
X65430000Y-72230000D02*
X64930000Y-71730000D01*
X64930000Y-71730000D02*
X63000000Y-71730000D01*
X64290000Y-69190000D02*
X63000000Y-69190000D01*
X70350000Y-69690000D02*
X64790000Y-69690000D01*
X64790000Y-69690000D02*
X64290000Y-69190000D01*
D29*
X108430000Y-84930000D02*
X131310000Y-84930000D01*
X103500000Y-80000000D02*
X108430000Y-84930000D01*
X103500000Y-74400000D02*
X103500000Y-76800000D01*
X113400000Y-64500000D02*
X103500000Y-74400000D01*
X142190000Y-56200000D02*
X142190000Y-61410000D01*
X139100000Y-64500000D02*
X113400000Y-64500000D01*
X142190000Y-61410000D02*
X139100000Y-64500000D01*
X144730000Y-49470000D02*
X144730000Y-48000000D01*
X125500000Y-76600000D02*
X125100000Y-76600000D01*
X125100000Y-76600000D02*
X122700000Y-74200000D01*
X143800000Y-50400000D02*
X144730000Y-49470000D01*
D28*
X120300000Y-76600000D02*
X125500000Y-76600000D01*
X129480000Y-76600000D02*
X131310000Y-74770000D01*
D29*
X124400000Y-63200000D02*
X137200000Y-50400000D01*
X137200000Y-50400000D02*
X143800000Y-50400000D01*
D28*
X125500000Y-76600000D02*
X129480000Y-76600000D01*
X117500000Y-76600000D02*
X117500000Y-76500000D01*
X127370000Y-72230000D02*
X131310000Y-72230000D01*
D29*
X129000000Y-70800000D02*
X127570000Y-72230000D01*
X129000000Y-68700000D02*
X129000000Y-70800000D01*
D28*
X117500000Y-76500000D02*
X121770000Y-72230000D01*
D29*
X127570000Y-72230000D02*
X127370000Y-72230000D01*
D28*
X121770000Y-72230000D02*
X127370000Y-72230000D01*
M02*
