G04 #@! TF.GenerationSoftware,KiCad,Pcbnew,(6.0.1)*
G04 #@! TF.CreationDate,2022-02-07T00:01:02+01:00*
G04 #@! TF.ProjectId,CartePrincipaleR1,43617274-6550-4726-996e-636970616c65,rev?*
G04 #@! TF.SameCoordinates,Original*
G04 #@! TF.FileFunction,Soldermask,Top*
G04 #@! TF.FilePolarity,Negative*
%FSLAX46Y46*%
G04 Gerber Fmt 4.6, Leading zero omitted, Abs format (unit mm)*
G04 Created by KiCad (PCBNEW (6.0.1)) date 2022-02-07 00:01:02*
%MOMM*%
%LPD*%
G01*
G04 APERTURE LIST*
G04 Aperture macros list*
%AMRoundRect*
0 Rectangle with rounded corners*
0 $1 Rounding radius*
0 $2 $3 $4 $5 $6 $7 $8 $9 X,Y pos of 4 corners*
0 Add a 4 corners polygon primitive as box body*
4,1,4,$2,$3,$4,$5,$6,$7,$8,$9,$2,$3,0*
0 Add four circle primitives for the rounded corners*
1,1,$1+$1,$2,$3*
1,1,$1+$1,$4,$5*
1,1,$1+$1,$6,$7*
1,1,$1+$1,$8,$9*
0 Add four rect primitives between the rounded corners*
20,1,$1+$1,$2,$3,$4,$5,0*
20,1,$1+$1,$4,$5,$6,$7,0*
20,1,$1+$1,$6,$7,$8,$9,0*
20,1,$1+$1,$8,$9,$2,$3,0*%
G04 Aperture macros list end*
%ADD10RoundRect,0.250000X0.450000X-0.262500X0.450000X0.262500X-0.450000X0.262500X-0.450000X-0.262500X0*%
%ADD11C,1.524000*%
%ADD12RoundRect,0.250000X-0.250000X-0.475000X0.250000X-0.475000X0.250000X0.475000X-0.250000X0.475000X0*%
%ADD13C,3.200000*%
%ADD14R,2.000000X1.500000*%
%ADD15R,2.000000X3.800000*%
%ADD16RoundRect,0.250000X0.262500X0.450000X-0.262500X0.450000X-0.262500X-0.450000X0.262500X-0.450000X0*%
%ADD17R,1.530000X1.530000*%
%ADD18C,1.530000*%
%ADD19RoundRect,0.250000X-0.450000X0.262500X-0.450000X-0.262500X0.450000X-0.262500X0.450000X0.262500X0*%
%ADD20RoundRect,0.250000X-0.600000X0.600000X-0.600000X-0.600000X0.600000X-0.600000X0.600000X0.600000X0*%
%ADD21C,1.700000*%
%ADD22RoundRect,0.250000X-0.600000X-0.600000X0.600000X-0.600000X0.600000X0.600000X-0.600000X0.600000X0*%
G04 APERTURE END LIST*
D10*
X120300000Y-78425000D03*
X120300000Y-76600000D03*
D11*
X151110000Y-120500000D03*
X148570000Y-120500000D03*
X146030000Y-120500000D03*
X143490000Y-120500000D03*
D12*
X79600000Y-75400000D03*
X81500000Y-75400000D03*
D11*
X142190000Y-56200000D03*
X144730000Y-56200000D03*
X147270000Y-56200000D03*
X149810000Y-56200000D03*
D13*
X145000000Y-129000000D03*
D11*
X149810000Y-48000000D03*
X147270000Y-48000000D03*
X144730000Y-48000000D03*
X142190000Y-48000000D03*
D13*
X63000000Y-41000000D03*
D14*
X77350000Y-78800000D03*
X77350000Y-81100000D03*
D15*
X83650000Y-81100000D03*
D14*
X77350000Y-83400000D03*
D11*
X63000000Y-76810000D03*
X63000000Y-74270000D03*
X63000000Y-71730000D03*
X63000000Y-69190000D03*
X142700000Y-65900000D03*
X145240000Y-65900000D03*
X147780000Y-65900000D03*
X150320000Y-65900000D03*
D12*
X80050000Y-87100000D03*
X81950000Y-87100000D03*
D16*
X78012500Y-115400000D03*
X76187500Y-115400000D03*
D17*
X70350000Y-69690000D03*
D18*
X72890000Y-69690000D03*
X70350000Y-72230000D03*
X72890000Y-72230000D03*
X70350000Y-74770000D03*
X72890000Y-74770000D03*
X70350000Y-77310000D03*
X72890000Y-77310000D03*
X70350000Y-79850000D03*
X72890000Y-79850000D03*
X70350000Y-82390000D03*
X72890000Y-82390000D03*
X70350000Y-84930000D03*
X72890000Y-84930000D03*
X70350000Y-87470000D03*
X72890000Y-87470000D03*
X70350000Y-90010000D03*
X72890000Y-90010000D03*
X70350000Y-92550000D03*
X72890000Y-92550000D03*
X70350000Y-95090000D03*
X72890000Y-95090000D03*
X70350000Y-97630000D03*
X72890000Y-97630000D03*
X70350000Y-100170000D03*
X72890000Y-100170000D03*
X70350000Y-102710000D03*
X72890000Y-102710000D03*
X70350000Y-105250000D03*
X72890000Y-105250000D03*
X70350000Y-107790000D03*
X72890000Y-107790000D03*
X70350000Y-110330000D03*
X72890000Y-110330000D03*
X70350000Y-112870000D03*
X72890000Y-112870000D03*
X70350000Y-115410000D03*
X72890000Y-115410000D03*
D17*
X131310000Y-69690000D03*
D18*
X133850000Y-69690000D03*
X131310000Y-72230000D03*
X133850000Y-72230000D03*
X131310000Y-74770000D03*
X133850000Y-74770000D03*
X131310000Y-77310000D03*
X133850000Y-77310000D03*
X131310000Y-79850000D03*
X133850000Y-79850000D03*
X131310000Y-82390000D03*
X133850000Y-82390000D03*
X131310000Y-84930000D03*
X133850000Y-84930000D03*
X131310000Y-87470000D03*
X133850000Y-87470000D03*
X131310000Y-90010000D03*
X133850000Y-90010000D03*
X131310000Y-92550000D03*
X133850000Y-92550000D03*
X131310000Y-95090000D03*
X133850000Y-95090000D03*
X131310000Y-97630000D03*
X133850000Y-97630000D03*
X131310000Y-100170000D03*
X133850000Y-100170000D03*
X131310000Y-102710000D03*
X133850000Y-102710000D03*
X131310000Y-105250000D03*
X133850000Y-105250000D03*
X131310000Y-107790000D03*
X133850000Y-107790000D03*
X131310000Y-110330000D03*
X133850000Y-110330000D03*
X131310000Y-112870000D03*
X133850000Y-112870000D03*
X131310000Y-115410000D03*
X133850000Y-115410000D03*
D11*
X61300000Y-89230000D03*
X61300000Y-91770000D03*
X131000000Y-131010000D03*
X131000000Y-128470000D03*
X131000000Y-125930000D03*
X131000000Y-123390000D03*
D13*
X63000000Y-129000000D03*
D11*
X63470000Y-115100000D03*
X60930000Y-115100000D03*
D19*
X82500000Y-90887500D03*
X82500000Y-92712500D03*
D13*
X145000000Y-41000000D03*
D20*
X106600000Y-126600000D03*
D21*
X106600000Y-129140000D03*
X104060000Y-126600000D03*
X104060000Y-129140000D03*
X101520000Y-126600000D03*
X101520000Y-129140000D03*
X98980000Y-126600000D03*
X98980000Y-129140000D03*
X96440000Y-126600000D03*
X96440000Y-129140000D03*
X93900000Y-126600000D03*
X93900000Y-129140000D03*
X91360000Y-126600000D03*
X91360000Y-129140000D03*
X88820000Y-126600000D03*
X88820000Y-129140000D03*
D22*
X145600000Y-80200000D03*
D21*
X148140000Y-80200000D03*
X145600000Y-82740000D03*
X148140000Y-82740000D03*
X145600000Y-85280000D03*
X148140000Y-85280000D03*
X145600000Y-87820000D03*
X148140000Y-87820000D03*
X145600000Y-90360000D03*
X148140000Y-90360000D03*
X145600000Y-92900000D03*
X148140000Y-92900000D03*
X145600000Y-95440000D03*
X148140000Y-95440000D03*
X145600000Y-97980000D03*
X148140000Y-97980000D03*
D10*
X117500000Y-78425000D03*
X117500000Y-76600000D03*
D11*
X61832000Y-100490000D03*
X61832000Y-103030000D03*
X61832000Y-105570000D03*
X61832000Y-108110000D03*
X63670000Y-122300000D03*
X61130000Y-122300000D03*
D16*
X78000000Y-112000000D03*
X76175000Y-112000000D03*
M02*
