M48
; DRILL file {KiCad (6.0.1)} date Mon Feb  7 00:01:15 2022
; FORMAT={-:-/ absolute / inch / decimal}
; #@! TF.CreationDate,2022-02-07T00:01:15+01:00
; #@! TF.GenerationSoftware,Kicad,Pcbnew,(6.0.1)
; #@! TF.FileFunction,Plated,1,2,PTH
FMAT,2
INCH
; #@! TA.AperFunction,Plated,PTH,ViaDrill
T1C0.0118
; #@! TA.AperFunction,Plated,PTH,ViaDrill
T2C0.0157
; #@! TA.AperFunction,Plated,PTH,ComponentDrill
T3C0.0300
; #@! TA.AperFunction,Plated,PTH,ComponentDrill
T4C0.0394
; #@! TA.AperFunction,Plated,PTH,ComponentDrill
T5C0.0402
%
G90
G05
T1
X3.0965Y-3.7736
X3.1004Y-3.8307
X3.1575Y-3.1929
X3.2067Y-3.4902
X3.3406Y-3.4902
X3.5531Y-3.7244
X3.5709Y-3.9114
X3.8031Y-4.3583
X3.8465Y-4.2402
X4.0394Y-4.4764
X4.0748Y-3.0236
X4.0748Y-3.1496
X4.1457Y-4.437
X4.2283Y-3.0236
X4.2283Y-3.1535
X4.248Y-4.3819
X4.2598Y-4.437
X4.2677Y-4.5512
X4.3602Y-4.5118
X4.3661Y-4.0551
X4.4173Y-4.248
X4.4449Y-4.0591
X4.4646Y-4.2008
X4.8583Y-4.0591
X5.0394Y-4.1476
X5.0787Y-2.7047
X5.1181Y-3.9961
X5.2008Y-2.378
X5.3661Y-3.5492
X5.378Y-2.378
X5.3858Y-3.6929
X5.4193Y-3.2008
X5.4587Y-3.5492
X5.565Y-3.5472
X5.6181Y-3.7087
T2
X3.1063Y-4.4449
X4.8307Y-2.9213
X4.8976Y-2.4882
T3
X2.3988Y-4.5315
X2.4067Y-4.815
X2.4134Y-3.513
X2.4134Y-3.613
X2.4343Y-3.9563
X2.4343Y-4.0563
X2.4343Y-4.1563
X2.4343Y-4.2563
X2.4803Y-2.724
X2.4803Y-2.824
X2.4803Y-2.924
X2.4803Y-3.024
X2.4988Y-4.5315
X2.5067Y-4.815
X5.1575Y-4.8579
X5.1575Y-4.9579
X5.1575Y-5.0579
X5.1575Y-5.1579
X5.598Y-1.8898
X5.598Y-2.2126
X5.6181Y-2.5945
X5.6492Y-4.7441
X5.698Y-1.8898
X5.698Y-2.2126
X5.7181Y-2.5945
X5.7492Y-4.7441
X5.798Y-1.8898
X5.798Y-2.2126
X5.8181Y-2.5945
X5.8492Y-4.7441
X5.898Y-1.8898
X5.898Y-2.2126
X5.9181Y-2.5945
X5.9492Y-4.7441
T4
X3.4969Y-4.9843
X3.4969Y-5.0843
X3.5969Y-4.9843
X3.5969Y-5.0843
X3.6969Y-4.9843
X3.6969Y-5.0843
X3.7969Y-4.9843
X3.7969Y-5.0843
X3.8969Y-4.9843
X3.8969Y-5.0843
X3.9969Y-4.9843
X3.9969Y-5.0843
X4.0969Y-4.9843
X4.0969Y-5.0843
X4.1969Y-4.9843
X4.1969Y-5.0843
X5.7323Y-3.1575
X5.7323Y-3.2575
X5.7323Y-3.3575
X5.7323Y-3.4575
X5.7323Y-3.5575
X5.7323Y-3.6575
X5.7323Y-3.7575
X5.7323Y-3.8575
X5.8323Y-3.1575
X5.8323Y-3.2575
X5.8323Y-3.3575
X5.8323Y-3.4575
X5.8323Y-3.5575
X5.8323Y-3.6575
X5.8323Y-3.7575
X5.8323Y-3.8575
T5
X2.7697Y-2.7437
X2.7697Y-2.8437
X2.7697Y-2.9437
X2.7697Y-3.0437
X2.7697Y-3.1437
X2.7697Y-3.2437
X2.7697Y-3.3437
X2.7697Y-3.4437
X2.7697Y-3.5437
X2.7697Y-3.6437
X2.7697Y-3.7437
X2.7697Y-3.8437
X2.7697Y-3.9437
X2.7697Y-4.0437
X2.7697Y-4.1437
X2.7697Y-4.2437
X2.7697Y-4.3437
X2.7697Y-4.4437
X2.7697Y-4.5437
X2.8697Y-2.7437
X2.8697Y-2.8437
X2.8697Y-2.9437
X2.8697Y-3.0437
X2.8697Y-3.1437
X2.8697Y-3.2437
X2.8697Y-3.3437
X2.8697Y-3.4437
X2.8697Y-3.5437
X2.8697Y-3.6437
X2.8697Y-3.7437
X2.8697Y-3.8437
X2.8697Y-3.9437
X2.8697Y-4.0437
X2.8697Y-4.1437
X2.8697Y-4.2437
X2.8697Y-4.3437
X2.8697Y-4.4437
X2.8697Y-4.5437
X5.1697Y-2.7437
X5.1697Y-2.8437
X5.1697Y-2.9437
X5.1697Y-3.0437
X5.1697Y-3.1437
X5.1697Y-3.2437
X5.1697Y-3.3437
X5.1697Y-3.4437
X5.1697Y-3.5437
X5.1697Y-3.6437
X5.1697Y-3.7437
X5.1697Y-3.8437
X5.1697Y-3.9437
X5.1697Y-4.0437
X5.1697Y-4.1437
X5.1697Y-4.2437
X5.1697Y-4.3437
X5.1697Y-4.4437
X5.1697Y-4.5437
X5.2697Y-2.7437
X5.2697Y-2.8437
X5.2697Y-2.9437
X5.2697Y-3.0437
X5.2697Y-3.1437
X5.2697Y-3.2437
X5.2697Y-3.3437
X5.2697Y-3.4437
X5.2697Y-3.5437
X5.2697Y-3.6437
X5.2697Y-3.7437
X5.2697Y-3.8437
X5.2697Y-3.9437
X5.2697Y-4.0437
X5.2697Y-4.1437
X5.2697Y-4.2437
X5.2697Y-4.3437
X5.2697Y-4.4437
X5.2697Y-4.5437
T0
M30
